<svg xmlns="http://www.w3.org/2000/svg" xmlns:xlink="http://www.w3.org/1999/xlink" width="1080" zoomAndPan="magnify" viewBox="0 0 810 809.999993" height="1080" preserveAspectRatio="xMidYMid meet" version="1.0"><defs><clipPath id="2ca4f6dfae"><path d="M 438.75 540 L 472.5 540 L 472.5 573.75 L 438.75 573.75 Z M 438.75 540 " clip-rule="nonzero"/></clipPath><clipPath id="09e787fc3a"><path d="M 438.75 556.875 C 438.75 555.765625 438.859375 554.667969 439.074219 553.582031 C 439.289062 552.496094 439.609375 551.441406 440.035156 550.417969 C 440.457031 549.394531 440.976562 548.421875 441.59375 547.5 C 442.210938 546.578125 442.910156 545.726562 443.691406 544.941406 C 444.476562 544.160156 445.328125 543.460938 446.25 542.84375 C 447.171875 542.226562 448.144531 541.707031 449.167969 541.285156 C 450.191406 540.859375 451.246094 540.539062 452.332031 540.324219 C 453.417969 540.109375 454.515625 540 455.625 540 C 456.734375 540 457.832031 540.109375 458.917969 540.324219 C 460.003906 540.539062 461.058594 540.859375 462.082031 541.285156 C 463.105469 541.707031 464.078125 542.226562 465 542.84375 C 465.921875 543.460938 466.773438 544.160156 467.558594 544.941406 C 468.339844 545.726562 469.039062 546.578125 469.65625 547.5 C 470.273438 548.421875 470.792969 549.394531 471.214844 550.417969 C 471.640625 551.441406 471.960938 552.496094 472.175781 553.582031 C 472.390625 554.667969 472.5 555.765625 472.5 556.875 C 472.5 557.984375 472.390625 559.082031 472.175781 560.167969 C 471.960938 561.253906 471.640625 562.308594 471.214844 563.332031 C 470.792969 564.355469 470.273438 565.328125 469.65625 566.25 C 469.039062 567.171875 468.339844 568.023438 467.558594 568.808594 C 466.773438 569.589844 465.921875 570.289062 465 570.90625 C 464.078125 571.523438 463.105469 572.042969 462.082031 572.464844 C 461.058594 572.890625 460.003906 573.210938 458.917969 573.425781 C 457.832031 573.640625 456.734375 573.75 455.625 573.75 C 454.515625 573.75 453.417969 573.640625 452.332031 573.425781 C 451.246094 573.210938 450.191406 572.890625 449.167969 572.464844 C 448.144531 572.042969 447.171875 571.523438 446.25 570.90625 C 445.328125 570.289062 444.476562 569.589844 443.691406 568.808594 C 442.910156 568.023438 442.210938 567.171875 441.59375 566.25 C 440.976562 565.328125 440.457031 564.355469 440.035156 563.332031 C 439.609375 562.308594 439.289062 561.253906 439.074219 560.167969 C 438.859375 559.082031 438.75 557.984375 438.75 556.875 Z M 438.75 556.875 " clip-rule="nonzero"/></clipPath><clipPath id="334df3a3a3"><path d="M 506.25 540 L 540 540 L 540 573.75 L 506.25 573.75 Z M 506.25 540 " clip-rule="nonzero"/></clipPath><clipPath id="588bcc7f53"><path d="M 506.25 556.875 C 506.25 555.765625 506.359375 554.667969 506.574219 553.582031 C 506.789062 552.496094 507.109375 551.441406 507.535156 550.417969 C 507.957031 549.394531 508.476562 548.421875 509.09375 547.5 C 509.710938 546.578125 510.410156 545.726562 511.191406 544.941406 C 511.976562 544.160156 512.828125 543.460938 513.75 542.84375 C 514.671875 542.226562 515.644531 541.707031 516.667969 541.285156 C 517.691406 540.859375 518.746094 540.539062 519.832031 540.324219 C 520.917969 540.109375 522.015625 540 523.125 540 C 524.234375 540 525.332031 540.109375 526.417969 540.324219 C 527.503906 540.539062 528.558594 540.859375 529.582031 541.285156 C 530.605469 541.707031 531.578125 542.226562 532.5 542.84375 C 533.421875 543.460938 534.273438 544.160156 535.058594 544.941406 C 535.839844 545.726562 536.539062 546.578125 537.15625 547.5 C 537.773438 548.421875 538.292969 549.394531 538.714844 550.417969 C 539.140625 551.441406 539.460938 552.496094 539.675781 553.582031 C 539.890625 554.667969 540 555.765625 540 556.875 C 540 557.984375 539.890625 559.082031 539.675781 560.167969 C 539.460938 561.253906 539.140625 562.308594 538.714844 563.332031 C 538.292969 564.355469 537.773438 565.328125 537.15625 566.25 C 536.539062 567.171875 535.839844 568.023438 535.058594 568.808594 C 534.273438 569.589844 533.421875 570.289062 532.5 570.90625 C 531.578125 571.523438 530.605469 572.042969 529.582031 572.464844 C 528.558594 572.890625 527.503906 573.210938 526.417969 573.425781 C 525.332031 573.640625 524.234375 573.75 523.125 573.75 C 522.015625 573.75 520.917969 573.640625 519.832031 573.425781 C 518.746094 573.210938 517.691406 572.890625 516.667969 572.464844 C 515.644531 572.042969 514.671875 571.523438 513.75 570.90625 C 512.828125 570.289062 511.976562 569.589844 511.191406 568.808594 C 510.410156 568.023438 509.710938 567.171875 509.09375 566.25 C 508.476562 565.328125 507.957031 564.355469 507.535156 563.332031 C 507.109375 562.308594 506.789062 561.253906 506.574219 560.167969 C 506.359375 559.082031 506.25 557.984375 506.25 556.875 Z M 506.25 556.875 " clip-rule="nonzero"/></clipPath><clipPath id="34d49e3842"><path d="M 573.75 540 L 607.5 540 L 607.5 573.75 L 573.75 573.75 Z M 573.75 540 " clip-rule="nonzero"/></clipPath><clipPath id="a952649571"><path d="M 573.75 556.875 C 573.75 555.765625 573.859375 554.667969 574.074219 553.582031 C 574.289062 552.496094 574.609375 551.441406 575.035156 550.417969 C 575.457031 549.394531 575.976562 548.421875 576.59375 547.5 C 577.210938 546.578125 577.910156 545.726562 578.691406 544.941406 C 579.476562 544.160156 580.328125 543.460938 581.25 542.84375 C 582.171875 542.226562 583.144531 541.707031 584.167969 541.285156 C 585.191406 540.859375 586.246094 540.539062 587.332031 540.324219 C 588.417969 540.109375 589.515625 540 590.625 540 C 591.734375 540 592.832031 540.109375 593.917969 540.324219 C 595.003906 540.539062 596.058594 540.859375 597.082031 541.285156 C 598.105469 541.707031 599.078125 542.226562 600 542.84375 C 600.921875 543.460938 601.773438 544.160156 602.558594 544.941406 C 603.339844 545.726562 604.039062 546.578125 604.65625 547.5 C 605.273438 548.421875 605.792969 549.394531 606.214844 550.417969 C 606.640625 551.441406 606.960938 552.496094 607.175781 553.582031 C 607.390625 554.667969 607.5 555.765625 607.5 556.875 C 607.5 557.984375 607.390625 559.082031 607.175781 560.167969 C 606.960938 561.253906 606.640625 562.308594 606.214844 563.332031 C 605.792969 564.355469 605.273438 565.328125 604.65625 566.25 C 604.039062 567.171875 603.339844 568.023438 602.558594 568.808594 C 601.773438 569.589844 600.921875 570.289062 600 570.90625 C 599.078125 571.523438 598.105469 572.042969 597.082031 572.464844 C 596.058594 572.890625 595.003906 573.210938 593.917969 573.425781 C 592.832031 573.640625 591.734375 573.75 590.625 573.75 C 589.515625 573.75 588.417969 573.640625 587.332031 573.425781 C 586.246094 573.210938 585.191406 572.890625 584.167969 572.464844 C 583.144531 572.042969 582.171875 571.523438 581.25 570.90625 C 580.328125 570.289062 579.476562 569.589844 578.691406 568.808594 C 577.910156 568.023438 577.210938 567.171875 576.59375 566.25 C 575.976562 565.328125 575.457031 564.355469 575.035156 563.332031 C 574.609375 562.308594 574.289062 561.253906 574.074219 560.167969 C 573.859375 559.082031 573.75 557.984375 573.75 556.875 Z M 573.75 556.875 " clip-rule="nonzero"/></clipPath></defs><path fill="#009688" d="M 135 384.921875 L 180.449219 345.699219 L 189.949219 337.5 L 506.25 337.5 L 506.25 101.25 L 135 101.25 L 135 384.921875 M 118.246094 438.75 C 109.570312 438.75 101.25 432.015625 101.25 421.839844 L 101.25 101.25 C 101.25 82.601562 116.351562 67.5 135 67.5 L 506.25 67.5 C 524.898438 67.5 540 82.601562 540 101.25 L 540 337.5 C 540 356.148438 524.898438 371.25 506.25 371.25 L 202.5 371.25 L 130.054688 433.773438 C 126.617188 437.210938 122.390625 438.75 118.246094 438.75 Z M 118.246094 438.75 " fill-opacity="1" fill-rule="nonzero"/><path fill="#009688" d="M 675 688.671875 L 675 472.5 L 303.75 472.5 L 303.75 641.25 L 620.050781 641.25 L 629.550781 649.449219 L 675 688.671875 M 691.753906 742.5 C 687.609375 742.5 683.382812 740.960938 679.945312 737.523438 L 607.5 675 L 303.75 675 C 285.101562 675 270 659.898438 270 641.25 L 270 472.5 C 270 453.851562 285.101562 438.75 303.75 438.75 L 675 438.75 C 693.648438 438.75 708.75 453.851562 708.75 472.5 L 708.75 725.589844 C 708.75 735.765625 700.429688 742.5 691.753906 742.5 Z M 691.753906 742.5 " fill-opacity="1" fill-rule="nonzero"/><g clip-path="url(#2ca4f6dfae)"><g clip-path="url(#09e787fc3a)"><path stroke-linecap="butt" transform="matrix(16.874999, 0, 0, 16.874999, 438.749981, 539.999993)" fill="none" stroke-linejoin="miter" d="M 0.00000110062 1 L 2.000001 1 M 1.000001 0.000000424691 L 1.000001 2.000001 M 2.000001 1 L 0.00000110062 1 M 1.000001 2.000001 L 1.000001 0.000000424691 " stroke="#e74c3c" stroke-width="2" stroke-opacity="1" stroke-miterlimit="10"/></g></g><g clip-path="url(#334df3a3a3)"><g clip-path="url(#588bcc7f53)"><path stroke-linecap="butt" transform="matrix(16.874999, 0, 0, 16.874999, 506.249978, 539.999993)" fill="none" stroke-linejoin="miter" d="M 0.00000130185 1 L 2.000001 1 M 1.000001 0.000000424691 L 1.000001 2.000001 M 2.000001 1 L 0.00000130185 1 M 1.000001 2.000001 L 1.000001 0.000000424691 " stroke="#e74c3c" stroke-width="2" stroke-opacity="1" stroke-miterlimit="10"/></g></g><g clip-path="url(#34d49e3842)"><g clip-path="url(#a952649571)"><path stroke-linecap="butt" transform="matrix(16.874999, 0, 0, 16.874999, 573.749975, 539.999993)" fill="none" stroke-linejoin="miter" d="M 0.00000150309 1 L 2.000002 1 M 1.000002 0.000000424691 L 1.000002 2.000001 M 2.000002 1 L 0.00000150309 1 M 1.000002 2.000001 L 1.000002 0.000000424691 " stroke="#e74c3c" stroke-width="2" stroke-opacity="1" stroke-miterlimit="10"/></g></g></svg>