<svg xmlns="http://www.w3.org/2000/svg" xmlns:xlink="http://www.w3.org/1999/xlink" width="1080" zoomAndPan="magnify" viewBox="0 0 810 809.999993" height="1080" preserveAspectRatio="xMidYMid meet" version="1.0"><path fill="#009688" d="M 405.085938 405 C 407.019531 405 408.949219 404.953125 410.882812 404.855469 C 412.8125 404.761719 414.738281 404.621094 416.664062 404.429688 C 418.585938 404.242188 420.503906 404.003906 422.417969 403.722656 C 424.328125 403.4375 426.234375 403.105469 428.128906 402.730469 C 430.023438 402.351562 431.910156 401.929688 433.785156 401.460938 C 435.660156 400.988281 437.523438 400.472656 439.375 399.914062 C 441.222656 399.351562 443.058594 398.746094 444.878906 398.09375 C 446.699219 397.441406 448.5 396.746094 450.289062 396.007812 C 452.074219 395.269531 453.839844 394.484375 455.585938 393.65625 C 457.335938 392.832031 459.0625 391.960938 460.769531 391.050781 C 462.472656 390.140625 464.152344 389.1875 465.808594 388.191406 C 467.46875 387.199219 469.101562 386.164062 470.710938 385.089844 C 472.316406 384.015625 473.898438 382.902344 475.449219 381.753906 C 477.003906 380.601562 478.527344 379.414062 480.019531 378.1875 C 481.515625 376.960938 482.980469 375.699219 484.410156 374.398438 C 485.84375 373.101562 487.242188 371.769531 488.609375 370.402344 C 489.976562 369.035156 491.308594 367.632812 492.609375 366.203125 C 493.90625 364.769531 495.167969 363.304688 496.394531 361.8125 C 497.621094 360.316406 498.808594 358.792969 499.960938 357.242188 C 501.113281 355.6875 502.226562 354.109375 503.300781 352.5 C 504.375 350.894531 505.410156 349.261719 506.402344 347.601562 C 507.398438 345.945312 508.351562 344.261719 509.261719 342.558594 C 510.171875 340.851562 511.039062 339.125 511.867188 337.378906 C 512.695312 335.632812 513.476562 333.863281 514.21875 332.078125 C 514.957031 330.292969 515.652344 328.488281 516.304688 326.667969 C 516.953125 324.847656 517.5625 323.015625 518.125 321.164062 C 518.683594 319.3125 519.199219 317.449219 519.667969 315.578125 C 520.136719 313.699219 520.5625 311.816406 520.9375 309.917969 C 521.316406 308.023438 521.648438 306.117188 521.929688 304.207031 C 522.214844 302.292969 522.453125 300.375 522.640625 298.453125 C 522.832031 296.53125 522.972656 294.601562 523.066406 292.671875 C 523.164062 290.738281 523.210938 288.808594 523.210938 286.875 C 523.210938 284.941406 523.164062 283.011719 523.066406 281.078125 C 522.972656 279.148438 522.832031 277.21875 522.640625 275.296875 C 522.453125 273.371094 522.214844 271.453125 521.929688 269.542969 C 521.648438 267.628906 521.316406 265.726562 520.9375 263.828125 C 520.5625 261.933594 520.136719 260.046875 519.667969 258.171875 C 519.199219 256.296875 518.683594 254.433594 518.125 252.585938 C 517.5625 250.734375 516.953125 248.898438 516.304688 247.078125 C 515.652344 245.257812 514.957031 243.457031 514.214844 241.667969 C 513.476562 239.882812 512.695312 238.117188 511.867188 236.371094 C 511.039062 234.621094 510.171875 232.894531 509.261719 231.191406 C 508.347656 229.484375 507.394531 227.804688 506.402344 226.144531 C 505.410156 224.488281 504.375 222.855469 503.300781 221.246094 C 502.226562 219.640625 501.113281 218.058594 499.960938 216.507812 C 498.808594 214.953125 497.621094 213.429688 496.394531 211.9375 C 495.167969 210.441406 493.90625 208.980469 492.609375 207.546875 C 491.308594 206.113281 489.976562 204.714844 488.609375 203.347656 C 487.242188 201.980469 485.84375 200.648438 484.414062 199.347656 C 482.980469 198.050781 481.515625 196.789062 480.019531 195.5625 C 478.527344 194.335938 477.003906 193.148438 475.449219 191.996094 C 473.898438 190.84375 472.316406 189.730469 470.710938 188.65625 C 469.101562 187.582031 467.46875 186.550781 465.808594 185.554688 C 464.152344 184.5625 462.472656 183.609375 460.769531 182.699219 C 459.0625 181.785156 457.335938 180.917969 455.585938 180.089844 C 453.839844 179.265625 452.074219 178.480469 450.289062 177.742188 C 448.5 177 446.699219 176.304688 444.878906 175.65625 C 443.058594 175.003906 441.222656 174.398438 439.375 173.835938 C 437.523438 173.273438 435.660156 172.757812 433.785156 172.289062 C 431.910156 171.820312 430.023438 171.398438 428.128906 171.019531 C 426.234375 170.640625 424.328125 170.3125 422.417969 170.027344 C 420.503906 169.746094 418.585938 169.507812 416.664062 169.320312 C 414.742188 169.128906 412.8125 168.988281 410.882812 168.894531 C 408.949219 168.796875 407.019531 168.75 405.085938 168.75 C 403.152344 168.75 401.222656 168.796875 399.289062 168.894531 C 397.359375 168.988281 395.429688 169.128906 393.507812 169.320312 C 391.582031 169.507812 389.664062 169.746094 387.753906 170.027344 C 385.839844 170.3125 383.933594 170.640625 382.039062 171.019531 C 380.144531 171.398438 378.257812 171.820312 376.382812 172.289062 C 374.507812 172.757812 372.644531 173.273438 370.792969 173.835938 C 368.945312 174.398438 367.109375 175.003906 365.289062 175.65625 C 363.46875 176.304688 361.664062 177 359.878906 177.742188 C 358.09375 178.480469 356.328125 179.265625 354.578125 180.089844 C 352.832031 180.917969 351.105469 181.785156 349.402344 182.699219 C 347.695312 183.609375 346.015625 184.5625 344.355469 185.554688 C 342.699219 186.550781 341.066406 187.582031 339.457031 188.65625 C 337.851562 189.730469 336.269531 190.84375 334.71875 191.996094 C 333.164062 193.148438 331.640625 194.335938 330.148438 195.5625 C 328.652344 196.789062 327.191406 198.050781 325.757812 199.351562 C 324.324219 200.648438 322.925781 201.980469 321.558594 203.347656 C 320.191406 204.714844 318.859375 206.113281 317.558594 207.546875 C 316.261719 208.980469 315 210.441406 313.773438 211.9375 C 312.546875 213.429688 311.355469 214.953125 310.207031 216.507812 C 309.054688 218.058594 307.941406 219.640625 306.867188 221.246094 C 305.792969 222.855469 304.757812 224.488281 303.765625 226.144531 C 302.773438 227.804688 301.820312 229.484375 300.910156 231.191406 C 299.996094 232.894531 299.125 234.621094 298.300781 236.371094 C 297.472656 238.117188 296.691406 239.882812 295.949219 241.667969 C 295.210938 243.457031 294.515625 245.257812 293.863281 247.078125 C 293.210938 248.898438 292.605469 250.734375 292.046875 252.585938 C 291.484375 254.433594 290.96875 256.296875 290.5 258.171875 C 290.027344 260.046875 289.605469 261.933594 289.230469 263.828125 C 288.851562 265.726562 288.519531 267.628906 288.238281 269.542969 C 287.953125 271.453125 287.714844 273.371094 287.527344 275.296875 C 287.339844 277.21875 287.199219 279.148438 287.101562 281.078125 C 287.007812 283.011719 286.960938 284.941406 286.960938 286.875 C 286.960938 288.808594 287.007812 290.738281 287.101562 292.671875 C 287.199219 294.601562 287.339844 296.53125 287.527344 298.453125 C 287.71875 300.375 287.953125 302.292969 288.238281 304.207031 C 288.523438 306.117188 288.851562 308.023438 289.230469 309.917969 C 289.605469 311.816406 290.027344 313.699219 290.5 315.578125 C 290.96875 317.449219 291.484375 319.3125 292.046875 321.164062 C 292.605469 323.015625 293.210938 324.847656 293.863281 326.667969 C 294.515625 328.488281 295.210938 330.292969 295.949219 332.078125 C 296.691406 333.863281 297.472656 335.632812 298.300781 337.378906 C 299.125 339.125 299.996094 340.851562 300.90625 342.558594 C 301.816406 344.261719 302.769531 345.945312 303.761719 347.601562 C 304.757812 349.261719 305.789062 350.894531 306.863281 352.5 C 307.9375 354.109375 309.050781 355.6875 310.203125 357.242188 C 311.355469 358.792969 312.542969 360.316406 313.773438 361.8125 C 314.996094 363.304688 316.257812 364.769531 317.558594 366.203125 C 318.855469 367.632812 320.1875 369.035156 321.554688 370.402344 C 322.921875 371.769531 324.320312 373.101562 325.753906 374.398438 C 327.1875 375.699219 328.648438 376.960938 330.144531 378.1875 C 331.636719 379.414062 333.164062 380.601562 334.714844 381.753906 C 336.269531 382.90625 337.847656 384.019531 339.453125 385.089844 C 341.0625 386.164062 342.695312 387.199219 344.351562 388.195312 C 346.011719 389.1875 347.695312 390.140625 349.398438 391.050781 C 351.105469 391.960938 352.832031 392.832031 354.578125 393.660156 C 356.324219 394.484375 358.09375 395.269531 359.878906 396.007812 C 361.664062 396.746094 363.464844 397.441406 365.285156 398.09375 C 367.109375 398.746094 368.941406 399.351562 370.792969 399.914062 C 372.640625 400.472656 374.503906 400.988281 376.378906 401.460938 C 378.253906 401.929688 380.140625 402.351562 382.039062 402.730469 C 383.933594 403.105469 385.839844 403.4375 387.75 403.722656 C 389.664062 404.003906 391.582031 404.242188 393.503906 404.429688 C 395.429688 404.621094 397.355469 404.761719 399.289062 404.855469 C 401.21875 404.953125 403.152344 405 405.085938 405 Z M 405.085938 202.5 C 406.464844 202.5 407.847656 202.535156 409.226562 202.601562 C 410.605469 202.667969 411.980469 202.769531 413.355469 202.90625 C 414.730469 203.042969 416.097656 203.210938 417.464844 203.414062 C 418.828125 203.617188 420.191406 203.851562 421.542969 204.121094 C 422.898438 204.390625 424.246094 204.691406 425.585938 205.027344 C 426.925781 205.363281 428.257812 205.734375 429.578125 206.132812 C 430.898438 206.535156 432.207031 206.96875 433.507812 207.433594 C 434.808594 207.898438 436.097656 208.394531 437.371094 208.921875 C 438.648438 209.453125 439.910156 210.011719 441.15625 210.601562 C 442.40625 211.191406 443.640625 211.8125 444.859375 212.460938 C 446.074219 213.113281 447.277344 213.792969 448.460938 214.503906 C 449.644531 215.214844 450.8125 215.953125 451.960938 216.71875 C 453.109375 217.488281 454.238281 218.28125 455.347656 219.105469 C 456.453125 219.925781 457.542969 220.777344 458.609375 221.652344 C 459.679688 222.527344 460.722656 223.429688 461.746094 224.355469 C 462.769531 225.285156 463.769531 226.234375 464.746094 227.210938 C 465.722656 228.1875 466.671875 229.1875 467.601562 230.210938 C 468.53125 231.234375 469.433594 232.28125 470.308594 233.347656 C 471.183594 234.414062 472.03125 235.503906 472.855469 236.613281 C 473.675781 237.722656 474.472656 238.851562 475.238281 240 C 476.007812 241.144531 476.746094 242.3125 477.453125 243.496094 C 478.164062 244.679688 478.84375 245.882812 479.496094 247.101562 C 480.148438 248.316406 480.765625 249.550781 481.355469 250.800781 C 481.945312 252.046875 482.507812 253.308594 483.035156 254.585938 C 483.5625 255.859375 484.058594 257.148438 484.523438 258.449219 C 484.992188 259.75 485.425781 261.058594 485.824219 262.382812 C 486.226562 263.703125 486.59375 265.035156 486.929688 266.371094 C 487.261719 267.710938 487.566406 269.058594 487.835938 270.414062 C 488.105469 271.769531 488.339844 273.128906 488.542969 274.492188 C 488.746094 275.859375 488.917969 277.230469 489.054688 278.605469 C 489.1875 279.980469 489.289062 281.355469 489.359375 282.734375 C 489.425781 284.113281 489.460938 285.496094 489.460938 286.875 C 489.460938 288.253906 489.425781 289.636719 489.359375 291.015625 C 489.289062 292.394531 489.1875 293.769531 489.054688 295.144531 C 488.917969 296.519531 488.75 297.890625 488.542969 299.253906 C 488.34375 300.621094 488.105469 301.980469 487.835938 303.335938 C 487.566406 304.691406 487.265625 306.035156 486.929688 307.375 C 486.59375 308.714844 486.226562 310.046875 485.824219 311.367188 C 485.425781 312.691406 484.992188 314 484.523438 315.300781 C 484.058594 316.601562 483.5625 317.886719 483.035156 319.164062 C 482.507812 320.441406 481.945312 321.703125 481.355469 322.949219 C 480.765625 324.199219 480.148438 325.429688 479.496094 326.648438 C 478.84375 327.867188 478.164062 329.070312 477.457031 330.253906 C 476.746094 331.4375 476.007812 332.605469 475.238281 333.75 C 474.472656 334.898438 473.675781 336.027344 472.855469 337.136719 C 472.03125 338.246094 471.183594 339.335938 470.308594 340.402344 C 469.433594 341.46875 468.53125 342.515625 467.601562 343.539062 C 466.671875 344.558594 465.722656 345.558594 464.746094 346.535156 C 463.769531 347.511719 462.769531 348.464844 461.746094 349.390625 C 460.722656 350.320312 459.675781 351.222656 458.609375 352.097656 C 457.542969 352.972656 456.453125 353.824219 455.34375 354.644531 C 454.234375 355.46875 453.105469 356.261719 451.957031 357.03125 C 450.808594 357.796875 449.644531 358.535156 448.460938 359.246094 C 447.273438 359.957031 446.074219 360.636719 444.855469 361.289062 C 443.636719 361.9375 442.40625 362.558594 441.15625 363.148438 C 439.910156 363.738281 438.648438 364.296875 437.371094 364.828125 C 436.09375 365.355469 434.808594 365.851562 433.507812 366.316406 C 432.207031 366.78125 430.898438 367.214844 429.578125 367.617188 C 428.253906 368.019531 426.925781 368.386719 425.585938 368.722656 C 424.246094 369.058594 422.898438 369.359375 421.542969 369.628906 C 420.191406 369.898438 418.828125 370.132812 417.464844 370.335938 C 416.097656 370.539062 414.730469 370.707031 413.355469 370.84375 C 411.980469 370.980469 410.605469 371.082031 409.226562 371.148438 C 407.847656 371.214844 406.464844 371.25 405.085938 371.25 C 403.703125 371.25 402.324219 371.214844 400.945312 371.148438 C 399.566406 371.082031 398.1875 370.980469 396.816406 370.84375 C 395.441406 370.707031 394.070312 370.539062 392.703125 370.335938 C 391.335938 370.132812 389.976562 369.898438 388.621094 369.628906 C 387.269531 369.359375 385.921875 369.058594 384.582031 368.722656 C 383.242188 368.386719 381.910156 368.019531 380.589844 367.617188 C 379.269531 367.214844 377.957031 366.78125 376.660156 366.316406 C 375.359375 365.851562 374.070312 365.355469 372.792969 364.828125 C 371.519531 364.296875 370.257812 363.738281 369.007812 363.148438 C 367.757812 362.558594 366.527344 361.9375 365.308594 361.289062 C 364.089844 360.636719 362.890625 359.957031 361.707031 359.246094 C 360.519531 358.535156 359.355469 357.796875 358.207031 357.03125 C 357.058594 356.261719 355.929688 355.46875 354.820312 354.644531 C 353.710938 353.824219 352.625 352.972656 351.558594 352.097656 C 350.488281 351.222656 349.445312 350.320312 348.421875 349.390625 C 347.398438 348.464844 346.398438 347.511719 345.421875 346.535156 C 344.445312 345.558594 343.492188 344.558594 342.566406 343.539062 C 341.636719 342.515625 340.738281 341.46875 339.863281 340.402344 C 338.984375 339.335938 338.136719 338.246094 337.3125 337.136719 C 336.488281 336.027344 335.695312 334.898438 334.925781 333.75 C 334.160156 332.605469 333.421875 331.4375 332.710938 330.253906 C 332 329.070312 331.320312 327.867188 330.671875 326.648438 C 330.019531 325.433594 329.398438 324.199219 328.808594 322.949219 C 328.21875 321.703125 327.65625 320.441406 327.128906 319.164062 C 326.601562 317.886719 326.105469 316.601562 325.640625 315.300781 C 325.175781 314 324.742188 312.691406 324.339844 311.367188 C 323.941406 310.046875 323.570312 308.714844 323.234375 307.375 C 322.898438 306.035156 322.597656 304.691406 322.328125 303.335938 C 322.058594 301.980469 321.824219 300.621094 321.621094 299.253906 C 321.417969 297.890625 321.25 296.519531 321.113281 295.144531 C 320.980469 293.769531 320.878906 292.394531 320.808594 291.015625 C 320.742188 289.636719 320.707031 288.253906 320.710938 286.875 C 320.710938 285.496094 320.746094 284.113281 320.816406 282.734375 C 320.882812 281.355469 320.988281 279.980469 321.125 278.609375 C 321.261719 277.234375 321.433594 275.867188 321.636719 274.5 C 321.839844 273.136719 322.078125 271.777344 322.347656 270.421875 C 322.621094 269.066406 322.925781 267.722656 323.261719 266.382812 C 323.597656 265.042969 323.964844 263.714844 324.367188 262.394531 C 324.769531 261.074219 325.203125 259.761719 325.667969 258.464844 C 326.132812 257.164062 326.628906 255.878906 327.160156 254.601562 C 327.6875 253.328125 328.25 252.066406 328.839844 250.820312 C 329.429688 249.570312 330.050781 248.339844 330.703125 247.121094 C 331.355469 245.90625 332.035156 244.703125 332.746094 243.519531 C 333.457031 242.335938 334.195312 241.171875 334.960938 240.023438 C 335.726562 238.875 336.523438 237.746094 337.347656 236.640625 C 338.167969 235.53125 339.015625 234.441406 339.890625 233.375 C 340.769531 232.308594 341.671875 231.261719 342.597656 230.242188 C 343.523438 229.21875 344.476562 228.21875 345.453125 227.242188 C 346.425781 226.265625 347.425781 225.316406 348.449219 224.386719 C 349.472656 223.460938 350.515625 222.558594 351.582031 221.683594 C 352.652344 220.808594 353.738281 219.957031 354.847656 219.136719 C 355.957031 218.3125 357.085938 217.519531 358.230469 216.75 C 359.378906 215.984375 360.546875 215.246094 361.730469 214.535156 C 362.914062 213.824219 364.113281 213.144531 365.332031 212.492188 C 366.546875 211.84375 367.78125 211.21875 369.027344 210.628906 C 370.277344 210.039062 371.539062 209.480469 372.8125 208.949219 C 374.085938 208.421875 375.375 207.921875 376.671875 207.457031 C 377.972656 206.992188 379.285156 206.558594 380.605469 206.15625 C 381.925781 205.753906 383.253906 205.386719 384.59375 205.050781 C 385.933594 204.710938 387.277344 204.410156 388.632812 204.140625 C 389.984375 203.867188 391.347656 203.632812 392.710938 203.425781 C 394.074219 203.222656 395.445312 203.050781 396.816406 202.914062 C 398.191406 202.777344 399.566406 202.675781 400.945312 202.605469 C 402.324219 202.539062 403.703125 202.5 405.085938 202.5 Z M 405.085938 202.5 " fill-opacity="1" fill-rule="nonzero"/><path fill="#009688" d="M 404.222656 438.75 C 401.101562 438.75 397.984375 438.820312 394.863281 438.960938 C 391.746094 439.105469 388.636719 439.320312 385.527344 439.609375 C 382.417969 439.894531 379.320312 440.253906 376.230469 440.683594 C 373.136719 441.113281 370.058594 441.617188 366.988281 442.1875 C 363.921875 442.761719 360.867188 443.40625 357.828125 444.121094 C 354.792969 444.832031 351.769531 445.617188 348.769531 446.46875 C 345.765625 447.324219 342.785156 448.246094 339.824219 449.238281 C 336.867188 450.230469 333.929688 451.289062 331.019531 452.414062 C 328.109375 453.542969 325.226562 454.734375 322.371094 455.996094 C 319.515625 457.257812 316.691406 458.582031 313.894531 459.972656 C 311.105469 461.363281 308.34375 462.820312 305.617188 464.339844 C 302.890625 465.855469 300.199219 467.4375 297.546875 469.078125 C 294.890625 470.722656 292.277344 472.425781 289.703125 474.191406 C 287.128906 475.953125 284.59375 477.777344 282.105469 479.65625 C 279.613281 481.539062 277.167969 483.476562 274.765625 485.46875 C 272.367188 487.464844 270.011719 489.511719 267.707031 491.617188 C 265.398438 493.71875 263.144531 495.875 260.9375 498.082031 C 258.730469 500.289062 256.574219 502.546875 254.472656 504.851562 C 252.371094 507.160156 250.324219 509.511719 248.332031 511.914062 C 246.335938 514.316406 244.398438 516.761719 242.519531 519.253906 C 240.640625 521.746094 238.816406 524.277344 237.054688 526.855469 C 235.289062 529.429688 233.585938 532.042969 231.945312 534.699219 C 230.304688 537.351562 228.722656 540.042969 227.207031 542.769531 C 225.6875 545.496094 224.234375 548.257812 222.84375 551.050781 C 221.453125 553.847656 220.128906 556.671875 218.871094 559.527344 C 217.609375 562.382812 216.417969 565.265625 215.292969 568.175781 C 214.164062 571.089844 213.105469 574.023438 212.117188 576.984375 C 211.125 579.945312 210.203125 582.925781 209.351562 585.925781 C 208.5 588.929688 207.714844 591.949219 207 594.988281 C 206.289062 598.027344 205.648438 601.082031 205.074219 604.148438 C 204.503906 607.21875 204.003906 610.296875 203.574219 613.386719 C 203.144531 616.480469 202.785156 619.578125 202.5 622.6875 C 202.449219 623.273438 202.425781 623.859375 202.433594 624.449219 C 202.441406 625.035156 202.480469 625.621094 202.546875 626.203125 C 202.617188 626.789062 202.71875 627.367188 202.847656 627.941406 C 202.976562 628.515625 203.132812 629.078125 203.320312 629.636719 C 203.507812 630.195312 203.726562 630.742188 203.96875 631.273438 C 204.210938 631.808594 204.484375 632.332031 204.78125 632.835938 C 205.078125 633.34375 205.402344 633.835938 205.75 634.308594 C 206.097656 634.78125 206.46875 635.234375 206.863281 635.671875 C 207.261719 636.105469 207.675781 636.519531 208.117188 636.910156 C 208.554688 637.304688 209.011719 637.671875 209.488281 638.015625 C 209.964844 638.359375 210.457031 638.679688 210.964844 638.972656 C 211.472656 639.265625 211.996094 639.535156 212.535156 639.773438 C 213.070312 640.011719 213.617188 640.222656 214.179688 640.40625 C 214.738281 640.589844 215.304688 640.742188 215.878906 640.867188 C 216.453125 640.988281 217.03125 641.085938 217.617188 641.148438 C 218.203125 641.210938 218.789062 641.246094 219.375 641.25 L 607.5 641.25 L 605.8125 622.6875 C 605.527344 619.582031 605.167969 616.484375 604.742188 613.390625 C 604.3125 610.300781 603.8125 607.222656 603.238281 604.15625 C 602.667969 601.089844 602.027344 598.039062 601.3125 595 C 600.601562 591.964844 599.820312 588.945312 598.964844 585.945312 C 598.113281 582.941406 597.191406 579.960938 596.203125 577.003906 C 595.214844 574.046875 594.15625 571.113281 593.03125 568.203125 C 591.90625 565.292969 590.714844 562.410156 589.453125 559.554688 C 588.195312 556.699219 586.871094 553.878906 585.484375 551.082031 C 584.09375 548.289062 582.640625 545.53125 581.125 542.804688 C 579.609375 540.078125 578.03125 537.386719 576.390625 534.734375 C 574.746094 532.082031 573.046875 529.46875 571.285156 526.894531 C 569.523438 524.316406 567.703125 521.785156 565.824219 519.296875 C 563.945312 516.804688 562.007812 514.359375 560.015625 511.957031 C 558.023438 509.558594 555.976562 507.203125 553.878906 504.898438 C 551.777344 502.589844 549.625 500.332031 547.417969 498.125 C 545.214844 495.917969 542.960938 493.765625 540.65625 491.660156 C 538.351562 489.558594 536 487.511719 533.601562 485.515625 C 531.199219 483.523438 528.757812 481.585938 526.269531 479.703125 C 523.78125 477.824219 521.25 476 518.675781 474.234375 C 516.101562 472.472656 513.488281 470.769531 510.835938 469.125 C 508.183594 467.480469 505.496094 465.898438 502.773438 464.378906 C 500.046875 462.859375 497.289062 461.40625 494.5 460.015625 C 491.707031 458.621094 488.882812 457.296875 486.03125 456.035156 C 483.175781 454.773438 480.292969 453.578125 477.386719 452.449219 C 474.480469 451.324219 471.546875 450.261719 468.589844 449.269531 C 465.628906 448.277344 462.648438 447.355469 459.648438 446.5 C 456.648438 445.644531 453.632812 444.859375 450.59375 444.144531 C 447.558594 443.429688 444.507812 442.785156 441.441406 442.210938 C 438.375 441.636719 435.296875 441.132812 432.207031 440.699219 C 429.117188 440.269531 426.015625 439.910156 422.910156 439.621094 C 419.804688 439.332031 416.691406 439.113281 413.578125 438.96875 C 410.460938 438.824219 407.34375 438.75 404.222656 438.75 Z M 386.925781 607.5 L 238.863281 607.5 C 239.34375 605.140625 239.875 602.789062 240.457031 600.453125 C 241.035156 598.113281 241.664062 595.789062 242.34375 593.476562 C 243.023438 591.164062 243.753906 588.867188 244.53125 586.589844 C 245.3125 584.308594 246.140625 582.046875 247.011719 579.800781 C 247.886719 577.558594 248.808594 575.332031 249.78125 573.125 C 250.75 570.921875 251.765625 568.738281 252.832031 566.574219 C 253.894531 564.414062 255.003906 562.277344 256.160156 560.160156 C 257.316406 558.046875 258.515625 555.957031 259.761719 553.894531 C 261.007812 551.832031 262.296875 549.796875 263.628906 547.789062 C 264.960938 545.78125 266.335938 543.804688 267.75 541.855469 C 269.167969 539.90625 270.625 537.988281 272.125 536.101562 C 273.621094 534.214844 275.160156 532.363281 276.738281 530.542969 C 278.320312 528.722656 279.933594 526.9375 281.589844 525.183594 C 283.246094 523.433594 284.9375 521.71875 286.664062 520.039062 C 288.390625 518.363281 290.15625 516.722656 291.953125 515.117188 C 293.753906 513.515625 295.585938 511.949219 297.449219 510.425781 C 299.316406 508.902344 301.214844 507.417969 303.140625 505.972656 C 305.070312 504.53125 307.03125 503.128906 309.019531 501.769531 C 311.007812 500.410156 313.027344 499.09375 315.070312 497.820312 C 317.117188 496.546875 319.1875 495.320312 321.285156 494.132812 C 323.382812 492.949219 325.507812 491.808594 327.65625 490.71875 C 329.800781 489.625 331.96875 488.578125 334.160156 487.574219 C 336.355469 486.574219 338.566406 485.621094 340.800781 484.714844 C 343.03125 483.8125 345.28125 482.953125 347.550781 482.144531 C 349.820312 481.335938 352.105469 480.574219 354.40625 479.863281 C 356.710938 479.152344 359.023438 478.488281 361.355469 477.875 C 363.6875 477.265625 366.027344 476.703125 368.382812 476.191406 C 370.738281 475.679688 373.101562 475.214844 375.472656 474.804688 C 377.847656 474.394531 380.230469 474.035156 382.621094 473.726562 C 385.007812 473.417969 387.402344 473.160156 389.804688 472.953125 C 392.203125 472.75 394.609375 472.59375 397.015625 472.488281 C 399.421875 472.386719 401.832031 472.335938 404.238281 472.335938 C 406.648438 472.335938 409.058594 472.386719 411.464844 472.488281 C 413.875 472.59375 416.277344 472.75 418.675781 472.953125 C 421.078125 473.160156 423.472656 473.417969 425.863281 473.726562 C 428.25 474.035156 430.632812 474.394531 433.007812 474.804688 C 435.382812 475.214844 437.746094 475.679688 440.101562 476.191406 C 442.457031 476.703125 444.796875 477.265625 447.125 477.875 C 449.457031 478.488281 451.773438 479.152344 454.074219 479.863281 C 456.378906 480.574219 458.664062 481.335938 460.933594 482.144531 C 463.203125 482.953125 465.453125 483.8125 467.6875 484.714844 C 469.917969 485.621094 472.128906 486.574219 474.320312 487.574219 C 476.515625 488.578125 478.683594 489.625 480.832031 490.71875 C 482.976562 491.808594 485.097656 492.949219 487.199219 494.132812 C 489.296875 495.320312 491.367188 496.546875 493.414062 497.820312 C 495.457031 499.09375 497.476562 500.410156 499.464844 501.769531 C 501.457031 503.128906 503.414062 504.53125 505.34375 505.972656 C 507.273438 507.417969 509.167969 508.902344 511.035156 510.425781 C 512.898438 511.949219 514.730469 513.515625 516.53125 515.117188 C 518.328125 516.722656 520.089844 518.363281 521.820312 520.039062 C 523.550781 521.71875 525.242188 523.433594 526.894531 525.183594 C 528.550781 526.9375 530.167969 528.722656 531.746094 530.542969 C 533.324219 532.363281 534.863281 534.214844 536.359375 536.101562 C 537.859375 537.988281 539.316406 539.90625 540.730469 541.855469 C 542.148438 543.804688 543.523438 545.78125 544.855469 547.789062 C 546.1875 549.796875 547.476562 551.832031 548.722656 553.894531 C 549.96875 555.957031 551.167969 558.046875 552.320312 560.160156 C 553.476562 562.277344 554.585938 564.414062 555.648438 566.574219 C 556.714844 568.738281 557.730469 570.921875 558.703125 573.125 C 559.671875 575.332031 560.59375 577.558594 561.46875 579.800781 C 562.34375 582.046875 563.171875 584.308594 563.949219 586.589844 C 564.726562 588.867188 565.457031 591.164062 566.136719 593.476562 C 566.816406 595.789062 567.445312 598.113281 568.027344 600.453125 C 568.605469 602.789062 569.136719 605.140625 569.613281 607.5 Z M 386.925781 607.5 " fill-opacity="1" fill-rule="nonzero"/><path fill="#009688" d="M 626.0625 473.546875 C 625.46875 473.480469 624.875 473.445312 624.277344 473.441406 C 623.683594 473.4375 623.085938 473.464844 622.492188 473.523438 C 621.898438 473.582031 621.3125 473.671875 620.726562 473.792969 C 620.144531 473.914062 619.566406 474.066406 619 474.246094 C 618.429688 474.425781 617.875 474.636719 617.328125 474.875 C 616.78125 475.117188 616.246094 475.382812 615.730469 475.679688 C 615.210938 475.972656 614.710938 476.296875 614.226562 476.644531 C 613.742188 476.992188 613.277344 477.363281 612.832031 477.761719 C 612.386719 478.15625 611.964844 478.578125 611.5625 479.019531 C 611.160156 479.460938 610.78125 479.921875 610.429688 480.402344 C 610.078125 480.882812 609.75 481.378906 609.449219 481.894531 C 609.152344 482.410156 608.878906 482.941406 608.632812 483.484375 C 608.386719 484.027344 608.171875 484.582031 607.984375 485.148438 C 607.800781 485.714844 607.640625 486.289062 607.515625 486.875 C 607.390625 487.457031 607.292969 488.042969 607.230469 488.636719 C 607.164062 489.230469 607.132812 489.824219 607.128906 490.421875 C 607.121094 491.4375 607.210938 492.445312 607.390625 493.445312 C 607.566406 494.445312 607.835938 495.421875 608.191406 496.371094 C 608.550781 497.324219 608.996094 498.234375 609.519531 499.105469 C 610.042969 499.972656 610.640625 500.789062 611.316406 501.550781 C 611.988281 502.308594 612.726562 503.003906 613.527344 503.628906 C 614.328125 504.253906 615.179688 504.800781 616.082031 505.269531 C 616.980469 505.738281 617.917969 506.125 618.890625 506.421875 C 619.859375 506.71875 620.851562 506.925781 621.859375 507.042969 C 625.238281 507.421875 628.59375 507.929688 631.929688 508.5625 C 635.269531 509.195312 638.578125 509.953125 641.859375 510.832031 C 645.140625 511.714844 648.382812 512.71875 651.585938 513.847656 C 654.792969 514.972656 657.949219 516.21875 661.0625 517.582031 C 664.171875 518.945312 667.230469 520.425781 670.226562 522.019531 C 673.226562 523.613281 676.164062 525.320312 679.035156 527.136719 C 681.90625 528.953125 684.703125 530.875 687.429688 532.898438 C 690.15625 534.925781 692.800781 537.054688 695.367188 539.277344 C 697.933594 541.503906 700.414062 543.824219 702.804688 546.238281 C 705.195312 548.652344 707.492188 551.152344 709.695312 553.738281 C 711.898438 556.324219 714 558.988281 716.003906 561.730469 C 718.003906 564.476562 719.902344 567.292969 721.691406 570.179688 C 723.484375 573.066406 725.160156 576.019531 726.730469 579.03125 C 728.296875 582.046875 729.746094 585.113281 731.082031 588.238281 C 732.417969 591.359375 733.636719 594.53125 734.734375 597.746094 C 735.832031 600.960938 736.804688 604.210938 737.65625 607.5 L 656.792969 607.5 C 656.238281 607.5 655.6875 607.527344 655.140625 607.582031 C 654.589844 607.636719 654.042969 607.71875 653.5 607.824219 C 652.957031 607.933594 652.421875 608.066406 651.890625 608.226562 C 651.363281 608.386719 650.84375 608.574219 650.332031 608.785156 C 649.824219 608.996094 649.324219 609.230469 648.835938 609.492188 C 648.347656 609.753906 647.875 610.035156 647.414062 610.34375 C 646.957031 610.652344 646.511719 610.980469 646.085938 611.332031 C 645.660156 611.679688 645.25 612.050781 644.855469 612.441406 C 644.464844 612.832031 644.097656 613.242188 643.746094 613.671875 C 643.394531 614.097656 643.066406 614.539062 642.757812 615 C 642.453125 615.457031 642.167969 615.933594 641.90625 616.421875 C 641.648438 616.90625 641.410156 617.40625 641.199219 617.917969 C 640.988281 618.425781 640.804688 618.945312 640.644531 619.476562 C 640.484375 620.003906 640.347656 620.539062 640.238281 621.082031 C 640.132812 621.625 640.050781 622.171875 639.996094 622.722656 C 639.945312 623.269531 639.917969 623.824219 639.917969 624.375 C 639.917969 624.929688 639.945312 625.480469 640 626.03125 C 640.050781 626.578125 640.132812 627.125 640.238281 627.667969 C 640.347656 628.210938 640.484375 628.746094 640.644531 629.273438 C 640.804688 629.800781 640.988281 630.320312 641.199219 630.832031 C 641.410156 631.34375 641.648438 631.84375 641.90625 632.328125 C 642.167969 632.816406 642.453125 633.289062 642.757812 633.75 C 643.066406 634.210938 643.394531 634.652344 643.746094 635.078125 C 644.097656 635.507812 644.464844 635.917969 644.855469 636.304688 C 645.25 636.699219 645.660156 637.070312 646.085938 637.417969 C 646.511719 637.769531 646.953125 638.097656 647.414062 638.40625 C 647.875 638.710938 648.347656 638.996094 648.835938 639.257812 C 649.324219 639.515625 649.824219 639.753906 650.332031 639.964844 C 650.84375 640.175781 651.363281 640.363281 651.894531 640.523438 C 652.421875 640.683594 652.957031 640.816406 653.5 640.925781 C 654.042969 641.03125 654.589844 641.113281 655.136719 641.167969 C 655.6875 641.222656 656.238281 641.25 656.792969 641.25 L 757.921875 641.25 C 758.519531 641.246094 759.117188 641.214844 759.710938 641.152344 C 760.304688 641.085938 760.890625 640.992188 761.476562 640.863281 C 762.058594 640.738281 762.636719 640.582031 763.203125 640.394531 C 763.769531 640.207031 764.324219 639.992188 764.867188 639.746094 C 765.410156 639.5 765.941406 639.226562 766.457031 638.925781 C 766.972656 638.625 767.46875 638.296875 767.953125 637.945312 C 768.433594 637.59375 768.894531 637.214844 769.335938 636.8125 C 769.777344 636.410156 770.195312 635.988281 770.589844 635.539062 C 770.988281 635.09375 771.363281 634.628906 771.707031 634.144531 C 772.058594 633.660156 772.378906 633.160156 772.675781 632.640625 C 772.96875 632.121094 773.238281 631.589844 773.476562 631.042969 C 773.71875 630.496094 773.925781 629.9375 774.105469 629.367188 C 774.289062 628.800781 774.4375 628.222656 774.558594 627.636719 C 774.679688 627.054688 774.769531 626.464844 774.828125 625.871094 C 774.886719 625.277344 774.914062 624.679688 774.90625 624.085938 C 774.902344 623.488281 774.867188 622.894531 774.796875 622.300781 C 774.53125 619.949219 774.21875 617.605469 773.855469 615.265625 C 773.488281 612.929688 773.078125 610.597656 772.613281 608.277344 C 772.152344 605.957031 771.640625 603.648438 771.082031 601.347656 C 770.523438 599.050781 769.914062 596.761719 769.257812 594.488281 C 768.605469 592.214844 767.902344 589.957031 767.152344 587.714844 C 766.402344 585.46875 765.605469 583.242188 764.757812 581.03125 C 763.917969 578.820312 763.027344 576.628906 762.089844 574.457031 C 761.15625 572.28125 760.171875 570.128906 759.144531 568 C 758.121094 565.867188 757.046875 563.757812 755.933594 561.671875 C 754.816406 559.585938 753.65625 557.523438 752.457031 555.484375 C 751.253906 553.445312 750.007812 551.433594 748.722656 549.449219 C 747.433594 547.464844 746.105469 545.507812 744.738281 543.578125 C 743.367188 541.648438 741.960938 539.746094 740.511719 537.875 C 739.0625 536.003906 737.574219 534.167969 736.046875 532.359375 C 734.519531 530.550781 732.957031 528.777344 731.355469 527.035156 C 729.753906 525.292969 728.117188 523.585938 726.445312 521.910156 C 724.773438 520.238281 723.066406 518.601562 721.324219 517 C 719.582031 515.398438 717.804688 513.835938 716 512.308594 C 714.191406 510.78125 712.351562 509.292969 710.480469 507.84375 C 708.609375 506.394531 706.710938 504.984375 704.78125 503.613281 C 702.851562 502.246094 700.894531 500.917969 698.910156 499.628906 C 696.921875 498.34375 694.914062 497.097656 692.875 495.894531 C 690.835938 494.691406 688.773438 493.535156 686.6875 492.417969 C 684.601562 491.300781 682.492188 490.230469 680.359375 489.203125 C 678.230469 488.175781 676.078125 487.195312 673.902344 486.257812 C 671.730469 485.320312 669.539062 484.429688 667.328125 483.585938 C 665.117188 482.742188 662.890625 481.945312 660.648438 481.195312 C 658.402344 480.445312 656.144531 479.742188 653.871094 479.085938 C 651.597656 478.429688 649.3125 477.824219 647.011719 477.261719 C 644.714844 476.703125 642.40625 476.191406 640.085938 475.730469 C 637.761719 475.269531 635.433594 474.855469 633.09375 474.492188 C 630.757812 474.125 628.414062 473.8125 626.0625 473.546875 Z M 626.0625 473.546875 " fill-opacity="1" fill-rule="nonzero"/><path fill="#009688" d="M 607.5 438.75 C 608.605469 438.75 609.710938 438.722656 610.8125 438.667969 C 611.914062 438.613281 613.019531 438.53125 614.117188 438.425781 C 615.214844 438.316406 616.3125 438.179688 617.402344 438.019531 C 618.496094 437.855469 619.585938 437.667969 620.667969 437.453125 C 621.75 437.238281 622.828125 436.996094 623.902344 436.726562 C 624.972656 436.457031 626.039062 436.164062 627.09375 435.84375 C 628.148438 435.523438 629.199219 435.175781 630.238281 434.804688 C 631.277344 434.429688 632.308594 434.035156 633.328125 433.609375 C 634.351562 433.1875 635.359375 432.742188 636.359375 432.269531 C 637.359375 431.796875 638.34375 431.300781 639.320312 430.777344 C 640.292969 430.257812 641.253906 429.714844 642.199219 429.144531 C 643.148438 428.578125 644.082031 427.988281 645 427.371094 C 645.917969 426.757812 646.820312 426.125 647.710938 425.464844 C 648.597656 424.808594 649.46875 424.128906 650.320312 423.425781 C 651.175781 422.726562 652.011719 422.003906 652.832031 421.261719 C 653.648438 420.523438 654.449219 419.761719 655.230469 418.980469 C 656.011719 418.199219 656.773438 417.398438 657.511719 416.582031 C 658.253906 415.761719 658.976562 414.925781 659.675781 414.070312 C 660.375 413.21875 661.054688 412.347656 661.714844 411.460938 C 662.371094 410.570312 663.007812 409.667969 663.621094 408.75 C 664.234375 407.832031 664.824219 406.898438 665.394531 405.953125 C 665.960938 405.003906 666.503906 404.042969 667.027344 403.070312 C 667.546875 402.09375 668.042969 401.109375 668.515625 400.109375 C 668.988281 399.109375 669.4375 398.101562 669.859375 397.082031 C 670.28125 396.058594 670.679688 395.03125 671.050781 393.988281 C 671.425781 392.949219 671.769531 391.902344 672.09375 390.84375 C 672.414062 389.785156 672.707031 388.722656 672.976562 387.652344 C 673.242188 386.578125 673.484375 385.5 673.699219 384.417969 C 673.917969 383.335938 674.105469 382.246094 674.269531 381.152344 C 674.429688 380.0625 674.566406 378.964844 674.675781 377.867188 C 674.78125 376.765625 674.863281 375.664062 674.917969 374.5625 C 674.972656 373.457031 675 372.355469 675 371.25 C 675 370.144531 674.972656 369.042969 674.917969 367.9375 C 674.863281 366.835938 674.78125 365.734375 674.675781 364.632812 C 674.566406 363.535156 674.429688 362.4375 674.269531 361.34375 C 674.105469 360.253906 673.917969 359.164062 673.699219 358.082031 C 673.484375 356.996094 673.242188 355.917969 672.976562 354.847656 C 672.707031 353.777344 672.410156 352.710938 672.089844 351.65625 C 671.769531 350.597656 671.421875 349.550781 671.050781 348.507812 C 670.679688 347.46875 670.28125 346.4375 669.859375 345.417969 C 669.4375 344.398438 668.988281 343.386719 668.515625 342.390625 C 668.042969 341.390625 667.546875 340.40625 667.027344 339.429688 C 666.503906 338.457031 665.960938 337.496094 665.394531 336.546875 C 664.824219 335.597656 664.234375 334.667969 663.621094 333.75 C 663.007812 332.828125 662.371094 331.925781 661.714844 331.039062 C 661.054688 330.152344 660.378906 329.28125 659.675781 328.425781 C 658.976562 327.574219 658.253906 326.738281 657.511719 325.917969 C 656.773438 325.101562 656.011719 324.300781 655.230469 323.519531 C 654.449219 322.738281 653.648438 321.976562 652.828125 321.234375 C 652.011719 320.492188 651.175781 319.773438 650.320312 319.070312 C 649.46875 318.371094 648.59375 317.691406 647.707031 317.03125 C 646.820312 316.375 645.917969 315.738281 645 315.125 C 644.082031 314.511719 643.148438 313.921875 642.199219 313.351562 C 641.253906 312.785156 640.292969 312.238281 639.320312 311.71875 C 638.34375 311.199219 637.359375 310.703125 636.359375 310.230469 C 635.359375 309.757812 634.351562 309.308594 633.328125 308.886719 C 632.308594 308.464844 631.277344 308.066406 630.238281 307.695312 C 629.199219 307.324219 628.148438 306.976562 627.09375 306.65625 C 626.039062 306.335938 624.972656 306.042969 623.902344 305.773438 C 622.828125 305.503906 621.75 305.261719 620.667969 305.046875 C 619.585938 304.832031 618.496094 304.640625 617.402344 304.480469 C 616.3125 304.320312 615.214844 304.183594 614.117188 304.074219 C 613.019531 303.96875 611.914062 303.886719 610.8125 303.832031 C 609.710938 303.777344 608.605469 303.75 607.5 303.75 C 606.394531 303.75 605.289062 303.777344 604.1875 303.832031 C 603.085938 303.886719 601.980469 303.96875 600.882812 304.074219 C 599.78125 304.183594 598.683594 304.320312 597.59375 304.480469 C 596.5 304.640625 595.414062 304.832031 594.328125 305.046875 C 593.246094 305.261719 592.167969 305.503906 591.097656 305.773438 C 590.027344 306.042969 588.960938 306.335938 587.90625 306.65625 C 586.847656 306.976562 585.800781 307.324219 584.757812 307.695312 C 583.71875 308.066406 582.6875 308.464844 581.667969 308.886719 C 580.648438 309.308594 579.636719 309.757812 578.636719 310.230469 C 577.640625 310.703125 576.652344 311.199219 575.679688 311.71875 C 574.703125 312.238281 573.742188 312.785156 572.796875 313.351562 C 571.847656 313.921875 570.914062 314.511719 569.996094 315.125 C 569.078125 315.738281 568.175781 316.375 567.289062 317.03125 C 566.402344 317.691406 565.53125 318.371094 564.675781 319.070312 C 563.820312 319.773438 562.984375 320.492188 562.167969 321.234375 C 561.347656 321.976562 560.550781 322.738281 559.769531 323.519531 C 558.988281 324.300781 558.226562 325.101562 557.484375 325.917969 C 556.742188 326.738281 556.019531 327.574219 555.320312 328.429688 C 554.621094 329.28125 553.941406 330.152344 553.28125 331.039062 C 552.625 331.925781 551.988281 332.828125 551.375 333.75 C 550.761719 334.667969 550.167969 335.597656 549.601562 336.546875 C 549.035156 337.496094 548.488281 338.457031 547.96875 339.429688 C 547.449219 340.40625 546.953125 341.390625 546.480469 342.390625 C 546.007812 343.386719 545.558594 344.398438 545.136719 345.417969 C 544.714844 346.4375 544.316406 347.46875 543.945312 348.507812 C 543.570312 349.550781 543.226562 350.597656 542.90625 351.65625 C 542.585938 352.710938 542.289062 353.777344 542.023438 354.847656 C 541.753906 355.917969 541.511719 356.996094 541.296875 358.082031 C 541.082031 359.164062 540.890625 360.253906 540.730469 361.34375 C 540.566406 362.4375 540.433594 363.535156 540.324219 364.632812 C 540.214844 365.734375 540.136719 366.835938 540.082031 367.9375 C 540.027344 369.042969 540 370.144531 540 371.25 C 540 372.355469 540.027344 373.457031 540.082031 374.5625 C 540.136719 375.664062 540.21875 376.765625 540.324219 377.867188 C 540.433594 378.964844 540.570312 380.0625 540.730469 381.152344 C 540.894531 382.246094 541.082031 383.335938 541.296875 384.417969 C 541.511719 385.5 541.753906 386.578125 542.023438 387.652344 C 542.289062 388.722656 542.585938 389.785156 542.90625 390.84375 C 543.226562 391.902344 543.574219 392.949219 543.945312 393.988281 C 544.316406 395.03125 544.714844 396.058594 545.136719 397.082031 C 545.558594 398.101562 546.003906 399.109375 546.476562 400.109375 C 546.953125 401.109375 547.449219 402.09375 547.96875 403.070312 C 548.488281 404.042969 549.035156 405.003906 549.601562 405.953125 C 550.167969 406.898438 550.761719 407.832031 551.371094 408.75 C 551.988281 409.667969 552.621094 410.574219 553.28125 411.460938 C 553.9375 412.347656 554.617188 413.21875 555.320312 414.070312 C 556.019531 414.925781 556.742188 415.761719 557.484375 416.578125 C 558.226562 417.398438 558.988281 418.199219 559.769531 418.980469 C 560.550781 419.761719 561.351562 420.523438 562.167969 421.265625 C 562.984375 422.003906 563.820312 422.726562 564.675781 423.425781 C 565.53125 424.128906 566.402344 424.808594 567.289062 425.464844 C 568.175781 426.125 569.078125 426.757812 569.996094 427.371094 C 570.914062 427.988281 571.847656 428.578125 572.796875 429.144531 C 573.746094 429.714844 574.707031 430.257812 575.679688 430.777344 C 576.652344 431.300781 577.640625 431.796875 578.640625 432.269531 C 579.636719 432.742188 580.648438 433.1875 581.667969 433.609375 C 582.6875 434.035156 583.71875 434.429688 584.757812 434.804688 C 585.800781 435.175781 586.847656 435.523438 587.90625 435.84375 C 588.960938 436.164062 590.023438 436.457031 591.097656 436.726562 C 592.167969 436.996094 593.246094 437.238281 594.328125 437.453125 C 595.414062 437.667969 596.5 437.855469 597.59375 438.019531 C 598.6875 438.179688 599.78125 438.316406 600.882812 438.425781 C 601.980469 438.53125 603.085938 438.613281 604.1875 438.667969 C 605.289062 438.722656 606.394531 438.75 607.5 438.75 Z M 607.5 337.5 C 608.605469 337.5 609.707031 337.554688 610.808594 337.664062 C 611.910156 337.769531 613 337.933594 614.082031 338.148438 C 615.167969 338.363281 616.238281 338.632812 617.296875 338.953125 C 618.355469 339.273438 619.394531 339.644531 620.414062 340.070312 C 621.4375 340.492188 622.433594 340.964844 623.410156 341.484375 C 624.386719 342.003906 625.332031 342.574219 626.25 343.1875 C 627.167969 343.800781 628.054688 344.460938 628.910156 345.160156 C 629.765625 345.863281 630.582031 346.601562 631.363281 347.382812 C 632.144531 348.167969 632.886719 348.984375 633.589844 349.839844 C 634.289062 350.691406 634.949219 351.578125 635.558594 352.5 C 636.175781 353.417969 636.742188 354.363281 637.265625 355.339844 C 637.785156 356.3125 638.253906 357.3125 638.679688 358.332031 C 639.101562 359.355469 639.476562 360.394531 639.796875 361.453125 C 640.117188 362.507812 640.386719 363.582031 640.601562 364.664062 C 640.816406 365.75 640.980469 366.839844 641.085938 367.941406 C 641.195312 369.042969 641.25 370.144531 641.25 371.25 C 641.25 372.355469 641.195312 373.457031 641.085938 374.558594 C 640.980469 375.65625 640.816406 376.75 640.601562 377.832031 C 640.386719 378.917969 640.117188 379.988281 639.796875 381.046875 C 639.476562 382.105469 639.101562 383.144531 638.679688 384.164062 C 638.253906 385.1875 637.785156 386.183594 637.261719 387.160156 C 636.742188 388.132812 636.175781 389.082031 635.558594 390 C 634.945312 390.917969 634.289062 391.804688 633.589844 392.660156 C 632.886719 393.515625 632.144531 394.332031 631.363281 395.113281 C 630.582031 395.894531 629.765625 396.636719 628.910156 397.339844 C 628.054688 398.039062 627.167969 398.699219 626.25 399.3125 C 625.332031 399.925781 624.382812 400.492188 623.410156 401.015625 C 622.433594 401.535156 621.4375 402.007812 620.414062 402.429688 C 619.394531 402.851562 618.355469 403.226562 617.296875 403.546875 C 616.238281 403.867188 615.167969 404.136719 614.082031 404.351562 C 613 404.566406 611.910156 404.730469 610.808594 404.835938 C 609.707031 404.945312 608.605469 405 607.5 405 C 606.394531 405 605.292969 404.945312 604.191406 404.835938 C 603.089844 404.730469 602 404.566406 600.914062 404.351562 C 599.828125 404.136719 598.757812 403.867188 597.703125 403.546875 C 596.644531 403.226562 595.605469 402.851562 594.582031 402.429688 C 593.5625 402.007812 592.5625 401.535156 591.589844 401.015625 C 590.613281 400.492188 589.667969 399.925781 588.75 399.3125 C 587.828125 398.699219 586.941406 398.039062 586.089844 397.339844 C 585.234375 396.636719 584.414062 395.894531 583.632812 395.113281 C 582.851562 394.332031 582.109375 393.515625 581.410156 392.660156 C 580.707031 391.804688 580.050781 390.917969 579.4375 390 C 578.824219 389.082031 578.253906 388.132812 577.734375 387.160156 C 577.210938 386.183594 576.738281 385.1875 576.316406 384.164062 C 575.894531 383.144531 575.523438 382.105469 575.203125 381.046875 C 574.882812 379.988281 574.613281 378.917969 574.398438 377.832031 C 574.179688 376.75 574.019531 375.65625 573.914062 374.558594 C 573.804688 373.457031 573.75 372.355469 573.75 371.25 C 573.75 370.144531 573.808594 369.042969 573.914062 367.941406 C 574.023438 366.839844 574.183594 365.75 574.398438 364.664062 C 574.613281 363.582031 574.882812 362.511719 575.207031 361.453125 C 575.527344 360.394531 575.898438 359.355469 576.320312 358.335938 C 576.742188 357.3125 577.214844 356.316406 577.738281 355.339844 C 578.257812 354.363281 578.824219 353.417969 579.4375 352.5 C 580.050781 351.582031 580.710938 350.695312 581.410156 349.839844 C 582.113281 348.984375 582.855469 348.167969 583.636719 347.386719 C 584.417969 346.605469 585.234375 345.863281 586.089844 345.160156 C 586.945312 344.460938 587.832031 343.800781 588.75 343.1875 C 589.671875 342.574219 590.617188 342.007812 591.589844 341.484375 C 592.566406 340.964844 593.5625 340.492188 594.585938 340.070312 C 595.605469 339.648438 596.644531 339.273438 597.703125 338.953125 C 598.761719 338.632812 599.832031 338.363281 600.914062 338.148438 C 602 337.933594 603.09375 337.773438 604.191406 337.664062 C 605.292969 337.554688 606.394531 337.5 607.5 337.5 Z M 607.5 337.5 " fill-opacity="1" fill-rule="nonzero"/><path fill="#009688" d="M 183.9375 473.546875 C 181.585938 473.8125 179.242188 474.125 176.90625 474.492188 C 174.566406 474.855469 172.238281 475.265625 169.917969 475.730469 C 167.597656 476.191406 165.289062 476.703125 162.988281 477.261719 C 160.6875 477.820312 158.402344 478.429688 156.125 479.082031 C 153.855469 479.738281 151.597656 480.441406 149.351562 481.191406 C 147.109375 481.941406 144.878906 482.742188 142.667969 483.585938 C 140.457031 484.429688 138.265625 485.320312 136.09375 486.257812 C 133.921875 487.191406 131.769531 488.175781 129.636719 489.199219 C 127.503906 490.226562 125.394531 491.300781 123.308594 492.414062 C 121.222656 493.53125 119.15625 494.691406 117.121094 495.890625 C 115.082031 497.09375 113.070312 498.339844 111.085938 499.625 C 109.101562 500.914062 107.140625 502.242188 105.210938 503.609375 C 103.28125 504.980469 101.382812 506.390625 99.511719 507.839844 C 97.640625 509.289062 95.800781 510.777344 93.992188 512.304688 C 92.183594 513.828125 90.410156 515.394531 88.667969 516.996094 C 86.925781 518.597656 85.21875 520.234375 83.542969 521.90625 C 81.871094 523.582031 80.234375 525.289062 78.636719 527.03125 C 77.035156 528.773438 75.46875 530.546875 73.941406 532.355469 C 72.414062 534.164062 70.929688 536.003906 69.480469 537.875 C 68.027344 539.742188 66.617188 541.644531 65.25 543.574219 C 63.878906 545.503906 62.550781 547.460938 61.265625 549.445312 C 59.980469 551.433594 58.734375 553.445312 57.53125 555.480469 C 56.328125 557.519531 55.171875 559.582031 54.054688 561.667969 C 52.9375 563.753906 51.867188 565.863281 50.839844 567.996094 C 49.8125 570.128906 48.832031 572.28125 47.898438 574.453125 C 46.960938 576.628906 46.070312 578.820312 45.226562 581.03125 C 44.382812 583.242188 43.585938 585.46875 42.832031 587.710938 C 42.082031 589.957031 41.378906 592.214844 40.722656 594.488281 C 40.066406 596.761719 39.460938 599.046875 38.902344 601.347656 C 38.34375 603.648438 37.832031 605.957031 37.367188 608.277344 C 36.90625 610.597656 36.492188 612.929688 36.128906 615.265625 C 35.765625 617.605469 35.449219 619.949219 35.183594 622.300781 C 35.117188 622.894531 35.082031 623.488281 35.078125 624.085938 C 35.074219 624.679688 35.101562 625.277344 35.15625 625.871094 C 35.214844 626.464844 35.304688 627.054688 35.425781 627.636719 C 35.546875 628.222656 35.699219 628.800781 35.878906 629.367188 C 36.058594 629.9375 36.269531 630.496094 36.507812 631.042969 C 36.746094 631.585938 37.015625 632.121094 37.308594 632.640625 C 37.605469 633.15625 37.925781 633.660156 38.273438 634.144531 C 38.621094 634.628906 38.996094 635.09375 39.390625 635.539062 C 39.789062 635.988281 40.207031 636.410156 40.648438 636.8125 C 41.089844 637.214844 41.550781 637.589844 42.03125 637.945312 C 42.515625 638.296875 43.011719 638.625 43.527344 638.925781 C 44.042969 639.226562 44.574219 639.5 45.117188 639.746094 C 45.664062 639.992188 46.21875 640.207031 46.785156 640.394531 C 47.351562 640.578125 47.925781 640.738281 48.507812 640.863281 C 49.09375 640.988281 49.679688 641.085938 50.273438 641.148438 C 50.867188 641.214844 51.464844 641.25 52.058594 641.25 L 153.191406 641.25 C 153.746094 641.25 154.296875 641.222656 154.84375 641.167969 C 155.394531 641.113281 155.941406 641.03125 156.480469 640.925781 C 157.023438 640.816406 157.5625 640.683594 158.089844 640.523438 C 158.617188 640.363281 159.136719 640.175781 159.648438 639.964844 C 160.15625 639.753906 160.65625 639.515625 161.144531 639.257812 C 161.632812 638.996094 162.105469 638.710938 162.566406 638.40625 C 163.027344 638.097656 163.46875 637.769531 163.898438 637.417969 C 164.324219 637.070312 164.734375 636.699219 165.125 636.304688 C 165.515625 635.917969 165.886719 635.507812 166.234375 635.078125 C 166.585938 634.652344 166.914062 634.210938 167.21875 633.75 C 167.527344 633.289062 167.8125 632.816406 168.074219 632.328125 C 168.332031 631.84375 168.570312 631.34375 168.78125 630.832031 C 168.992188 630.320312 169.179688 629.800781 169.339844 629.273438 C 169.5 628.746094 169.632812 628.210938 169.742188 627.667969 C 169.847656 627.125 169.929688 626.578125 169.984375 626.03125 C 170.039062 625.480469 170.066406 624.929688 170.066406 624.375 C 170.066406 623.824219 170.039062 623.269531 169.984375 622.722656 C 169.929688 622.171875 169.847656 621.625 169.742188 621.082031 C 169.632812 620.539062 169.5 620.003906 169.339844 619.476562 C 169.179688 618.945312 168.992188 618.425781 168.78125 617.917969 C 168.570312 617.40625 168.332031 616.90625 168.074219 616.417969 C 167.8125 615.933594 167.527344 615.457031 167.222656 615 C 166.914062 614.539062 166.585938 614.097656 166.234375 613.667969 C 165.886719 613.242188 165.515625 612.832031 165.125 612.441406 C 164.734375 612.050781 164.324219 611.679688 163.898438 611.332031 C 163.46875 610.980469 163.027344 610.652344 162.566406 610.34375 C 162.105469 610.035156 161.632812 609.753906 161.144531 609.492188 C 160.65625 609.230469 160.15625 608.996094 159.648438 608.785156 C 159.136719 608.574219 158.621094 608.386719 158.089844 608.226562 C 157.5625 608.066406 157.027344 607.933594 156.484375 607.824219 C 155.941406 607.71875 155.394531 607.636719 154.84375 607.582031 C 154.296875 607.527344 153.746094 607.5 153.191406 607.5 L 72.328125 607.5 C 73.179688 604.210938 74.152344 600.960938 75.253906 597.746094 C 76.347656 594.527344 77.566406 591.359375 78.902344 588.234375 C 80.238281 585.113281 81.691406 582.042969 83.257812 579.027344 C 84.828125 576.015625 86.507812 573.0625 88.296875 570.175781 C 90.085938 567.289062 91.980469 564.472656 93.984375 561.730469 C 95.988281 558.984375 98.089844 556.316406 100.292969 553.734375 C 102.496094 551.148438 104.792969 548.648438 107.1875 546.234375 C 109.578125 543.820312 112.054688 541.5 114.621094 539.273438 C 117.1875 537.050781 119.835938 534.921875 122.5625 532.894531 C 125.289062 530.867188 128.085938 528.949219 130.957031 527.132812 C 133.828125 525.316406 136.765625 523.609375 139.765625 522.015625 C 142.765625 520.421875 145.820312 518.941406 148.933594 517.578125 C 152.046875 516.214844 155.203125 514.96875 158.410156 513.84375 C 161.617188 512.71875 164.859375 511.714844 168.140625 510.832031 C 171.421875 509.949219 174.730469 509.191406 178.066406 508.5625 C 181.40625 507.929688 184.761719 507.421875 188.140625 507.042969 C 189.148438 506.925781 190.140625 506.71875 191.109375 506.421875 C 192.082031 506.125 193.019531 505.738281 193.917969 505.269531 C 194.820312 504.800781 195.671875 504.253906 196.46875 503.628906 C 197.273438 503.003906 198.007812 502.308594 198.683594 501.550781 C 199.359375 500.789062 199.957031 499.972656 200.480469 499.105469 C 201.007812 498.234375 201.449219 497.324219 201.804688 496.371094 C 202.164062 495.421875 202.433594 494.445312 202.609375 493.445312 C 202.789062 492.445312 202.875 491.4375 202.871094 490.421875 C 202.871094 489.824219 202.835938 489.230469 202.773438 488.636719 C 202.707031 488.046875 202.609375 487.457031 202.484375 486.875 C 202.359375 486.292969 202.203125 485.71875 202.015625 485.152344 C 201.832031 484.585938 201.613281 484.03125 201.367188 483.484375 C 201.121094 482.941406 200.851562 482.414062 200.550781 481.898438 C 200.25 481.382812 199.921875 480.882812 199.570312 480.402344 C 199.21875 479.921875 198.839844 479.460938 198.441406 479.019531 C 198.039062 478.578125 197.613281 478.160156 197.167969 477.761719 C 196.726562 477.367188 196.261719 476.992188 195.773438 476.644531 C 195.292969 476.296875 194.789062 475.976562 194.269531 475.679688 C 193.753906 475.386719 193.222656 475.117188 192.675781 474.878906 C 192.128906 474.636719 191.570312 474.425781 191 474.246094 C 190.433594 474.066406 189.859375 473.914062 189.273438 473.792969 C 188.691406 473.671875 188.101562 473.585938 187.507812 473.523438 C 186.914062 473.464844 186.320312 473.4375 185.722656 473.441406 C 185.128906 473.445312 184.53125 473.480469 183.9375 473.546875 Z M 183.9375 473.546875 " fill-opacity="1" fill-rule="nonzero"/><path fill="#009688" d="M 202.5 438.75 C 203.605469 438.75 204.707031 438.722656 205.8125 438.667969 C 206.914062 438.613281 208.015625 438.53125 209.117188 438.425781 C 210.214844 438.316406 211.308594 438.179688 212.402344 438.019531 C 213.496094 437.855469 214.582031 437.667969 215.667969 437.453125 C 216.75 437.238281 217.828125 436.996094 218.898438 436.726562 C 219.972656 436.457031 221.035156 436.164062 222.09375 435.84375 C 223.148438 435.523438 224.199219 435.175781 225.238281 434.804688 C 226.277344 434.429688 227.308594 434.035156 228.328125 433.609375 C 229.347656 433.1875 230.359375 432.742188 231.359375 432.269531 C 232.355469 431.796875 233.34375 431.300781 234.316406 430.777344 C 235.292969 430.257812 236.253906 429.714844 237.199219 429.144531 C 238.148438 428.578125 239.082031 427.988281 240 427.371094 C 240.917969 426.757812 241.820312 426.125 242.707031 425.464844 C 243.59375 424.808594 244.464844 424.128906 245.320312 423.425781 C 246.175781 422.726562 247.011719 422.003906 247.828125 421.261719 C 248.648438 420.523438 249.445312 419.761719 250.230469 418.980469 C 251.011719 418.199219 251.773438 417.398438 252.511719 416.582031 C 253.253906 415.761719 253.976562 414.925781 254.675781 414.070312 C 255.375 413.21875 256.054688 412.347656 256.714844 411.460938 C 257.371094 410.570312 258.007812 409.667969 258.621094 408.75 C 259.234375 407.832031 259.828125 406.898438 260.394531 405.953125 C 260.964844 405.003906 261.507812 404.042969 262.027344 403.070312 C 262.550781 402.09375 263.046875 401.109375 263.519531 400.109375 C 263.988281 399.109375 264.4375 398.101562 264.859375 397.082031 C 265.28125 396.058594 265.679688 395.03125 266.050781 393.988281 C 266.425781 392.949219 266.773438 391.902344 267.09375 390.84375 C 267.414062 389.785156 267.707031 388.722656 267.976562 387.652344 C 268.242188 386.578125 268.484375 385.5 268.699219 384.417969 C 268.917969 383.335938 269.105469 382.246094 269.269531 381.152344 C 269.429688 380.0625 269.566406 378.964844 269.675781 377.867188 C 269.785156 376.765625 269.863281 375.664062 269.917969 374.5625 C 269.972656 373.457031 270 372.355469 270 371.25 C 270 370.144531 269.972656 369.042969 269.917969 367.9375 C 269.863281 366.835938 269.785156 365.734375 269.675781 364.632812 C 269.566406 363.535156 269.429688 362.4375 269.269531 361.34375 C 269.105469 360.253906 268.917969 359.164062 268.699219 358.082031 C 268.484375 356.996094 268.242188 355.917969 267.972656 354.847656 C 267.707031 353.777344 267.414062 352.710938 267.09375 351.65625 C 266.769531 350.597656 266.425781 349.550781 266.050781 348.507812 C 265.679688 347.46875 265.28125 346.4375 264.859375 345.417969 C 264.4375 344.398438 263.988281 343.386719 263.515625 342.390625 C 263.042969 341.390625 262.546875 340.40625 262.027344 339.429688 C 261.507812 338.457031 260.964844 337.496094 260.394531 336.546875 C 259.828125 335.597656 259.234375 334.667969 258.621094 333.75 C 258.007812 332.828125 257.371094 331.925781 256.714844 331.039062 C 256.054688 330.152344 255.375 329.28125 254.675781 328.425781 C 253.976562 327.574219 253.253906 326.738281 252.511719 325.917969 C 251.773438 325.101562 251.011719 324.300781 250.230469 323.519531 C 249.445312 322.738281 248.648438 321.976562 247.828125 321.234375 C 247.011719 320.492188 246.175781 319.773438 245.320312 319.070312 C 244.464844 318.371094 243.59375 317.691406 242.707031 317.03125 C 241.820312 316.375 240.917969 315.738281 240 315.125 C 239.082031 314.511719 238.148438 313.921875 237.199219 313.351562 C 236.253906 312.785156 235.292969 312.238281 234.316406 311.71875 C 233.34375 311.199219 232.355469 310.703125 231.359375 310.230469 C 230.359375 309.757812 229.351562 309.308594 228.328125 308.886719 C 227.308594 308.464844 226.277344 308.066406 225.238281 307.695312 C 224.199219 307.324219 223.152344 306.976562 222.09375 306.65625 C 221.035156 306.335938 219.972656 306.042969 218.898438 305.773438 C 217.828125 305.503906 216.75 305.261719 215.667969 305.046875 C 214.585938 304.832031 213.496094 304.640625 212.402344 304.480469 C 211.3125 304.320312 210.214844 304.183594 209.117188 304.074219 C 208.015625 303.96875 206.914062 303.886719 205.8125 303.832031 C 204.707031 303.777344 203.605469 303.75 202.5 303.75 C 201.394531 303.75 200.289062 303.777344 199.1875 303.832031 C 198.082031 303.886719 196.980469 303.96875 195.882812 304.074219 C 194.785156 304.183594 193.6875 304.320312 192.59375 304.480469 C 191.5 304.640625 190.414062 304.832031 189.328125 305.046875 C 188.246094 305.261719 187.167969 305.503906 186.097656 305.773438 C 185.027344 306.042969 183.960938 306.335938 182.90625 306.65625 C 181.847656 306.976562 180.796875 307.324219 179.757812 307.695312 C 178.71875 308.066406 177.6875 308.464844 176.667969 308.886719 C 175.648438 309.308594 174.636719 309.757812 173.636719 310.230469 C 172.640625 310.703125 171.652344 311.199219 170.679688 311.71875 C 169.707031 312.238281 168.746094 312.785156 167.796875 313.351562 C 166.847656 313.921875 165.914062 314.511719 164.996094 315.125 C 164.078125 315.738281 163.175781 316.375 162.289062 317.03125 C 161.402344 317.691406 160.53125 318.371094 159.679688 319.070312 C 158.824219 319.773438 157.988281 320.492188 157.171875 321.234375 C 156.351562 321.976562 155.550781 322.738281 154.769531 323.519531 C 153.988281 324.300781 153.226562 325.101562 152.484375 325.917969 C 151.742188 326.738281 151.019531 327.574219 150.320312 328.429688 C 149.621094 329.28125 148.941406 330.152344 148.28125 331.039062 C 147.625 331.925781 146.988281 332.828125 146.375 333.75 C 145.761719 334.667969 145.167969 335.597656 144.601562 336.546875 C 144.03125 337.496094 143.488281 338.457031 142.96875 339.429688 C 142.449219 340.40625 141.953125 341.390625 141.480469 342.390625 C 141.007812 343.386719 140.558594 344.398438 140.136719 345.417969 C 139.714844 346.4375 139.316406 347.46875 138.945312 348.507812 C 138.570312 349.550781 138.226562 350.597656 137.90625 351.65625 C 137.585938 352.710938 137.289062 353.777344 137.023438 354.847656 C 136.753906 355.917969 136.511719 356.996094 136.296875 358.082031 C 136.082031 359.164062 135.890625 360.253906 135.730469 361.34375 C 135.570312 362.4375 135.433594 363.535156 135.324219 364.632812 C 135.21875 365.734375 135.136719 366.835938 135.082031 367.9375 C 135.027344 369.042969 135 370.144531 135 371.25 C 135 372.355469 135.027344 373.457031 135.082031 374.5625 C 135.136719 375.664062 135.214844 376.765625 135.324219 377.867188 C 135.433594 378.964844 135.566406 380.0625 135.730469 381.152344 C 135.890625 382.246094 136.082031 383.335938 136.296875 384.417969 C 136.511719 385.5 136.753906 386.578125 137.023438 387.652344 C 137.289062 388.722656 137.585938 389.785156 137.90625 390.84375 C 138.226562 391.902344 138.570312 392.949219 138.945312 393.988281 C 139.316406 395.03125 139.714844 396.058594 140.136719 397.082031 C 140.558594 398.101562 141.007812 399.109375 141.480469 400.109375 C 141.953125 401.109375 142.449219 402.09375 142.96875 403.070312 C 143.488281 404.042969 144.03125 405.003906 144.601562 405.953125 C 145.167969 406.898438 145.757812 407.832031 146.371094 408.75 C 146.988281 409.667969 147.621094 410.574219 148.28125 411.460938 C 148.9375 412.347656 149.617188 413.21875 150.320312 414.070312 C 151.019531 414.925781 151.742188 415.761719 152.484375 416.578125 C 153.226562 417.398438 153.988281 418.199219 154.769531 418.980469 C 155.550781 419.761719 156.351562 420.523438 157.171875 421.265625 C 157.988281 422.003906 158.824219 422.726562 159.679688 423.425781 C 160.53125 424.128906 161.402344 424.808594 162.289062 425.464844 C 163.175781 426.125 164.082031 426.757812 164.996094 427.371094 C 165.914062 427.988281 166.847656 428.578125 167.796875 429.144531 C 168.746094 429.714844 169.707031 430.257812 170.679688 430.777344 C 171.652344 431.300781 172.640625 431.796875 173.636719 432.269531 C 174.636719 432.742188 175.648438 433.1875 176.667969 433.609375 C 177.6875 434.035156 178.71875 434.429688 179.757812 434.804688 C 180.796875 435.175781 181.847656 435.523438 182.90625 435.84375 C 183.960938 436.164062 185.027344 436.457031 186.097656 436.726562 C 187.167969 436.996094 188.246094 437.238281 189.328125 437.453125 C 190.414062 437.667969 191.5 437.855469 192.59375 438.019531 C 193.6875 438.179688 194.785156 438.316406 195.882812 438.425781 C 196.980469 438.53125 198.082031 438.613281 199.1875 438.667969 C 200.289062 438.722656 201.394531 438.75 202.5 438.75 Z M 202.5 337.5 C 203.605469 337.5 204.710938 337.554688 205.808594 337.664062 C 206.910156 337.769531 208 337.933594 209.082031 338.148438 C 210.167969 338.363281 211.238281 338.632812 212.296875 338.953125 C 213.355469 339.273438 214.394531 339.644531 215.414062 340.070312 C 216.4375 340.492188 217.4375 340.964844 218.410156 341.484375 C 219.386719 342.003906 220.332031 342.574219 221.25 343.1875 C 222.171875 343.800781 223.058594 344.460938 223.910156 345.160156 C 224.765625 345.863281 225.582031 346.601562 226.363281 347.382812 C 227.144531 348.167969 227.886719 348.984375 228.589844 349.839844 C 229.289062 350.691406 229.945312 351.578125 230.558594 352.5 C 231.175781 353.417969 231.742188 354.363281 232.265625 355.339844 C 232.785156 356.3125 233.257812 357.3125 233.679688 358.332031 C 234.101562 359.355469 234.476562 360.394531 234.796875 361.453125 C 235.117188 362.507812 235.386719 363.582031 235.601562 364.664062 C 235.820312 365.75 235.980469 366.839844 236.089844 367.941406 C 236.195312 369.042969 236.25 370.144531 236.25 371.25 C 236.25 372.355469 236.195312 373.457031 236.085938 374.558594 C 235.980469 375.65625 235.820312 376.75 235.601562 377.832031 C 235.386719 378.917969 235.117188 379.988281 234.796875 381.046875 C 234.476562 382.105469 234.101562 383.144531 233.679688 384.164062 C 233.257812 385.1875 232.785156 386.183594 232.265625 387.160156 C 231.742188 388.132812 231.175781 389.082031 230.558594 390 C 229.945312 390.917969 229.289062 391.804688 228.589844 392.660156 C 227.886719 393.515625 227.144531 394.332031 226.363281 395.113281 C 225.582031 395.894531 224.765625 396.636719 223.910156 397.339844 C 223.054688 398.039062 222.167969 398.699219 221.25 399.3125 C 220.332031 399.925781 219.382812 400.492188 218.410156 401.015625 C 217.4375 401.535156 216.4375 402.007812 215.414062 402.429688 C 214.394531 402.851562 213.355469 403.226562 212.296875 403.546875 C 211.238281 403.867188 210.167969 404.136719 209.082031 404.351562 C 208 404.566406 206.910156 404.730469 205.808594 404.835938 C 204.710938 404.945312 203.605469 405 202.5 405 C 201.394531 405 200.292969 404.945312 199.191406 404.835938 C 198.089844 404.730469 197 404.566406 195.914062 404.351562 C 194.832031 404.136719 193.757812 403.867188 192.703125 403.546875 C 191.644531 403.226562 190.605469 402.851562 189.582031 402.429688 C 188.5625 402.007812 187.5625 401.535156 186.589844 401.015625 C 185.613281 400.492188 184.667969 399.925781 183.746094 399.3125 C 182.828125 398.699219 181.941406 398.039062 181.089844 397.339844 C 180.234375 396.636719 179.414062 395.894531 178.632812 395.113281 C 177.851562 394.332031 177.109375 393.515625 176.410156 392.660156 C 175.707031 391.804688 175.050781 390.917969 174.433594 390 C 173.820312 389.082031 173.253906 388.132812 172.734375 387.160156 C 172.210938 386.183594 171.738281 385.1875 171.316406 384.164062 C 170.894531 383.144531 170.523438 382.105469 170.203125 381.046875 C 169.882812 379.988281 169.613281 378.917969 169.398438 377.832031 C 169.183594 376.75 169.019531 375.65625 168.910156 374.558594 C 168.804688 373.457031 168.75 372.355469 168.75 371.25 C 168.75 370.144531 168.804688 369.042969 168.914062 367.941406 C 169.019531 366.839844 169.183594 365.75 169.398438 364.664062 C 169.613281 363.582031 169.882812 362.511719 170.203125 361.453125 C 170.523438 360.394531 170.898438 359.355469 171.320312 358.335938 C 171.742188 357.3125 172.214844 356.316406 172.734375 355.339844 C 173.257812 354.363281 173.824219 353.417969 174.4375 352.5 C 175.050781 351.582031 175.710938 350.695312 176.410156 349.839844 C 177.113281 348.984375 177.855469 348.167969 178.636719 347.386719 C 179.417969 346.605469 180.234375 345.863281 181.089844 345.160156 C 181.945312 344.460938 182.832031 343.800781 183.75 343.1875 C 184.667969 342.574219 185.617188 342.007812 186.59375 341.484375 C 187.566406 340.964844 188.5625 340.492188 189.585938 340.070312 C 190.605469 339.648438 191.644531 339.273438 192.703125 338.953125 C 193.761719 338.632812 194.832031 338.363281 195.914062 338.148438 C 197 337.933594 198.089844 337.773438 199.191406 337.664062 C 200.292969 337.554688 201.394531 337.5 202.5 337.5 Z M 202.5 337.5 " fill-opacity="1" fill-rule="nonzero"/></svg>