<svg xmlns="http://www.w3.org/2000/svg" xmlns:xlink="http://www.w3.org/1999/xlink" width="1080" zoomAndPan="magnify" viewBox="0 0 810 809.999993" height="1080" preserveAspectRatio="xMidYMid meet" version="1.0"><path fill="#009688" d="M 406.011719 303.75 C 407.949219 303.75 409.878906 303.703125 411.808594 303.605469 C 413.738281 303.511719 415.667969 303.371094 417.59375 303.179688 C 419.515625 302.992188 421.433594 302.753906 423.34375 302.472656 C 425.253906 302.1875 427.160156 301.859375 429.054688 301.480469 C 430.949219 301.101562 432.835938 300.679688 434.710938 300.210938 C 436.585938 299.742188 438.449219 299.226562 440.300781 298.664062 C 442.152344 298.101562 443.984375 297.496094 445.804688 296.84375 C 447.625 296.191406 449.429688 295.496094 451.214844 294.757812 C 453 294.019531 454.765625 293.234375 456.515625 292.410156 C 458.265625 291.582031 459.988281 290.714844 461.695312 289.800781 C 463.398438 288.890625 465.078125 287.9375 466.734375 286.941406 C 468.394531 285.949219 470.027344 284.914062 471.636719 283.839844 C 473.242188 282.765625 474.824219 281.65625 476.375 280.503906 C 477.929688 279.351562 479.453125 278.164062 480.949219 276.9375 C 482.441406 275.710938 483.90625 274.449219 485.339844 273.148438 C 486.769531 271.851562 488.171875 270.519531 489.539062 269.152344 C 490.90625 267.785156 492.242188 266.382812 493.539062 264.953125 C 494.839844 263.519531 496.101562 262.054688 497.328125 260.5625 C 498.554688 259.066406 499.742188 257.542969 500.894531 255.992188 C 502.046875 254.4375 503.15625 252.855469 504.230469 251.25 C 505.304688 249.640625 506.339844 248.007812 507.332031 246.351562 C 508.328125 244.695312 509.28125 243.011719 510.191406 241.308594 C 511.101562 239.601562 511.96875 237.875 512.792969 236.128906 C 513.621094 234.382812 514.40625 232.613281 515.144531 230.828125 C 515.882812 229.042969 516.582031 227.238281 517.234375 225.417969 C 517.882812 223.597656 518.488281 221.761719 519.050781 219.914062 C 519.613281 218.0625 520.128906 216.199219 520.597656 214.324219 C 521.066406 212.449219 521.492188 210.566406 521.867188 208.667969 C 522.246094 206.773438 522.578125 204.867188 522.863281 202.957031 C 523.148438 201.042969 523.382812 199.125 523.574219 197.203125 C 523.761719 195.28125 523.902344 193.351562 523.996094 191.421875 C 524.089844 189.492188 524.136719 187.558594 524.136719 185.625 C 524.136719 183.691406 524.089844 181.757812 523.996094 179.828125 C 523.902344 177.898438 523.757812 175.96875 523.570312 174.046875 C 523.378906 172.125 523.144531 170.203125 522.859375 168.292969 C 522.574219 166.378906 522.242188 164.476562 521.867188 162.578125 C 521.488281 160.683594 521.066406 158.796875 520.597656 156.921875 C 520.128906 155.046875 519.613281 153.183594 519.050781 151.335938 C 518.488281 149.484375 517.878906 147.648438 517.230469 145.828125 C 516.578125 144.007812 515.882812 142.207031 515.144531 140.417969 C 514.402344 138.632812 513.621094 136.867188 512.792969 135.117188 C 511.96875 133.371094 511.101562 131.644531 510.191406 129.941406 C 509.28125 128.234375 508.328125 126.554688 507.332031 124.894531 C 506.335938 123.238281 505.300781 121.605469 504.230469 119.996094 C 503.15625 118.390625 502.042969 116.808594 500.890625 115.257812 C 499.742188 113.703125 498.550781 112.179688 497.328125 110.6875 C 496.101562 109.191406 494.839844 107.730469 493.539062 106.296875 C 492.242188 104.863281 490.90625 103.464844 489.539062 102.097656 C 488.171875 100.730469 486.769531 99.398438 485.339844 98.097656 C 483.90625 96.800781 482.441406 95.539062 480.949219 94.3125 C 479.453125 93.085938 477.929688 91.898438 476.375 90.746094 C 474.824219 89.59375 473.242188 88.480469 471.636719 87.40625 C 470.027344 86.332031 468.398438 85.300781 466.738281 84.304688 C 465.078125 83.3125 463.398438 82.359375 461.695312 81.449219 C 459.988281 80.535156 458.265625 79.667969 456.515625 78.839844 C 454.765625 78.015625 453 77.230469 451.214844 76.492188 C 449.429688 75.753906 447.625 75.054688 445.804688 74.40625 C 443.984375 73.753906 442.152344 73.148438 440.300781 72.585938 C 438.449219 72.023438 436.585938 71.507812 434.710938 71.039062 C 432.835938 70.570312 430.949219 70.148438 429.054688 69.769531 C 427.160156 69.390625 425.253906 69.0625 423.34375 68.777344 C 421.433594 68.496094 419.515625 68.257812 417.59375 68.070312 C 415.667969 67.878906 413.738281 67.738281 411.808594 67.644531 C 409.878906 67.546875 407.949219 67.5 406.011719 67.5 C 404.078125 67.5 402.148438 67.546875 400.214844 67.644531 C 398.285156 67.738281 396.359375 67.878906 394.4375 68.070312 C 392.511719 68.257812 390.589844 68.496094 388.675781 68.777344 C 386.765625 69.0625 384.863281 69.390625 382.96875 69.769531 C 381.070312 70.148438 379.1875 70.570312 377.308594 71.039062 C 375.433594 71.507812 373.570312 72.023438 371.722656 72.585938 C 369.871094 73.148438 368.035156 73.753906 366.214844 74.40625 C 364.398438 75.054688 362.59375 75.753906 360.804688 76.492188 C 359.019531 77.230469 357.253906 78.015625 355.507812 78.839844 C 353.757812 79.667969 352.03125 80.535156 350.328125 81.449219 C 348.625 82.359375 346.941406 83.3125 345.28125 84.304688 C 343.625 85.300781 341.992188 86.332031 340.382812 87.40625 C 338.777344 88.480469 337.195312 89.59375 335.644531 90.746094 C 334.09375 91.898438 332.570312 93.085938 331.078125 94.3125 C 329.582031 95.539062 328.117188 96.800781 326.683594 98.097656 C 325.25 99.398438 323.851562 100.730469 322.484375 102.097656 C 321.121094 103.464844 319.785156 104.863281 318.488281 106.296875 C 317.1875 107.730469 315.929688 109.191406 314.703125 110.6875 C 313.476562 112.179688 312.285156 113.703125 311.136719 115.257812 C 309.984375 116.808594 308.867188 118.390625 307.796875 119.996094 C 306.722656 121.605469 305.6875 123.238281 304.695312 124.894531 C 303.699219 126.554688 302.746094 128.234375 301.835938 129.941406 C 300.921875 131.644531 300.054688 133.371094 299.226562 135.117188 C 298.398438 136.867188 297.617188 138.632812 296.878906 140.417969 C 296.136719 142.207031 295.441406 144.007812 294.792969 145.828125 C 294.140625 147.648438 293.535156 149.484375 292.972656 151.335938 C 292.414062 153.183594 291.898438 155.046875 291.425781 156.921875 C 290.957031 158.796875 290.53125 160.683594 290.15625 162.578125 C 289.777344 164.476562 289.445312 166.378906 289.164062 168.292969 C 288.882812 170.203125 288.644531 172.125 288.457031 174.046875 C 288.265625 175.96875 288.125 177.898438 288.027344 179.828125 C 287.933594 181.757812 287.886719 183.691406 287.886719 185.625 C 287.886719 187.558594 287.933594 189.492188 288.03125 191.421875 C 288.125 193.351562 288.265625 195.28125 288.457031 197.203125 C 288.644531 199.125 288.882812 201.042969 289.164062 202.957031 C 289.445312 204.867188 289.777344 206.773438 290.15625 208.667969 C 290.53125 210.566406 290.957031 212.449219 291.425781 214.328125 C 291.898438 216.199219 292.414062 218.0625 292.972656 219.914062 C 293.535156 221.761719 294.140625 223.597656 294.792969 225.417969 C 295.441406 227.238281 296.136719 229.042969 296.878906 230.828125 C 297.617188 232.613281 298.398438 234.382812 299.226562 236.128906 C 300.054688 237.875 300.921875 239.601562 301.835938 241.308594 C 302.746094 243.011719 303.699219 244.695312 304.695312 246.351562 C 305.6875 248.007812 306.722656 249.640625 307.796875 251.25 C 308.867188 252.855469 309.984375 254.4375 311.136719 255.992188 C 312.285156 257.542969 313.476562 259.066406 314.703125 260.5625 C 315.929688 262.054688 317.1875 263.519531 318.488281 264.953125 C 319.785156 266.382812 321.121094 267.785156 322.484375 269.152344 C 323.851562 270.519531 325.25 271.851562 326.683594 273.148438 C 328.117188 274.449219 329.582031 275.710938 331.074219 276.9375 C 332.570312 278.164062 334.089844 279.351562 335.644531 280.503906 C 337.195312 281.65625 338.777344 282.765625 340.382812 283.839844 C 341.992188 284.914062 343.625 285.949219 345.285156 286.945312 C 346.941406 287.9375 348.625 288.890625 350.328125 289.800781 C 352.03125 290.714844 353.757812 291.582031 355.507812 292.410156 C 357.253906 293.234375 359.019531 294.019531 360.804688 294.757812 C 362.59375 295.496094 364.398438 296.191406 366.214844 296.84375 C 368.035156 297.496094 369.871094 298.101562 371.722656 298.664062 C 373.570312 299.226562 375.433594 299.742188 377.308594 300.210938 C 379.183594 300.679688 381.070312 301.101562 382.964844 301.480469 C 384.863281 301.859375 386.765625 302.1875 388.675781 302.472656 C 390.589844 302.753906 392.507812 302.992188 394.433594 303.179688 C 396.355469 303.371094 398.285156 303.511719 400.214844 303.605469 C 402.148438 303.703125 404.078125 303.75 406.011719 303.75 Z M 406.011719 101.25 C 407.394531 101.25 408.773438 101.285156 410.152344 101.351562 C 411.53125 101.417969 412.90625 101.519531 414.285156 101.65625 C 415.65625 101.792969 417.027344 101.960938 418.390625 102.164062 C 419.757812 102.367188 421.117188 102.601562 422.472656 102.871094 C 423.824219 103.140625 425.171875 103.441406 426.511719 103.777344 C 427.851562 104.113281 429.183594 104.480469 430.507812 104.882812 C 431.828125 105.285156 433.136719 105.71875 434.4375 106.183594 C 435.734375 106.648438 437.023438 107.144531 438.300781 107.671875 C 439.574219 108.199219 440.835938 108.761719 442.085938 109.351562 C 443.335938 109.941406 444.570312 110.5625 445.785156 111.210938 C 447.003906 111.863281 448.203125 112.542969 449.386719 113.253906 C 450.570312 113.964844 451.738281 114.703125 452.886719 115.46875 C 454.03125 116.238281 455.160156 117.03125 456.273438 117.855469 C 457.382812 118.675781 458.472656 119.527344 459.539062 120.402344 C 460.605469 121.277344 461.648438 122.179688 462.675781 123.105469 C 463.695312 124.035156 464.695312 124.984375 465.671875 125.960938 C 466.648438 126.9375 467.601562 127.9375 468.527344 128.960938 C 469.457031 129.984375 470.359375 131.03125 471.234375 132.097656 C 472.109375 133.164062 472.960938 134.253906 473.78125 135.363281 C 474.605469 136.472656 475.402344 137.601562 476.167969 138.75 C 476.933594 139.898438 477.671875 141.0625 478.382812 142.246094 C 479.09375 143.433594 479.773438 144.632812 480.421875 145.851562 C 481.070312 147.070312 481.691406 148.300781 482.28125 149.550781 C 482.875 150.796875 483.433594 152.058594 483.960938 153.335938 C 484.488281 154.609375 484.988281 155.898438 485.453125 157.199219 C 485.917969 158.5 486.351562 159.808594 486.753906 161.132812 C 487.15625 162.453125 487.519531 163.785156 487.855469 165.125 C 488.195312 166.464844 488.496094 167.808594 488.765625 169.164062 C 489.039062 170.519531 489.273438 171.878906 489.476562 173.246094 C 489.675781 174.609375 489.847656 175.980469 489.984375 177.355469 C 490.117188 178.730469 490.21875 180.105469 490.289062 181.484375 C 490.355469 182.863281 490.390625 184.242188 490.390625 185.625 C 490.390625 187.003906 490.359375 188.386719 490.289062 189.765625 C 490.222656 191.144531 490.117188 192.519531 489.984375 193.894531 C 489.847656 195.269531 489.675781 196.640625 489.476562 198.003906 C 489.273438 199.371094 489.039062 200.730469 488.765625 202.085938 C 488.496094 203.4375 488.195312 204.785156 487.859375 206.125 C 487.523438 207.464844 487.15625 208.796875 486.757812 210.117188 C 486.355469 211.4375 485.921875 212.75 485.453125 214.050781 C 484.988281 215.351562 484.492188 216.636719 483.964844 217.914062 C 483.433594 219.191406 482.875 220.453125 482.285156 221.699219 C 481.695312 222.949219 481.070312 224.179688 480.421875 225.398438 C 479.773438 226.617188 479.09375 227.816406 478.382812 229.003906 C 477.671875 230.1875 476.933594 231.351562 476.164062 232.5 C 475.398438 233.648438 474.601562 234.777344 473.777344 235.886719 C 472.957031 236.996094 472.109375 238.085938 471.234375 239.152344 C 470.359375 240.21875 469.457031 241.265625 468.527344 242.289062 C 467.601562 243.3125 466.648438 244.3125 465.671875 245.285156 C 464.695312 246.261719 463.695312 247.214844 462.671875 248.144531 C 461.652344 249.070312 460.609375 249.972656 459.539062 250.847656 C 458.472656 251.722656 457.386719 252.574219 456.277344 253.394531 C 455.164062 254.21875 454.035156 255.011719 452.890625 255.78125 C 451.742188 256.546875 450.574219 257.285156 449.390625 257.996094 C 448.207031 258.707031 447.007812 259.386719 445.789062 260.039062 C 444.574219 260.6875 443.339844 261.308594 442.089844 261.898438 C 440.839844 262.488281 439.578125 263.046875 438.304688 263.574219 C 437.027344 264.105469 435.742188 264.601562 434.441406 265.066406 C 433.140625 265.53125 431.828125 265.964844 430.507812 266.367188 C 429.1875 266.765625 427.851562 267.136719 426.511719 267.472656 C 425.175781 267.808594 423.828125 268.109375 422.472656 268.378906 C 421.117188 268.648438 419.757812 268.882812 418.394531 269.085938 C 417.027344 269.289062 415.660156 269.457031 414.285156 269.59375 C 412.914062 269.730469 411.535156 269.832031 410.15625 269.898438 C 408.777344 269.964844 407.394531 270 406.015625 270 C 404.632812 270 403.253906 269.964844 401.875 269.898438 C 400.496094 269.832031 399.121094 269.730469 397.746094 269.59375 C 396.371094 269.457031 395 269.289062 393.632812 269.085938 C 392.265625 268.882812 390.90625 268.648438 389.550781 268.378906 C 388.195312 268.109375 386.851562 267.808594 385.511719 267.472656 C 384.171875 267.136719 382.839844 266.765625 381.519531 266.367188 C 380.199219 265.964844 378.886719 265.53125 377.585938 265.066406 C 376.285156 264.601562 374.996094 264.105469 373.722656 263.574219 C 372.445312 263.046875 371.183594 262.488281 369.9375 261.898438 C 368.683594 261.308594 367.453125 260.6875 366.238281 260.039062 C 365.019531 259.386719 363.816406 258.707031 362.632812 257.996094 C 361.449219 257.285156 360.28125 256.546875 359.132812 255.78125 C 357.984375 255.011719 356.855469 254.21875 355.75 253.394531 C 354.640625 252.574219 353.554688 251.722656 352.484375 250.847656 C 351.417969 249.972656 350.371094 249.070312 349.347656 248.144531 C 348.324219 247.214844 347.324219 246.261719 346.347656 245.285156 C 345.371094 244.3125 344.421875 243.3125 343.492188 242.289062 C 342.566406 241.265625 341.664062 240.21875 340.789062 239.152344 C 339.910156 238.085938 339.0625 236.996094 338.238281 235.886719 C 337.414062 234.777344 336.621094 233.648438 335.851562 232.5 C 335.082031 231.351562 334.347656 230.1875 333.636719 229.003906 C 332.925781 227.816406 332.246094 226.617188 331.597656 225.398438 C 330.941406 224.179688 330.324219 222.949219 329.734375 221.699219 C 329.144531 220.453125 328.585938 219.191406 328.058594 217.914062 C 327.527344 216.636719 327.03125 215.351562 326.566406 214.050781 C 326.101562 212.75 325.667969 211.4375 325.269531 210.117188 C 324.867188 208.796875 324.5 207.464844 324.164062 206.125 C 323.828125 204.785156 323.527344 203.4375 323.257812 202.085938 C 322.988281 200.730469 322.75 199.371094 322.550781 198.003906 C 322.347656 196.640625 322.179688 195.269531 322.042969 193.894531 C 321.910156 192.519531 321.808594 191.144531 321.742188 189.765625 C 321.671875 188.386719 321.640625 187.003906 321.636719 185.625 C 321.640625 184.246094 321.675781 182.867188 321.742188 181.488281 C 321.8125 180.109375 321.917969 178.730469 322.054688 177.359375 C 322.191406 175.984375 322.363281 174.617188 322.566406 173.25 C 322.773438 171.882812 323.007812 170.523438 323.277344 169.171875 C 323.550781 167.816406 323.855469 166.472656 324.191406 165.132812 C 324.527344 163.792969 324.894531 162.464844 325.296875 161.144531 C 325.699219 159.824219 326.132812 158.511719 326.597656 157.214844 C 327.0625 155.914062 327.558594 154.628906 328.089844 153.351562 C 328.617188 152.078125 329.179688 150.816406 329.769531 149.570312 C 330.363281 148.320312 330.980469 147.089844 331.632812 145.871094 C 332.285156 144.65625 332.964844 143.453125 333.675781 142.269531 C 334.386719 141.085938 335.125 139.921875 335.890625 138.773438 C 336.660156 137.625 337.453125 136.496094 338.277344 135.390625 C 339.101562 134.28125 339.949219 133.191406 340.824219 132.125 C 341.699219 131.058594 342.601562 130.015625 343.53125 128.992188 C 344.457031 127.96875 345.40625 126.96875 346.382812 125.992188 C 347.359375 125.015625 348.359375 124.066406 349.378906 123.136719 C 350.402344 122.210938 351.449219 121.308594 352.515625 120.433594 C 353.585938 119.558594 354.671875 118.710938 355.777344 117.886719 C 356.886719 117.0625 358.015625 116.269531 359.164062 115.5 C 360.308594 114.734375 361.476562 113.996094 362.65625 113.285156 C 363.84375 112.574219 365.042969 111.894531 366.261719 111.242188 C 367.476562 110.59375 368.710938 109.96875 369.957031 109.378906 C 371.207031 108.789062 372.46875 108.230469 373.742188 107.699219 C 375.015625 107.171875 376.304688 106.671875 377.605469 106.207031 C 378.902344 105.742188 380.210938 105.308594 381.535156 104.90625 C 382.855469 104.503906 384.183594 104.136719 385.523438 103.800781 C 386.863281 103.460938 388.210938 103.160156 389.5625 102.890625 C 390.917969 102.617188 392.277344 102.382812 393.640625 102.175781 C 395.003906 101.972656 396.371094 101.800781 397.746094 101.664062 C 399.121094 101.527344 400.5 101.425781 401.878906 101.355469 C 403.253906 101.289062 404.632812 101.25 406.011719 101.25 Z M 406.011719 101.25 " fill-opacity="1" fill-rule="nonzero"/><path fill="#009688" d="M 405.167969 337.5 C 402.046875 337.5 398.925781 337.570312 395.808594 337.714844 C 392.691406 337.859375 389.582031 338.078125 386.476562 338.363281 C 383.367188 338.652344 380.269531 339.011719 377.179688 339.441406 C 374.089844 339.875 371.007812 340.375 367.945312 340.949219 C 364.875 341.523438 361.820312 342.167969 358.785156 342.882812 C 355.746094 343.597656 352.730469 344.378906 349.726562 345.234375 C 346.726562 346.089844 343.746094 347.011719 340.789062 348.003906 C 337.828125 348.996094 334.894531 350.054688 331.988281 351.183594 C 329.078125 352.3125 326.195312 353.503906 323.339844 354.765625 C 320.488281 356.027344 317.664062 357.351562 314.871094 358.742188 C 312.078125 360.136719 309.316406 361.589844 306.589844 363.109375 C 303.863281 364.628906 301.171875 366.210938 298.523438 367.851562 C 295.867188 369.496094 293.253906 371.199219 290.679688 372.964844 C 288.105469 374.726562 285.578125 376.550781 283.089844 378.429688 C 280.597656 380.3125 278.152344 382.25 275.753906 384.242188 C 273.351562 386.238281 271 388.285156 268.695312 390.390625 C 266.390625 392.492188 264.136719 394.648438 261.929688 396.855469 C 259.722656 399.0625 257.566406 401.320312 255.46875 403.625 C 253.367188 405.929688 251.316406 408.285156 249.324219 410.6875 C 247.332031 413.085938 245.394531 415.535156 243.515625 418.023438 C 241.636719 420.515625 239.8125 423.046875 238.050781 425.625 C 236.289062 428.199219 234.585938 430.8125 232.949219 433.464844 C 231.304688 436.121094 229.726562 438.808594 228.207031 441.535156 C 226.691406 444.261719 225.238281 447.023438 223.851562 449.820312 C 222.457031 452.613281 221.132812 455.4375 219.875 458.292969 C 218.617188 461.148438 217.425781 464.03125 216.300781 466.941406 C 215.171875 469.851562 214.113281 472.785156 213.125 475.742188 C 212.132812 478.703125 211.210938 481.683594 210.359375 484.683594 C 209.503906 487.6875 208.722656 490.707031 208.011719 493.742188 C 207.300781 496.78125 206.660156 499.835938 206.089844 502.902344 C 205.515625 505.96875 205.015625 509.050781 204.585938 512.140625 C 204.152344 515.230469 203.796875 518.328125 203.511719 521.4375 C 203.457031 522.023438 203.433594 522.609375 203.445312 523.199219 C 203.453125 523.785156 203.492188 524.371094 203.5625 524.957031 C 203.628906 525.539062 203.726562 526.117188 203.855469 526.691406 C 203.984375 527.265625 204.140625 527.832031 204.328125 528.390625 C 204.515625 528.949219 204.730469 529.492188 204.972656 530.03125 C 205.21875 530.566406 205.492188 531.085938 205.789062 531.59375 C 206.085938 532.101562 206.410156 532.589844 206.757812 533.0625 C 207.105469 533.535156 207.476562 533.992188 207.871094 534.425781 C 208.265625 534.863281 208.683594 535.277344 209.121094 535.667969 C 209.5625 536.058594 210.019531 536.425781 210.496094 536.773438 C 210.96875 537.117188 211.460938 537.4375 211.972656 537.730469 C 212.480469 538.023438 213.007812 538.289062 213.546875 538.527344 C 214.082031 538.765625 214.632812 538.976562 215.1875 539.160156 C 215.746094 539.34375 216.3125 539.496094 216.886719 539.617188 C 217.464844 539.742188 218.042969 539.835938 218.628906 539.898438 C 219.210938 539.964844 219.800781 539.996094 220.386719 540 L 589.664062 540 C 590.253906 540 590.84375 539.96875 591.433594 539.910156 C 592.019531 539.847656 592.601562 539.753906 593.179688 539.632812 C 593.757812 539.511719 594.324219 539.359375 594.886719 539.175781 C 595.449219 538.996094 595.996094 538.785156 596.535156 538.542969 C 597.074219 538.304688 597.601562 538.035156 598.113281 537.742188 C 598.625 537.445312 599.117188 537.125 599.597656 536.78125 C 600.070312 536.433594 600.527344 536.0625 600.96875 535.667969 C 601.40625 535.273438 601.820312 534.855469 602.214844 534.417969 C 602.613281 533.980469 602.984375 533.523438 603.328125 533.042969 C 603.675781 532.566406 604 532.074219 604.292969 531.5625 C 604.585938 531.050781 604.851562 530.527344 605.09375 529.988281 C 605.332031 529.449219 605.542969 528.898438 605.726562 528.335938 C 605.910156 527.777344 606.0625 527.207031 606.183594 526.628906 C 606.304688 526.050781 606.398438 525.472656 606.460938 524.882812 C 606.523438 524.296875 606.550781 523.707031 606.550781 523.117188 C 606.546875 522.527344 606.515625 521.941406 606.457031 521.351562 L 604.851562 506.25 C 604.359375 503.328125 603.804688 500.421875 603.1875 497.527344 C 602.570312 494.628906 601.886719 491.75 601.140625 488.882812 C 600.394531 486.019531 599.585938 483.171875 598.710938 480.339844 C 597.84375 477.511719 596.910156 474.699219 595.917969 471.910156 C 594.921875 469.121094 593.867188 466.355469 592.75 463.613281 C 591.636719 460.867188 590.460938 458.152344 589.226562 455.460938 C 587.992188 452.769531 586.695312 450.105469 585.34375 447.472656 C 583.988281 444.835938 582.582031 442.234375 581.113281 439.660156 C 579.648438 437.085938 578.125 434.546875 576.546875 432.042969 C 574.972656 429.535156 573.339844 427.066406 571.652344 424.632812 C 569.96875 422.195312 568.230469 419.800781 566.4375 417.441406 C 564.644531 415.085938 562.804688 412.765625 560.910156 410.488281 C 559.015625 408.210938 557.074219 405.976562 555.085938 403.785156 C 553.09375 401.59375 551.054688 399.445312 548.96875 397.34375 C 546.882812 395.242188 544.753906 393.1875 542.578125 391.179688 C 540.402344 389.167969 538.183594 387.207031 535.921875 385.296875 C 533.660156 383.386719 531.359375 381.527344 529.015625 379.714844 C 526.671875 377.90625 524.289062 376.148438 521.871094 374.441406 C 519.449219 372.734375 516.992188 371.082031 514.496094 369.484375 C 512.003906 367.886719 509.476562 366.34375 506.914062 364.859375 C 504.355469 363.371094 501.761719 361.941406 499.140625 360.566406 C 496.515625 359.195312 493.863281 357.878906 491.179688 356.625 C 488.5 355.367188 485.789062 354.167969 483.058594 353.03125 C 480.320312 351.894531 477.5625 350.816406 474.78125 349.800781 C 472 348.785156 469.199219 347.828125 466.375 346.933594 C 463.554688 346.039062 460.714844 345.210938 457.855469 344.441406 C 454.996094 343.671875 452.117188 342.964844 449.230469 342.324219 C 446.335938 341.679688 443.433594 341.101562 440.519531 340.585938 C 437.601562 340.070312 434.675781 339.621094 431.742188 339.234375 C 428.804688 338.847656 425.859375 338.523438 422.910156 338.265625 C 419.960938 338.007812 417.007812 337.816406 414.046875 337.6875 C 411.089844 337.5625 408.128906 337.5 405.167969 337.5 Z M 387.871094 506.25 L 239.808594 506.25 C 240.289062 503.890625 240.820312 501.539062 241.398438 499.199219 C 241.980469 496.863281 242.609375 494.539062 243.289062 492.226562 C 243.96875 489.914062 244.699219 487.617188 245.476562 485.335938 C 246.257812 483.058594 247.082031 480.792969 247.957031 478.550781 C 248.835938 476.304688 249.757812 474.078125 250.726562 471.875 C 251.699219 469.667969 252.714844 467.484375 253.777344 465.324219 C 254.839844 463.160156 255.949219 461.023438 257.105469 458.910156 C 258.261719 456.796875 259.460938 454.707031 260.703125 452.644531 C 261.949219 450.582031 263.238281 448.546875 264.570312 446.539062 C 265.902344 444.527344 267.277344 442.550781 268.691406 440.601562 C 270.109375 438.652344 271.566406 436.734375 273.066406 434.847656 C 274.566406 432.964844 276.105469 431.109375 277.683594 429.289062 C 279.261719 427.46875 280.878906 425.683594 282.535156 423.929688 C 284.1875 422.179688 285.878906 420.464844 287.605469 418.785156 C 289.332031 417.105469 291.097656 415.464844 292.894531 413.863281 C 294.691406 412.257812 296.523438 410.695312 298.390625 409.171875 C 300.257812 407.644531 302.152344 406.160156 304.082031 404.71875 C 306.011719 403.273438 307.972656 401.871094 309.957031 400.511719 C 311.949219 399.152344 313.964844 397.835938 316.011719 396.5625 C 318.058594 395.289062 320.128906 394.0625 322.226562 392.878906 C 324.328125 391.695312 326.449219 390.554688 328.59375 389.460938 C 330.742188 388.367188 332.910156 387.320312 335.101562 386.320312 C 337.292969 385.320312 339.503906 384.367188 341.738281 383.460938 C 343.96875 382.554688 346.21875 381.695312 348.488281 380.886719 C 350.761719 380.078125 353.046875 379.316406 355.347656 378.605469 C 357.648438 377.894531 359.964844 377.230469 362.296875 376.617188 C 364.628906 376.007812 366.96875 375.445312 369.324219 374.933594 C 371.679688 374.421875 374.042969 373.960938 376.417969 373.550781 C 378.792969 373.136719 381.171875 372.777344 383.5625 372.46875 C 385.953125 372.160156 388.347656 371.902344 390.746094 371.695312 C 393.148438 371.492188 395.550781 371.335938 397.957031 371.234375 C 400.363281 371.128906 402.773438 371.078125 405.183594 371.078125 C 407.59375 371.078125 410 371.128906 412.40625 371.234375 C 414.816406 371.335938 417.21875 371.492188 419.621094 371.695312 C 422.019531 371.902344 424.417969 372.160156 426.808594 372.46875 C 429.199219 372.777344 431.578125 373.136719 433.953125 373.550781 C 436.328125 373.960938 438.695312 374.421875 441.050781 374.933594 C 443.402344 375.445312 445.742188 376.007812 448.074219 376.617188 C 450.402344 377.230469 452.71875 377.894531 455.023438 378.605469 C 457.324219 379.316406 459.609375 380.078125 461.875 380.886719 C 464.148438 381.695312 466.398438 382.554688 468.632812 383.460938 C 470.867188 384.367188 473.078125 385.320312 475.269531 386.320312 C 477.460938 387.320312 479.628906 388.367188 481.777344 389.460938 C 483.925781 390.554688 486.046875 391.695312 488.144531 392.878906 C 490.246094 394.0625 492.3125 395.292969 494.359375 396.566406 C 496.40625 397.839844 498.421875 399.15625 500.410156 400.515625 C 502.402344 401.875 504.359375 403.273438 506.292969 404.71875 C 508.222656 406.164062 510.117188 407.644531 511.980469 409.171875 C 513.847656 410.695312 515.679688 412.261719 517.480469 413.863281 C 519.277344 415.46875 521.039062 417.109375 522.765625 418.785156 C 524.496094 420.464844 526.1875 422.179688 527.84375 423.929688 C 529.5 425.683594 531.117188 427.46875 532.695312 429.289062 C 534.269531 431.109375 535.808594 432.964844 537.308594 434.847656 C 538.804688 436.734375 540.265625 438.652344 541.679688 440.601562 C 543.097656 442.550781 544.46875 444.53125 545.800781 446.539062 C 547.132812 448.546875 548.421875 450.582031 549.667969 452.644531 C 550.910156 454.707031 552.113281 456.796875 553.269531 458.910156 C 554.421875 461.023438 555.53125 463.160156 556.597656 465.324219 C 557.660156 467.484375 558.675781 469.667969 559.648438 471.875 C 560.617188 474.078125 561.539062 476.304688 562.417969 478.550781 C 563.292969 480.796875 564.117188 483.058594 564.894531 485.339844 C 565.675781 487.617188 566.402344 489.914062 567.082031 492.226562 C 567.761719 494.539062 568.390625 496.863281 568.972656 499.199219 C 569.550781 501.539062 570.078125 503.890625 570.558594 506.25 Z M 387.871094 506.25 " fill-opacity="1" fill-rule="nonzero"/><path fill="#009688" d="M 337.5 725.625 L 337.5 708.75 L 540 708.75 L 635.917969 740.726562 C 637.644531 741.304688 639.421875 741.59375 641.246094 741.59375 C 643.070312 741.59375 644.847656 741.304688 646.582031 740.726562 L 730.957031 712.597656 C 731.789062 712.320312 732.601562 711.976562 733.382812 711.574219 C 734.164062 711.167969 734.910156 710.707031 735.617188 710.183594 C 736.328125 709.664062 736.992188 709.089844 737.613281 708.464844 C 738.230469 707.839844 738.796875 707.167969 739.316406 706.457031 C 739.832031 705.742188 740.285156 704.992188 740.683594 704.207031 C 741.082031 703.417969 741.414062 702.605469 741.683594 701.769531 C 741.953125 700.929688 742.15625 700.078125 742.292969 699.207031 C 742.429688 698.339844 742.496094 697.464844 742.496094 696.582031 L 742.496094 653.417969 C 742.496094 652.535156 742.429688 651.660156 742.289062 650.789062 C 742.152344 649.921875 741.949219 649.066406 741.679688 648.230469 C 741.40625 647.390625 741.074219 646.578125 740.675781 645.792969 C 740.28125 645.007812 739.824219 644.257812 739.3125 643.542969 C 738.792969 642.832031 738.226562 642.160156 737.609375 641.535156 C 736.988281 640.910156 736.328125 640.335938 735.617188 639.816406 C 734.90625 639.292969 734.160156 638.832031 733.378906 638.425781 C 732.597656 638.023438 731.789062 637.679688 730.957031 637.402344 L 646.582031 609.273438 C 644.847656 608.695312 643.070312 608.40625 641.246094 608.40625 C 639.421875 608.40625 637.644531 608.695312 635.917969 609.273438 L 540 641.25 L 337.5 641.25 L 337.5 624.375 C 337.503906 623.824219 337.476562 623.269531 337.421875 622.722656 C 337.367188 622.171875 337.285156 621.625 337.175781 621.082031 C 337.070312 620.539062 336.933594 620.003906 336.773438 619.476562 C 336.613281 618.945312 336.425781 618.425781 336.210938 617.917969 C 336.003906 617.40625 335.769531 616.90625 335.507812 616.417969 C 335.246094 615.933594 334.960938 615.457031 334.65625 615 C 334.347656 614.539062 334.019531 614.097656 333.671875 613.667969 C 333.320312 613.242188 332.949219 612.832031 332.554688 612.441406 C 332.167969 612.050781 331.757812 611.679688 331.332031 611.332031 C 330.902344 610.980469 330.457031 610.652344 329.996094 610.34375 C 329.539062 610.035156 329.066406 609.753906 328.578125 609.492188 C 328.089844 609.230469 327.589844 608.996094 327.078125 608.785156 C 326.570312 608.574219 326.046875 608.386719 325.519531 608.226562 C 324.992188 608.066406 324.457031 607.933594 323.914062 607.824219 C 323.371094 607.71875 322.828125 607.636719 322.277344 607.582031 C 321.726562 607.527344 321.175781 607.5 320.625 607.5 L 137.902344 607.5 C 135.78125 607.464844 133.667969 607.527344 131.554688 607.683594 C 129.441406 607.84375 127.339844 608.097656 125.25 608.449219 C 123.160156 608.800781 121.089844 609.246094 119.042969 609.785156 C 116.992188 610.324219 114.972656 610.957031 112.980469 611.683594 C 110.988281 612.410156 109.035156 613.222656 107.117188 614.128906 C 105.199219 615.03125 103.332031 616.023438 101.503906 617.097656 C 99.675781 618.171875 97.902344 619.328125 96.183594 620.566406 C 94.460938 621.804688 92.804688 623.117188 91.203125 624.507812 C 89.601562 625.898438 88.070312 627.359375 86.605469 628.886719 C 85.136719 630.417969 83.742188 632.011719 82.421875 633.667969 C 81.097656 635.328125 79.855469 637.042969 78.695312 638.8125 C 77.53125 640.585938 76.449219 642.40625 75.457031 644.277344 C 74.457031 646.144531 73.546875 648.058594 72.726562 650.011719 C 71.902344 651.964844 71.171875 653.953125 70.53125 655.972656 C 69.890625 657.992188 69.34375 660.035156 68.890625 662.105469 C 68.4375 664.175781 68.082031 666.265625 67.820312 668.367188 C 67.707031 669.535156 67.621094 670.707031 67.566406 671.878906 C 67.511719 673.050781 67.488281 674.226562 67.492188 675.398438 C 67.503906 676.574219 67.542969 677.746094 67.609375 678.917969 C 67.675781 680.089844 67.777344 681.261719 67.90625 682.425781 C 68.035156 683.59375 68.195312 684.757812 68.382812 685.914062 C 68.574219 687.074219 68.796875 688.226562 69.042969 689.375 C 69.292969 690.519531 69.574219 691.660156 69.886719 692.792969 C 70.191406 693.925781 70.53125 695.050781 70.898438 696.164062 C 71.269531 697.277344 71.664062 698.382812 72.089844 699.476562 C 72.515625 700.570312 72.972656 701.652344 73.449219 702.722656 C 73.933594 703.792969 74.445312 704.851562 74.980469 705.894531 C 75.515625 706.941406 76.082031 707.96875 76.671875 708.984375 C 77.261719 709.996094 77.878906 710.996094 78.523438 711.976562 C 79.164062 712.960938 79.832031 713.925781 80.527344 714.871094 C 81.222656 715.820312 81.9375 716.746094 82.675781 717.65625 C 83.417969 718.566406 84.183594 719.457031 84.972656 720.328125 C 85.761719 721.195312 86.574219 722.046875 87.40625 722.871094 C 88.238281 723.699219 89.09375 724.503906 89.964844 725.289062 C 90.84375 726.070312 91.738281 726.832031 92.652344 727.570312 C 93.566406 728.304688 94.5 729.015625 95.449219 729.703125 C 96.402344 730.394531 97.371094 731.054688 98.359375 731.691406 C 99.34375 732.328125 100.34375 732.941406 101.363281 733.523438 C 102.382812 734.109375 103.414062 734.667969 104.460938 735.199219 C 105.511719 735.730469 106.570312 736.234375 107.640625 736.710938 C 108.714844 737.183594 109.800781 737.632812 110.898438 738.050781 C 111.996094 738.472656 113.101562 738.859375 114.21875 739.222656 C 115.335938 739.585938 116.460938 739.917969 117.59375 740.21875 C 118.730469 740.519531 119.871094 740.792969 121.019531 741.039062 C 122.167969 741.28125 123.324219 741.496094 124.484375 741.675781 C 125.640625 741.859375 126.804688 742.011719 127.972656 742.132812 C 129.140625 742.257812 130.308594 742.347656 131.480469 742.410156 C 132.652344 742.46875 133.828125 742.5 135 742.5 L 320.625 742.5 C 321.175781 742.5 321.726562 742.472656 322.277344 742.417969 C 322.828125 742.363281 323.371094 742.285156 323.914062 742.175781 C 324.453125 742.066406 324.988281 741.933594 325.519531 741.773438 C 326.046875 741.613281 326.570312 741.425781 327.078125 741.214844 C 327.589844 741.003906 328.089844 740.769531 328.578125 740.507812 C 329.066406 740.246094 329.539062 739.964844 329.996094 739.65625 C 330.457031 739.347656 330.902344 739.019531 331.332031 738.667969 C 331.757812 738.320312 332.167969 737.949219 332.554688 737.558594 C 332.949219 737.167969 333.320312 736.757812 333.671875 736.332031 C 334.019531 735.902344 334.347656 735.460938 334.65625 735 C 334.960938 734.539062 335.246094 734.066406 335.507812 733.578125 C 335.769531 733.09375 336.003906 732.59375 336.210938 732.082031 C 336.425781 731.570312 336.613281 731.050781 336.769531 730.523438 C 336.933594 729.996094 337.070312 729.457031 337.175781 728.917969 C 337.285156 728.375 337.363281 727.828125 337.417969 727.277344 C 337.476562 726.730469 337.503906 726.175781 337.5 725.625 Z M 708.75 665.582031 L 708.75 684.414062 L 641.25 706.925781 L 573.75 684.414062 L 573.75 665.582031 L 641.25 643.070312 Z M 135 708.75 C 133.894531 708.75 132.792969 708.695312 131.695312 708.585938 C 130.59375 708.480469 129.5 708.316406 128.414062 708.101562 C 127.332031 707.886719 126.261719 707.617188 125.203125 707.296875 C 124.144531 706.976562 123.105469 706.601562 122.082031 706.179688 C 121.0625 705.757812 120.0625 705.285156 119.089844 704.765625 C 118.113281 704.242188 117.167969 703.675781 116.246094 703.0625 C 115.328125 702.449219 114.441406 701.789062 113.585938 701.089844 C 112.734375 700.386719 111.917969 699.644531 111.132812 698.863281 C 110.351562 698.082031 109.609375 697.265625 108.910156 696.410156 C 108.210938 695.554688 107.554688 694.667969 106.9375 693.75 C 106.324219 692.832031 105.757812 691.882812 105.234375 690.910156 C 104.710938 689.933594 104.242188 688.9375 103.816406 687.914062 C 103.394531 686.894531 103.023438 685.855469 102.703125 684.796875 C 102.382812 683.738281 102.109375 682.667969 101.894531 681.585938 C 101.679688 680.5 101.519531 679.410156 101.410156 678.308594 C 101.304688 677.207031 101.25 676.105469 101.25 675 C 101.25 673.894531 101.304688 672.792969 101.410156 671.691406 C 101.519531 670.59375 101.679688 669.5 101.894531 668.414062 C 102.109375 667.332031 102.382812 666.261719 102.703125 665.203125 C 103.023438 664.144531 103.394531 663.105469 103.816406 662.082031 C 104.242188 661.0625 104.710938 660.0625 105.234375 659.089844 C 105.757812 658.113281 106.324219 657.167969 106.9375 656.25 C 107.554688 655.328125 108.210938 654.445312 108.910156 653.589844 C 109.609375 652.734375 110.351562 651.917969 111.132812 651.132812 C 111.917969 650.351562 112.734375 649.613281 113.585938 648.910156 C 114.441406 648.210938 115.328125 647.550781 116.246094 646.9375 C 117.167969 646.324219 118.113281 645.753906 119.089844 645.234375 C 120.0625 644.714844 121.0625 644.242188 122.082031 643.816406 C 123.105469 643.394531 124.144531 643.023438 125.203125 642.703125 C 126.261719 642.382812 127.332031 642.113281 128.414062 641.898438 C 129.5 641.683594 130.59375 641.519531 131.695312 641.414062 C 132.792969 641.304688 133.894531 641.25 135 641.25 L 303.75 641.25 L 303.75 708.75 Z M 135 708.75 " fill-opacity="1" fill-rule="nonzero"/></svg>