<svg xmlns="http://www.w3.org/2000/svg" xmlns:xlink="http://www.w3.org/1999/xlink" width="1080" zoomAndPan="magnify" viewBox="0 0 810 809.999993" height="1080" preserveAspectRatio="xMidYMid meet" version="1.0"><path fill="#009688" d="M 169.59375 354.375 L 237.09375 354.375 L 237.09375 421.875 L 169.59375 421.875 Z M 169.59375 354.375 " fill-opacity="1" fill-rule="nonzero"/><path fill="#009688" d="M 304.59375 354.375 L 372.09375 354.375 L 372.09375 421.875 L 304.59375 421.875 Z M 304.59375 354.375 " fill-opacity="1" fill-rule="nonzero"/><path fill="#009688" d="M 439.59375 354.375 L 507.09375 354.375 L 507.09375 421.875 L 439.59375 421.875 Z M 439.59375 354.375 " fill-opacity="1" fill-rule="nonzero"/><path fill="#009688" d="M 169.59375 489.375 L 237.09375 489.375 L 237.09375 556.875 L 169.59375 556.875 Z M 169.59375 489.375 " fill-opacity="1" fill-rule="nonzero"/><path fill="#009688" d="M 304.59375 489.375 L 372.09375 489.375 L 372.09375 556.875 L 304.59375 556.875 Z M 304.59375 489.375 " fill-opacity="1" fill-rule="nonzero"/><path fill="#009688" d="M 405.84375 624.375 L 102.09375 624.375 L 102.09375 286.875 L 574.59375 286.875 L 574.59375 371.25 C 574.597656 371.800781 574.625 372.355469 574.675781 372.902344 C 574.730469 373.453125 574.8125 374 574.914062 374.542969 C 575.023438 375.085938 575.160156 375.617188 575.320312 376.148438 C 575.476562 376.675781 575.664062 377.195312 575.875 377.707031 C 576.089844 378.21875 576.324219 378.714844 576.585938 379.203125 C 576.847656 379.691406 577.128906 380.164062 577.4375 380.625 C 577.746094 381.085938 578.074219 381.527344 578.425781 381.957031 C 578.777344 382.382812 579.148438 382.792969 579.535156 383.183594 C 579.925781 383.574219 580.335938 383.945312 580.761719 384.292969 C 581.1875 384.644531 581.632812 384.972656 582.089844 385.28125 C 582.550781 385.585938 583.023438 385.871094 583.511719 386.132812 C 584 386.394531 584.5 386.628906 585.007812 386.839844 C 585.519531 387.050781 586.042969 387.238281 586.570312 387.398438 C 587.101562 387.558594 587.632812 387.691406 588.175781 387.800781 C 588.71875 387.90625 589.265625 387.988281 589.816406 388.042969 C 590.367188 388.097656 590.917969 388.125 591.46875 388.125 C 592.023438 388.125 592.574219 388.097656 593.125 388.042969 C 593.671875 387.988281 594.21875 387.90625 594.761719 387.800781 C 595.304688 387.691406 595.839844 387.558594 596.367188 387.398438 C 596.898438 387.238281 597.417969 387.050781 597.925781 386.839844 C 598.4375 386.628906 598.9375 386.394531 599.425781 386.132812 C 599.914062 385.871094 600.386719 385.585938 600.84375 385.28125 C 601.304688 384.972656 601.75 384.644531 602.175781 384.292969 C 602.601562 383.945312 603.011719 383.574219 603.402344 383.183594 C 603.792969 382.792969 604.164062 382.382812 604.511719 381.953125 C 604.859375 381.527344 605.1875 381.085938 605.496094 380.625 C 605.800781 380.164062 606.085938 379.691406 606.347656 379.203125 C 606.609375 378.714844 606.84375 378.21875 607.058594 377.707031 C 607.269531 377.195312 607.453125 376.675781 607.617188 376.148438 C 607.777344 375.617188 607.910156 375.085938 608.019531 374.542969 C 608.128906 374 608.210938 373.453125 608.265625 372.902344 C 608.316406 372.355469 608.34375 371.800781 608.34375 371.25 L 608.34375 185.625 C 608.34375 184.519531 608.292969 183.417969 608.183594 182.316406 C 608.074219 181.21875 607.910156 180.125 607.695312 179.039062 C 607.476562 177.957031 607.210938 176.886719 606.890625 175.828125 C 606.570312 174.769531 606.195312 173.730469 605.773438 172.707031 C 605.347656 171.6875 604.878906 170.691406 604.359375 169.714844 C 603.835938 168.738281 603.269531 167.792969 602.652344 166.871094 C 602.039062 165.953125 601.382812 165.070312 600.679688 164.214844 C 599.980469 163.359375 599.238281 162.542969 598.457031 161.757812 C 597.679688 160.976562 596.859375 160.238281 596.003906 159.535156 C 595.152344 158.835938 594.265625 158.175781 593.34375 157.5625 C 592.425781 156.949219 591.476562 156.382812 590.503906 155.859375 C 589.527344 155.339844 588.53125 154.867188 587.511719 154.445312 C 586.488281 154.019531 585.449219 153.648438 584.390625 153.328125 C 583.335938 153.007812 582.265625 152.738281 581.179688 152.523438 C 580.097656 152.308594 579.003906 152.144531 577.90625 152.039062 C 576.804688 151.929688 575.699219 151.875 574.59375 151.875 L 540.84375 151.875 L 540.84375 101.25 C 540.84375 100.699219 540.816406 100.144531 540.765625 99.597656 C 540.707031 99.046875 540.628906 98.5 540.519531 97.957031 C 540.414062 97.414062 540.28125 96.878906 540.117188 96.351562 C 539.957031 95.824219 539.769531 95.300781 539.558594 94.792969 C 539.347656 94.28125 539.113281 93.78125 538.851562 93.292969 C 538.589844 92.808594 538.308594 92.332031 538 91.875 C 537.691406 91.414062 537.363281 90.972656 537.015625 90.542969 C 536.664062 90.117188 536.289062 89.707031 535.902344 89.316406 C 535.507812 88.925781 535.097656 88.554688 534.671875 88.203125 C 534.246094 87.855469 533.800781 87.527344 533.339844 87.21875 C 532.882812 86.910156 532.40625 86.628906 531.921875 86.367188 C 531.433594 86.105469 530.933594 85.871094 530.421875 85.660156 C 529.914062 85.445312 529.394531 85.261719 528.863281 85.101562 C 528.335938 84.941406 527.804688 84.804688 527.261719 84.699219 C 526.71875 84.589844 526.171875 84.511719 525.625 84.457031 C 525.074219 84.402344 524.523438 84.375 523.96875 84.375 L 456.46875 84.375 C 455.917969 84.375 455.367188 84.402344 454.816406 84.457031 C 454.265625 84.511719 453.71875 84.589844 453.175781 84.699219 C 452.632812 84.804688 452.097656 84.941406 451.570312 85.101562 C 451.039062 85.261719 450.519531 85.449219 450.007812 85.660156 C 449.5 85.871094 449 86.105469 448.511719 86.367188 C 448.027344 86.628906 447.550781 86.910156 447.09375 87.21875 C 446.632812 87.527344 446.191406 87.855469 445.765625 88.203125 C 445.335938 88.554688 444.929688 88.925781 444.539062 89.316406 C 444.148438 89.707031 443.777344 90.117188 443.425781 90.542969 C 443.074219 90.972656 442.742188 91.414062 442.4375 91.875 C 442.132812 92.335938 441.847656 92.808594 441.585938 93.296875 C 441.328125 93.78125 441.09375 94.28125 440.878906 94.792969 C 440.667969 95.304688 440.480469 95.824219 440.324219 96.351562 C 440.164062 96.878906 440.027344 97.414062 439.917969 97.957031 C 439.8125 98.5 439.730469 99.046875 439.675781 99.597656 C 439.625 100.144531 439.597656 100.699219 439.59375 101.25 L 439.59375 151.875 L 237.09375 151.875 L 237.09375 101.25 C 237.09375 100.699219 237.066406 100.144531 237.011719 99.597656 C 236.957031 99.046875 236.878906 98.5 236.769531 97.957031 C 236.660156 97.414062 236.527344 96.878906 236.367188 96.351562 C 236.207031 95.824219 236.019531 95.300781 235.808594 94.792969 C 235.597656 94.28125 235.363281 93.78125 235.101562 93.292969 C 234.84375 92.808594 234.558594 92.332031 234.25 91.875 C 233.941406 91.414062 233.617188 90.972656 233.261719 90.542969 C 232.914062 90.117188 232.542969 89.707031 232.152344 89.316406 C 231.761719 88.925781 231.351562 88.554688 230.925781 88.203125 C 230.5 87.855469 230.054688 87.527344 229.59375 87.21875 C 229.132812 86.910156 228.660156 86.628906 228.171875 86.367188 C 227.683594 86.105469 227.1875 85.871094 226.675781 85.660156 C 226.167969 85.445312 225.644531 85.261719 225.117188 85.101562 C 224.585938 84.941406 224.050781 84.804688 223.507812 84.699219 C 222.96875 84.589844 222.421875 84.511719 221.871094 84.457031 C 221.324219 84.402344 220.773438 84.375 220.21875 84.375 L 152.71875 84.375 C 152.167969 84.375 151.617188 84.402344 151.066406 84.457031 C 150.515625 84.511719 149.96875 84.589844 149.429688 84.699219 C 148.886719 84.804688 148.351562 84.941406 147.824219 85.101562 C 147.292969 85.261719 146.773438 85.449219 146.261719 85.660156 C 145.75 85.871094 145.253906 86.105469 144.765625 86.367188 C 144.277344 86.628906 143.804688 86.910156 143.34375 87.21875 C 142.882812 87.527344 142.441406 87.855469 142.015625 88.203125 C 141.585938 88.554688 141.179688 88.925781 140.785156 89.316406 C 140.398438 89.707031 140.023438 90.117188 139.671875 90.542969 C 139.324219 90.972656 138.992188 91.414062 138.683594 91.875 C 138.378906 92.335938 138.097656 92.808594 137.835938 93.296875 C 137.578125 93.78125 137.339844 94.28125 137.128906 94.792969 C 136.914062 95.304688 136.730469 95.824219 136.570312 96.351562 C 136.414062 96.878906 136.277344 97.414062 136.171875 97.957031 C 136.0625 98.5 135.984375 99.046875 135.925781 99.597656 C 135.871094 100.144531 135.84375 100.699219 135.84375 101.25 L 135.84375 151.875 L 102.09375 151.875 C 100.992188 151.875 99.890625 151.929688 98.789062 152.039062 C 97.691406 152.144531 96.597656 152.308594 95.511719 152.523438 C 94.425781 152.738281 93.355469 153.007812 92.300781 153.328125 C 91.242188 153.648438 90.203125 154.023438 89.179688 154.445312 C 88.160156 154.867188 87.160156 155.339844 86.1875 155.859375 C 85.210938 156.382812 84.265625 156.949219 83.34375 157.5625 C 82.425781 158.175781 81.539062 158.835938 80.683594 159.535156 C 79.828125 160.238281 79.011719 160.980469 78.230469 161.761719 C 77.449219 162.542969 76.707031 163.359375 76.003906 164.214844 C 75.304688 165.070312 74.648438 165.957031 74.035156 166.875 C 73.421875 167.792969 72.855469 168.742188 72.332031 169.714844 C 71.8125 170.691406 71.339844 171.6875 70.914062 172.710938 C 70.492188 173.730469 70.121094 174.769531 69.800781 175.828125 C 69.476562 176.886719 69.210938 177.957031 68.992188 179.039062 C 68.777344 180.125 68.617188 181.21875 68.507812 182.316406 C 68.398438 183.417969 68.347656 184.519531 68.34375 185.625 L 68.34375 624.375 C 68.34375 625.480469 68.398438 626.582031 68.507812 627.683594 C 68.613281 628.78125 68.773438 629.875 68.992188 630.957031 C 69.207031 632.042969 69.476562 633.113281 69.796875 634.171875 C 70.117188 635.230469 70.488281 636.269531 70.910156 637.289062 C 71.335938 638.3125 71.808594 639.308594 72.328125 640.285156 C 72.851562 641.257812 73.417969 642.207031 74.03125 643.125 C 74.644531 644.042969 75.300781 644.929688 76.003906 645.785156 C 76.707031 646.640625 77.449219 647.457031 78.226562 648.238281 C 79.007812 649.019531 79.828125 649.761719 80.679688 650.464844 C 81.535156 651.164062 82.421875 651.824219 83.339844 652.4375 C 84.261719 653.050781 85.210938 653.617188 86.183594 654.140625 C 87.15625 654.660156 88.15625 655.132812 89.175781 655.554688 C 90.195312 655.976562 91.238281 656.351562 92.296875 656.671875 C 93.351562 656.992188 94.421875 657.261719 95.507812 657.476562 C 96.59375 657.691406 97.6875 657.855469 98.785156 657.960938 C 99.886719 658.070312 100.988281 658.125 102.09375 658.125 L 405.84375 658.125 C 406.398438 658.125 406.945312 658.097656 407.496094 658.042969 C 408.046875 657.988281 408.59375 657.910156 409.132812 657.800781 C 409.675781 657.691406 410.210938 657.558594 410.742188 657.398438 C 411.269531 657.238281 411.789062 657.050781 412.300781 656.839844 C 412.8125 656.628906 413.308594 656.394531 413.796875 656.132812 C 414.285156 655.871094 414.757812 655.585938 415.21875 655.28125 C 415.675781 654.972656 416.121094 654.644531 416.546875 654.292969 C 416.976562 653.945312 417.386719 653.574219 417.777344 653.179688 C 418.164062 652.789062 418.535156 652.382812 418.886719 651.953125 C 419.238281 651.527344 419.566406 651.082031 419.875 650.625 C 420.183594 650.164062 420.464844 649.691406 420.726562 649.203125 C 420.984375 648.714844 421.21875 648.21875 421.433594 647.707031 C 421.644531 647.195312 421.832031 646.675781 421.992188 646.148438 C 422.152344 645.617188 422.285156 645.085938 422.394531 644.542969 C 422.503906 644 422.582031 643.453125 422.640625 642.902344 C 422.695312 642.355469 422.722656 641.800781 422.71875 641.25 C 422.722656 640.699219 422.695312 640.144531 422.640625 639.597656 C 422.582031 639.046875 422.5 638.5 422.390625 637.957031 C 422.285156 637.414062 422.152344 636.878906 421.992188 636.351562 C 421.832031 635.820312 421.644531 635.300781 421.433594 634.792969 C 421.21875 634.28125 420.984375 633.78125 420.726562 633.292969 C 420.464844 632.808594 420.183594 632.332031 419.875 631.875 C 419.566406 631.414062 419.238281 630.972656 418.890625 630.542969 C 418.539062 630.117188 418.164062 629.707031 417.777344 629.316406 C 417.386719 628.925781 416.976562 628.554688 416.546875 628.207031 C 416.121094 627.855469 415.675781 627.523438 415.21875 627.21875 C 414.757812 626.910156 414.285156 626.628906 413.796875 626.367188 C 413.308594 626.105469 412.8125 625.871094 412.300781 625.660156 C 411.789062 625.449219 411.269531 625.261719 410.742188 625.101562 C 410.210938 624.941406 409.675781 624.804688 409.132812 624.699219 C 408.59375 624.589844 408.046875 624.511719 407.5 624.457031 C 406.949219 624.402344 406.398438 624.375 405.84375 624.375 Z M 473.34375 118.125 L 507.09375 118.125 L 507.09375 151.875 L 473.34375 151.875 Z M 169.59375 118.125 L 203.34375 118.125 L 203.34375 151.875 L 169.59375 151.875 Z M 102.09375 185.625 L 574.59375 185.625 L 574.59375 253.125 L 102.09375 253.125 Z M 102.09375 185.625 " fill-opacity="1" fill-rule="nonzero"/><path fill="#009688" d="M 698.019531 507.9375 L 710.792969 495.164062 C 711.171875 494.769531 711.53125 494.359375 711.867188 493.933594 C 712.207031 493.503906 712.527344 493.058594 712.824219 492.601562 C 713.117188 492.140625 713.390625 491.671875 713.640625 491.183594 C 713.890625 490.699219 714.117188 490.203125 714.316406 489.695312 C 714.519531 489.1875 714.695312 488.671875 714.851562 488.148438 C 715.003906 487.621094 715.128906 487.09375 715.226562 486.554688 C 715.328125 486.019531 715.402344 485.476562 715.449219 484.933594 C 715.5 484.390625 715.523438 483.84375 715.515625 483.296875 C 715.511719 482.75 715.480469 482.207031 715.421875 481.664062 C 715.363281 481.121094 715.28125 480.582031 715.171875 480.046875 C 715.0625 479.511719 714.925781 478.984375 714.761719 478.460938 C 714.601562 477.941406 714.414062 477.429688 714.203125 476.925781 C 713.992188 476.421875 713.753906 475.929688 713.5 475.449219 C 713.242188 474.96875 712.957031 474.5 712.652344 474.046875 C 712.347656 473.59375 712.023438 473.15625 711.675781 472.734375 C 711.328125 472.3125 710.960938 471.90625 710.574219 471.523438 C 710.191406 471.136719 709.785156 470.769531 709.363281 470.421875 C 708.941406 470.074219 708.503906 469.75 708.050781 469.445312 C 707.597656 469.140625 707.128906 468.859375 706.648438 468.597656 C 706.167969 468.339844 705.675781 468.105469 705.171875 467.894531 C 704.667969 467.683594 704.15625 467.496094 703.636719 467.335938 C 703.113281 467.171875 702.585938 467.035156 702.050781 466.925781 C 701.515625 466.816406 700.976562 466.730469 700.433594 466.671875 C 699.890625 466.617188 699.34375 466.585938 698.796875 466.578125 C 698.253906 466.574219 697.707031 466.597656 697.164062 466.644531 C 696.617188 466.691406 696.078125 466.765625 695.542969 466.867188 C 695.007812 466.964844 694.472656 467.09375 693.949219 467.246094 C 693.425781 467.394531 692.90625 467.574219 692.398438 467.773438 C 691.890625 467.976562 691.394531 468.203125 690.910156 468.453125 C 690.425781 468.703125 689.953125 468.976562 689.492188 469.273438 C 689.035156 469.570312 688.59375 469.886719 688.164062 470.226562 C 687.738281 470.5625 687.324219 470.921875 686.929688 471.300781 L 674.15625 484.078125 C 666.910156 478.441406 659.164062 473.597656 650.921875 469.550781 C 642.683594 465.503906 634.113281 462.335938 625.21875 460.046875 L 625.21875 455.625 C 625.21875 454.519531 625.167969 453.417969 625.058594 452.316406 C 624.949219 451.214844 624.785156 450.125 624.570312 449.039062 C 624.351562 447.957031 624.085938 446.886719 623.765625 445.828125 C 623.445312 444.769531 623.070312 443.730469 622.648438 442.707031 C 622.226562 441.6875 621.753906 440.691406 621.234375 439.714844 C 620.710938 438.738281 620.144531 437.792969 619.53125 436.875 C 618.917969 435.953125 618.257812 435.070312 617.558594 434.214844 C 616.855469 433.359375 616.113281 432.542969 615.332031 431.757812 C 614.554688 430.976562 613.734375 430.234375 612.878906 429.535156 C 612.027344 428.835938 611.140625 428.175781 610.21875 427.5625 C 609.300781 426.949219 608.355469 426.382812 607.378906 425.859375 C 606.40625 425.339844 605.40625 424.867188 604.386719 424.441406 C 603.367188 424.019531 602.324219 423.648438 601.265625 423.328125 C 600.210938 423.007812 599.140625 422.738281 598.054688 422.523438 C 596.96875 422.308594 595.875 422.144531 594.777344 422.039062 C 593.675781 421.929688 592.574219 421.875 591.46875 421.875 C 590.367188 421.875 589.261719 421.929688 588.164062 422.039062 C 587.0625 422.144531 585.96875 422.308594 584.882812 422.523438 C 583.796875 422.738281 582.726562 423.007812 581.671875 423.328125 C 580.613281 423.648438 579.570312 424.019531 578.550781 424.441406 C 577.53125 424.867188 576.53125 425.339844 575.558594 425.859375 C 574.585938 426.378906 573.636719 426.949219 572.714844 427.5625 C 571.796875 428.175781 570.910156 428.832031 570.054688 429.535156 C 569.203125 430.234375 568.386719 430.976562 567.601562 431.757812 C 566.824219 432.542969 566.082031 433.359375 565.378906 434.214844 C 564.679688 435.070312 564.019531 435.953125 563.40625 436.875 C 562.792969 437.792969 562.226562 438.738281 561.707031 439.714844 C 561.183594 440.691406 560.710938 441.6875 560.289062 442.707031 C 559.867188 443.730469 559.492188 444.769531 559.175781 445.828125 C 558.851562 446.886719 558.585938 447.957031 558.367188 449.039062 C 558.152344 450.125 557.992188 451.214844 557.882812 452.316406 C 557.773438 453.417969 557.722656 454.519531 557.71875 455.625 L 557.71875 460.046875 C 555.394531 460.644531 553.085938 461.308594 550.796875 462.03125 C 548.507812 462.75 546.238281 463.535156 543.992188 464.378906 C 541.742188 465.222656 539.519531 466.125 537.320312 467.085938 C 535.121094 468.046875 532.945312 469.070312 530.800781 470.144531 C 528.65625 471.226562 526.542969 472.359375 524.457031 473.550781 C 522.371094 474.742188 520.320312 475.988281 518.300781 477.285156 C 516.285156 478.585938 514.304688 479.941406 512.359375 481.347656 C 510.410156 482.753906 508.5 484.210938 506.632812 485.714844 C 504.765625 487.222656 502.941406 488.78125 501.152344 490.386719 C 499.367188 491.992188 497.628906 493.644531 495.929688 495.339844 C 494.230469 497.039062 492.582031 498.78125 490.976562 500.570312 C 489.375 502.355469 487.820312 504.183594 486.308594 506.050781 C 484.804688 507.921875 483.347656 509.828125 481.941406 511.777344 C 480.539062 513.722656 479.1875 515.707031 477.886719 517.722656 C 476.589844 519.742188 475.34375 521.796875 474.15625 523.882812 C 472.964844 525.964844 471.832031 528.082031 470.753906 530.226562 C 469.679688 532.375 468.660156 534.546875 467.699219 536.746094 C 466.742188 538.949219 465.839844 541.171875 464.996094 543.421875 C 464.152344 545.667969 463.371094 547.9375 462.652344 550.226562 C 461.929688 552.519531 461.269531 554.824219 460.667969 557.152344 C 460.074219 559.476562 459.535156 561.816406 459.0625 564.167969 C 458.589844 566.523438 458.179688 568.886719 457.832031 571.261719 C 457.488281 573.640625 457.203125 576.023438 456.984375 578.414062 C 456.765625 580.804688 456.609375 583.199219 456.515625 585.597656 C 456.421875 587.996094 456.394531 590.398438 456.429688 592.796875 C 456.46875 595.199219 456.570312 597.597656 456.734375 599.992188 C 456.898438 602.386719 457.125 604.777344 457.417969 607.160156 C 457.707031 609.542969 458.0625 611.917969 458.480469 614.28125 C 458.898438 616.644531 459.378906 618.996094 459.925781 621.335938 C 460.464844 623.671875 461.070312 625.996094 461.738281 628.300781 C 462.410156 630.609375 463.136719 632.894531 463.925781 635.164062 C 464.714844 637.429688 465.5625 639.675781 466.472656 641.898438 C 467.382812 644.117188 468.347656 646.316406 469.378906 648.484375 C 470.402344 650.65625 471.488281 652.796875 472.628906 654.910156 C 473.769531 657.023438 474.964844 659.105469 476.214844 661.152344 C 477.464844 663.203125 478.773438 665.214844 480.128906 667.195312 C 481.488281 669.175781 482.902344 671.117188 484.363281 673.019531 C 485.828125 674.921875 487.339844 676.785156 488.902344 678.609375 C 490.460938 680.433594 492.070312 682.214844 493.730469 683.949219 C 495.386719 685.6875 497.089844 687.378906 498.835938 689.027344 C 500.585938 690.671875 502.375 692.273438 504.207031 693.824219 C 506.039062 695.375 507.914062 696.875 509.824219 698.324219 C 511.738281 699.777344 513.6875 701.175781 515.675781 702.523438 C 517.660156 703.871094 519.683594 705.164062 521.738281 706.402344 C 523.796875 707.640625 525.882812 708.824219 528.003906 709.953125 C 530.121094 711.082031 532.269531 712.152344 534.445312 713.164062 C 536.625 714.175781 538.824219 715.132812 541.054688 716.027344 C 543.28125 716.921875 545.53125 717.757812 547.804688 718.535156 C 550.078125 719.308594 552.371094 720.023438 554.679688 720.679688 C 556.992188 721.332031 559.316406 721.921875 561.65625 722.453125 C 564 722.980469 566.351562 723.449219 568.71875 723.851562 C 571.085938 724.253906 573.460938 724.59375 575.847656 724.871094 C 578.234375 725.148438 580.621094 725.363281 583.015625 725.511719 C 585.414062 725.660156 587.8125 725.746094 590.214844 725.765625 C 592.613281 725.789062 595.015625 725.746094 597.414062 725.640625 C 599.8125 725.53125 602.207031 725.363281 604.59375 725.128906 C 606.984375 724.894531 609.367188 724.59375 611.738281 724.234375 C 614.113281 723.871094 616.476562 723.449219 618.828125 722.960938 C 621.179688 722.472656 623.515625 721.925781 625.835938 721.3125 C 628.15625 720.699219 630.460938 720.027344 632.746094 719.292969 C 635.027344 718.554688 637.296875 717.761719 639.542969 716.90625 C 641.785156 716.050781 644.003906 715.136719 646.199219 714.160156 C 648.390625 713.1875 650.558594 712.152344 652.695312 711.0625 C 654.835938 709.972656 656.945312 708.828125 659.023438 707.625 C 661.101562 706.421875 663.148438 705.167969 665.15625 703.855469 C 667.171875 702.542969 669.144531 701.179688 671.082031 699.761719 C 673.023438 698.347656 674.921875 696.878906 676.78125 695.359375 C 678.640625 693.84375 680.457031 692.277344 682.234375 690.660156 C 684.011719 689.046875 685.746094 687.382812 687.429688 685.675781 C 689.117188 683.96875 690.761719 682.21875 692.351562 680.421875 C 693.949219 678.628906 695.496094 676.792969 696.988281 674.914062 C 698.488281 673.035156 699.929688 671.121094 701.324219 669.164062 C 702.71875 667.210938 704.058594 665.222656 705.347656 663.195312 C 706.632812 661.167969 707.867188 659.109375 709.046875 657.015625 C 710.226562 654.925781 711.347656 652.804688 712.414062 650.652344 C 713.476562 648.5 714.484375 646.320312 715.433594 644.117188 C 716.382812 641.910156 717.273438 639.679688 718.101562 637.429688 C 718.933594 635.175781 719.699219 632.902344 720.410156 630.605469 C 721.121094 628.3125 721.765625 626 722.351562 623.671875 C 722.933594 621.34375 723.457031 619.003906 723.914062 616.644531 C 724.375 614.289062 724.773438 611.921875 725.105469 609.546875 C 725.441406 607.167969 725.710938 604.785156 725.917969 602.390625 C 726.125 600 726.269531 597.601562 726.347656 595.203125 C 726.425781 592.804688 726.4375 590.402344 726.390625 588.003906 C 726.34375 585.601562 726.230469 583.207031 726.050781 580.8125 C 725.875 578.417969 725.632812 576.03125 725.328125 573.648438 C 725.023438 571.265625 724.65625 568.894531 724.226562 566.53125 C 723.796875 564.171875 723.300781 561.824219 722.742188 559.488281 C 722.1875 557.152344 721.570312 554.832031 720.890625 552.53125 C 720.210938 550.226562 719.46875 547.945312 718.667969 545.679688 C 717.863281 543.417969 717.003906 541.179688 716.082031 538.960938 C 715.160156 536.746094 714.179688 534.554688 713.140625 532.386719 C 712.101562 530.222656 711.007812 528.089844 709.855469 525.980469 C 708.703125 523.875 707.492188 521.800781 706.230469 519.757812 C 704.96875 517.71875 703.652344 515.710938 702.28125 513.738281 C 700.914062 511.765625 699.492188 509.832031 698.019531 507.9375 Z M 658.96875 607.5 L 591.46875 607.5 C 590.917969 607.5 590.367188 607.472656 589.816406 607.417969 C 589.265625 607.363281 588.71875 607.28125 588.175781 607.175781 C 587.632812 607.066406 587.097656 606.933594 586.570312 606.773438 C 586.039062 606.613281 585.519531 606.425781 585.007812 606.214844 C 584.5 606.003906 584 605.769531 583.511719 605.507812 C 583.023438 605.246094 582.550781 604.960938 582.089844 604.65625 C 581.632812 604.347656 581.1875 604.019531 580.761719 603.667969 C 580.335938 603.320312 579.925781 602.949219 579.535156 602.558594 C 579.148438 602.167969 578.777344 601.757812 578.425781 601.328125 C 578.074219 600.902344 577.746094 600.460938 577.4375 600 C 577.128906 599.539062 576.847656 599.066406 576.585938 598.578125 C 576.324219 598.089844 576.089844 597.59375 575.878906 597.082031 C 575.664062 596.570312 575.480469 596.050781 575.320312 595.523438 C 575.160156 594.996094 575.023438 594.460938 574.914062 593.917969 C 574.8125 593.375 574.730469 592.828125 574.675781 592.277344 C 574.625 591.730469 574.597656 591.175781 574.59375 590.625 L 574.59375 523.125 C 574.597656 522.574219 574.625 522.019531 574.675781 521.472656 C 574.730469 520.921875 574.8125 520.375 574.914062 519.832031 C 575.023438 519.289062 575.160156 518.753906 575.320312 518.226562 C 575.476562 517.699219 575.664062 517.175781 575.875 516.667969 C 576.089844 516.15625 576.324219 515.65625 576.585938 515.171875 C 576.847656 514.683594 577.128906 514.210938 577.4375 513.75 C 577.746094 513.289062 578.074219 512.847656 578.425781 512.417969 C 578.777344 511.992188 579.148438 511.582031 579.535156 511.191406 C 579.925781 510.800781 580.335938 510.429688 580.761719 510.082031 C 581.1875 509.730469 581.632812 509.402344 582.089844 509.09375 C 582.550781 508.785156 583.023438 508.503906 583.511719 508.242188 C 584 507.980469 584.5 507.746094 585.007812 507.535156 C 585.519531 507.324219 586.042969 507.136719 586.570312 506.976562 C 587.101562 506.816406 587.632812 506.683594 588.175781 506.574219 C 588.71875 506.46875 589.265625 506.386719 589.816406 506.332031 C 590.367188 506.277344 590.917969 506.25 591.46875 506.25 C 592.023438 506.25 592.574219 506.277344 593.125 506.332031 C 593.671875 506.386719 594.21875 506.46875 594.761719 506.574219 C 595.304688 506.683594 595.839844 506.816406 596.367188 506.976562 C 596.898438 507.136719 597.417969 507.324219 597.925781 507.535156 C 598.4375 507.746094 598.9375 507.980469 599.425781 508.242188 C 599.914062 508.503906 600.386719 508.785156 600.84375 509.09375 C 601.304688 509.402344 601.75 509.730469 602.175781 510.082031 C 602.601562 510.429688 603.011719 510.800781 603.402344 511.191406 C 603.792969 511.582031 604.164062 511.992188 604.511719 512.421875 C 604.859375 512.847656 605.1875 513.289062 605.496094 513.75 C 605.800781 514.210938 606.085938 514.683594 606.347656 515.171875 C 606.609375 515.65625 606.84375 516.15625 607.058594 516.667969 C 607.269531 517.175781 607.453125 517.695312 607.617188 518.226562 C 607.777344 518.753906 607.910156 519.289062 608.019531 519.832031 C 608.128906 520.375 608.210938 520.921875 608.265625 521.472656 C 608.316406 522.019531 608.34375 522.574219 608.34375 523.125 L 608.34375 573.75 L 658.96875 573.75 C 659.523438 573.75 660.070312 573.777344 660.621094 573.832031 C 661.171875 573.886719 661.71875 573.964844 662.257812 574.074219 C 662.800781 574.179688 663.335938 574.316406 663.867188 574.476562 C 664.394531 574.636719 664.914062 574.820312 665.421875 575.035156 C 665.9375 575.246094 666.433594 575.480469 666.921875 575.742188 C 667.410156 576.003906 667.882812 576.285156 668.34375 576.59375 C 668.800781 576.902344 669.246094 577.230469 669.671875 577.578125 C 670.101562 577.929688 670.511719 578.300781 670.902344 578.691406 C 671.292969 579.082031 671.664062 579.492188 672.015625 579.917969 C 672.367188 580.347656 672.691406 580.789062 673 581.25 C 673.308594 581.710938 673.589844 582.183594 673.851562 582.671875 C 674.113281 583.15625 674.347656 583.65625 674.558594 584.167969 C 674.769531 584.675781 674.957031 585.199219 675.121094 585.726562 C 675.28125 586.253906 675.414062 586.789062 675.519531 587.332031 C 675.628906 587.875 675.710938 588.421875 675.765625 588.972656 C 675.820312 589.519531 675.847656 590.074219 675.84375 590.625 C 675.847656 591.175781 675.820312 591.730469 675.765625 592.277344 C 675.710938 592.828125 675.628906 593.375 675.519531 593.917969 C 675.414062 594.460938 675.28125 594.996094 675.121094 595.523438 C 674.957031 596.050781 674.769531 596.570312 674.558594 597.082031 C 674.347656 597.59375 674.113281 598.089844 673.851562 598.578125 C 673.589844 599.066406 673.308594 599.539062 673 600 C 672.691406 600.460938 672.367188 600.902344 672.015625 601.328125 C 671.664062 601.757812 671.292969 602.167969 670.902344 602.558594 C 670.511719 602.949219 670.101562 603.320312 669.671875 603.667969 C 669.246094 604.019531 668.800781 604.347656 668.34375 604.65625 C 667.882812 604.960938 667.410156 605.246094 666.921875 605.507812 C 666.433594 605.769531 665.9375 606.003906 665.421875 606.214844 C 664.914062 606.425781 664.394531 606.613281 663.867188 606.773438 C 663.335938 606.933594 662.800781 607.066406 662.257812 607.175781 C 661.71875 607.28125 661.171875 607.363281 660.625 607.417969 C 660.074219 607.472656 659.523438 607.5 658.96875 607.5 Z M 658.96875 607.5 " fill-opacity="1" fill-rule="nonzero"/></svg>