<svg xmlns="http://www.w3.org/2000/svg" xmlns:xlink="http://www.w3.org/1999/xlink" width="1080" zoomAndPan="magnify" viewBox="0 0 810 809.999993" height="1080" preserveAspectRatio="xMidYMid meet" version="1.0"><path fill="#009688" d="M 590.625 371.25 C 588.238281 371.246094 585.851562 371.316406 583.464844 371.457031 C 581.082031 371.597656 578.707031 371.8125 576.332031 372.097656 C 573.960938 372.382812 571.601562 372.738281 569.253906 373.167969 C 566.902344 373.597656 564.566406 374.097656 562.25 374.667969 C 559.929688 375.238281 557.628906 375.882812 555.351562 376.59375 C 553.070312 377.300781 550.8125 378.082031 548.578125 378.929688 C 546.347656 379.777344 544.140625 380.691406 541.964844 381.675781 C 539.789062 382.65625 537.644531 383.703125 535.527344 384.816406 C 533.414062 385.925781 531.335938 387.101562 529.296875 388.339844 C 527.253906 389.578125 525.25 390.878906 523.285156 392.238281 C 521.324219 393.597656 519.402344 395.015625 517.523438 396.492188 C 515.648438 397.96875 513.816406 399.503906 512.03125 401.089844 C 510.25 402.679688 508.515625 404.320312 506.828125 406.011719 C 505.144531 407.707031 503.511719 409.449219 501.933594 411.238281 C 500.355469 413.03125 498.832031 414.871094 497.367188 416.757812 C 495.898438 418.640625 494.492188 420.570312 493.144531 422.539062 C 491.792969 424.507812 490.503906 426.519531 489.277344 428.566406 C 488.046875 430.617188 486.882812 432.699219 485.78125 434.820312 C 484.679688 436.941406 483.644531 439.089844 482.675781 441.273438 C 481.707031 443.453125 480.800781 445.664062 479.964844 447.902344 C 479.128906 450.140625 478.363281 452.398438 477.664062 454.683594 C 476.964844 456.96875 476.335938 459.269531 475.773438 461.59375 C 475.21875 463.914062 474.730469 466.25 474.3125 468.605469 C 473.898438 470.957031 473.550781 473.316406 473.277344 475.691406 C 473.003906 478.0625 472.804688 480.441406 472.675781 482.828125 C 472.546875 485.210938 472.488281 487.597656 472.503906 489.984375 C 472.523438 492.375 472.609375 494.761719 472.769531 497.144531 C 472.929688 499.527344 473.164062 501.902344 473.46875 504.269531 C 473.777344 506.640625 474.152344 508.996094 474.601562 511.34375 C 475.050781 513.6875 475.570312 516.019531 476.160156 518.332031 C 476.75 520.648438 477.410156 522.941406 478.140625 525.21875 C 478.871094 527.492188 479.667969 529.742188 480.53125 531.96875 L 376.195312 636.304688 C 374.613281 637.886719 373.390625 639.710938 372.535156 641.777344 C 371.679688 643.847656 371.25 646 371.25 648.234375 L 371.25 691.875 C 371.25 692.425781 371.277344 692.980469 371.332031 693.527344 C 371.386719 694.078125 371.464844 694.625 371.574219 695.167969 C 371.679688 695.707031 371.816406 696.242188 371.976562 696.773438 C 372.136719 697.300781 372.320312 697.820312 372.53125 698.332031 C 372.746094 698.84375 372.980469 699.339844 373.242188 699.828125 C 373.5 700.316406 373.785156 700.789062 374.089844 701.25 C 374.398438 701.710938 374.730469 702.152344 375.082031 702.578125 C 375.429688 703.007812 375.800781 703.417969 376.191406 703.804688 C 376.582031 704.199219 376.992188 704.570312 377.421875 704.917969 C 377.847656 705.269531 378.289062 705.597656 378.75 705.90625 C 379.207031 706.210938 379.683594 706.496094 380.167969 706.757812 C 380.65625 707.019531 381.15625 707.253906 381.664062 707.464844 C 382.175781 707.675781 382.695312 707.863281 383.226562 708.023438 C 383.753906 708.183594 384.289062 708.316406 384.832031 708.425781 C 385.375 708.53125 385.921875 708.613281 386.472656 708.667969 C 387.023438 708.722656 387.574219 708.75 388.125 708.75 L 421.875 708.75 C 422.429688 708.75 422.980469 708.722656 423.527344 708.667969 C 424.078125 708.613281 424.625 708.53125 425.164062 708.425781 C 425.707031 708.316406 426.242188 708.183594 426.773438 708.023438 C 427.300781 707.863281 427.820312 707.675781 428.332031 707.464844 C 428.839844 707.253906 429.339844 707.015625 429.828125 706.757812 C 430.316406 706.496094 430.789062 706.210938 431.246094 705.90625 C 431.707031 705.597656 432.152344 705.269531 432.578125 704.917969 C 433.007812 704.570312 433.414062 704.199219 433.804688 703.804688 C 434.199219 703.417969 434.566406 703.007812 434.917969 702.578125 C 435.269531 702.152344 435.597656 701.710938 435.902344 701.25 C 436.210938 700.789062 436.496094 700.316406 436.757812 699.828125 C 437.019531 699.339844 437.253906 698.84375 437.464844 698.332031 C 437.675781 697.820312 437.863281 697.300781 438.023438 696.773438 C 438.183594 696.242188 438.316406 695.707031 438.425781 695.167969 C 438.53125 694.625 438.613281 694.078125 438.667969 693.527344 C 438.722656 692.980469 438.75 692.425781 438.75 691.875 L 438.75 675 L 472.5 675 C 473.054688 675 473.605469 674.972656 474.152344 674.917969 C 474.703125 674.863281 475.25 674.78125 475.789062 674.675781 C 476.332031 674.566406 476.867188 674.433594 477.394531 674.273438 C 477.925781 674.113281 478.445312 673.925781 478.953125 673.714844 C 479.464844 673.503906 479.964844 673.265625 480.453125 673.007812 C 480.941406 672.746094 481.414062 672.460938 481.871094 672.15625 C 482.332031 671.847656 482.777344 671.519531 483.207031 671.167969 C 483.632812 670.820312 484.039062 670.449219 484.429688 670.054688 C 484.824219 669.667969 485.191406 669.257812 485.542969 668.828125 C 485.894531 668.402344 486.222656 667.960938 486.527344 667.5 C 486.835938 667.039062 487.121094 666.566406 487.382812 666.078125 C 487.644531 665.589844 487.878906 665.09375 488.089844 664.582031 C 488.300781 664.070312 488.488281 663.550781 488.648438 663.023438 C 488.808594 662.496094 488.941406 661.957031 489.050781 661.417969 C 489.15625 660.875 489.238281 660.328125 489.292969 659.78125 C 489.347656 659.230469 489.375 658.679688 489.375 658.125 L 489.375 641.25 L 523.125 641.25 C 523.679688 641.25 524.230469 641.222656 524.777344 641.167969 C 525.328125 641.113281 525.875 641.03125 526.414062 640.925781 C 526.957031 640.816406 527.492188 640.683594 528.023438 640.523438 C 528.550781 640.363281 529.070312 640.175781 529.582031 639.964844 C 530.089844 639.753906 530.589844 639.515625 531.078125 639.257812 C 531.566406 638.996094 532.039062 638.710938 532.5 638.40625 C 532.960938 638.097656 533.402344 637.769531 533.828125 637.417969 C 534.257812 637.070312 534.664062 636.699219 535.054688 636.304688 C 535.449219 635.917969 535.820312 635.507812 536.167969 635.078125 C 536.519531 634.652344 536.847656 634.210938 537.152344 633.75 C 537.460938 633.289062 537.746094 632.816406 538.007812 632.328125 C 538.269531 631.84375 538.503906 631.34375 538.714844 630.832031 C 538.925781 630.320312 539.113281 629.800781 539.273438 629.273438 C 539.433594 628.746094 539.570312 628.210938 539.675781 627.667969 C 539.785156 627.125 539.863281 626.578125 539.917969 626.027344 C 539.972656 625.480469 540 624.925781 540 624.375 L 540 595.972656 C 541.992188 596.925781 544.011719 597.820312 546.054688 598.660156 C 548.097656 599.5 550.164062 600.277344 552.25 601 C 554.339844 601.722656 556.445312 602.386719 558.566406 602.992188 C 560.691406 603.597656 562.832031 604.140625 564.988281 604.625 C 567.144531 605.109375 569.3125 605.53125 571.488281 605.894531 C 573.667969 606.257812 575.855469 606.558594 578.050781 606.800781 C 580.246094 607.042969 582.449219 607.21875 584.652344 607.335938 C 586.859375 607.453125 589.066406 607.507812 591.273438 607.5 C 593.484375 607.492188 595.691406 607.425781 597.894531 607.292969 C 600.101562 607.164062 602.300781 606.96875 604.492188 606.714844 C 606.6875 606.460938 608.871094 606.144531 611.046875 605.769531 C 613.226562 605.390625 615.390625 604.953125 617.542969 604.457031 C 619.695312 603.957031 621.828125 603.398438 623.949219 602.78125 C 626.070312 602.164062 628.171875 601.484375 630.253906 600.75 C 632.335938 600.015625 634.398438 599.21875 636.4375 598.367188 C 638.476562 597.515625 640.488281 596.609375 642.476562 595.644531 C 644.460938 594.679688 646.421875 593.660156 648.351562 592.585938 C 650.28125 591.511719 652.179688 590.382812 654.046875 589.203125 C 655.914062 588.023438 657.746094 586.789062 659.542969 585.507812 C 661.339844 584.222656 663.101562 582.890625 664.820312 581.507812 C 666.542969 580.125 668.226562 578.695312 669.871094 577.21875 C 671.511719 575.742188 673.113281 574.21875 674.671875 572.652344 C 676.230469 571.085938 677.742188 569.480469 679.207031 567.828125 C 680.675781 566.175781 682.09375 564.484375 683.464844 562.753906 C 684.839844 561.023438 686.160156 559.253906 687.433594 557.449219 C 688.707031 555.644531 689.925781 553.804688 691.097656 551.929688 C 692.265625 550.054688 693.382812 548.152344 694.445312 546.214844 C 695.507812 544.277344 696.515625 542.3125 697.464844 540.320312 C 698.417969 538.328125 699.316406 536.308594 700.15625 534.265625 C 700.996094 532.222656 701.777344 530.15625 702.5 528.070312 C 703.226562 525.984375 703.890625 523.878906 704.496094 521.753906 C 705.101562 519.628906 705.648438 517.492188 706.132812 515.335938 C 706.617188 513.179688 707.042969 511.015625 707.40625 508.835938 C 707.769531 506.65625 708.074219 504.46875 708.3125 502.273438 C 708.554688 500.078125 708.734375 497.878906 708.851562 495.671875 C 708.96875 493.46875 709.023438 491.257812 709.019531 489.050781 C 709.011719 486.839844 708.945312 484.636719 708.816406 482.429688 C 708.683594 480.226562 708.492188 478.023438 708.238281 475.832031 C 707.988281 473.636719 707.671875 471.453125 707.296875 469.273438 C 706.921875 467.097656 706.484375 464.933594 705.988281 462.78125 C 705.488281 460.628906 704.933594 458.492188 704.316406 456.371094 C 703.699219 454.25 703.023438 452.148438 702.285156 450.066406 C 701.550781 447.984375 700.757812 445.921875 699.90625 443.882812 C 699.058594 441.84375 698.148438 439.832031 697.183594 437.84375 C 696.222656 435.855469 695.203125 433.898438 694.128906 431.96875 C 693.058594 430.035156 691.929688 428.136719 690.75 426.269531 C 689.570312 424.40625 688.339844 422.570312 687.054688 420.773438 C 685.773438 418.976562 684.441406 417.214844 683.058594 415.492188 C 681.679688 413.769531 680.25 412.085938 678.773438 410.441406 C 677.296875 408.796875 675.777344 407.195312 674.210938 405.636719 C 672.644531 404.082031 671.035156 402.566406 669.386719 401.101562 C 667.734375 399.632812 666.042969 398.210938 664.3125 396.839844 C 662.582031 395.464844 660.816406 394.144531 659.011719 392.871094 C 657.207031 391.597656 655.367188 390.375 653.496094 389.203125 C 651.621094 388.03125 649.71875 386.914062 647.78125 385.851562 C 645.847656 384.789062 643.882812 383.78125 641.890625 382.824219 C 639.898438 381.871094 637.878906 380.976562 635.835938 380.132812 C 633.792969 379.292969 631.730469 378.511719 629.640625 377.785156 C 627.554688 377.0625 625.453125 376.398438 623.328125 375.789062 C 621.203125 375.183594 619.0625 374.636719 616.910156 374.152344 C 614.753906 373.664062 612.589844 373.238281 610.410156 372.875 C 608.230469 372.507812 606.042969 372.203125 603.847656 371.960938 C 601.652344 371.71875 599.453125 371.539062 597.246094 371.421875 C 595.039062 371.300781 592.832031 371.246094 590.625 371.25 Z M 590.625 573.75 C 589.242188 573.75 587.863281 573.714844 586.484375 573.648438 C 585.105469 573.582031 583.730469 573.480469 582.355469 573.34375 C 580.980469 573.207031 579.609375 573.039062 578.242188 572.835938 C 576.878906 572.632812 575.515625 572.398438 574.164062 572.128906 C 572.808594 571.859375 571.460938 571.558594 570.121094 571.222656 C 568.785156 570.886719 567.453125 570.515625 566.132812 570.117188 C 564.8125 569.714844 563.5 569.28125 562.199219 568.816406 C 560.898438 568.351562 559.609375 567.855469 558.335938 567.328125 C 557.058594 566.796875 555.796875 566.238281 554.546875 565.648438 C 553.300781 565.058594 552.066406 564.4375 550.847656 563.789062 C 549.632812 563.136719 548.429688 562.457031 547.246094 561.746094 C 546.0625 561.035156 544.894531 560.296875 543.746094 559.53125 C 542.597656 558.761719 541.472656 557.96875 540.363281 557.144531 C 539.253906 556.320312 538.164062 555.472656 537.097656 554.597656 C 536.03125 553.722656 534.984375 552.820312 533.960938 551.890625 C 532.9375 550.964844 531.9375 550.011719 530.960938 549.035156 C 529.984375 548.058594 529.03125 547.058594 528.105469 546.035156 C 527.179688 545.015625 526.277344 543.96875 525.402344 542.902344 C 524.523438 541.832031 523.675781 540.746094 522.851562 539.636719 C 522.03125 538.527344 521.234375 537.398438 520.46875 536.25 C 519.699219 535.101562 518.960938 533.9375 518.253906 532.75 C 517.542969 531.566406 516.863281 530.367188 516.210938 529.148438 C 515.558594 527.929688 514.941406 526.699219 514.351562 525.449219 C 513.757812 524.199219 513.199219 522.9375 512.671875 521.664062 C 512.140625 520.386719 511.644531 519.097656 511.179688 517.800781 C 510.714844 516.5 510.28125 515.1875 509.882812 513.867188 C 509.480469 512.546875 509.109375 511.214844 508.777344 509.875 C 508.441406 508.535156 508.136719 507.191406 507.867188 505.835938 C 507.601562 504.480469 507.363281 503.121094 507.160156 501.753906 C 506.960938 500.390625 506.792969 499.019531 506.65625 497.644531 C 506.519531 496.269531 506.417969 494.894531 506.351562 493.515625 C 506.28125 492.136719 506.25 490.753906 506.25 489.375 C 506.25 487.996094 506.28125 486.613281 506.351562 485.234375 C 506.417969 483.855469 506.519531 482.480469 506.65625 481.105469 C 506.789062 479.730469 506.957031 478.359375 507.160156 476.996094 C 507.363281 475.628906 507.601562 474.269531 507.867188 472.914062 C 508.136719 471.558594 508.441406 470.214844 508.773438 468.875 C 509.109375 467.535156 509.480469 466.203125 509.878906 464.882812 C 510.28125 463.558594 510.714844 462.25 511.179688 460.949219 C 511.644531 459.648438 512.140625 458.359375 512.667969 457.085938 C 513.199219 455.808594 513.757812 454.546875 514.351562 453.300781 C 514.941406 452.050781 515.558594 450.820312 516.210938 449.601562 C 516.863281 448.382812 517.542969 447.179688 518.253906 445.996094 C 518.960938 444.8125 519.699219 443.644531 520.46875 442.5 C 521.234375 441.347656 522.03125 440.222656 522.851562 439.113281 C 523.675781 438.003906 524.523438 436.914062 525.402344 435.847656 C 526.277344 434.78125 527.179688 433.734375 528.105469 432.710938 C 529.03125 431.6875 529.984375 430.6875 530.960938 429.710938 C 531.9375 428.734375 532.9375 427.785156 533.960938 426.859375 C 534.984375 425.929688 536.03125 425.027344 537.097656 424.152344 C 538.164062 423.277344 539.253906 422.425781 540.363281 421.605469 C 541.472656 420.78125 542.597656 419.988281 543.746094 419.21875 C 544.894531 418.453125 546.0625 417.714844 547.246094 417.003906 C 548.429688 416.292969 549.632812 415.613281 550.847656 414.964844 C 552.066406 414.3125 553.300781 413.691406 554.546875 413.101562 C 555.796875 412.511719 557.058594 411.949219 558.335938 411.421875 C 559.609375 410.894531 560.898438 410.398438 562.199219 409.933594 C 563.5 409.46875 564.8125 409.035156 566.132812 408.632812 C 567.453125 408.230469 568.785156 407.863281 570.121094 407.527344 C 571.460938 407.191406 572.808594 406.890625 574.164062 406.621094 C 575.519531 406.351562 576.878906 406.117188 578.246094 405.914062 C 579.613281 405.710938 580.980469 405.542969 582.355469 405.40625 C 583.730469 405.269531 585.105469 405.167969 586.484375 405.101562 C 587.863281 405.035156 589.242188 405 590.625 405 C 592.007812 405 593.386719 405.035156 594.765625 405.101562 C 596.144531 405.171875 597.519531 405.269531 598.894531 405.40625 C 600.269531 405.542969 601.636719 405.710938 603.003906 405.914062 C 604.371094 406.117188 605.730469 406.351562 607.085938 406.621094 C 608.4375 406.890625 609.785156 407.191406 611.125 407.527344 C 612.464844 407.863281 613.796875 408.234375 615.117188 408.632812 C 616.4375 409.035156 617.75 409.46875 619.050781 409.933594 C 620.347656 410.398438 621.636719 410.894531 622.910156 411.421875 C 624.1875 411.949219 625.449219 412.511719 626.695312 413.101562 C 627.945312 413.691406 629.179688 414.3125 630.398438 414.964844 C 631.613281 415.613281 632.816406 416.292969 634 417.003906 C 635.1875 417.714844 636.351562 418.453125 637.5 419.21875 C 638.648438 419.988281 639.777344 420.78125 640.886719 421.605469 C 641.996094 422.425781 643.085938 423.277344 644.152344 424.152344 C 645.21875 425.027344 646.261719 425.929688 647.285156 426.859375 C 648.308594 427.785156 649.308594 428.734375 650.285156 429.710938 C 651.261719 430.6875 652.214844 431.6875 653.140625 432.710938 C 654.070312 433.734375 654.96875 434.78125 655.84375 435.847656 C 656.722656 436.914062 657.570312 438.003906 658.394531 439.113281 C 659.214844 440.222656 660.011719 441.347656 660.777344 442.5 C 661.546875 443.644531 662.28125 444.8125 662.992188 445.996094 C 663.703125 447.179688 664.382812 448.382812 665.035156 449.601562 C 665.683594 450.820312 666.304688 452.050781 666.898438 453.300781 C 667.488281 454.546875 668.046875 455.808594 668.574219 457.085938 C 669.101562 458.359375 669.601562 459.648438 670.066406 460.949219 C 670.53125 462.25 670.964844 463.558594 671.367188 464.882812 C 671.765625 466.203125 672.136719 467.535156 672.46875 468.871094 C 672.804688 470.210938 673.109375 471.558594 673.375 472.914062 C 673.648438 474.269531 673.882812 475.628906 674.085938 476.996094 C 674.289062 478.359375 674.457031 479.730469 674.59375 481.105469 C 674.726562 482.480469 674.828125 483.855469 674.898438 485.234375 C 674.964844 486.613281 675 487.996094 675 489.375 C 675 490.753906 674.960938 492.132812 674.894531 493.511719 C 674.824219 494.890625 674.722656 496.265625 674.582031 497.640625 C 674.445312 499.015625 674.277344 500.382812 674.074219 501.75 C 673.871094 503.113281 673.632812 504.472656 673.363281 505.828125 C 673.089844 507.183594 672.785156 508.527344 672.449219 509.867188 C 672.113281 511.207031 671.746094 512.535156 671.34375 513.855469 C 670.941406 515.175781 670.507812 516.488281 670.042969 517.785156 C 669.578125 519.085938 669.078125 520.371094 668.550781 521.648438 C 668.019531 522.921875 667.460938 524.183594 666.871094 525.429688 C 666.28125 526.679688 665.65625 527.910156 665.007812 529.128906 C 664.355469 530.34375 663.675781 531.546875 662.964844 532.730469 C 662.257812 533.914062 661.515625 535.078125 660.75 536.226562 C 659.980469 537.375 659.1875 538.503906 658.363281 539.609375 C 657.539062 540.71875 656.691406 541.808594 655.816406 542.875 C 654.9375 543.941406 654.039062 544.984375 653.113281 546.007812 C 652.183594 547.03125 651.234375 548.03125 650.257812 549.007812 C 649.28125 549.984375 648.28125 550.933594 647.257812 551.863281 C 646.234375 552.789062 645.191406 553.691406 644.125 554.566406 C 643.058594 555.441406 641.96875 556.292969 640.859375 557.113281 C 639.753906 557.9375 638.625 558.730469 637.476562 559.5 C 636.332031 560.265625 635.164062 561.003906 633.980469 561.714844 C 632.796875 562.425781 631.597656 563.105469 630.378906 563.757812 C 629.164062 564.40625 627.929688 565.03125 626.683594 565.621094 C 625.433594 566.210938 624.171875 566.773438 622.898438 567.300781 C 621.625 567.828125 620.335938 568.328125 619.035156 568.792969 C 617.738281 569.257812 616.425781 569.691406 615.105469 570.09375 C 613.785156 570.496094 612.457031 570.863281 611.117188 571.199219 C 609.777344 571.539062 608.429688 571.839844 607.078125 572.113281 C 605.722656 572.382812 604.363281 572.621094 603 572.824219 C 601.632812 573.027344 600.265625 573.199219 598.890625 573.332031 C 597.515625 573.46875 596.144531 573.574219 594.761719 573.644531 C 593.386719 573.710938 592.007812 573.746094 590.625 573.75 Z M 590.625 573.75 " fill-opacity="1" fill-rule="nonzero"/><path fill="#009688" d="M 388.125 556.875 C 388.125 556.324219 388.097656 555.769531 388.042969 555.21875 C 387.988281 554.671875 387.90625 554.125 387.800781 553.582031 C 387.691406 553.039062 387.558594 552.503906 387.398438 551.976562 C 387.234375 551.445312 387.050781 550.925781 386.835938 550.414062 C 386.625 549.90625 386.390625 549.40625 386.132812 548.917969 C 385.871094 548.429688 385.585938 547.957031 385.277344 547.5 C 384.972656 547.039062 384.644531 546.59375 384.292969 546.167969 C 383.941406 545.742188 383.570312 545.332031 383.179688 544.941406 C 382.789062 544.550781 382.382812 544.179688 381.953125 543.828125 C 381.527344 543.480469 381.082031 543.148438 380.621094 542.84375 C 380.164062 542.535156 379.691406 542.253906 379.203125 541.992188 C 378.714844 541.730469 378.214844 541.496094 377.707031 541.285156 C 377.195312 541.074219 376.675781 540.886719 376.148438 540.726562 C 375.621094 540.566406 375.082031 540.433594 374.539062 540.324219 C 374 540.214844 373.453125 540.136719 372.902344 540.082031 C 372.355469 540.027344 371.804688 540 371.25 540 L 137.617188 540 C 138.097656 537.640625 138.628906 535.292969 139.210938 532.957031 C 139.792969 530.621094 140.425781 528.296875 141.105469 525.988281 C 141.789062 523.675781 142.519531 521.382812 143.300781 519.105469 C 144.078125 516.828125 144.90625 514.566406 145.785156 512.324219 C 146.660156 510.082031 147.585938 507.859375 148.554688 505.65625 C 149.527344 503.453125 150.546875 501.269531 151.609375 499.109375 C 152.675781 496.949219 153.785156 494.816406 154.941406 492.703125 C 156.097656 490.589844 157.300781 488.503906 158.546875 486.445312 C 159.792969 484.382812 161.082031 482.351562 162.414062 480.34375 C 163.746094 478.339844 165.121094 476.363281 166.539062 474.417969 C 167.957031 472.46875 169.414062 470.554688 170.914062 468.671875 C 172.414062 466.789062 173.953125 464.9375 175.53125 463.117188 C 177.109375 461.300781 178.726562 459.515625 180.382812 457.765625 C 182.035156 456.015625 183.730469 454.304688 185.457031 452.628906 C 187.183594 450.949219 188.949219 449.3125 190.746094 447.710938 C 192.546875 446.109375 194.378906 444.546875 196.242188 443.027344 C 198.109375 441.503906 200.003906 440.019531 201.933594 438.578125 C 203.863281 437.136719 205.820312 435.738281 207.8125 434.378906 C 209.800781 433.023438 211.816406 431.707031 213.859375 430.4375 C 215.90625 429.167969 217.976562 427.9375 220.074219 426.757812 C 222.171875 425.574219 224.292969 424.4375 226.441406 423.34375 C 228.585938 422.253906 230.753906 421.207031 232.945312 420.207031 C 235.132812 419.207031 237.347656 418.257812 239.578125 417.351562 C 241.808594 416.449219 244.058594 415.589844 246.328125 414.785156 C 248.59375 413.976562 250.878906 413.21875 253.183594 412.507812 C 255.480469 411.796875 257.796875 411.136719 260.125 410.523438 C 262.457031 409.914062 264.796875 409.351562 267.148438 408.839844 C 269.503906 408.332031 271.867188 407.871094 274.242188 407.460938 C 276.613281 407.050781 278.992188 406.691406 281.382812 406.382812 C 283.769531 406.078125 286.164062 405.820312 288.5625 405.613281 C 290.960938 405.410156 293.363281 405.253906 295.769531 405.152344 C 298.175781 405.050781 300.582031 405 302.992188 405 C 309.753906 405.011719 316.492188 405.421875 323.207031 406.226562 C 329.921875 407.035156 336.570312 408.230469 343.144531 409.816406 C 349.71875 411.40625 356.175781 413.371094 362.519531 415.71875 C 368.863281 418.066406 375.046875 420.777344 381.070312 423.847656 C 381.699219 424.167969 382.34375 424.445312 383.003906 424.679688 C 383.667969 424.914062 384.339844 425.109375 385.027344 425.257812 C 385.714844 425.40625 386.40625 425.511719 387.109375 425.570312 C 387.808594 425.632812 388.507812 425.648438 389.210938 425.617188 C 389.914062 425.589844 390.613281 425.515625 391.304688 425.398438 C 392 425.28125 392.679688 425.117188 393.351562 424.914062 C 394.027344 424.707031 394.683594 424.460938 395.320312 424.171875 C 395.960938 423.882812 396.578125 423.554688 397.179688 423.183594 C 397.777344 422.816406 398.347656 422.410156 398.894531 421.96875 C 399.441406 421.527344 399.957031 421.054688 400.445312 420.546875 C 400.929688 420.039062 401.382812 419.5 401.796875 418.933594 C 402.214844 418.371094 402.59375 417.78125 402.933594 417.167969 C 403.277344 416.550781 403.578125 415.917969 403.839844 415.265625 C 404.101562 414.613281 404.320312 413.949219 404.496094 413.265625 C 404.671875 412.585938 404.800781 411.898438 404.890625 411.203125 C 404.976562 410.503906 405.019531 409.804688 405.015625 409.101562 C 405.03125 407.625 404.851562 406.171875 404.472656 404.742188 C 404.09375 403.316406 403.535156 401.964844 402.789062 400.6875 C 402.046875 399.410156 401.148438 398.253906 400.097656 397.21875 C 399.042969 396.183594 397.871094 395.308594 396.578125 394.589844 C 388.625 390.246094 380.394531 386.503906 371.890625 383.367188 C 373.527344 382.21875 375.136719 381.027344 376.710938 379.796875 C 378.289062 378.566406 379.832031 377.296875 381.339844 375.984375 C 382.851562 374.675781 384.328125 373.328125 385.773438 371.945312 C 387.214844 370.5625 388.621094 369.140625 389.992188 367.683594 C 391.363281 366.226562 392.695312 364.738281 393.988281 363.210938 C 395.285156 361.6875 396.539062 360.132812 397.753906 358.542969 C 398.96875 356.957031 400.144531 355.339844 401.277344 353.691406 C 402.410156 352.042969 403.5 350.367188 404.546875 348.664062 C 405.597656 346.960938 406.601562 345.230469 407.558594 343.476562 C 408.519531 341.722656 409.433594 339.945312 410.300781 338.144531 C 411.171875 336.34375 411.992188 334.519531 412.769531 332.679688 C 413.546875 330.835938 414.277344 328.972656 414.957031 327.09375 C 415.640625 325.214844 416.273438 323.320312 416.859375 321.40625 C 417.441406 319.492188 417.980469 317.566406 418.464844 315.628906 C 418.953125 313.6875 419.390625 311.738281 419.777344 309.777344 C 420.167969 307.816406 420.503906 305.84375 420.792969 303.867188 C 421.078125 301.886719 421.316406 299.902344 421.503906 297.910156 C 421.691406 295.917969 421.824219 293.925781 421.910156 291.925781 C 421.996094 289.929688 422.03125 287.929688 422.011719 285.929688 C 421.996094 283.929688 421.929688 281.933594 421.808594 279.9375 C 421.691406 277.941406 421.523438 275.949219 421.300781 273.960938 C 421.078125 271.972656 420.808594 269.992188 420.488281 268.019531 C 420.167969 266.046875 419.796875 264.082031 419.375 262.125 C 418.957031 260.171875 418.484375 258.230469 417.964844 256.296875 C 417.445312 254.367188 416.875 252.449219 416.257812 250.550781 C 415.640625 248.648438 414.976562 246.761719 414.261719 244.894531 C 413.546875 243.023438 412.789062 241.175781 411.980469 239.347656 C 411.175781 237.519531 410.320312 235.710938 409.421875 233.921875 C 408.519531 232.136719 407.578125 230.375 406.589844 228.636719 C 405.597656 226.902344 404.566406 225.1875 403.488281 223.503906 C 402.414062 221.816406 401.296875 220.160156 400.132812 218.53125 C 398.972656 216.902344 397.773438 215.304688 396.53125 213.738281 L 395.296875 214.464844 L 445.246094 184.695312 C 445.867188 184.328125 446.460938 183.917969 447.027344 183.472656 C 447.597656 183.027344 448.136719 182.546875 448.644531 182.03125 C 449.148438 181.515625 449.621094 180.972656 450.054688 180.394531 C 450.492188 179.820312 450.886719 179.21875 451.246094 178.59375 C 451.605469 177.964844 451.921875 177.320312 452.199219 176.652344 C 452.476562 175.984375 452.710938 175.304688 452.898438 174.605469 C 453.085938 173.910156 453.230469 173.203125 453.328125 172.488281 C 453.425781 171.773438 453.476562 171.054688 453.484375 170.332031 C 453.488281 169.609375 453.445312 168.890625 453.359375 168.171875 C 453.273438 167.453125 453.140625 166.746094 452.960938 166.046875 C 452.785156 165.347656 452.5625 164.660156 452.296875 163.988281 C 452.03125 163.316406 451.722656 162.667969 451.375 162.035156 C 451.023438 161.402344 450.632812 160.796875 450.207031 160.214844 C 449.78125 159.632812 449.320312 159.078125 448.820312 158.558594 C 448.324219 158.035156 447.792969 157.546875 447.230469 157.089844 C 446.667969 156.636719 446.082031 156.21875 445.46875 155.839844 L 310.972656 72.949219 C 309.644531 72.128906 308.226562 71.507812 306.722656 71.078125 C 305.214844 70.652344 303.679688 70.4375 302.117188 70.4375 C 300.550781 70.4375 299.015625 70.652344 297.511719 71.078125 C 296.007812 71.507812 294.585938 72.128906 293.253906 72.949219 L 158.761719 155.839844 C 158.148438 156.21875 157.558594 156.636719 157 157.089844 C 156.4375 157.546875 155.90625 158.035156 155.410156 158.554688 C 154.910156 159.078125 154.449219 159.632812 154.019531 160.214844 C 153.59375 160.796875 153.203125 161.402344 152.855469 162.035156 C 152.507812 162.667969 152.199219 163.316406 151.933594 163.988281 C 151.667969 164.660156 151.445312 165.347656 151.265625 166.046875 C 151.089844 166.746094 150.957031 167.453125 150.871094 168.171875 C 150.785156 168.886719 150.742188 169.609375 150.75 170.328125 C 150.753906 171.050781 150.804688 171.769531 150.902344 172.484375 C 151 173.203125 151.144531 173.90625 151.332031 174.605469 C 151.519531 175.300781 151.753906 175.984375 152.027344 176.652344 C 152.304688 177.320312 152.621094 177.964844 152.980469 178.59375 C 153.339844 179.21875 153.738281 179.820312 154.175781 180.394531 C 154.609375 180.972656 155.082031 181.515625 155.589844 182.03125 C 156.09375 182.546875 156.632812 183.027344 157.199219 183.472656 C 157.765625 183.921875 158.363281 184.328125 158.980469 184.695312 L 293.476562 264.851562 C 294.78125 265.632812 296.167969 266.222656 297.636719 266.628906 C 299.101562 267.03125 300.59375 267.234375 302.117188 267.234375 C 303.636719 267.234375 305.128906 267.03125 306.597656 266.628906 C 308.0625 266.222656 309.449219 265.632812 310.753906 264.851562 L 366.929688 231.375 C 369.085938 233.773438 371.097656 236.292969 372.960938 238.925781 C 374.824219 241.5625 376.53125 244.292969 378.074219 247.125 C 379.621094 249.957031 381 252.871094 382.207031 255.863281 C 383.414062 258.855469 384.445312 261.90625 385.296875 265.019531 C 386.152344 268.132812 386.820312 271.28125 387.308594 274.472656 C 387.796875 277.664062 388.09375 280.871094 388.210938 284.09375 C 388.324219 287.320312 388.25 290.539062 387.992188 293.757812 C 387.734375 296.972656 387.289062 300.164062 386.660156 303.328125 C 386.417969 304.609375 386.144531 305.882812 385.84375 307.152344 C 385.542969 308.417969 385.214844 309.679688 384.855469 310.929688 C 384.496094 312.183594 384.109375 313.429688 383.691406 314.664062 C 383.277344 315.898438 382.832031 317.121094 382.359375 318.335938 C 381.886719 319.550781 381.382812 320.753906 380.855469 321.945312 C 380.324219 323.136719 379.769531 324.3125 379.183594 325.476562 C 378.601562 326.644531 377.992188 327.792969 377.351562 328.929688 C 376.71875 330.066406 376.054688 331.1875 375.367188 332.296875 C 374.675781 333.402344 373.964844 334.492188 373.222656 335.5625 C 372.484375 336.636719 371.71875 337.691406 370.929688 338.730469 C 370.144531 339.765625 369.332031 340.785156 368.496094 341.785156 C 367.660156 342.785156 366.800781 343.765625 365.921875 344.726562 C 365.039062 345.6875 364.136719 346.625 363.214844 347.542969 C 362.289062 348.464844 361.339844 349.359375 360.375 350.234375 C 359.410156 351.109375 358.425781 351.960938 357.417969 352.789062 C 356.414062 353.617188 355.390625 354.421875 354.347656 355.203125 C 353.304688 355.984375 352.246094 356.742188 351.167969 357.476562 C 350.089844 358.207031 348.996094 358.914062 347.882812 359.597656 C 346.773438 360.277344 345.648438 360.933594 344.503906 361.5625 C 343.367188 362.191406 342.210938 362.796875 341.042969 363.371094 C 339.871094 363.949219 338.691406 364.496094 337.496094 365.019531 C 336.300781 365.539062 335.09375 366.03125 333.878906 366.496094 C 332.664062 366.960938 331.433594 367.398438 330.199219 367.808594 C 328.960938 368.214844 327.714844 368.597656 326.457031 368.945312 C 325.203125 369.296875 323.941406 369.621094 322.671875 369.914062 C 321.402344 370.203125 320.125 370.464844 318.84375 370.699219 C 317.558594 370.933594 316.273438 371.136719 314.980469 371.308594 C 313.691406 371.484375 312.394531 371.628906 311.097656 371.742188 C 309.796875 371.855469 308.5 371.9375 307.195312 371.992188 C 305.894531 372.042969 304.589844 372.066406 303.289062 372.058594 C 301.984375 372.054688 300.683594 372.015625 299.382812 371.949219 C 298.082031 371.882812 296.78125 371.785156 295.484375 371.65625 C 294.1875 371.527344 292.894531 371.371094 291.605469 371.183594 C 290.316406 370.996094 289.03125 370.78125 287.753906 370.53125 C 286.472656 370.285156 285.199219 370.007812 283.933594 369.703125 C 282.667969 369.398438 281.40625 369.0625 280.15625 368.699219 C 278.90625 368.335938 277.664062 367.941406 276.429688 367.519531 C 275.199219 367.097656 273.976562 366.648438 272.765625 366.167969 C 271.550781 365.6875 270.351562 365.183594 269.164062 364.648438 C 267.976562 364.113281 266.800781 363.554688 265.636719 362.964844 C 264.472656 362.375 263.324219 361.761719 262.191406 361.121094 C 261.058594 360.476562 259.941406 359.808594 258.835938 359.117188 C 257.734375 358.421875 256.648438 357.703125 255.578125 356.960938 C 254.507812 356.214844 253.453125 355.449219 252.421875 354.65625 C 251.386719 353.863281 250.371094 353.046875 249.375 352.207031 C 248.378906 351.367188 247.402344 350.503906 246.445312 349.617188 C 245.488281 348.734375 244.554688 347.828125 243.640625 346.898438 C 242.722656 345.972656 241.832031 345.023438 240.960938 344.054688 C 240.089844 343.082031 239.242188 342.09375 238.417969 341.085938 C 237.59375 340.078125 236.792969 339.046875 236.015625 338.003906 C 235.238281 336.957031 234.488281 335.894531 233.757812 334.8125 C 233.03125 333.730469 232.328125 332.632812 231.652344 331.519531 C 230.976562 330.40625 230.324219 329.277344 229.699219 328.136719 C 229.074219 326.992188 228.476562 325.832031 227.90625 324.660156 C 227.335938 323.492188 226.792969 322.308594 226.277344 321.109375 C 225.761719 319.914062 225.273438 318.707031 224.8125 317.488281 C 224.351562 316.269531 223.921875 315.039062 223.515625 313.800781 C 223.113281 312.5625 222.738281 311.3125 222.390625 310.058594 C 222.046875 308.800781 221.730469 307.535156 221.441406 306.265625 C 221.15625 304.992188 220.898438 303.714844 220.671875 302.433594 C 220.441406 301.152344 220.246094 299.863281 220.078125 298.570312 C 219.910156 297.277344 219.769531 295.984375 219.664062 294.683594 C 219.554688 293.386719 219.476562 292.085938 219.425781 290.78125 C 219.378906 289.480469 219.363281 288.179688 219.375 286.875 C 219.402344 281.957031 219.855469 277.082031 220.742188 272.246094 C 221.628906 267.410156 222.933594 262.6875 224.652344 258.082031 C 226.371094 253.476562 228.484375 249.054688 230.984375 244.820312 C 233.484375 240.585938 236.335938 236.605469 239.539062 232.875 L 210.007812 215.273438 C 208.804688 216.839844 207.644531 218.433594 206.519531 220.058594 C 205.394531 221.683594 204.3125 223.335938 203.273438 225.015625 C 202.234375 226.695312 201.238281 228.398438 200.28125 230.125 C 199.328125 231.855469 198.417969 233.605469 197.550781 235.382812 C 196.6875 237.15625 195.863281 238.953125 195.089844 240.769531 C 194.3125 242.585938 193.585938 244.417969 192.898438 246.273438 C 192.21875 248.125 191.582031 249.992188 190.992188 251.878906 C 190.402344 253.765625 189.859375 255.664062 189.367188 257.574219 C 188.875 259.488281 188.429688 261.410156 188.03125 263.34375 C 187.632812 265.277344 187.285156 267.222656 186.988281 269.175781 C 186.6875 271.125 186.4375 273.085938 186.238281 275.050781 C 186.035156 277.015625 185.882812 278.984375 185.78125 280.957031 C 185.679688 282.925781 185.628906 284.902344 185.628906 286.875 C 185.625 288.851562 185.671875 290.824219 185.769531 292.796875 C 185.867188 294.769531 186.011719 296.738281 186.207031 298.703125 C 186.40625 300.667969 186.648438 302.628906 186.945312 304.582031 C 187.238281 306.53125 187.582031 308.476562 187.972656 310.414062 C 188.367188 312.347656 188.804688 314.273438 189.296875 316.1875 C 189.785156 318.097656 190.320312 320 190.90625 321.886719 C 191.492188 323.773438 192.125 325.640625 192.800781 327.496094 C 193.480469 329.351562 194.203125 331.1875 194.976562 333.003906 C 195.746094 334.824219 196.5625 336.621094 197.425781 338.398438 C 198.289062 340.175781 199.195312 341.929688 200.144531 343.660156 C 201.09375 345.390625 202.085938 347.097656 203.125 348.78125 C 204.160156 350.460938 205.234375 352.117188 206.355469 353.742188 C 207.472656 355.371094 208.632812 356.96875 209.832031 358.539062 C 211.03125 360.105469 212.269531 361.644531 213.546875 363.152344 C 214.824219 364.65625 216.136719 366.132812 217.488281 367.570312 C 218.839844 369.011719 220.226562 370.417969 221.648438 371.789062 C 223.070312 373.160156 224.527344 374.492188 226.015625 375.792969 C 227.503906 377.089844 229.023438 378.347656 230.574219 379.570312 C 232.128906 380.789062 233.710938 381.972656 235.320312 383.113281 C 230.796875 384.714844 226.335938 386.472656 221.9375 388.390625 C 217.539062 390.308594 213.214844 392.378906 208.964844 394.601562 C 204.710938 396.828125 200.542969 399.203125 196.460938 401.722656 C 192.375 404.242188 188.390625 406.90625 184.496094 409.710938 C 180.601562 412.515625 176.8125 415.457031 173.128906 418.53125 C 169.445312 421.605469 165.875 424.804688 162.417969 428.132812 C 158.960938 431.460938 155.625 434.910156 152.414062 438.472656 C 149.199219 442.039062 146.121094 445.714844 143.167969 449.5 C 140.21875 453.28125 137.40625 457.164062 134.730469 461.148438 C 132.054688 465.132812 129.527344 469.207031 127.140625 473.371094 C 124.757812 477.535156 122.523438 481.777344 120.4375 486.101562 C 118.355469 490.425781 116.429688 494.816406 114.660156 499.277344 C 112.886719 503.734375 111.273438 508.253906 109.824219 512.828125 C 108.375 517.402344 107.089844 522.019531 105.96875 526.6875 C 104.847656 531.351562 103.890625 536.050781 103.105469 540.785156 C 102.316406 545.519531 101.699219 550.273438 101.25 555.050781 C 101.191406 555.640625 101.167969 556.230469 101.171875 556.820312 C 101.175781 557.414062 101.210938 558 101.277344 558.589844 C 101.34375 559.175781 101.4375 559.757812 101.566406 560.335938 C 101.691406 560.914062 101.847656 561.480469 102.035156 562.042969 C 102.21875 562.605469 102.433594 563.152344 102.675781 563.691406 C 102.917969 564.230469 103.1875 564.753906 103.484375 565.265625 C 103.78125 565.777344 104.105469 566.269531 104.453125 566.746094 C 104.800781 567.226562 105.171875 567.683594 105.566406 568.121094 C 105.964844 568.558594 106.378906 568.976562 106.820312 569.371094 C 107.257812 569.765625 107.71875 570.140625 108.195312 570.488281 C 108.671875 570.835938 109.167969 571.15625 109.679688 571.453125 C 110.1875 571.746094 110.714844 572.015625 111.253906 572.257812 C 111.792969 572.5 112.34375 572.714844 112.90625 572.898438 C 113.464844 573.082031 114.035156 573.238281 114.613281 573.363281 C 115.191406 573.488281 115.769531 573.582031 116.359375 573.648438 C 116.945312 573.710938 117.535156 573.746094 118.125 573.75 L 371.25 573.75 C 371.804688 573.75 372.355469 573.722656 372.90625 573.667969 C 373.457031 573.613281 374 573.535156 374.542969 573.425781 C 375.085938 573.316406 375.621094 573.183594 376.148438 573.023438 C 376.675781 572.863281 377.195312 572.675781 377.707031 572.464844 C 378.214844 572.253906 378.714844 572.019531 379.203125 571.757812 C 379.691406 571.496094 380.164062 571.210938 380.625 570.90625 C 381.085938 570.597656 381.527344 570.269531 381.953125 569.917969 C 382.382812 569.570312 382.789062 569.199219 383.179688 568.804688 C 383.570312 568.414062 383.941406 568.007812 384.292969 567.578125 C 384.644531 567.152344 384.972656 566.710938 385.277344 566.25 C 385.585938 565.789062 385.871094 565.316406 386.128906 564.828125 C 386.390625 564.34375 386.625 563.84375 386.835938 563.332031 C 387.050781 562.820312 387.234375 562.300781 387.398438 561.773438 C 387.558594 561.246094 387.691406 560.710938 387.796875 560.167969 C 387.90625 559.625 387.988281 559.078125 388.042969 558.527344 C 388.097656 557.980469 388.125 557.425781 388.125 556.875 Z M 302.0625 230.714844 L 200.121094 169.964844 L 302.0625 107.140625 L 404.003906 169.964844 Z M 302.0625 230.714844 " fill-opacity="1" fill-rule="nonzero"/><path fill="#009688" d="M 641.25 472.5 C 641.25 473.605469 641.195312 474.707031 641.085938 475.808594 C 640.980469 476.90625 640.816406 478 640.601562 479.085938 C 640.386719 480.167969 640.117188 481.238281 639.796875 482.296875 C 639.476562 483.355469 639.105469 484.394531 638.679688 485.414062 C 638.257812 486.4375 637.785156 487.433594 637.265625 488.410156 C 636.742188 489.382812 636.175781 490.332031 635.5625 491.25 C 634.949219 492.167969 634.289062 493.054688 633.589844 493.910156 C 632.886719 494.765625 632.144531 495.582031 631.363281 496.363281 C 630.582031 497.144531 629.765625 497.886719 628.910156 498.589844 C 628.054688 499.289062 627.167969 499.949219 626.25 500.5625 C 625.332031 501.175781 624.382812 501.742188 623.410156 502.265625 C 622.433594 502.785156 621.4375 503.257812 620.414062 503.679688 C 619.394531 504.105469 618.355469 504.476562 617.296875 504.796875 C 616.238281 505.117188 615.167969 505.386719 614.085938 505.601562 C 613 505.816406 611.90625 505.980469 610.808594 506.085938 C 609.707031 506.195312 608.605469 506.25 607.5 506.25 C 606.394531 506.25 605.292969 506.195312 604.191406 506.085938 C 603.09375 505.980469 602 505.816406 600.914062 505.601562 C 599.832031 505.386719 598.761719 505.117188 597.703125 504.796875 C 596.644531 504.476562 595.605469 504.105469 594.585938 503.679688 C 593.5625 503.257812 592.566406 502.785156 591.589844 502.265625 C 590.617188 501.742188 589.667969 501.175781 588.75 500.5625 C 587.832031 499.949219 586.945312 499.289062 586.089844 498.589844 C 585.234375 497.886719 584.417969 497.144531 583.636719 496.363281 C 582.855469 495.582031 582.113281 494.765625 581.410156 493.910156 C 580.710938 493.054688 580.050781 492.167969 579.4375 491.25 C 578.824219 490.332031 578.257812 489.382812 577.734375 488.410156 C 577.214844 487.433594 576.742188 486.4375 576.320312 485.414062 C 575.894531 484.394531 575.523438 483.355469 575.203125 482.296875 C 574.882812 481.238281 574.613281 480.167969 574.398438 479.085938 C 574.183594 478 574.019531 476.90625 573.914062 475.808594 C 573.804688 474.707031 573.75 473.605469 573.75 472.5 C 573.75 471.394531 573.804688 470.292969 573.914062 469.191406 C 574.019531 468.09375 574.183594 467 574.398438 465.914062 C 574.613281 464.832031 574.882812 463.761719 575.203125 462.703125 C 575.523438 461.644531 575.894531 460.605469 576.320312 459.585938 C 576.742188 458.5625 577.214844 457.566406 577.734375 456.589844 C 578.257812 455.617188 578.824219 454.667969 579.4375 453.75 C 580.050781 452.832031 580.710938 451.945312 581.410156 451.089844 C 582.113281 450.234375 582.855469 449.417969 583.636719 448.636719 C 584.417969 447.855469 585.234375 447.113281 586.089844 446.410156 C 586.945312 445.710938 587.832031 445.050781 588.75 444.4375 C 589.667969 443.824219 590.617188 443.257812 591.589844 442.734375 C 592.566406 442.214844 593.5625 441.742188 594.585938 441.320312 C 595.605469 440.894531 596.644531 440.523438 597.703125 440.203125 C 598.761719 439.882812 599.832031 439.613281 600.914062 439.398438 C 602 439.183594 603.09375 439.019531 604.191406 438.914062 C 605.292969 438.804688 606.394531 438.75 607.5 438.75 C 608.605469 438.75 609.707031 438.804688 610.808594 438.914062 C 611.90625 439.019531 613 439.183594 614.085938 439.398438 C 615.167969 439.613281 616.238281 439.882812 617.296875 440.203125 C 618.355469 440.523438 619.394531 440.894531 620.414062 441.320312 C 621.4375 441.742188 622.433594 442.214844 623.410156 442.734375 C 624.382812 443.257812 625.332031 443.824219 626.25 444.4375 C 627.167969 445.050781 628.054688 445.710938 628.910156 446.410156 C 629.765625 447.113281 630.582031 447.855469 631.363281 448.636719 C 632.144531 449.417969 632.886719 450.234375 633.589844 451.089844 C 634.289062 451.945312 634.949219 452.832031 635.5625 453.75 C 636.175781 454.667969 636.742188 455.617188 637.265625 456.589844 C 637.785156 457.566406 638.257812 458.5625 638.679688 459.585938 C 639.105469 460.605469 639.476562 461.644531 639.796875 462.703125 C 640.117188 463.761719 640.386719 464.832031 640.601562 465.914062 C 640.816406 467 640.980469 468.09375 641.085938 469.191406 C 641.195312 470.292969 641.25 471.394531 641.25 472.5 Z M 641.25 472.5 " fill-opacity="1" fill-rule="nonzero"/></svg>