<svg xmlns="http://www.w3.org/2000/svg" xmlns:xlink="http://www.w3.org/1999/xlink" width="1080" zoomAndPan="magnify" viewBox="0 0 810 809.999993" height="1080" preserveAspectRatio="xMidYMid meet" version="1.0"><path fill="#009688" d="M 472.5 101.25 L 472.5 135 L 337.5 135 L 337.5 101.25 L 472.5 101.25 M 489.375 67.5 L 320.625 67.5 C 320.070312 67.5 319.519531 67.527344 318.972656 67.582031 C 318.421875 67.636719 317.878906 67.71875 317.332031 67.824219 C 316.792969 67.933594 316.257812 68.066406 315.730469 68.226562 C 315.199219 68.386719 314.679688 68.574219 314.167969 68.785156 C 313.660156 68.996094 313.160156 69.230469 312.671875 69.492188 C 312.183594 69.753906 311.710938 70.039062 311.25 70.34375 C 310.789062 70.652344 310.347656 70.980469 309.917969 71.332031 C 309.492188 71.683594 309.082031 72.050781 308.691406 72.441406 C 308.300781 72.832031 307.929688 73.242188 307.578125 73.671875 C 307.230469 74.097656 306.898438 74.539062 306.59375 75 C 306.285156 75.460938 306.003906 75.933594 305.742188 76.421875 C 305.480469 76.90625 305.246094 77.40625 305.035156 77.917969 C 304.824219 78.425781 304.636719 78.945312 304.480469 79.476562 C 304.316406 80.003906 304.183594 80.539062 304.074219 81.082031 C 303.964844 81.625 303.886719 82.171875 303.832031 82.722656 C 303.777344 83.269531 303.753906 83.824219 303.75 84.375 L 303.75 101.25 L 151.875 101.25 C 151.320312 101.25 150.769531 101.277344 150.222656 101.332031 C 149.671875 101.386719 149.125 101.46875 148.582031 101.574219 C 148.042969 101.683594 147.507812 101.816406 146.976562 101.976562 C 146.449219 102.136719 145.929688 102.324219 145.417969 102.535156 C 144.90625 102.746094 144.410156 102.980469 143.921875 103.242188 C 143.433594 103.503906 142.960938 103.785156 142.5 104.09375 C 142.039062 104.402344 141.597656 104.730469 141.171875 105.082031 C 140.742188 105.429688 140.335938 105.800781 139.941406 106.191406 C 139.550781 106.582031 139.183594 106.992188 138.832031 107.417969 C 138.480469 107.847656 138.152344 108.289062 137.84375 108.75 C 137.539062 109.210938 137.253906 109.683594 136.992188 110.171875 C 136.734375 110.660156 136.496094 111.15625 136.285156 111.667969 C 136.074219 112.179688 135.886719 112.699219 135.726562 113.226562 C 135.566406 113.757812 135.429688 114.289062 135.324219 114.832031 C 135.214844 115.375 135.136719 115.921875 135.082031 116.472656 C 135.027344 117.019531 135 117.574219 135 118.125 L 135 725.625 C 135 726.175781 135.027344 726.730469 135.082031 727.277344 C 135.136719 727.828125 135.214844 728.375 135.324219 728.917969 C 135.429688 729.457031 135.566406 729.996094 135.726562 730.523438 C 135.882812 731.050781 136.070312 731.570312 136.28125 732.082031 C 136.492188 732.59375 136.730469 733.09375 136.992188 733.578125 C 137.25 734.066406 137.535156 734.539062 137.839844 735 C 138.148438 735.460938 138.480469 735.902344 138.828125 736.332031 C 139.179688 736.757812 139.550781 737.167969 139.941406 737.558594 C 140.332031 737.949219 140.742188 738.320312 141.167969 738.667969 C 141.597656 739.019531 142.039062 739.347656 142.496094 739.65625 C 142.957031 739.964844 143.433594 740.246094 143.917969 740.507812 C 144.40625 740.769531 144.90625 741.003906 145.414062 741.214844 C 145.925781 741.425781 146.445312 741.613281 146.976562 741.773438 C 147.503906 741.933594 148.039062 742.066406 148.582031 742.175781 C 149.125 742.285156 149.671875 742.363281 150.222656 742.417969 C 150.769531 742.472656 151.320312 742.5 151.875 742.5 L 658.125 742.5 C 658.675781 742.5 659.230469 742.472656 659.777344 742.417969 C 660.328125 742.363281 660.875 742.285156 661.417969 742.175781 C 661.957031 742.066406 662.492188 741.933594 663.023438 741.773438 C 663.554688 741.613281 664.070312 741.425781 664.582031 741.214844 C 665.09375 741.003906 665.59375 740.769531 666.082031 740.507812 C 666.570312 740.246094 667.039062 739.964844 667.496094 739.65625 C 667.957031 739.347656 668.402344 739.019531 668.828125 738.667969 C 669.257812 738.320312 669.667969 737.949219 670.054688 737.558594 C 670.449219 737.167969 670.820312 736.757812 671.167969 736.332031 C 671.519531 735.902344 671.847656 735.460938 672.152344 735 C 672.460938 734.539062 672.746094 734.066406 673.003906 733.578125 C 673.265625 733.09375 673.5 732.59375 673.710938 732.082031 C 673.925781 731.570312 674.109375 731.050781 674.269531 730.523438 C 674.433594 729.996094 674.566406 729.457031 674.675781 728.917969 C 674.78125 728.375 674.863281 727.828125 674.917969 727.277344 C 674.976562 726.730469 675.003906 726.175781 675 725.625 L 675 118.125 C 675.003906 117.574219 674.976562 117.019531 674.917969 116.472656 C 674.863281 115.921875 674.78125 115.375 674.675781 114.832031 C 674.566406 114.289062 674.433594 113.753906 674.273438 113.226562 C 674.109375 112.695312 673.925781 112.175781 673.710938 111.667969 C 673.5 111.15625 673.265625 110.65625 673.007812 110.171875 C 672.746094 109.683594 672.460938 109.210938 672.152344 108.75 C 671.847656 108.289062 671.519531 107.847656 671.167969 107.417969 C 670.820312 106.992188 670.449219 106.582031 670.054688 106.191406 C 669.667969 105.800781 669.257812 105.429688 668.828125 105.078125 C 668.402344 104.730469 667.957031 104.402344 667.496094 104.09375 C 667.039062 103.785156 666.570312 103.503906 666.082031 103.242188 C 665.59375 102.980469 665.09375 102.746094 664.582031 102.535156 C 664.070312 102.324219 663.554688 102.136719 663.023438 101.976562 C 662.492188 101.816406 661.957031 101.683594 661.417969 101.574219 C 660.875 101.464844 660.328125 101.386719 659.777344 101.332031 C 659.230469 101.277344 658.675781 101.25 658.125 101.25 L 506.25 101.25 L 506.25 84.375 C 506.25 83.824219 506.222656 83.269531 506.167969 82.722656 C 506.113281 82.171875 506.035156 81.625 505.925781 81.082031 C 505.816406 80.539062 505.683594 80.003906 505.523438 79.476562 C 505.363281 78.945312 505.175781 78.425781 504.960938 77.917969 C 504.753906 77.40625 504.515625 76.90625 504.253906 76.417969 C 503.996094 75.933594 503.710938 75.457031 503.402344 75 C 503.097656 74.539062 502.769531 74.097656 502.417969 73.667969 C 502.066406 73.242188 501.695312 72.832031 501.304688 72.441406 C 500.917969 72.050781 500.507812 71.679688 500.082031 71.328125 C 499.652344 70.980469 499.210938 70.652344 498.75 70.34375 C 498.289062 70.035156 497.816406 69.753906 497.328125 69.492188 C 496.839844 69.230469 496.339844 68.996094 495.832031 68.785156 C 495.320312 68.574219 494.800781 68.386719 494.269531 68.226562 C 493.742188 68.066406 493.207031 67.933594 492.667969 67.824219 C 492.128906 67.71875 491.582031 67.636719 491.03125 67.582031 C 490.480469 67.527344 489.929688 67.5 489.375 67.5 Z M 320.625 168.75 L 489.375 168.75 C 489.929688 168.75 490.480469 168.722656 491.03125 168.667969 C 491.582031 168.613281 492.128906 168.53125 492.667969 168.425781 C 493.207031 168.316406 493.742188 168.183594 494.269531 168.023438 C 494.800781 167.863281 495.320312 167.675781 495.832031 167.464844 C 496.339844 167.253906 496.84375 167.019531 497.332031 166.757812 C 497.820312 166.496094 498.289062 166.214844 498.75 165.90625 C 499.210938 165.597656 499.652344 165.269531 500.082031 164.921875 C 500.507812 164.570312 500.917969 164.199219 501.304688 163.808594 C 501.695312 163.417969 502.066406 163.007812 502.417969 162.578125 C 502.769531 162.152344 503.097656 161.710938 503.402344 161.25 C 503.710938 160.789062 503.996094 160.316406 504.257812 159.828125 C 504.519531 159.339844 504.753906 158.84375 504.960938 158.332031 C 505.175781 157.820312 505.363281 157.300781 505.523438 156.773438 C 505.683594 156.242188 505.816406 155.710938 505.925781 155.167969 C 506.035156 154.625 506.113281 154.078125 506.167969 153.527344 C 506.222656 152.980469 506.25 152.425781 506.25 151.875 L 506.25 135 L 641.25 135 L 641.25 708.75 L 168.75 708.75 L 168.75 135 L 303.75 135 L 303.75 151.875 C 303.753906 152.425781 303.777344 152.980469 303.832031 153.527344 C 303.886719 154.078125 303.964844 154.625 304.074219 155.167969 C 304.183594 155.710938 304.316406 156.242188 304.476562 156.773438 C 304.636719 157.300781 304.820312 157.820312 305.03125 158.332031 C 305.242188 158.84375 305.480469 159.339844 305.738281 159.828125 C 306 160.316406 306.285156 160.789062 306.589844 161.25 C 306.898438 161.710938 307.226562 162.152344 307.578125 162.582031 C 307.929688 163.007812 308.300781 163.417969 308.691406 163.808594 C 309.082031 164.199219 309.492188 164.570312 309.917969 164.917969 C 310.347656 165.269531 310.789062 165.597656 311.25 165.90625 C 311.707031 166.210938 312.179688 166.496094 312.667969 166.757812 C 313.15625 167.019531 313.652344 167.253906 314.164062 167.464844 C 314.675781 167.675781 315.195312 167.863281 315.722656 168.023438 C 316.253906 168.183594 316.789062 168.316406 317.332031 168.425781 C 317.875 168.53125 318.421875 168.613281 318.972656 168.667969 C 319.519531 168.722656 320.070312 168.75 320.625 168.75 Z M 320.625 168.75 " fill-opacity="1" fill-rule="nonzero"/><path fill="#009688" d="M 513.234375 267.097656 L 501.304688 255.167969 C 500.914062 254.777344 500.503906 254.40625 500.078125 254.054688 C 499.652344 253.707031 499.207031 253.375 498.746094 253.070312 C 498.289062 252.761719 497.816406 252.480469 497.328125 252.21875 C 496.839844 251.960938 496.339844 251.722656 495.832031 251.511719 C 495.320312 251.300781 494.800781 251.113281 494.269531 250.953125 C 493.742188 250.792969 493.207031 250.660156 492.664062 250.550781 C 492.121094 250.445312 491.578125 250.363281 491.027344 250.308594 C 490.480469 250.253906 489.929688 250.226562 489.375 250.226562 C 488.824219 250.226562 488.273438 250.253906 487.722656 250.308594 C 487.171875 250.363281 486.628906 250.445312 486.082031 250.550781 C 485.542969 250.660156 485.007812 250.792969 484.480469 250.953125 C 483.949219 251.113281 483.429688 251.300781 482.917969 251.511719 C 482.410156 251.722656 481.910156 251.960938 481.421875 252.21875 C 480.933594 252.480469 480.460938 252.761719 480.003906 253.070312 C 479.542969 253.375 479.101562 253.707031 478.671875 254.054688 C 478.242188 254.40625 477.832031 254.777344 477.445312 255.167969 C 477.050781 255.558594 476.679688 255.964844 476.332031 256.394531 C 475.980469 256.820312 475.652344 257.265625 475.34375 257.722656 C 475.039062 258.183594 474.75 258.65625 474.488281 259.144531 C 474.226562 259.632812 473.992188 260.132812 473.78125 260.644531 C 473.570312 261.15625 473.382812 261.675781 473.222656 262.203125 C 473.0625 262.734375 472.929688 263.269531 472.820312 263.8125 C 472.710938 264.355469 472.628906 264.898438 472.574219 265.449219 C 472.523438 266 472.496094 266.554688 472.496094 267.105469 C 472.496094 267.660156 472.523438 268.210938 472.578125 268.761719 C 472.628906 269.3125 472.710938 269.859375 472.820312 270.402344 C 472.929688 270.941406 473.0625 271.480469 473.222656 272.007812 C 473.382812 272.539062 473.570312 273.058594 473.78125 273.570312 C 473.992188 274.078125 474.226562 274.578125 474.488281 275.066406 C 474.75 275.554688 475.039062 276.027344 475.34375 276.488281 C 475.652344 276.949219 475.980469 277.390625 476.332031 277.820312 C 476.679688 278.246094 477.050781 278.65625 477.445312 279.046875 L 501.304688 302.90625 C 501.699219 303.296875 502.109375 303.667969 502.535156 304.019531 C 502.960938 304.367188 503.40625 304.699219 503.863281 305.003906 C 504.320312 305.3125 504.796875 305.59375 505.285156 305.855469 C 505.773438 306.117188 506.269531 306.351562 506.78125 306.5625 C 507.289062 306.773438 507.808594 306.960938 508.339844 307.121094 C 508.867188 307.28125 509.402344 307.414062 509.945312 307.523438 C 510.488281 307.628906 511.035156 307.710938 511.585938 307.765625 C 512.132812 307.820312 512.683594 307.847656 513.234375 307.847656 C 513.789062 307.847656 514.339844 307.820312 514.890625 307.765625 C 515.4375 307.710938 515.984375 307.628906 516.527344 307.523438 C 517.070312 307.414062 517.605469 307.28125 518.132812 307.121094 C 518.664062 306.960938 519.183594 306.773438 519.691406 306.5625 C 520.203125 306.351562 520.703125 306.117188 521.191406 305.855469 C 521.679688 305.59375 522.152344 305.3125 522.609375 305.003906 C 523.070312 304.699219 523.515625 304.367188 523.941406 304.019531 C 524.367188 303.667969 524.777344 303.296875 525.167969 302.90625 L 596.769531 231.304688 C 597.160156 230.914062 597.53125 230.507812 597.878906 230.078125 C 598.230469 229.652344 598.558594 229.207031 598.863281 228.75 C 599.171875 228.289062 599.453125 227.816406 599.714844 227.328125 C 599.976562 226.839844 600.210938 226.34375 600.425781 225.832031 C 600.636719 225.320312 600.820312 224.800781 600.980469 224.273438 C 601.140625 223.742188 601.273438 223.207031 601.382812 222.667969 C 601.492188 222.125 601.574219 221.578125 601.628906 221.027344 C 601.683594 220.476562 601.710938 219.925781 601.710938 219.375 C 601.710938 218.824219 601.683594 218.269531 601.628906 217.722656 C 601.574219 217.171875 601.492188 216.625 601.382812 216.082031 C 601.273438 215.539062 601.140625 215.007812 600.980469 214.476562 C 600.824219 213.949219 600.636719 213.429688 600.425781 212.917969 C 600.214844 212.40625 599.976562 211.910156 599.71875 211.421875 C 599.457031 210.933594 599.171875 210.460938 598.863281 210 C 598.558594 209.542969 598.230469 209.097656 597.878906 208.671875 C 597.53125 208.242188 597.160156 207.835938 596.769531 207.445312 C 596.378906 207.054688 595.96875 206.683594 595.542969 206.332031 C 595.117188 205.980469 594.671875 205.652344 594.210938 205.347656 C 593.75 205.039062 593.277344 204.757812 592.789062 204.496094 C 592.304688 204.234375 591.804688 204 591.292969 203.789062 C 590.785156 203.578125 590.265625 203.390625 589.738281 203.230469 C 589.207031 203.070312 588.671875 202.9375 588.128906 202.828125 C 587.585938 202.71875 587.039062 202.640625 586.492188 202.585938 C 585.941406 202.53125 585.386719 202.503906 584.835938 202.503906 C 584.285156 202.503906 583.730469 202.53125 583.183594 202.585938 C 582.632812 202.640625 582.085938 202.71875 581.542969 202.828125 C 581.003906 202.9375 580.46875 203.070312 579.941406 203.230469 C 579.410156 203.390625 578.890625 203.578125 578.378906 203.789062 C 577.871094 204 577.375 204.234375 576.886719 204.496094 C 576.398438 204.757812 575.925781 205.039062 575.464844 205.347656 C 575.007812 205.652344 574.5625 205.980469 574.136719 206.332031 C 573.707031 206.683594 573.300781 207.054688 572.90625 207.445312 Z M 513.234375 267.097656 " fill-opacity="1" fill-rule="nonzero"/><path fill="#009688" d="M 253.125 236.25 L 388.125 236.25 C 388.675781 236.25 389.230469 236.277344 389.777344 236.332031 C 390.328125 236.386719 390.875 236.464844 391.417969 236.574219 C 391.960938 236.683594 392.496094 236.816406 393.023438 236.976562 C 393.550781 237.136719 394.070312 237.324219 394.582031 237.535156 C 395.09375 237.746094 395.59375 237.980469 396.078125 238.242188 C 396.566406 238.503906 397.039062 238.785156 397.5 239.09375 C 397.960938 239.402344 398.402344 239.730469 398.832031 240.082031 C 399.257812 240.429688 399.667969 240.800781 400.058594 241.191406 C 400.449219 241.582031 400.820312 241.992188 401.167969 242.417969 C 401.519531 242.847656 401.847656 243.289062 402.15625 243.75 C 402.464844 244.210938 402.746094 244.683594 403.007812 245.171875 C 403.269531 245.65625 403.503906 246.15625 403.714844 246.667969 C 403.925781 247.179688 404.113281 247.699219 404.273438 248.226562 C 404.433594 248.753906 404.566406 249.289062 404.675781 249.832031 C 404.785156 250.375 404.863281 250.921875 404.917969 251.472656 C 404.972656 252.019531 405 252.574219 405 253.125 C 405 253.675781 404.972656 254.230469 404.917969 254.777344 C 404.863281 255.328125 404.785156 255.875 404.675781 256.417969 C 404.566406 256.960938 404.433594 257.496094 404.273438 258.023438 C 404.113281 258.550781 403.925781 259.070312 403.714844 259.582031 C 403.503906 260.09375 403.269531 260.59375 403.007812 261.078125 C 402.746094 261.566406 402.464844 262.039062 402.15625 262.5 C 401.847656 262.960938 401.519531 263.402344 401.167969 263.832031 C 400.820312 264.257812 400.449219 264.667969 400.058594 265.058594 C 399.667969 265.449219 399.257812 265.820312 398.832031 266.167969 C 398.402344 266.519531 397.960938 266.847656 397.5 267.15625 C 397.039062 267.464844 396.566406 267.746094 396.078125 268.007812 C 395.59375 268.269531 395.09375 268.503906 394.582031 268.714844 C 394.070312 268.925781 393.550781 269.113281 393.023438 269.273438 C 392.496094 269.433594 391.960938 269.566406 391.417969 269.675781 C 390.875 269.785156 390.328125 269.863281 389.777344 269.917969 C 389.230469 269.972656 388.675781 270 388.125 270 L 253.125 270 C 252.574219 270 252.019531 269.972656 251.472656 269.917969 C 250.921875 269.863281 250.375 269.785156 249.832031 269.675781 C 249.289062 269.566406 248.753906 269.433594 248.226562 269.273438 C 247.699219 269.113281 247.179688 268.925781 246.667969 268.714844 C 246.15625 268.503906 245.65625 268.269531 245.171875 268.007812 C 244.683594 267.746094 244.210938 267.464844 243.75 267.15625 C 243.289062 266.847656 242.847656 266.519531 242.417969 266.167969 C 241.992188 265.820312 241.582031 265.449219 241.191406 265.058594 C 240.800781 264.667969 240.429688 264.257812 240.082031 263.832031 C 239.730469 263.402344 239.402344 262.960938 239.09375 262.5 C 238.785156 262.039062 238.503906 261.566406 238.242188 261.078125 C 237.980469 260.59375 237.746094 260.09375 237.535156 259.582031 C 237.324219 259.070312 237.136719 258.550781 236.976562 258.023438 C 236.816406 257.496094 236.683594 256.960938 236.574219 256.417969 C 236.464844 255.875 236.386719 255.328125 236.332031 254.777344 C 236.277344 254.230469 236.25 253.675781 236.25 253.125 C 236.25 252.574219 236.277344 252.019531 236.332031 251.472656 C 236.386719 250.921875 236.464844 250.375 236.574219 249.832031 C 236.683594 249.289062 236.816406 248.753906 236.976562 248.226562 C 237.136719 247.699219 237.324219 247.179688 237.535156 246.667969 C 237.746094 246.15625 237.980469 245.65625 238.242188 245.171875 C 238.503906 244.683594 238.785156 244.210938 239.09375 243.75 C 239.402344 243.289062 239.730469 242.847656 240.082031 242.417969 C 240.429688 241.992188 240.800781 241.582031 241.191406 241.191406 C 241.582031 240.800781 241.992188 240.429688 242.417969 240.082031 C 242.847656 239.730469 243.289062 239.402344 243.75 239.09375 C 244.210938 238.785156 244.683594 238.503906 245.171875 238.242188 C 245.65625 237.980469 246.15625 237.746094 246.667969 237.535156 C 247.179688 237.324219 247.699219 237.136719 248.226562 236.976562 C 248.753906 236.816406 249.289062 236.683594 249.832031 236.574219 C 250.375 236.464844 250.921875 236.386719 251.472656 236.332031 C 252.019531 236.277344 252.574219 236.25 253.125 236.25 Z M 253.125 236.25 " fill-opacity="1" fill-rule="nonzero"/><path fill="#009688" d="M 513.234375 431.765625 L 501.304688 419.832031 C 500.914062 419.441406 500.503906 419.070312 500.078125 418.722656 C 499.652344 418.371094 499.207031 418.042969 498.746094 417.734375 C 498.289062 417.429688 497.816406 417.144531 497.328125 416.882812 C 496.839844 416.625 496.339844 416.390625 495.832031 416.175781 C 495.320312 415.964844 494.800781 415.78125 494.269531 415.621094 C 493.742188 415.460938 493.207031 415.324219 492.664062 415.21875 C 492.121094 415.109375 491.578125 415.027344 491.027344 414.976562 C 490.480469 414.921875 489.929688 414.894531 489.375 414.894531 C 488.824219 414.894531 488.273438 414.921875 487.722656 414.976562 C 487.171875 415.027344 486.628906 415.109375 486.082031 415.21875 C 485.542969 415.324219 485.007812 415.460938 484.480469 415.621094 C 483.949219 415.78125 483.429688 415.964844 482.917969 416.175781 C 482.410156 416.390625 481.910156 416.625 481.421875 416.882812 C 480.933594 417.144531 480.460938 417.429688 480.003906 417.734375 C 479.542969 418.042969 479.101562 418.371094 478.671875 418.722656 C 478.242188 419.074219 477.832031 419.441406 477.445312 419.832031 C 477.050781 420.222656 476.679688 420.632812 476.332031 421.058594 C 475.980469 421.488281 475.652344 421.929688 475.34375 422.390625 C 475.039062 422.851562 474.753906 423.324219 474.492188 423.808594 C 474.230469 424.296875 473.996094 424.796875 473.785156 425.308594 C 473.574219 425.816406 473.386719 426.335938 473.226562 426.867188 C 473.066406 427.394531 472.933594 427.929688 472.824219 428.472656 C 472.714844 429.011719 472.636719 429.558594 472.582031 430.109375 C 472.527344 430.660156 472.503906 431.210938 472.503906 431.761719 C 472.503906 432.316406 472.527344 432.867188 472.582031 433.417969 C 472.636719 433.96875 472.714844 434.511719 472.824219 435.054688 C 472.933594 435.597656 473.066406 436.132812 473.226562 436.660156 C 473.386719 437.191406 473.574219 437.710938 473.785156 438.21875 C 473.996094 438.730469 474.230469 439.230469 474.492188 439.714844 C 474.753906 440.203125 475.039062 440.675781 475.34375 441.136719 C 475.652344 441.597656 475.980469 442.039062 476.332031 442.46875 C 476.679688 442.894531 477.050781 443.304688 477.445312 443.695312 L 501.304688 467.554688 C 501.699219 467.945312 502.109375 468.316406 502.535156 468.667969 C 502.960938 469.019531 503.40625 469.347656 503.863281 469.652344 C 504.320312 469.960938 504.796875 470.246094 505.285156 470.503906 C 505.773438 470.765625 506.269531 471 506.78125 471.210938 C 507.289062 471.421875 507.808594 471.609375 508.339844 471.769531 C 508.867188 471.929688 509.402344 472.0625 509.945312 472.171875 C 510.488281 472.28125 511.035156 472.359375 511.585938 472.414062 C 512.132812 472.46875 512.683594 472.496094 513.234375 472.496094 C 513.789062 472.496094 514.339844 472.46875 514.890625 472.414062 C 515.4375 472.363281 515.984375 472.28125 516.527344 472.171875 C 517.070312 472.066406 517.605469 471.929688 518.132812 471.769531 C 518.664062 471.609375 519.183594 471.425781 519.691406 471.210938 C 520.203125 471 520.703125 470.765625 521.191406 470.503906 C 521.679688 470.246094 522.152344 469.960938 522.609375 469.652344 C 523.070312 469.347656 523.515625 469.019531 523.941406 468.667969 C 524.367188 468.316406 524.777344 467.945312 525.167969 467.554688 L 596.769531 395.953125 C 597.160156 395.5625 597.53125 395.15625 597.878906 394.726562 C 598.230469 394.300781 598.558594 393.855469 598.863281 393.398438 C 599.171875 392.9375 599.453125 392.464844 599.714844 391.976562 C 599.976562 391.492188 600.210938 390.992188 600.425781 390.480469 C 600.636719 389.972656 600.820312 389.449219 600.980469 388.921875 C 601.140625 388.394531 601.273438 387.855469 601.382812 387.316406 C 601.492188 386.773438 601.574219 386.226562 601.628906 385.675781 C 601.683594 385.128906 601.710938 384.578125 601.710938 384.023438 C 601.710938 383.472656 601.683594 382.917969 601.628906 382.371094 C 601.574219 381.820312 601.492188 381.273438 601.382812 380.730469 C 601.273438 380.191406 601.140625 379.65625 600.980469 379.125 C 600.824219 378.597656 600.636719 378.078125 600.425781 377.566406 C 600.214844 377.054688 599.976562 376.558594 599.71875 376.070312 C 599.457031 375.582031 599.171875 375.109375 598.863281 374.648438 C 598.558594 374.191406 598.230469 373.746094 597.878906 373.320312 C 597.53125 372.894531 597.160156 372.484375 596.769531 372.09375 C 596.378906 371.703125 595.96875 371.332031 595.542969 370.980469 C 595.117188 370.632812 594.671875 370.300781 594.210938 369.996094 C 593.75 369.6875 593.277344 369.40625 592.789062 369.144531 C 592.304688 368.882812 591.804688 368.648438 591.292969 368.4375 C 590.785156 368.226562 590.265625 368.039062 589.738281 367.878906 C 589.207031 367.71875 588.671875 367.585938 588.128906 367.476562 C 587.585938 367.367188 587.039062 367.289062 586.492188 367.234375 C 585.941406 367.179688 585.386719 367.152344 584.835938 367.152344 C 584.285156 367.152344 583.730469 367.179688 583.183594 367.234375 C 582.632812 367.289062 582.085938 367.367188 581.542969 367.476562 C 581.003906 367.585938 580.46875 367.71875 579.941406 367.878906 C 579.410156 368.039062 578.890625 368.226562 578.378906 368.4375 C 577.871094 368.648438 577.375 368.882812 576.886719 369.144531 C 576.398438 369.40625 575.925781 369.691406 575.464844 369.996094 C 575.007812 370.304688 574.5625 370.632812 574.136719 370.980469 C 573.707031 371.332031 573.300781 371.703125 572.90625 372.09375 Z M 513.234375 431.765625 " fill-opacity="1" fill-rule="nonzero"/><path fill="#009688" d="M 253.125 405 L 388.125 405 C 388.675781 405 389.230469 405.027344 389.777344 405.082031 C 390.328125 405.136719 390.875 405.214844 391.417969 405.324219 C 391.960938 405.433594 392.496094 405.566406 393.023438 405.726562 C 393.550781 405.886719 394.070312 406.074219 394.582031 406.285156 C 395.09375 406.496094 395.59375 406.730469 396.078125 406.992188 C 396.566406 407.253906 397.039062 407.535156 397.5 407.84375 C 397.960938 408.152344 398.402344 408.480469 398.832031 408.832031 C 399.257812 409.179688 399.667969 409.550781 400.058594 409.941406 C 400.449219 410.332031 400.820312 410.742188 401.167969 411.167969 C 401.519531 411.597656 401.847656 412.039062 402.15625 412.5 C 402.464844 412.960938 402.746094 413.433594 403.007812 413.921875 C 403.269531 414.40625 403.503906 414.90625 403.714844 415.417969 C 403.925781 415.929688 404.113281 416.449219 404.273438 416.976562 C 404.433594 417.503906 404.566406 418.039062 404.675781 418.582031 C 404.785156 419.125 404.863281 419.671875 404.917969 420.222656 C 404.972656 420.769531 405 421.324219 405 421.875 C 405 422.425781 404.972656 422.980469 404.917969 423.527344 C 404.863281 424.078125 404.785156 424.625 404.675781 425.167969 C 404.566406 425.710938 404.433594 426.246094 404.273438 426.773438 C 404.113281 427.300781 403.925781 427.820312 403.714844 428.332031 C 403.503906 428.84375 403.269531 429.34375 403.007812 429.828125 C 402.746094 430.316406 402.464844 430.789062 402.15625 431.25 C 401.847656 431.710938 401.519531 432.152344 401.167969 432.582031 C 400.820312 433.007812 400.449219 433.417969 400.058594 433.808594 C 399.667969 434.199219 399.257812 434.570312 398.832031 434.917969 C 398.402344 435.269531 397.960938 435.597656 397.5 435.90625 C 397.039062 436.214844 396.566406 436.496094 396.078125 436.757812 C 395.59375 437.019531 395.09375 437.253906 394.582031 437.464844 C 394.070312 437.675781 393.550781 437.863281 393.023438 438.023438 C 392.496094 438.183594 391.960938 438.316406 391.417969 438.425781 C 390.875 438.535156 390.328125 438.613281 389.777344 438.667969 C 389.230469 438.722656 388.675781 438.75 388.125 438.75 L 253.125 438.75 C 252.574219 438.75 252.019531 438.722656 251.472656 438.667969 C 250.921875 438.613281 250.375 438.535156 249.832031 438.425781 C 249.289062 438.316406 248.753906 438.183594 248.226562 438.023438 C 247.699219 437.863281 247.179688 437.675781 246.667969 437.464844 C 246.15625 437.253906 245.65625 437.019531 245.171875 436.757812 C 244.683594 436.496094 244.210938 436.214844 243.75 435.90625 C 243.289062 435.597656 242.847656 435.269531 242.417969 434.917969 C 241.992188 434.570312 241.582031 434.199219 241.191406 433.808594 C 240.800781 433.417969 240.429688 433.007812 240.082031 432.582031 C 239.730469 432.152344 239.402344 431.710938 239.09375 431.25 C 238.785156 430.789062 238.503906 430.316406 238.242188 429.828125 C 237.980469 429.34375 237.746094 428.84375 237.535156 428.332031 C 237.324219 427.820312 237.136719 427.300781 236.976562 426.773438 C 236.816406 426.246094 236.683594 425.710938 236.574219 425.167969 C 236.464844 424.625 236.386719 424.078125 236.332031 423.527344 C 236.277344 422.980469 236.25 422.425781 236.25 421.875 C 236.25 421.324219 236.277344 420.769531 236.332031 420.222656 C 236.386719 419.671875 236.464844 419.125 236.574219 418.582031 C 236.683594 418.039062 236.816406 417.503906 236.976562 416.976562 C 237.136719 416.449219 237.324219 415.929688 237.535156 415.417969 C 237.746094 414.90625 237.980469 414.40625 238.242188 413.921875 C 238.503906 413.433594 238.785156 412.960938 239.09375 412.5 C 239.402344 412.039062 239.730469 411.597656 240.082031 411.167969 C 240.429688 410.742188 240.800781 410.332031 241.191406 409.941406 C 241.582031 409.550781 241.992188 409.179688 242.417969 408.832031 C 242.847656 408.480469 243.289062 408.152344 243.75 407.84375 C 244.210938 407.535156 244.683594 407.253906 245.171875 406.992188 C 245.65625 406.730469 246.15625 406.496094 246.667969 406.285156 C 247.179688 406.074219 247.699219 405.886719 248.226562 405.726562 C 248.753906 405.566406 249.289062 405.433594 249.832031 405.324219 C 250.375 405.214844 250.921875 405.136719 251.472656 405.082031 C 252.019531 405.027344 252.574219 405 253.125 405 Z M 253.125 405 " fill-opacity="1" fill-rule="nonzero"/><path fill="#009688" d="M 253.125 573.75 L 388.125 573.75 C 388.675781 573.75 389.230469 573.777344 389.777344 573.832031 C 390.328125 573.886719 390.875 573.964844 391.417969 574.074219 C 391.960938 574.183594 392.496094 574.316406 393.023438 574.476562 C 393.550781 574.636719 394.070312 574.824219 394.582031 575.035156 C 395.09375 575.246094 395.59375 575.480469 396.078125 575.742188 C 396.566406 576.003906 397.039062 576.285156 397.5 576.59375 C 397.960938 576.902344 398.402344 577.230469 398.832031 577.582031 C 399.257812 577.929688 399.667969 578.300781 400.058594 578.691406 C 400.449219 579.082031 400.820312 579.492188 401.167969 579.917969 C 401.519531 580.347656 401.847656 580.789062 402.15625 581.25 C 402.464844 581.710938 402.746094 582.183594 403.007812 582.671875 C 403.269531 583.15625 403.503906 583.65625 403.714844 584.167969 C 403.925781 584.679688 404.113281 585.199219 404.273438 585.726562 C 404.433594 586.253906 404.566406 586.789062 404.675781 587.332031 C 404.785156 587.875 404.863281 588.421875 404.917969 588.972656 C 404.972656 589.519531 405 590.074219 405 590.625 C 405 591.175781 404.972656 591.730469 404.917969 592.277344 C 404.863281 592.828125 404.785156 593.375 404.675781 593.917969 C 404.566406 594.460938 404.433594 594.996094 404.273438 595.523438 C 404.113281 596.050781 403.925781 596.570312 403.714844 597.082031 C 403.503906 597.59375 403.269531 598.09375 403.007812 598.578125 C 402.746094 599.066406 402.464844 599.539062 402.15625 600 C 401.847656 600.460938 401.519531 600.902344 401.167969 601.332031 C 400.820312 601.757812 400.449219 602.167969 400.058594 602.558594 C 399.667969 602.949219 399.257812 603.320312 398.832031 603.667969 C 398.402344 604.019531 397.960938 604.347656 397.5 604.65625 C 397.039062 604.964844 396.566406 605.246094 396.078125 605.507812 C 395.59375 605.769531 395.09375 606.003906 394.582031 606.214844 C 394.070312 606.425781 393.550781 606.613281 393.023438 606.773438 C 392.496094 606.933594 391.960938 607.066406 391.417969 607.175781 C 390.875 607.285156 390.328125 607.363281 389.777344 607.417969 C 389.230469 607.472656 388.675781 607.5 388.125 607.5 L 253.125 607.5 C 252.574219 607.5 252.019531 607.472656 251.472656 607.417969 C 250.921875 607.363281 250.375 607.285156 249.832031 607.175781 C 249.289062 607.066406 248.753906 606.933594 248.226562 606.773438 C 247.699219 606.613281 247.179688 606.425781 246.667969 606.214844 C 246.15625 606.003906 245.65625 605.769531 245.171875 605.507812 C 244.683594 605.246094 244.210938 604.964844 243.75 604.65625 C 243.289062 604.347656 242.847656 604.019531 242.417969 603.667969 C 241.992188 603.320312 241.582031 602.949219 241.191406 602.558594 C 240.800781 602.167969 240.429688 601.757812 240.082031 601.332031 C 239.730469 600.902344 239.402344 600.460938 239.09375 600 C 238.785156 599.539062 238.503906 599.066406 238.242188 598.578125 C 237.980469 598.09375 237.746094 597.59375 237.535156 597.082031 C 237.324219 596.570312 237.136719 596.050781 236.976562 595.523438 C 236.816406 594.996094 236.683594 594.460938 236.574219 593.917969 C 236.464844 593.375 236.386719 592.828125 236.332031 592.277344 C 236.277344 591.730469 236.25 591.175781 236.25 590.625 C 236.25 590.074219 236.277344 589.519531 236.332031 588.972656 C 236.386719 588.421875 236.464844 587.875 236.574219 587.332031 C 236.683594 586.789062 236.816406 586.253906 236.976562 585.726562 C 237.136719 585.199219 237.324219 584.679688 237.535156 584.167969 C 237.746094 583.65625 237.980469 583.15625 238.242188 582.671875 C 238.503906 582.183594 238.785156 581.710938 239.09375 581.25 C 239.402344 580.789062 239.730469 580.347656 240.082031 579.917969 C 240.429688 579.492188 240.800781 579.082031 241.191406 578.691406 C 241.582031 578.300781 241.992188 577.929688 242.417969 577.582031 C 242.847656 577.230469 243.289062 576.902344 243.75 576.59375 C 244.210938 576.285156 244.683594 576.003906 245.171875 575.742188 C 245.65625 575.480469 246.15625 575.246094 246.667969 575.035156 C 247.179688 574.824219 247.699219 574.636719 248.226562 574.476562 C 248.753906 574.316406 249.289062 574.183594 249.832031 574.074219 C 250.375 573.964844 250.921875 573.886719 251.472656 573.832031 C 252.019531 573.777344 252.574219 573.75 253.125 573.75 Z M 253.125 573.75 " fill-opacity="1" fill-rule="nonzero"/><path fill="#009688" d="M 549.046875 592.667969 L 572.90625 568.804688 C 573.292969 568.414062 573.667969 568.007812 574.019531 567.578125 C 574.367188 567.152344 574.699219 566.707031 575.007812 566.246094 C 575.3125 565.789062 575.597656 565.3125 575.855469 564.828125 C 576.117188 564.339844 576.351562 563.839844 576.5625 563.328125 C 576.777344 562.816406 576.960938 562.296875 577.121094 561.769531 C 577.28125 561.238281 577.414062 560.703125 577.519531 560.160156 C 577.628906 559.621094 577.710938 559.074219 577.761719 558.523438 C 577.816406 557.972656 577.84375 557.421875 577.84375 556.867188 C 577.84375 556.316406 577.816406 555.761719 577.761719 555.214844 C 577.707031 554.664062 577.625 554.117188 577.519531 553.574219 C 577.410156 553.03125 577.273438 552.496094 577.117188 551.96875 C 576.957031 551.441406 576.769531 550.921875 576.558594 550.410156 C 576.34375 549.898438 576.109375 549.398438 575.847656 548.914062 C 575.589844 548.425781 575.304688 547.953125 575 547.492188 C 574.6875 547.03125 574.359375 546.589844 574.011719 546.160156 C 573.660156 545.734375 573.285156 545.324219 572.898438 544.933594 C 572.503906 544.542969 572.097656 544.175781 571.667969 543.824219 C 571.242188 543.472656 570.796875 543.144531 570.339844 542.835938 C 569.878906 542.53125 569.40625 542.246094 568.917969 541.988281 C 568.429688 541.726562 567.933594 541.492188 567.421875 541.277344 C 566.910156 541.066406 566.390625 540.882812 565.859375 540.722656 C 565.332031 540.5625 564.796875 540.425781 564.253906 540.320312 C 563.710938 540.210938 563.164062 540.128906 562.613281 540.078125 C 562.0625 540.023438 561.515625 539.996094 560.960938 539.996094 C 560.40625 539.996094 559.855469 540.023438 559.304688 540.078125 C 558.753906 540.132812 558.207031 540.214844 557.667969 540.320312 C 557.125 540.429688 556.589844 540.5625 556.058594 540.722656 C 555.53125 540.886719 555.011719 541.070312 554.5 541.285156 C 553.988281 541.496094 553.492188 541.730469 553.003906 541.992188 C 552.515625 542.253906 552.039062 542.535156 551.582031 542.84375 C 551.121094 543.152344 550.679688 543.480469 550.253906 543.832031 C 549.824219 544.183594 549.414062 544.554688 549.027344 544.945312 L 525.167969 568.804688 L 501.304688 544.945312 C 500.914062 544.566406 500.503906 544.207031 500.074219 543.867188 C 499.648438 543.527344 499.203125 543.210938 498.742188 542.914062 C 498.285156 542.621094 497.8125 542.347656 497.328125 542.09375 C 496.839844 541.84375 496.34375 541.621094 495.835938 541.417969 C 495.328125 541.214844 494.8125 541.039062 494.289062 540.886719 C 493.765625 540.734375 493.234375 540.609375 492.699219 540.507812 C 492.160156 540.40625 491.617188 540.332031 491.074219 540.285156 C 490.53125 540.238281 489.984375 540.21875 489.4375 540.222656 C 488.894531 540.226562 488.347656 540.257812 487.804688 540.316406 C 487.261719 540.375 486.722656 540.457031 486.1875 540.570312 C 485.652344 540.679688 485.125 540.816406 484.601562 540.976562 C 484.082031 541.136719 483.570312 541.324219 483.066406 541.535156 C 482.5625 541.746094 482.070312 541.980469 481.589844 542.242188 C 481.109375 542.5 480.640625 542.78125 480.1875 543.085938 C 479.734375 543.390625 479.296875 543.71875 478.875 544.0625 C 478.449219 544.410156 478.046875 544.777344 477.664062 545.164062 C 477.277344 545.550781 476.914062 545.953125 476.5625 546.375 C 476.21875 546.796875 475.894531 547.234375 475.585938 547.6875 C 475.28125 548.140625 475 548.609375 474.742188 549.089844 C 474.480469 549.570312 474.246094 550.0625 474.035156 550.566406 C 473.824219 551.070312 473.640625 551.582031 473.476562 552.105469 C 473.316406 552.625 473.179688 553.15625 473.070312 553.691406 C 472.960938 554.226562 472.875 554.761719 472.816406 555.308594 C 472.757812 555.851562 472.730469 556.394531 472.722656 556.941406 C 472.71875 557.488281 472.738281 558.03125 472.785156 558.574219 C 472.832031 559.121094 472.90625 559.660156 473.007812 560.195312 C 473.109375 560.734375 473.234375 561.265625 473.386719 561.789062 C 473.539062 562.3125 473.71875 562.832031 473.917969 563.335938 C 474.121094 563.84375 474.347656 564.339844 474.597656 564.828125 C 474.847656 565.3125 475.121094 565.785156 475.417969 566.242188 C 475.714844 566.703125 476.03125 567.144531 476.367188 567.574219 C 476.707031 568 477.070312 568.414062 477.445312 568.804688 L 501.304688 592.667969 L 477.445312 616.546875 C 477.042969 616.933594 476.660156 617.339844 476.296875 617.765625 C 475.9375 618.191406 475.597656 618.636719 475.277344 619.09375 C 474.960938 619.554688 474.664062 620.03125 474.394531 620.519531 C 474.125 621.007812 473.875 621.507812 473.65625 622.023438 C 473.433594 622.535156 473.242188 623.058594 473.070312 623.59375 C 472.902344 624.125 472.757812 624.667969 472.640625 625.214844 C 472.527344 625.761719 472.4375 626.3125 472.378906 626.867188 C 472.320312 627.421875 472.285156 627.980469 472.28125 628.539062 C 472.273438 629.097656 472.296875 629.65625 472.347656 630.214844 C 472.398438 630.773438 472.476562 631.324219 472.582031 631.875 C 472.683594 632.421875 472.820312 632.964844 472.980469 633.503906 C 473.136719 634.039062 473.320312 634.566406 473.535156 635.082031 C 473.746094 635.601562 473.984375 636.105469 474.246094 636.601562 C 474.507812 637.09375 474.792969 637.574219 475.101562 638.039062 C 475.410156 638.503906 475.742188 638.953125 476.097656 639.386719 C 476.449219 639.820312 476.824219 640.234375 477.222656 640.628906 C 477.617188 641.023438 478.03125 641.398438 478.464844 641.753906 C 478.894531 642.109375 479.34375 642.441406 479.8125 642.75 C 480.277344 643.058594 480.757812 643.34375 481.253906 643.609375 C 481.75 643.871094 482.253906 644.105469 482.769531 644.316406 C 483.289062 644.53125 483.816406 644.714844 484.351562 644.875 C 484.886719 645.035156 485.429688 645.164062 485.976562 645.269531 C 486.527344 645.375 487.082031 645.453125 487.636719 645.503906 C 488.195312 645.554688 488.753906 645.578125 489.3125 645.570312 C 489.871094 645.566406 490.429688 645.535156 490.984375 645.472656 C 491.542969 645.414062 492.09375 645.324219 492.640625 645.210938 C 493.1875 645.09375 493.726562 644.953125 494.261719 644.78125 C 494.792969 644.613281 495.316406 644.417969 495.832031 644.195312 C 496.34375 643.976562 496.847656 643.730469 497.335938 643.460938 C 497.824219 643.1875 498.300781 642.894531 498.761719 642.574219 C 499.21875 642.257812 499.660156 641.917969 500.085938 641.554688 C 500.511719 641.191406 500.917969 640.808594 501.304688 640.40625 L 525.167969 616.546875 L 549.027344 640.40625 C 549.417969 640.796875 549.828125 641.167969 550.253906 641.519531 C 550.679688 641.871094 551.125 642.199219 551.582031 642.507812 C 552.039062 642.8125 552.515625 643.097656 553.003906 643.359375 C 553.492188 643.621094 553.988281 643.855469 554.5 644.066406 C 555.011719 644.277344 555.53125 644.464844 556.0625 644.625 C 556.589844 644.785156 557.125 644.921875 557.667969 645.027344 C 558.207031 645.136719 558.753906 645.21875 559.304688 645.273438 C 559.855469 645.328125 560.40625 645.355469 560.957031 645.355469 C 561.511719 645.355469 562.0625 645.328125 562.613281 645.273438 C 563.160156 645.21875 563.710938 645.136719 564.25 645.03125 C 564.792969 644.921875 565.328125 644.789062 565.859375 644.628906 C 566.386719 644.46875 566.90625 644.285156 567.417969 644.070312 C 567.929688 643.859375 568.429688 643.625 568.917969 643.363281 C 569.40625 643.105469 569.878906 642.820312 570.335938 642.511719 C 570.796875 642.207031 571.242188 641.878906 571.667969 641.527344 C 572.097656 641.175781 572.503906 640.804688 572.898438 640.414062 C 573.289062 640.023438 573.660156 639.617188 574.011719 639.1875 C 574.359375 638.761719 574.6875 638.316406 574.996094 637.859375 C 575.304688 637.398438 575.585938 636.925781 575.847656 636.4375 C 576.109375 635.949219 576.34375 635.453125 576.558594 634.941406 C 576.769531 634.429688 576.957031 633.910156 577.117188 633.382812 C 577.273438 632.851562 577.410156 632.316406 577.519531 631.773438 C 577.625 631.234375 577.710938 630.6875 577.765625 630.136719 C 577.820312 629.585938 577.847656 629.035156 577.84375 628.480469 C 577.847656 627.929688 577.820312 627.378906 577.765625 626.828125 C 577.710938 626.277344 577.628906 625.730469 577.519531 625.1875 C 577.414062 624.644531 577.28125 624.109375 577.117188 623.582031 C 576.957031 623.050781 576.773438 622.53125 576.558594 622.019531 C 576.347656 621.511719 576.113281 621.011719 575.851562 620.523438 C 575.589844 620.039062 575.308594 619.5625 575.003906 619.101562 C 574.695312 618.644531 574.367188 618.199219 574.019531 617.773438 C 573.667969 617.34375 573.296875 616.9375 572.90625 616.546875 Z M 549.046875 592.667969 " fill-opacity="1" fill-rule="nonzero"/></svg>