<svg xmlns="http://www.w3.org/2000/svg" xmlns:xlink="http://www.w3.org/1999/xlink" width="1080" zoomAndPan="magnify" viewBox="0 0 810 809.999993" height="1080" preserveAspectRatio="xMidYMid meet" version="1.0"><path fill="#009688" d="M 472.5 101.25 L 472.5 135 L 337.5 135 L 337.5 101.25 L 472.5 101.25 M 489.375 67.5 L 320.625 67.5 C 320.074219 67.5 319.519531 67.527344 318.972656 67.582031 C 318.421875 67.636719 317.875 67.71875 317.332031 67.824219 C 316.789062 67.933594 316.257812 68.066406 315.726562 68.226562 C 315.195312 68.386719 314.679688 68.574219 314.164062 68.785156 C 313.65625 68.996094 313.15625 69.230469 312.667969 69.492188 C 312.179688 69.753906 311.707031 70.039062 311.25 70.34375 C 310.789062 70.652344 310.347656 70.980469 309.917969 71.332031 C 309.492188 71.683594 309.082031 72.050781 308.691406 72.441406 C 308.300781 72.832031 307.929688 73.242188 307.578125 73.667969 C 307.230469 74.097656 306.898438 74.539062 306.59375 75 C 306.285156 75.460938 306 75.933594 305.742188 76.421875 C 305.480469 76.90625 305.246094 77.40625 305.035156 77.917969 C 304.824219 78.429688 304.640625 78.949219 304.480469 79.476562 C 304.316406 80.007812 304.183594 80.542969 304.074219 81.082031 C 303.96875 81.625 303.886719 82.171875 303.832031 82.722656 C 303.777344 83.269531 303.753906 83.824219 303.75 84.375 L 303.75 101.25 L 151.875 101.25 C 151.324219 101.25 150.769531 101.277344 150.222656 101.332031 C 149.671875 101.386719 149.125 101.464844 148.582031 101.574219 C 148.039062 101.683594 147.503906 101.816406 146.972656 101.976562 C 146.445312 102.136719 145.925781 102.324219 145.414062 102.535156 C 144.90625 102.746094 144.410156 102.980469 143.921875 103.242188 C 143.433594 103.503906 142.960938 103.785156 142.5 104.09375 C 142.039062 104.402344 141.597656 104.730469 141.167969 105.082031 C 140.742188 105.429688 140.332031 105.800781 139.941406 106.191406 C 139.550781 106.582031 139.179688 106.992188 138.828125 107.421875 C 138.480469 107.847656 138.148438 108.289062 137.84375 108.75 C 137.535156 109.210938 137.253906 109.683594 136.996094 110.171875 C 136.734375 110.660156 136.496094 111.15625 136.285156 111.667969 C 136.074219 112.179688 135.890625 112.699219 135.726562 113.226562 C 135.570312 113.753906 135.433594 114.289062 135.324219 114.832031 C 135.214844 115.375 135.136719 115.921875 135.082031 116.472656 C 135.027344 117.019531 135 117.574219 135 118.125 L 135 725.625 C 135 726.175781 135.027344 726.730469 135.082031 727.277344 C 135.136719 727.828125 135.214844 728.375 135.324219 728.917969 C 135.433594 729.457031 135.570312 729.996094 135.726562 730.523438 C 135.886719 731.050781 136.074219 731.570312 136.285156 732.082031 C 136.496094 732.59375 136.730469 733.09375 136.992188 733.578125 C 137.253906 734.066406 137.535156 734.539062 137.84375 735 C 138.148438 735.460938 138.480469 735.902344 138.828125 736.332031 C 139.179688 736.757812 139.550781 737.167969 139.941406 737.558594 C 140.332031 737.949219 140.742188 738.320312 141.167969 738.667969 C 141.597656 739.019531 142.039062 739.347656 142.5 739.65625 C 142.957031 739.964844 143.429688 740.246094 143.917969 740.507812 C 144.40625 740.769531 144.90625 741.003906 145.414062 741.214844 C 145.925781 741.425781 146.445312 741.613281 146.972656 741.773438 C 147.503906 741.933594 148.039062 742.066406 148.582031 742.175781 C 149.125 742.285156 149.671875 742.363281 150.222656 742.417969 C 150.769531 742.472656 151.324219 742.5 151.875 742.5 L 658.125 742.5 C 658.679688 742.5 659.230469 742.472656 659.777344 742.417969 C 660.328125 742.363281 660.871094 742.285156 661.414062 742.175781 C 661.957031 742.066406 662.492188 741.933594 663.023438 741.773438 C 663.554688 741.613281 664.070312 741.425781 664.582031 741.214844 C 665.089844 741.003906 665.589844 740.765625 666.078125 740.507812 C 666.566406 740.246094 667.039062 739.960938 667.496094 739.65625 C 667.960938 739.347656 668.402344 739.019531 668.828125 738.667969 C 669.257812 738.320312 669.667969 737.949219 670.054688 737.558594 C 670.449219 737.167969 670.820312 736.757812 671.171875 736.328125 C 671.519531 735.902344 671.847656 735.460938 672.15625 735 C 672.460938 734.539062 672.746094 734.066406 673.007812 733.578125 C 673.269531 733.089844 673.503906 732.59375 673.714844 732.082031 C 673.925781 731.570312 674.113281 731.050781 674.273438 730.523438 C 674.433594 729.996094 674.570312 729.457031 674.675781 728.917969 C 674.785156 728.375 674.867188 727.828125 674.921875 727.277344 C 674.976562 726.730469 675.003906 726.175781 675 725.625 L 675 118.125 C 675.003906 117.574219 674.976562 117.019531 674.921875 116.46875 C 674.867188 115.921875 674.785156 115.375 674.675781 114.832031 C 674.570312 114.289062 674.433594 113.753906 674.273438 113.226562 C 674.113281 112.695312 673.925781 112.175781 673.714844 111.667969 C 673.503906 111.15625 673.269531 110.65625 673.007812 110.167969 C 672.746094 109.683594 672.460938 109.207031 672.15625 108.75 C 671.847656 108.289062 671.519531 107.847656 671.171875 107.417969 C 670.820312 106.992188 670.449219 106.582031 670.054688 106.191406 C 669.667969 105.800781 669.257812 105.429688 668.828125 105.078125 C 668.402344 104.730469 667.960938 104.398438 667.496094 104.09375 C 667.039062 103.785156 666.566406 103.503906 666.078125 103.242188 C 665.589844 102.980469 665.089844 102.746094 664.582031 102.535156 C 664.070312 102.324219 663.554688 102.136719 663.023438 101.976562 C 662.492188 101.816406 661.957031 101.683594 661.414062 101.574219 C 660.871094 101.464844 660.328125 101.386719 659.777344 101.332031 C 659.230469 101.277344 658.679688 101.25 658.125 101.25 L 506.25 101.25 L 506.25 84.375 C 506.25 83.824219 506.222656 83.269531 506.167969 82.722656 C 506.113281 82.171875 506.03125 81.625 505.925781 81.082031 C 505.816406 80.539062 505.683594 80.003906 505.519531 79.476562 C 505.359375 78.949219 505.171875 78.429688 504.960938 77.917969 C 504.75 77.40625 504.511719 76.90625 504.257812 76.417969 C 503.996094 75.933594 503.710938 75.457031 503.402344 75 C 503.097656 74.539062 502.769531 74.097656 502.417969 73.667969 C 502.066406 73.242188 501.695312 72.832031 501.304688 72.441406 C 500.914062 72.050781 500.507812 71.679688 500.082031 71.328125 C 499.652344 70.980469 499.207031 70.652344 498.746094 70.34375 C 498.289062 70.039062 497.820312 69.753906 497.332031 69.492188 C 496.84375 69.230469 496.34375 68.996094 495.832031 68.785156 C 495.320312 68.574219 494.800781 68.386719 494.269531 68.226562 C 493.742188 68.066406 493.207031 67.933594 492.667969 67.824219 C 492.125 67.71875 491.578125 67.636719 491.027344 67.582031 C 490.480469 67.527344 489.929688 67.5 489.375 67.5 Z M 320.625 168.75 L 489.375 168.75 C 489.929688 168.75 490.480469 168.722656 491.027344 168.667969 C 491.578125 168.613281 492.125 168.53125 492.667969 168.425781 C 493.207031 168.316406 493.742188 168.183594 494.269531 168.023438 C 494.800781 167.863281 495.320312 167.675781 495.832031 167.464844 C 496.34375 167.253906 496.84375 167.019531 497.332031 166.757812 C 497.820312 166.496094 498.289062 166.210938 498.746094 165.90625 C 499.207031 165.597656 499.652344 165.269531 500.078125 164.917969 C 500.507812 164.570312 500.914062 164.199219 501.304688 163.808594 C 501.695312 163.417969 502.066406 163.007812 502.417969 162.578125 C 502.769531 162.152344 503.097656 161.710938 503.402344 161.25 C 503.710938 160.789062 503.996094 160.316406 504.257812 159.828125 C 504.511719 159.34375 504.75 158.84375 504.960938 158.332031 C 505.171875 157.820312 505.359375 157.300781 505.519531 156.773438 C 505.683594 156.246094 505.816406 155.710938 505.925781 155.167969 C 506.03125 154.625 506.113281 154.078125 506.167969 153.527344 C 506.222656 152.980469 506.25 152.425781 506.25 151.875 L 506.25 135 L 641.25 135 L 641.25 708.75 L 168.75 708.75 L 168.75 135 L 303.75 135 L 303.75 151.875 C 303.753906 152.425781 303.777344 152.980469 303.832031 153.527344 C 303.886719 154.078125 303.964844 154.625 304.070312 155.167969 C 304.179688 155.710938 304.316406 156.246094 304.476562 156.773438 C 304.636719 157.300781 304.820312 157.820312 305.03125 158.332031 C 305.246094 158.84375 305.480469 159.34375 305.742188 159.828125 C 306 160.316406 306.285156 160.789062 306.59375 161.25 C 306.898438 161.710938 307.230469 162.152344 307.578125 162.582031 C 307.929688 163.007812 308.300781 163.417969 308.691406 163.808594 C 309.082031 164.199219 309.492188 164.570312 309.917969 164.917969 C 310.347656 165.269531 310.789062 165.597656 311.25 165.90625 C 311.707031 166.210938 312.179688 166.496094 312.667969 166.757812 C 313.15625 167.019531 313.65625 167.253906 314.164062 167.464844 C 314.679688 167.675781 315.195312 167.863281 315.726562 168.023438 C 316.257812 168.183594 316.789062 168.316406 317.332031 168.425781 C 317.875 168.53125 318.421875 168.613281 318.972656 168.667969 C 319.519531 168.722656 320.074219 168.75 320.625 168.75 Z M 320.625 168.75 " fill-opacity="1" fill-rule="nonzero"/><path fill="#009688" d="M 540 405 L 556.875 405 C 557.429688 405 557.980469 404.972656 558.527344 404.917969 C 559.078125 404.863281 559.625 404.785156 560.167969 404.675781 C 560.707031 404.566406 561.242188 404.433594 561.769531 404.273438 C 562.300781 404.113281 562.820312 403.925781 563.332031 403.714844 C 563.839844 403.503906 564.339844 403.265625 564.828125 403.007812 C 565.316406 402.746094 565.789062 402.460938 566.246094 402.15625 C 566.707031 401.847656 567.152344 401.519531 567.578125 401.167969 C 568.007812 400.820312 568.417969 400.449219 568.804688 400.058594 C 569.195312 399.667969 569.566406 399.257812 569.917969 398.832031 C 570.269531 398.402344 570.597656 397.960938 570.90625 397.5 C 571.210938 397.039062 571.496094 396.566406 571.757812 396.078125 C 572.019531 395.589844 572.253906 395.09375 572.464844 394.582031 C 572.675781 394.070312 572.863281 393.550781 573.023438 393.023438 C 573.183594 392.496094 573.320312 391.960938 573.425781 391.417969 C 573.535156 390.875 573.613281 390.328125 573.667969 389.777344 C 573.726562 389.230469 573.753906 388.675781 573.75 388.125 C 573.753906 387.574219 573.726562 387.019531 573.667969 386.472656 C 573.613281 385.921875 573.535156 385.375 573.425781 384.832031 C 573.320312 384.289062 573.183594 383.753906 573.023438 383.226562 C 572.863281 382.695312 572.675781 382.175781 572.464844 381.667969 C 572.253906 381.15625 572.019531 380.65625 571.757812 380.167969 C 571.496094 379.683594 571.210938 379.207031 570.90625 378.75 C 570.597656 378.289062 570.269531 377.847656 569.917969 377.417969 C 569.566406 376.992188 569.195312 376.582031 568.804688 376.191406 C 568.417969 375.800781 568.007812 375.429688 567.578125 375.078125 C 567.152344 374.730469 566.707031 374.398438 566.246094 374.09375 C 565.789062 373.785156 565.316406 373.503906 564.828125 373.242188 C 564.339844 372.980469 563.839844 372.746094 563.332031 372.535156 C 562.820312 372.324219 562.300781 372.136719 561.769531 371.976562 C 561.242188 371.816406 560.707031 371.683594 560.167969 371.574219 C 559.625 371.464844 559.078125 371.386719 558.527344 371.332031 C 557.980469 371.277344 557.429688 371.25 556.875 371.25 L 540 371.25 L 540 253.125 C 540.003906 252.574219 539.976562 252.019531 539.921875 251.472656 C 539.867188 250.921875 539.785156 250.375 539.675781 249.832031 C 539.566406 249.289062 539.429688 248.753906 539.269531 248.226562 C 539.109375 247.695312 538.925781 247.175781 538.710938 246.667969 C 538.503906 246.15625 538.265625 245.65625 538.003906 245.167969 C 537.746094 244.683594 537.460938 244.210938 537.152344 243.75 C 536.847656 243.289062 536.519531 242.847656 536.167969 242.417969 C 535.816406 241.992188 535.449219 241.582031 535.054688 241.191406 C 534.664062 240.800781 534.257812 240.429688 533.832031 240.082031 C 533.402344 239.730469 532.957031 239.402344 532.496094 239.09375 C 532.039062 238.789062 531.566406 238.503906 531.078125 238.242188 C 530.589844 237.980469 530.089844 237.746094 529.578125 237.535156 C 529.070312 237.324219 528.550781 237.136719 528.019531 236.976562 C 527.492188 236.816406 526.957031 236.683594 526.414062 236.574219 C 525.871094 236.464844 525.328125 236.386719 524.777344 236.332031 C 524.230469 236.277344 523.679688 236.25 523.125 236.25 L 455.625 236.25 C 455.074219 236.25 454.519531 236.277344 453.972656 236.332031 C 453.421875 236.386719 452.875 236.46875 452.332031 236.574219 C 451.792969 236.683594 451.257812 236.816406 450.730469 236.976562 C 450.203125 237.136719 449.683594 237.324219 449.167969 237.535156 C 448.660156 237.746094 448.160156 237.984375 447.671875 238.242188 C 447.183594 238.503906 446.707031 238.789062 446.25 239.09375 C 445.789062 239.402344 445.347656 239.730469 444.917969 240.082031 C 444.492188 240.429688 444.082031 240.800781 443.691406 241.191406 C 443.300781 241.582031 442.929688 241.992188 442.582031 242.421875 C 442.230469 242.847656 441.902344 243.289062 441.59375 243.75 C 441.289062 244.210938 441.003906 244.683594 440.746094 245.171875 C 440.484375 245.65625 440.246094 246.15625 440.035156 246.667969 C 439.824219 247.179688 439.640625 247.699219 439.480469 248.226562 C 439.320312 248.753906 439.183594 249.289062 439.074219 249.832031 C 438.96875 250.375 438.886719 250.921875 438.832031 251.472656 C 438.777344 252.019531 438.75 252.574219 438.75 253.125 L 438.75 371.25 L 371.25 371.25 L 371.25 286.875 C 371.253906 286.324219 371.222656 285.769531 371.167969 285.222656 C 371.113281 284.671875 371.03125 284.125 370.925781 283.582031 C 370.816406 283.039062 370.683594 282.503906 370.523438 281.976562 C 370.359375 281.445312 370.175781 280.925781 369.960938 280.417969 C 369.753906 279.90625 369.519531 279.40625 369.257812 278.917969 C 368.996094 278.433594 368.710938 277.957031 368.402344 277.5 C 368.097656 277.039062 367.769531 276.597656 367.417969 276.167969 C 367.070312 275.742188 366.699219 275.332031 366.304688 274.941406 C 365.917969 274.550781 365.507812 274.179688 365.078125 273.832031 C 364.652344 273.480469 364.207031 273.152344 363.746094 272.84375 C 363.285156 272.535156 362.816406 272.253906 362.328125 271.992188 C 361.839844 271.730469 361.339844 271.496094 360.828125 271.285156 C 360.320312 271.074219 359.800781 270.886719 359.269531 270.726562 C 358.742188 270.566406 358.207031 270.429688 357.664062 270.324219 C 357.125 270.214844 356.582031 270.136719 356.03125 270.082031 C 355.480469 270.027344 354.929688 270 354.375 270 L 286.875 270 C 286.324219 270 285.773438 270.027344 285.222656 270.082031 C 284.671875 270.136719 284.128906 270.214844 283.585938 270.324219 C 283.042969 270.429688 282.511719 270.566406 281.980469 270.726562 C 281.453125 270.886719 280.929688 271.070312 280.417969 271.285156 C 279.910156 271.496094 279.410156 271.730469 278.921875 271.992188 C 278.433594 272.253906 277.960938 272.535156 277.5 272.84375 C 277.039062 273.152344 276.597656 273.480469 276.167969 273.832031 C 275.742188 274.179688 275.335938 274.550781 274.945312 274.941406 C 274.550781 275.332031 274.179688 275.742188 273.832031 276.167969 C 273.480469 276.597656 273.152344 277.039062 272.84375 277.5 C 272.539062 277.957031 272.253906 278.433594 271.992188 278.921875 C 271.730469 279.40625 271.496094 279.90625 271.285156 280.417969 C 271.074219 280.925781 270.886719 281.445312 270.726562 281.976562 C 270.566406 282.503906 270.433594 283.039062 270.324219 283.582031 C 270.214844 284.125 270.132812 284.671875 270.082031 285.222656 C 270.027344 285.769531 270 286.324219 270 286.875 L 270 371.25 L 253.125 371.25 C 252.574219 371.25 252.023438 371.277344 251.472656 371.332031 C 250.921875 371.386719 250.375 371.464844 249.832031 371.574219 C 249.292969 371.683594 248.757812 371.816406 248.226562 371.976562 C 247.695312 372.136719 247.179688 372.324219 246.664062 372.535156 C 246.15625 372.746094 245.65625 372.980469 245.167969 373.242188 C 244.679688 373.503906 244.207031 373.785156 243.75 374.09375 C 243.289062 374.402344 242.847656 374.730469 242.417969 375.078125 C 241.992188 375.429688 241.582031 375.800781 241.191406 376.191406 C 240.800781 376.582031 240.429688 376.992188 240.078125 377.417969 C 239.730469 377.847656 239.402344 378.289062 239.09375 378.75 C 238.789062 379.207031 238.503906 379.683594 238.242188 380.167969 C 237.980469 380.65625 237.746094 381.15625 237.535156 381.667969 C 237.324219 382.175781 237.136719 382.699219 236.976562 383.226562 C 236.816406 383.753906 236.683594 384.289062 236.574219 384.832031 C 236.464844 385.375 236.386719 385.921875 236.332031 386.472656 C 236.277344 387.019531 236.253906 387.574219 236.25 388.125 C 236.253906 388.675781 236.277344 389.230469 236.332031 389.777344 C 236.386719 390.328125 236.464844 390.875 236.574219 391.414062 C 236.683594 391.957031 236.816406 392.492188 236.980469 393.023438 C 237.136719 393.550781 237.324219 394.070312 237.535156 394.582031 C 237.746094 395.09375 237.980469 395.589844 238.242188 396.078125 C 238.503906 396.566406 238.789062 397.039062 239.09375 397.5 C 239.402344 397.960938 239.730469 398.402344 240.078125 398.832031 C 240.429688 399.257812 240.800781 399.667969 241.191406 400.058594 C 241.582031 400.449219 241.992188 400.820312 242.417969 401.167969 C 242.847656 401.519531 243.289062 401.847656 243.75 402.15625 C 244.207031 402.460938 244.679688 402.746094 245.167969 403.007812 C 245.65625 403.265625 246.15625 403.503906 246.664062 403.714844 C 247.179688 403.925781 247.695312 404.113281 248.226562 404.273438 C 248.757812 404.433594 249.292969 404.566406 249.832031 404.675781 C 250.375 404.785156 250.921875 404.863281 251.472656 404.917969 C 252.023438 404.972656 252.574219 405 253.125 405 Z M 472.5 270 L 506.25 270 L 506.25 371.25 L 472.5 371.25 Z M 303.75 371.25 L 303.75 303.75 L 337.5 303.75 L 337.5 371.25 Z M 303.75 371.25 " fill-opacity="1" fill-rule="nonzero"/><path fill="#009688" d="M 405 556.875 C 405 558.253906 405.03125 559.636719 405.101562 561.015625 C 405.167969 562.394531 405.273438 563.769531 405.40625 565.144531 C 405.539062 566.519531 405.707031 567.890625 405.914062 569.253906 C 406.113281 570.621094 406.347656 571.980469 406.617188 573.335938 C 406.890625 574.6875 407.191406 576.035156 407.527344 577.375 C 407.859375 578.714844 408.230469 580.046875 408.628906 581.367188 C 409.03125 582.6875 409.464844 584 409.925781 585.296875 C 410.394531 586.597656 410.890625 587.886719 411.417969 589.164062 C 411.949219 590.4375 412.507812 591.699219 413.097656 592.949219 C 413.6875 594.199219 414.308594 595.429688 414.960938 596.648438 C 415.613281 597.867188 416.292969 599.066406 417 600.25 C 417.710938 601.4375 418.449219 602.601562 419.214844 603.75 C 419.980469 604.898438 420.777344 606.027344 421.601562 607.136719 C 422.421875 608.246094 423.273438 609.335938 424.148438 610.402344 C 425.023438 611.46875 425.925781 612.515625 426.855469 613.539062 C 427.78125 614.558594 428.734375 615.558594 429.710938 616.535156 C 430.683594 617.511719 431.6875 618.464844 432.710938 619.390625 C 433.734375 620.320312 434.777344 621.222656 435.84375 622.097656 C 436.914062 622.972656 438 623.820312 439.109375 624.644531 C 440.21875 625.46875 441.347656 626.261719 442.496094 627.027344 C 443.640625 627.796875 444.808594 628.535156 445.996094 629.246094 C 447.179688 629.953125 448.378906 630.636719 449.597656 631.285156 C 450.816406 631.9375 452.046875 632.558594 453.296875 633.148438 C 454.542969 633.738281 455.804688 634.296875 457.082031 634.828125 C 458.359375 635.355469 459.644531 635.851562 460.945312 636.316406 C 462.246094 636.78125 463.558594 637.214844 464.878906 637.617188 C 466.199219 638.015625 467.53125 638.386719 468.871094 638.722656 C 470.210938 639.054688 471.558594 639.359375 472.910156 639.628906 C 474.265625 639.898438 475.625 640.132812 476.992188 640.335938 C 478.359375 640.539062 479.730469 640.707031 481.105469 640.84375 C 482.476562 640.980469 483.855469 641.082031 485.234375 641.148438 C 486.613281 641.214844 487.996094 641.25 489.375 641.25 C 490.753906 641.25 492.132812 641.214844 493.511719 641.148438 C 494.890625 641.082031 496.269531 640.980469 497.644531 640.84375 C 499.015625 640.707031 500.386719 640.539062 501.753906 640.335938 C 503.117188 640.132812 504.480469 639.898438 505.832031 639.628906 C 507.1875 639.359375 508.535156 639.054688 509.875 638.722656 C 511.214844 638.386719 512.546875 638.015625 513.867188 637.617188 C 515.1875 637.214844 516.5 636.78125 517.796875 636.316406 C 519.097656 635.851562 520.386719 635.355469 521.664062 634.828125 C 522.9375 634.296875 524.199219 633.738281 525.449219 633.148438 C 526.695312 632.558594 527.929688 631.9375 529.148438 631.285156 C 530.363281 630.636719 531.566406 629.953125 532.75 629.246094 C 533.933594 628.535156 535.101562 627.796875 536.25 627.027344 C 537.394531 626.261719 538.523438 625.46875 539.632812 624.644531 C 540.742188 623.820312 541.832031 622.972656 542.902344 622.097656 C 543.96875 621.222656 545.011719 620.320312 546.035156 619.390625 C 547.058594 618.464844 548.058594 617.511719 549.035156 616.535156 C 550.011719 615.558594 550.964844 614.558594 551.894531 613.539062 C 552.820312 612.515625 553.722656 611.46875 554.597656 610.402344 C 555.472656 609.335938 556.324219 608.246094 557.144531 607.136719 C 557.972656 606.027344 558.765625 604.898438 559.53125 603.75 C 560.296875 602.601562 561.035156 601.4375 561.746094 600.25 C 562.457031 599.066406 563.136719 597.867188 563.789062 596.648438 C 564.4375 595.429688 565.058594 594.199219 565.648438 592.949219 C 566.238281 591.699219 566.796875 590.4375 567.328125 589.164062 C 567.855469 587.886719 568.351562 586.597656 568.816406 585.300781 C 569.28125 584 569.714844 582.6875 570.117188 581.367188 C 570.515625 580.046875 570.882812 578.714844 571.21875 577.375 C 571.554688 576.035156 571.855469 574.6875 572.125 573.335938 C 572.398438 571.980469 572.632812 570.621094 572.835938 569.253906 C 573.039062 567.890625 573.207031 566.519531 573.34375 565.144531 C 573.480469 563.769531 573.582031 562.394531 573.648438 561.015625 C 573.71875 559.636719 573.75 558.253906 573.75 556.875 C 573.75 555.492188 573.71875 554.113281 573.648438 552.734375 C 573.582031 551.355469 573.480469 549.980469 573.34375 548.605469 C 573.207031 547.230469 573.039062 545.859375 572.835938 544.496094 C 572.632812 543.128906 572.398438 541.765625 572.125 540.414062 C 571.855469 539.058594 571.554688 537.710938 571.21875 536.371094 C 570.882812 535.035156 570.515625 533.703125 570.117188 532.382812 C 569.714844 531.058594 569.28125 529.75 568.816406 528.449219 C 568.351562 527.148438 567.855469 525.859375 567.328125 524.585938 C 566.796875 523.308594 566.238281 522.046875 565.648438 520.800781 C 565.058594 519.550781 564.4375 518.320312 563.789062 517.101562 C 563.136719 515.882812 562.457031 514.683594 561.746094 513.496094 C 561.035156 512.3125 560.296875 511.144531 559.53125 510 C 558.765625 508.851562 557.96875 507.722656 557.148438 506.613281 C 556.324219 505.503906 555.476562 504.414062 554.601562 503.347656 C 553.726562 502.28125 552.824219 501.234375 551.894531 500.210938 C 550.964844 499.1875 550.011719 498.1875 549.035156 497.210938 C 548.058594 496.234375 547.058594 495.285156 546.035156 494.355469 C 545.011719 493.429688 543.96875 492.527344 542.902344 491.652344 C 541.832031 490.773438 540.742188 489.925781 539.632812 489.101562 C 538.523438 488.28125 537.394531 487.484375 536.25 486.71875 C 535.101562 485.953125 533.933594 485.214844 532.75 484.503906 C 531.566406 483.792969 530.363281 483.113281 529.144531 482.460938 C 527.929688 481.8125 526.695312 481.191406 525.449219 480.601562 C 524.199219 480.007812 522.9375 479.449219 521.664062 478.921875 C 520.386719 478.394531 519.101562 477.898438 517.800781 477.433594 C 516.5 476.96875 515.1875 476.535156 513.867188 476.132812 C 512.546875 475.730469 511.214844 475.363281 509.875 475.027344 C 508.535156 474.691406 507.1875 474.390625 505.832031 474.121094 C 504.480469 473.851562 503.117188 473.617188 501.753906 473.414062 C 500.386719 473.210938 499.015625 473.042969 497.644531 472.90625 C 496.269531 472.769531 494.890625 472.667969 493.511719 472.601562 C 492.132812 472.535156 490.753906 472.5 489.375 472.5 C 487.996094 472.5 486.613281 472.535156 485.234375 472.601562 C 483.855469 472.671875 482.480469 472.769531 481.105469 472.90625 C 479.730469 473.042969 478.359375 473.210938 476.996094 473.414062 C 475.628906 473.617188 474.265625 473.851562 472.914062 474.121094 C 471.5625 474.390625 470.214844 474.691406 468.871094 475.027344 C 467.535156 475.363281 466.203125 475.734375 464.882812 476.132812 C 463.5625 476.535156 462.25 476.96875 460.949219 477.433594 C 459.648438 477.898438 458.359375 478.394531 457.085938 478.921875 C 455.808594 479.453125 454.546875 480.011719 453.300781 480.601562 C 452.050781 481.191406 450.820312 481.8125 449.601562 482.464844 C 448.382812 483.113281 447.179688 483.796875 445.996094 484.503906 C 444.8125 485.214844 443.644531 485.953125 442.496094 486.71875 C 441.347656 487.488281 440.222656 488.28125 439.113281 489.105469 C 438.003906 489.925781 436.917969 490.777344 435.851562 491.652344 C 434.78125 492.53125 433.734375 493.429688 432.710938 494.359375 C 431.6875 495.285156 430.691406 496.238281 429.714844 497.214844 C 428.734375 498.1875 427.78125 499.1875 426.859375 500.210938 C 425.929688 501.234375 425.027344 502.28125 424.152344 503.347656 C 423.277344 504.414062 422.425781 505.503906 421.605469 506.613281 C 420.78125 507.722656 419.984375 508.851562 419.21875 510 C 418.453125 511.148438 417.714844 512.3125 417.003906 513.496094 C 416.296875 514.683594 415.617188 515.882812 414.964844 517.101562 C 414.3125 518.320312 413.691406 519.550781 413.101562 520.800781 C 412.511719 522.046875 411.953125 523.3125 411.421875 524.585938 C 410.894531 525.863281 410.398438 527.148438 409.929688 528.449219 C 409.46875 529.75 409.035156 531.0625 408.632812 532.382812 C 408.234375 533.703125 407.867188 535.035156 407.53125 536.375 C 407.195312 537.714844 406.890625 539.058594 406.621094 540.414062 C 406.351562 541.769531 406.117188 543.128906 405.914062 544.496094 C 405.710938 545.859375 405.542969 547.230469 405.410156 548.605469 C 405.273438 549.980469 405.171875 551.355469 405.101562 552.734375 C 405.035156 554.113281 405.003906 555.496094 405 556.875 Z M 540 556.875 C 540.003906 558.53125 539.921875 560.1875 539.757812 561.835938 C 539.59375 563.484375 539.347656 565.125 539.027344 566.75 C 538.703125 568.378906 538.296875 569.984375 537.816406 571.570312 C 537.335938 573.15625 536.777344 574.714844 536.140625 576.246094 C 535.507812 577.78125 534.800781 579.277344 534.019531 580.738281 C 533.238281 582.203125 532.386719 583.621094 531.464844 585 C 530.542969 586.378906 529.558594 587.710938 528.503906 588.992188 C 527.453125 590.273438 526.34375 591.5 525.171875 592.671875 C 524 593.84375 522.769531 594.957031 521.488281 596.007812 C 520.207031 597.0625 518.878906 598.046875 517.5 598.96875 C 516.121094 599.886719 514.699219 600.742188 513.238281 601.523438 C 511.777344 602.304688 510.277344 603.011719 508.746094 603.644531 C 507.214844 604.28125 505.65625 604.839844 504.070312 605.320312 C 502.480469 605.800781 500.875 606.203125 499.25 606.527344 C 497.621094 606.851562 495.984375 607.09375 494.335938 607.257812 C 492.6875 607.417969 491.035156 607.5 489.375 607.5 C 487.71875 607.5 486.066406 607.417969 484.414062 607.257812 C 482.761719 607.09375 481.125 606.851562 479.496094 606.527344 C 477.871094 606.203125 476.261719 605.800781 474.675781 605.320312 C 473.089844 604.839844 471.53125 604.28125 469.996094 603.644531 C 468.464844 603.011719 466.96875 602.304688 465.507812 601.523438 C 464.042969 600.742188 462.621094 599.886719 461.246094 598.96875 C 459.867188 598.046875 458.539062 597.0625 457.257812 596.007812 C 455.976562 594.957031 454.746094 593.84375 453.574219 592.671875 C 452.402344 591.5 451.292969 590.273438 450.242188 588.992188 C 449.1875 587.710938 448.199219 586.378906 447.277344 585 C 446.355469 583.621094 445.507812 582.203125 444.722656 580.738281 C 443.941406 579.277344 443.234375 577.78125 442.601562 576.246094 C 441.96875 574.714844 441.410156 573.15625 440.929688 571.570312 C 440.449219 569.984375 440.042969 568.378906 439.71875 566.75 C 439.398438 565.125 439.15625 563.484375 438.992188 561.835938 C 438.832031 560.1875 438.746094 558.53125 438.75 556.875 L 489.375 556.875 L 489.375 506.25 C 491.035156 506.25 492.6875 506.332031 494.335938 506.496094 C 495.984375 506.65625 497.621094 506.898438 499.25 507.222656 C 500.875 507.546875 502.480469 507.949219 504.070312 508.429688 C 505.65625 508.910156 507.214844 509.46875 508.746094 510.101562 C 510.277344 510.738281 511.777344 511.445312 513.238281 512.226562 C 514.699219 513.007812 516.121094 513.859375 517.5 514.78125 C 518.878906 515.703125 520.207031 516.6875 521.488281 517.742188 C 522.769531 518.792969 524 519.90625 525.171875 521.078125 C 526.34375 522.25 527.453125 523.476562 528.503906 524.757812 C 529.558594 526.039062 530.542969 527.371094 531.464844 528.75 C 532.386719 530.128906 533.238281 531.546875 534.023438 533.011719 C 534.804688 534.472656 535.507812 535.96875 536.140625 537.5 C 536.777344 539.03125 537.335938 540.59375 537.816406 542.179688 C 538.296875 543.765625 538.703125 545.371094 539.027344 546.996094 C 539.347656 548.625 539.59375 550.261719 539.757812 551.914062 C 539.921875 553.5625 540.003906 555.214844 540 556.875 Z M 540 556.875 " fill-opacity="1" fill-rule="nonzero"/><path fill="#009688" d="M 354.375 472.5 L 253.125 472.5 C 252.574219 472.5 252.023438 472.527344 251.472656 472.582031 C 250.921875 472.636719 250.375 472.714844 249.832031 472.824219 C 249.292969 472.933594 248.757812 473.066406 248.226562 473.226562 C 247.695312 473.386719 247.179688 473.574219 246.664062 473.785156 C 246.15625 473.996094 245.65625 474.230469 245.167969 474.492188 C 244.679688 474.753906 244.207031 475.035156 243.75 475.34375 C 243.289062 475.652344 242.847656 475.980469 242.417969 476.332031 C 241.992188 476.679688 241.582031 477.050781 241.191406 477.441406 C 240.800781 477.832031 240.429688 478.242188 240.078125 478.667969 C 239.730469 479.097656 239.402344 479.539062 239.09375 480 C 238.789062 480.460938 238.503906 480.933594 238.242188 481.421875 C 237.980469 481.90625 237.746094 482.40625 237.535156 482.917969 C 237.324219 483.425781 237.136719 483.945312 236.976562 484.476562 C 236.816406 485.003906 236.683594 485.539062 236.574219 486.082031 C 236.464844 486.625 236.386719 487.171875 236.332031 487.722656 C 236.277344 488.269531 236.253906 488.824219 236.25 489.375 C 236.253906 489.925781 236.277344 490.480469 236.332031 491.027344 C 236.386719 491.578125 236.464844 492.125 236.574219 492.667969 C 236.683594 493.207031 236.816406 493.742188 236.980469 494.273438 C 237.136719 494.800781 237.324219 495.320312 237.535156 495.832031 C 237.746094 496.34375 237.980469 496.839844 238.242188 497.328125 C 238.503906 497.816406 238.789062 498.289062 239.09375 498.75 C 239.402344 499.210938 239.730469 499.652344 240.078125 500.078125 C 240.429688 500.507812 240.800781 500.914062 241.191406 501.304688 C 241.582031 501.699219 241.992188 502.070312 242.417969 502.417969 C 242.847656 502.769531 243.289062 503.097656 243.75 503.40625 C 244.207031 503.710938 244.679688 503.996094 245.167969 504.257812 C 245.65625 504.519531 246.15625 504.753906 246.664062 504.964844 C 247.179688 505.175781 247.695312 505.363281 248.226562 505.523438 C 248.757812 505.683594 249.292969 505.816406 249.832031 505.925781 C 250.375 506.03125 250.921875 506.113281 251.472656 506.167969 C 252.023438 506.222656 252.574219 506.25 253.125 506.25 L 354.375 506.25 C 354.929688 506.25 355.480469 506.222656 356.03125 506.167969 C 356.582031 506.113281 357.125 506.03125 357.664062 505.925781 C 358.207031 505.816406 358.742188 505.683594 359.269531 505.523438 C 359.800781 505.363281 360.320312 505.175781 360.828125 504.964844 C 361.339844 504.753906 361.839844 504.515625 362.328125 504.257812 C 362.816406 503.996094 363.285156 503.710938 363.746094 503.40625 C 364.207031 503.097656 364.652344 502.769531 365.078125 502.417969 C 365.507812 502.066406 365.917969 501.699219 366.304688 501.304688 C 366.699219 500.914062 367.070312 500.507812 367.417969 500.078125 C 367.769531 499.652344 368.097656 499.210938 368.402344 498.75 C 368.710938 498.289062 368.996094 497.816406 369.257812 497.328125 C 369.519531 496.839844 369.753906 496.34375 369.960938 495.832031 C 370.175781 495.320312 370.363281 494.800781 370.523438 494.273438 C 370.683594 493.746094 370.816406 493.207031 370.925781 492.667969 C 371.03125 492.125 371.113281 491.578125 371.167969 491.027344 C 371.222656 490.480469 371.253906 489.925781 371.25 489.375 C 371.253906 488.824219 371.222656 488.269531 371.167969 487.722656 C 371.113281 487.171875 371.03125 486.625 370.925781 486.082031 C 370.816406 485.539062 370.683594 485.003906 370.523438 484.476562 C 370.359375 483.949219 370.175781 483.425781 369.960938 482.917969 C 369.753906 482.40625 369.519531 481.90625 369.257812 481.421875 C 368.996094 480.933594 368.710938 480.457031 368.402344 480 C 368.097656 479.539062 367.769531 479.097656 367.417969 478.667969 C 367.070312 478.242188 366.699219 477.832031 366.304688 477.441406 C 365.917969 477.050781 365.507812 476.679688 365.078125 476.332031 C 364.652344 475.980469 364.207031 475.652344 363.746094 475.34375 C 363.285156 475.035156 362.816406 474.753906 362.328125 474.492188 C 361.839844 474.230469 361.339844 473.996094 360.828125 473.785156 C 360.320312 473.574219 359.800781 473.386719 359.269531 473.226562 C 358.742188 473.066406 358.207031 472.933594 357.664062 472.824219 C 357.125 472.714844 356.582031 472.636719 356.03125 472.582031 C 355.480469 472.527344 354.929688 472.5 354.375 472.5 Z M 354.375 472.5 " fill-opacity="1" fill-rule="nonzero"/><path fill="#009688" d="M 253.125 573.75 L 320.625 573.75 C 321.175781 573.75 321.726562 573.722656 322.277344 573.667969 C 322.828125 573.613281 323.371094 573.535156 323.914062 573.425781 C 324.457031 573.316406 324.992188 573.183594 325.519531 573.023438 C 326.050781 572.863281 326.570312 572.675781 327.082031 572.464844 C 327.589844 572.253906 328.089844 572.019531 328.578125 571.757812 C 329.066406 571.496094 329.539062 571.210938 329.996094 570.90625 C 330.457031 570.597656 330.902344 570.269531 331.332031 569.917969 C 331.757812 569.570312 332.167969 569.199219 332.558594 568.804688 C 332.949219 568.414062 333.320312 568.007812 333.671875 567.578125 C 334.023438 567.152344 334.351562 566.710938 334.65625 566.25 C 334.964844 565.789062 335.246094 565.316406 335.507812 564.828125 C 335.769531 564.34375 336.003906 563.84375 336.214844 563.332031 C 336.425781 562.820312 336.613281 562.300781 336.773438 561.773438 C 336.933594 561.246094 337.070312 560.710938 337.175781 560.167969 C 337.285156 559.625 337.367188 559.078125 337.417969 558.527344 C 337.476562 557.980469 337.503906 557.425781 337.5 556.875 C 337.503906 556.324219 337.476562 555.769531 337.417969 555.21875 C 337.367188 554.671875 337.285156 554.125 337.175781 553.582031 C 337.070312 553.039062 336.933594 552.503906 336.773438 551.976562 C 336.613281 551.445312 336.425781 550.925781 336.214844 550.414062 C 336.003906 549.90625 335.769531 549.40625 335.507812 548.917969 C 335.246094 548.429688 334.964844 547.957031 334.65625 547.5 C 334.351562 547.039062 334.023438 546.59375 333.671875 546.167969 C 333.320312 545.742188 332.949219 545.332031 332.558594 544.941406 C 332.167969 544.550781 331.757812 544.179688 331.332031 543.828125 C 330.902344 543.480469 330.460938 543.148438 330 542.84375 C 329.539062 542.535156 329.066406 542.253906 328.578125 541.992188 C 328.089844 541.730469 327.589844 541.496094 327.082031 541.285156 C 326.570312 541.074219 326.050781 540.886719 325.519531 540.726562 C 324.992188 540.566406 324.457031 540.433594 323.914062 540.324219 C 323.371094 540.214844 322.828125 540.136719 322.277344 540.082031 C 321.726562 540.027344 321.175781 540 320.625 540 L 253.125 540 C 252.574219 540 252.023438 540.027344 251.472656 540.082031 C 250.921875 540.136719 250.375 540.214844 249.832031 540.324219 C 249.292969 540.433594 248.757812 540.566406 248.226562 540.726562 C 247.695312 540.886719 247.179688 541.070312 246.664062 541.285156 C 246.15625 541.496094 245.65625 541.730469 245.167969 541.992188 C 244.679688 542.253906 244.207031 542.535156 243.75 542.84375 C 243.289062 543.148438 242.847656 543.480469 242.417969 543.828125 C 241.992188 544.179688 241.582031 544.550781 241.191406 544.941406 C 240.800781 545.332031 240.429688 545.742188 240.078125 546.167969 C 239.730469 546.59375 239.402344 547.039062 239.09375 547.5 C 238.789062 547.957031 238.503906 548.433594 238.242188 548.917969 C 237.980469 549.40625 237.746094 549.90625 237.535156 550.417969 C 237.324219 550.925781 237.136719 551.445312 236.976562 551.976562 C 236.816406 552.503906 236.683594 553.039062 236.574219 553.582031 C 236.464844 554.125 236.386719 554.671875 236.332031 555.222656 C 236.277344 555.769531 236.253906 556.324219 236.25 556.875 C 236.253906 557.425781 236.277344 557.980469 236.332031 558.527344 C 236.386719 559.078125 236.464844 559.625 236.574219 560.167969 C 236.683594 560.707031 236.816406 561.246094 236.980469 561.773438 C 237.136719 562.300781 237.324219 562.820312 237.535156 563.332031 C 237.746094 563.84375 237.980469 564.339844 238.242188 564.828125 C 238.503906 565.316406 238.789062 565.789062 239.09375 566.25 C 239.402344 566.710938 239.730469 567.152344 240.078125 567.578125 C 240.429688 568.007812 240.800781 568.414062 241.191406 568.804688 C 241.582031 569.199219 241.992188 569.570312 242.417969 569.917969 C 242.847656 570.269531 243.289062 570.597656 243.75 570.90625 C 244.207031 571.210938 244.679688 571.496094 245.167969 571.757812 C 245.65625 572.019531 246.15625 572.253906 246.664062 572.464844 C 247.179688 572.675781 247.695312 572.863281 248.226562 573.023438 C 248.757812 573.183594 249.292969 573.316406 249.832031 573.425781 C 250.375 573.535156 250.921875 573.613281 251.472656 573.667969 C 252.023438 573.722656 252.574219 573.75 253.125 573.75 Z M 253.125 573.75 " fill-opacity="1" fill-rule="nonzero"/><path fill="#009688" d="M 354.375 607.5 L 253.125 607.5 C 252.574219 607.5 252.023438 607.527344 251.472656 607.582031 C 250.921875 607.636719 250.375 607.714844 249.832031 607.824219 C 249.292969 607.933594 248.757812 608.066406 248.226562 608.226562 C 247.695312 608.386719 247.179688 608.574219 246.664062 608.785156 C 246.15625 608.996094 245.65625 609.230469 245.167969 609.492188 C 244.679688 609.753906 244.207031 610.035156 243.75 610.34375 C 243.289062 610.652344 242.847656 610.980469 242.417969 611.328125 C 241.992188 611.679688 241.582031 612.050781 241.191406 612.441406 C 240.800781 612.832031 240.429688 613.242188 240.078125 613.671875 C 239.730469 614.097656 239.402344 614.539062 239.09375 615 C 238.789062 615.460938 238.503906 615.933594 238.242188 616.421875 C 237.980469 616.90625 237.746094 617.40625 237.535156 617.917969 C 237.324219 618.425781 237.136719 618.949219 236.976562 619.476562 C 236.816406 620.003906 236.683594 620.539062 236.574219 621.082031 C 236.464844 621.625 236.386719 622.171875 236.332031 622.71875 C 236.277344 623.269531 236.253906 623.824219 236.25 624.375 C 236.253906 624.925781 236.277344 625.480469 236.332031 626.027344 C 236.386719 626.578125 236.464844 627.125 236.574219 627.667969 C 236.683594 628.207031 236.816406 628.742188 236.980469 629.273438 C 237.136719 629.800781 237.324219 630.320312 237.535156 630.832031 C 237.746094 631.34375 237.980469 631.839844 238.242188 632.328125 C 238.503906 632.816406 238.789062 633.289062 239.09375 633.75 C 239.402344 634.207031 239.730469 634.652344 240.078125 635.078125 C 240.429688 635.507812 240.800781 635.917969 241.191406 636.304688 C 241.582031 636.699219 241.992188 637.070312 242.417969 637.417969 C 242.847656 637.769531 243.289062 638.097656 243.75 638.40625 C 244.207031 638.710938 244.679688 638.996094 245.167969 639.257812 C 245.65625 639.515625 246.15625 639.753906 246.664062 639.964844 C 247.179688 640.175781 247.695312 640.363281 248.226562 640.523438 C 248.757812 640.683594 249.292969 640.816406 249.832031 640.925781 C 250.375 641.03125 250.921875 641.113281 251.472656 641.167969 C 252.023438 641.222656 252.574219 641.25 253.125 641.25 L 354.375 641.25 C 354.929688 641.25 355.480469 641.222656 356.03125 641.167969 C 356.582031 641.113281 357.125 641.03125 357.664062 640.925781 C 358.207031 640.816406 358.742188 640.683594 359.269531 640.523438 C 359.800781 640.363281 360.320312 640.175781 360.828125 639.964844 C 361.339844 639.753906 361.839844 639.515625 362.328125 639.257812 C 362.816406 638.996094 363.285156 638.710938 363.746094 638.40625 C 364.207031 638.097656 364.652344 637.769531 365.078125 637.417969 C 365.507812 637.070312 365.917969 636.699219 366.304688 636.304688 C 366.699219 635.917969 367.070312 635.507812 367.417969 635.078125 C 367.769531 634.652344 368.097656 634.210938 368.402344 633.75 C 368.710938 633.289062 368.996094 632.816406 369.257812 632.328125 C 369.519531 631.84375 369.753906 631.34375 369.960938 630.832031 C 370.175781 630.320312 370.363281 629.800781 370.523438 629.273438 C 370.683594 628.746094 370.816406 628.210938 370.925781 627.667969 C 371.03125 627.125 371.113281 626.578125 371.167969 626.027344 C 371.222656 625.480469 371.253906 624.925781 371.25 624.375 C 371.253906 623.824219 371.222656 623.269531 371.167969 622.71875 C 371.113281 622.171875 371.03125 621.625 370.925781 621.082031 C 370.816406 620.539062 370.683594 620.003906 370.523438 619.476562 C 370.359375 618.949219 370.175781 618.425781 369.960938 617.917969 C 369.753906 617.40625 369.519531 616.90625 369.257812 616.421875 C 368.996094 615.933594 368.710938 615.460938 368.402344 615 C 368.097656 614.539062 367.769531 614.097656 367.417969 613.671875 C 367.070312 613.242188 366.699219 612.832031 366.304688 612.441406 C 365.917969 612.050781 365.507812 611.679688 365.078125 611.328125 C 364.652344 610.980469 364.207031 610.652344 363.746094 610.34375 C 363.285156 610.035156 362.816406 609.753906 362.328125 609.492188 C 361.839844 609.230469 361.339844 608.996094 360.828125 608.785156 C 360.320312 608.574219 359.800781 608.386719 359.269531 608.226562 C 358.742188 608.066406 358.207031 607.933594 357.664062 607.824219 C 357.125 607.71875 356.582031 607.636719 356.03125 607.582031 C 355.480469 607.527344 354.929688 607.5 354.375 607.5 Z M 354.375 607.5 " fill-opacity="1" fill-rule="nonzero"/></svg>