<svg xmlns="http://www.w3.org/2000/svg" xmlns:xlink="http://www.w3.org/1999/xlink" width="1080" zoomAndPan="magnify" viewBox="0 0 810 809.999993" height="1080" preserveAspectRatio="xMidYMid meet" version="1.0"><path fill="#009688" d="M 388.125 371.25 C 388.675781 371.25 389.230469 371.222656 389.777344 371.167969 C 390.328125 371.113281 390.875 371.035156 391.417969 370.925781 C 391.957031 370.816406 392.496094 370.683594 393.023438 370.523438 C 393.550781 370.363281 394.070312 370.175781 394.582031 369.964844 C 395.09375 369.753906 395.59375 369.515625 396.078125 369.257812 C 396.566406 368.996094 397.039062 368.710938 397.5 368.40625 C 397.960938 368.097656 398.402344 367.769531 398.832031 367.417969 C 399.257812 367.070312 399.667969 366.699219 400.058594 366.308594 C 400.449219 365.917969 400.816406 365.507812 401.167969 365.082031 C 401.519531 364.652344 401.847656 364.210938 402.15625 363.75 C 402.460938 363.289062 402.746094 362.816406 403.007812 362.328125 C 403.269531 361.84375 403.503906 361.34375 403.714844 360.832031 C 403.925781 360.320312 404.113281 359.800781 404.273438 359.273438 C 404.433594 358.742188 404.566406 358.207031 404.675781 357.667969 C 404.785156 357.125 404.863281 356.578125 404.917969 356.027344 C 404.972656 355.480469 405 354.925781 405 354.375 L 405 185.625 L 641.25 185.625 L 641.25 371.25 C 641.25 371.804688 641.277344 372.355469 641.332031 372.90625 C 641.386719 373.453125 641.464844 374 641.574219 374.542969 C 641.679688 375.085938 641.816406 375.621094 641.976562 376.148438 C 642.136719 376.675781 642.324219 377.195312 642.535156 377.707031 C 642.746094 378.21875 642.980469 378.71875 643.242188 379.203125 C 643.503906 379.691406 643.785156 380.164062 644.09375 380.625 C 644.402344 381.085938 644.730469 381.527344 645.082031 381.957031 C 645.429688 382.382812 645.800781 382.792969 646.191406 383.183594 C 646.582031 383.574219 646.992188 383.945312 647.417969 384.292969 C 647.847656 384.644531 648.289062 384.972656 648.75 385.28125 C 649.207031 385.585938 649.683594 385.871094 650.171875 386.132812 C 650.65625 386.390625 651.15625 386.628906 651.667969 386.839844 C 652.175781 387.050781 652.699219 387.238281 653.226562 387.398438 C 653.753906 387.558594 654.289062 387.691406 654.832031 387.800781 C 655.375 387.910156 655.921875 387.988281 656.472656 388.042969 C 657.019531 388.097656 657.574219 388.125 658.125 388.125 C 658.675781 388.125 659.230469 388.097656 659.777344 388.042969 C 660.328125 387.988281 660.875 387.910156 661.417969 387.800781 C 661.960938 387.691406 662.496094 387.558594 663.023438 387.398438 C 663.550781 387.238281 664.070312 387.050781 664.582031 386.839844 C 665.09375 386.628906 665.59375 386.390625 666.078125 386.132812 C 666.566406 385.871094 667.039062 385.585938 667.5 385.28125 C 667.960938 384.972656 668.402344 384.644531 668.828125 384.292969 C 669.257812 383.945312 669.664062 383.574219 670.058594 383.183594 C 670.449219 382.792969 670.820312 382.382812 671.167969 381.957031 C 671.519531 381.527344 671.847656 381.085938 672.15625 380.625 C 672.460938 380.164062 672.746094 379.691406 673.007812 379.203125 C 673.265625 378.71875 673.503906 378.21875 673.714844 377.707031 C 673.925781 377.195312 674.113281 376.675781 674.273438 376.148438 C 674.433594 375.621094 674.566406 375.085938 674.675781 374.542969 C 674.785156 374 674.863281 373.453125 674.917969 372.90625 C 674.972656 372.355469 675 371.804688 675 371.25 L 675 168.75 C 675 168.199219 674.972656 167.644531 674.917969 167.097656 C 674.863281 166.546875 674.785156 166 674.675781 165.457031 C 674.566406 164.914062 674.433594 164.378906 674.273438 163.851562 C 674.113281 163.324219 673.925781 162.800781 673.714844 162.292969 C 673.503906 161.78125 673.265625 161.28125 673.007812 160.792969 C 672.746094 160.308594 672.460938 159.832031 672.15625 159.375 C 671.847656 158.914062 671.519531 158.472656 671.167969 158.042969 C 670.820312 157.617188 670.449219 157.207031 670.058594 156.816406 C 669.664062 156.425781 669.257812 156.054688 668.828125 155.707031 C 668.402344 155.355469 667.960938 155.027344 667.5 154.71875 C 667.039062 154.410156 666.566406 154.128906 666.078125 153.867188 C 665.59375 153.605469 665.09375 153.371094 664.582031 153.160156 C 664.070312 152.949219 663.550781 152.761719 663.023438 152.601562 C 662.496094 152.441406 661.960938 152.308594 661.417969 152.199219 C 660.875 152.089844 660.328125 152.011719 659.777344 151.957031 C 659.230469 151.902344 658.675781 151.875 658.125 151.875 L 388.125 151.875 C 387.574219 151.875 387.019531 151.902344 386.472656 151.957031 C 385.921875 152.011719 385.375 152.089844 384.832031 152.199219 C 384.289062 152.308594 383.753906 152.441406 383.226562 152.601562 C 382.699219 152.761719 382.175781 152.949219 381.667969 153.160156 C 381.15625 153.371094 380.65625 153.605469 380.171875 153.867188 C 379.683594 154.128906 379.207031 154.410156 378.75 154.71875 C 378.289062 155.027344 377.847656 155.355469 377.417969 155.707031 C 376.992188 156.054688 376.582031 156.425781 376.191406 156.816406 C 375.800781 157.207031 375.429688 157.617188 375.082031 158.042969 C 374.730469 158.472656 374.402344 158.914062 374.09375 159.375 C 373.785156 159.835938 373.503906 160.308594 373.242188 160.796875 C 372.980469 161.28125 372.746094 161.78125 372.535156 162.292969 C 372.324219 162.804688 372.136719 163.324219 371.976562 163.851562 C 371.816406 164.382812 371.683594 164.914062 371.574219 165.457031 C 371.464844 166 371.386719 166.546875 371.332031 167.097656 C 371.277344 167.644531 371.25 168.199219 371.25 168.75 L 371.25 354.375 C 371.25 354.925781 371.277344 355.480469 371.332031 356.027344 C 371.386719 356.578125 371.464844 357.125 371.574219 357.667969 C 371.683594 358.207031 371.816406 358.742188 371.976562 359.273438 C 372.136719 359.800781 372.324219 360.320312 372.535156 360.832031 C 372.746094 361.34375 372.980469 361.84375 373.242188 362.328125 C 373.503906 362.816406 373.785156 363.289062 374.09375 363.75 C 374.402344 364.210938 374.730469 364.652344 375.082031 365.082031 C 375.429688 365.507812 375.800781 365.917969 376.191406 366.308594 C 376.582031 366.699219 376.992188 367.070312 377.417969 367.417969 C 377.847656 367.769531 378.289062 368.097656 378.75 368.40625 C 379.207031 368.710938 379.683594 368.996094 380.171875 369.257812 C 380.65625 369.515625 381.15625 369.753906 381.667969 369.964844 C 382.175781 370.175781 382.699219 370.363281 383.226562 370.523438 C 383.753906 370.683594 384.289062 370.816406 384.832031 370.925781 C 385.375 371.035156 385.921875 371.113281 386.472656 371.167969 C 387.019531 371.222656 387.574219 371.25 388.125 371.25 Z M 388.125 371.25 " fill-opacity="1" fill-rule="nonzero"/><path fill="#009688" d="M 438.75 219.386719 L 472.5 219.386719 L 472.5 253.136719 L 438.75 253.136719 Z M 438.75 219.386719 " fill-opacity="1" fill-rule="nonzero"/><path fill="#009688" d="M 438.75 286.886719 L 472.5 286.886719 L 472.5 320.636719 L 438.75 320.636719 Z M 438.75 286.886719 " fill-opacity="1" fill-rule="nonzero"/><path fill="#009688" d="M 506.25 286.886719 L 540 286.886719 L 540 320.636719 L 506.25 320.636719 Z M 506.25 286.886719 " fill-opacity="1" fill-rule="nonzero"/><path fill="#009688" d="M 573.75 286.886719 L 607.5 286.886719 L 607.5 320.636719 L 573.75 320.636719 Z M 573.75 286.886719 " fill-opacity="1" fill-rule="nonzero"/><path fill="#009688" d="M 438.75 354.386719 L 506.25 354.386719 L 506.25 388.136719 L 438.75 388.136719 Z M 438.75 354.386719 " fill-opacity="1" fill-rule="nonzero"/><path fill="#009688" d="M 540 354.386719 L 607.5 354.386719 L 607.5 388.136719 L 540 388.136719 Z M 540 354.386719 " fill-opacity="1" fill-rule="nonzero"/><path fill="#009688" d="M 506.25 219.386719 L 540 219.386719 L 540 253.136719 L 506.25 253.136719 Z M 506.25 219.386719 " fill-opacity="1" fill-rule="nonzero"/><path fill="#009688" d="M 573.75 219.386719 L 607.5 219.386719 L 607.5 253.136719 L 573.75 253.136719 Z M 573.75 219.386719 " fill-opacity="1" fill-rule="nonzero"/><path fill="#009688" d="M 185.625 388.125 C 186.175781 388.125 186.730469 388.097656 187.277344 388.042969 C 187.828125 387.988281 188.375 387.910156 188.917969 387.800781 C 189.460938 387.691406 189.996094 387.558594 190.523438 387.398438 C 191.050781 387.238281 191.570312 387.050781 192.082031 386.839844 C 192.59375 386.628906 193.09375 386.390625 193.578125 386.132812 C 194.066406 385.871094 194.539062 385.585938 195 385.28125 C 195.460938 384.972656 195.902344 384.644531 196.332031 384.292969 C 196.757812 383.945312 197.167969 383.574219 197.558594 383.183594 C 197.949219 382.792969 198.320312 382.382812 198.667969 381.957031 C 199.019531 381.527344 199.347656 381.085938 199.65625 380.625 C 199.960938 380.164062 200.246094 379.691406 200.507812 379.203125 C 200.769531 378.71875 201.003906 378.21875 201.214844 377.707031 C 201.425781 377.195312 201.613281 376.675781 201.773438 376.148438 C 201.933594 375.617188 202.066406 375.082031 202.175781 374.542969 C 202.285156 374 202.363281 373.453125 202.417969 372.902344 C 202.472656 372.355469 202.5 371.800781 202.5 371.25 L 202.5 270 L 320.625 270 C 321.175781 270 321.730469 269.972656 322.277344 269.917969 C 322.828125 269.863281 323.375 269.785156 323.917969 269.675781 C 324.460938 269.566406 324.996094 269.433594 325.523438 269.273438 C 326.050781 269.113281 326.570312 268.925781 327.082031 268.714844 C 327.59375 268.503906 328.09375 268.265625 328.578125 268.007812 C 329.066406 267.746094 329.539062 267.460938 330 267.15625 C 330.460938 266.847656 330.902344 266.519531 331.332031 266.167969 C 331.757812 265.820312 332.167969 265.449219 332.558594 265.058594 C 332.949219 264.667969 333.320312 264.257812 333.667969 263.832031 C 334.019531 263.402344 334.347656 262.960938 334.65625 262.5 C 334.960938 262.039062 335.246094 261.566406 335.507812 261.078125 C 335.769531 260.59375 336.003906 260.09375 336.214844 259.582031 C 336.425781 259.070312 336.613281 258.550781 336.773438 258.023438 C 336.933594 257.496094 337.066406 256.960938 337.175781 256.417969 C 337.285156 255.875 337.363281 255.328125 337.417969 254.777344 C 337.472656 254.230469 337.5 253.679688 337.5 253.125 C 337.5 252.574219 337.472656 252.019531 337.417969 251.472656 C 337.363281 250.921875 337.285156 250.375 337.175781 249.832031 C 337.066406 249.289062 336.933594 248.753906 336.773438 248.226562 C 336.613281 247.699219 336.425781 247.175781 336.214844 246.667969 C 336.003906 246.15625 335.769531 245.65625 335.507812 245.167969 C 335.246094 244.683594 334.964844 244.207031 334.65625 243.75 C 334.347656 243.289062 334.019531 242.847656 333.671875 242.417969 C 333.320312 241.992188 332.949219 241.582031 332.558594 241.191406 C 332.167969 240.800781 331.757812 240.429688 331.332031 240.082031 C 330.902344 239.730469 330.460938 239.402344 330 239.09375 C 329.539062 238.785156 329.066406 238.503906 328.578125 238.242188 C 328.09375 237.980469 327.59375 237.746094 327.082031 237.535156 C 326.570312 237.324219 326.050781 237.136719 325.523438 236.976562 C 324.996094 236.816406 324.460938 236.683594 323.917969 236.574219 C 323.375 236.464844 322.828125 236.386719 322.277344 236.332031 C 321.730469 236.277344 321.175781 236.25 320.625 236.25 L 185.625 236.25 C 185.074219 236.25 184.519531 236.277344 183.972656 236.332031 C 183.421875 236.386719 182.875 236.464844 182.332031 236.574219 C 181.789062 236.683594 181.253906 236.816406 180.726562 236.976562 C 180.199219 237.136719 179.675781 237.324219 179.167969 237.535156 C 178.65625 237.746094 178.15625 237.980469 177.671875 238.242188 C 177.183594 238.503906 176.707031 238.785156 176.25 239.09375 C 175.789062 239.402344 175.347656 239.730469 174.917969 240.082031 C 174.492188 240.429688 174.082031 240.800781 173.691406 241.191406 C 173.300781 241.582031 172.929688 241.992188 172.582031 242.417969 C 172.230469 242.847656 171.902344 243.289062 171.59375 243.75 C 171.289062 244.210938 171.003906 244.683594 170.742188 245.171875 C 170.484375 245.65625 170.246094 246.15625 170.035156 246.667969 C 169.824219 247.179688 169.636719 247.699219 169.476562 248.226562 C 169.316406 248.753906 169.183594 249.289062 169.074219 249.832031 C 168.964844 250.375 168.886719 250.921875 168.832031 251.472656 C 168.777344 252.019531 168.75 252.574219 168.75 253.125 L 168.75 371.25 C 168.75 371.800781 168.777344 372.355469 168.832031 372.902344 C 168.886719 373.453125 168.964844 374 169.074219 374.542969 C 169.179688 375.082031 169.316406 375.617188 169.476562 376.148438 C 169.636719 376.675781 169.824219 377.195312 170.035156 377.707031 C 170.246094 378.21875 170.480469 378.71875 170.742188 379.203125 C 171.003906 379.691406 171.285156 380.164062 171.59375 380.625 C 171.902344 381.085938 172.230469 381.527344 172.582031 381.957031 C 172.929688 382.382812 173.300781 382.792969 173.691406 383.183594 C 174.082031 383.574219 174.492188 383.945312 174.917969 384.292969 C 175.347656 384.644531 175.789062 384.972656 176.25 385.28125 C 176.707031 385.585938 177.183594 385.871094 177.667969 386.132812 C 178.15625 386.390625 178.65625 386.628906 179.167969 386.839844 C 179.675781 387.050781 180.195312 387.238281 180.726562 387.398438 C 181.253906 387.558594 181.789062 387.691406 182.332031 387.800781 C 182.875 387.910156 183.421875 387.988281 183.972656 388.042969 C 184.519531 388.097656 185.074219 388.125 185.625 388.125 Z M 185.625 388.125 " fill-opacity="1" fill-rule="nonzero"/><path fill="#009688" d="M 236.25 303.761719 L 270 303.761719 L 270 337.511719 L 236.25 337.511719 Z M 236.25 303.761719 " fill-opacity="1" fill-rule="nonzero"/><path fill="#009688" d="M 303.75 303.761719 L 337.5 303.761719 L 337.5 337.511719 L 303.75 337.511719 Z M 303.75 303.761719 " fill-opacity="1" fill-rule="nonzero"/><path fill="#009688" d="M 725.625 624.375 L 675 624.375 L 675 588.9375 C 676.6875 588.59375 678.363281 588.195312 680.027344 587.75 C 681.691406 587.300781 683.34375 586.804688 684.976562 586.253906 C 686.609375 585.707031 688.226562 585.109375 689.820312 584.460938 C 691.417969 583.8125 692.996094 583.117188 694.550781 582.375 C 696.105469 581.628906 697.632812 580.839844 699.140625 580.003906 C 700.648438 579.164062 702.125 578.28125 703.578125 577.351562 C 705.03125 576.425781 706.453125 575.453125 707.84375 574.4375 C 709.234375 573.421875 710.597656 572.363281 711.925781 571.265625 C 713.25 570.167969 714.542969 569.027344 715.800781 567.851562 C 717.058594 566.671875 718.28125 565.457031 719.464844 564.203125 C 720.648438 562.953125 721.789062 561.664062 722.894531 560.339844 C 724 559.019531 725.0625 557.664062 726.082031 556.273438 C 727.105469 554.886719 728.082031 553.46875 729.019531 552.019531 C 729.953125 550.570312 730.839844 549.097656 731.6875 547.59375 C 732.53125 546.09375 733.328125 544.566406 734.078125 543.015625 C 734.828125 541.464844 735.53125 539.890625 736.183594 538.296875 C 736.839844 536.703125 737.445312 535.089844 738 533.457031 C 738.554688 531.824219 739.058594 530.179688 739.515625 528.515625 C 739.96875 526.855469 740.371094 525.179688 740.722656 523.492188 C 741.074219 521.804688 741.375 520.109375 741.621094 518.402344 C 741.871094 516.699219 742.066406 514.988281 742.210938 513.269531 C 742.351562 511.550781 742.441406 509.832031 742.480469 508.109375 C 742.519531 506.386719 742.503906 504.664062 742.433594 502.941406 C 742.367188 501.21875 742.246094 499.503906 742.074219 497.785156 C 741.898438 496.074219 741.675781 494.363281 741.398438 492.664062 C 741.117188 490.960938 740.789062 489.273438 740.40625 487.59375 C 740.027344 485.910156 739.59375 484.242188 739.109375 482.589844 C 738.625 480.933594 738.09375 479.296875 737.507812 477.675781 C 736.925781 476.054688 736.292969 474.453125 735.609375 472.871094 C 734.925781 471.289062 734.195312 469.726562 733.417969 468.1875 C 732.640625 466.652344 731.816406 465.140625 730.949219 463.652344 C 730.078125 462.164062 729.164062 460.707031 728.203125 459.273438 C 727.242188 457.84375 726.238281 456.441406 725.195312 455.074219 C 724.148438 453.703125 723.0625 452.367188 721.933594 451.0625 C 720.804688 449.757812 719.640625 448.492188 718.433594 447.257812 C 717.230469 446.027344 715.988281 444.835938 714.710938 443.679688 C 713.429688 442.523438 712.117188 441.40625 710.773438 440.332031 C 709.425781 439.257812 708.046875 438.222656 706.636719 437.234375 C 705.226562 436.242188 703.789062 435.296875 702.320312 434.394531 C 700.851562 433.488281 699.359375 432.632812 697.835938 431.820312 C 696.316406 431.011719 694.773438 430.246094 693.207031 429.53125 C 691.636719 428.8125 690.050781 428.144531 688.441406 427.527344 C 686.832031 426.90625 685.207031 426.339844 683.566406 425.820312 C 681.921875 425.300781 680.265625 424.832031 678.59375 424.410156 C 676.921875 423.992188 675.238281 423.628906 673.542969 423.3125 C 671.847656 422.996094 670.144531 422.734375 668.4375 422.523438 C 666.726562 422.3125 665.011719 422.15625 663.289062 422.050781 C 661.570312 421.945312 659.847656 421.890625 658.125 421.890625 C 656.402344 421.890625 654.679688 421.945312 652.960938 422.050781 C 651.238281 422.15625 649.523438 422.3125 647.8125 422.523438 C 646.105469 422.734375 644.402344 422.996094 642.707031 423.3125 C 641.011719 423.628906 639.332031 423.992188 637.660156 424.410156 C 635.988281 424.832031 634.328125 425.300781 632.6875 425.820312 C 631.042969 426.339844 629.417969 426.90625 627.808594 427.527344 C 626.199219 428.144531 624.613281 428.8125 623.046875 429.53125 C 621.476562 430.246094 619.933594 431.011719 618.414062 431.820312 C 616.894531 432.632812 615.398438 433.488281 613.929688 434.394531 C 612.460938 435.296875 611.023438 436.242188 609.613281 437.234375 C 608.203125 438.222656 606.824219 439.257812 605.476562 440.332031 C 604.132812 441.40625 602.820312 442.523438 601.539062 443.679688 C 600.261719 444.835938 599.019531 446.027344 597.816406 447.261719 C 596.609375 448.492188 595.441406 449.757812 594.316406 451.0625 C 593.1875 452.367188 592.101562 453.703125 591.058594 455.074219 C 590.011719 456.441406 589.007812 457.84375 588.046875 459.273438 C 587.089844 460.707031 586.171875 462.164062 585.304688 463.652344 C 584.433594 465.140625 583.609375 466.652344 582.832031 468.1875 C 582.054688 469.726562 581.324219 471.289062 580.640625 472.871094 C 579.957031 474.453125 579.324219 476.054688 578.742188 477.675781 C 578.15625 479.296875 577.625 480.933594 577.140625 482.589844 C 576.65625 484.242188 576.222656 485.910156 575.84375 487.59375 C 575.460938 489.273438 575.132812 490.960938 574.855469 492.664062 C 574.578125 494.363281 574.351562 496.074219 574.175781 497.785156 C 574.003906 499.5 573.882812 501.21875 573.816406 502.941406 C 573.746094 504.664062 573.734375 506.386719 573.769531 508.109375 C 573.808594 509.832031 573.898438 511.550781 574.039062 513.269531 C 574.183594 514.988281 574.378906 516.699219 574.628906 518.402344 C 574.875 520.109375 575.175781 521.804688 575.527344 523.492188 C 575.878906 525.179688 576.28125 526.851562 576.734375 528.515625 C 577.191406 530.179688 577.695312 531.824219 578.25 533.457031 C 578.804688 535.089844 579.410156 536.703125 580.066406 538.296875 C 580.71875 539.890625 581.421875 541.460938 582.171875 543.015625 C 582.921875 544.566406 583.71875 546.09375 584.5625 547.59375 C 585.40625 549.097656 586.296875 550.570312 587.230469 552.019531 C 588.167969 553.46875 589.144531 554.886719 590.164062 556.273438 C 591.1875 557.664062 592.25 559.019531 593.355469 560.339844 C 594.460938 561.664062 595.601562 562.953125 596.785156 564.203125 C 597.96875 565.457031 599.191406 566.671875 600.449219 567.851562 C 601.707031 569.027344 603 570.167969 604.328125 571.265625 C 605.652344 572.363281 607.015625 573.421875 608.40625 574.4375 C 609.800781 575.453125 611.222656 576.425781 612.671875 577.351562 C 614.125 578.28125 615.605469 579.164062 617.109375 580.003906 C 618.617188 580.839844 620.144531 581.628906 621.699219 582.375 C 623.253906 583.117188 624.832031 583.8125 626.425781 584.460938 C 628.023438 585.109375 629.640625 585.707031 631.273438 586.253906 C 632.90625 586.804688 634.558594 587.300781 636.222656 587.75 C 637.886719 588.195312 639.5625 588.59375 641.25 588.9375 L 641.25 624.375 L 540 624.375 L 540 438.75 C 540 438.195312 539.972656 437.644531 539.917969 437.097656 C 539.863281 436.546875 539.785156 436 539.675781 435.457031 C 539.566406 434.914062 539.433594 434.378906 539.273438 433.851562 C 539.113281 433.320312 538.925781 432.800781 538.714844 432.292969 C 538.503906 431.78125 538.265625 431.28125 538.007812 430.792969 C 537.746094 430.308594 537.464844 429.832031 537.15625 429.375 C 536.847656 428.914062 536.519531 428.472656 536.167969 428.042969 C 535.816406 427.617188 535.449219 427.207031 535.058594 426.816406 C 534.667969 426.425781 534.257812 426.054688 533.828125 425.707031 C 533.402344 425.355469 532.960938 425.027344 532.5 424.71875 C 532.039062 424.410156 531.566406 424.128906 531.078125 423.867188 C 530.59375 423.605469 530.09375 423.371094 529.582031 423.160156 C 529.070312 422.949219 528.550781 422.761719 528.023438 422.601562 C 527.492188 422.441406 526.957031 422.308594 526.417969 422.199219 C 525.875 422.089844 525.328125 422.011719 524.777344 421.957031 C 524.230469 421.902344 523.675781 421.875 523.125 421.875 L 399.207031 421.875 L 331.777344 368.929688 C 330.988281 368.308594 330.152344 367.761719 329.269531 367.28125 C 328.390625 366.800781 327.476562 366.394531 326.527344 366.070312 C 325.578125 365.742188 324.609375 365.496094 323.621094 365.328125 C 322.632812 365.164062 321.636719 365.078125 320.632812 365.078125 C 319.628906 365.078125 318.632812 365.164062 317.644531 365.328125 C 316.652344 365.496094 315.683594 365.742188 314.738281 366.070312 C 313.789062 366.394531 312.875 366.800781 311.992188 367.28125 C 311.113281 367.761719 310.277344 368.308594 309.488281 368.929688 L 241.988281 421.875 L 118.125 421.875 C 117.574219 421.875 117.019531 421.902344 116.472656 421.957031 C 115.921875 422.011719 115.375 422.089844 114.832031 422.199219 C 114.289062 422.308594 113.753906 422.441406 113.226562 422.601562 C 112.699219 422.761719 112.175781 422.949219 111.667969 423.160156 C 111.15625 423.371094 110.65625 423.605469 110.171875 423.867188 C 109.683594 424.128906 109.210938 424.410156 108.75 424.71875 C 108.289062 425.027344 107.847656 425.355469 107.417969 425.707031 C 106.992188 426.054688 106.582031 426.425781 106.191406 426.816406 C 105.800781 427.207031 105.429688 427.617188 105.082031 428.042969 C 104.730469 428.472656 104.402344 428.914062 104.09375 429.375 C 103.785156 429.835938 103.503906 430.308594 103.242188 430.796875 C 102.984375 431.28125 102.746094 431.78125 102.535156 432.292969 C 102.324219 432.804688 102.136719 433.324219 101.976562 433.851562 C 101.816406 434.378906 101.683594 434.917969 101.574219 435.457031 C 101.464844 436 101.386719 436.546875 101.332031 437.097656 C 101.277344 437.644531 101.25 438.195312 101.25 438.75 L 101.25 624.375 L 84.375 624.375 C 83.824219 624.375 83.269531 624.402344 82.722656 624.457031 C 82.171875 624.511719 81.625 624.589844 81.082031 624.699219 C 80.539062 624.808594 80.003906 624.941406 79.476562 625.101562 C 78.949219 625.261719 78.425781 625.449219 77.917969 625.660156 C 77.40625 625.871094 76.90625 626.105469 76.417969 626.367188 C 75.933594 626.628906 75.457031 626.910156 75 627.21875 C 74.539062 627.527344 74.097656 627.855469 73.667969 628.207031 C 73.242188 628.554688 72.832031 628.925781 72.441406 629.316406 C 72.050781 629.707031 71.679688 630.117188 71.332031 630.542969 C 70.980469 630.972656 70.652344 631.414062 70.34375 631.875 C 70.035156 632.335938 69.753906 632.808594 69.492188 633.296875 C 69.230469 633.78125 68.996094 634.28125 68.785156 634.792969 C 68.574219 635.300781 68.386719 635.824219 68.226562 636.351562 C 68.066406 636.878906 67.933594 637.417969 67.824219 637.957031 C 67.714844 638.5 67.636719 639.046875 67.582031 639.597656 C 67.527344 640.144531 67.5 640.699219 67.5 641.25 C 67.5 641.804688 67.527344 642.355469 67.582031 642.902344 C 67.636719 643.453125 67.714844 644 67.824219 644.542969 C 67.933594 645.085938 68.066406 645.621094 68.226562 646.148438 C 68.386719 646.675781 68.574219 647.195312 68.785156 647.707031 C 68.996094 648.21875 69.230469 648.714844 69.492188 649.203125 C 69.753906 649.691406 70.035156 650.164062 70.34375 650.625 C 70.652344 651.085938 70.980469 651.527344 71.332031 651.953125 C 71.679688 652.382812 72.050781 652.792969 72.441406 653.183594 C 72.832031 653.574219 73.242188 653.945312 73.667969 654.292969 C 74.097656 654.644531 74.539062 654.972656 75 655.28125 C 75.457031 655.585938 75.933594 655.871094 76.421875 656.132812 C 76.90625 656.394531 77.40625 656.628906 77.917969 656.839844 C 78.425781 657.050781 78.949219 657.238281 79.476562 657.398438 C 80.003906 657.558594 80.539062 657.691406 81.082031 657.800781 C 81.625 657.910156 82.171875 657.988281 82.722656 658.042969 C 83.269531 658.097656 83.824219 658.125 84.375 658.125 L 725.625 658.125 C 726.179688 658.125 726.730469 658.097656 727.277344 658.042969 C 727.828125 657.988281 728.375 657.910156 728.917969 657.800781 C 729.457031 657.691406 729.996094 657.558594 730.523438 657.398438 C 731.050781 657.238281 731.570312 657.050781 732.082031 656.839844 C 732.59375 656.628906 733.09375 656.394531 733.578125 656.132812 C 734.066406 655.871094 734.539062 655.585938 735 655.28125 C 735.460938 654.972656 735.902344 654.644531 736.332031 654.292969 C 736.757812 653.945312 737.167969 653.574219 737.558594 653.183594 C 737.949219 652.792969 738.320312 652.382812 738.667969 651.953125 C 739.019531 651.527344 739.347656 651.085938 739.65625 650.625 C 739.964844 650.164062 740.246094 649.691406 740.507812 649.203125 C 740.769531 648.714844 741.003906 648.21875 741.214844 647.707031 C 741.425781 647.195312 741.613281 646.675781 741.773438 646.148438 C 741.933594 645.621094 742.066406 645.085938 742.175781 644.542969 C 742.285156 644 742.363281 643.453125 742.417969 642.902344 C 742.472656 642.355469 742.5 641.804688 742.5 641.25 C 742.5 640.699219 742.472656 640.144531 742.417969 639.597656 C 742.363281 639.046875 742.285156 638.5 742.175781 637.957031 C 742.066406 637.414062 741.933594 636.878906 741.773438 636.351562 C 741.613281 635.824219 741.425781 635.300781 741.214844 634.792969 C 741.003906 634.28125 740.769531 633.78125 740.507812 633.292969 C 740.246094 632.808594 739.964844 632.335938 739.65625 631.875 C 739.347656 631.414062 739.019531 630.972656 738.667969 630.542969 C 738.320312 630.117188 737.949219 629.707031 737.558594 629.316406 C 737.167969 628.925781 736.757812 628.554688 736.332031 628.207031 C 735.902344 627.855469 735.460938 627.527344 735 627.21875 C 734.539062 626.910156 734.066406 626.628906 733.578125 626.367188 C 733.09375 626.105469 732.59375 625.871094 732.082031 625.660156 C 731.570312 625.449219 731.050781 625.261719 730.523438 625.101562 C 729.996094 624.941406 729.457031 624.808594 728.917969 624.699219 C 728.375 624.589844 727.828125 624.511719 727.277344 624.457031 C 726.730469 624.402344 726.179688 624.375 725.625 624.375 Z M 236.25 624.375 L 135 624.375 L 135 556.875 L 236.25 556.875 Z M 236.25 523.125 L 135 523.125 L 135 455.625 L 236.25 455.625 Z M 354.375 624.375 L 286.875 624.375 L 286.875 540 L 354.375 540 Z M 320.625 506.25 C 319.519531 506.25 318.417969 506.195312 317.316406 506.085938 C 316.21875 505.980469 315.125 505.816406 314.039062 505.601562 C 312.957031 505.386719 311.886719 505.117188 310.828125 504.796875 C 309.769531 504.476562 308.730469 504.105469 307.710938 503.679688 C 306.6875 503.257812 305.691406 502.785156 304.714844 502.265625 C 303.738281 501.742188 302.792969 501.175781 301.875 500.5625 C 300.957031 499.949219 300.066406 499.289062 299.214844 498.589844 C 298.359375 497.886719 297.542969 497.144531 296.761719 496.363281 C 295.976562 495.582031 295.238281 494.765625 294.535156 493.910156 C 293.835938 493.054688 293.175781 492.167969 292.5625 491.25 C 291.949219 490.332031 291.382812 489.386719 290.859375 488.410156 C 290.339844 487.433594 289.867188 486.4375 289.445312 485.414062 C 289.019531 484.394531 288.648438 483.355469 288.328125 482.296875 C 288.007812 481.238281 287.738281 480.167969 287.523438 479.082031 C 287.308594 478 287.144531 476.90625 287.039062 475.808594 C 286.929688 474.707031 286.875 473.605469 286.875 472.5 C 286.875 471.394531 286.929688 470.292969 287.039062 469.191406 C 287.144531 468.089844 287.308594 467 287.523438 465.914062 C 287.738281 464.832031 288.007812 463.761719 288.328125 462.703125 C 288.648438 461.644531 289.019531 460.605469 289.445312 459.585938 C 289.867188 458.5625 290.339844 457.566406 290.859375 456.589844 C 291.382812 455.617188 291.949219 454.667969 292.5625 453.75 C 293.175781 452.828125 293.835938 451.945312 294.535156 451.089844 C 295.238281 450.234375 295.976562 449.417969 296.761719 448.632812 C 297.542969 447.851562 298.359375 447.113281 299.214844 446.410156 C 300.066406 445.710938 300.953125 445.050781 301.875 444.4375 C 302.792969 443.824219 303.738281 443.257812 304.714844 442.734375 C 305.691406 442.214844 306.6875 441.742188 307.710938 441.320312 C 308.730469 440.894531 309.769531 440.523438 310.828125 440.203125 C 311.886719 439.882812 312.957031 439.613281 314.039062 439.398438 C 315.125 439.183594 316.21875 439.019531 317.316406 438.914062 C 318.417969 438.804688 319.519531 438.75 320.625 438.75 C 321.730469 438.75 322.832031 438.804688 323.933594 438.914062 C 325.035156 439.019531 326.125 439.183594 327.207031 439.398438 C 328.292969 439.613281 329.363281 439.882812 330.421875 440.203125 C 331.480469 440.523438 332.519531 440.894531 333.539062 441.320312 C 334.5625 441.742188 335.558594 442.214844 336.535156 442.734375 C 337.507812 443.257812 338.457031 443.824219 339.375 444.4375 C 340.292969 445.050781 341.179688 445.710938 342.035156 446.410156 C 342.890625 447.113281 343.707031 447.851562 344.488281 448.632812 C 345.269531 449.417969 346.011719 450.234375 346.714844 451.089844 C 347.414062 451.945312 348.074219 452.828125 348.6875 453.75 C 349.300781 454.667969 349.867188 455.617188 350.390625 456.589844 C 350.910156 457.566406 351.382812 458.5625 351.804688 459.585938 C 352.226562 460.605469 352.601562 461.644531 352.921875 462.703125 C 353.242188 463.761719 353.511719 464.832031 353.726562 465.914062 C 353.941406 467 354.105469 468.089844 354.210938 469.191406 C 354.320312 470.292969 354.375 471.394531 354.375 472.5 C 354.375 473.605469 354.320312 474.707031 354.210938 475.808594 C 354.105469 476.90625 353.941406 478 353.726562 479.082031 C 353.511719 480.167969 353.242188 481.238281 352.921875 482.296875 C 352.601562 483.355469 352.226562 484.394531 351.804688 485.414062 C 351.382812 486.4375 350.910156 487.433594 350.390625 488.410156 C 349.867188 489.382812 349.300781 490.332031 348.6875 491.25 C 348.074219 492.167969 347.414062 493.054688 346.714844 493.910156 C 346.011719 494.765625 345.269531 495.582031 344.488281 496.363281 C 343.707031 497.144531 342.890625 497.886719 342.035156 498.589844 C 341.179688 499.289062 340.292969 499.949219 339.375 500.5625 C 338.457031 501.175781 337.507812 501.742188 336.535156 502.265625 C 335.558594 502.785156 334.5625 503.257812 333.539062 503.679688 C 332.519531 504.105469 331.480469 504.476562 330.421875 504.796875 C 329.363281 505.117188 328.292969 505.386719 327.207031 505.601562 C 326.125 505.816406 325.035156 505.980469 323.933594 506.085938 C 322.832031 506.195312 321.730469 506.25 320.625 506.25 Z M 506.25 624.375 L 405 624.375 L 405 556.875 L 506.25 556.875 Z M 506.25 523.125 L 405 523.125 L 405 455.625 L 506.25 455.625 Z M 658.125 506.25 C 657.574219 506.25 657.019531 506.277344 656.472656 506.332031 C 655.921875 506.386719 655.375 506.464844 654.832031 506.574219 C 654.289062 506.683594 653.753906 506.816406 653.226562 506.976562 C 652.699219 507.136719 652.179688 507.324219 651.667969 507.535156 C 651.15625 507.746094 650.65625 507.980469 650.171875 508.242188 C 649.683594 508.503906 649.210938 508.785156 648.75 509.09375 C 648.289062 509.402344 647.847656 509.730469 647.417969 510.082031 C 646.992188 510.429688 646.582031 510.800781 646.191406 511.191406 C 645.800781 511.582031 645.429688 511.992188 645.082031 512.421875 C 644.730469 512.847656 644.402344 513.289062 644.09375 513.75 C 643.785156 514.210938 643.503906 514.683594 643.242188 515.171875 C 642.984375 515.65625 642.746094 516.15625 642.535156 516.667969 C 642.324219 517.175781 642.136719 517.699219 641.976562 518.226562 C 641.816406 518.753906 641.683594 519.289062 641.574219 519.832031 C 641.464844 520.375 641.386719 520.921875 641.332031 521.472656 C 641.277344 522.019531 641.25 522.574219 641.25 523.125 L 641.25 553.769531 C 640.320312 553.441406 639.402344 553.085938 638.492188 552.703125 C 637.585938 552.320312 636.6875 551.914062 635.804688 551.480469 C 634.921875 551.042969 634.050781 550.585938 633.191406 550.101562 C 632.335938 549.613281 631.492188 549.105469 630.664062 548.570312 C 629.835938 548.035156 629.027344 547.476562 628.230469 546.894531 C 627.433594 546.3125 626.65625 545.710938 625.898438 545.082031 C 625.136719 544.457031 624.398438 543.804688 623.675781 543.136719 C 622.953125 542.464844 622.25 541.773438 621.570312 541.0625 C 620.886719 540.351562 620.226562 539.621094 619.589844 538.871094 C 618.949219 538.121094 618.332031 537.351562 617.738281 536.566406 C 617.144531 535.78125 616.574219 534.976562 616.027344 534.160156 C 615.480469 533.339844 614.957031 532.503906 614.457031 531.65625 C 613.960938 530.804688 613.488281 529.941406 613.039062 529.066406 C 612.589844 528.1875 612.167969 527.296875 611.773438 526.394531 C 611.375 525.492188 611.007812 524.578125 610.664062 523.65625 C 610.320312 522.734375 610.003906 521.800781 609.71875 520.859375 C 609.429688 519.914062 609.167969 518.964844 608.933594 518.007812 C 608.703125 517.050781 608.496094 516.085938 608.320312 515.117188 C 608.144531 514.148438 607.996094 513.175781 607.875 512.199219 C 607.753906 511.21875 607.664062 510.238281 607.601562 509.253906 C 607.539062 508.273438 607.503906 507.289062 607.5 506.300781 C 607.496094 505.316406 607.519531 504.332031 607.570312 503.347656 C 607.625 502.363281 607.703125 501.382812 607.816406 500.402344 C 607.925781 499.425781 608.0625 498.449219 608.230469 497.480469 C 608.394531 496.507812 608.589844 495.542969 608.8125 494.582031 C 609.035156 493.625 609.289062 492.671875 609.566406 491.726562 C 609.84375 490.78125 610.148438 489.84375 610.484375 488.917969 C 610.816406 487.988281 611.175781 487.074219 611.5625 486.167969 C 611.949219 485.261719 612.363281 484.367188 612.800781 483.484375 C 613.242188 482.601562 613.707031 481.734375 614.195312 480.878906 C 614.683594 480.023438 615.199219 479.183594 615.738281 478.359375 C 616.277344 477.535156 616.839844 476.726562 617.425781 475.933594 C 618.011719 475.140625 618.617188 474.367188 619.25 473.609375 C 619.882812 472.855469 620.535156 472.117188 621.207031 471.398438 C 621.882812 470.679688 622.578125 469.980469 623.292969 469.304688 C 624.007812 468.625 624.742188 467.96875 625.496094 467.335938 C 626.246094 466.699219 627.019531 466.085938 627.808594 465.496094 C 628.597656 464.90625 629.402344 464.339844 630.226562 463.796875 C 631.046875 463.253906 631.882812 462.734375 632.734375 462.242188 C 633.589844 461.746094 634.453125 461.277344 635.335938 460.835938 C 636.214844 460.390625 637.105469 459.972656 638.011719 459.582031 C 638.914062 459.191406 639.828125 458.824219 640.753906 458.488281 C 641.679688 458.152344 642.617188 457.839844 643.558594 457.554688 C 644.503906 457.273438 645.453125 457.015625 646.410156 456.789062 C 647.371094 456.5625 648.335938 456.359375 649.304688 456.1875 C 650.277344 456.019531 651.25 455.875 652.226562 455.757812 C 653.207031 455.644531 654.1875 455.558594 655.171875 455.5 C 656.15625 455.445312 657.140625 455.414062 658.125 455.414062 C 659.109375 455.414062 660.09375 455.445312 661.078125 455.5 C 662.0625 455.558594 663.042969 455.644531 664.019531 455.757812 C 665 455.875 665.972656 456.019531 666.945312 456.1875 C 667.914062 456.359375 668.878906 456.5625 669.835938 456.789062 C 670.796875 457.015625 671.746094 457.273438 672.691406 457.554688 C 673.632812 457.839844 674.570312 458.152344 675.496094 458.488281 C 676.421875 458.824219 677.335938 459.191406 678.238281 459.582031 C 679.144531 459.972656 680.035156 460.390625 680.914062 460.835938 C 681.792969 461.277344 682.660156 461.746094 683.511719 462.242188 C 684.367188 462.734375 685.203125 463.253906 686.023438 463.796875 C 686.847656 464.339844 687.652344 464.90625 688.441406 465.496094 C 689.230469 466.085938 690 466.699219 690.753906 467.335938 C 691.507812 467.96875 692.242188 468.625 692.957031 469.304688 C 693.671875 469.980469 694.367188 470.679688 695.042969 471.398438 C 695.714844 472.117188 696.367188 472.855469 697 473.609375 C 697.628906 474.367188 698.238281 475.140625 698.824219 475.933594 C 699.410156 476.726562 699.972656 477.535156 700.511719 478.359375 C 701.050781 479.183594 701.566406 480.023438 702.054688 480.878906 C 702.542969 481.734375 703.007812 482.601562 703.449219 483.484375 C 703.886719 484.367188 704.300781 485.261719 704.6875 486.167969 C 705.074219 487.074219 705.433594 487.988281 705.765625 488.917969 C 706.097656 489.84375 706.40625 490.78125 706.683594 491.726562 C 706.960938 492.671875 707.214844 493.625 707.4375 494.582031 C 707.660156 495.542969 707.855469 496.507812 708.019531 497.480469 C 708.1875 498.449219 708.324219 499.425781 708.433594 500.402344 C 708.542969 501.382812 708.625 502.363281 708.679688 503.347656 C 708.730469 504.332031 708.753906 505.316406 708.75 506.300781 C 708.742188 507.289062 708.710938 508.273438 708.648438 509.253906 C 708.585938 510.238281 708.492188 511.21875 708.375 512.195312 C 708.253906 513.175781 708.105469 514.148438 707.929688 515.117188 C 707.75 516.085938 707.546875 517.050781 707.3125 518.007812 C 707.082031 518.964844 706.820312 519.914062 706.53125 520.855469 C 706.246094 521.800781 705.929688 522.730469 705.585938 523.65625 C 705.242188 524.578125 704.875 525.492188 704.476562 526.394531 C 704.082031 527.296875 703.660156 528.1875 703.210938 529.066406 C 702.761719 529.941406 702.289062 530.804688 701.792969 531.65625 C 701.292969 532.503906 700.769531 533.339844 700.222656 534.160156 C 699.675781 534.976562 699.105469 535.78125 698.511719 536.566406 C 697.914062 537.351562 697.300781 538.121094 696.660156 538.871094 C 696.023438 539.621094 695.363281 540.351562 694.679688 541.0625 C 694 541.773438 693.296875 542.464844 692.574219 543.136719 C 691.851562 543.804688 691.113281 544.453125 690.351562 545.082031 C 689.589844 545.710938 688.8125 546.3125 688.019531 546.894531 C 687.222656 547.476562 686.414062 548.035156 685.585938 548.570312 C 684.757812 549.105469 683.914062 549.613281 683.054688 550.101562 C 682.199219 550.585938 681.328125 551.042969 680.445312 551.480469 C 679.558594 551.914062 678.664062 552.320312 677.753906 552.703125 C 676.847656 553.085938 675.929688 553.441406 675 553.769531 L 675 523.125 C 675 522.574219 674.972656 522.019531 674.917969 521.472656 C 674.863281 520.921875 674.785156 520.375 674.675781 519.832031 C 674.566406 519.289062 674.433594 518.753906 674.273438 518.226562 C 674.113281 517.699219 673.925781 517.175781 673.714844 516.667969 C 673.503906 516.15625 673.265625 515.65625 673.007812 515.167969 C 672.746094 514.683594 672.460938 514.210938 672.15625 513.75 C 671.847656 513.289062 671.519531 512.847656 671.167969 512.417969 C 670.820312 511.992188 670.449219 511.582031 670.058594 511.191406 C 669.664062 510.800781 669.257812 510.429688 668.828125 510.082031 C 668.402344 509.730469 667.957031 509.402344 667.5 509.09375 C 667.039062 508.785156 666.566406 508.503906 666.078125 508.242188 C 665.59375 507.980469 665.09375 507.746094 664.582031 507.535156 C 664.070312 507.324219 663.550781 507.136719 663.023438 506.976562 C 662.496094 506.816406 661.957031 506.683594 661.417969 506.574219 C 660.875 506.464844 660.328125 506.386719 659.777344 506.332031 C 659.230469 506.277344 658.679688 506.25 658.125 506.25 Z M 658.125 506.25 " fill-opacity="1" fill-rule="nonzero"/></svg>