<svg xmlns="http://www.w3.org/2000/svg" xmlns:xlink="http://www.w3.org/1999/xlink" width="1080" zoomAndPan="magnify" viewBox="0 0 810 809.999993" height="1080" preserveAspectRatio="xMidYMid meet" version="1.0"><path fill="#009688" d="M 624.375 303.75 L 455.625 303.75 C 455.074219 303.75 454.523438 303.777344 453.972656 303.832031 C 453.421875 303.886719 452.875 303.96875 452.332031 304.074219 C 451.792969 304.183594 451.257812 304.316406 450.726562 304.476562 C 450.195312 304.636719 449.675781 304.824219 449.167969 305.035156 C 448.65625 305.246094 448.15625 305.480469 447.667969 305.742188 C 447.183594 306.003906 446.707031 306.285156 446.25 306.59375 C 445.789062 306.902344 445.347656 307.230469 444.917969 307.582031 C 444.492188 307.929688 444.082031 308.300781 443.691406 308.691406 C 443.300781 309.082031 442.929688 309.492188 442.582031 309.921875 C 442.230469 310.347656 441.902344 310.789062 441.59375 311.25 C 441.289062 311.710938 441.003906 312.183594 440.742188 312.671875 C 440.480469 313.15625 440.246094 313.65625 440.035156 314.167969 C 439.820312 314.675781 439.636719 315.199219 439.476562 315.726562 C 439.316406 316.253906 439.179688 316.789062 439.074219 317.332031 C 438.964844 317.875 438.886719 318.421875 438.832031 318.972656 C 438.777344 319.519531 438.75 320.074219 438.75 320.625 C 438.75 321.179688 438.777344 321.730469 438.832031 322.28125 C 438.886719 322.828125 438.964844 323.375 439.074219 323.917969 C 439.179688 324.460938 439.316406 324.996094 439.476562 325.523438 C 439.636719 326.054688 439.820312 326.570312 440.035156 327.082031 C 440.246094 327.59375 440.480469 328.09375 440.742188 328.578125 C 441.003906 329.066406 441.289062 329.542969 441.59375 330 C 441.902344 330.460938 442.230469 330.902344 442.582031 331.328125 C 442.929688 331.757812 443.300781 332.167969 443.691406 332.558594 C 444.082031 332.949219 444.492188 333.320312 444.917969 333.667969 C 445.347656 334.019531 445.789062 334.347656 446.25 334.65625 C 446.707031 334.964844 447.183594 335.246094 447.667969 335.507812 C 448.15625 335.765625 448.65625 336.003906 449.167969 336.214844 C 449.675781 336.425781 450.195312 336.613281 450.726562 336.773438 C 451.257812 336.933594 451.792969 337.066406 452.332031 337.175781 C 452.875 337.285156 453.421875 337.363281 453.972656 337.417969 C 454.523438 337.472656 455.074219 337.5 455.625 337.5 L 624.375 337.5 C 624.929688 337.5 625.480469 337.472656 626.027344 337.417969 C 626.578125 337.363281 627.125 337.285156 627.667969 337.175781 C 628.210938 337.066406 628.746094 336.933594 629.273438 336.773438 C 629.800781 336.613281 630.320312 336.425781 630.832031 336.214844 C 631.339844 336.003906 631.839844 335.765625 632.328125 335.507812 C 632.816406 335.246094 633.289062 334.960938 633.75 334.65625 C 634.207031 334.347656 634.652344 334.019531 635.078125 333.667969 C 635.507812 333.320312 635.914062 332.949219 636.304688 332.558594 C 636.699219 332.167969 637.066406 331.757812 637.417969 331.332031 C 637.769531 330.902344 638.097656 330.460938 638.402344 330 C 638.710938 329.539062 638.996094 329.066406 639.257812 328.578125 C 639.519531 328.09375 639.753906 327.59375 639.964844 327.082031 C 640.175781 326.570312 640.363281 326.050781 640.523438 325.523438 C 640.683594 324.996094 640.816406 324.457031 640.925781 323.917969 C 641.03125 323.375 641.113281 322.828125 641.167969 322.277344 C 641.222656 321.730469 641.25 321.179688 641.25 320.625 C 641.25 320.074219 641.222656 319.519531 641.167969 318.972656 C 641.113281 318.421875 641.03125 317.875 640.925781 317.332031 C 640.816406 316.789062 640.683594 316.253906 640.523438 315.726562 C 640.363281 315.199219 640.175781 314.675781 639.964844 314.167969 C 639.753906 313.65625 639.519531 313.15625 639.257812 312.671875 C 638.996094 312.183594 638.710938 311.710938 638.402344 311.25 C 638.097656 310.789062 637.769531 310.347656 637.417969 309.917969 C 637.066406 309.492188 636.699219 309.082031 636.304688 308.691406 C 635.914062 308.300781 635.507812 307.929688 635.078125 307.582031 C 634.652344 307.230469 634.207031 306.902344 633.746094 306.59375 C 633.289062 306.285156 632.816406 306.003906 632.328125 305.742188 C 631.839844 305.480469 631.339844 305.246094 630.832031 305.035156 C 630.320312 304.824219 629.800781 304.636719 629.273438 304.476562 C 628.746094 304.316406 628.210938 304.183594 627.667969 304.074219 C 627.125 303.96875 626.578125 303.886719 626.03125 303.832031 C 625.480469 303.777344 624.929688 303.75 624.375 303.75 Z M 624.375 303.75 " fill-opacity="1" fill-rule="nonzero"/><path fill="#009688" d="M 624.375 199.546875 L 489.375 199.546875 C 488.820312 199.546875 488.269531 199.574219 487.71875 199.628906 C 487.171875 199.683594 486.625 199.761719 486.082031 199.871094 C 485.539062 199.980469 485.003906 200.113281 484.476562 200.273438 C 483.945312 200.433594 483.425781 200.621094 482.914062 200.832031 C 482.40625 201.042969 481.90625 201.277344 481.417969 201.539062 C 480.933594 201.800781 480.460938 202.082031 480 202.390625 C 479.539062 202.699219 479.097656 203.027344 478.667969 203.378906 C 478.242188 203.726562 477.832031 204.097656 477.441406 204.488281 C 477.050781 204.878906 476.679688 205.289062 476.332031 205.71875 C 475.980469 206.144531 475.648438 206.585938 475.339844 207.046875 C 475.035156 207.507812 474.753906 207.980469 474.492188 208.46875 C 474.230469 208.953125 473.996094 209.453125 473.78125 209.964844 C 473.570312 210.472656 473.386719 210.996094 473.226562 211.523438 C 473.066406 212.050781 472.929688 212.589844 472.824219 213.128906 C 472.714844 213.671875 472.636719 214.21875 472.582031 214.769531 C 472.527344 215.320312 472.5 215.871094 472.5 216.421875 C 472.5 216.976562 472.527344 217.527344 472.582031 218.074219 C 472.636719 218.625 472.714844 219.171875 472.824219 219.714844 C 472.929688 220.253906 473.066406 220.792969 473.226562 221.320312 C 473.386719 221.847656 473.570312 222.367188 473.78125 222.878906 C 473.996094 223.390625 474.230469 223.890625 474.492188 224.378906 C 474.753906 224.863281 475.035156 225.335938 475.34375 225.796875 C 475.652344 226.257812 475.980469 226.699219 476.332031 227.128906 C 476.679688 227.554688 477.050781 227.960938 477.441406 228.355469 C 477.832031 228.746094 478.242188 229.117188 478.667969 229.464844 C 479.097656 229.816406 479.539062 230.144531 480 230.453125 C 480.457031 230.757812 480.933594 231.042969 481.417969 231.304688 C 481.90625 231.566406 482.40625 231.800781 482.914062 232.011719 C 483.425781 232.222656 483.945312 232.410156 484.472656 232.570312 C 485.003906 232.730469 485.539062 232.863281 486.082031 232.972656 C 486.625 233.082031 487.171875 233.160156 487.71875 233.214844 C 488.269531 233.269531 488.820312 233.296875 489.375 233.296875 L 624.375 233.296875 C 624.929688 233.296875 625.480469 233.269531 626.027344 233.214844 C 626.578125 233.160156 627.125 233.082031 627.667969 232.972656 C 628.210938 232.863281 628.746094 232.730469 629.273438 232.570312 C 629.800781 232.410156 630.320312 232.222656 630.832031 232.011719 C 631.339844 231.800781 631.839844 231.5625 632.328125 231.304688 C 632.816406 231.042969 633.289062 230.757812 633.75 230.453125 C 634.207031 230.144531 634.652344 229.816406 635.078125 229.464844 C 635.507812 229.117188 635.914062 228.746094 636.304688 228.355469 C 636.699219 227.960938 637.066406 227.554688 637.417969 227.128906 C 637.769531 226.699219 638.097656 226.257812 638.402344 225.796875 C 638.710938 225.335938 638.996094 224.863281 639.257812 224.375 C 639.519531 223.890625 639.753906 223.390625 639.964844 222.878906 C 640.175781 222.367188 640.363281 221.847656 640.523438 221.320312 C 640.683594 220.792969 640.816406 220.253906 640.925781 219.714844 C 641.03125 219.171875 641.113281 218.625 641.167969 218.074219 C 641.222656 217.527344 641.25 216.976562 641.25 216.421875 C 641.25 215.871094 641.222656 215.320312 641.167969 214.769531 C 641.113281 214.21875 641.03125 213.671875 640.925781 213.128906 C 640.816406 212.589844 640.683594 212.050781 640.523438 211.523438 C 640.363281 210.996094 640.175781 210.472656 639.964844 209.964844 C 639.753906 209.453125 639.519531 208.953125 639.257812 208.46875 C 638.996094 207.980469 638.710938 207.507812 638.402344 207.046875 C 638.097656 206.585938 637.769531 206.144531 637.417969 205.71875 C 637.066406 205.289062 636.699219 204.878906 636.304688 204.488281 C 635.914062 204.097656 635.507812 203.726562 635.078125 203.378906 C 634.652344 203.027344 634.207031 202.699219 633.746094 202.390625 C 633.289062 202.082031 632.816406 201.800781 632.328125 201.539062 C 631.839844 201.277344 631.339844 201.042969 630.832031 200.832031 C 630.320312 200.621094 629.800781 200.433594 629.273438 200.273438 C 628.746094 200.113281 628.210938 199.980469 627.667969 199.871094 C 627.125 199.761719 626.578125 199.683594 626.03125 199.628906 C 625.480469 199.574219 624.929688 199.546875 624.375 199.546875 Z M 624.375 199.546875 " fill-opacity="1" fill-rule="nonzero"/><path fill="#009688" d="M 624.375 402.046875 L 523.125 402.046875 C 522.574219 402.046875 522.023438 402.074219 521.472656 402.128906 C 520.921875 402.183594 520.375 402.261719 519.832031 402.371094 C 519.292969 402.480469 518.757812 402.613281 518.226562 402.773438 C 517.695312 402.933594 517.175781 403.121094 516.667969 403.332031 C 516.15625 403.542969 515.65625 403.78125 515.171875 404.039062 C 514.683594 404.300781 514.210938 404.585938 513.75 404.890625 C 513.289062 405.199219 512.847656 405.527344 512.417969 405.878906 C 511.992188 406.226562 511.582031 406.597656 511.191406 406.988281 C 510.800781 407.378906 510.429688 407.789062 510.082031 408.214844 C 509.730469 408.644531 509.402344 409.085938 509.09375 409.546875 C 508.785156 410.003906 508.503906 410.480469 508.242188 410.964844 C 507.980469 411.453125 507.746094 411.953125 507.535156 412.464844 C 507.320312 412.972656 507.136719 413.496094 506.976562 414.023438 C 506.816406 414.550781 506.679688 415.085938 506.574219 415.628906 C 506.464844 416.171875 506.386719 416.71875 506.332031 417.269531 C 506.277344 417.820312 506.25 418.371094 506.25 418.921875 C 506.25 419.476562 506.277344 420.027344 506.332031 420.574219 C 506.386719 421.125 506.46875 421.671875 506.574219 422.214844 C 506.683594 422.757812 506.816406 423.292969 506.976562 423.820312 C 507.136719 424.347656 507.320312 424.867188 507.535156 425.378906 C 507.746094 425.890625 507.980469 426.390625 508.242188 426.878906 C 508.503906 427.363281 508.785156 427.835938 509.09375 428.296875 C 509.402344 428.757812 509.730469 429.199219 510.082031 429.628906 C 510.429688 430.054688 510.800781 430.464844 511.191406 430.855469 C 511.582031 431.246094 511.992188 431.617188 512.417969 431.964844 C 512.847656 432.316406 513.289062 432.644531 513.75 432.953125 C 514.207031 433.257812 514.683594 433.542969 515.167969 433.804688 C 515.65625 434.066406 516.15625 434.300781 516.664062 434.511719 C 517.175781 434.722656 517.695312 434.910156 518.226562 435.070312 C 518.757812 435.230469 519.292969 435.363281 519.832031 435.472656 C 520.375 435.582031 520.921875 435.660156 521.472656 435.714844 C 522.023438 435.769531 522.574219 435.796875 523.125 435.796875 L 624.375 435.796875 C 624.929688 435.796875 625.480469 435.769531 626.027344 435.714844 C 626.578125 435.660156 627.125 435.582031 627.667969 435.472656 C 628.210938 435.363281 628.746094 435.230469 629.273438 435.070312 C 629.800781 434.910156 630.320312 434.722656 630.832031 434.511719 C 631.339844 434.300781 631.839844 434.066406 632.328125 433.804688 C 632.816406 433.542969 633.289062 433.257812 633.75 432.953125 C 634.207031 432.644531 634.652344 432.316406 635.078125 431.964844 C 635.507812 431.617188 635.914062 431.246094 636.304688 430.855469 C 636.699219 430.464844 637.066406 430.054688 637.417969 429.628906 C 637.769531 429.199219 638.097656 428.757812 638.402344 428.296875 C 638.710938 427.835938 638.996094 427.363281 639.257812 426.875 C 639.519531 426.390625 639.753906 425.890625 639.964844 425.378906 C 640.175781 424.867188 640.363281 424.347656 640.523438 423.820312 C 640.683594 423.289062 640.816406 422.753906 640.925781 422.214844 C 641.03125 421.671875 641.113281 421.125 641.167969 420.574219 C 641.222656 420.027344 641.25 419.476562 641.25 418.921875 C 641.25 418.371094 641.222656 417.820312 641.167969 417.269531 C 641.113281 416.71875 641.03125 416.171875 640.925781 415.628906 C 640.816406 415.085938 640.683594 414.550781 640.523438 414.023438 C 640.363281 413.496094 640.175781 412.972656 639.964844 412.464844 C 639.753906 411.953125 639.519531 411.453125 639.257812 410.964844 C 638.996094 410.480469 638.710938 410.003906 638.402344 409.546875 C 638.097656 409.085938 637.769531 408.644531 637.417969 408.214844 C 637.066406 407.789062 636.699219 407.378906 636.304688 406.988281 C 635.914062 406.597656 635.507812 406.226562 635.078125 405.878906 C 634.652344 405.527344 634.207031 405.199219 633.746094 404.890625 C 633.289062 404.585938 632.816406 404.300781 632.328125 404.039062 C 631.839844 403.777344 631.339844 403.542969 630.832031 403.332031 C 630.320312 403.121094 629.800781 402.933594 629.273438 402.773438 C 628.746094 402.613281 628.210938 402.480469 627.667969 402.371094 C 627.125 402.261719 626.578125 402.183594 626.03125 402.128906 C 625.480469 402.074219 624.929688 402.046875 624.375 402.046875 Z M 624.375 402.046875 " fill-opacity="1" fill-rule="nonzero"/><path fill="#009688" d="M 624.375 506.25 L 523.125 506.25 C 522.574219 506.25 522.023438 506.277344 521.472656 506.332031 C 520.921875 506.386719 520.375 506.464844 519.832031 506.574219 C 519.292969 506.683594 518.757812 506.816406 518.226562 506.976562 C 517.695312 507.136719 517.175781 507.324219 516.667969 507.535156 C 516.15625 507.746094 515.65625 507.980469 515.171875 508.242188 C 514.683594 508.503906 514.210938 508.785156 513.75 509.09375 C 513.289062 509.402344 512.847656 509.730469 512.417969 510.082031 C 511.992188 510.429688 511.582031 510.800781 511.191406 511.191406 C 510.800781 511.582031 510.429688 511.992188 510.082031 512.417969 C 509.730469 512.847656 509.402344 513.289062 509.09375 513.75 C 508.785156 514.207031 508.503906 514.683594 508.242188 515.167969 C 507.980469 515.65625 507.746094 516.15625 507.535156 516.667969 C 507.320312 517.175781 507.136719 517.695312 506.976562 518.226562 C 506.816406 518.753906 506.679688 519.289062 506.574219 519.832031 C 506.464844 520.375 506.386719 520.921875 506.332031 521.472656 C 506.277344 522.023438 506.25 522.574219 506.25 523.125 C 506.25 523.679688 506.277344 524.230469 506.332031 524.777344 C 506.386719 525.328125 506.46875 525.875 506.574219 526.417969 C 506.683594 526.957031 506.816406 527.492188 506.976562 528.023438 C 507.136719 528.550781 507.320312 529.070312 507.535156 529.582031 C 507.746094 530.09375 507.980469 530.589844 508.242188 531.078125 C 508.503906 531.566406 508.785156 532.039062 509.09375 532.5 C 509.402344 532.957031 509.730469 533.402344 510.082031 533.828125 C 510.429688 534.257812 510.800781 534.664062 511.191406 535.054688 C 511.582031 535.449219 511.992188 535.820312 512.417969 536.167969 C 512.847656 536.519531 513.289062 536.847656 513.75 537.15625 C 514.207031 537.460938 514.683594 537.746094 515.167969 538.007812 C 515.65625 538.265625 516.15625 538.503906 516.664062 538.714844 C 517.175781 538.925781 517.695312 539.113281 518.226562 539.273438 C 518.757812 539.433594 519.292969 539.566406 519.832031 539.675781 C 520.375 539.78125 520.921875 539.863281 521.472656 539.917969 C 522.023438 539.972656 522.574219 540 523.125 540 L 624.375 540 C 624.929688 540 625.480469 539.972656 626.027344 539.917969 C 626.578125 539.863281 627.125 539.78125 627.667969 539.675781 C 628.210938 539.566406 628.746094 539.433594 629.273438 539.273438 C 629.800781 539.113281 630.320312 538.925781 630.832031 538.714844 C 631.339844 538.503906 631.839844 538.265625 632.328125 538.007812 C 632.816406 537.746094 633.289062 537.460938 633.75 537.15625 C 634.207031 536.847656 634.652344 536.519531 635.078125 536.167969 C 635.507812 535.820312 635.914062 535.449219 636.304688 535.054688 C 636.699219 534.664062 637.066406 534.257812 637.417969 533.828125 C 637.769531 533.402344 638.097656 532.957031 638.402344 532.5 C 638.710938 532.039062 638.996094 531.566406 639.257812 531.078125 C 639.519531 530.589844 639.753906 530.09375 639.964844 529.582031 C 640.175781 529.070312 640.363281 528.550781 640.523438 528.023438 C 640.683594 527.492188 640.816406 526.957031 640.925781 526.417969 C 641.03125 525.875 641.113281 525.328125 641.167969 524.777344 C 641.222656 524.230469 641.25 523.679688 641.25 523.125 C 641.25 522.574219 641.222656 522.023438 641.167969 521.472656 C 641.113281 520.921875 641.03125 520.375 640.925781 519.832031 C 640.816406 519.289062 640.683594 518.753906 640.523438 518.226562 C 640.363281 517.699219 640.175781 517.175781 639.964844 516.667969 C 639.753906 516.15625 639.519531 515.65625 639.257812 515.167969 C 638.996094 514.683594 638.710938 514.210938 638.402344 513.75 C 638.097656 513.289062 637.769531 512.847656 637.417969 512.417969 C 637.066406 511.992188 636.699219 511.582031 636.304688 511.191406 C 635.914062 510.800781 635.507812 510.429688 635.078125 510.078125 C 634.652344 509.730469 634.207031 509.402344 633.746094 509.09375 C 633.289062 508.785156 632.816406 508.503906 632.328125 508.242188 C 631.839844 507.980469 631.339844 507.746094 630.832031 507.535156 C 630.320312 507.324219 629.800781 507.136719 629.273438 506.976562 C 628.746094 506.816406 628.210938 506.683594 627.667969 506.574219 C 627.125 506.464844 626.578125 506.386719 626.03125 506.332031 C 625.480469 506.277344 624.929688 506.25 624.375 506.25 Z M 624.375 506.25 " fill-opacity="1" fill-rule="nonzero"/><path fill="#009688" d="M 468.921875 537.046875 C 468.183594 532.652344 467.296875 528.285156 466.265625 523.945312 C 465.238281 519.609375 464.066406 515.308594 462.75 511.046875 C 461.433594 506.789062 459.980469 502.574219 458.386719 498.410156 C 456.792969 494.246094 455.066406 490.140625 453.199219 486.089844 C 451.335938 482.039062 449.339844 478.054688 447.210938 474.136719 C 445.082031 470.21875 442.828125 466.378906 440.445312 462.609375 C 438.0625 458.839844 435.558594 455.15625 432.933594 451.550781 C 430.308594 447.949219 427.566406 444.4375 424.707031 441.015625 C 421.847656 437.59375 418.878906 434.269531 415.800781 431.042969 C 412.722656 427.816406 409.542969 424.699219 406.253906 421.683594 C 402.972656 418.667969 399.589844 415.765625 396.113281 412.972656 C 392.636719 410.183594 389.074219 407.507812 385.417969 404.953125 C 381.765625 402.394531 378.03125 399.964844 374.21875 397.65625 C 370.402344 395.347656 366.515625 393.167969 362.558594 391.113281 C 358.601562 389.0625 354.578125 387.144531 350.492188 385.359375 C 346.40625 383.574219 342.269531 381.925781 338.074219 380.414062 C 339.710938 379.265625 341.316406 378.074219 342.894531 376.84375 C 344.46875 375.613281 346.015625 374.34375 347.523438 373.03125 C 349.035156 371.722656 350.511719 370.378906 351.957031 368.992188 C 353.398438 367.609375 354.804688 366.1875 356.175781 364.730469 C 357.546875 363.277344 358.878906 361.785156 360.171875 360.261719 C 361.46875 358.738281 362.726562 357.183594 363.9375 355.59375 C 365.15625 354.003906 366.328125 352.386719 367.460938 350.742188 C 368.597656 349.09375 369.6875 347.417969 370.734375 345.714844 C 371.78125 344.011719 372.785156 342.28125 373.746094 340.527344 C 374.703125 338.773438 375.617188 336.996094 376.488281 335.195312 C 377.359375 333.394531 378.183594 331.574219 378.957031 329.730469 C 379.734375 327.886719 380.464844 326.023438 381.144531 324.144531 C 381.828125 322.265625 382.460938 320.367188 383.046875 318.457031 C 383.632812 316.542969 384.167969 314.617188 384.652344 312.679688 C 385.140625 310.738281 385.578125 308.789062 385.96875 306.828125 C 386.355469 304.867188 386.691406 302.894531 386.980469 300.914062 C 387.269531 298.9375 387.507812 296.953125 387.691406 294.960938 C 387.878906 292.96875 388.015625 290.976562 388.097656 288.976562 C 388.183594 286.980469 388.21875 284.980469 388.203125 282.980469 C 388.183594 280.980469 388.117188 278.984375 388 276.988281 C 387.878906 274.992188 387.710938 273 387.492188 271.011719 C 387.273438 269.023438 387 267.042969 386.679688 265.070312 C 386.359375 263.09375 385.988281 261.132812 385.566406 259.175781 C 385.144531 257.222656 384.675781 255.277344 384.15625 253.347656 C 383.636719 251.417969 383.070312 249.5 382.453125 247.597656 C 381.835938 245.695312 381.171875 243.808594 380.457031 241.941406 C 379.746094 240.074219 378.984375 238.226562 378.175781 236.394531 C 377.371094 234.566406 376.515625 232.757812 375.617188 230.972656 C 374.71875 229.183594 373.773438 227.421875 372.785156 225.6875 C 371.792969 223.949219 370.761719 222.234375 369.683594 220.550781 C 368.609375 218.863281 367.492188 217.207031 366.332031 215.578125 C 365.171875 213.953125 363.96875 212.351562 362.726562 210.785156 L 333.113281 228.421875 C 334.003906 229.421875 334.871094 230.441406 335.714844 231.484375 C 336.554688 232.527344 337.375 233.589844 338.164062 234.671875 C 338.957031 235.75 339.726562 236.851562 340.464844 237.96875 C 341.203125 239.085938 341.917969 240.222656 342.601562 241.375 C 343.289062 242.523438 343.945312 243.691406 344.574219 244.875 C 345.207031 246.058594 345.808594 247.257812 346.378906 248.46875 C 346.953125 249.679688 347.496094 250.90625 348.011719 252.140625 C 348.527344 253.378906 349.011719 254.628906 349.464844 255.890625 C 349.921875 257.152344 350.347656 258.421875 350.742188 259.703125 C 351.136719 260.984375 351.5 262.273438 351.832031 263.570312 C 352.164062 264.871094 352.46875 266.175781 352.738281 267.488281 C 353.011719 268.800781 353.25 270.121094 353.457031 271.445312 C 353.664062 272.769531 353.839844 274.097656 353.988281 275.429688 C 354.132812 276.761719 354.246094 278.097656 354.324219 279.433594 C 354.40625 280.773438 354.457031 282.113281 354.472656 283.453125 C 354.492188 284.792969 354.476562 286.132812 354.425781 287.472656 C 354.382812 288.8125 354.304688 290.152344 354.191406 291.484375 C 354.082031 292.820312 353.9375 294.15625 353.765625 295.484375 C 353.589844 296.8125 353.386719 298.136719 353.148438 299.457031 C 352.914062 300.777344 352.644531 302.089844 352.34375 303.394531 C 352.042969 304.703125 351.714844 306 351.351562 307.292969 C 350.992188 308.582031 350.597656 309.863281 350.175781 311.136719 C 349.753906 312.410156 349.300781 313.667969 348.820312 314.921875 C 348.335938 316.171875 347.820312 317.410156 347.28125 318.636719 C 346.738281 319.859375 346.167969 321.074219 345.570312 322.273438 C 344.96875 323.472656 344.339844 324.65625 343.683594 325.824219 C 343.03125 326.992188 342.347656 328.144531 341.636719 329.28125 C 340.925781 330.417969 340.1875 331.539062 339.425781 332.640625 C 338.660156 333.738281 337.871094 334.824219 337.054688 335.886719 C 336.238281 336.949219 335.398438 337.992188 334.53125 339.015625 C 333.664062 340.039062 332.777344 341.042969 331.863281 342.023438 C 330.949219 343.003906 330.011719 343.964844 329.054688 344.898438 C 328.09375 345.835938 327.113281 346.75 326.113281 347.640625 C 325.109375 348.53125 324.085938 349.394531 323.042969 350.234375 C 322 351.078125 320.9375 351.894531 319.851562 352.683594 C 318.769531 353.472656 317.671875 354.238281 316.550781 354.976562 C 315.429688 355.714844 314.296875 356.425781 313.144531 357.109375 C 311.988281 357.792969 310.820312 358.449219 309.636719 359.074219 C 308.453125 359.703125 307.253906 360.304688 306.042969 360.875 C 304.828125 361.445312 303.605469 361.988281 302.363281 362.5 C 301.125 363.011719 299.878906 363.496094 298.617188 363.949219 C 297.355469 364.402344 296.082031 364.824219 294.800781 365.214844 C 293.519531 365.609375 292.226562 365.96875 290.929688 366.300781 C 289.628906 366.632812 288.324219 366.933594 287.011719 367.199219 C 285.695312 367.46875 284.378906 367.707031 283.054688 367.910156 C 281.726562 368.117188 280.398438 368.292969 279.066406 368.433594 C 277.734375 368.574219 276.398438 368.6875 275.0625 368.765625 C 273.722656 368.84375 272.382812 368.890625 271.042969 368.90625 C 269.703125 368.921875 268.363281 368.902344 267.023438 368.855469 C 265.683594 368.804688 264.34375 368.726562 263.007812 368.613281 C 261.671875 368.5 260.34375 368.355469 259.011719 368.179688 C 257.6875 368.003906 256.363281 367.796875 255.042969 367.554688 C 253.722656 367.316406 252.414062 367.046875 251.105469 366.746094 C 249.800781 366.441406 248.5 366.109375 247.210938 365.746094 C 245.921875 365.382812 244.640625 364.988281 243.367188 364.566406 C 242.097656 364.140625 240.835938 363.683594 239.585938 363.199219 C 238.335938 362.714844 237.097656 362.199219 235.871094 361.65625 C 234.648438 361.113281 233.4375 360.539062 232.238281 359.9375 C 231.042969 359.335938 229.859375 358.707031 228.691406 358.050781 C 227.523438 357.390625 226.371094 356.707031 225.238281 355.992188 C 224.101562 355.28125 222.984375 354.542969 221.886719 353.777344 C 220.785156 353.011719 219.703125 352.21875 218.640625 351.398438 C 217.578125 350.582031 216.535156 349.738281 215.511719 348.871094 C 214.492188 348.003906 213.488281 347.113281 212.511719 346.199219 C 211.53125 345.285156 210.574219 344.347656 209.636719 343.386719 C 208.703125 342.425781 207.792969 341.441406 206.902344 340.4375 C 206.015625 339.433594 205.152344 338.410156 204.3125 337.363281 C 203.472656 336.320312 202.660156 335.253906 201.871094 334.171875 C 201.082031 333.085938 200.320312 331.984375 199.585938 330.863281 C 198.847656 329.746094 198.140625 328.605469 197.457031 327.453125 C 196.777344 326.296875 196.121094 325.128906 195.496094 323.945312 C 194.871094 322.757812 194.273438 321.558594 193.703125 320.347656 C 193.132812 319.132812 192.59375 317.90625 192.082031 316.667969 C 191.574219 315.425781 191.09375 314.175781 190.640625 312.914062 C 190.191406 311.652344 189.769531 310.378906 189.382812 309.097656 C 188.992188 307.8125 188.628906 306.523438 188.300781 305.222656 C 187.972656 303.925781 187.675781 302.617188 187.410156 301.304688 C 187.144531 299.988281 186.910156 298.671875 186.703125 297.34375 C 186.5 296.019531 186.328125 294.691406 186.191406 293.359375 C 186.050781 292.027344 185.941406 290.691406 185.863281 289.351562 C 185.789062 288.011719 185.742188 286.671875 185.730469 285.332031 C 185.71875 283.992188 185.738281 282.652344 185.789062 281.3125 C 185.839844 279.976562 185.921875 278.636719 186.035156 277.300781 C 186.152344 275.964844 186.300781 274.632812 186.476562 273.304688 C 186.65625 271.976562 186.863281 270.652344 187.105469 269.335938 C 187.347656 268.015625 187.621094 266.703125 187.925781 265.398438 C 188.230469 264.09375 188.5625 262.796875 188.929688 261.507812 C 189.296875 260.21875 189.695312 258.9375 190.121094 257.667969 C 190.546875 256.394531 191.003906 255.136719 191.492188 253.886719 C 191.976562 252.636719 192.492188 251.402344 193.039062 250.175781 C 193.585938 248.953125 194.160156 247.742188 194.765625 246.546875 C 195.367188 245.347656 195.996094 244.167969 196.65625 243 C 197.316406 241.832031 198.003906 240.683594 198.71875 239.550781 C 199.433594 238.414062 200.175781 237.296875 200.945312 236.199219 C 201.710938 235.101562 202.507812 234.019531 203.324219 232.960938 C 204.144531 231.898438 204.988281 230.859375 205.859375 229.839844 L 176.34375 212.253906 C 175.140625 213.820312 173.976562 215.414062 172.851562 217.039062 C 171.730469 218.664062 170.648438 220.316406 169.609375 221.996094 C 168.570312 223.671875 167.570312 225.375 166.617188 227.105469 C 165.664062 228.835938 164.753906 230.585938 163.886719 232.359375 C 163.019531 234.136719 162.199219 235.929688 161.425781 237.746094 C 160.648438 239.5625 159.921875 241.398438 159.238281 243.25 C 158.554688 245.101562 157.917969 246.972656 157.328125 248.855469 C 156.738281 250.742188 156.199219 252.640625 155.703125 254.550781 C 155.210938 256.464844 154.765625 258.386719 154.367188 260.320312 C 153.96875 262.253906 153.621094 264.199219 153.324219 266.148438 C 153.023438 268.101562 152.773438 270.058594 152.574219 272.023438 C 152.371094 273.988281 152.222656 275.957031 152.121094 277.929688 C 152.015625 279.902344 151.964844 281.875 151.960938 283.851562 C 151.960938 285.824219 152.007812 287.800781 152.105469 289.769531 C 152.199219 291.742188 152.347656 293.710938 152.542969 295.675781 C 152.738281 297.640625 152.984375 299.601562 153.277344 301.554688 C 153.574219 303.503906 153.917969 305.449219 154.308594 307.382812 C 154.703125 309.320312 155.140625 311.242188 155.632812 313.15625 C 156.121094 315.070312 156.65625 316.972656 157.242188 318.855469 C 157.828125 320.742188 158.460938 322.613281 159.136719 324.46875 C 159.816406 326.320312 160.542969 328.15625 161.3125 329.976562 C 162.085938 331.792969 162.898438 333.589844 163.761719 335.367188 C 164.625 337.144531 165.527344 338.898438 166.480469 340.628906 C 167.429688 342.359375 168.421875 344.066406 169.457031 345.746094 C 170.492188 347.429688 171.570312 349.082031 172.691406 350.710938 C 173.808594 352.335938 174.96875 353.933594 176.167969 355.503906 C 177.367188 357.074219 178.605469 358.609375 179.882812 360.117188 C 181.160156 361.625 182.472656 363.097656 183.824219 364.539062 C 185.175781 365.976562 186.5625 367.382812 187.984375 368.753906 C 189.40625 370.125 190.859375 371.457031 192.351562 372.753906 C 193.835938 374.050781 195.359375 375.3125 196.910156 376.53125 C 198.460938 377.753906 200.042969 378.933594 201.65625 380.078125 C 197.128906 381.679688 192.664062 383.4375 188.261719 385.359375 C 183.859375 387.277344 179.53125 389.351562 175.277344 391.578125 C 171.023438 393.808594 166.855469 396.183594 162.769531 398.707031 C 158.683594 401.230469 154.691406 403.898438 150.796875 406.707031 C 146.902344 409.515625 143.109375 412.457031 139.421875 415.535156 C 135.738281 418.613281 132.167969 421.816406 128.710938 425.148438 C 125.25 428.480469 121.914062 431.933594 118.699219 435.503906 C 115.488281 439.070312 112.40625 442.75 109.457031 446.539062 C 106.503906 450.328125 103.691406 454.214844 101.015625 458.203125 C 98.34375 462.191406 95.8125 466.269531 93.429688 470.441406 C 91.046875 474.609375 88.8125 478.855469 86.730469 483.183594 C 84.648438 487.511719 82.722656 491.90625 80.953125 496.371094 C 79.183594 500.835938 77.574219 505.359375 76.128906 509.9375 C 74.679688 514.515625 73.398438 519.140625 72.28125 523.808594 C 71.160156 528.480469 70.207031 533.183594 69.425781 537.921875 C 68.640625 542.660156 68.027344 547.417969 67.582031 552.203125 C 67.53125 552.785156 67.507812 553.375 67.515625 553.960938 C 67.527344 554.550781 67.5625 555.136719 67.632812 555.71875 C 67.703125 556.304688 67.800781 556.882812 67.929688 557.453125 C 68.058594 558.027344 68.21875 558.59375 68.402344 559.152344 C 68.589844 559.707031 68.804688 560.253906 69.050781 560.789062 C 69.292969 561.324219 69.566406 561.84375 69.863281 562.351562 C 70.160156 562.859375 70.484375 563.351562 70.832031 563.824219 C 71.179688 564.296875 71.554688 564.75 71.949219 565.183594 C 72.34375 565.621094 72.761719 566.035156 73.199219 566.425781 C 73.636719 566.816406 74.09375 567.1875 74.570312 567.53125 C 75.046875 567.875 75.539062 568.195312 76.046875 568.488281 C 76.558594 568.78125 77.082031 569.046875 77.617188 569.285156 C 78.152344 569.527344 78.703125 569.738281 79.261719 569.921875 C 79.820312 570.101562 80.386719 570.257812 80.960938 570.378906 C 81.535156 570.503906 82.117188 570.597656 82.699219 570.664062 C 83.285156 570.726562 83.871094 570.761719 84.457031 570.765625 L 453.734375 570.765625 C 454.324219 570.765625 454.914062 570.734375 455.5 570.671875 C 456.085938 570.609375 456.667969 570.519531 457.242188 570.394531 C 457.820312 570.273438 458.390625 570.121094 458.949219 569.941406 C 459.511719 569.757812 460.0625 569.546875 460.601562 569.308594 C 461.140625 569.066406 461.664062 568.800781 462.175781 568.503906 C 462.6875 568.210938 463.183594 567.890625 463.660156 567.542969 C 464.136719 567.195312 464.59375 566.824219 465.035156 566.429688 C 465.472656 566.035156 465.890625 565.621094 466.285156 565.183594 C 466.679688 564.742188 467.050781 564.285156 467.394531 563.808594 C 467.742188 563.328125 468.0625 562.835938 468.359375 562.324219 C 468.652344 561.8125 468.917969 561.289062 469.160156 560.75 C 469.398438 560.210938 469.609375 559.660156 469.792969 559.101562 C 469.972656 558.539062 470.128906 557.96875 470.25 557.390625 C 470.371094 556.816406 470.464844 556.234375 470.527344 555.648438 C 470.585938 555.0625 470.617188 554.472656 470.617188 553.882812 C 470.617188 553.292969 470.585938 552.703125 470.523438 552.117188 Z M 251.925781 537.046875 L 103.867188 537.046875 C 104.347656 534.6875 104.875 532.335938 105.457031 529.996094 C 106.039062 527.660156 106.667969 525.335938 107.34375 523.023438 C 108.027344 520.710938 108.753906 518.417969 109.535156 516.136719 C 110.3125 513.855469 111.136719 511.59375 112.011719 509.347656 C 112.886719 507.101562 113.808594 504.878906 114.78125 502.671875 C 115.753906 500.46875 116.769531 498.285156 117.832031 496.121094 C 118.898438 493.960938 120.007812 491.820312 121.164062 489.707031 C 122.320312 487.59375 123.519531 485.503906 124.761719 483.441406 C 126.007812 481.378906 127.296875 479.34375 128.628906 477.335938 C 129.960938 475.328125 131.335938 473.351562 132.75 471.402344 C 134.167969 469.453125 135.625 467.535156 137.125 465.648438 C 138.625 463.761719 140.164062 461.910156 141.742188 460.089844 C 143.320312 458.269531 144.9375 456.484375 146.589844 454.730469 C 148.246094 452.980469 149.9375 451.265625 151.664062 449.585938 C 153.394531 447.910156 155.15625 446.265625 156.953125 444.664062 C 158.753906 443.0625 160.585938 441.496094 162.449219 439.972656 C 164.316406 438.449219 166.214844 436.964844 168.144531 435.519531 C 170.074219 434.078125 172.03125 432.675781 174.019531 431.316406 C 176.007812 429.957031 178.027344 428.640625 180.070312 427.367188 C 182.117188 426.09375 184.1875 424.863281 186.285156 423.679688 C 188.382812 422.496094 190.507812 421.359375 192.65625 420.265625 C 194.800781 419.171875 196.972656 418.121094 199.164062 417.121094 C 201.355469 416.121094 203.566406 415.167969 205.800781 414.261719 C 208.03125 413.355469 210.28125 412.5 212.550781 411.6875 C 214.820312 410.878906 217.105469 410.121094 219.40625 409.410156 C 221.710938 408.695312 224.027344 408.035156 226.355469 407.421875 C 228.6875 406.808594 231.027344 406.25 233.382812 405.738281 C 235.738281 405.222656 238.101562 404.761719 240.476562 404.351562 C 242.851562 403.941406 245.230469 403.582031 247.621094 403.273438 C 250.011719 402.964844 252.40625 402.707031 254.804688 402.5 C 257.207031 402.292969 259.609375 402.140625 262.015625 402.035156 C 264.421875 401.933594 266.832031 401.882812 269.242188 401.882812 C 271.648438 401.882812 274.058594 401.933594 276.464844 402.035156 C 278.875 402.140625 281.277344 402.292969 283.675781 402.5 C 286.078125 402.707031 288.472656 402.964844 290.863281 403.273438 C 293.253906 403.582031 295.636719 403.941406 298.007812 404.351562 C 300.382812 404.761719 302.746094 405.222656 305.101562 405.738281 C 307.453125 406.25 309.796875 406.808594 312.125 407.421875 C 314.457031 408.035156 316.773438 408.695312 319.074219 409.410156 C 321.378906 410.121094 323.664062 410.878906 325.933594 411.6875 C 328.203125 412.5 330.453125 413.355469 332.683594 414.261719 C 334.917969 415.167969 337.132812 416.121094 339.320312 417.121094 C 341.515625 418.121094 343.683594 419.171875 345.832031 420.265625 C 347.976562 421.359375 350.097656 422.496094 352.199219 423.679688 C 354.296875 424.863281 356.367188 426.09375 358.414062 427.367188 C 360.460938 428.640625 362.476562 429.957031 364.464844 431.316406 C 366.453125 432.675781 368.414062 434.078125 370.34375 435.519531 C 372.273438 436.964844 374.167969 438.449219 376.035156 439.972656 C 377.902344 441.496094 379.734375 443.0625 381.53125 444.664062 C 383.328125 446.269531 385.09375 447.910156 386.820312 449.585938 C 388.550781 451.265625 390.242188 452.980469 391.898438 454.730469 C 393.550781 456.484375 395.167969 458.269531 396.746094 460.089844 C 398.324219 461.910156 399.863281 463.765625 401.363281 465.648438 C 402.859375 467.535156 404.316406 469.453125 405.734375 471.402344 C 407.152344 473.351562 408.527344 475.328125 409.855469 477.335938 C 411.1875 479.34375 412.476562 481.378906 413.722656 483.441406 C 414.96875 485.503906 416.167969 487.59375 417.324219 489.707031 C 418.476562 491.820312 419.585938 493.960938 420.652344 496.121094 C 421.714844 498.285156 422.734375 500.46875 423.703125 502.671875 C 424.675781 504.878906 425.597656 507.101562 426.472656 509.347656 C 427.347656 511.59375 428.175781 513.855469 428.953125 516.136719 C 429.730469 518.417969 430.457031 520.710938 431.136719 523.023438 C 431.816406 525.335938 432.445312 527.660156 433.027344 529.996094 C 433.605469 532.335938 434.136719 534.6875 434.617188 537.046875 Z M 251.925781 537.046875 " fill-opacity="1" fill-rule="nonzero"/><path fill="#009688" d="M 268.3125 104.203125 L 370.238281 167.011719 L 268.3125 227.761719 L 166.371094 167.011719 L 268.3125 104.203125 M 124.960938 152.886719 C 124.34375 153.265625 123.753906 153.683594 123.195312 154.136719 C 122.632812 154.589844 122.101562 155.078125 121.601562 155.601562 C 121.101562 156.125 120.636719 156.675781 120.207031 157.257812 C 119.78125 157.839844 119.390625 158.449219 119.039062 159.082031 C 118.691406 159.714844 118.382812 160.363281 118.113281 161.039062 C 117.847656 161.707031 117.625 162.394531 117.445312 163.09375 C 117.269531 163.796875 117.132812 164.503906 117.046875 165.222656 C 116.960938 165.9375 116.917969 166.660156 116.921875 167.382812 C 116.929688 168.105469 116.980469 168.824219 117.078125 169.539062 C 117.175781 170.253906 117.316406 170.960938 117.507812 171.660156 C 117.695312 172.359375 117.925781 173.042969 118.203125 173.710938 C 118.480469 174.378906 118.796875 175.027344 119.15625 175.652344 C 119.515625 176.28125 119.914062 176.882812 120.351562 177.457031 C 120.789062 178.03125 121.257812 178.578125 121.765625 179.09375 C 122.273438 179.609375 122.808594 180.089844 123.378906 180.535156 C 123.945312 180.984375 124.542969 181.390625 125.164062 181.761719 L 259.671875 261.898438 C 260.980469 262.675781 262.363281 263.265625 263.828125 263.671875 C 265.292969 264.074219 266.785156 264.273438 268.304688 264.273438 C 269.824219 264.273438 271.316406 264.074219 272.78125 263.671875 C 274.246094 263.265625 275.632812 262.675781 276.9375 261.898438 L 411.449219 181.761719 C 412.070312 181.390625 412.664062 180.980469 413.230469 180.535156 C 413.800781 180.089844 414.335938 179.609375 414.84375 179.09375 C 415.347656 178.578125 415.820312 178.03125 416.257812 177.457031 C 416.695312 176.878906 417.09375 176.277344 417.453125 175.652344 C 417.8125 175.023438 418.128906 174.378906 418.40625 173.710938 C 418.683594 173.042969 418.914062 172.359375 419.101562 171.660156 C 419.292969 170.960938 419.433594 170.253906 419.53125 169.539062 C 419.628906 168.824219 419.679688 168.105469 419.683594 167.382812 C 419.6875 166.660156 419.648438 165.9375 419.5625 165.222656 C 419.472656 164.503906 419.339844 163.792969 419.164062 163.09375 C 418.984375 162.394531 418.761719 161.707031 418.492188 161.035156 C 418.226562 160.363281 417.917969 159.710938 417.570312 159.078125 C 417.21875 158.449219 416.828125 157.839844 416.402344 157.257812 C 415.972656 156.675781 415.507812 156.125 415.007812 155.601562 C 414.507812 155.078125 413.976562 154.589844 413.414062 154.136719 C 412.855469 153.683594 412.265625 153.265625 411.652344 152.886719 L 277.15625 70.015625 C 275.828125 69.195312 274.410156 68.570312 272.90625 68.144531 C 271.402344 67.71875 269.871094 67.507812 268.308594 67.507812 C 266.746094 67.507812 265.210938 67.71875 263.707031 68.144531 C 262.203125 68.570312 260.785156 69.195312 259.457031 70.015625 Z M 124.960938 152.886719 " fill-opacity="1" fill-rule="nonzero"/><path fill="#009688" d="M 84.375 672.046875 L 725.625 672.046875 C 726.179688 672.046875 726.730469 672.019531 727.277344 671.964844 C 727.828125 671.910156 728.375 671.828125 728.914062 671.722656 C 729.457031 671.613281 729.992188 671.480469 730.523438 671.320312 C 731.050781 671.160156 731.570312 670.972656 732.082031 670.761719 C 732.59375 670.550781 733.089844 670.3125 733.578125 670.054688 C 734.066406 669.792969 734.539062 669.507812 734.996094 669.203125 C 735.457031 668.894531 735.902344 668.566406 736.328125 668.214844 C 736.757812 667.867188 737.164062 667.496094 737.554688 667.105469 C 737.949219 666.710938 738.316406 666.304688 738.667969 665.875 C 739.019531 665.449219 739.347656 665.007812 739.652344 664.546875 C 739.960938 664.085938 740.246094 663.613281 740.507812 663.125 C 740.769531 662.640625 741.003906 662.140625 741.214844 661.628906 C 741.425781 661.117188 741.613281 660.597656 741.773438 660.070312 C 741.933594 659.542969 742.066406 659.003906 742.175781 658.460938 C 742.285156 657.921875 742.363281 657.375 742.417969 656.824219 C 742.472656 656.277344 742.5 655.726562 742.5 655.171875 L 742.5 115.171875 C 742.5 114.621094 742.472656 114.066406 742.417969 113.519531 C 742.363281 112.96875 742.285156 112.421875 742.175781 111.878906 C 742.066406 111.335938 741.933594 110.800781 741.773438 110.273438 C 741.613281 109.742188 741.425781 109.222656 741.214844 108.714844 C 741.003906 108.203125 740.765625 107.703125 740.507812 107.214844 C 740.246094 106.730469 739.960938 106.257812 739.652344 105.796875 C 739.347656 105.335938 739.019531 104.894531 738.667969 104.464844 C 738.316406 104.039062 737.949219 103.628906 737.554688 103.238281 C 737.164062 102.847656 736.757812 102.476562 736.332031 102.128906 C 735.902344 101.777344 735.460938 101.449219 735 101.140625 C 734.539062 100.832031 734.066406 100.550781 733.578125 100.289062 C 733.089844 100.027344 732.59375 99.792969 732.082031 99.582031 C 731.570312 99.371094 731.050781 99.183594 730.523438 99.023438 C 729.992188 98.863281 729.457031 98.730469 728.914062 98.621094 C 728.375 98.515625 727.828125 98.433594 727.277344 98.378906 C 726.730469 98.324219 726.179688 98.296875 725.625 98.296875 L 489.375 98.296875 C 488.820312 98.296875 488.269531 98.324219 487.722656 98.378906 C 487.171875 98.433594 486.625 98.511719 486.082031 98.621094 C 485.542969 98.730469 485.007812 98.863281 484.476562 99.023438 C 483.949219 99.183594 483.429688 99.371094 482.917969 99.582031 C 482.40625 99.792969 481.90625 100.03125 481.421875 100.289062 C 480.933594 100.550781 480.460938 100.835938 480 101.140625 C 479.539062 101.449219 479.097656 101.777344 478.667969 102.128906 C 478.242188 102.480469 477.835938 102.847656 477.441406 103.238281 C 477.050781 103.628906 476.679688 104.039062 476.332031 104.464844 C 475.980469 104.894531 475.652344 105.335938 475.34375 105.796875 C 475.035156 106.257812 474.753906 106.730469 474.492188 107.21875 C 474.234375 107.703125 473.996094 108.203125 473.785156 108.714844 C 473.574219 109.226562 473.386719 109.746094 473.226562 110.273438 C 473.066406 110.800781 472.929688 111.339844 472.824219 111.878906 C 472.714844 112.421875 472.636719 112.96875 472.582031 113.519531 C 472.527344 114.066406 472.5 114.621094 472.5 115.171875 C 472.5 115.726562 472.527344 116.277344 472.582031 116.824219 C 472.636719 117.375 472.714844 117.921875 472.824219 118.464844 C 472.929688 119.003906 473.066406 119.542969 473.226562 120.070312 C 473.386719 120.597656 473.570312 121.117188 473.78125 121.628906 C 473.996094 122.140625 474.230469 122.640625 474.492188 123.125 C 474.753906 123.613281 475.035156 124.085938 475.34375 124.546875 C 475.652344 125.003906 475.980469 125.449219 476.332031 125.875 C 476.679688 126.304688 477.050781 126.710938 477.441406 127.105469 C 477.832031 127.496094 478.242188 127.863281 478.667969 128.214844 C 479.097656 128.566406 479.539062 128.894531 480 129.203125 C 480.457031 129.507812 480.933594 129.792969 481.417969 130.054688 C 481.90625 130.3125 482.40625 130.550781 482.914062 130.761719 C 483.425781 130.972656 483.945312 131.160156 484.472656 131.320312 C 485.003906 131.480469 485.539062 131.613281 486.082031 131.722656 C 486.625 131.828125 487.171875 131.910156 487.71875 131.964844 C 488.269531 132.019531 488.820312 132.046875 489.375 132.046875 L 708.75 132.046875 L 708.75 638.296875 L 84.375 638.296875 C 83.824219 638.296875 83.273438 638.324219 82.722656 638.378906 C 82.171875 638.433594 81.625 638.515625 81.082031 638.621094 C 80.542969 638.730469 80.007812 638.863281 79.476562 639.023438 C 78.949219 639.183594 78.429688 639.371094 77.917969 639.582031 C 77.410156 639.792969 76.910156 640.03125 76.421875 640.289062 C 75.933594 640.550781 75.460938 640.835938 75 641.140625 C 74.539062 641.449219 74.097656 641.777344 73.671875 642.128906 C 73.242188 642.480469 72.835938 642.847656 72.441406 643.238281 C 72.050781 643.628906 71.679688 644.039062 71.332031 644.46875 C 70.980469 644.894531 70.652344 645.339844 70.34375 645.796875 C 70.039062 646.257812 69.753906 646.730469 69.492188 647.21875 C 69.230469 647.707031 68.996094 648.203125 68.785156 648.714844 C 68.574219 649.226562 68.386719 649.746094 68.226562 650.273438 C 68.066406 650.804688 67.929688 651.339844 67.824219 651.878906 C 67.714844 652.421875 67.636719 652.96875 67.582031 653.519531 C 67.527344 654.070312 67.5 654.621094 67.5 655.171875 C 67.5 655.726562 67.527344 656.277344 67.582031 656.824219 C 67.636719 657.375 67.714844 657.921875 67.824219 658.464844 C 67.929688 659.003906 68.066406 659.542969 68.226562 660.070312 C 68.386719 660.597656 68.574219 661.117188 68.785156 661.628906 C 68.996094 662.140625 69.230469 662.640625 69.492188 663.125 C 69.753906 663.613281 70.035156 664.085938 70.34375 664.546875 C 70.652344 665.007812 70.980469 665.449219 71.332031 665.878906 C 71.679688 666.304688 72.050781 666.710938 72.441406 667.105469 C 72.832031 667.496094 73.242188 667.867188 73.671875 668.214844 C 74.097656 668.566406 74.539062 668.894531 75 669.203125 C 75.457031 669.511719 75.933594 669.792969 76.417969 670.054688 C 76.90625 670.316406 77.40625 670.550781 77.917969 670.761719 C 78.425781 670.972656 78.945312 671.160156 79.476562 671.320312 C 80.003906 671.480469 80.539062 671.613281 81.082031 671.722656 C 81.625 671.832031 82.171875 671.910156 82.722656 671.964844 C 83.269531 672.019531 83.820312 672.046875 84.375 672.046875 Z M 84.375 672.046875 " fill-opacity="1" fill-rule="nonzero"/><path fill="#009688" d="M 84.375 708.75 L 725.625 708.75 C 726.175781 708.75 726.730469 708.777344 727.277344 708.832031 C 727.828125 708.886719 728.375 708.964844 728.917969 709.074219 C 729.460938 709.183594 729.996094 709.316406 730.523438 709.476562 C 731.050781 709.636719 731.570312 709.824219 732.082031 710.035156 C 732.59375 710.246094 733.09375 710.480469 733.578125 710.742188 C 734.066406 711.003906 734.539062 711.285156 735 711.59375 C 735.460938 711.902344 735.902344 712.230469 736.332031 712.582031 C 736.757812 712.929688 737.167969 713.300781 737.558594 713.691406 C 737.949219 714.082031 738.320312 714.492188 738.667969 714.917969 C 739.019531 715.347656 739.347656 715.789062 739.65625 716.25 C 739.964844 716.710938 740.246094 717.183594 740.507812 717.671875 C 740.769531 718.15625 741.003906 718.65625 741.214844 719.167969 C 741.425781 719.679688 741.613281 720.199219 741.773438 720.726562 C 741.933594 721.253906 742.066406 721.789062 742.175781 722.332031 C 742.285156 722.875 742.363281 723.421875 742.417969 723.972656 C 742.472656 724.519531 742.5 725.074219 742.5 725.625 C 742.5 726.175781 742.472656 726.730469 742.417969 727.277344 C 742.363281 727.828125 742.285156 728.375 742.175781 728.917969 C 742.066406 729.460938 741.933594 729.996094 741.773438 730.523438 C 741.613281 731.050781 741.425781 731.570312 741.214844 732.082031 C 741.003906 732.59375 740.769531 733.09375 740.507812 733.578125 C 740.246094 734.066406 739.964844 734.539062 739.65625 735 C 739.347656 735.460938 739.019531 735.902344 738.667969 736.332031 C 738.320312 736.757812 737.949219 737.167969 737.558594 737.558594 C 737.167969 737.949219 736.757812 738.320312 736.332031 738.667969 C 735.902344 739.019531 735.460938 739.347656 735 739.65625 C 734.539062 739.964844 734.066406 740.246094 733.578125 740.507812 C 733.09375 740.769531 732.59375 741.003906 732.082031 741.214844 C 731.570312 741.425781 731.050781 741.613281 730.523438 741.773438 C 729.996094 741.933594 729.460938 742.066406 728.917969 742.175781 C 728.375 742.285156 727.828125 742.363281 727.277344 742.417969 C 726.730469 742.472656 726.175781 742.5 725.625 742.5 L 84.375 742.5 C 83.824219 742.5 83.269531 742.472656 82.722656 742.417969 C 82.171875 742.363281 81.625 742.285156 81.082031 742.175781 C 80.539062 742.066406 80.003906 741.933594 79.476562 741.773438 C 78.949219 741.613281 78.429688 741.425781 77.917969 741.214844 C 77.40625 741.003906 76.90625 740.769531 76.421875 740.507812 C 75.933594 740.246094 75.460938 739.964844 75 739.65625 C 74.539062 739.347656 74.097656 739.019531 73.667969 738.667969 C 73.242188 738.320312 72.832031 737.949219 72.441406 737.558594 C 72.050781 737.167969 71.679688 736.757812 71.332031 736.332031 C 70.980469 735.902344 70.652344 735.460938 70.34375 735 C 70.035156 734.539062 69.753906 734.066406 69.492188 733.578125 C 69.230469 733.09375 68.996094 732.59375 68.785156 732.082031 C 68.574219 731.570312 68.386719 731.050781 68.226562 730.523438 C 68.066406 729.996094 67.933594 729.460938 67.824219 728.917969 C 67.714844 728.375 67.636719 727.828125 67.582031 727.277344 C 67.527344 726.730469 67.5 726.175781 67.5 725.625 C 67.5 725.074219 67.527344 724.519531 67.582031 723.972656 C 67.636719 723.421875 67.714844 722.875 67.824219 722.332031 C 67.933594 721.789062 68.066406 721.253906 68.226562 720.726562 C 68.386719 720.199219 68.574219 719.679688 68.785156 719.167969 C 68.996094 718.65625 69.230469 718.15625 69.492188 717.671875 C 69.753906 717.183594 70.035156 716.710938 70.34375 716.25 C 70.652344 715.789062 70.980469 715.347656 71.332031 714.917969 C 71.679688 714.492188 72.050781 714.082031 72.441406 713.691406 C 72.832031 713.300781 73.242188 712.929688 73.667969 712.582031 C 74.097656 712.230469 74.539062 711.902344 75 711.59375 C 75.460938 711.285156 75.933594 711.003906 76.421875 710.742188 C 76.90625 710.480469 77.40625 710.246094 77.917969 710.035156 C 78.429688 709.824219 78.949219 709.636719 79.476562 709.476562 C 80.003906 709.316406 80.539062 709.183594 81.082031 709.074219 C 81.625 708.964844 82.171875 708.886719 82.722656 708.832031 C 83.269531 708.777344 83.824219 708.75 84.375 708.75 Z M 84.375 708.75 " fill-opacity="1" fill-rule="nonzero"/></svg>