<svg xmlns="http://www.w3.org/2000/svg" xmlns:xlink="http://www.w3.org/1999/xlink" width="1080" zoomAndPan="magnify" viewBox="0 0 810 809.999993" height="1080" preserveAspectRatio="xMidYMid meet" version="1.0"><path fill="#009688" d="M 725.625 101.25 L 523.125 101.25 C 522.574219 101.25 522.019531 101.277344 521.472656 101.332031 C 520.921875 101.386719 520.375 101.464844 519.832031 101.574219 C 519.289062 101.683594 518.753906 101.816406 518.226562 101.976562 C 517.699219 102.136719 517.175781 102.324219 516.667969 102.535156 C 516.15625 102.746094 515.65625 102.984375 515.171875 103.242188 C 514.683594 103.503906 514.210938 103.789062 513.75 104.09375 C 513.289062 104.402344 512.847656 104.730469 512.417969 105.082031 C 511.992188 105.429688 511.582031 105.800781 511.191406 106.191406 C 510.800781 106.582031 510.429688 106.992188 510.082031 107.417969 C 509.730469 107.847656 509.402344 108.289062 509.09375 108.75 C 508.789062 109.207031 508.503906 109.683594 508.242188 110.171875 C 507.980469 110.65625 507.746094 111.15625 507.535156 111.667969 C 507.324219 112.179688 507.136719 112.699219 506.976562 113.226562 C 506.816406 113.757812 506.683594 114.289062 506.574219 114.832031 C 506.464844 115.375 506.386719 115.921875 506.332031 116.472656 C 506.277344 117.019531 506.25 117.574219 506.25 118.125 L 506.25 303.75 C 506.25 339.605469 521.976562 345.179688 537.773438 328.996094 L 590.625 270 L 725.625 269.863281 C 726.175781 269.863281 726.730469 269.835938 727.277344 269.785156 C 727.828125 269.730469 728.375 269.648438 728.917969 269.539062 C 729.460938 269.433594 729.996094 269.296875 730.523438 269.136719 C 731.050781 268.976562 731.570312 268.792969 732.082031 268.578125 C 732.59375 268.367188 733.09375 268.132812 733.578125 267.871094 C 734.066406 267.613281 734.539062 267.328125 735 267.019531 C 735.460938 266.714844 735.902344 266.386719 736.332031 266.035156 C 736.757812 265.683594 737.167969 265.3125 737.558594 264.921875 C 737.949219 264.53125 738.320312 264.125 738.667969 263.695312 C 739.019531 263.269531 739.347656 262.824219 739.65625 262.363281 C 739.964844 261.90625 740.246094 261.433594 740.507812 260.945312 C 740.769531 260.457031 741.003906 259.957031 741.214844 259.445312 C 741.425781 258.9375 741.613281 258.417969 741.773438 257.886719 C 741.933594 257.359375 742.066406 256.824219 742.175781 256.28125 C 742.285156 255.738281 742.363281 255.195312 742.417969 254.644531 C 742.472656 254.09375 742.5 253.542969 742.5 252.988281 L 742.5 118.125 C 742.5 117.574219 742.472656 117.019531 742.417969 116.472656 C 742.363281 115.921875 742.285156 115.375 742.175781 114.832031 C 742.066406 114.289062 741.933594 113.753906 741.773438 113.226562 C 741.613281 112.699219 741.425781 112.175781 741.214844 111.667969 C 741.003906 111.15625 740.765625 110.65625 740.507812 110.167969 C 740.246094 109.683594 739.960938 109.207031 739.65625 108.75 C 739.347656 108.289062 739.019531 107.847656 738.667969 107.417969 C 738.320312 106.992188 737.949219 106.582031 737.558594 106.191406 C 737.167969 105.800781 736.757812 105.429688 736.332031 105.082031 C 735.902344 104.730469 735.460938 104.402344 735 104.09375 C 734.539062 103.785156 734.066406 103.503906 733.578125 103.242188 C 733.09375 102.980469 732.59375 102.746094 732.082031 102.535156 C 731.570312 102.324219 731.050781 102.136719 730.523438 101.976562 C 729.996094 101.816406 729.460938 101.683594 728.917969 101.574219 C 728.375 101.464844 727.828125 101.386719 727.277344 101.332031 C 726.730469 101.277344 726.175781 101.25 725.625 101.25 Z M 708.75 236.113281 L 573.75 236.25 L 540 270 L 540 135 L 708.75 135 Z M 708.75 236.113281 " fill-opacity="1" fill-rule="nonzero"/><path fill="#009688" d="M 438.75 101.371094 L 101.25 101.371094 C 100.144531 101.371094 99.042969 101.425781 97.941406 101.535156 C 96.84375 101.644531 95.75 101.804688 94.664062 102.019531 C 93.582031 102.234375 92.511719 102.503906 91.453125 102.824219 C 90.394531 103.144531 89.355469 103.519531 88.335938 103.941406 C 87.3125 104.363281 86.316406 104.835938 85.339844 105.355469 C 84.367188 105.878906 83.417969 106.445312 82.5 107.058594 C 81.582031 107.671875 80.695312 108.332031 79.839844 109.03125 C 78.984375 109.734375 78.167969 110.476562 77.386719 111.257812 C 76.605469 112.039062 75.863281 112.855469 75.160156 113.710938 C 74.460938 114.566406 73.800781 115.453125 73.1875 116.371094 C 72.574219 117.289062 72.007812 118.238281 71.484375 119.210938 C 70.964844 120.1875 70.492188 121.1875 70.070312 122.207031 C 69.644531 123.226562 69.273438 124.269531 68.953125 125.324219 C 68.632812 126.382812 68.363281 127.453125 68.148438 128.539062 C 67.933594 129.621094 67.769531 130.714844 67.664062 131.8125 C 67.554688 132.914062 67.5 134.015625 67.5 135.121094 L 67.5 675.027344 C 67.5 676.132812 67.554688 677.234375 67.664062 678.335938 C 67.769531 679.433594 67.933594 680.527344 68.148438 681.609375 C 68.363281 682.695312 68.632812 683.765625 68.953125 684.824219 C 69.273438 685.882812 69.644531 686.921875 70.070312 687.941406 C 70.492188 688.964844 70.964844 689.960938 71.484375 690.9375 C 72.007812 691.910156 72.574219 692.859375 73.1875 693.777344 C 73.800781 694.695312 74.460938 695.582031 75.160156 696.4375 C 75.863281 697.292969 76.601562 698.109375 77.386719 698.890625 C 78.167969 699.671875 78.984375 700.414062 79.839844 701.117188 C 80.695312 701.816406 81.582031 702.476562 82.5 703.089844 C 83.417969 703.703125 84.367188 704.269531 85.339844 704.792969 C 86.316406 705.3125 87.3125 705.785156 88.335938 706.207031 C 89.355469 706.628906 90.394531 707.003906 91.453125 707.324219 C 92.511719 707.644531 93.582031 707.914062 94.664062 708.128906 C 95.75 708.34375 96.84375 708.507812 97.941406 708.613281 C 99.042969 708.722656 100.144531 708.777344 101.25 708.777344 L 438.75 708.777344 C 439.855469 708.777344 440.957031 708.722656 442.058594 708.613281 C 443.160156 708.507812 444.25 708.34375 445.335938 708.128906 C 446.417969 707.914062 447.488281 707.644531 448.546875 707.324219 C 449.605469 707.003906 450.644531 706.628906 451.664062 706.207031 C 452.6875 705.785156 453.683594 705.3125 454.660156 704.792969 C 455.632812 704.269531 456.582031 703.703125 457.5 703.089844 C 458.417969 702.476562 459.304688 701.816406 460.160156 701.117188 C 461.015625 700.414062 461.832031 699.671875 462.613281 698.890625 C 463.398438 698.109375 464.136719 697.292969 464.839844 696.4375 C 465.539062 695.582031 466.199219 694.695312 466.8125 693.777344 C 467.425781 692.859375 467.992188 691.910156 468.515625 690.9375 C 469.035156 689.960938 469.507812 688.964844 469.929688 687.941406 C 470.355469 686.921875 470.726562 685.882812 471.046875 684.824219 C 471.367188 683.765625 471.636719 682.695312 471.851562 681.609375 C 472.066406 680.527344 472.230469 679.433594 472.335938 678.335938 C 472.445312 677.234375 472.5 676.132812 472.5 675.027344 L 472.5 135.121094 C 472.5 134.015625 472.445312 132.914062 472.335938 131.8125 C 472.230469 130.714844 472.066406 129.621094 471.851562 128.535156 C 471.636719 127.453125 471.367188 126.382812 471.046875 125.324219 C 470.726562 124.265625 470.355469 123.226562 469.929688 122.207031 C 469.507812 121.183594 469.035156 120.1875 468.515625 119.210938 C 467.992188 118.238281 467.425781 117.289062 466.8125 116.371094 C 466.199219 115.453125 465.539062 114.566406 464.839844 113.710938 C 464.136719 112.855469 463.398438 112.039062 462.613281 111.257812 C 461.832031 110.476562 461.015625 109.734375 460.160156 109.03125 C 459.304688 108.332031 458.417969 107.671875 457.5 107.058594 C 456.582031 106.445312 455.632812 105.878906 454.660156 105.355469 C 453.683594 104.835938 452.6875 104.363281 451.664062 103.941406 C 450.644531 103.515625 449.605469 103.144531 448.546875 102.824219 C 447.488281 102.503906 446.417969 102.234375 445.335938 102.019531 C 444.25 101.804688 443.160156 101.644531 442.058594 101.535156 C 440.957031 101.425781 439.855469 101.371094 438.75 101.371094 Z M 438.75 675 L 101.25 675 L 101.25 202.621094 L 438.75 202.621094 Z M 438.75 168.871094 L 101.25 168.871094 L 101.25 135.121094 L 438.75 135.121094 Z M 438.75 168.871094 " fill-opacity="1" fill-rule="nonzero"/><path fill="#009688" d="M 405 599.0625 C 405 600.445312 404.933594 601.824219 404.796875 603.199219 C 404.660156 604.574219 404.457031 605.9375 404.1875 607.292969 C 403.917969 608.648438 403.585938 609.988281 403.183594 611.308594 C 402.78125 612.632812 402.316406 613.929688 401.789062 615.207031 C 401.261719 616.484375 400.667969 617.730469 400.019531 618.949219 C 399.367188 620.167969 398.65625 621.351562 397.890625 622.5 C 397.121094 623.648438 396.300781 624.757812 395.425781 625.824219 C 394.546875 626.894531 393.621094 627.917969 392.644531 628.894531 C 391.667969 629.871094 390.644531 630.796875 389.574219 631.675781 C 388.507812 632.550781 387.398438 633.371094 386.25 634.140625 C 385.101562 634.90625 383.917969 635.617188 382.699219 636.269531 C 381.480469 636.917969 380.234375 637.511719 378.957031 638.039062 C 377.679688 638.566406 376.382812 639.03125 375.058594 639.433594 C 373.738281 639.835938 372.398438 640.167969 371.042969 640.4375 C 369.6875 640.707031 368.324219 640.910156 366.949219 641.046875 C 365.574219 641.183594 364.195312 641.25 362.8125 641.25 C 361.429688 641.25 360.050781 641.183594 358.675781 641.046875 C 357.300781 640.910156 355.9375 640.707031 354.582031 640.4375 C 353.226562 640.167969 351.886719 639.835938 350.566406 639.433594 C 349.242188 639.03125 347.945312 638.566406 346.667969 638.039062 C 345.390625 637.511719 344.144531 636.917969 342.925781 636.269531 C 341.707031 635.617188 340.523438 634.90625 339.375 634.140625 C 338.226562 633.371094 337.117188 632.550781 336.050781 631.675781 C 334.980469 630.796875 333.957031 629.871094 332.980469 628.894531 C 332.003906 627.917969 331.078125 626.894531 330.199219 625.824219 C 329.324219 624.757812 328.503906 623.648438 327.734375 622.5 C 326.96875 621.351562 326.257812 620.167969 325.605469 618.949219 C 324.957031 617.730469 324.363281 616.484375 323.835938 615.207031 C 323.308594 613.929688 322.84375 612.632812 322.441406 611.308594 C 322.039062 609.988281 321.707031 608.648438 321.4375 607.292969 C 321.167969 605.9375 320.964844 604.574219 320.828125 603.199219 C 320.691406 601.824219 320.625 600.445312 320.625 599.0625 C 320.625 597.679688 320.691406 596.300781 320.828125 594.925781 C 320.964844 593.550781 321.167969 592.1875 321.4375 590.832031 C 321.707031 589.476562 322.039062 588.136719 322.441406 586.816406 C 322.84375 585.492188 323.308594 584.195312 323.835938 582.917969 C 324.363281 581.640625 324.957031 580.394531 325.605469 579.175781 C 326.257812 577.957031 326.96875 576.773438 327.734375 575.625 C 328.503906 574.476562 329.324219 573.367188 330.199219 572.300781 C 331.078125 571.230469 332.003906 570.207031 332.980469 569.230469 C 333.957031 568.253906 334.980469 567.328125 336.050781 566.449219 C 337.117188 565.574219 338.226562 564.753906 339.375 563.984375 C 340.523438 563.21875 341.707031 562.507812 342.925781 561.855469 C 344.144531 561.207031 345.390625 560.613281 346.667969 560.085938 C 347.945312 559.558594 349.242188 559.09375 350.566406 558.691406 C 351.886719 558.289062 353.226562 557.957031 354.582031 557.6875 C 355.9375 557.417969 357.300781 557.214844 358.675781 557.078125 C 360.050781 556.941406 361.429688 556.875 362.8125 556.875 C 364.195312 556.875 365.574219 556.941406 366.949219 557.078125 C 368.324219 557.214844 369.6875 557.417969 371.042969 557.6875 C 372.398438 557.957031 373.738281 558.289062 375.058594 558.691406 C 376.382812 559.09375 377.679688 559.558594 378.957031 560.085938 C 380.234375 560.613281 381.480469 561.207031 382.699219 561.855469 C 383.917969 562.507812 385.101562 563.21875 386.25 563.984375 C 387.398438 564.753906 388.507812 565.574219 389.574219 566.449219 C 390.644531 567.328125 391.667969 568.253906 392.644531 569.230469 C 393.621094 570.207031 394.546875 571.230469 395.425781 572.300781 C 396.300781 573.367188 397.121094 574.476562 397.890625 575.625 C 398.65625 576.773438 399.367188 577.957031 400.019531 579.175781 C 400.667969 580.394531 401.261719 581.640625 401.789062 582.917969 C 402.316406 584.195312 402.78125 585.492188 403.183594 586.816406 C 403.585938 588.136719 403.917969 589.476562 404.1875 590.832031 C 404.457031 592.1875 404.660156 593.550781 404.796875 594.925781 C 404.933594 596.300781 405 597.679688 405 599.0625 Z M 405 599.0625 " fill-opacity="1" fill-rule="nonzero"/><path fill="#009688" d="M 151.875 337.527344 L 388.125 337.527344 C 388.675781 337.527344 389.230469 337.5 389.777344 337.445312 C 390.328125 337.390625 390.875 337.3125 391.417969 337.203125 C 391.960938 337.09375 392.496094 336.960938 393.023438 336.800781 C 393.550781 336.640625 394.070312 336.453125 394.582031 336.242188 C 395.09375 336.03125 395.59375 335.796875 396.078125 335.535156 C 396.566406 335.273438 397.039062 334.988281 397.5 334.683594 C 397.960938 334.375 398.402344 334.046875 398.832031 333.699219 C 399.257812 333.347656 399.667969 332.976562 400.058594 332.585938 C 400.449219 332.195312 400.820312 331.785156 401.167969 331.359375 C 401.519531 330.929688 401.847656 330.488281 402.15625 330.027344 C 402.464844 329.566406 402.746094 329.09375 403.007812 328.605469 C 403.269531 328.121094 403.503906 327.621094 403.714844 327.109375 C 403.925781 326.597656 404.113281 326.078125 404.273438 325.550781 C 404.433594 325.023438 404.566406 324.484375 404.675781 323.945312 C 404.785156 323.402344 404.863281 322.855469 404.917969 322.304688 C 404.972656 321.757812 405 321.203125 405 320.652344 L 405 253.273438 C 405 252.722656 404.972656 252.171875 404.917969 251.621094 C 404.863281 251.070312 404.785156 250.523438 404.675781 249.980469 C 404.566406 249.4375 404.433594 248.902344 404.273438 248.375 C 404.113281 247.847656 403.925781 247.328125 403.714844 246.816406 C 403.503906 246.304688 403.269531 245.804688 403.007812 245.320312 C 402.746094 244.832031 402.464844 244.359375 402.15625 243.898438 C 401.847656 243.4375 401.519531 242.996094 401.167969 242.566406 C 400.820312 242.140625 400.449219 241.730469 400.058594 241.339844 C 399.667969 240.949219 399.257812 240.578125 398.832031 240.230469 C 398.402344 239.878906 397.960938 239.550781 397.5 239.242188 C 397.039062 238.933594 396.566406 238.652344 396.078125 238.390625 C 395.59375 238.128906 395.09375 237.894531 394.582031 237.683594 C 394.070312 237.472656 393.550781 237.285156 393.023438 237.125 C 392.496094 236.964844 391.960938 236.832031 391.417969 236.722656 C 390.875 236.617188 390.328125 236.535156 389.777344 236.480469 C 389.230469 236.425781 388.675781 236.398438 388.125 236.398438 L 151.875 236.398438 C 151.324219 236.398438 150.769531 236.425781 150.222656 236.480469 C 149.671875 236.535156 149.125 236.617188 148.582031 236.722656 C 148.039062 236.832031 147.503906 236.964844 146.976562 237.125 C 146.449219 237.285156 145.929688 237.472656 145.417969 237.683594 C 144.90625 237.894531 144.40625 238.128906 143.921875 238.390625 C 143.433594 238.652344 142.960938 238.9375 142.5 239.242188 C 142.039062 239.550781 141.597656 239.878906 141.167969 240.230469 C 140.742188 240.582031 140.332031 240.949219 139.941406 241.339844 C 139.550781 241.734375 139.179688 242.140625 138.832031 242.570312 C 138.480469 242.996094 138.152344 243.4375 137.84375 243.898438 C 137.535156 244.359375 137.253906 244.832031 136.992188 245.320312 C 136.730469 245.808594 136.496094 246.304688 136.285156 246.816406 C 136.074219 247.328125 135.886719 247.847656 135.726562 248.375 C 135.566406 248.90625 135.433594 249.441406 135.324219 249.980469 C 135.214844 250.523438 135.136719 251.070312 135.082031 251.621094 C 135.027344 252.171875 135 252.722656 135 253.273438 L 135 320.652344 C 135 321.203125 135.027344 321.757812 135.082031 322.304688 C 135.136719 322.855469 135.214844 323.402344 135.324219 323.945312 C 135.433594 324.484375 135.566406 325.019531 135.726562 325.550781 C 135.886719 326.078125 136.074219 326.597656 136.285156 327.109375 C 136.496094 327.621094 136.730469 328.121094 136.992188 328.605469 C 137.253906 329.09375 137.535156 329.566406 137.84375 330.027344 C 138.152344 330.488281 138.480469 330.929688 138.832031 331.359375 C 139.179688 331.785156 139.550781 332.195312 139.941406 332.585938 C 140.332031 332.976562 140.742188 333.347656 141.167969 333.695312 C 141.597656 334.046875 142.039062 334.375 142.5 334.683594 C 142.960938 334.988281 143.433594 335.273438 143.921875 335.535156 C 144.40625 335.796875 144.90625 336.03125 145.417969 336.242188 C 145.929688 336.453125 146.449219 336.640625 146.976562 336.800781 C 147.503906 336.960938 148.039062 337.09375 148.582031 337.203125 C 149.125 337.3125 149.671875 337.390625 150.222656 337.445312 C 150.769531 337.5 151.324219 337.527344 151.875 337.527344 Z M 151.875 337.527344 " fill-opacity="1" fill-rule="nonzero"/><path fill="#009688" d="M 151.875 472.527344 L 388.125 472.527344 C 388.675781 472.527344 389.230469 472.5 389.777344 472.445312 C 390.328125 472.390625 390.875 472.308594 391.417969 472.203125 C 391.960938 472.09375 392.496094 471.960938 393.023438 471.800781 C 393.550781 471.640625 394.070312 471.453125 394.582031 471.242188 C 395.09375 471.03125 395.59375 470.792969 396.078125 470.535156 C 396.566406 470.273438 397.039062 469.988281 397.5 469.683594 C 397.960938 469.375 398.402344 469.046875 398.832031 468.695312 C 399.257812 468.347656 399.667969 467.976562 400.058594 467.585938 C 400.449219 467.195312 400.820312 466.785156 401.167969 466.355469 C 401.519531 465.929688 401.847656 465.484375 402.15625 465.027344 C 402.464844 464.566406 402.746094 464.09375 403.007812 463.605469 C 403.269531 463.117188 403.503906 462.621094 403.714844 462.109375 C 403.925781 461.597656 404.113281 461.078125 404.273438 460.550781 C 404.433594 460.023438 404.566406 459.484375 404.675781 458.945312 C 404.785156 458.402344 404.863281 457.855469 404.917969 457.304688 C 404.972656 456.757812 405 456.203125 405 455.652344 L 405 388.273438 C 405 387.722656 404.972656 387.167969 404.917969 386.621094 C 404.863281 386.070312 404.785156 385.523438 404.675781 384.980469 C 404.566406 384.4375 404.433594 383.902344 404.273438 383.375 C 404.113281 382.847656 403.925781 382.328125 403.714844 381.816406 C 403.503906 381.304688 403.269531 380.804688 403.007812 380.316406 C 402.746094 379.832031 402.464844 379.355469 402.15625 378.898438 C 401.847656 378.4375 401.519531 377.996094 401.167969 377.566406 C 400.820312 377.140625 400.449219 376.730469 400.058594 376.339844 C 399.667969 375.949219 399.257812 375.578125 398.832031 375.230469 C 398.402344 374.878906 397.960938 374.550781 397.5 374.242188 C 397.039062 373.933594 396.566406 373.652344 396.078125 373.390625 C 395.59375 373.128906 395.09375 372.894531 394.582031 372.683594 C 394.070312 372.472656 393.550781 372.285156 393.023438 372.125 C 392.496094 371.964844 391.960938 371.832031 391.417969 371.722656 C 390.875 371.617188 390.328125 371.535156 389.777344 371.480469 C 389.230469 371.425781 388.675781 371.398438 388.125 371.398438 L 151.875 371.398438 C 151.324219 371.398438 150.769531 371.425781 150.222656 371.480469 C 149.671875 371.535156 149.125 371.617188 148.582031 371.722656 C 148.039062 371.832031 147.503906 371.964844 146.976562 372.125 C 146.449219 372.285156 145.929688 372.472656 145.417969 372.683594 C 144.90625 372.894531 144.40625 373.132812 143.921875 373.390625 C 143.433594 373.652344 142.960938 373.9375 142.5 374.242188 C 142.039062 374.550781 141.597656 374.878906 141.167969 375.230469 C 140.742188 375.582031 140.332031 375.949219 139.941406 376.339844 C 139.550781 376.734375 139.179688 377.140625 138.832031 377.570312 C 138.480469 377.996094 138.152344 378.4375 137.84375 378.898438 C 137.535156 379.359375 137.253906 379.832031 136.992188 380.320312 C 136.730469 380.808594 136.496094 381.304688 136.285156 381.816406 C 136.074219 382.328125 135.886719 382.847656 135.726562 383.375 C 135.566406 383.90625 135.433594 384.441406 135.324219 384.980469 C 135.214844 385.523438 135.136719 386.070312 135.082031 386.621094 C 135.027344 387.171875 135 387.722656 135 388.273438 L 135 455.652344 C 135 456.203125 135.027344 456.757812 135.082031 457.304688 C 135.136719 457.855469 135.214844 458.402344 135.324219 458.945312 C 135.433594 459.484375 135.566406 460.023438 135.726562 460.550781 C 135.886719 461.078125 136.074219 461.597656 136.285156 462.109375 C 136.496094 462.621094 136.730469 463.117188 136.992188 463.605469 C 137.253906 464.09375 137.535156 464.566406 137.84375 465.027344 C 138.152344 465.484375 138.480469 465.929688 138.832031 466.355469 C 139.179688 466.785156 139.550781 467.195312 139.941406 467.585938 C 140.332031 467.976562 140.742188 468.347656 141.167969 468.695312 C 141.597656 469.046875 142.039062 469.375 142.5 469.683594 C 142.960938 469.988281 143.433594 470.273438 143.921875 470.535156 C 144.40625 470.792969 144.90625 471.03125 145.417969 471.242188 C 145.929688 471.453125 146.449219 471.640625 146.976562 471.800781 C 147.503906 471.960938 148.039062 472.09375 148.582031 472.203125 C 149.125 472.308594 149.671875 472.390625 150.222656 472.445312 C 150.769531 472.5 151.324219 472.527344 151.875 472.527344 Z M 151.875 472.527344 " fill-opacity="1" fill-rule="nonzero"/><path fill="#009688" d="M 151.875 607.5 L 270 607.5 C 270.550781 607.5 271.105469 607.472656 271.652344 607.417969 C 272.203125 607.363281 272.75 607.28125 273.292969 607.175781 C 273.832031 607.066406 274.371094 606.933594 274.898438 606.773438 C 275.425781 606.613281 275.945312 606.425781 276.457031 606.214844 C 276.96875 606.003906 277.46875 605.765625 277.953125 605.507812 C 278.441406 605.246094 278.914062 604.960938 279.375 604.65625 C 279.835938 604.347656 280.277344 604.019531 280.703125 603.667969 C 281.132812 603.320312 281.542969 602.949219 281.933594 602.558594 C 282.324219 602.164062 282.695312 601.757812 283.042969 601.328125 C 283.394531 600.902344 283.722656 600.460938 284.03125 600 C 284.335938 599.539062 284.621094 599.066406 284.882812 598.578125 C 285.144531 598.09375 285.378906 597.59375 285.589844 597.082031 C 285.800781 596.570312 285.988281 596.050781 286.148438 595.523438 C 286.308594 594.996094 286.441406 594.460938 286.550781 593.917969 C 286.660156 593.375 286.738281 592.828125 286.792969 592.277344 C 286.847656 591.730469 286.875 591.179688 286.875 590.625 L 286.875 523.125 C 286.875 522.574219 286.847656 522.019531 286.792969 521.472656 C 286.738281 520.921875 286.660156 520.375 286.550781 519.832031 C 286.441406 519.289062 286.308594 518.753906 286.148438 518.226562 C 285.988281 517.695312 285.800781 517.175781 285.589844 516.667969 C 285.378906 516.15625 285.144531 515.65625 284.882812 515.167969 C 284.621094 514.683594 284.335938 514.207031 284.03125 513.75 C 283.722656 513.289062 283.394531 512.847656 283.042969 512.417969 C 282.695312 511.992188 282.324219 511.582031 281.933594 511.191406 C 281.542969 510.800781 281.132812 510.429688 280.707031 510.082031 C 280.277344 509.730469 279.835938 509.402344 279.375 509.09375 C 278.914062 508.785156 278.441406 508.503906 277.953125 508.242188 C 277.46875 507.980469 276.96875 507.746094 276.457031 507.535156 C 275.945312 507.324219 275.425781 507.136719 274.898438 506.976562 C 274.371094 506.816406 273.832031 506.683594 273.292969 506.574219 C 272.75 506.464844 272.203125 506.386719 271.652344 506.332031 C 271.105469 506.277344 270.550781 506.25 270 506.25 L 151.875 506.25 C 151.324219 506.25 150.769531 506.277344 150.222656 506.332031 C 149.671875 506.386719 149.125 506.464844 148.582031 506.574219 C 148.039062 506.683594 147.503906 506.816406 146.976562 506.976562 C 146.449219 507.136719 145.929688 507.324219 145.417969 507.535156 C 144.90625 507.746094 144.40625 507.984375 143.921875 508.242188 C 143.433594 508.503906 142.960938 508.789062 142.5 509.09375 C 142.039062 509.402344 141.597656 509.730469 141.167969 510.082031 C 140.742188 510.429688 140.332031 510.800781 139.941406 511.191406 C 139.550781 511.582031 139.179688 511.992188 138.832031 512.417969 C 138.480469 512.847656 138.152344 513.289062 137.84375 513.75 C 137.535156 514.210938 137.253906 514.683594 136.992188 515.171875 C 136.730469 515.65625 136.496094 516.15625 136.285156 516.667969 C 136.074219 517.179688 135.886719 517.699219 135.726562 518.226562 C 135.566406 518.753906 135.433594 519.289062 135.324219 519.832031 C 135.214844 520.375 135.136719 520.921875 135.082031 521.472656 C 135.027344 522.019531 135 522.574219 135 523.125 L 135 590.625 C 135 591.179688 135.027344 591.730469 135.082031 592.28125 C 135.136719 592.828125 135.214844 593.375 135.324219 593.917969 C 135.433594 594.460938 135.566406 594.996094 135.726562 595.523438 C 135.886719 596.050781 136.074219 596.570312 136.285156 597.082031 C 136.496094 597.59375 136.730469 598.09375 136.992188 598.578125 C 137.253906 599.066406 137.535156 599.539062 137.84375 600 C 138.152344 600.460938 138.480469 600.902344 138.832031 601.328125 C 139.179688 601.757812 139.550781 602.164062 139.941406 602.558594 C 140.332031 602.949219 140.742188 603.320312 141.167969 603.667969 C 141.597656 604.019531 142.039062 604.347656 142.5 604.65625 C 142.960938 604.960938 143.433594 605.246094 143.921875 605.507812 C 144.40625 605.765625 144.90625 606.003906 145.417969 606.214844 C 145.929688 606.425781 146.449219 606.613281 146.976562 606.773438 C 147.503906 606.933594 148.039062 607.066406 148.582031 607.175781 C 149.125 607.28125 149.671875 607.363281 150.222656 607.417969 C 150.769531 607.472656 151.324219 607.5 151.875 607.5 Z M 151.875 607.5 " fill-opacity="1" fill-rule="nonzero"/></svg>