<svg xmlns="http://www.w3.org/2000/svg" xmlns:xlink="http://www.w3.org/1999/xlink" width="1080" zoomAndPan="magnify" viewBox="0 0 810 809.999993" height="1080" preserveAspectRatio="xMidYMid meet" version="1.0"><path fill="#009688" d="M 670.949219 116.101562 L 137.699219 116.101562 C 121.5 116.101562 108 129.601562 108 145.800781 L 108 506.25 C 108 522.449219 121.5 535.949219 137.699219 535.949219 L 240.300781 535.949219 C 240.300781 537.300781 240.300781 538.648438 240.300781 540 L 216 580.5 C 209.25 592.648438 210.601562 606.148438 220.050781 615.601562 L 253.800781 649.351562 C 263.25 658.800781 279.449219 660.148438 290.25 653.398438 L 332.101562 629.101562 C 333.449219 627.75 336.148438 627.75 337.5 629.101562 C 338.851562 629.101562 340.199219 630.449219 340.199219 633.148438 L 352.351562 679.050781 C 355.050781 692.550781 367.199219 700.648438 380.699219 700.648438 L 429.300781 700.648438 C 442.800781 700.648438 454.949219 691.199219 457.648438 679.050781 L 469.800781 633.148438 C 469.800781 631.800781 471.148438 630.449219 473.851562 629.101562 C 475.199219 627.75 477.898438 627.75 479.25 629.101562 L 519.75 653.398438 C 531.898438 660.148438 546.75 658.800781 556.199219 649.351562 L 589.949219 615.601562 C 599.398438 606.148438 602.101562 591.300781 594 580.5 L 569.699219 540 C 569.699219 538.648438 569.699219 537.300781 569.699219 535.949219 L 672.300781 535.949219 C 688.5 535.949219 702 522.449219 702 506.25 L 702 145.800781 C 702 129.601562 688.5 116.101562 670.949219 116.101562 C 672.300781 116.101562 672.300781 116.101562 670.949219 116.101562 Z M 622.351562 491.398438 C 622.351562 495.449219 619.648438 499.5 614.25 500.851562 L 567 513 C 553.5 517.050781 545.398438 530.550781 548.101562 544.050781 C 548.101562 546.75 549.449219 548.101562 550.800781 550.800781 L 576.449219 591.300781 C 579.148438 595.351562 577.800781 599.398438 575.101562 603.449219 L 541.351562 634.5 C 538.648438 637.199219 533.25 638.550781 529.199219 635.851562 L 487.351562 611.550781 C 475.199219 604.800781 459 608.851562 452.25 621 C 450.898438 622.351562 450.898438 625.050781 449.550781 626.398438 L 437.398438 672.300781 C 436.050781 676.351562 432 680.398438 427.949219 680.398438 L 379.351562 680.398438 C 375.300781 680.398438 371.25 677.699219 369.898438 672.300781 L 357.75 626.398438 C 355.050781 618.300781 349.648438 612.898438 342.898438 608.851562 C 340.199219 607.5 336.148438 607.5 333.449219 607.5 C 329.398438 607.5 324 608.851562 321.300781 611.550781 L 279.449219 635.851562 C 275.398438 638.550781 270 637.199219 267.300781 634.5 L 233.550781 600.75 C 229.5 598.050781 229.5 592.648438 232.199219 588.601562 L 256.5 548.101562 C 263.25 535.949219 259.199219 519.75 247.050781 513 C 245.699219 511.648438 243 511.648438 240.300781 510.300781 L 194.398438 499.5 C 190.351562 498.148438 186.300781 494.101562 186.300781 490.050781 L 186.300781 442.800781 C 186.300781 438.75 189 434.699219 194.398438 433.351562 L 241.648438 421.199219 C 255.148438 417.148438 263.25 403.648438 260.550781 390.148438 C 260.550781 387.449219 259.199219 386.101562 257.851562 383.398438 L 232.199219 342.898438 C 229.5 338.851562 230.851562 334.800781 233.550781 330.75 L 267.300781 297 C 270 294.300781 275.398438 292.949219 279.449219 295.648438 L 321.300781 319.949219 C 333.449219 326.699219 349.648438 322.648438 356.398438 310.5 C 357.75 309.148438 357.75 306.449219 359.101562 305.101562 L 371.25 259.199219 C 372.601562 255.148438 376.648438 251.101562 380.699219 251.101562 L 429.300781 251.101562 C 433.351562 251.101562 437.398438 253.800781 438.75 259.199219 L 450.898438 305.101562 C 453.601562 313.199219 459 318.601562 465.75 321.300781 C 472.5 324 481.949219 324 488.699219 319.949219 L 530.550781 295.648438 C 534.601562 292.949219 540 294.300781 542.699219 297 L 576.449219 330.75 C 580.5 333.449219 580.5 338.851562 577.800781 342.898438 L 553.5 383.398438 C 546.75 395.550781 550.800781 411.75 562.949219 418.5 C 564.300781 419.851562 567 419.851562 569.699219 421.199219 L 616.949219 433.351562 C 621 434.699219 625.050781 438.75 625.050781 442.800781 Z M 673.648438 499.5 C 673.648438 504.898438 669.601562 508.949219 664.199219 508.949219 L 627.75 508.949219 C 637.199219 503.550781 642.601562 500.851562 642.601562 490.050781 L 642.601562 442.800781 C 642.601562 429.300781 633.148438 417.148438 619.648438 414.449219 L 572.398438 402.300781 C 571.050781 402.300781 569.699219 400.949219 568.351562 399.601562 L 568.351562 398.25 C 567 396.898438 567 395.550781 568.351562 392.851562 L 592.648438 352.351562 C 599.398438 340.199219 598.050781 326.699219 588.601562 317.25 L 554.851562 283.5 C 545.398438 274.050781 529.199219 272.699219 518.398438 279.449219 L 476.550781 303.75 C 475.199219 305.101562 472.5 305.101562 471.148438 303.75 C 469.800781 303.75 468.449219 302.398438 468.449219 299.699219 L 456.300781 253.800781 C 453.601562 240.300781 441.449219 232.199219 427.949219 232.199219 L 379.351562 232.199219 C 365.851562 232.199219 353.699219 241.648438 351 253.800781 L 338.851562 299.699219 C 338.851562 301.050781 337.5 302.398438 334.800781 303.75 C 333.449219 305.101562 330.75 305.101562 329.398438 303.75 L 288.898438 279.449219 C 276.75 272.699219 261.898438 274.050781 252.449219 283.5 L 218.699219 317.25 C 209.25 326.699219 206.550781 341.550781 214.648438 352.351562 L 238.949219 392.851562 C 240.300781 394.199219 240.300781 396.898438 238.949219 398.25 C 238.949219 399.601562 237.601562 400.949219 234.898438 400.949219 L 187.648438 411.75 C 174.148438 414.449219 164.699219 426.601562 164.699219 440.101562 L 164.699219 487.351562 C 164.699219 498.148438 170.101562 500.851562 179.550781 506.25 L 141.75 506.25 C 136.351562 506.25 132.300781 502.199219 132.300781 496.800781 L 132.300781 214.648438 L 672.300781 214.648438 L 672.300781 499.5 Z M 673.648438 194.398438 L 133.648438 194.398438 L 133.648438 155.25 C 133.648438 149.851562 137.699219 145.800781 143.101562 145.800781 L 136.351562 145.800781 L 662.851562 145.800781 C 668.25 145.800781 672.300781 149.851562 672.300781 155.25 Z M 673.648438 194.398438 " fill-opacity="1" fill-rule="nonzero"/><path fill="#009688" d="M 147.148438 155.25 L 166.050781 155.25 L 166.050781 174.148438 L 147.148438 174.148438 Z M 147.148438 155.25 " fill-opacity="1" fill-rule="nonzero"/><path fill="#009688" d="M 187.648438 155.25 L 207.898438 155.25 L 207.898438 174.148438 L 187.648438 174.148438 Z M 187.648438 155.25 " fill-opacity="1" fill-rule="nonzero"/><path fill="#009688" d="M 226.800781 155.25 L 247.050781 155.25 L 247.050781 174.148438 L 226.800781 174.148438 Z M 226.800781 155.25 " fill-opacity="1" fill-rule="nonzero"/><path fill="#009688" d="M 405 349.648438 C 338.851562 349.648438 286.199219 402.300781 286.199219 467.101562 C 286.199219 531.898438 338.851562 584.550781 405 584.550781 C 471.148438 584.550781 523.800781 531.898438 523.800781 467.101562 C 523.800781 402.300781 469.800781 349.648438 405 349.648438 Z M 405 564.300781 C 351 564.300781 306.449219 521.101562 306.449219 467.101562 C 306.449219 413.101562 351 369.898438 405 369.898438 C 459 369.898438 503.550781 413.101562 503.550781 467.101562 C 503.550781 521.101562 459 564.300781 405 564.300781 Z M 405 564.300781 " fill-opacity="1" fill-rule="nonzero"/><path fill="#009688" d="M 394.199219 457.648438 L 414.449219 457.648438 L 414.449219 476.550781 L 394.199219 476.550781 Z M 394.199219 457.648438 " fill-opacity="1" fill-rule="nonzero"/><path fill="#009688" d="M 434.699219 457.648438 L 454.949219 457.648438 L 454.949219 476.550781 L 434.699219 476.550781 Z M 434.699219 457.648438 " fill-opacity="1" fill-rule="nonzero"/><path fill="#009688" d="M 355.050781 457.648438 L 375.300781 457.648438 L 375.300781 476.550781 L 355.050781 476.550781 Z M 355.050781 457.648438 " fill-opacity="1" fill-rule="nonzero"/></svg>