<svg xmlns="http://www.w3.org/2000/svg" xmlns:xlink="http://www.w3.org/1999/xlink" width="1080" zoomAndPan="magnify" viewBox="0 0 810 809.999993" height="1080" preserveAspectRatio="xMidYMid meet" version="1.0"><path fill="#77c587" d="M 200.597656 622.691406 L 195.855469 653.558594 C 190.78125 638.796875 186.816406 623.742188 183.960938 608.394531 C 190.019531 612.566406 195.566406 617.332031 200.597656 622.691406 Z M 200.597656 622.691406 " fill-opacity="1" fill-rule="nonzero"/><path fill="#009688" d="M 164.953125 805.695312 C 157.820312 800.933594 153.078125 791.429688 153.078125 781.925781 L 176.847656 629.824219 C 96.035156 560.886719 48.496094 463.457031 48.496094 356.503906 C 48.496094 350.667969 48.640625 344.839844 48.925781 339.011719 C 49.210938 333.183594 49.640625 327.367188 50.214844 321.558594 C 50.785156 315.753906 51.5 309.964844 52.355469 304.195312 C 53.210938 298.421875 54.207031 292.675781 55.347656 286.953125 C 56.484375 281.230469 57.761719 275.539062 59.179688 269.878906 C 60.597656 264.21875 62.152344 258.597656 63.847656 253.015625 C 65.542969 247.433594 67.371094 241.894531 69.335938 236.402344 C 71.300781 230.90625 73.402344 225.464844 75.632812 220.074219 C 77.867188 214.683594 80.230469 209.351562 82.726562 204.078125 C 85.21875 198.804688 87.839844 193.59375 90.59375 188.449219 C 93.34375 183.304688 96.21875 178.226562 99.21875 173.222656 C 102.214844 168.21875 105.335938 163.292969 108.578125 158.441406 C 111.820312 153.589844 115.179688 148.820312 118.652344 144.132812 C 122.128906 139.449219 125.71875 134.851562 129.417969 130.339844 C 133.121094 125.828125 136.929688 121.414062 140.847656 117.089844 C 144.765625 112.765625 148.789062 108.542969 152.914062 104.417969 C 157.039062 100.292969 161.265625 96.269531 165.585938 92.351562 C 169.910156 88.433594 174.328125 84.625 178.835938 80.921875 C 183.347656 77.222656 187.945312 73.632812 192.632812 70.15625 C 197.316406 66.679688 202.085938 63.324219 206.9375 60.082031 C 211.789062 56.839844 216.714844 53.71875 221.71875 50.71875 C 226.726562 47.722656 231.800781 44.847656 236.945312 42.09375 C 242.089844 39.34375 247.300781 36.722656 252.574219 34.226562 C 257.847656 31.734375 263.183594 29.371094 268.570312 27.136719 C 273.960938 24.90625 279.402344 22.804688 284.898438 20.839844 C 290.390625 18.875 295.929688 17.042969 301.511719 15.351562 C 307.09375 13.65625 312.71875 12.101562 318.375 10.683594 C 324.035156 9.265625 329.726562 7.988281 335.449219 6.851562 C 341.171875 5.710938 346.917969 4.714844 352.691406 3.859375 C 358.460938 3.003906 364.25 2.289062 370.054688 1.714844 C 375.863281 1.144531 381.679688 0.714844 387.507812 0.429688 C 393.335938 0.144531 399.164062 0 405 0 C 410.835938 0 416.664062 0.144531 422.492188 0.429688 C 428.320312 0.714844 434.136719 1.144531 439.945312 1.714844 C 445.75 2.289062 451.539062 3.003906 457.308594 3.859375 C 463.082031 4.714844 468.828125 5.710938 474.550781 6.851562 C 480.273438 7.988281 485.964844 9.265625 491.625 10.683594 C 497.28125 12.101562 502.902344 13.65625 508.488281 15.351562 C 514.070312 17.042969 519.609375 18.875 525.101562 20.839844 C 530.59375 22.804688 536.039062 24.90625 541.429688 27.136719 C 546.816406 29.371094 552.152344 31.734375 557.425781 34.226562 C 562.699219 36.722656 567.910156 39.34375 573.054688 42.09375 C 578.199219 44.847656 583.273438 47.722656 588.277344 50.71875 C 593.285156 53.71875 598.210938 56.839844 603.0625 60.082031 C 607.914062 63.324219 612.683594 66.679688 617.367188 70.15625 C 622.054688 73.632812 626.652344 77.222656 631.164062 80.921875 C 635.671875 84.625 640.089844 88.433594 644.414062 92.351562 C 648.734375 96.269531 652.960938 100.292969 657.085938 104.417969 C 661.210938 108.542969 665.234375 112.765625 669.152344 117.089844 C 673.070312 121.414062 676.878906 125.828125 680.582031 130.339844 C 684.28125 134.851562 687.871094 139.449219 691.347656 144.132812 C 694.820312 148.820312 698.179688 153.589844 701.421875 158.441406 C 704.664062 163.292969 707.785156 168.21875 710.78125 173.222656 C 713.78125 178.226562 716.65625 183.304688 719.40625 188.449219 C 722.15625 193.59375 724.78125 198.804688 727.273438 204.078125 C 729.769531 209.351562 732.132812 214.683594 734.367188 220.074219 C 736.597656 225.464844 738.699219 230.90625 740.664062 236.402344 C 742.628906 241.894531 744.457031 247.433594 746.152344 253.015625 C 747.847656 258.597656 749.402344 264.21875 750.820312 269.878906 C 752.238281 275.539062 753.515625 281.230469 754.652344 286.953125 C 755.792969 292.675781 756.789062 298.421875 757.644531 304.195312 C 758.5 309.964844 759.214844 315.753906 759.785156 321.558594 C 760.359375 327.367188 760.789062 333.183594 761.074219 339.011719 C 761.359375 344.839844 761.503906 350.667969 761.503906 356.503906 C 761.503906 362.335938 761.359375 368.167969 761.074219 373.996094 C 760.789062 379.824219 760.359375 385.640625 759.785156 391.445312 C 759.214844 397.253906 758.5 403.042969 757.644531 408.8125 C 756.789062 414.585938 755.792969 420.332031 754.652344 426.054688 C 753.515625 431.777344 752.238281 437.46875 750.820312 443.125 C 749.402344 448.785156 747.847656 454.40625 746.152344 459.992188 C 744.457031 465.574219 742.628906 471.113281 740.664062 476.605469 C 738.699219 482.097656 736.597656 487.539062 734.367188 492.929688 C 732.132812 498.320312 729.769531 503.652344 727.273438 508.929688 C 724.78125 514.203125 722.15625 519.414062 719.40625 524.558594 C 716.65625 529.703125 713.78125 534.777344 710.78125 539.78125 C 707.785156 544.785156 704.664062 549.714844 701.421875 554.566406 C 698.179688 559.417969 694.820312 564.1875 691.347656 568.871094 C 687.871094 573.558594 684.28125 578.15625 680.582031 582.667969 C 676.878906 587.175781 673.070312 591.59375 669.152344 595.917969 C 665.234375 600.238281 661.210938 604.464844 657.085938 608.589844 C 652.960938 612.714844 648.734375 616.738281 644.414062 620.65625 C 640.089844 624.574219 635.671875 628.382812 631.164062 632.085938 C 626.652344 635.785156 622.054688 639.375 617.367188 642.847656 C 612.683594 646.324219 607.914062 649.683594 603.0625 652.925781 C 598.210938 656.167969 593.285156 659.285156 588.28125 662.285156 C 583.273438 665.285156 578.199219 668.160156 573.054688 670.910156 C 567.910156 673.660156 562.699219 676.285156 557.425781 678.777344 C 552.152344 681.273438 546.816406 683.636719 541.429688 685.871094 C 536.039062 688.101562 530.59375 690.203125 525.101562 692.167969 C 519.609375 694.132812 514.070312 695.960938 508.488281 697.65625 C 502.902344 699.347656 497.28125 700.90625 491.625 702.324219 C 485.964844 703.742188 480.273438 705.019531 474.550781 706.15625 C 468.828125 707.292969 463.082031 708.292969 457.308594 709.148438 C 451.539062 710.003906 445.75 710.71875 439.945312 711.289062 C 434.136719 711.863281 428.320312 712.289062 422.492188 712.578125 C 416.664062 712.863281 410.835938 713.007812 405 713.007812 C 381.769531 713.105469 358.796875 710.730469 336.082031 705.875 L 191.09375 803.355469 C 181.589844 810.4375 172.085938 812.828125 164.953125 805.695312 Z M 405 49.910156 C 401.007812 49.921875 397.015625 50.011719 393.023438 50.175781 C 389.035156 50.34375 385.050781 50.585938 381.070312 50.90625 C 377.089844 51.226562 373.117188 51.625 369.152344 52.097656 C 365.1875 52.570312 361.230469 53.121094 357.289062 53.75 C 353.34375 54.375 349.414062 55.078125 345.496094 55.855469 C 341.582031 56.636719 337.679688 57.488281 333.796875 58.417969 C 329.914062 59.347656 326.046875 60.351562 322.203125 61.433594 C 318.359375 62.511719 314.535156 63.664062 310.738281 64.890625 C 306.9375 66.117188 303.160156 67.417969 299.410156 68.789062 C 295.660156 70.164062 291.9375 71.605469 288.246094 73.125 C 284.550781 74.640625 280.886719 76.226562 277.253906 77.886719 C 273.621094 79.542969 270.023438 81.273438 266.457031 83.070312 C 262.890625 84.867188 259.359375 86.734375 255.867188 88.667969 C 252.375 90.601562 248.917969 92.601562 245.503906 94.667969 C 242.085938 96.738281 238.710938 98.871094 235.375 101.066406 C 232.042969 103.265625 228.753906 105.527344 225.503906 107.851562 C 222.257812 110.179688 219.058594 112.566406 215.90625 115.015625 C 212.75 117.464844 209.644531 119.972656 206.585938 122.542969 C 203.53125 125.109375 200.523438 127.738281 197.570312 130.421875 C 194.613281 133.109375 191.710938 135.851562 188.859375 138.648438 C 186.011719 141.445312 183.21875 144.296875 180.476562 147.203125 C 177.738281 150.109375 175.054688 153.066406 172.429688 156.074219 C 169.804688 159.085938 167.242188 162.144531 164.734375 165.253906 C 162.226562 168.359375 159.78125 171.515625 157.398438 174.71875 C 155.011719 177.921875 152.691406 181.171875 150.429688 184.464844 C 148.171875 187.757812 145.976562 191.09375 143.847656 194.46875 C 141.71875 197.847656 139.652344 201.265625 137.65625 204.722656 C 135.65625 208.179688 133.726562 211.675781 131.863281 215.207031 C 130 218.738281 128.207031 222.308594 126.484375 225.910156 C 124.757812 229.511719 123.101562 233.144531 121.519531 236.808594 C 119.933594 240.476562 118.421875 244.167969 116.980469 247.894531 C 115.539062 251.617188 114.167969 255.367188 112.871094 259.144531 C 111.578125 262.921875 110.351562 266.722656 109.203125 270.546875 C 108.054688 274.371094 106.980469 278.214844 105.976562 282.082031 C 104.976562 285.949219 104.050781 289.832031 103.199219 293.734375 C 102.351562 297.636719 101.574219 301.550781 100.875 305.484375 C 100.175781 309.414062 99.554688 313.359375 99.007812 317.316406 C 98.460938 321.269531 97.992188 325.234375 97.597656 329.210938 C 97.203125 333.183594 96.886719 337.164062 96.648438 341.148438 C 96.40625 345.136719 96.246094 349.125 96.160156 353.117188 C 96.074219 357.109375 96.066406 361.101562 96.136719 365.09375 C 96.203125 369.085938 96.351562 373.078125 96.574219 377.066406 C 96.796875 381.050781 97.097656 385.03125 97.476562 389.007812 C 97.851562 392.984375 98.308594 396.949219 98.835938 400.910156 C 99.367188 404.867188 99.976562 408.8125 100.660156 412.746094 C 101.339844 416.679688 102.101562 420.601562 102.933594 424.507812 C 103.769531 428.410156 104.679688 432.300781 105.664062 436.167969 C 106.652344 440.039062 107.710938 443.886719 108.84375 447.71875 C 109.976562 451.546875 111.1875 455.351562 112.46875 459.132812 C 113.75 462.917969 115.101562 466.671875 116.527344 470.402344 C 117.953125 474.132812 119.453125 477.832031 121.023438 481.503906 C 122.589844 485.175781 124.230469 488.816406 125.941406 492.425781 C 127.652344 496.035156 129.429688 499.609375 131.28125 503.148438 C 133.128906 506.6875 135.042969 510.191406 137.027344 513.65625 C 139.011719 517.121094 141.0625 520.546875 143.179688 523.933594 C 145.292969 527.320312 147.476562 530.664062 149.722656 533.96875 C 151.96875 537.269531 154.277344 540.527344 156.648438 543.738281 C 159.019531 546.953125 161.453125 550.117188 163.945312 553.238281 C 166.441406 556.355469 168.992188 559.425781 171.605469 562.445312 C 174.21875 565.464844 176.890625 568.433594 179.617188 571.351562 C 182.34375 574.265625 185.125 577.128906 187.964844 579.9375 C 190.804688 582.746094 193.695312 585.5 196.640625 588.199219 C 199.582031 590.894531 202.578125 593.535156 205.625 596.117188 C 208.671875 598.699219 211.769531 601.21875 214.914062 603.683594 C 222.042969 608.425781 224.417969 617.929688 224.417969 625.0625 L 207.78125 736.777344 L 317.105469 663.097656 C 321.863281 658.335938 328.996094 658.335938 336.128906 660.707031 C 358.859375 665.445312 381.832031 667.824219 405.046875 667.839844 C 410.105469 667.839844 415.160156 667.714844 420.207031 667.46875 C 425.257812 667.21875 430.300781 666.847656 435.332031 666.351562 C 440.363281 665.855469 445.382812 665.238281 450.382812 664.496094 C 455.386719 663.753906 460.367188 662.890625 465.324219 661.902344 C 470.285156 660.917969 475.214844 659.808594 480.121094 658.582031 C 485.027344 657.351562 489.898438 656.003906 494.738281 654.535156 C 499.574219 653.070312 504.375 651.484375 509.136719 649.78125 C 513.898438 648.078125 518.613281 646.257812 523.285156 644.320312 C 527.957031 642.386719 532.578125 640.339844 537.148438 638.175781 C 541.71875 636.015625 546.234375 633.742188 550.695312 631.359375 C 555.152344 628.976562 559.550781 626.484375 563.886719 623.882812 C 568.226562 621.285156 572.496094 618.578125 576.699219 615.769531 C 580.90625 612.960938 585.039062 610.050781 589.097656 607.039062 C 593.160156 604.027344 597.144531 600.917969 601.054688 597.707031 C 604.964844 594.5 608.789062 591.199219 612.535156 587.804688 C 616.285156 584.40625 619.945312 580.921875 623.519531 577.347656 C 627.09375 573.769531 630.582031 570.109375 633.976562 566.363281 C 637.371094 562.617188 640.675781 558.789062 643.882812 554.878906 C 647.089844 550.972656 650.199219 546.988281 653.210938 542.925781 C 656.222656 538.863281 659.132812 534.730469 661.945312 530.527344 C 664.753906 526.324219 667.457031 522.050781 670.058594 517.714844 C 672.65625 513.378906 675.148438 508.980469 677.53125 504.519531 C 679.914062 500.0625 682.1875 495.546875 684.351562 490.976562 C 686.511719 486.402344 688.558594 481.78125 690.496094 477.109375 C 692.429688 472.441406 694.25 467.722656 695.953125 462.960938 C 697.65625 458.203125 699.242188 453.402344 700.710938 448.5625 C 702.179688 443.722656 703.527344 438.851562 704.753906 433.949219 C 705.984375 429.042969 707.089844 424.109375 708.078125 419.152344 C 709.0625 414.191406 709.929688 409.210938 710.667969 404.210938 C 711.410156 399.207031 712.03125 394.191406 712.527344 389.160156 C 713.023438 384.128906 713.394531 379.085938 713.640625 374.035156 C 713.890625 368.984375 714.015625 363.933594 714.015625 358.875 C 714.015625 353.820312 713.890625 348.765625 713.640625 343.714844 C 713.394531 338.664062 713.023438 333.625 712.527344 328.589844 C 712.03125 323.558594 711.410156 318.542969 710.667969 313.539062 C 709.929688 308.539062 709.0625 303.558594 708.078125 298.597656 C 707.089844 293.640625 705.984375 288.707031 704.753906 283.804688 C 703.527344 278.898438 702.179688 274.027344 700.710938 269.1875 C 699.242188 264.347656 697.65625 259.550781 695.953125 254.789062 C 694.25 250.027344 692.429688 245.3125 690.496094 240.640625 C 688.558594 235.96875 686.511719 231.347656 684.351562 226.777344 C 682.1875 222.203125 679.914062 217.691406 677.53125 213.230469 C 675.148438 208.769531 672.65625 204.371094 670.058594 200.035156 C 667.457031 195.699219 664.753906 191.429688 661.945312 187.222656 C 659.132812 183.019531 656.222656 178.886719 653.210938 174.824219 C 650.199219 170.761719 647.089844 166.777344 643.882812 162.871094 C 640.675781 158.960938 637.371094 155.132812 633.976562 151.386719 C 630.582031 147.640625 627.09375 143.980469 623.519531 140.402344 C 619.945312 136.828125 616.285156 133.34375 612.535156 129.949219 C 608.789062 126.550781 604.964844 123.25 601.054688 120.042969 C 597.144531 116.835938 593.160156 113.722656 589.097656 110.710938 C 585.039062 107.699219 580.90625 104.789062 576.699219 101.980469 C 572.496094 99.171875 568.226562 96.464844 563.886719 93.867188 C 559.550781 91.265625 555.152344 88.777344 550.695312 86.390625 C 546.234375 84.007812 541.71875 81.734375 537.148438 79.574219 C 532.578125 77.414062 527.957031 75.363281 523.285156 73.429688 C 518.613281 71.492188 513.898438 69.675781 509.136719 67.972656 C 504.375 66.265625 499.574219 64.683594 494.738281 63.214844 C 489.898438 61.746094 485.027344 60.398438 480.121094 59.167969 C 475.214844 57.941406 470.285156 56.832031 465.324219 55.847656 C 460.367188 54.859375 455.386719 53.996094 450.382812 53.253906 C 445.382812 52.511719 440.363281 51.894531 435.332031 51.398438 C 430.300781 50.902344 425.257812 50.53125 420.207031 50.28125 C 415.160156 50.035156 410.105469 49.910156 405.046875 49.910156 Z M 405 49.910156 " fill-opacity="1" fill-rule="nonzero"/><path fill="#009688" d="M 405 487.226562 C 390.734375 487.226562 381.230469 477.703125 381.230469 463.457031 L 381.230469 385.050781 C 381.230469 370.800781 390.734375 361.28125 405 361.28125 C 406.945312 361.28125 408.886719 361.183594 410.824219 360.992188 C 412.761719 360.804688 414.683594 360.519531 416.589844 360.136719 C 418.5 359.757812 420.386719 359.285156 422.246094 358.722656 C 424.109375 358.15625 425.9375 357.5 427.738281 356.757812 C 429.535156 356.011719 431.292969 355.179688 433.007812 354.265625 C 434.722656 353.347656 436.390625 352.347656 438.007812 351.265625 C 439.625 350.1875 441.1875 349.027344 442.691406 347.792969 C 444.195312 346.558594 445.636719 345.253906 447.011719 343.878906 C 448.386719 342.5 449.695312 341.0625 450.929688 339.558594 C 452.164062 338.054688 453.320312 336.492188 454.402344 334.875 C 455.480469 333.257812 456.480469 331.589844 457.398438 329.875 C 458.316406 328.15625 459.148438 326.398438 459.890625 324.601562 C 460.636719 322.804688 461.292969 320.976562 461.855469 319.113281 C 462.421875 317.25 462.894531 315.363281 463.273438 313.457031 C 463.652344 311.546875 463.9375 309.625 464.128906 307.6875 C 464.320312 305.753906 464.414062 303.8125 464.414062 301.867188 C 464.414062 299.917969 464.320312 297.976562 464.128906 296.042969 C 463.9375 294.105469 463.652344 292.183594 463.273438 290.273438 C 462.894531 288.367188 462.421875 286.480469 461.855469 284.617188 C 461.292969 282.757812 460.636719 280.925781 459.890625 279.128906 C 459.148438 277.332031 458.316406 275.574219 457.398438 273.859375 C 456.480469 272.140625 455.480469 270.472656 454.402344 268.855469 C 453.320312 267.238281 452.164062 265.675781 450.929688 264.171875 C 449.695312 262.667969 448.386719 261.230469 447.011719 259.851562 C 445.636719 258.476562 444.195312 257.171875 442.691406 255.9375 C 441.1875 254.703125 439.625 253.546875 438.007812 252.464844 C 436.390625 251.382812 434.722656 250.382812 433.007812 249.464844 C 431.292969 248.550781 429.535156 247.71875 427.738281 246.972656 C 425.9375 246.230469 424.109375 245.574219 422.246094 245.007812 C 420.386719 244.445312 418.5 243.972656 416.589844 243.59375 C 414.683594 243.214844 412.761719 242.929688 410.824219 242.738281 C 408.886719 242.546875 406.945312 242.449219 405 242.449219 C 403.054688 242.449219 401.113281 242.546875 399.175781 242.738281 C 397.238281 242.925781 395.316406 243.214844 393.410156 243.59375 C 391.5 243.972656 389.613281 244.445312 387.753906 245.007812 C 385.890625 245.574219 384.0625 246.230469 382.261719 246.972656 C 380.464844 247.71875 378.707031 248.550781 376.992188 249.464844 C 375.277344 250.382812 373.609375 251.382812 371.992188 252.464844 C 370.375 253.546875 368.8125 254.703125 367.308594 255.9375 C 365.804688 257.171875 364.363281 258.476562 362.988281 259.851562 C 361.613281 261.230469 360.304688 262.667969 359.070312 264.171875 C 357.835938 265.675781 356.679688 267.238281 355.597656 268.855469 C 354.515625 270.472656 353.519531 272.140625 352.601562 273.859375 C 351.683594 275.574219 350.851562 277.332031 350.109375 279.128906 C 349.363281 280.925781 348.707031 282.757812 348.144531 284.617188 C 347.578125 286.480469 347.105469 288.367188 346.726562 290.273438 C 346.347656 292.183594 346.0625 294.105469 345.871094 296.042969 C 345.679688 297.976562 345.585938 299.917969 345.585938 301.867188 C 345.585938 316.128906 336.082031 325.632812 321.816406 325.632812 C 307.550781 325.632812 298.046875 316.128906 298.046875 301.867188 C 298.046875 300.113281 298.089844 298.367188 298.175781 296.617188 C 298.261719 294.871094 298.390625 293.125 298.5625 291.382812 C 298.734375 289.640625 298.949219 287.902344 299.203125 286.171875 C 299.460938 284.441406 299.761719 282.714844 300.101562 281 C 300.445312 279.28125 300.828125 277.574219 301.253906 275.878906 C 301.679688 274.179688 302.144531 272.492188 302.652344 270.820312 C 303.160156 269.144531 303.710938 267.480469 304.300781 265.835938 C 304.890625 264.1875 305.519531 262.554688 306.1875 260.9375 C 306.859375 259.320312 307.566406 257.71875 308.316406 256.136719 C 309.0625 254.554688 309.851562 252.992188 310.675781 251.449219 C 311.5 249.90625 312.363281 248.382812 313.261719 246.878906 C 314.164062 245.378906 315.101562 243.902344 316.070312 242.445312 C 317.042969 240.992188 318.050781 239.558594 319.09375 238.152344 C 320.136719 236.746094 321.214844 235.367188 322.324219 234.015625 C 323.433594 232.664062 324.578125 231.335938 325.753906 230.039062 C 326.929688 228.742188 328.136719 227.476562 329.371094 226.238281 C 330.609375 225 331.878906 223.792969 333.175781 222.617188 C 334.472656 221.441406 335.796875 220.300781 337.148438 219.191406 C 338.503906 218.078125 339.882812 217.003906 341.289062 215.960938 C 342.695312 214.917969 344.125 213.910156 345.582031 212.9375 C 347.035156 211.964844 348.515625 211.027344 350.015625 210.128906 C 351.515625 209.230469 353.039062 208.367188 354.582031 207.542969 C 356.125 206.714844 357.6875 205.929688 359.273438 205.179688 C 360.855469 204.433594 362.453125 203.722656 364.070312 203.054688 C 365.6875 202.382812 367.320312 201.753906 368.96875 201.164062 C 370.617188 200.574219 372.277344 200.027344 373.953125 199.519531 C 375.628906 199.011719 377.316406 198.542969 379.011719 198.117188 C 380.710938 197.691406 382.417969 197.308594 384.132812 196.96875 C 385.851562 196.625 387.574219 196.328125 389.308594 196.070312 C 391.039062 195.8125 392.773438 195.597656 394.515625 195.429688 C 396.257812 195.257812 398.003906 195.128906 399.753906 195.042969 C 401.5 194.957031 403.25 194.914062 405 194.914062 C 406.75 194.914062 408.5 194.957031 410.246094 195.042969 C 411.996094 195.128906 413.742188 195.257812 415.484375 195.429688 C 417.226562 195.597656 418.960938 195.8125 420.691406 196.070312 C 422.425781 196.328125 424.148438 196.625 425.867188 196.96875 C 427.582031 197.308594 429.289062 197.691406 430.988281 198.117188 C 432.683594 198.542969 434.371094 199.011719 436.046875 199.519531 C 437.722656 200.027344 439.382812 200.574219 441.03125 201.164062 C 442.679688 201.753906 444.3125 202.382812 445.929688 203.054688 C 447.546875 203.722656 449.144531 204.433594 450.726562 205.179688 C 452.308594 205.929688 453.875 206.714844 455.417969 207.542969 C 456.960938 208.367188 458.484375 209.230469 459.984375 210.128906 C 461.484375 211.027344 462.964844 211.964844 464.417969 212.9375 C 465.875 213.910156 467.304688 214.917969 468.710938 215.960938 C 470.117188 217.003906 471.496094 218.078125 472.851562 219.191406 C 474.203125 220.300781 475.527344 221.441406 476.824219 222.617188 C 478.121094 223.792969 479.390625 225 480.625 226.238281 C 481.863281 227.476562 483.070312 228.742188 484.246094 230.039062 C 485.421875 231.335938 486.566406 232.664062 487.675781 234.015625 C 488.785156 235.367188 489.863281 236.746094 490.90625 238.152344 C 491.949219 239.558594 492.957031 240.992188 493.925781 242.445312 C 494.898438 243.902344 495.835938 245.378906 496.734375 246.878906 C 497.636719 248.382812 498.5 249.90625 499.324219 251.449219 C 500.148438 252.992188 500.933594 254.554688 501.683594 256.136719 C 502.433594 257.71875 503.140625 259.320312 503.8125 260.9375 C 504.480469 262.554688 505.109375 264.1875 505.699219 265.835938 C 506.289062 267.480469 506.839844 269.144531 507.347656 270.820312 C 507.855469 272.492188 508.320312 274.179688 508.746094 275.878906 C 509.171875 277.574219 509.554688 279.28125 509.898438 281 C 510.238281 282.714844 510.539062 284.441406 510.792969 286.171875 C 511.050781 287.902344 511.265625 289.640625 511.4375 291.382812 C 511.609375 293.125 511.738281 294.871094 511.824219 296.617188 C 511.910156 298.367188 511.953125 300.113281 511.953125 301.867188 C 511.953125 351.777344 476.308594 394.554688 428.769531 406.445312 L 428.769531 463.488281 C 428.765625 464.265625 428.726562 465.042969 428.648438 465.816406 C 428.570312 466.585938 428.453125 467.355469 428.296875 468.117188 C 428.144531 468.878906 427.953125 469.632812 427.726562 470.375 C 427.5 471.117188 427.238281 471.847656 426.9375 472.566406 C 426.636719 473.285156 426.304688 473.984375 425.9375 474.671875 C 425.570312 475.355469 425.167969 476.019531 424.738281 476.667969 C 424.304688 477.3125 423.839844 477.933594 423.347656 478.535156 C 422.855469 479.136719 422.332031 479.710938 421.78125 480.261719 C 421.230469 480.808594 420.65625 481.332031 420.054688 481.824219 C 419.453125 482.316406 418.832031 482.777344 418.183594 483.210938 C 417.539062 483.644531 416.871094 484.042969 416.1875 484.410156 C 415.5 484.777344 414.800781 485.109375 414.082031 485.40625 C 413.363281 485.703125 412.632812 485.964844 411.886719 486.191406 C 411.144531 486.417969 410.390625 486.609375 409.628906 486.761719 C 408.867188 486.914062 408.101562 487.027344 407.328125 487.105469 C 406.550781 487.183594 405.777344 487.222656 405 487.226562 Z M 405 487.226562 " fill-opacity="1" fill-rule="nonzero"/><path fill="#009688" d="M 388.296875 549.011719 C 378.792969 539.507812 378.792969 522.871094 388.296875 515.738281 C 388.84375 515.191406 389.414062 514.675781 390.007812 514.1875 C 390.605469 513.699219 391.222656 513.238281 391.863281 512.8125 C 392.503906 512.382812 393.164062 511.988281 393.84375 511.625 C 394.523438 511.261719 395.21875 510.933594 395.929688 510.636719 C 396.644531 510.34375 397.367188 510.082031 398.105469 509.859375 C 398.84375 509.636719 399.589844 509.449219 400.34375 509.300781 C 401.101562 509.148438 401.863281 509.035156 402.628906 508.960938 C 403.394531 508.882812 404.164062 508.847656 404.933594 508.847656 C 405.707031 508.847656 406.472656 508.882812 407.242188 508.960938 C 408.007812 509.035156 408.769531 509.148438 409.523438 509.300781 C 410.28125 509.449219 411.027344 509.636719 411.765625 509.859375 C 412.503906 510.082031 413.226562 510.34375 413.9375 510.636719 C 414.652344 510.933594 415.347656 511.261719 416.027344 511.625 C 416.707031 511.988281 417.367188 512.382812 418.007812 512.8125 C 418.648438 513.242188 419.265625 513.699219 419.859375 514.1875 C 420.457031 514.675781 421.027344 515.191406 421.570312 515.738281 C 422.117188 516.28125 422.632812 516.851562 423.121094 517.449219 C 423.609375 518.042969 424.070312 518.664062 424.496094 519.304688 C 424.925781 519.945312 425.320312 520.605469 425.683594 521.285156 C 426.046875 521.964844 426.378906 522.660156 426.671875 523.371094 C 426.96875 524.082031 427.226562 524.808594 427.449219 525.546875 C 427.671875 526.28125 427.859375 527.027344 428.011719 527.785156 C 428.160156 528.539062 428.273438 529.300781 428.347656 530.070312 C 428.425781 530.835938 428.460938 531.605469 428.460938 532.375 C 428.460938 533.144531 428.425781 533.914062 428.347656 534.679688 C 428.273438 535.449219 428.160156 536.210938 428.011719 536.964844 C 427.859375 537.71875 427.671875 538.46875 427.449219 539.203125 C 427.226562 539.941406 426.96875 540.667969 426.671875 541.378906 C 426.378906 542.089844 426.046875 542.785156 425.683594 543.464844 C 425.320312 544.144531 424.925781 544.804688 424.496094 545.445312 C 424.070312 546.085938 423.609375 546.707031 423.121094 547.300781 C 422.632812 547.894531 422.117188 548.464844 421.570312 549.011719 C 412.132812 560.886719 397.867188 558.515625 388.296875 549.011719 Z M 388.296875 549.011719 " fill-opacity="1" fill-rule="nonzero"/></svg>