<svg xmlns="http://www.w3.org/2000/svg" xmlns:xlink="http://www.w3.org/1999/xlink" width="1080" zoomAndPan="magnify" viewBox="0 0 810 809.999993" height="1080" preserveAspectRatio="xMidYMid meet" version="1.0"><path fill="#009688" d="M 438.75 101.25 L 438.75 135 L 371.25 135 L 371.25 101.25 L 438.75 101.25 M 455.625 67.5 L 354.375 67.5 C 353.824219 67.5 353.269531 67.527344 352.722656 67.582031 C 352.171875 67.636719 351.628906 67.71875 351.082031 67.824219 C 350.542969 67.933594 350.007812 68.066406 349.476562 68.226562 C 348.945312 68.386719 348.429688 68.574219 347.917969 68.785156 C 347.410156 68.996094 346.910156 69.230469 346.421875 69.492188 C 345.933594 69.753906 345.460938 70.039062 345 70.34375 C 344.539062 70.652344 344.097656 70.980469 343.671875 71.332031 C 343.242188 71.683594 342.832031 72.050781 342.441406 72.441406 C 342.050781 72.832031 341.679688 73.242188 341.328125 73.667969 C 340.976562 74.097656 340.648438 74.539062 340.34375 75 C 340.035156 75.460938 339.753906 75.933594 339.492188 76.421875 C 339.230469 76.90625 338.996094 77.40625 338.785156 77.917969 C 338.574219 78.429688 338.390625 78.949219 338.230469 79.476562 C 338.070312 80.007812 337.933594 80.542969 337.824219 81.082031 C 337.71875 81.625 337.636719 82.171875 337.585938 82.722656 C 337.53125 83.269531 337.503906 83.824219 337.5 84.375 L 337.5 101.25 L 185.625 101.25 C 185.074219 101.25 184.519531 101.277344 183.972656 101.332031 C 183.421875 101.386719 182.875 101.464844 182.332031 101.574219 C 181.789062 101.683594 181.257812 101.816406 180.726562 101.976562 C 180.195312 102.136719 179.679688 102.324219 179.167969 102.535156 C 178.660156 102.746094 178.160156 102.980469 177.671875 103.242188 C 177.183594 103.503906 176.710938 103.785156 176.25 104.09375 C 175.789062 104.402344 175.347656 104.730469 174.921875 105.082031 C 174.496094 105.429688 174.085938 105.800781 173.691406 106.191406 C 173.300781 106.582031 172.929688 106.992188 172.582031 107.421875 C 172.230469 107.847656 171.898438 108.289062 171.59375 108.75 C 171.285156 109.210938 171.003906 109.683594 170.746094 110.171875 C 170.484375 110.660156 170.246094 111.15625 170.035156 111.667969 C 169.824219 112.179688 169.640625 112.699219 169.476562 113.226562 C 169.320312 113.753906 169.183594 114.289062 169.074219 114.832031 C 168.96875 115.375 168.886719 115.921875 168.832031 116.472656 C 168.777344 117.019531 168.75 117.574219 168.75 118.125 L 168.75 725.625 C 168.75 726.175781 168.777344 726.730469 168.832031 727.277344 C 168.886719 727.828125 168.96875 728.375 169.074219 728.917969 C 169.183594 729.457031 169.320312 729.996094 169.476562 730.523438 C 169.636719 731.050781 169.824219 731.570312 170.035156 732.082031 C 170.246094 732.59375 170.480469 733.09375 170.742188 733.578125 C 171.003906 734.066406 171.285156 734.539062 171.59375 735 C 171.898438 735.460938 172.230469 735.902344 172.582031 736.332031 C 172.929688 736.757812 173.300781 737.167969 173.691406 737.558594 C 174.082031 737.949219 174.492188 738.320312 174.917969 738.667969 C 175.347656 739.019531 175.789062 739.347656 176.25 739.65625 C 176.710938 739.964844 177.183594 740.246094 177.671875 740.507812 C 178.160156 740.769531 178.65625 741.003906 179.164062 741.214844 C 179.675781 741.425781 180.195312 741.613281 180.722656 741.773438 C 181.253906 741.933594 181.789062 742.066406 182.332031 742.175781 C 182.875 742.285156 183.421875 742.363281 183.972656 742.417969 C 184.519531 742.472656 185.074219 742.5 185.625 742.5 L 624.375 742.5 C 624.929688 742.5 625.480469 742.472656 626.027344 742.417969 C 626.578125 742.363281 627.125 742.285156 627.664062 742.175781 C 628.207031 742.066406 628.742188 741.933594 629.269531 741.773438 C 629.800781 741.613281 630.320312 741.425781 630.828125 741.214844 C 631.339844 741.003906 631.839844 740.765625 632.328125 740.507812 C 632.816406 740.246094 633.285156 739.960938 633.746094 739.65625 C 634.207031 739.347656 634.652344 739.019531 635.078125 738.667969 C 635.507812 738.320312 635.917969 737.949219 636.304688 737.558594 C 636.699219 737.167969 637.070312 736.757812 637.417969 736.328125 C 637.769531 735.902344 638.097656 735.460938 638.402344 735 C 638.710938 734.539062 638.996094 734.066406 639.257812 733.578125 C 639.519531 733.089844 639.753906 732.59375 639.960938 732.082031 C 640.175781 731.570312 640.363281 731.050781 640.523438 730.523438 C 640.683594 729.996094 640.816406 729.457031 640.925781 728.917969 C 641.03125 728.375 641.113281 727.828125 641.167969 727.277344 C 641.226562 726.730469 641.253906 726.175781 641.25 725.625 L 641.25 118.125 C 641.253906 117.574219 641.226562 117.019531 641.167969 116.46875 C 641.113281 115.921875 641.03125 115.375 640.925781 114.832031 C 640.816406 114.289062 640.683594 113.753906 640.523438 113.226562 C 640.363281 112.695312 640.175781 112.175781 639.960938 111.667969 C 639.753906 111.15625 639.519531 110.65625 639.257812 110.167969 C 638.996094 109.683594 638.710938 109.207031 638.402344 108.75 C 638.097656 108.289062 637.769531 107.847656 637.417969 107.417969 C 637.070312 106.992188 636.699219 106.582031 636.304688 106.191406 C 635.917969 105.800781 635.507812 105.429688 635.078125 105.078125 C 634.652344 104.730469 634.207031 104.398438 633.746094 104.09375 C 633.285156 103.785156 632.816406 103.503906 632.328125 103.242188 C 631.839844 102.980469 631.339844 102.746094 630.828125 102.535156 C 630.320312 102.324219 629.800781 102.136719 629.269531 101.976562 C 628.742188 101.816406 628.207031 101.683594 627.664062 101.574219 C 627.125 101.464844 626.578125 101.386719 626.027344 101.332031 C 625.480469 101.277344 624.929688 101.25 624.375 101.25 L 472.5 101.25 L 472.5 84.375 C 472.5 83.824219 472.472656 83.269531 472.417969 82.722656 C 472.363281 82.171875 472.285156 81.625 472.175781 81.082031 C 472.066406 80.539062 471.929688 80.003906 471.773438 79.476562 C 471.609375 78.949219 471.425781 78.429688 471.210938 77.917969 C 471.003906 77.40625 470.765625 76.90625 470.503906 76.417969 C 470.246094 75.933594 469.960938 75.457031 469.652344 75 C 469.347656 74.539062 469.019531 74.097656 468.667969 73.667969 C 468.316406 73.242188 467.945312 72.832031 467.554688 72.441406 C 467.167969 72.050781 466.757812 71.679688 466.332031 71.328125 C 465.902344 70.980469 465.457031 70.652344 464.996094 70.34375 C 464.539062 70.039062 464.066406 69.753906 463.578125 69.492188 C 463.089844 69.230469 462.589844 68.996094 462.078125 68.785156 C 461.570312 68.574219 461.050781 68.386719 460.519531 68.226562 C 459.992188 68.066406 459.457031 67.933594 458.914062 67.824219 C 458.371094 67.71875 457.828125 67.636719 457.277344 67.582031 C 456.730469 67.527344 456.179688 67.5 455.625 67.5 Z M 354.375 168.75 L 455.625 168.75 C 456.179688 168.75 456.730469 168.722656 457.277344 168.667969 C 457.828125 168.613281 458.371094 168.53125 458.914062 168.425781 C 459.457031 168.316406 459.992188 168.183594 460.519531 168.023438 C 461.050781 167.863281 461.570312 167.675781 462.078125 167.464844 C 462.589844 167.253906 463.089844 167.019531 463.578125 166.757812 C 464.066406 166.496094 464.539062 166.210938 464.996094 165.90625 C 465.457031 165.597656 465.902344 165.269531 466.332031 164.917969 C 466.757812 164.570312 467.167969 164.199219 467.554688 163.808594 C 467.945312 163.417969 468.316406 163.007812 468.667969 162.578125 C 469.019531 162.152344 469.347656 161.710938 469.652344 161.25 C 469.960938 160.789062 470.246094 160.316406 470.503906 159.828125 C 470.765625 159.34375 471.003906 158.84375 471.210938 158.332031 C 471.425781 157.820312 471.609375 157.300781 471.773438 156.773438 C 471.929688 156.246094 472.066406 155.710938 472.175781 155.167969 C 472.285156 154.625 472.363281 154.078125 472.417969 153.527344 C 472.472656 152.980469 472.5 152.425781 472.5 151.875 L 472.5 135 L 607.5 135 L 607.5 708.75 L 202.5 708.75 L 202.5 135 L 337.5 135 L 337.5 151.875 C 337.503906 152.425781 337.527344 152.980469 337.582031 153.527344 C 337.636719 154.078125 337.71875 154.625 337.824219 155.167969 C 337.933594 155.710938 338.066406 156.246094 338.226562 156.773438 C 338.386719 157.300781 338.574219 157.820312 338.785156 158.332031 C 338.996094 158.84375 339.230469 159.34375 339.492188 159.828125 C 339.753906 160.316406 340.035156 160.789062 340.34375 161.25 C 340.648438 161.710938 340.976562 162.152344 341.328125 162.582031 C 341.679688 163.007812 342.050781 163.417969 342.441406 163.808594 C 342.828125 164.199219 343.238281 164.570312 343.664062 164.917969 C 344.09375 165.269531 344.535156 165.597656 344.992188 165.90625 C 345.453125 166.210938 345.925781 166.496094 346.414062 166.757812 C 346.902344 167.019531 347.402344 167.253906 347.914062 167.464844 C 348.425781 167.675781 348.945312 167.863281 349.472656 168.023438 C 350.003906 168.183594 350.539062 168.316406 351.082031 168.425781 C 351.621094 168.53125 352.171875 168.613281 352.722656 168.667969 C 353.269531 168.722656 353.824219 168.75 354.375 168.75 Z M 354.375 168.75 " fill-opacity="1" fill-rule="nonzero"/><path fill="#009688" d="M 472.5 303.75 C 472.5 304.855469 472.472656 305.957031 472.417969 307.0625 C 472.363281 308.164062 472.285156 309.265625 472.175781 310.367188 C 472.066406 311.464844 471.929688 312.5625 471.769531 313.65625 C 471.605469 314.746094 471.417969 315.835938 471.203125 316.917969 C 470.988281 318.003906 470.746094 319.078125 470.476562 320.152344 C 470.207031 321.222656 469.914062 322.285156 469.59375 323.34375 C 469.273438 324.402344 468.925781 325.449219 468.554688 326.488281 C 468.183594 327.53125 467.785156 328.558594 467.363281 329.582031 C 466.9375 330.601562 466.492188 331.613281 466.019531 332.609375 C 465.546875 333.609375 465.050781 334.59375 464.53125 335.570312 C 464.007812 336.542969 463.464844 337.503906 462.898438 338.453125 C 462.328125 339.398438 461.738281 340.332031 461.125 341.25 C 460.511719 342.167969 459.875 343.074219 459.214844 343.960938 C 458.558594 344.847656 457.878906 345.71875 457.179688 346.570312 C 456.476562 347.425781 455.757812 348.261719 455.015625 349.082031 C 454.273438 349.898438 453.511719 350.699219 452.730469 351.480469 C 451.949219 352.261719 451.148438 353.023438 450.332031 353.765625 C 449.511719 354.507812 448.675781 355.226562 447.820312 355.929688 C 446.96875 356.628906 446.097656 357.308594 445.210938 357.964844 C 444.324219 358.625 443.417969 359.261719 442.5 359.875 C 441.582031 360.488281 440.648438 361.078125 439.703125 361.648438 C 438.753906 362.214844 437.792969 362.757812 436.820312 363.28125 C 435.84375 363.800781 434.859375 364.296875 433.859375 364.769531 C 432.859375 365.242188 431.851562 365.6875 430.832031 366.113281 C 429.808594 366.535156 428.78125 366.933594 427.738281 367.304688 C 426.699219 367.675781 425.652344 368.023438 424.59375 368.34375 C 423.535156 368.664062 422.472656 368.957031 421.402344 369.226562 C 420.328125 369.496094 419.253906 369.738281 418.167969 369.953125 C 417.085938 370.167969 415.996094 370.355469 414.902344 370.519531 C 413.8125 370.679688 412.714844 370.816406 411.617188 370.925781 C 410.515625 371.035156 409.414062 371.113281 408.3125 371.167969 C 407.207031 371.222656 406.105469 371.25 405 371.25 C 403.894531 371.25 402.792969 371.222656 401.6875 371.167969 C 400.585938 371.113281 399.484375 371.035156 398.382812 370.925781 C 397.285156 370.816406 396.1875 370.679688 395.09375 370.519531 C 394.003906 370.355469 392.914062 370.167969 391.832031 369.953125 C 390.746094 369.738281 389.671875 369.496094 388.597656 369.226562 C 387.527344 368.957031 386.460938 368.664062 385.40625 368.34375 C 384.347656 368.023438 383.300781 367.675781 382.261719 367.304688 C 381.21875 366.933594 380.1875 366.535156 379.167969 366.113281 C 378.148438 365.6875 377.136719 365.242188 376.140625 364.769531 C 375.140625 364.296875 374.15625 363.800781 373.179688 363.28125 C 372.207031 362.757812 371.246094 362.214844 370.296875 361.648438 C 369.351562 361.078125 368.417969 360.488281 367.5 359.875 C 366.582031 359.261719 365.675781 358.625 364.789062 357.964844 C 363.902344 357.308594 363.03125 356.628906 362.179688 355.929688 C 361.324219 355.226562 360.488281 354.507812 359.667969 353.765625 C 358.851562 353.023438 358.050781 352.261719 357.269531 351.480469 C 356.488281 350.699219 355.726562 349.898438 354.984375 349.082031 C 354.242188 348.261719 353.523438 347.425781 352.820312 346.570312 C 352.121094 345.71875 351.441406 344.847656 350.785156 343.960938 C 350.125 343.074219 349.488281 342.167969 348.875 341.25 C 348.261719 340.332031 347.671875 339.398438 347.101562 338.453125 C 346.535156 337.503906 345.992188 336.542969 345.46875 335.570312 C 344.949219 334.59375 344.453125 333.609375 343.980469 332.609375 C 343.507812 331.613281 343.0625 330.601562 342.636719 329.582031 C 342.214844 328.558594 341.816406 327.53125 341.445312 326.488281 C 341.074219 325.449219 340.726562 324.402344 340.40625 323.34375 C 340.085938 322.285156 339.792969 321.222656 339.523438 320.152344 C 339.253906 319.078125 339.011719 318.003906 338.796875 316.917969 C 338.582031 315.835938 338.394531 314.746094 338.230469 313.65625 C 338.070312 312.5625 337.933594 311.464844 337.824219 310.367188 C 337.714844 309.265625 337.636719 308.164062 337.582031 307.0625 C 337.527344 305.957031 337.5 304.855469 337.5 303.75 C 337.5 302.644531 337.527344 301.542969 337.582031 300.4375 C 337.636719 299.335938 337.714844 298.234375 337.824219 297.132812 C 337.933594 296.035156 338.070312 294.9375 338.230469 293.84375 C 338.394531 292.753906 338.582031 291.664062 338.796875 290.582031 C 339.011719 289.496094 339.253906 288.421875 339.523438 287.347656 C 339.792969 286.277344 340.085938 285.214844 340.40625 284.15625 C 340.726562 283.097656 341.074219 282.050781 341.445312 281.011719 C 341.816406 279.96875 342.214844 278.941406 342.636719 277.917969 C 343.0625 276.898438 343.507812 275.886719 343.980469 274.890625 C 344.453125 273.890625 344.949219 272.90625 345.46875 271.929688 C 345.992188 270.957031 346.535156 269.996094 347.101562 269.046875 C 347.671875 268.101562 348.261719 267.167969 348.875 266.25 C 349.488281 265.332031 350.125 264.425781 350.785156 263.539062 C 351.441406 262.652344 352.121094 261.78125 352.820312 260.929688 C 353.523438 260.074219 354.242188 259.238281 354.984375 258.417969 C 355.726562 257.601562 356.488281 256.800781 357.269531 256.019531 C 358.050781 255.238281 358.851562 254.476562 359.667969 253.734375 C 360.488281 252.992188 361.324219 252.273438 362.179688 251.570312 C 363.03125 250.871094 363.902344 250.191406 364.789062 249.535156 C 365.675781 248.875 366.582031 248.238281 367.5 247.625 C 368.417969 247.011719 369.351562 246.421875 370.296875 245.851562 C 371.246094 245.285156 372.207031 244.742188 373.179688 244.21875 C 374.15625 243.699219 375.140625 243.203125 376.140625 242.730469 C 377.136719 242.257812 378.148438 241.8125 379.167969 241.386719 C 380.1875 240.964844 381.21875 240.566406 382.261719 240.195312 C 383.300781 239.824219 384.347656 239.476562 385.40625 239.15625 C 386.460938 238.835938 387.527344 238.542969 388.597656 238.273438 C 389.671875 238.003906 390.746094 237.761719 391.832031 237.546875 C 392.914062 237.332031 394.003906 237.144531 395.09375 236.980469 C 396.1875 236.820312 397.285156 236.683594 398.382812 236.574219 C 399.484375 236.464844 400.585938 236.386719 401.6875 236.332031 C 402.792969 236.277344 403.894531 236.25 405 236.25 C 406.105469 236.25 407.207031 236.277344 408.3125 236.332031 C 409.414062 236.386719 410.515625 236.464844 411.617188 236.574219 C 412.714844 236.683594 413.8125 236.820312 414.902344 236.980469 C 415.996094 237.144531 417.085938 237.332031 418.167969 237.546875 C 419.253906 237.761719 420.328125 238.003906 421.402344 238.273438 C 422.472656 238.542969 423.535156 238.835938 424.59375 239.15625 C 425.652344 239.476562 426.699219 239.824219 427.738281 240.195312 C 428.78125 240.566406 429.808594 240.964844 430.832031 241.386719 C 431.851562 241.8125 432.859375 242.257812 433.859375 242.730469 C 434.859375 243.203125 435.84375 243.699219 436.820312 244.21875 C 437.792969 244.742188 438.753906 245.285156 439.703125 245.851562 C 440.648438 246.421875 441.582031 247.011719 442.5 247.625 C 443.417969 248.238281 444.324219 248.875 445.210938 249.535156 C 446.097656 250.191406 446.96875 250.871094 447.820312 251.570312 C 448.675781 252.273438 449.511719 252.992188 450.332031 253.734375 C 451.148438 254.476562 451.949219 255.238281 452.730469 256.019531 C 453.511719 256.800781 454.273438 257.601562 455.015625 258.417969 C 455.757812 259.238281 456.476562 260.074219 457.179688 260.929688 C 457.878906 261.78125 458.558594 262.652344 459.214844 263.539062 C 459.875 264.425781 460.511719 265.332031 461.125 266.25 C 461.738281 267.167969 462.328125 268.101562 462.898438 269.046875 C 463.464844 269.996094 464.007812 270.957031 464.53125 271.929688 C 465.050781 272.90625 465.546875 273.890625 466.019531 274.890625 C 466.492188 275.886719 466.9375 276.898438 467.363281 277.917969 C 467.785156 278.941406 468.183594 279.96875 468.554688 281.011719 C 468.925781 282.050781 469.273438 283.097656 469.59375 284.15625 C 469.914062 285.214844 470.207031 286.277344 470.476562 287.347656 C 470.746094 288.421875 470.988281 289.496094 471.203125 290.582031 C 471.417969 291.664062 471.605469 292.753906 471.769531 293.84375 C 471.929688 294.9375 472.066406 296.035156 472.175781 297.132812 C 472.285156 298.234375 472.363281 299.335938 472.417969 300.4375 C 472.472656 301.542969 472.5 302.644531 472.5 303.75 Z M 472.5 303.75 " fill-opacity="1" fill-rule="nonzero"/><path fill="#009688" d="M 521.792969 540 C 522.394531 540 523 539.972656 523.597656 539.910156 C 524.195312 539.847656 524.789062 539.75 525.378906 539.625 C 525.96875 539.5 526.546875 539.34375 527.125 539.15625 C 527.695312 538.96875 528.257812 538.75 528.804688 538.5 C 529.355469 538.253906 529.890625 537.976562 530.410156 537.671875 C 530.933594 537.367188 531.433594 537.035156 531.917969 536.675781 C 532.40625 536.320312 532.871094 535.9375 533.316406 535.527344 C 533.761719 535.121094 534.183594 534.691406 534.582031 534.238281 C 534.980469 533.785156 535.351562 533.308594 535.699219 532.816406 C 536.046875 532.324219 536.367188 531.816406 536.660156 531.289062 C 536.953125 530.761719 537.21875 530.21875 537.457031 529.664062 C 537.691406 529.109375 537.898438 528.542969 538.070312 527.964844 C 538.25 527.390625 538.394531 526.804688 538.507812 526.210938 C 538.621094 525.617188 538.703125 525.023438 538.75 524.421875 C 538.804688 523.820312 538.820312 523.21875 538.808594 522.613281 C 538.792969 522.011719 538.746094 521.410156 538.667969 520.8125 C 538.386719 518.824219 538.054688 516.839844 537.683594 514.863281 C 537.308594 512.890625 536.894531 510.921875 536.433594 508.964844 C 535.976562 507.007812 535.46875 505.0625 534.925781 503.128906 C 534.378906 501.195312 533.789062 499.273438 533.152344 497.367188 C 532.519531 495.457031 531.84375 493.566406 531.128906 491.6875 C 530.410156 489.808594 529.652344 487.949219 528.847656 486.105469 C 528.046875 484.257812 527.207031 482.433594 526.328125 480.628906 C 525.445312 478.820312 524.523438 477.035156 523.5625 475.269531 C 522.601562 473.503906 521.597656 471.761719 520.558594 470.042969 C 519.519531 468.320312 518.441406 466.625 517.328125 464.953125 C 516.210938 463.28125 515.058594 461.632812 513.871094 460.015625 C 512.679688 458.390625 511.457031 456.800781 510.195312 455.234375 C 508.9375 453.667969 507.640625 452.128906 506.3125 450.621094 C 504.984375 449.113281 503.621094 447.632812 502.226562 446.1875 C 500.832031 444.738281 499.40625 443.324219 497.949219 441.941406 C 496.488281 440.554688 495.003906 439.207031 493.484375 437.886719 C 491.964844 436.570312 490.417969 435.289062 488.84375 434.039062 C 487.269531 432.792969 485.664062 431.578125 484.035156 430.402344 C 482.40625 429.226562 480.75 428.085938 479.066406 426.984375 C 477.386719 425.882812 475.683594 424.816406 473.953125 423.789062 C 472.226562 422.761719 470.476562 421.773438 468.703125 420.828125 C 466.929688 419.878906 465.136719 418.96875 463.324219 418.101562 C 461.511719 417.234375 459.679688 416.40625 457.828125 415.621094 C 455.976562 414.832031 454.109375 414.089844 452.230469 413.386719 C 450.347656 412.683594 448.449219 412.023438 446.535156 411.402344 C 444.625 410.785156 442.699219 410.210938 440.761719 409.679688 C 438.820312 409.144531 436.871094 408.65625 434.914062 408.210938 C 432.953125 407.765625 430.980469 407.367188 429.003906 407.007812 C 427.023438 406.652344 425.042969 406.335938 423.050781 406.070312 C 421.058594 405.800781 419.0625 405.578125 417.058594 405.398438 C 415.058594 405.21875 413.050781 405.085938 411.042969 404.996094 C 409.035156 404.902344 407.023438 404.859375 405.015625 404.859375 C 403.007812 404.859375 400.996094 404.902344 398.988281 404.996094 C 396.980469 405.085938 394.972656 405.21875 392.96875 405.398438 C 390.96875 405.578125 388.972656 405.800781 386.980469 406.070312 C 384.988281 406.335938 383.003906 406.652344 381.023438 407.007812 C 379.042969 407.367188 377.074219 407.765625 375.113281 408.210938 C 373.152344 408.65625 371.203125 409.144531 369.265625 409.679688 C 367.328125 410.210938 365.402344 410.785156 363.488281 411.40625 C 361.578125 412.023438 359.679688 412.683594 357.796875 413.386719 C 355.914062 414.089844 354.046875 414.832031 352.199219 415.621094 C 350.347656 416.40625 348.515625 417.234375 346.703125 418.101562 C 344.890625 418.96875 343.097656 419.878906 341.328125 420.828125 C 339.554688 421.773438 337.800781 422.761719 336.074219 423.789062 C 334.347656 424.816406 332.644531 425.878906 330.960938 426.984375 C 329.28125 428.085938 327.625 429.226562 325.996094 430.402344 C 324.367188 431.578125 322.761719 432.792969 321.1875 434.039062 C 319.613281 435.289062 318.066406 436.570312 316.546875 437.886719 C 315.027344 439.207031 313.539062 440.554688 312.085938 441.941406 C 310.625 443.324219 309.195312 444.738281 307.800781 446.1875 C 306.40625 447.632812 305.042969 449.113281 303.71875 450.621094 C 302.386719 452.128906 301.089844 453.667969 299.832031 455.234375 C 298.570312 456.796875 297.347656 458.390625 296.160156 460.011719 C 294.96875 461.632812 293.816406 463.28125 292.699219 464.953125 C 291.582031 466.625 290.507812 468.320312 289.464844 470.042969 C 288.429688 471.761719 287.425781 473.507812 286.464844 475.269531 C 285.503906 477.035156 284.582031 478.820312 283.703125 480.628906 C 282.820312 482.433594 281.980469 484.257812 281.179688 486.105469 C 280.378906 487.949219 279.621094 489.808594 278.90625 491.6875 C 278.1875 493.566406 277.511719 495.457031 276.878906 497.367188 C 276.246094 499.273438 275.65625 501.195312 275.109375 503.128906 C 274.566406 505.0625 274.058594 507.007812 273.597656 508.964844 C 273.140625 510.921875 272.722656 512.890625 272.351562 514.863281 C 271.976562 516.839844 271.648438 518.824219 271.367188 520.8125 C 271.289062 521.410156 271.246094 522.011719 271.230469 522.613281 C 271.214844 523.21875 271.234375 523.820312 271.285156 524.421875 C 271.332031 525.019531 271.414062 525.617188 271.527344 526.210938 C 271.640625 526.804688 271.785156 527.386719 271.960938 527.964844 C 272.132812 528.542969 272.339844 529.109375 272.574219 529.664062 C 272.808594 530.21875 273.074219 530.757812 273.371094 531.285156 C 273.664062 531.8125 273.984375 532.324219 274.332031 532.816406 C 274.679688 533.308594 275.054688 533.78125 275.449219 534.234375 C 275.847656 534.6875 276.269531 535.117188 276.714844 535.523438 C 277.15625 535.933594 277.621094 536.316406 278.109375 536.675781 C 278.59375 537.035156 279.09375 537.367188 279.617188 537.671875 C 280.136719 537.976562 280.671875 538.25 281.222656 538.5 C 281.773438 538.746094 282.332031 538.964844 282.90625 539.152344 C 283.476562 539.339844 284.0625 539.5 284.652344 539.625 C 285.242188 539.75 285.835938 539.84375 286.4375 539.90625 C 287.035156 539.96875 287.640625 540 288.242188 540 Z M 521.792969 540 " fill-opacity="1" fill-rule="nonzero"/><path fill="#009688" d="M 286.875 607.5 L 523.125 607.5 C 523.675781 607.5 524.230469 607.527344 524.777344 607.582031 C 525.328125 607.636719 525.875 607.714844 526.417969 607.824219 C 526.960938 607.933594 527.496094 608.066406 528.023438 608.226562 C 528.550781 608.386719 529.070312 608.574219 529.582031 608.785156 C 530.09375 608.996094 530.59375 609.230469 531.078125 609.492188 C 531.566406 609.753906 532.039062 610.035156 532.5 610.34375 C 532.960938 610.652344 533.402344 610.980469 533.832031 611.332031 C 534.257812 611.679688 534.667969 612.050781 535.058594 612.441406 C 535.449219 612.832031 535.820312 613.242188 536.167969 613.667969 C 536.519531 614.097656 536.847656 614.539062 537.15625 615 C 537.464844 615.460938 537.746094 615.933594 538.007812 616.421875 C 538.269531 616.90625 538.503906 617.40625 538.714844 617.917969 C 538.925781 618.429688 539.113281 618.949219 539.273438 619.476562 C 539.433594 620.003906 539.566406 620.539062 539.675781 621.082031 C 539.785156 621.625 539.863281 622.171875 539.917969 622.722656 C 539.972656 623.269531 540 623.824219 540 624.375 C 540 624.925781 539.972656 625.480469 539.917969 626.027344 C 539.863281 626.578125 539.785156 627.125 539.675781 627.667969 C 539.566406 628.210938 539.433594 628.746094 539.273438 629.273438 C 539.113281 629.800781 538.925781 630.320312 538.714844 630.832031 C 538.503906 631.34375 538.269531 631.84375 538.007812 632.328125 C 537.746094 632.816406 537.464844 633.289062 537.15625 633.75 C 536.847656 634.210938 536.519531 634.652344 536.167969 635.082031 C 535.820312 635.507812 535.449219 635.917969 535.058594 636.308594 C 534.667969 636.699219 534.257812 637.070312 533.832031 637.417969 C 533.402344 637.769531 532.960938 638.097656 532.5 638.40625 C 532.039062 638.714844 531.566406 638.996094 531.078125 639.257812 C 530.59375 639.519531 530.09375 639.753906 529.582031 639.964844 C 529.070312 640.175781 528.550781 640.363281 528.023438 640.523438 C 527.496094 640.683594 526.960938 640.816406 526.417969 640.925781 C 525.875 641.035156 525.328125 641.113281 524.777344 641.167969 C 524.230469 641.222656 523.675781 641.25 523.125 641.25 L 286.875 641.25 C 286.324219 641.25 285.769531 641.222656 285.222656 641.167969 C 284.671875 641.113281 284.125 641.035156 283.582031 640.925781 C 283.039062 640.816406 282.503906 640.683594 281.976562 640.523438 C 281.449219 640.363281 280.929688 640.175781 280.417969 639.964844 C 279.90625 639.753906 279.40625 639.519531 278.921875 639.257812 C 278.433594 638.996094 277.960938 638.714844 277.5 638.40625 C 277.039062 638.097656 276.597656 637.769531 276.167969 637.417969 C 275.742188 637.070312 275.332031 636.699219 274.941406 636.308594 C 274.550781 635.917969 274.179688 635.507812 273.832031 635.082031 C 273.480469 634.652344 273.152344 634.210938 272.84375 633.75 C 272.535156 633.289062 272.253906 632.816406 271.992188 632.328125 C 271.730469 631.84375 271.496094 631.34375 271.285156 630.832031 C 271.074219 630.320312 270.886719 629.800781 270.726562 629.273438 C 270.566406 628.746094 270.433594 628.210938 270.324219 627.667969 C 270.214844 627.125 270.136719 626.578125 270.082031 626.027344 C 270.027344 625.480469 270 624.925781 270 624.375 C 270 623.824219 270.027344 623.269531 270.082031 622.722656 C 270.136719 622.171875 270.214844 621.625 270.324219 621.082031 C 270.433594 620.539062 270.566406 620.003906 270.726562 619.476562 C 270.886719 618.949219 271.074219 618.429688 271.285156 617.917969 C 271.496094 617.40625 271.730469 616.90625 271.992188 616.421875 C 272.253906 615.933594 272.535156 615.460938 272.84375 615 C 273.152344 614.539062 273.480469 614.097656 273.832031 613.667969 C 274.179688 613.242188 274.550781 612.832031 274.941406 612.441406 C 275.332031 612.050781 275.742188 611.679688 276.167969 611.332031 C 276.597656 610.980469 277.039062 610.652344 277.5 610.34375 C 277.960938 610.035156 278.433594 609.753906 278.921875 609.492188 C 279.40625 609.230469 279.90625 608.996094 280.417969 608.785156 C 280.929688 608.574219 281.449219 608.386719 281.976562 608.226562 C 282.503906 608.066406 283.039062 607.933594 283.582031 607.824219 C 284.125 607.714844 284.671875 607.636719 285.222656 607.582031 C 285.769531 607.527344 286.324219 607.5 286.875 607.5 Z M 286.875 607.5 " fill-opacity="1" fill-rule="nonzero"/></svg>