<svg xmlns="http://www.w3.org/2000/svg" xmlns:xlink="http://www.w3.org/1999/xlink" width="1080" zoomAndPan="magnify" viewBox="0 0 810 809.999993" height="1080" preserveAspectRatio="xMidYMid meet" version="1.0"><path fill="#009688" d="M 641.25 675 C 640.144531 675 639.039062 674.972656 637.9375 674.917969 C 636.832031 674.863281 635.730469 674.78125 634.632812 674.675781 C 633.535156 674.566406 632.4375 674.429688 631.34375 674.269531 C 630.25 674.105469 629.164062 673.917969 628.078125 673.703125 C 626.996094 673.488281 625.917969 673.246094 624.847656 672.976562 C 623.777344 672.707031 622.710938 672.414062 621.65625 672.09375 C 620.597656 671.773438 619.546875 671.425781 618.507812 671.054688 C 617.46875 670.679688 616.4375 670.285156 615.417969 669.859375 C 614.398438 669.4375 613.386719 668.988281 612.386719 668.519531 C 611.390625 668.046875 610.40625 667.550781 609.429688 667.027344 C 608.453125 666.507812 607.492188 665.964844 606.546875 665.394531 C 605.597656 664.828125 604.664062 664.234375 603.746094 663.621094 C 602.828125 663.007812 601.925781 662.375 601.039062 661.714844 C 600.152344 661.058594 599.28125 660.378906 598.425781 659.675781 C 597.574219 658.976562 596.738281 658.253906 595.917969 657.511719 C 595.101562 656.773438 594.300781 656.011719 593.519531 655.230469 C 592.738281 654.449219 591.976562 653.648438 591.234375 652.828125 C 590.492188 652.011719 589.769531 651.171875 589.070312 650.320312 C 588.371094 649.464844 587.691406 648.59375 587.03125 647.707031 C 586.375 646.820312 585.738281 645.917969 585.125 645 C 584.511719 644.082031 583.917969 643.148438 583.351562 642.199219 C 582.78125 641.253906 582.238281 640.292969 581.71875 639.316406 C 581.199219 638.34375 580.703125 637.355469 580.230469 636.359375 C 579.757812 635.359375 579.308594 634.351562 578.886719 633.328125 C 578.464844 632.308594 578.066406 631.277344 577.695312 630.238281 C 577.320312 629.199219 576.976562 628.148438 576.65625 627.09375 C 576.335938 626.035156 576.039062 624.972656 575.773438 623.898438 C 575.503906 622.828125 575.261719 621.75 575.046875 620.667969 C 574.832031 619.585938 574.640625 618.496094 574.480469 617.402344 C 574.320312 616.3125 574.183594 615.214844 574.074219 614.117188 C 573.96875 613.015625 573.886719 611.914062 573.832031 610.8125 C 573.777344 609.707031 573.75 608.605469 573.75 607.5 L 540 607.5 C 540 609.15625 540.039062 610.8125 540.121094 612.46875 C 540.203125 614.125 540.324219 615.773438 540.488281 617.425781 C 540.648438 619.074219 540.851562 620.71875 541.09375 622.355469 C 541.335938 623.996094 541.621094 625.628906 541.945312 627.253906 C 542.265625 628.875 542.628906 630.492188 543.035156 632.101562 C 543.4375 633.707031 543.878906 635.304688 544.359375 636.890625 C 544.839844 638.476562 545.359375 640.050781 545.917969 641.609375 C 546.476562 643.167969 547.070312 644.714844 547.707031 646.246094 C 548.339844 647.777344 549.011719 649.289062 549.71875 650.789062 C 550.425781 652.285156 551.171875 653.765625 551.953125 655.226562 C 552.734375 656.6875 553.550781 658.128906 554.402344 659.550781 C 555.253906 660.972656 556.140625 662.375 557.0625 663.75 C 557.984375 665.128906 558.9375 666.484375 559.921875 667.8125 C 560.910156 669.144531 561.929688 670.449219 562.980469 671.730469 C 564.03125 673.011719 565.113281 674.265625 566.226562 675.496094 C 567.339844 676.722656 568.480469 677.921875 569.652344 679.09375 C 570.824219 680.265625 572.023438 681.410156 573.253906 682.519531 C 574.480469 683.632812 575.734375 684.714844 577.015625 685.765625 C 578.296875 686.820312 579.601562 687.835938 580.933594 688.824219 C 582.265625 689.8125 583.617188 690.765625 584.996094 691.683594 C 586.375 692.605469 587.773438 693.492188 589.195312 694.34375 C 590.617188 695.195312 592.058594 696.011719 593.519531 696.792969 C 594.980469 697.574219 596.460938 698.320312 597.957031 699.027344 C 599.457031 699.734375 600.96875 700.40625 602.5 701.042969 C 604.03125 701.675781 605.578125 702.273438 607.136719 702.832031 C 608.699219 703.386719 610.273438 703.90625 611.859375 704.390625 C 613.441406 704.871094 615.039062 705.3125 616.644531 705.714844 C 618.253906 706.117188 619.867188 706.480469 621.496094 706.804688 C 623.121094 707.125 624.753906 707.410156 626.394531 707.652344 C 628.03125 707.898438 629.675781 708.101562 631.324219 708.261719 C 632.972656 708.425781 634.625 708.546875 636.28125 708.628906 C 637.9375 708.707031 639.59375 708.75 641.25 708.75 C 642.90625 708.75 644.5625 708.707031 646.21875 708.628906 C 647.871094 708.546875 649.523438 708.425781 651.171875 708.261719 C 652.824219 708.097656 654.464844 707.894531 656.105469 707.652344 C 657.742188 707.410156 659.375 707.125 661 706.804688 C 662.625 706.480469 664.242188 706.117188 665.851562 705.714844 C 667.457031 705.3125 669.054688 704.871094 670.640625 704.390625 C 672.226562 703.90625 673.796875 703.386719 675.355469 702.832031 C 676.917969 702.273438 678.464844 701.675781 679.996094 701.042969 C 681.523438 700.40625 683.039062 699.734375 684.539062 699.027344 C 686.035156 698.320312 687.515625 697.574219 688.976562 696.792969 C 690.4375 696.011719 691.878906 695.195312 693.300781 694.34375 C 694.722656 693.492188 696.121094 692.605469 697.5 691.683594 C 698.875 690.765625 700.230469 689.8125 701.5625 688.824219 C 702.894531 687.835938 704.199219 686.820312 705.480469 685.765625 C 706.761719 684.714844 708.015625 683.632812 709.242188 682.519531 C 710.472656 681.40625 711.671875 680.265625 712.84375 679.09375 C 714.015625 677.921875 715.15625 676.722656 716.269531 675.496094 C 717.382812 674.269531 718.464844 673.011719 719.515625 671.734375 C 720.566406 670.449219 721.585938 669.144531 722.570312 667.8125 C 723.558594 666.484375 724.511719 665.128906 725.433594 663.75 C 726.351562 662.375 727.238281 660.972656 728.089844 659.550781 C 728.945312 658.128906 729.761719 656.6875 730.542969 655.226562 C 731.324219 653.765625 732.066406 652.285156 732.777344 650.789062 C 733.484375 649.289062 734.15625 647.777344 734.789062 646.246094 C 735.425781 644.714844 736.023438 643.167969 736.578125 641.609375 C 737.136719 640.050781 737.65625 638.476562 738.140625 636.890625 C 738.621094 635.304688 739.0625 633.707031 739.464844 632.101562 C 739.867188 630.492188 740.230469 628.875 740.554688 627.253906 C 740.875 625.628906 741.160156 623.996094 741.402344 622.355469 C 741.648438 620.71875 741.851562 619.074219 742.011719 617.425781 C 742.175781 615.773438 742.296875 614.125 742.378906 612.46875 C 742.457031 610.8125 742.5 609.15625 742.5 607.5 L 708.75 607.5 C 708.75 608.605469 708.722656 609.707031 708.667969 610.8125 C 708.613281 611.914062 708.535156 613.015625 708.425781 614.117188 C 708.316406 615.214844 708.179688 616.3125 708.019531 617.402344 C 707.855469 618.496094 707.667969 619.582031 707.453125 620.667969 C 707.238281 621.75 706.996094 622.828125 706.726562 623.898438 C 706.457031 624.972656 706.160156 626.035156 705.839844 627.09375 C 705.519531 628.148438 705.175781 629.199219 704.800781 630.238281 C 704.429688 631.277344 704.03125 632.308594 703.609375 633.328125 C 703.1875 634.351562 702.738281 635.359375 702.269531 636.359375 C 701.796875 637.355469 701.300781 638.34375 700.78125 639.316406 C 700.261719 640.292969 699.714844 641.253906 699.148438 642.199219 C 698.578125 643.148438 697.988281 644.082031 697.375 645 C 696.761719 645.917969 696.125 646.820312 695.464844 647.707031 C 694.808594 648.59375 694.128906 649.464844 693.429688 650.320312 C 692.726562 651.175781 692.003906 652.011719 691.265625 652.828125 C 690.523438 653.648438 689.761719 654.449219 688.980469 655.230469 C 688.199219 656.011719 687.398438 656.773438 686.582031 657.515625 C 685.761719 658.253906 684.929688 658.976562 684.074219 659.675781 C 683.21875 660.378906 682.347656 661.058594 681.460938 661.714844 C 680.574219 662.375 679.667969 663.007812 678.75 663.621094 C 677.832031 664.234375 676.898438 664.828125 675.953125 665.394531 C 675.003906 665.964844 674.042969 666.507812 673.070312 667.027344 C 672.09375 667.550781 671.109375 668.046875 670.109375 668.519531 C 669.109375 668.988281 668.101562 669.4375 667.078125 669.859375 C 666.058594 670.285156 665.027344 670.679688 663.988281 671.050781 C 662.949219 671.425781 661.902344 671.773438 660.84375 672.09375 C 659.785156 672.414062 658.722656 672.707031 657.648438 672.976562 C 656.578125 673.246094 655.5 673.488281 654.417969 673.703125 C 653.335938 673.917969 652.246094 674.105469 651.152344 674.269531 C 650.0625 674.429688 648.964844 674.566406 647.867188 674.675781 C 646.765625 674.78125 645.664062 674.863281 644.5625 674.917969 C 643.457031 674.972656 642.355469 675 641.25 675 Z M 641.25 675 " fill-opacity="1" fill-rule="nonzero"/><path fill="#009688" d="M 641.25 607.5 C 640.144531 607.5 639.039062 607.472656 637.9375 607.417969 C 636.832031 607.363281 635.730469 607.28125 634.632812 607.175781 C 633.535156 607.066406 632.4375 606.929688 631.34375 606.769531 C 630.25 606.605469 629.164062 606.417969 628.078125 606.203125 C 626.996094 605.988281 625.917969 605.746094 624.847656 605.476562 C 623.777344 605.207031 622.710938 604.914062 621.65625 604.59375 C 620.597656 604.273438 619.546875 603.925781 618.507812 603.554688 C 617.46875 603.179688 616.4375 602.785156 615.417969 602.359375 C 614.398438 601.9375 613.386719 601.492188 612.386719 601.019531 C 611.390625 600.546875 610.40625 600.050781 609.429688 599.527344 C 608.453125 599.007812 607.492188 598.464844 606.546875 597.894531 C 605.597656 597.328125 604.664062 596.738281 603.746094 596.121094 C 602.828125 595.507812 601.925781 594.875 601.039062 594.214844 C 600.152344 593.558594 599.28125 592.878906 598.425781 592.175781 C 597.574219 591.476562 596.738281 590.753906 595.917969 590.011719 C 595.101562 589.273438 594.300781 588.511719 593.519531 587.730469 C 592.738281 586.949219 591.976562 586.148438 591.234375 585.328125 C 590.492188 584.511719 589.769531 583.675781 589.070312 582.820312 C 588.371094 581.96875 587.691406 581.097656 587.03125 580.207031 C 586.375 579.320312 585.738281 578.417969 585.125 577.5 C 584.511719 576.582031 583.917969 575.648438 583.351562 574.699219 C 582.78125 573.753906 582.238281 572.792969 581.71875 571.820312 C 581.199219 570.84375 580.703125 569.859375 580.230469 568.859375 C 579.757812 567.859375 579.308594 566.851562 578.886719 565.828125 C 578.464844 564.808594 578.066406 563.777344 577.695312 562.738281 C 577.320312 561.699219 576.976562 560.652344 576.65625 559.59375 C 576.335938 558.535156 576.039062 557.472656 575.773438 556.402344 C 575.503906 555.328125 575.261719 554.25 575.046875 553.167969 C 574.832031 552.085938 574.640625 550.996094 574.480469 549.902344 C 574.320312 548.8125 574.183594 547.714844 574.074219 546.617188 C 573.96875 545.515625 573.886719 544.414062 573.832031 543.3125 C 573.777344 542.207031 573.75 541.105469 573.75 540 L 540 540 C 540 541.65625 540.039062 543.3125 540.121094 544.96875 C 540.203125 546.625 540.324219 548.273438 540.488281 549.925781 C 540.648438 551.574219 540.851562 553.21875 541.09375 554.855469 C 541.335938 556.496094 541.621094 558.128906 541.945312 559.753906 C 542.265625 561.378906 542.628906 562.996094 543.035156 564.601562 C 543.4375 566.210938 543.878906 567.804688 544.359375 569.390625 C 544.839844 570.976562 545.359375 572.550781 545.917969 574.109375 C 546.476562 575.667969 547.070312 577.214844 547.707031 578.746094 C 548.339844 580.277344 549.011719 581.792969 549.71875 583.289062 C 550.425781 584.789062 551.171875 586.265625 551.953125 587.730469 C 552.734375 589.191406 553.550781 590.632812 554.402344 592.050781 C 555.253906 593.472656 556.140625 594.875 557.0625 596.25 C 557.984375 597.628906 558.9375 598.984375 559.921875 600.3125 C 560.910156 601.644531 561.929688 602.949219 562.980469 604.234375 C 564.03125 605.511719 565.113281 606.765625 566.226562 607.996094 C 567.339844 609.222656 568.480469 610.421875 569.652344 611.59375 C 570.824219 612.765625 572.023438 613.90625 573.253906 615.019531 C 574.480469 616.132812 575.734375 617.214844 577.015625 618.265625 C 578.296875 619.316406 579.601562 620.335938 580.933594 621.324219 C 582.265625 622.3125 583.617188 623.265625 584.996094 624.183594 C 586.375 625.105469 587.773438 625.992188 589.195312 626.84375 C 590.617188 627.695312 592.058594 628.511719 593.519531 629.292969 C 594.980469 630.074219 596.460938 630.820312 597.957031 631.527344 C 599.457031 632.238281 600.96875 632.90625 602.5 633.542969 C 604.03125 634.175781 605.578125 634.773438 607.136719 635.332031 C 608.699219 635.890625 610.273438 636.410156 611.859375 636.890625 C 613.441406 637.371094 615.039062 637.8125 616.644531 638.214844 C 618.253906 638.617188 619.867188 638.980469 621.496094 639.304688 C 623.121094 639.625 624.753906 639.910156 626.394531 640.152344 C 628.03125 640.398438 629.675781 640.601562 631.324219 640.761719 C 632.972656 640.925781 634.625 641.046875 636.28125 641.128906 C 637.9375 641.210938 639.59375 641.25 641.25 641.25 C 642.90625 641.25 644.5625 641.210938 646.21875 641.128906 C 647.871094 641.046875 649.523438 640.925781 651.171875 640.761719 C 652.824219 640.601562 654.464844 640.398438 656.105469 640.152344 C 657.742188 639.910156 659.375 639.625 661 639.304688 C 662.625 638.980469 664.242188 638.617188 665.851562 638.214844 C 667.457031 637.8125 669.054688 637.371094 670.640625 636.890625 C 672.226562 636.410156 673.796875 635.890625 675.355469 635.332031 C 676.917969 634.773438 678.464844 634.175781 679.996094 633.542969 C 681.523438 632.90625 683.039062 632.238281 684.539062 631.527344 C 686.035156 630.820312 687.515625 630.074219 688.976562 629.292969 C 690.4375 628.511719 691.878906 627.695312 693.300781 626.84375 C 694.722656 625.992188 696.121094 625.105469 697.5 624.1875 C 698.875 623.265625 700.230469 622.3125 701.5625 621.324219 C 702.894531 620.335938 704.199219 619.320312 705.480469 618.265625 C 706.761719 617.214844 708.015625 616.132812 709.242188 615.019531 C 710.472656 613.910156 711.671875 612.765625 712.84375 611.59375 C 714.015625 610.421875 715.15625 609.222656 716.269531 607.996094 C 717.382812 606.765625 718.464844 605.511719 719.515625 604.230469 C 720.566406 602.949219 721.585938 601.644531 722.570312 600.3125 C 723.558594 598.980469 724.511719 597.628906 725.433594 596.25 C 726.351562 594.871094 727.238281 593.472656 728.089844 592.050781 C 728.945312 590.628906 729.761719 589.1875 730.542969 587.726562 C 731.324219 586.265625 732.066406 584.785156 732.777344 583.289062 C 733.484375 581.789062 734.15625 580.277344 734.789062 578.746094 C 735.425781 577.214844 736.023438 575.667969 736.578125 574.109375 C 737.136719 572.550781 737.65625 570.976562 738.140625 569.390625 C 738.621094 567.804688 739.0625 566.207031 739.464844 564.601562 C 739.867188 562.992188 740.230469 561.378906 740.554688 559.753906 C 740.875 558.128906 741.160156 556.496094 741.402344 554.855469 C 741.648438 553.21875 741.851562 551.574219 742.011719 549.925781 C 742.175781 548.273438 742.296875 546.625 742.378906 544.96875 C 742.457031 543.3125 742.5 541.65625 742.5 540 L 708.75 540 C 708.75 541.105469 708.722656 542.207031 708.667969 543.3125 C 708.613281 544.414062 708.535156 545.515625 708.425781 546.617188 C 708.316406 547.714844 708.179688 548.8125 708.019531 549.902344 C 707.855469 550.996094 707.667969 552.085938 707.453125 553.167969 C 707.238281 554.25 706.996094 555.328125 706.726562 556.402344 C 706.457031 557.472656 706.160156 558.535156 705.839844 559.59375 C 705.519531 560.652344 705.175781 561.699219 704.800781 562.738281 C 704.429688 563.777344 704.03125 564.808594 703.609375 565.828125 C 703.1875 566.851562 702.738281 567.859375 702.269531 568.859375 C 701.796875 569.859375 701.300781 570.84375 700.78125 571.816406 C 700.261719 572.792969 699.714844 573.753906 699.148438 574.699219 C 698.578125 575.648438 697.988281 576.582031 697.375 577.5 C 696.761719 578.417969 696.125 579.320312 695.464844 580.207031 C 694.808594 581.097656 694.128906 581.96875 693.429688 582.820312 C 692.726562 583.675781 692.003906 584.511719 691.265625 585.328125 C 690.523438 586.148438 689.761719 586.949219 688.980469 587.730469 C 688.199219 588.511719 687.398438 589.273438 686.582031 590.011719 C 685.761719 590.753906 684.929688 591.476562 684.074219 592.175781 C 683.21875 592.878906 682.347656 593.558594 681.460938 594.214844 C 680.574219 594.875 679.667969 595.507812 678.75 596.121094 C 677.832031 596.738281 676.898438 597.328125 675.953125 597.894531 C 675.003906 598.464844 674.042969 599.007812 673.070312 599.527344 C 672.09375 600.050781 671.109375 600.546875 670.109375 601.019531 C 669.109375 601.492188 668.101562 601.9375 667.078125 602.359375 C 666.058594 602.785156 665.027344 603.179688 663.988281 603.554688 C 662.949219 603.925781 661.902344 604.273438 660.84375 604.59375 C 659.785156 604.914062 658.722656 605.207031 657.648438 605.476562 C 656.578125 605.746094 655.5 605.988281 654.417969 606.203125 C 653.335938 606.417969 652.246094 606.605469 651.152344 606.769531 C 650.0625 606.929688 648.964844 607.066406 647.867188 607.175781 C 646.765625 607.28125 645.664062 607.363281 644.5625 607.417969 C 643.457031 607.472656 642.355469 607.5 641.25 607.5 Z M 641.25 607.5 " fill-opacity="1" fill-rule="nonzero"/><path fill="#009688" d="M 405 168.75 C 402.402344 168.75 399.804688 168.851562 397.214844 169.054688 C 394.625 169.257812 392.046875 169.558594 389.476562 169.960938 C 386.910156 170.359375 384.359375 170.859375 381.832031 171.457031 C 379.300781 172.054688 376.796875 172.746094 374.324219 173.535156 C 371.847656 174.328125 369.40625 175.210938 366.996094 176.1875 C 364.589844 177.164062 362.222656 178.234375 359.894531 179.394531 C 357.570312 180.554688 355.292969 181.804688 353.0625 183.136719 C 350.832031 184.472656 348.660156 185.894531 346.539062 187.394531 C 344.417969 188.898438 342.355469 190.480469 340.359375 192.140625 C 338.359375 193.804688 336.429688 195.539062 334.566406 197.351562 C 332.699219 199.160156 330.90625 201.039062 329.1875 202.988281 C 327.464844 204.933594 325.824219 206.949219 324.257812 209.023438 C 322.691406 211.097656 321.210938 213.230469 319.808594 215.417969 C 318.40625 217.605469 317.09375 219.847656 315.863281 222.136719 C 314.632812 224.425781 313.496094 226.761719 312.445312 229.140625 C 311.398438 231.515625 310.441406 233.933594 309.582031 236.382812 C 308.714844 238.835938 307.949219 241.316406 307.277344 243.828125 C 306.605469 246.335938 306.03125 248.871094 305.554688 251.425781 C 305.078125 253.980469 304.699219 256.550781 304.421875 259.132812 C 304.140625 261.71875 303.964844 264.308594 303.882812 266.90625 C 303.804688 269.503906 303.824219 272.101562 303.945312 274.695312 C 304.066406 277.292969 304.285156 279.882812 304.605469 282.460938 C 304.925781 285.039062 305.34375 287.601562 305.863281 290.148438 C 306.378906 292.695312 306.996094 295.21875 307.707031 297.71875 C 308.417969 300.21875 309.222656 302.6875 310.125 305.125 C 311.027344 307.5625 312.019531 309.960938 313.105469 312.324219 C 314.195312 314.683594 315.367188 317 316.632812 319.269531 C 317.898438 321.542969 319.246094 323.757812 320.683594 325.925781 C 322.117188 328.09375 323.632812 330.199219 325.234375 332.25 C 326.832031 334.300781 328.503906 336.285156 330.257812 338.207031 C 332.007812 340.125 333.828125 341.976562 335.722656 343.757812 C 337.617188 345.539062 339.574219 347.242188 341.601562 348.875 C 345.847656 352.304688 350.347656 355.363281 355.101562 358.054688 L 355.554688 358.324219 C 360.089844 360.851562 364.792969 363.011719 369.664062 364.804688 L 371.789062 365.578125 C 376.59375 367.261719 381.5 368.566406 386.503906 369.496094 C 387.28125 369.628906 388.074219 369.714844 388.847656 369.847656 C 399.59375 371.730469 410.335938 371.730469 421.078125 369.847656 C 421.855469 369.714844 422.648438 369.628906 423.425781 369.496094 C 428.429688 368.566406 433.335938 367.261719 438.140625 365.578125 L 440.265625 364.804688 C 445.136719 363.011719 449.839844 360.851562 454.375 358.324219 L 454.828125 358.054688 C 459.578125 355.363281 464.078125 352.304688 468.328125 348.875 C 470.351562 347.246094 472.308594 345.539062 474.203125 343.757812 C 476.09375 341.980469 477.917969 340.128906 479.667969 338.210938 C 481.417969 336.289062 483.09375 334.304688 484.691406 332.253906 C 486.289062 330.207031 487.804688 328.097656 489.238281 325.933594 C 490.675781 323.765625 492.023438 321.550781 493.289062 319.28125 C 494.554688 317.011719 495.730469 314.695312 496.816406 312.335938 C 497.902344 309.976562 498.894531 307.574219 499.796875 305.140625 C 500.699219 302.703125 501.507812 300.234375 502.21875 297.738281 C 502.929688 295.238281 503.546875 292.714844 504.0625 290.167969 C 504.582031 287.621094 505 285.0625 505.320312 282.480469 C 505.640625 279.902344 505.863281 277.316406 505.984375 274.722656 C 506.105469 272.125 506.125 269.53125 506.046875 266.933594 C 505.96875 264.335938 505.789062 261.746094 505.511719 259.160156 C 505.234375 256.578125 504.855469 254.007812 504.378906 251.457031 C 503.90625 248.902344 503.332031 246.367188 502.660156 243.859375 C 501.988281 241.347656 501.222656 238.867188 500.363281 236.417969 C 499.5 233.964844 498.542969 231.550781 497.496094 229.171875 C 496.449219 226.796875 495.3125 224.460938 494.082031 222.171875 C 492.855469 219.882812 491.542969 217.640625 490.140625 215.453125 C 488.742188 213.265625 487.261719 211.132812 485.699219 209.058594 C 484.132812 206.984375 482.492188 204.972656 480.773438 203.023438 C 479.054688 201.074219 477.261719 199.195312 475.402344 197.382812 C 473.535156 195.574219 471.605469 193.835938 469.609375 192.175781 C 467.613281 190.511719 465.554688 188.929688 463.433594 187.425781 C 461.316406 185.921875 459.140625 184.503906 456.914062 183.164062 C 454.6875 181.828125 452.410156 180.582031 450.085938 179.417969 C 447.761719 178.257812 445.394531 177.1875 442.988281 176.210938 C 440.582031 175.230469 438.140625 174.347656 435.667969 173.554688 C 433.191406 172.765625 430.691406 172.070312 428.160156 171.472656 C 425.632812 170.871094 423.085938 170.371094 420.519531 169.96875 C 417.949219 169.566406 415.371094 169.265625 412.78125 169.0625 C 410.191406 168.859375 407.597656 168.753906 405 168.75 Z M 449.160156 320.625 C 447.660156 319.28125 446.101562 318.003906 444.484375 316.800781 C 442.863281 315.597656 441.195312 314.472656 439.476562 313.421875 C 437.753906 312.371094 435.988281 311.402344 434.179688 310.511719 C 432.371094 309.625 430.527344 308.820312 428.640625 308.097656 C 426.757812 307.378906 424.847656 306.746094 422.90625 306.199219 C 420.964844 305.652344 419.003906 305.199219 417.019531 304.832031 C 415.035156 304.464844 413.042969 304.1875 411.035156 304.003906 C 409.027344 303.820312 407.015625 303.730469 405 303.730469 C 402.984375 303.730469 400.972656 303.820312 398.964844 304.007812 C 396.957031 304.191406 394.960938 304.464844 392.976562 304.832031 C 390.996094 305.199219 389.035156 305.652344 387.09375 306.199219 C 385.152344 306.746094 383.242188 307.378906 381.355469 308.097656 C 379.472656 308.820312 377.628906 309.625 375.820312 310.511719 C 374.007812 311.402344 372.242188 312.371094 370.523438 313.421875 C 368.804688 314.472656 367.132812 315.597656 365.515625 316.800781 C 363.898438 318.003906 362.339844 319.28125 360.839844 320.625 C 359.976562 319.878906 359.136719 319.113281 358.3125 318.328125 C 357.492188 317.539062 356.691406 316.730469 355.910156 315.902344 C 355.125 315.074219 354.367188 314.230469 353.628906 313.363281 C 352.890625 312.496094 352.175781 311.609375 351.480469 310.707031 C 350.785156 309.804688 350.113281 308.886719 349.46875 307.949219 C 348.820312 307.011719 348.195312 306.058594 347.597656 305.089844 C 347 304.125 346.425781 303.140625 345.875 302.144531 C 345.328125 301.144531 344.800781 300.132812 344.304688 299.109375 C 343.804688 298.085938 343.335938 297.050781 342.890625 296.003906 C 342.445312 294.957031 342.023438 293.898438 341.632812 292.828125 C 341.238281 291.761719 340.875 290.683594 340.539062 289.59375 C 340.199219 288.507812 339.890625 287.414062 339.605469 286.308594 C 339.324219 285.207031 339.070312 284.097656 338.84375 282.980469 C 338.617188 281.863281 338.421875 280.742188 338.25 279.617188 C 338.082031 278.492188 337.941406 277.363281 337.828125 276.230469 C 337.714844 275.097656 337.632812 273.960938 337.578125 272.824219 C 337.523438 271.6875 337.496094 270.550781 337.5 269.410156 C 337.503906 268.273438 337.535156 267.132812 337.59375 265.996094 C 337.65625 264.859375 337.746094 263.726562 337.863281 262.59375 C 337.980469 261.460938 338.125 260.332031 338.300781 259.207031 C 338.476562 258.082031 338.679688 256.960938 338.910156 255.847656 C 339.140625 254.734375 339.402344 253.625 339.691406 252.523438 C 339.976562 251.421875 340.292969 250.328125 340.636719 249.242188 C 340.980469 248.15625 341.347656 247.078125 341.746094 246.011719 C 342.144531 244.945312 342.566406 243.890625 343.019531 242.84375 C 343.46875 241.800781 343.949219 240.765625 344.449219 239.746094 C 344.953125 238.722656 345.480469 237.714844 346.035156 236.71875 C 346.589844 235.726562 347.167969 234.746094 347.773438 233.78125 C 348.375 232.816406 349.003906 231.867188 349.65625 230.933594 C 350.308594 230 350.984375 229.082031 351.679688 228.183594 C 352.378906 227.285156 353.101562 226.402344 353.84375 225.539062 C 354.585938 224.675781 355.347656 223.832031 356.136719 223.007812 C 356.921875 222.183594 357.726562 221.382812 358.550781 220.597656 C 359.378906 219.816406 360.222656 219.050781 361.089844 218.3125 C 361.953125 217.570312 362.835938 216.851562 363.738281 216.15625 C 364.640625 215.460938 365.554688 214.789062 366.492188 214.136719 C 367.425781 213.488281 368.378906 212.863281 369.34375 212.261719 C 370.3125 211.660156 371.292969 211.082031 372.289062 210.53125 C 373.285156 209.980469 374.292969 209.453125 375.316406 208.953125 C 376.339844 208.453125 377.375 207.976562 378.417969 207.527344 C 379.46875 207.082031 380.523438 206.660156 381.59375 206.265625 C 382.660156 205.871094 383.738281 205.503906 384.824219 205.160156 C 385.910156 204.820312 387.003906 204.507812 388.109375 204.222656 C 389.210938 203.9375 390.320312 203.683594 391.433594 203.453125 C 392.546875 203.226562 393.667969 203.023438 394.796875 202.851562 C 395.921875 202.679688 397.050781 202.539062 398.183594 202.421875 C 399.316406 202.308594 400.449219 202.21875 401.585938 202.164062 C 402.722656 202.105469 403.863281 202.074219 405 202.074219 C 406.136719 202.074219 407.277344 202.105469 408.414062 202.164062 C 409.550781 202.21875 410.6875 202.308594 411.820312 202.421875 C 412.953125 202.539062 414.082031 202.679688 415.207031 202.851562 C 416.332031 203.023438 417.453125 203.226562 418.566406 203.453125 C 419.683594 203.683594 420.792969 203.9375 421.894531 204.222656 C 422.996094 204.507812 424.089844 204.820312 425.175781 205.164062 C 426.261719 205.503906 427.339844 205.871094 428.40625 206.265625 C 429.476562 206.660156 430.53125 207.082031 431.578125 207.527344 C 432.625 207.976562 433.660156 208.453125 434.683594 208.953125 C 435.707031 209.453125 436.714844 209.980469 437.710938 210.53125 C 438.707031 211.082031 439.6875 211.660156 440.65625 212.261719 C 441.621094 212.863281 442.574219 213.488281 443.507812 214.136719 C 444.445312 214.789062 445.359375 215.460938 446.261719 216.15625 C 447.164062 216.855469 448.046875 217.570312 448.910156 218.3125 C 449.777344 219.050781 450.621094 219.816406 451.449219 220.597656 C 452.273438 221.382812 453.078125 222.183594 453.863281 223.007812 C 454.652344 223.832031 455.414062 224.675781 456.15625 225.539062 C 456.898438 226.402344 457.621094 227.285156 458.320312 228.183594 C 459.015625 229.082031 459.691406 230 460.34375 230.933594 C 460.996094 231.867188 461.621094 232.816406 462.226562 233.78125 C 462.828125 234.746094 463.410156 235.726562 463.960938 236.71875 C 464.515625 237.714844 465.046875 238.722656 465.546875 239.746094 C 466.050781 240.765625 466.527344 241.800781 466.980469 242.84375 C 467.429688 243.890625 467.855469 244.945312 468.253906 246.011719 C 468.652344 247.078125 469.023438 248.15625 469.363281 249.242188 C 469.707031 250.328125 470.023438 251.421875 470.308594 252.523438 C 470.597656 253.625 470.855469 254.734375 471.085938 255.847656 C 471.320312 256.960938 471.523438 258.082031 471.699219 259.207031 C 471.875 260.332031 472.019531 261.460938 472.136719 262.59375 C 472.253906 263.726562 472.34375 264.859375 472.40625 265.996094 C 472.464844 267.132812 472.496094 268.273438 472.5 269.410156 C 472.503906 270.550781 472.476562 271.6875 472.421875 272.824219 C 472.367188 273.960938 472.285156 275.097656 472.171875 276.230469 C 472.058594 277.363281 471.917969 278.492188 471.75 279.617188 C 471.582031 280.742188 471.382812 281.863281 471.15625 282.980469 C 470.929688 284.097656 470.675781 285.207031 470.394531 286.308594 C 470.109375 287.414062 469.800781 288.507812 469.460938 289.59375 C 469.125 290.683594 468.761719 291.761719 468.367188 292.828125 C 467.976562 293.898438 467.558594 294.957031 467.109375 296.003906 C 466.664062 297.050781 466.191406 298.085938 465.695312 299.109375 C 465.195312 300.132812 464.671875 301.144531 464.125 302.140625 C 463.574219 303.140625 463 304.121094 462.402344 305.089844 C 461.804688 306.058594 461.179688 307.011719 460.53125 307.949219 C 459.886719 308.886719 459.214844 309.804688 458.519531 310.707031 C 457.828125 311.609375 457.109375 312.496094 456.371094 313.363281 C 455.636719 314.230469 454.875 315.074219 454.09375 315.902344 C 453.3125 316.730469 452.511719 317.539062 451.6875 318.328125 C 450.867188 319.113281 450.023438 319.878906 449.160156 320.625 Z M 449.160156 320.625 " fill-opacity="1" fill-rule="nonzero"/><path fill="#009688" d="M 438.75 270 C 438.75 271.105469 438.695312 272.207031 438.585938 273.308594 C 438.480469 274.40625 438.316406 275.5 438.101562 276.585938 C 437.886719 277.667969 437.617188 278.738281 437.296875 279.796875 C 436.976562 280.855469 436.605469 281.894531 436.179688 282.914062 C 435.757812 283.9375 435.285156 284.933594 434.765625 285.910156 C 434.242188 286.882812 433.675781 287.832031 433.0625 288.75 C 432.449219 289.667969 431.789062 290.554688 431.089844 291.410156 C 430.386719 292.265625 429.644531 293.082031 428.863281 293.863281 C 428.082031 294.644531 427.265625 295.386719 426.410156 296.089844 C 425.554688 296.789062 424.667969 297.449219 423.75 298.0625 C 422.832031 298.675781 421.882812 299.242188 420.910156 299.765625 C 419.933594 300.285156 418.9375 300.757812 417.914062 301.179688 C 416.894531 301.605469 415.855469 301.976562 414.796875 302.296875 C 413.738281 302.617188 412.667969 302.886719 411.585938 303.101562 C 410.5 303.316406 409.40625 303.480469 408.308594 303.585938 C 407.207031 303.695312 406.105469 303.75 405 303.75 C 403.894531 303.75 402.792969 303.695312 401.691406 303.585938 C 400.59375 303.480469 399.5 303.316406 398.414062 303.101562 C 397.332031 302.886719 396.261719 302.617188 395.203125 302.296875 C 394.144531 301.976562 393.105469 301.605469 392.085938 301.179688 C 391.0625 300.757812 390.066406 300.285156 389.089844 299.765625 C 388.117188 299.242188 387.167969 298.675781 386.25 298.0625 C 385.332031 297.449219 384.445312 296.789062 383.589844 296.089844 C 382.734375 295.386719 381.917969 294.644531 381.136719 293.863281 C 380.355469 293.082031 379.613281 292.265625 378.910156 291.410156 C 378.210938 290.554688 377.550781 289.667969 376.9375 288.75 C 376.324219 287.832031 375.757812 286.882812 375.234375 285.910156 C 374.714844 284.933594 374.242188 283.9375 373.820312 282.914062 C 373.394531 281.894531 373.023438 280.855469 372.703125 279.796875 C 372.382812 278.738281 372.113281 277.667969 371.898438 276.585938 C 371.683594 275.5 371.519531 274.40625 371.414062 273.308594 C 371.304688 272.207031 371.25 271.105469 371.25 270 C 371.25 268.894531 371.304688 267.792969 371.414062 266.691406 C 371.519531 265.59375 371.683594 264.5 371.898438 263.414062 C 372.113281 262.332031 372.382812 261.261719 372.703125 260.203125 C 373.023438 259.144531 373.394531 258.105469 373.820312 257.085938 C 374.242188 256.0625 374.714844 255.066406 375.234375 254.089844 C 375.757812 253.117188 376.324219 252.167969 376.9375 251.25 C 377.550781 250.332031 378.210938 249.445312 378.910156 248.589844 C 379.613281 247.734375 380.355469 246.917969 381.136719 246.136719 C 381.917969 245.355469 382.734375 244.613281 383.589844 243.910156 C 384.445312 243.210938 385.332031 242.550781 386.25 241.9375 C 387.167969 241.324219 388.117188 240.757812 389.089844 240.234375 C 390.066406 239.714844 391.0625 239.242188 392.085938 238.820312 C 393.105469 238.394531 394.144531 238.023438 395.203125 237.703125 C 396.261719 237.382812 397.332031 237.113281 398.414062 236.898438 C 399.5 236.683594 400.59375 236.519531 401.691406 236.414062 C 402.792969 236.304688 403.894531 236.25 405 236.25 C 406.105469 236.25 407.207031 236.304688 408.308594 236.414062 C 409.40625 236.519531 410.5 236.683594 411.585938 236.898438 C 412.667969 237.113281 413.738281 237.382812 414.796875 237.703125 C 415.855469 238.023438 416.894531 238.394531 417.914062 238.820312 C 418.9375 239.242188 419.933594 239.714844 420.910156 240.234375 C 421.882812 240.757812 422.832031 241.324219 423.75 241.9375 C 424.667969 242.550781 425.554688 243.210938 426.410156 243.910156 C 427.265625 244.613281 428.082031 245.355469 428.863281 246.136719 C 429.644531 246.917969 430.386719 247.734375 431.089844 248.589844 C 431.789062 249.445312 432.449219 250.332031 433.0625 251.25 C 433.675781 252.167969 434.242188 253.117188 434.765625 254.089844 C 435.285156 255.066406 435.757812 256.0625 436.179688 257.085938 C 436.605469 258.105469 436.976562 259.144531 437.296875 260.203125 C 437.617188 261.261719 437.886719 262.332031 438.101562 263.414062 C 438.316406 264.5 438.480469 265.59375 438.585938 266.691406 C 438.695312 267.792969 438.75 268.894531 438.75 270 Z M 438.75 270 " fill-opacity="1" fill-rule="nonzero"/><path fill="#009688" d="M 556.875 202.5 L 641.25 202.5 L 641.25 320.625 C 641.25 321.179688 641.277344 321.730469 641.332031 322.28125 C 641.386719 322.828125 641.464844 323.375 641.574219 323.917969 C 641.679688 324.460938 641.816406 324.996094 641.976562 325.523438 C 642.136719 326.054688 642.320312 326.570312 642.53125 327.082031 C 642.742188 327.59375 642.980469 328.09375 643.242188 328.578125 C 643.5 329.066406 643.785156 329.542969 644.089844 330 C 644.398438 330.460938 644.726562 330.902344 645.078125 331.328125 C 645.429688 331.757812 645.800781 332.167969 646.191406 332.558594 C 646.582031 332.949219 646.992188 333.320312 647.417969 333.667969 C 647.847656 334.019531 648.289062 334.347656 648.75 334.65625 C 649.207031 334.964844 649.683594 335.246094 650.167969 335.507812 C 650.65625 335.765625 651.15625 336.003906 651.667969 336.214844 C 652.179688 336.425781 652.695312 336.613281 653.226562 336.773438 C 653.753906 336.933594 654.289062 337.066406 654.832031 337.175781 C 655.375 337.285156 655.921875 337.363281 656.472656 337.417969 C 657.019531 337.472656 657.570312 337.5 658.125 337.5 C 658.679688 337.5 659.230469 337.472656 659.777344 337.417969 C 660.328125 337.363281 660.875 337.285156 661.414062 337.175781 C 661.957031 337.066406 662.492188 336.933594 663.023438 336.773438 C 663.550781 336.613281 664.070312 336.425781 664.582031 336.214844 C 665.089844 336.003906 665.589844 335.765625 666.078125 335.507812 C 666.566406 335.246094 667.039062 334.960938 667.496094 334.65625 C 667.957031 334.347656 668.402344 334.019531 668.828125 333.667969 C 669.257812 333.320312 669.664062 332.949219 670.054688 332.558594 C 670.449219 332.167969 670.816406 331.757812 671.167969 331.332031 C 671.519531 330.902344 671.847656 330.460938 672.15625 330 C 672.460938 329.539062 672.746094 329.066406 673.007812 328.578125 C 673.269531 328.09375 673.503906 327.59375 673.714844 327.082031 C 673.925781 326.570312 674.113281 326.050781 674.273438 325.523438 C 674.433594 324.996094 674.566406 324.457031 674.675781 323.917969 C 674.78125 323.375 674.863281 322.828125 674.917969 322.277344 C 674.972656 321.730469 675 321.179688 675 320.625 L 675 168.75 L 556.875 168.75 C 556.324219 168.75 555.773438 168.777344 555.222656 168.832031 C 554.671875 168.886719 554.125 168.96875 553.582031 169.074219 C 553.042969 169.183594 552.507812 169.316406 551.980469 169.476562 C 551.449219 169.636719 550.929688 169.824219 550.417969 170.035156 C 549.910156 170.246094 549.410156 170.480469 548.921875 170.742188 C 548.433594 171.003906 547.960938 171.285156 547.5 171.59375 C 547.039062 171.898438 546.597656 172.230469 546.171875 172.582031 C 545.742188 172.929688 545.335938 173.300781 544.941406 173.691406 C 544.550781 174.082031 544.183594 174.492188 543.832031 174.917969 C 543.480469 175.347656 543.152344 175.789062 542.84375 176.25 C 542.535156 176.710938 542.253906 177.183594 541.992188 177.671875 C 541.730469 178.160156 541.496094 178.65625 541.285156 179.167969 C 541.074219 179.675781 540.886719 180.199219 540.726562 180.726562 C 540.566406 181.257812 540.433594 181.789062 540.324219 182.332031 C 540.21875 182.875 540.136719 183.421875 540.082031 183.972656 C 540.027344 184.519531 540 185.074219 540 185.625 C 540 186.175781 540.027344 186.730469 540.082031 187.277344 C 540.136719 187.828125 540.214844 188.375 540.324219 188.917969 C 540.429688 189.457031 540.566406 189.992188 540.726562 190.523438 C 540.886719 191.050781 541.070312 191.570312 541.285156 192.082031 C 541.496094 192.59375 541.730469 193.089844 541.992188 193.578125 C 542.253906 194.066406 542.535156 194.539062 542.84375 195 C 543.152344 195.460938 543.480469 195.902344 543.832031 196.332031 C 544.179688 196.757812 544.550781 197.167969 544.941406 197.558594 C 545.332031 197.949219 545.742188 198.320312 546.167969 198.667969 C 546.597656 199.019531 547.039062 199.347656 547.5 199.65625 C 547.957031 199.960938 548.433594 200.246094 548.917969 200.507812 C 549.40625 200.765625 549.90625 201.003906 550.414062 201.214844 C 550.925781 201.425781 551.445312 201.613281 551.976562 201.773438 C 552.503906 201.933594 553.039062 202.066406 553.582031 202.175781 C 554.125 202.285156 554.667969 202.363281 555.222656 202.417969 C 555.773438 202.472656 556.324219 202.5 556.875 202.5 Z M 556.875 202.5 " fill-opacity="1" fill-rule="nonzero"/><path fill="#009688" d="M 135 371.25 L 253.125 371.25 C 253.679688 371.25 254.230469 371.222656 254.777344 371.167969 C 255.328125 371.113281 255.875 371.03125 256.417969 370.925781 C 256.960938 370.816406 257.496094 370.683594 258.023438 370.523438 C 258.550781 370.363281 259.070312 370.175781 259.582031 369.964844 C 260.09375 369.753906 260.589844 369.515625 261.078125 369.257812 C 261.566406 368.996094 262.039062 368.710938 262.5 368.40625 C 262.960938 368.097656 263.402344 367.769531 263.832031 367.417969 C 264.257812 367.070312 264.667969 366.699219 265.058594 366.304688 C 265.449219 365.917969 265.820312 365.507812 266.167969 365.078125 C 266.519531 364.652344 266.847656 364.207031 267.15625 363.75 C 267.460938 363.289062 267.746094 362.816406 268.007812 362.328125 C 268.269531 361.839844 268.503906 361.34375 268.714844 360.832031 C 268.925781 360.320312 269.113281 359.800781 269.273438 359.273438 C 269.433594 358.746094 269.566406 358.210938 269.675781 357.667969 C 269.78125 357.125 269.863281 356.578125 269.917969 356.027344 C 269.972656 355.480469 270 354.929688 270 354.375 C 270 353.824219 269.972656 353.269531 269.917969 352.722656 C 269.863281 352.171875 269.78125 351.625 269.675781 351.082031 C 269.566406 350.539062 269.433594 350.003906 269.273438 349.476562 C 269.113281 348.945312 268.925781 348.425781 268.714844 347.917969 C 268.503906 347.40625 268.265625 346.90625 268.007812 346.417969 C 267.746094 345.933594 267.460938 345.457031 267.152344 345 C 266.847656 344.539062 266.519531 344.097656 266.167969 343.667969 C 265.820312 343.242188 265.449219 342.832031 265.058594 342.441406 C 264.667969 342.050781 264.257812 341.679688 263.832031 341.332031 C 263.402344 340.980469 262.960938 340.652344 262.5 340.34375 C 262.039062 340.035156 261.566406 339.753906 261.078125 339.492188 C 260.59375 339.230469 260.09375 338.996094 259.582031 338.785156 C 259.070312 338.574219 258.550781 338.386719 258.023438 338.226562 C 257.496094 338.066406 256.960938 337.933594 256.417969 337.824219 C 255.875 337.71875 255.328125 337.636719 254.777344 337.582031 C 254.230469 337.527344 253.679688 337.5 253.125 337.5 L 168.75 337.5 L 168.75 202.5 L 253.125 202.5 C 253.679688 202.5 254.230469 202.472656 254.777344 202.417969 C 255.328125 202.363281 255.875 202.285156 256.417969 202.175781 C 256.960938 202.066406 257.496094 201.933594 258.023438 201.773438 C 258.550781 201.613281 259.070312 201.425781 259.582031 201.214844 C 260.09375 201.003906 260.589844 200.765625 261.078125 200.507812 C 261.566406 200.246094 262.039062 199.960938 262.5 199.65625 C 262.960938 199.347656 263.402344 199.019531 263.832031 198.671875 C 264.257812 198.320312 264.667969 197.949219 265.058594 197.558594 C 265.449219 197.167969 265.820312 196.757812 266.167969 196.332031 C 266.519531 195.902344 266.847656 195.460938 267.15625 195 C 267.460938 194.539062 267.746094 194.066406 268.007812 193.578125 C 268.269531 193.089844 268.503906 192.59375 268.714844 192.082031 C 268.925781 191.570312 269.113281 191.050781 269.273438 190.523438 C 269.433594 189.992188 269.566406 189.457031 269.675781 188.917969 C 269.78125 188.375 269.863281 187.828125 269.917969 187.277344 C 269.972656 186.730469 270 186.175781 270 185.625 C 270 185.074219 269.972656 184.519531 269.917969 183.972656 C 269.863281 183.421875 269.78125 182.875 269.675781 182.332031 C 269.566406 181.789062 269.433594 181.253906 269.273438 180.726562 C 269.113281 180.199219 268.925781 179.675781 268.714844 179.167969 C 268.503906 178.65625 268.265625 178.15625 268.007812 177.671875 C 267.746094 177.183594 267.460938 176.710938 267.152344 176.25 C 266.847656 175.789062 266.519531 175.347656 266.167969 174.921875 C 265.820312 174.492188 265.449219 174.082031 265.058594 173.691406 C 264.667969 173.300781 264.257812 172.929688 263.832031 172.582031 C 263.402344 172.230469 262.960938 171.898438 262.5 171.59375 C 262.039062 171.285156 261.566406 171.003906 261.078125 170.742188 C 260.59375 170.480469 260.09375 170.246094 259.582031 170.035156 C 259.070312 169.824219 258.550781 169.636719 258.023438 169.476562 C 257.496094 169.316406 256.960938 169.183594 256.417969 169.074219 C 255.875 168.964844 255.328125 168.886719 254.777344 168.832031 C 254.230469 168.777344 253.679688 168.75 253.125 168.75 L 135 168.75 Z M 135 371.25 " fill-opacity="1" fill-rule="nonzero"/><path fill="#009688" d="M 489.375 540 L 101.25 540 L 101.25 506.25 L 489.375 506.25 C 489.929688 506.25 490.480469 506.222656 491.027344 506.167969 C 491.578125 506.113281 492.125 506.03125 492.664062 505.925781 C 493.207031 505.816406 493.742188 505.683594 494.273438 505.523438 C 494.800781 505.363281 495.320312 505.175781 495.832031 504.964844 C 496.339844 504.753906 496.839844 504.515625 497.328125 504.257812 C 497.816406 503.996094 498.289062 503.710938 498.75 503.40625 C 499.207031 503.097656 499.652344 502.769531 500.078125 502.417969 C 500.507812 502.066406 500.914062 501.699219 501.304688 501.304688 C 501.699219 500.914062 502.066406 500.507812 502.417969 500.078125 C 502.769531 499.652344 503.097656 499.210938 503.402344 498.75 C 503.710938 498.289062 503.996094 497.816406 504.257812 497.328125 C 504.519531 496.839844 504.753906 496.34375 504.964844 495.832031 C 505.175781 495.320312 505.363281 494.800781 505.523438 494.273438 C 505.683594 493.746094 505.816406 493.207031 505.925781 492.667969 C 506.03125 492.125 506.113281 491.578125 506.167969 491.027344 C 506.222656 490.480469 506.25 489.925781 506.25 489.375 C 506.25 488.824219 506.222656 488.269531 506.167969 487.722656 C 506.113281 487.171875 506.03125 486.625 505.925781 486.082031 C 505.816406 485.539062 505.683594 485.003906 505.523438 484.476562 C 505.363281 483.949219 505.175781 483.425781 504.964844 482.917969 C 504.753906 482.40625 504.515625 481.90625 504.257812 481.421875 C 503.996094 480.933594 503.710938 480.457031 503.402344 480 C 503.097656 479.539062 502.769531 479.097656 502.417969 478.667969 C 502.066406 478.242188 501.699219 477.832031 501.304688 477.441406 C 500.914062 477.050781 500.507812 476.679688 500.078125 476.332031 C 499.652344 475.980469 499.207031 475.652344 498.746094 475.34375 C 498.289062 475.035156 497.816406 474.753906 497.328125 474.492188 C 496.839844 474.230469 496.339844 473.996094 495.832031 473.785156 C 495.320312 473.574219 494.800781 473.386719 494.273438 473.226562 C 493.742188 473.066406 493.207031 472.933594 492.664062 472.824219 C 492.125 472.714844 491.578125 472.636719 491.027344 472.582031 C 490.480469 472.527344 489.929688 472.5 489.375 472.5 L 101.25 472.5 L 101.25 438.75 L 489.375 438.75 C 489.929688 438.75 490.480469 438.722656 491.027344 438.667969 C 491.578125 438.613281 492.125 438.53125 492.664062 438.425781 C 493.207031 438.316406 493.742188 438.183594 494.273438 438.023438 C 494.800781 437.863281 495.320312 437.675781 495.832031 437.464844 C 496.339844 437.253906 496.839844 437.019531 497.328125 436.757812 C 497.816406 436.496094 498.289062 436.210938 498.75 435.90625 C 499.207031 435.597656 499.652344 435.269531 500.078125 434.917969 C 500.507812 434.570312 500.914062 434.199219 501.304688 433.808594 C 501.699219 433.417969 502.066406 433.007812 502.417969 432.578125 C 502.769531 432.152344 503.097656 431.710938 503.402344 431.25 C 503.710938 430.789062 503.996094 430.316406 504.257812 429.828125 C 504.519531 429.34375 504.753906 428.84375 504.964844 428.332031 C 505.175781 427.820312 505.363281 427.300781 505.523438 426.773438 C 505.683594 426.242188 505.816406 425.707031 505.925781 425.167969 C 506.03125 424.625 506.113281 424.078125 506.167969 423.527344 C 506.222656 422.980469 506.25 422.425781 506.25 421.875 C 506.25 421.324219 506.222656 420.769531 506.167969 420.222656 C 506.113281 419.671875 506.03125 419.125 505.925781 418.582031 C 505.816406 418.039062 505.683594 417.503906 505.523438 416.976562 C 505.363281 416.445312 505.175781 415.925781 504.964844 415.417969 C 504.753906 414.90625 504.515625 414.40625 504.257812 413.917969 C 503.996094 413.433594 503.710938 412.957031 503.402344 412.5 C 503.097656 412.039062 502.769531 411.597656 502.417969 411.167969 C 502.066406 410.742188 501.699219 410.332031 501.304688 409.941406 C 500.914062 409.550781 500.507812 409.179688 500.078125 408.828125 C 499.652344 408.480469 499.207031 408.152344 498.746094 407.84375 C 498.289062 407.535156 497.816406 407.253906 497.328125 406.992188 C 496.839844 406.730469 496.339844 406.496094 495.832031 406.285156 C 495.320312 406.074219 494.800781 405.886719 494.273438 405.726562 C 493.742188 405.566406 493.207031 405.433594 492.664062 405.324219 C 492.125 405.214844 491.578125 405.136719 491.027344 405.082031 C 490.480469 405.027344 489.929688 405 489.375 405 L 101.25 405 L 101.25 135 L 708.75 135 L 708.75 320.625 C 708.75 321.179688 708.777344 321.730469 708.832031 322.28125 C 708.886719 322.828125 708.96875 323.375 709.074219 323.917969 C 709.183594 324.460938 709.316406 324.996094 709.476562 325.523438 C 709.636719 326.054688 709.824219 326.570312 710.035156 327.082031 C 710.246094 327.59375 710.480469 328.09375 710.742188 328.578125 C 711.003906 329.066406 711.285156 329.542969 711.59375 330 C 711.902344 330.460938 712.230469 330.902344 712.582031 331.328125 C 712.929688 331.757812 713.300781 332.167969 713.691406 332.558594 C 714.082031 332.949219 714.492188 333.320312 714.921875 333.667969 C 715.347656 334.019531 715.789062 334.347656 716.25 334.65625 C 716.710938 334.964844 717.183594 335.246094 717.671875 335.507812 C 718.15625 335.765625 718.65625 336.003906 719.167969 336.214844 C 719.675781 336.425781 720.195312 336.613281 720.726562 336.773438 C 721.253906 336.933594 721.789062 337.066406 722.332031 337.175781 C 722.875 337.285156 723.421875 337.363281 723.972656 337.417969 C 724.523438 337.472656 725.074219 337.5 725.625 337.5 C 726.179688 337.5 726.730469 337.472656 727.277344 337.417969 C 727.828125 337.363281 728.375 337.285156 728.914062 337.175781 C 729.457031 337.066406 729.992188 336.933594 730.523438 336.773438 C 731.050781 336.613281 731.570312 336.425781 732.082031 336.214844 C 732.59375 336.003906 733.089844 335.765625 733.578125 335.507812 C 734.066406 335.246094 734.539062 334.960938 735 334.65625 C 735.460938 334.347656 735.902344 334.019531 736.332031 333.667969 C 736.757812 333.320312 737.164062 332.949219 737.554688 332.558594 C 737.949219 332.167969 738.316406 331.757812 738.667969 331.332031 C 739.019531 330.902344 739.347656 330.460938 739.652344 330 C 739.960938 329.539062 740.246094 329.066406 740.503906 328.578125 C 740.765625 328.09375 741.003906 327.59375 741.214844 327.082031 C 741.425781 326.570312 741.613281 326.050781 741.773438 325.523438 C 741.933594 324.996094 742.066406 324.457031 742.175781 323.917969 C 742.28125 323.375 742.363281 322.828125 742.417969 322.277344 C 742.472656 321.730469 742.5 321.179688 742.5 320.625 L 742.5 135 C 742.5 133.894531 742.445312 132.792969 742.335938 131.691406 C 742.226562 130.59375 742.066406 129.5 741.851562 128.414062 C 741.636719 127.332031 741.367188 126.261719 741.046875 125.203125 C 740.722656 124.144531 740.351562 123.105469 739.929688 122.082031 C 739.503906 121.0625 739.035156 120.066406 738.511719 119.089844 C 737.992188 118.113281 737.425781 117.167969 736.808594 116.25 C 736.195312 115.332031 735.539062 114.445312 734.835938 113.589844 C 734.136719 112.734375 733.394531 111.917969 732.613281 111.132812 C 731.832031 110.351562 731.015625 109.613281 730.160156 108.910156 C 729.304688 108.210938 728.417969 107.550781 727.496094 106.9375 C 726.578125 106.324219 725.632812 105.757812 724.65625 105.234375 C 723.683594 104.714844 722.683594 104.242188 721.664062 103.816406 C 720.640625 103.394531 719.605469 103.023438 718.546875 102.703125 C 717.488281 102.382812 716.417969 102.113281 715.332031 101.898438 C 714.25 101.683594 713.160156 101.519531 712.058594 101.414062 C 710.960938 101.304688 709.855469 101.25 708.75 101.25 L 101.25 101.25 C 100.144531 101.25 99.042969 101.304688 97.941406 101.414062 C 96.839844 101.519531 95.75 101.683594 94.664062 101.898438 C 93.582031 102.113281 92.511719 102.382812 91.453125 102.703125 C 90.394531 103.023438 89.355469 103.398438 88.335938 103.820312 C 87.3125 104.242188 86.316406 104.714844 85.339844 105.234375 C 84.367188 105.757812 83.417969 106.324219 82.5 106.9375 C 81.582031 107.550781 80.695312 108.210938 79.839844 108.910156 C 78.984375 109.613281 78.167969 110.355469 77.386719 111.136719 C 76.605469 111.917969 75.863281 112.734375 75.160156 113.589844 C 74.460938 114.445312 73.800781 115.332031 73.1875 116.25 C 72.574219 117.167969 72.003906 118.117188 71.484375 119.089844 C 70.964844 120.066406 70.492188 121.0625 70.070312 122.085938 C 69.648438 123.105469 69.273438 124.144531 68.953125 125.203125 C 68.632812 126.261719 68.363281 127.332031 68.148438 128.414062 C 67.929688 129.5 67.769531 130.59375 67.664062 131.691406 C 67.554688 132.792969 67.5 133.894531 67.5 135 L 67.5 540 C 67.5 541.105469 67.554688 542.207031 67.664062 543.308594 C 67.769531 544.410156 67.929688 545.5 68.144531 546.585938 C 68.359375 547.667969 68.628906 548.738281 68.953125 549.796875 C 69.273438 550.855469 69.644531 551.894531 70.066406 552.914062 C 70.488281 553.9375 70.960938 554.933594 71.484375 555.910156 C 72.003906 556.882812 72.570312 557.832031 73.183594 558.75 C 73.800781 559.667969 74.457031 560.554688 75.160156 561.410156 C 75.863281 562.265625 76.605469 563.082031 77.382812 563.863281 C 78.167969 564.644531 78.984375 565.386719 79.839844 566.089844 C 80.695312 566.789062 81.578125 567.445312 82.5 568.0625 C 83.417969 568.675781 84.363281 569.242188 85.339844 569.765625 C 86.3125 570.285156 87.3125 570.757812 88.332031 571.179688 C 89.355469 571.601562 90.394531 571.976562 91.453125 572.296875 C 92.511719 572.617188 93.582031 572.886719 94.664062 573.101562 C 95.75 573.316406 96.839844 573.480469 97.941406 573.589844 C 99.042969 573.695312 100.144531 573.75 101.25 573.75 L 489.375 573.75 C 489.929688 573.75 490.480469 573.722656 491.027344 573.667969 C 491.578125 573.613281 492.125 573.535156 492.664062 573.425781 C 493.207031 573.316406 493.742188 573.183594 494.273438 573.023438 C 494.800781 572.863281 495.320312 572.675781 495.832031 572.464844 C 496.339844 572.253906 496.839844 572.019531 497.328125 571.757812 C 497.816406 571.496094 498.289062 571.210938 498.75 570.90625 C 499.207031 570.597656 499.652344 570.269531 500.078125 569.917969 C 500.507812 569.570312 500.914062 569.199219 501.304688 568.804688 C 501.699219 568.414062 502.066406 568.007812 502.417969 567.578125 C 502.769531 567.152344 503.097656 566.710938 503.402344 566.25 C 503.710938 565.789062 503.996094 565.316406 504.257812 564.828125 C 504.519531 564.34375 504.753906 563.84375 504.964844 563.332031 C 505.175781 562.820312 505.363281 562.300781 505.523438 561.773438 C 505.683594 561.246094 505.816406 560.710938 505.925781 560.167969 C 506.03125 559.625 506.113281 559.078125 506.167969 558.527344 C 506.222656 557.980469 506.25 557.425781 506.25 556.875 C 506.25 556.324219 506.222656 555.769531 506.167969 555.21875 C 506.113281 554.671875 506.03125 554.125 505.925781 553.582031 C 505.816406 553.039062 505.683594 552.503906 505.523438 551.976562 C 505.363281 551.445312 505.175781 550.925781 504.964844 550.414062 C 504.753906 549.90625 504.515625 549.40625 504.257812 548.917969 C 503.996094 548.429688 503.710938 547.957031 503.402344 547.5 C 503.097656 547.039062 502.769531 546.59375 502.417969 546.167969 C 502.066406 545.742188 501.699219 545.332031 501.304688 544.941406 C 500.914062 544.550781 500.507812 544.179688 500.078125 543.828125 C 499.652344 543.480469 499.207031 543.148438 498.746094 542.84375 C 498.289062 542.535156 497.816406 542.253906 497.328125 541.992188 C 496.839844 541.730469 496.339844 541.496094 495.832031 541.285156 C 495.320312 541.074219 494.800781 540.886719 494.273438 540.726562 C 493.742188 540.566406 493.207031 540.433594 492.664062 540.324219 C 492.125 540.214844 491.578125 540.136719 491.027344 540.082031 C 490.480469 540.027344 489.929688 540 489.375 540 Z M 489.375 540 " fill-opacity="1" fill-rule="nonzero"/><path fill="#009688" d="M 641.25 405 C 642.355469 405 643.457031 405.027344 644.5625 405.082031 C 645.664062 405.136719 646.765625 405.21875 647.867188 405.324219 C 648.964844 405.433594 650.0625 405.566406 651.152344 405.730469 C 652.246094 405.890625 653.335938 406.082031 654.417969 406.296875 C 655.5 406.511719 656.578125 406.753906 657.652344 407.023438 C 658.722656 407.289062 659.785156 407.585938 660.84375 407.90625 C 661.902344 408.226562 662.949219 408.574219 663.988281 408.945312 C 665.027344 409.316406 666.058594 409.714844 667.078125 410.136719 C 668.101562 410.558594 669.109375 411.007812 670.109375 411.480469 C 671.105469 411.953125 672.09375 412.449219 673.070312 412.96875 C 674.042969 413.492188 675.003906 414.035156 675.953125 414.601562 C 676.898438 415.171875 677.832031 415.761719 678.75 416.375 C 679.667969 416.988281 680.574219 417.625 681.460938 418.28125 C 682.347656 418.941406 683.21875 419.621094 684.074219 420.320312 C 684.925781 421.023438 685.761719 421.742188 686.582031 422.484375 C 687.398438 423.226562 688.199219 423.988281 688.980469 424.769531 C 689.761719 425.550781 690.523438 426.351562 691.265625 427.167969 C 692.003906 427.988281 692.726562 428.824219 693.429688 429.675781 C 694.128906 430.53125 694.808594 431.402344 695.464844 432.289062 C 696.125 433.175781 696.757812 434.078125 697.371094 434.996094 C 697.988281 435.917969 698.578125 436.851562 699.144531 437.796875 C 699.714844 438.746094 700.257812 439.707031 700.777344 440.679688 C 701.300781 441.65625 701.796875 442.640625 702.269531 443.640625 C 702.738281 444.636719 703.1875 445.648438 703.609375 446.667969 C 704.03125 447.6875 704.429688 448.71875 704.800781 449.761719 C 705.175781 450.800781 705.519531 451.847656 705.84375 452.90625 C 706.164062 453.960938 706.457031 455.027344 706.726562 456.097656 C 706.996094 457.167969 707.238281 458.246094 707.453125 459.332031 C 707.667969 460.414062 707.855469 461.503906 708.019531 462.597656 C 708.179688 463.6875 708.316406 464.785156 708.425781 465.882812 C 708.535156 466.984375 708.613281 468.085938 708.667969 469.1875 C 708.722656 470.292969 708.75 471.394531 708.75 472.5 C 708.75 473.605469 708.722656 474.707031 708.667969 475.8125 C 708.613281 476.914062 708.535156 478.015625 708.425781 479.117188 C 708.316406 480.214844 708.179688 481.3125 708.019531 482.402344 C 707.855469 483.496094 707.667969 484.585938 707.453125 485.667969 C 707.238281 486.75 706.996094 487.828125 706.726562 488.902344 C 706.457031 489.972656 706.160156 491.035156 705.839844 492.09375 C 705.519531 493.152344 705.175781 494.199219 704.800781 495.238281 C 704.429688 496.28125 704.03125 497.308594 703.609375 498.328125 C 703.1875 499.351562 702.738281 500.359375 702.269531 501.359375 C 701.796875 502.359375 701.300781 503.34375 700.78125 504.320312 C 700.261719 505.292969 699.714844 506.253906 699.148438 507.203125 C 698.578125 508.148438 697.988281 509.082031 697.375 510 C 696.761719 510.917969 696.125 511.820312 695.464844 512.707031 C 694.808594 513.597656 694.128906 514.46875 693.429688 515.320312 C 692.726562 516.175781 692.003906 517.011719 691.265625 517.828125 C 690.523438 518.648438 689.761719 519.449219 688.980469 520.230469 C 688.199219 521.011719 687.398438 521.769531 686.582031 522.511719 C 685.761719 523.253906 684.929688 523.976562 684.074219 524.675781 C 683.21875 525.378906 682.347656 526.058594 681.460938 526.714844 C 680.574219 527.375 679.667969 528.007812 678.75 528.621094 C 677.832031 529.234375 676.898438 529.828125 675.953125 530.394531 C 675.003906 530.964844 674.042969 531.507812 673.070312 532.027344 C 672.09375 532.550781 671.109375 533.046875 670.109375 533.519531 C 669.109375 533.992188 668.101562 534.4375 667.078125 534.859375 C 666.058594 535.285156 665.027344 535.679688 663.988281 536.054688 C 662.949219 536.425781 661.902344 536.773438 660.84375 537.09375 C 659.785156 537.414062 658.722656 537.707031 657.648438 537.976562 C 656.578125 538.246094 655.5 538.488281 654.417969 538.703125 C 653.335938 538.917969 652.246094 539.105469 651.152344 539.269531 C 650.0625 539.429688 648.964844 539.566406 647.867188 539.675781 C 646.765625 539.78125 645.664062 539.863281 644.5625 539.917969 C 643.457031 539.972656 642.355469 540 641.25 540 C 640.144531 540 639.039062 539.972656 637.9375 539.917969 C 636.832031 539.863281 635.730469 539.78125 634.632812 539.675781 C 633.535156 539.566406 632.4375 539.429688 631.34375 539.269531 C 630.25 539.105469 629.164062 538.917969 628.078125 538.703125 C 626.996094 538.488281 625.917969 538.246094 624.847656 537.976562 C 623.777344 537.707031 622.710938 537.414062 621.65625 537.09375 C 620.597656 536.773438 619.546875 536.425781 618.507812 536.054688 C 617.46875 535.679688 616.4375 535.285156 615.417969 534.859375 C 614.398438 534.4375 613.386719 533.992188 612.386719 533.519531 C 611.390625 533.046875 610.40625 532.550781 609.429688 532.027344 C 608.453125 531.507812 607.492188 530.964844 606.546875 530.394531 C 605.597656 529.828125 604.664062 529.234375 603.746094 528.621094 C 602.828125 528.007812 601.925781 527.375 601.039062 526.714844 C 600.152344 526.058594 599.28125 525.378906 598.425781 524.675781 C 597.574219 523.976562 596.738281 523.253906 595.917969 522.511719 C 595.101562 521.769531 594.300781 521.011719 593.519531 520.230469 C 592.738281 519.449219 591.976562 518.648438 591.234375 517.828125 C 590.492188 517.011719 589.769531 516.175781 589.070312 515.320312 C 588.371094 514.464844 587.691406 513.597656 587.03125 512.707031 C 586.375 511.820312 585.738281 510.917969 585.125 510 C 584.511719 509.082031 583.917969 508.148438 583.351562 507.203125 C 582.78125 506.253906 582.238281 505.292969 581.71875 504.320312 C 581.199219 503.34375 580.703125 502.359375 580.230469 501.359375 C 579.757812 500.359375 579.308594 499.351562 578.886719 498.328125 C 578.464844 497.308594 578.066406 496.28125 577.695312 495.238281 C 577.320312 494.199219 576.976562 493.148438 576.65625 492.09375 C 576.335938 491.035156 576.039062 489.972656 575.773438 488.902344 C 575.503906 487.828125 575.261719 486.75 575.046875 485.667969 C 574.832031 484.585938 574.640625 483.496094 574.480469 482.402344 C 574.320312 481.3125 574.183594 480.214844 574.074219 479.117188 C 573.96875 478.015625 573.886719 476.914062 573.832031 475.8125 C 573.777344 474.707031 573.75 473.605469 573.75 472.5 C 573.75 471.394531 573.777344 470.292969 573.832031 469.1875 C 573.886719 468.085938 573.96875 466.984375 574.078125 465.882812 C 574.183594 464.785156 574.320312 463.6875 574.480469 462.59375 C 574.644531 461.503906 574.832031 460.414062 575.050781 459.332031 C 575.265625 458.246094 575.507812 457.167969 575.773438 456.097656 C 576.042969 455.027344 576.335938 453.960938 576.660156 452.90625 C 576.980469 451.847656 577.324219 450.800781 577.695312 449.761719 C 578.070312 448.71875 578.464844 447.6875 578.890625 446.667969 C 579.3125 445.648438 579.761719 444.636719 580.234375 443.640625 C 580.707031 442.640625 581.203125 441.65625 581.722656 440.679688 C 582.242188 439.707031 582.785156 438.746094 583.355469 437.796875 C 583.921875 436.851562 584.511719 435.917969 585.125 435 C 585.738281 434.082031 586.375 433.175781 587.035156 432.289062 C 587.691406 431.402344 588.371094 430.53125 589.074219 429.679688 C 589.773438 428.824219 590.496094 427.988281 591.234375 427.167969 C 591.976562 426.351562 592.738281 425.550781 593.519531 424.769531 C 594.300781 423.988281 595.101562 423.226562 595.921875 422.484375 C 596.738281 421.742188 597.574219 421.023438 598.429688 420.320312 C 599.28125 419.621094 600.152344 418.941406 601.039062 418.28125 C 601.925781 417.625 602.832031 416.988281 603.746094 416.375 C 604.664062 415.761719 605.597656 415.171875 606.546875 414.601562 C 607.492188 414.035156 608.453125 413.492188 609.429688 412.96875 C 610.40625 412.449219 611.390625 411.953125 612.386719 411.480469 C 613.386719 411.007812 614.398438 410.5625 615.417969 410.136719 C 616.441406 409.714844 617.46875 409.316406 618.511719 408.945312 C 619.550781 408.574219 620.601562 408.226562 621.65625 407.90625 C 622.714844 407.585938 623.777344 407.292969 624.847656 407.023438 C 625.921875 406.753906 627 406.511719 628.082031 406.296875 C 629.164062 406.082031 630.253906 405.890625 631.34375 405.730469 C 632.4375 405.566406 633.535156 405.433594 634.632812 405.324219 C 635.730469 405.21875 636.832031 405.136719 637.9375 405.082031 C 639.039062 405.027344 640.144531 405 641.25 405 M 641.25 371.25 C 639.59375 371.25 637.9375 371.289062 636.28125 371.371094 C 634.625 371.453125 632.972656 371.574219 631.324219 371.738281 C 629.675781 371.898438 628.03125 372.101562 626.394531 372.34375 C 624.753906 372.589844 623.121094 372.871094 621.496094 373.195312 C 619.871094 373.519531 618.253906 373.882812 616.648438 374.285156 C 615.039062 374.6875 613.445312 375.128906 611.859375 375.609375 C 610.273438 376.089844 608.699219 376.609375 607.140625 377.167969 C 605.578125 377.726562 604.03125 378.324219 602.5 378.957031 C 600.96875 379.589844 599.457031 380.261719 597.957031 380.96875 C 596.460938 381.679688 594.980469 382.421875 593.519531 383.203125 C 592.058594 383.984375 590.617188 384.800781 589.195312 385.652344 C 587.773438 386.503906 586.375 387.390625 584.996094 388.3125 C 583.617188 389.234375 582.265625 390.1875 580.933594 391.175781 C 579.601562 392.160156 578.296875 393.179688 577.015625 394.230469 C 575.734375 395.285156 574.480469 396.363281 573.253906 397.476562 C 572.023438 398.589844 570.824219 399.734375 569.652344 400.90625 C 568.480469 402.078125 567.339844 403.277344 566.226562 404.503906 C 565.113281 405.730469 564.03125 406.988281 562.980469 408.265625 C 561.929688 409.546875 560.910156 410.855469 559.921875 412.183594 C 558.9375 413.515625 557.980469 414.871094 557.0625 416.25 C 556.140625 417.625 555.253906 419.027344 554.402344 420.445312 C 553.550781 421.867188 552.734375 423.308594 551.953125 424.769531 C 551.171875 426.230469 550.425781 427.710938 549.71875 429.210938 C 549.011719 430.707031 548.339844 432.222656 547.707031 433.753906 C 547.070312 435.285156 546.476562 436.828125 545.917969 438.390625 C 545.359375 439.949219 544.839844 441.523438 544.359375 443.109375 C 543.878906 444.695312 543.4375 446.289062 543.035156 447.898438 C 542.628906 449.503906 542.265625 451.121094 541.945312 452.746094 C 541.621094 454.371094 541.335938 456.003906 541.09375 457.644531 C 540.851562 459.28125 540.648438 460.925781 540.488281 462.578125 C 540.324219 464.226562 540.203125 465.878906 540.121094 467.53125 C 540.039062 469.1875 540 470.84375 540 472.5 C 540 474.15625 540.039062 475.8125 540.121094 477.46875 C 540.203125 479.121094 540.324219 480.773438 540.488281 482.421875 C 540.648438 484.074219 540.851562 485.714844 541.09375 487.355469 C 541.335938 488.996094 541.621094 490.625 541.945312 492.253906 C 542.265625 493.875 542.628906 495.492188 543.035156 497.101562 C 543.4375 498.707031 543.878906 500.304688 544.359375 501.890625 C 544.839844 503.476562 545.359375 505.050781 545.917969 506.609375 C 546.476562 508.167969 547.070312 509.714844 547.707031 511.246094 C 548.339844 512.777344 549.011719 514.292969 549.71875 515.789062 C 550.425781 517.289062 551.171875 518.769531 551.953125 520.230469 C 552.734375 521.691406 553.550781 523.132812 554.402344 524.550781 C 555.253906 525.972656 556.140625 527.375 557.0625 528.75 C 557.984375 530.128906 558.9375 531.484375 559.921875 532.8125 C 560.910156 534.144531 561.929688 535.449219 562.980469 536.734375 C 564.03125 538.011719 565.113281 539.269531 566.226562 540.496094 C 567.339844 541.722656 568.480469 542.921875 569.652344 544.09375 C 570.824219 545.265625 572.023438 546.40625 573.253906 547.519531 C 574.480469 548.632812 575.734375 549.714844 577.015625 550.765625 C 578.296875 551.816406 579.601562 552.835938 580.933594 553.824219 C 582.265625 554.8125 583.617188 555.765625 584.996094 556.683594 C 586.375 557.605469 587.773438 558.492188 589.195312 559.34375 C 590.617188 560.195312 592.058594 561.011719 593.519531 561.792969 C 594.980469 562.574219 596.460938 563.320312 597.957031 564.027344 C 599.457031 564.738281 600.96875 565.410156 602.5 566.042969 C 604.03125 566.675781 605.578125 567.273438 607.136719 567.832031 C 608.699219 568.390625 610.273438 568.910156 611.859375 569.390625 C 613.441406 569.871094 615.039062 570.3125 616.644531 570.714844 C 618.253906 571.117188 619.867188 571.480469 621.496094 571.804688 C 623.121094 572.128906 624.753906 572.410156 626.394531 572.65625 C 628.03125 572.898438 629.675781 573.101562 631.324219 573.261719 C 632.972656 573.425781 634.625 573.546875 636.28125 573.628906 C 637.9375 573.707031 639.59375 573.75 641.25 573.75 C 642.90625 573.75 644.5625 573.707031 646.21875 573.628906 C 647.871094 573.546875 649.523438 573.425781 651.171875 573.261719 C 652.824219 573.101562 654.464844 572.898438 656.105469 572.65625 C 657.742188 572.410156 659.375 572.128906 661 571.804688 C 662.625 571.480469 664.242188 571.117188 665.851562 570.714844 C 667.457031 570.3125 669.054688 569.871094 670.640625 569.390625 C 672.226562 568.910156 673.796875 568.390625 675.355469 567.832031 C 676.917969 567.273438 678.464844 566.675781 679.996094 566.042969 C 681.523438 565.410156 683.039062 564.738281 684.539062 564.027344 C 686.035156 563.320312 687.515625 562.574219 688.976562 561.792969 C 690.4375 561.011719 691.878906 560.195312 693.300781 559.34375 C 694.722656 558.492188 696.121094 557.605469 697.5 556.683594 C 698.875 555.765625 700.230469 554.8125 701.5625 553.824219 C 702.894531 552.835938 704.199219 551.816406 705.480469 550.765625 C 706.761719 549.714844 708.015625 548.632812 709.242188 547.519531 C 710.472656 546.40625 711.671875 545.265625 712.84375 544.09375 C 714.015625 542.921875 715.15625 541.722656 716.269531 540.496094 C 717.382812 539.265625 718.464844 538.011719 719.515625 536.730469 C 720.566406 535.449219 721.585938 534.144531 722.570312 532.8125 C 723.558594 531.484375 724.511719 530.128906 725.433594 528.75 C 726.351562 527.371094 727.238281 525.972656 728.089844 524.550781 C 728.945312 523.128906 729.761719 521.6875 730.542969 520.226562 C 731.324219 518.765625 732.066406 517.285156 732.777344 515.789062 C 733.484375 514.289062 734.15625 512.777344 734.789062 511.246094 C 735.425781 509.714844 736.023438 508.167969 736.578125 506.609375 C 737.136719 505.050781 737.65625 503.476562 738.140625 501.890625 C 738.621094 500.304688 739.0625 498.707031 739.464844 497.101562 C 739.867188 495.492188 740.230469 493.875 740.554688 492.253906 C 740.875 490.625 741.160156 488.996094 741.402344 487.355469 C 741.648438 485.714844 741.851562 484.074219 742.011719 482.421875 C 742.175781 480.773438 742.296875 479.121094 742.378906 477.46875 C 742.457031 475.8125 742.5 474.15625 742.5 472.5 C 742.5 470.84375 742.457031 469.1875 742.375 467.53125 C 742.296875 465.878906 742.171875 464.226562 742.011719 462.578125 C 741.847656 460.925781 741.644531 459.28125 741.402344 457.644531 C 741.160156 456.003906 740.875 454.371094 740.550781 452.746094 C 740.230469 451.121094 739.867188 449.503906 739.464844 447.898438 C 739.0625 446.289062 738.621094 444.695312 738.140625 443.109375 C 737.65625 441.523438 737.136719 439.949219 736.578125 438.390625 C 736.023438 436.828125 735.425781 435.285156 734.789062 433.753906 C 734.15625 432.222656 733.484375 430.707031 732.777344 429.210938 C 732.066406 427.710938 731.324219 426.230469 730.542969 424.769531 C 729.761719 423.308594 728.945312 421.867188 728.09375 420.445312 C 727.242188 419.027344 726.355469 417.625 725.433594 416.25 C 724.515625 414.871094 723.5625 413.515625 722.574219 412.183594 C 721.585938 410.855469 720.566406 409.546875 719.515625 408.265625 C 718.464844 406.988281 717.382812 405.730469 716.269531 404.503906 C 715.15625 403.277344 714.015625 402.078125 712.84375 400.90625 C 711.671875 399.734375 710.472656 398.589844 709.242188 397.476562 C 708.015625 396.363281 706.761719 395.285156 705.480469 394.230469 C 704.199219 393.179688 702.894531 392.160156 701.5625 391.175781 C 700.230469 390.1875 698.875 389.234375 697.5 388.3125 C 696.121094 387.390625 694.722656 386.503906 693.300781 385.652344 C 691.878906 384.800781 690.4375 383.984375 688.976562 383.203125 C 687.515625 382.421875 686.035156 381.679688 684.539062 380.96875 C 683.039062 380.261719 681.523438 379.589844 679.996094 378.957031 C 678.464844 378.324219 676.917969 377.726562 675.359375 377.167969 C 673.796875 376.609375 672.226562 376.089844 670.640625 375.609375 C 669.054688 375.128906 667.457031 374.6875 665.851562 374.285156 C 664.242188 373.878906 662.625 373.515625 661 373.195312 C 659.375 372.871094 657.742188 372.589844 656.105469 372.34375 C 654.464844 372.101562 652.824219 371.898438 651.171875 371.738281 C 649.523438 371.574219 647.871094 371.453125 646.21875 371.371094 C 644.5625 371.289062 642.90625 371.25 641.25 371.25 Z M 641.25 371.25 " fill-opacity="1" fill-rule="nonzero"/><path fill="#009688" d="M 573.75 472.5 L 540 472.5 L 540 607.5 L 573.75 607.5 Z M 573.75 472.5 " fill-opacity="1" fill-rule="nonzero"/><path fill="#009688" d="M 742.5 472.5 L 708.75 472.5 L 708.75 607.5 L 742.5 607.5 Z M 742.5 472.5 " fill-opacity="1" fill-rule="nonzero"/></svg>