<svg xmlns="http://www.w3.org/2000/svg" xmlns:xlink="http://www.w3.org/1999/xlink" width="1080" zoomAndPan="magnify" viewBox="0 0 810 809.999993" height="1080" preserveAspectRatio="xMidYMid meet" version="1.0"><path fill="#009688" d="M 726.074219 748.351562 C 741.148438 748.351562 753.300781 736.199219 753.300781 721.125 L 753.300781 300.375 C 753.300781 285.300781 741.148438 273.148438 726.074219 273.148438 L 83.925781 273.148438 C 68.851562 273.148438 56.699219 285.300781 56.699219 300.375 L 56.699219 721.125 C 56.699219 736.199219 68.851562 748.351562 83.925781 748.351562 Z M 510.300781 522.449219 L 510.300781 725.175781 L 299.699219 725.175781 L 299.699219 522.449219 Z M 299.699219 499.273438 L 299.699219 296.550781 L 510.300781 296.550781 L 510.300781 499.273438 Z M 726.074219 725.175781 L 533.476562 725.175781 L 533.476562 522.449219 L 730.125 522.449219 L 730.125 721.125 C 730.125 723.375 728.324219 725.175781 726.074219 725.175781 Z M 730.125 300.375 L 730.125 499.050781 L 533.476562 499.050781 L 533.476562 296.324219 L 726.074219 296.324219 C 728.324219 296.324219 730.125 298.125 730.125 300.375 Z M 83.925781 296.324219 L 276.523438 296.324219 L 276.523438 499.050781 L 79.875 499.050781 L 79.875 300.375 C 79.875 298.125 81.675781 296.324219 83.925781 296.324219 Z M 79.875 721.125 L 79.875 522.449219 L 276.523438 522.449219 L 276.523438 725.175781 L 83.925781 725.175781 C 81.675781 725.175781 79.875 723.375 79.875 721.125 Z M 79.875 721.125 " fill-opacity="1" fill-rule="nonzero"/><path fill="#009688" d="M 757.125 98.550781 L 720.449219 98.550781 L 720.449219 63.449219 C 720.449219 48.375 708.300781 36.226562 693.226562 36.226562 L 671.398438 36.226562 C 656.324219 36.226562 644.175781 48.375 644.175781 63.449219 L 644.175781 98.550781 L 581.625 98.550781 L 581.625 63.449219 C 581.625 48.375 569.476562 36.226562 554.398438 36.226562 L 532.574219 36.226562 C 517.5 36.226562 505.351562 48.375 505.351562 63.449219 L 505.351562 98.550781 L 442.800781 98.550781 L 442.800781 63.449219 C 442.800781 48.375 430.648438 36.226562 415.574219 36.226562 L 393.75 36.226562 C 378.675781 36.226562 366.523438 48.375 366.523438 63.449219 L 366.523438 98.550781 L 303.976562 98.550781 L 303.976562 63.449219 C 303.976562 48.375 291.824219 36.226562 276.75 36.226562 L 254.925781 36.226562 C 239.851562 36.226562 227.699219 48.375 227.699219 63.449219 L 227.699219 98.550781 L 165.601562 98.550781 L 165.601562 63.449219 C 165.601562 48.375 153.449219 36.226562 138.375 36.226562 L 116.773438 36.226562 C 101.699219 36.226562 89.550781 48.375 89.550781 63.449219 L 89.550781 98.550781 L 52.875 98.550781 C 29.25 98.550781 10.125 117.675781 10.125 141.300781 L 10.125 283.726562 C 10.125 290.023438 15.300781 295.199219 21.601562 295.199219 C 27.898438 295.199219 33.074219 290.023438 33.074219 283.726562 L 33.074219 246.601562 L 776.699219 246.601562 L 776.699219 576.898438 C 776.699219 583.199219 781.875 588.375 788.175781 588.375 C 794.476562 588.375 799.648438 583.199219 799.648438 576.898438 L 799.648438 141.300781 C 799.875 117.898438 780.75 98.550781 757.125 98.550781 Z M 667.574219 63.449219 C 667.574219 61.199219 669.375 59.398438 671.625 59.398438 L 693.449219 59.398438 C 695.699219 59.398438 697.5 61.199219 697.5 63.449219 L 697.5 157.050781 C 697.5 159.300781 695.699219 161.101562 693.449219 161.101562 L 671.625 161.101562 C 669.375 161.101562 667.574219 159.300781 667.574219 157.050781 Z M 528.75 63.449219 C 528.75 61.199219 530.550781 59.398438 532.800781 59.398438 L 554.625 59.398438 C 556.875 59.398438 558.675781 61.199219 558.675781 63.449219 L 558.675781 157.050781 C 558.675781 159.300781 556.875 161.101562 554.625 161.101562 L 532.800781 161.101562 C 530.550781 161.101562 528.75 159.300781 528.75 157.050781 Z M 390.148438 63.449219 C 390.148438 61.199219 391.949219 59.398438 394.199219 59.398438 L 416.023438 59.398438 C 418.273438 59.398438 420.074219 61.199219 420.074219 63.449219 L 420.074219 157.050781 C 420.074219 159.300781 418.273438 161.101562 416.023438 161.101562 L 394.199219 161.101562 C 391.949219 161.101562 390.148438 159.300781 390.148438 157.050781 Z M 251.324219 63.449219 C 251.324219 61.199219 253.125 59.398438 255.375 59.398438 L 277.199219 59.398438 C 279.449219 59.398438 281.25 61.199219 281.25 63.449219 L 281.25 157.050781 C 281.25 159.300781 279.449219 161.101562 277.199219 161.101562 L 255.375 161.101562 C 253.125 161.101562 251.324219 159.300781 251.324219 157.050781 Z M 112.726562 63.449219 C 112.726562 61.199219 114.523438 59.398438 116.773438 59.398438 L 138.601562 59.398438 C 140.851562 59.398438 142.648438 61.199219 142.648438 63.449219 L 142.648438 157.050781 C 142.648438 159.300781 140.851562 161.101562 138.601562 161.101562 L 116.773438 161.101562 C 114.523438 161.101562 112.726562 159.300781 112.726562 157.050781 Z M 33.074219 223.425781 L 33.074219 141.300781 C 33.074219 130.5 41.851562 121.726562 52.648438 121.726562 L 89.324219 121.726562 L 89.324219 156.824219 C 89.324219 171.898438 101.476562 184.050781 116.550781 184.050781 L 138.375 184.050781 C 153.449219 184.050781 165.601562 171.898438 165.601562 156.824219 L 165.601562 121.726562 L 228.148438 121.726562 L 228.148438 156.824219 C 228.148438 171.898438 240.300781 184.050781 255.375 184.050781 L 277.199219 184.050781 C 292.273438 184.050781 304.425781 171.898438 304.425781 156.824219 L 304.425781 121.726562 L 366.976562 121.726562 L 366.976562 156.824219 C 366.976562 171.898438 379.125 184.050781 394.199219 184.050781 L 416.023438 184.050781 C 431.101562 184.050781 443.25 171.898438 443.25 156.824219 L 443.25 121.726562 L 505.800781 121.726562 L 505.800781 156.824219 C 505.800781 171.898438 517.949219 184.050781 533.023438 184.050781 L 554.851562 184.050781 C 569.925781 184.050781 582.074219 171.898438 582.074219 156.824219 L 582.074219 121.726562 L 644.625 121.726562 L 644.625 156.824219 C 644.625 171.898438 656.773438 184.050781 671.851562 184.050781 L 693.675781 184.050781 C 708.75 184.050781 720.898438 171.898438 720.898438 156.824219 L 720.898438 121.726562 L 757.574219 121.726562 C 768.375 121.726562 777.148438 130.5 777.148438 141.300781 L 777.148438 223.425781 Z M 33.074219 223.425781 " fill-opacity="1" fill-rule="nonzero"/><path fill="#009688" d="M 788.398438 619.425781 C 782.101562 619.425781 776.925781 624.601562 776.925781 630.898438 L 776.925781 752.175781 C 776.925781 762.976562 768.148438 771.75 757.351562 771.75 L 52.875 771.75 C 42.074219 771.75 33.300781 762.976562 33.300781 752.175781 L 33.300781 337.726562 C 33.300781 331.425781 28.125 326.25 21.824219 326.25 C 15.523438 326.25 10.351562 331.425781 10.351562 337.726562 L 10.351562 752.175781 C 10.351562 775.800781 29.476562 794.925781 53.101562 794.925781 L 757.574219 794.925781 C 781.199219 794.925781 800.324219 775.800781 800.324219 752.175781 L 800.324219 630.898438 C 799.875 624.601562 794.699219 619.425781 788.398438 619.425781 Z M 788.398438 619.425781 " fill-opacity="1" fill-rule="nonzero"/><path fill="#009688" d="M 558.675781 394.648438 L 581.175781 416.476562 L 575.773438 447.300781 C 574.875 453.148438 576.449219 459 580.050781 463.5 C 583.875 468 589.5 470.699219 595.351562 470.699219 C 598.5 470.699219 601.875 469.800781 604.574219 468.449219 L 632.25 453.824219 L 659.925781 468.449219 C 662.851562 470.023438 666 470.699219 669.148438 470.699219 C 675 470.699219 680.625 468 684.449219 463.5 C 688.273438 459 689.851562 453.148438 688.726562 447.300781 L 683.324219 416.476562 L 705.824219 394.648438 C 711.226562 389.25 713.25 381.375 710.773438 374.175781 C 708.300781 366.976562 702.226562 361.574219 694.574219 360.449219 L 663.523438 355.949219 L 649.574219 327.824219 C 646.199219 320.851562 639.226562 316.574219 631.574219 316.574219 C 623.925781 316.574219 616.949219 320.851562 613.574219 327.824219 L 599.625 355.949219 L 568.574219 360.449219 C 560.925781 361.574219 554.851562 366.75 552.375 374.175781 C 551.25 381.601562 553.050781 389.25 558.675781 394.648438 Z M 605.699219 378.675781 C 612.226562 377.773438 617.851562 373.726562 620.773438 367.648438 L 632.476562 343.800781 L 644.175781 367.648438 C 647.101562 373.5 652.726562 377.550781 659.25 378.675781 L 685.800781 382.5 L 666.675781 401.175781 C 661.949219 405.675781 659.699219 412.425781 660.824219 418.949219 L 665.324219 445.273438 L 641.699219 432.898438 C 638.773438 431.324219 635.625 430.648438 632.476562 430.648438 C 629.324219 430.648438 625.949219 431.550781 623.25 432.898438 L 599.625 445.273438 L 604.125 418.949219 C 605.25 412.425781 603 405.898438 598.273438 401.175781 L 579.375 382.5 Z M 605.699219 378.675781 " fill-opacity="1" fill-rule="nonzero"/></svg>