<svg xmlns="http://www.w3.org/2000/svg" xmlns:xlink="http://www.w3.org/1999/xlink" width="1080" zoomAndPan="magnify" viewBox="0 0 810 809.999993" height="1080" preserveAspectRatio="xMidYMid meet" version="1.0"><path fill="#009688" d="M 641.25 489.375 C 641.253906 487.621094 641.214844 485.871094 641.140625 484.121094 C 641.0625 482.371094 640.945312 480.625 640.792969 478.878906 C 640.636719 477.132812 640.445312 475.394531 640.214844 473.65625 C 639.984375 471.921875 639.714844 470.191406 639.410156 468.464844 C 639.097656 466.742188 638.753906 465.023438 638.371094 463.3125 C 637.984375 461.605469 637.5625 459.90625 637.101562 458.214844 C 636.644531 456.523438 636.144531 454.84375 635.613281 453.175781 C 635.074219 451.507812 634.503906 449.855469 633.894531 448.210938 C 633.285156 446.566406 632.640625 444.941406 631.960938 443.324219 C 631.28125 441.710938 630.566406 440.113281 629.8125 438.53125 C 629.058594 436.949219 628.273438 435.382812 627.449219 433.835938 C 626.628906 432.289062 625.773438 430.761719 624.882812 429.253906 C 623.992188 427.742188 623.070312 426.253906 622.109375 424.785156 C 621.15625 423.316406 620.171875 421.871094 619.152344 420.449219 C 618.128906 419.023438 617.078125 417.625 615.996094 416.246094 C 614.910156 414.871094 613.800781 413.515625 612.65625 412.191406 C 611.515625 410.863281 610.339844 409.558594 609.140625 408.285156 C 607.9375 407.007812 606.710938 405.761719 605.457031 404.539062 C 604.199219 403.316406 602.917969 402.125 601.605469 400.960938 C 600.296875 399.796875 598.964844 398.664062 597.605469 397.558594 C 596.242188 396.453125 594.859375 395.378906 593.445312 394.335938 C 592.039062 393.292969 590.613281 392.285156 589.160156 391.304688 C 587.707031 390.324219 586.234375 389.378906 584.738281 388.464844 C 583.246094 387.550781 581.730469 386.671875 580.199219 385.824219 C 578.664062 384.976562 577.113281 384.164062 575.542969 383.386719 C 573.972656 382.609375 572.386719 381.867188 570.78125 381.160156 C 569.175781 380.453125 567.558594 379.785156 565.925781 379.148438 C 564.292969 378.515625 562.648438 377.917969 560.988281 377.355469 C 559.328125 376.792969 557.65625 376.269531 555.976562 375.78125 C 554.292969 375.296875 552.597656 374.84375 550.898438 374.433594 C 549.195312 374.023438 547.484375 373.648438 545.761719 373.3125 C 544.042969 372.976562 542.320312 372.679688 540.585938 372.421875 C 538.851562 372.160156 537.113281 371.941406 535.371094 371.757812 C 533.628906 371.578125 531.882812 371.433594 530.136719 371.332031 C 528.386719 371.226562 526.636719 371.160156 524.882812 371.136719 C 523.132812 371.109375 521.382812 371.121094 519.632812 371.175781 C 517.878906 371.226562 516.132812 371.316406 514.382812 371.445312 C 512.636719 371.574219 510.894531 371.742188 509.15625 371.953125 C 507.414062 372.160156 505.679688 372.402344 503.949219 372.6875 C 502.222656 372.972656 500.5 373.296875 498.789062 373.65625 C 497.074219 374.019531 495.367188 374.417969 493.667969 374.851562 C 491.972656 375.289062 490.289062 375.765625 488.613281 376.277344 C 486.9375 376.789062 485.277344 377.335938 483.625 377.921875 C 481.972656 378.507812 480.332031 379.128906 478.710938 379.789062 C 477.089844 380.449219 475.484375 381.144531 473.890625 381.875 C 472.296875 382.601562 470.722656 383.367188 469.164062 384.167969 C 467.605469 384.96875 466.066406 385.804688 464.542969 386.671875 C 463.023438 387.542969 461.523438 388.445312 460.042969 389.378906 C 458.558594 390.316406 457.097656 391.285156 455.65625 392.285156 C 454.21875 393.285156 452.804688 394.316406 451.414062 395.378906 C 450.023438 396.445312 448.652344 397.539062 447.308594 398.660156 C 445.964844 399.785156 444.648438 400.941406 443.359375 402.125 C 442.066406 403.304688 440.800781 404.515625 439.5625 405.757812 C 438.324219 406.996094 437.113281 408.261719 435.933594 409.554688 C 434.75 410.847656 433.597656 412.167969 432.476562 413.511719 C 431.351562 414.855469 430.257812 416.222656 429.195312 417.617188 C 428.136719 419.011719 427.101562 420.425781 426.101562 421.863281 C 425.101562 423.304688 424.136719 424.765625 423.203125 426.246094 C 422.265625 427.730469 421.367188 429.230469 420.5 430.753906 C 419.632812 432.273438 418.800781 433.816406 418 435.375 C 417.199219 436.933594 416.433594 438.507812 415.707031 440.101562 C 414.976562 441.695312 414.285156 443.304688 413.628906 444.929688 C 412.972656 446.550781 412.351562 448.1875 411.765625 449.839844 C 411.183594 451.492188 410.636719 453.15625 410.125 454.832031 C 409.613281 456.507812 409.140625 458.195312 408.707031 459.890625 C 408.269531 461.589844 407.875 463.292969 407.511719 465.007812 C 407.152344 466.722656 406.832031 468.445312 406.546875 470.175781 C 406.265625 471.902344 406.023438 473.636719 405.816406 475.378906 C 405.609375 477.117188 405.441406 478.859375 405.316406 480.605469 C 405.183594 482.355469 405.097656 484.105469 405.046875 485.855469 C 404.996094 487.605469 404.984375 489.359375 405.011719 491.109375 C 405.042969 492.859375 405.109375 494.609375 405.214844 496.359375 C 405.320312 498.109375 405.464844 499.855469 405.648438 501.597656 C 405.832031 503.339844 406.050781 505.074219 406.3125 506.808594 C 406.574219 508.539062 406.875 510.265625 407.210938 511.984375 C 407.546875 513.703125 407.921875 515.414062 408.335938 517.117188 C 408.75 518.820312 409.199219 520.511719 409.6875 522.195312 C 410.175781 523.875 410.703125 525.546875 411.265625 527.207031 C 411.828125 528.867188 412.429688 530.511719 413.066406 532.144531 C 413.699219 533.777344 414.371094 535.394531 415.082031 536.996094 C 415.789062 538.597656 416.535156 540.183594 417.308594 541.753906 C 418.085938 543.324219 418.902344 544.875 419.75 546.40625 C 420.59375 547.941406 421.476562 549.453125 422.390625 550.949219 C 423.308594 552.441406 424.257812 553.914062 425.238281 555.367188 C 426.21875 556.816406 427.230469 558.246094 428.273438 559.652344 C 429.320312 561.058594 430.394531 562.445312 431.5 563.800781 C 432.605469 565.160156 433.742188 566.496094 434.902344 567.804688 C 436.066406 569.113281 437.261719 570.394531 438.488281 571.648438 C 439.707031 572.902344 440.957031 574.128906 442.234375 575.328125 C 443.511719 576.53125 444.8125 577.699219 446.140625 578.84375 C 447.46875 579.984375 448.820312 581.09375 450.199219 582.175781 C 451.578125 583.257812 452.980469 584.308594 454.40625 585.328125 C 455.832031 586.347656 457.277344 587.332031 458.746094 588.289062 C 460.214844 589.242188 461.707031 590.164062 463.214844 591.054688 C 464.726562 591.941406 466.253906 592.796875 467.800781 593.617188 C 469.351562 594.4375 470.914062 595.222656 472.5 595.972656 L 472.5 729.828125 C 472.5 730.488281 472.550781 731.140625 472.652344 731.792969 C 472.753906 732.445312 472.90625 733.085938 473.113281 733.714844 C 473.316406 734.339844 473.566406 734.949219 473.863281 735.539062 C 474.164062 736.128906 474.503906 736.6875 474.890625 737.222656 C 475.277344 737.757812 475.703125 738.261719 476.167969 738.730469 C 476.628906 739.199219 477.128906 739.628906 477.660156 740.019531 C 478.191406 740.410156 478.746094 740.757812 479.335938 741.0625 C 479.921875 741.367188 480.53125 741.621094 481.15625 741.832031 C 481.78125 742.039062 482.421875 742.199219 483.070312 742.304688 C 483.71875 742.414062 484.375 742.472656 485.035156 742.480469 C 485.695312 742.484375 486.351562 742.441406 487.007812 742.34375 C 487.660156 742.246094 488.300781 742.101562 488.929688 741.90625 C 489.558594 741.707031 490.171875 741.464844 490.761719 741.171875 C 491.351562 740.878906 491.917969 740.542969 492.457031 740.164062 C 492.996094 739.78125 493.5 739.363281 493.972656 738.902344 C 494.445312 738.441406 494.882812 737.949219 495.28125 737.421875 L 523.125 700.296875 L 550.96875 737.421875 C 551.558594 738.207031 552.230469 738.914062 552.984375 739.542969 C 553.738281 740.171875 554.554688 740.707031 555.433594 741.144531 C 556.308594 741.582031 557.226562 741.914062 558.183594 742.140625 C 559.140625 742.367188 560.109375 742.480469 561.09375 742.484375 C 562.464844 742.488281 563.796875 742.269531 565.09375 741.824219 C 565.71875 741.617188 566.324219 741.359375 566.910156 741.058594 C 567.496094 740.753906 568.054688 740.40625 568.585938 740.015625 C 569.117188 739.625 569.617188 739.195312 570.078125 738.726562 C 570.542969 738.257812 570.972656 737.757812 571.355469 737.222656 C 571.742188 736.6875 572.082031 736.125 572.382812 735.535156 C 572.679688 734.949219 572.929688 734.339844 573.132812 733.710938 C 573.339844 733.085938 573.492188 732.445312 573.59375 731.792969 C 573.699219 731.144531 573.75 730.488281 573.75 729.828125 L 573.75 595.972656 C 576.257812 594.785156 578.722656 593.511719 581.140625 592.152344 C 583.558594 590.792969 585.925781 589.347656 588.238281 587.820312 C 590.558594 586.289062 592.816406 584.683594 595.015625 582.996094 C 597.21875 581.308594 599.359375 579.546875 601.4375 577.707031 C 603.515625 575.867188 605.527344 573.960938 607.472656 571.980469 C 609.414062 570 611.289062 567.953125 613.085938 565.839844 C 614.886719 563.726562 616.609375 561.554688 618.253906 559.320312 C 619.902344 557.089844 621.464844 554.800781 622.949219 552.457031 C 624.433594 550.113281 625.835938 547.71875 627.152344 545.277344 C 628.46875 542.832031 629.695312 540.347656 630.835938 537.816406 C 631.972656 535.289062 633.023438 532.71875 633.984375 530.117188 C 634.941406 527.515625 635.804688 524.878906 636.574219 522.214844 C 637.351562 519.550781 638.03125 516.863281 638.613281 514.148438 C 639.195312 511.4375 639.683594 508.707031 640.074219 505.960938 C 640.46875 503.214844 640.757812 500.457031 640.957031 497.6875 C 641.152344 494.921875 641.253906 492.148438 641.25 489.375 Z M 641.25 489.375 " fill-opacity="1" fill-rule="nonzero"/><path fill="#009688" d="M 725.625 67.5 L 84.375 67.5 C 83.824219 67.5 83.269531 67.527344 82.722656 67.582031 C 82.171875 67.636719 81.621094 67.71875 81.082031 67.824219 C 80.542969 67.933594 80.007812 68.066406 79.480469 68.226562 C 78.953125 68.386719 78.429688 68.574219 77.917969 68.785156 C 77.410156 68.996094 76.910156 69.230469 76.421875 69.492188 C 75.933594 69.753906 75.460938 70.039062 75 70.34375 C 74.539062 70.652344 74.097656 70.980469 73.671875 71.332031 C 73.242188 71.683594 72.832031 72.050781 72.445312 72.441406 C 72.054688 72.832031 71.683594 73.242188 71.332031 73.667969 C 70.980469 74.097656 70.648438 74.539062 70.34375 75 C 70.035156 75.460938 69.753906 75.933594 69.492188 76.421875 C 69.230469 76.90625 68.996094 77.40625 68.785156 77.917969 C 68.574219 78.429688 68.390625 78.949219 68.226562 79.476562 C 68.066406 80.007812 67.929688 80.542969 67.820312 81.082031 C 67.714844 81.625 67.636719 82.171875 67.582031 82.722656 C 67.527344 83.269531 67.503906 83.824219 67.5 84.375 L 67.5 624.375 C 67.503906 624.925781 67.527344 625.480469 67.582031 626.027344 C 67.636719 626.578125 67.714844 627.125 67.820312 627.667969 C 67.929688 628.207031 68.066406 628.742188 68.226562 629.273438 C 68.386719 629.800781 68.570312 630.320312 68.78125 630.832031 C 68.992188 631.34375 69.226562 631.839844 69.488281 632.328125 C 69.75 632.816406 70.03125 633.289062 70.339844 633.75 C 70.644531 634.207031 70.976562 634.652344 71.328125 635.078125 C 71.679688 635.507812 72.050781 635.917969 72.441406 636.304688 C 72.832031 636.699219 73.242188 637.070312 73.667969 637.417969 C 74.097656 637.769531 74.539062 638.097656 75 638.40625 C 75.457031 638.710938 75.929688 638.996094 76.417969 639.257812 C 76.90625 639.515625 77.402344 639.753906 77.914062 639.964844 C 78.425781 640.175781 78.945312 640.363281 79.476562 640.523438 C 80.003906 640.683594 80.539062 640.816406 81.078125 640.925781 C 81.621094 641.03125 82.171875 641.113281 82.722656 641.167969 C 83.269531 641.222656 83.824219 641.25 84.375 641.25 L 388.125 641.25 C 388.679688 641.25 389.230469 641.222656 389.78125 641.167969 C 390.328125 641.113281 390.875 641.03125 391.417969 640.925781 C 391.957031 640.816406 392.492188 640.683594 393.023438 640.523438 C 393.554688 640.363281 394.070312 640.175781 394.582031 639.964844 C 395.09375 639.753906 395.59375 639.515625 396.082031 639.257812 C 396.566406 638.996094 397.039062 638.710938 397.496094 638.40625 C 397.957031 638.097656 398.402344 637.769531 398.832031 637.417969 C 399.257812 637.070312 399.667969 636.699219 400.054688 636.304688 C 400.449219 635.917969 400.816406 635.507812 401.171875 635.078125 C 401.519531 634.652344 401.847656 634.210938 402.15625 633.75 C 402.460938 633.289062 402.746094 632.816406 403.007812 632.328125 C 403.269531 631.84375 403.503906 631.34375 403.714844 630.832031 C 403.925781 630.320312 404.113281 629.800781 404.273438 629.273438 C 404.429688 628.746094 404.566406 628.210938 404.671875 627.667969 C 404.78125 627.125 404.863281 626.578125 404.917969 626.027344 C 404.972656 625.480469 405 624.925781 405 624.375 C 405 623.824219 404.972656 623.269531 404.917969 622.71875 C 404.863281 622.171875 404.78125 621.625 404.671875 621.082031 C 404.566406 620.539062 404.429688 620.003906 404.273438 619.476562 C 404.113281 618.949219 403.925781 618.425781 403.714844 617.917969 C 403.503906 617.40625 403.269531 616.90625 403.007812 616.421875 C 402.746094 615.933594 402.460938 615.460938 402.15625 615 C 401.847656 614.539062 401.519531 614.097656 401.171875 613.671875 C 400.816406 613.242188 400.449219 612.832031 400.054688 612.441406 C 399.667969 612.050781 399.257812 611.679688 398.832031 611.328125 C 398.402344 610.980469 397.957031 610.652344 397.496094 610.34375 C 397.039062 610.035156 396.566406 609.753906 396.082031 609.492188 C 395.59375 609.230469 395.09375 608.996094 394.582031 608.785156 C 394.070312 608.574219 393.554688 608.386719 393.023438 608.226562 C 392.492188 608.066406 391.957031 607.933594 391.417969 607.824219 C 390.875 607.71875 390.328125 607.636719 389.777344 607.582031 C 389.230469 607.527344 388.679688 607.5 388.125 607.5 L 101.25 607.5 L 101.25 101.25 L 708.75 101.25 L 708.75 607.5 L 658.125 607.5 C 657.574219 607.5 657.019531 607.527344 656.472656 607.582031 C 655.921875 607.636719 655.371094 607.714844 654.828125 607.824219 C 654.289062 607.933594 653.753906 608.066406 653.222656 608.226562 C 652.695312 608.386719 652.175781 608.574219 651.664062 608.785156 C 651.15625 608.996094 650.65625 609.230469 650.171875 609.492188 C 649.683594 609.753906 649.210938 610.035156 648.75 610.34375 C 648.289062 610.652344 647.847656 610.980469 647.417969 611.328125 C 646.992188 611.679688 646.585938 612.050781 646.191406 612.441406 C 645.800781 612.832031 645.429688 613.242188 645.082031 613.671875 C 644.730469 614.097656 644.398438 614.539062 644.09375 615 C 643.785156 615.460938 643.5 615.933594 643.238281 616.421875 C 642.980469 616.90625 642.742188 617.40625 642.53125 617.917969 C 642.320312 618.425781 642.136719 618.949219 641.976562 619.476562 C 641.816406 620.003906 641.679688 620.539062 641.570312 621.082031 C 641.464844 621.625 641.382812 622.171875 641.332031 622.71875 C 641.277344 623.269531 641.25 623.824219 641.25 624.375 C 641.25 624.925781 641.277344 625.480469 641.332031 626.027344 C 641.382812 626.578125 641.464844 627.125 641.570312 627.667969 C 641.679688 628.207031 641.816406 628.742188 641.976562 629.273438 C 642.136719 629.800781 642.320312 630.320312 642.535156 630.832031 C 642.746094 631.34375 642.980469 631.839844 643.242188 632.328125 C 643.503906 632.816406 643.785156 633.289062 644.09375 633.75 C 644.398438 634.207031 644.730469 634.652344 645.082031 635.078125 C 645.429688 635.507812 645.800781 635.917969 646.191406 636.304688 C 646.585938 636.699219 646.992188 637.070312 647.417969 637.417969 C 647.847656 637.769531 648.289062 638.097656 648.75 638.40625 C 649.210938 638.710938 649.683594 638.996094 650.171875 639.257812 C 650.65625 639.515625 651.15625 639.753906 651.664062 639.964844 C 652.175781 640.175781 652.695312 640.363281 653.222656 640.523438 C 653.753906 640.683594 654.289062 640.816406 654.828125 640.925781 C 655.371094 641.03125 655.921875 641.113281 656.472656 641.167969 C 657.019531 641.222656 657.574219 641.25 658.125 641.25 L 725.625 641.25 C 726.179688 641.25 726.730469 641.222656 727.277344 641.167969 C 727.828125 641.113281 728.375 641.03125 728.917969 640.925781 C 729.460938 640.816406 729.996094 640.683594 730.523438 640.523438 C 731.054688 640.363281 731.570312 640.175781 732.082031 639.964844 C 732.59375 639.753906 733.09375 639.515625 733.582031 639.257812 C 734.070312 638.996094 734.539062 638.710938 734.996094 638.40625 C 735.457031 638.097656 735.902344 637.769531 736.328125 637.417969 C 736.757812 637.070312 737.167969 636.699219 737.554688 636.304688 C 737.949219 635.917969 738.316406 635.507812 738.671875 635.078125 C 739.019531 634.652344 739.347656 634.210938 739.65625 633.75 C 739.960938 633.289062 740.246094 632.816406 740.507812 632.328125 C 740.769531 631.84375 741.003906 631.34375 741.210938 630.832031 C 741.425781 630.320312 741.613281 629.800781 741.773438 629.273438 C 741.933594 628.746094 742.066406 628.210938 742.175781 627.667969 C 742.285156 627.125 742.363281 626.578125 742.417969 626.027344 C 742.472656 625.480469 742.5 624.925781 742.5 624.375 L 742.5 84.375 C 742.5 83.824219 742.472656 83.269531 742.417969 82.722656 C 742.363281 82.171875 742.285156 81.625 742.175781 81.082031 C 742.066406 80.539062 741.933594 80.003906 741.773438 79.476562 C 741.613281 78.949219 741.425781 78.429688 741.210938 77.917969 C 741.003906 77.40625 740.769531 76.90625 740.507812 76.417969 C 740.246094 75.933594 739.960938 75.457031 739.65625 75 C 739.347656 74.539062 739.019531 74.097656 738.667969 73.667969 C 738.316406 73.242188 737.949219 72.832031 737.554688 72.441406 C 737.167969 72.050781 736.757812 71.679688 736.332031 71.328125 C 735.902344 70.980469 735.457031 70.652344 734.996094 70.34375 C 734.539062 70.039062 734.070312 69.753906 733.582031 69.492188 C 733.09375 69.230469 732.59375 68.996094 732.082031 68.785156 C 731.570312 68.574219 731.054688 68.386719 730.523438 68.226562 C 729.996094 68.066406 729.460938 67.933594 728.917969 67.824219 C 728.375 67.71875 727.828125 67.636719 727.277344 67.582031 C 726.730469 67.527344 726.179688 67.5 725.625 67.5 Z M 725.625 67.5 " fill-opacity="1" fill-rule="nonzero"/><path fill="#009688" d="M 641.25 286.875 C 641.25 286.324219 641.222656 285.769531 641.167969 285.222656 C 641.113281 284.671875 641.03125 284.125 640.921875 283.582031 C 640.816406 283.039062 640.683594 282.503906 640.523438 281.976562 C 640.363281 281.445312 640.175781 280.925781 639.964844 280.417969 C 639.753906 279.90625 639.519531 279.40625 639.257812 278.917969 C 638.996094 278.433594 638.710938 277.957031 638.40625 277.5 C 638.097656 277.039062 637.769531 276.597656 637.421875 276.167969 C 637.066406 275.742188 636.699219 275.332031 636.304688 274.941406 C 635.917969 274.550781 635.507812 274.179688 635.082031 273.832031 C 634.652344 273.480469 634.210938 273.152344 633.746094 272.84375 C 633.289062 272.535156 632.820312 272.253906 632.332031 271.992188 C 631.84375 271.730469 631.34375 271.496094 630.832031 271.285156 C 630.320312 271.074219 629.800781 270.886719 629.269531 270.726562 C 628.742188 270.566406 628.207031 270.429688 627.664062 270.324219 C 627.121094 270.214844 626.578125 270.136719 626.027344 270.082031 C 625.480469 270.027344 624.929688 270 624.375 270 L 185.625 270 C 185.074219 270 184.519531 270.027344 183.972656 270.082031 C 183.421875 270.136719 182.871094 270.214844 182.328125 270.324219 C 181.789062 270.429688 181.257812 270.566406 180.726562 270.726562 C 180.195312 270.886719 179.679688 271.074219 179.164062 271.285156 C 178.65625 271.496094 178.15625 271.730469 177.667969 271.992188 C 177.179688 272.253906 176.703125 272.535156 176.242188 272.84375 C 175.785156 273.152344 175.347656 273.480469 174.917969 273.832031 C 174.492188 274.179688 174.082031 274.550781 173.691406 274.941406 C 173.300781 275.332031 172.929688 275.742188 172.578125 276.167969 C 172.226562 276.597656 171.898438 277.039062 171.589844 277.5 C 171.28125 277.957031 171 278.433594 170.738281 278.921875 C 170.476562 279.40625 170.242188 279.90625 170.03125 280.417969 C 169.820312 280.925781 169.636719 281.445312 169.476562 281.976562 C 169.316406 282.503906 169.183594 283.039062 169.074219 283.582031 C 168.964844 284.125 168.886719 284.671875 168.832031 285.222656 C 168.777344 285.769531 168.75 286.324219 168.75 286.875 C 168.75 287.429688 168.777344 287.980469 168.832031 288.53125 C 168.886719 289.078125 168.964844 289.625 169.074219 290.167969 C 169.183594 290.707031 169.316406 291.242188 169.476562 291.773438 C 169.636719 292.300781 169.820312 292.820312 170.035156 293.332031 C 170.246094 293.84375 170.480469 294.34375 170.738281 294.828125 C 171 295.316406 171.285156 295.789062 171.589844 296.25 C 171.898438 296.710938 172.226562 297.152344 172.578125 297.578125 C 172.929688 298.007812 173.300781 298.417969 173.691406 298.808594 C 174.082031 299.199219 174.492188 299.570312 174.917969 299.917969 C 175.347656 300.269531 175.785156 300.597656 176.242188 300.90625 C 176.703125 301.210938 177.179688 301.496094 177.667969 301.757812 C 178.15625 302.019531 178.65625 302.253906 179.164062 302.464844 C 179.679688 302.675781 180.195312 302.863281 180.726562 303.023438 C 181.257812 303.183594 181.789062 303.316406 182.328125 303.425781 C 182.871094 303.535156 183.421875 303.613281 183.972656 303.667969 C 184.519531 303.722656 185.074219 303.75 185.625 303.75 L 624.375 303.75 C 624.929688 303.75 625.480469 303.722656 626.027344 303.667969 C 626.578125 303.613281 627.121094 303.53125 627.664062 303.425781 C 628.207031 303.316406 628.742188 303.183594 629.273438 303.023438 C 629.804688 302.863281 630.320312 302.675781 630.832031 302.464844 C 631.34375 302.253906 631.84375 302.019531 632.332031 301.757812 C 632.820312 301.496094 633.289062 301.210938 633.746094 300.90625 C 634.210938 300.597656 634.652344 300.269531 635.082031 299.917969 C 635.507812 299.570312 635.917969 299.199219 636.304688 298.808594 C 636.699219 298.417969 637.066406 298.007812 637.421875 297.582031 C 637.769531 297.152344 638.097656 296.710938 638.40625 296.25 C 638.710938 295.789062 638.996094 295.316406 639.257812 294.828125 C 639.519531 294.34375 639.753906 293.84375 639.964844 293.332031 C 640.175781 292.820312 640.363281 292.300781 640.523438 291.773438 C 640.683594 291.242188 640.816406 290.707031 640.921875 290.167969 C 641.03125 289.625 641.113281 289.078125 641.167969 288.53125 C 641.222656 287.980469 641.25 287.429688 641.25 286.875 Z M 641.25 286.875 " fill-opacity="1" fill-rule="nonzero"/><path fill="#009688" d="M 185.625 202.5 L 421.875 202.5 C 422.429688 202.5 422.980469 202.472656 423.527344 202.417969 C 424.078125 202.363281 424.621094 202.285156 425.164062 202.175781 C 425.707031 202.066406 426.242188 201.933594 426.769531 201.773438 C 427.296875 201.613281 427.820312 201.425781 428.328125 201.214844 C 428.839844 201.003906 429.339844 200.765625 429.828125 200.507812 C 430.316406 200.246094 430.789062 199.960938 431.246094 199.65625 C 431.707031 199.347656 432.152344 199.019531 432.578125 198.671875 C 433.007812 198.320312 433.417969 197.949219 433.804688 197.558594 C 434.199219 197.167969 434.566406 196.757812 434.921875 196.332031 C 435.269531 195.902344 435.597656 195.460938 435.902344 195 C 436.210938 194.539062 436.496094 194.066406 436.753906 193.578125 C 437.015625 193.089844 437.253906 192.59375 437.460938 192.082031 C 437.675781 191.570312 437.859375 191.050781 438.023438 190.523438 C 438.179688 189.992188 438.316406 189.457031 438.425781 188.917969 C 438.535156 188.375 438.613281 187.828125 438.667969 187.277344 C 438.722656 186.730469 438.75 186.175781 438.75 185.625 C 438.75 185.074219 438.722656 184.519531 438.667969 183.972656 C 438.613281 183.421875 438.535156 182.875 438.425781 182.332031 C 438.316406 181.789062 438.179688 181.253906 438.023438 180.726562 C 437.859375 180.199219 437.675781 179.675781 437.460938 179.167969 C 437.253906 178.65625 437.015625 178.15625 436.753906 177.671875 C 436.496094 177.183594 436.210938 176.710938 435.902344 176.25 C 435.597656 175.789062 435.269531 175.347656 434.921875 174.921875 C 434.566406 174.492188 434.199219 174.082031 433.804688 173.691406 C 433.417969 173.300781 433.007812 172.929688 432.578125 172.582031 C 432.152344 172.230469 431.707031 171.898438 431.246094 171.59375 C 430.789062 171.285156 430.316406 171.003906 429.828125 170.742188 C 429.339844 170.480469 428.839844 170.246094 428.328125 170.035156 C 427.820312 169.824219 427.300781 169.636719 426.769531 169.476562 C 426.242188 169.316406 425.707031 169.183594 425.164062 169.074219 C 424.621094 168.964844 424.078125 168.886719 423.527344 168.832031 C 422.980469 168.777344 422.429688 168.75 421.875 168.75 L 185.625 168.75 C 185.074219 168.75 184.519531 168.777344 183.972656 168.832031 C 183.421875 168.886719 182.871094 168.964844 182.328125 169.074219 C 181.789062 169.183594 181.257812 169.316406 180.726562 169.476562 C 180.195312 169.636719 179.679688 169.824219 179.164062 170.035156 C 178.65625 170.246094 178.15625 170.480469 177.667969 170.742188 C 177.179688 171.003906 176.703125 171.285156 176.242188 171.59375 C 175.785156 171.898438 175.347656 172.230469 174.917969 172.582031 C 174.492188 172.929688 174.082031 173.300781 173.691406 173.691406 C 173.300781 174.082031 172.929688 174.492188 172.578125 174.917969 C 172.226562 175.347656 171.898438 175.789062 171.589844 176.25 C 171.28125 176.710938 171 177.183594 170.738281 177.671875 C 170.476562 178.15625 170.242188 178.65625 170.03125 179.167969 C 169.820312 179.675781 169.636719 180.199219 169.476562 180.726562 C 169.316406 181.253906 169.183594 181.789062 169.074219 182.332031 C 168.964844 182.875 168.886719 183.421875 168.832031 183.972656 C 168.777344 184.519531 168.75 185.074219 168.75 185.625 C 168.75 186.175781 168.777344 186.730469 168.832031 187.277344 C 168.886719 187.828125 168.964844 188.375 169.074219 188.917969 C 169.183594 189.457031 169.316406 189.992188 169.476562 190.523438 C 169.636719 191.050781 169.820312 191.570312 170.035156 192.082031 C 170.246094 192.59375 170.480469 193.089844 170.738281 193.578125 C 171 194.066406 171.285156 194.539062 171.589844 195 C 171.898438 195.460938 172.226562 195.902344 172.578125 196.332031 C 172.929688 196.757812 173.300781 197.167969 173.691406 197.558594 C 174.082031 197.949219 174.492188 198.320312 174.917969 198.667969 C 175.347656 199.019531 175.785156 199.347656 176.242188 199.65625 C 176.703125 199.960938 177.179688 200.246094 177.667969 200.507812 C 178.15625 200.765625 178.65625 201.003906 179.164062 201.214844 C 179.679688 201.425781 180.195312 201.613281 180.726562 201.773438 C 181.257812 201.933594 181.789062 202.066406 182.328125 202.175781 C 182.871094 202.285156 183.421875 202.363281 183.972656 202.417969 C 184.519531 202.472656 185.074219 202.5 185.625 202.5 Z M 185.625 202.5 " fill-opacity="1" fill-rule="nonzero"/><path fill="#009688" d="M 320.625 405 L 185.625 405 C 185.074219 405 184.519531 405.027344 183.972656 405.082031 C 183.421875 405.136719 182.871094 405.214844 182.328125 405.324219 C 181.789062 405.433594 181.257812 405.566406 180.726562 405.726562 C 180.195312 405.886719 179.679688 406.074219 179.164062 406.285156 C 178.65625 406.496094 178.15625 406.730469 177.667969 406.992188 C 177.179688 407.253906 176.703125 407.535156 176.242188 407.84375 C 175.785156 408.152344 175.347656 408.480469 174.917969 408.828125 C 174.492188 409.179688 174.082031 409.550781 173.691406 409.941406 C 173.300781 410.332031 172.929688 410.742188 172.578125 411.167969 C 172.226562 411.597656 171.898438 412.039062 171.589844 412.5 C 171.28125 412.960938 171 413.433594 170.738281 413.921875 C 170.476562 414.40625 170.242188 414.90625 170.03125 415.417969 C 169.820312 415.929688 169.636719 416.449219 169.476562 416.976562 C 169.316406 417.503906 169.183594 418.039062 169.074219 418.582031 C 168.964844 419.125 168.886719 419.671875 168.832031 420.222656 C 168.777344 420.769531 168.75 421.324219 168.75 421.875 C 168.75 422.425781 168.777344 422.980469 168.832031 423.527344 C 168.886719 424.078125 168.964844 424.625 169.074219 425.164062 C 169.183594 425.707031 169.316406 426.242188 169.476562 426.773438 C 169.636719 427.300781 169.820312 427.820312 170.035156 428.332031 C 170.246094 428.84375 170.480469 429.339844 170.738281 429.828125 C 171 430.316406 171.285156 430.789062 171.589844 431.25 C 171.898438 431.710938 172.226562 432.152344 172.578125 432.578125 C 172.929688 433.007812 173.300781 433.417969 173.691406 433.808594 C 174.082031 434.199219 174.492188 434.570312 174.917969 434.917969 C 175.347656 435.269531 175.785156 435.597656 176.242188 435.90625 C 176.703125 436.210938 177.179688 436.496094 177.667969 436.757812 C 178.15625 437.019531 178.65625 437.253906 179.164062 437.464844 C 179.679688 437.675781 180.195312 437.863281 180.726562 438.023438 C 181.257812 438.183594 181.789062 438.316406 182.328125 438.425781 C 182.871094 438.53125 183.421875 438.613281 183.972656 438.667969 C 184.519531 438.722656 185.074219 438.75 185.625 438.75 L 320.625 438.75 C 321.175781 438.75 321.726562 438.722656 322.277344 438.667969 C 322.828125 438.613281 323.371094 438.53125 323.914062 438.425781 C 324.453125 438.316406 324.988281 438.183594 325.519531 438.023438 C 326.046875 437.863281 326.570312 437.675781 327.078125 437.464844 C 327.589844 437.253906 328.089844 437.019531 328.578125 436.757812 C 329.066406 436.496094 329.539062 436.210938 329.996094 435.90625 C 330.457031 435.597656 330.902344 435.269531 331.332031 434.917969 C 331.757812 434.570312 332.167969 434.199219 332.554688 433.808594 C 332.949219 433.417969 333.320312 433.007812 333.671875 432.578125 C 334.019531 432.152344 334.347656 431.710938 334.65625 431.25 C 334.960938 430.789062 335.246094 430.316406 335.507812 429.828125 C 335.769531 429.34375 336.003906 428.84375 336.210938 428.332031 C 336.425781 427.820312 336.613281 427.300781 336.769531 426.773438 C 336.933594 426.242188 337.070312 425.707031 337.175781 425.167969 C 337.285156 424.625 337.363281 424.078125 337.417969 423.527344 C 337.476562 422.980469 337.503906 422.425781 337.5 421.875 C 337.503906 421.324219 337.476562 420.769531 337.421875 420.222656 C 337.367188 419.671875 337.285156 419.125 337.175781 418.582031 C 337.070312 418.039062 336.933594 417.503906 336.773438 416.976562 C 336.613281 416.445312 336.425781 415.925781 336.210938 415.417969 C 336.003906 414.90625 335.769531 414.40625 335.507812 413.917969 C 335.246094 413.433594 334.960938 412.957031 334.65625 412.5 C 334.347656 412.039062 334.019531 411.597656 333.671875 411.167969 C 333.320312 410.742188 332.949219 410.332031 332.554688 409.941406 C 332.167969 409.550781 331.757812 409.179688 331.332031 408.828125 C 330.902344 408.480469 330.457031 408.152344 329.996094 407.84375 C 329.539062 407.535156 329.066406 407.253906 328.578125 406.992188 C 328.089844 406.730469 327.589844 406.496094 327.078125 406.285156 C 326.570312 406.074219 326.046875 405.886719 325.519531 405.726562 C 324.992188 405.566406 324.457031 405.433594 323.914062 405.324219 C 323.371094 405.214844 322.828125 405.136719 322.277344 405.082031 C 321.726562 405.027344 321.175781 405 320.625 405 Z M 320.625 405 " fill-opacity="1" fill-rule="nonzero"/><path fill="#009688" d="M 320.625 506.25 L 185.625 506.25 C 185.074219 506.25 184.519531 506.277344 183.972656 506.332031 C 183.421875 506.386719 182.871094 506.464844 182.328125 506.574219 C 181.789062 506.683594 181.257812 506.816406 180.726562 506.976562 C 180.195312 507.136719 179.679688 507.324219 179.164062 507.535156 C 178.65625 507.746094 178.15625 507.980469 177.667969 508.242188 C 177.179688 508.503906 176.703125 508.785156 176.242188 509.09375 C 175.785156 509.402344 175.347656 509.730469 174.917969 510.082031 C 174.492188 510.429688 174.082031 510.800781 173.691406 511.191406 C 173.300781 511.582031 172.929688 511.992188 172.578125 512.417969 C 172.226562 512.847656 171.898438 513.289062 171.589844 513.75 C 171.28125 514.207031 171 514.683594 170.738281 515.167969 C 170.476562 515.65625 170.242188 516.15625 170.03125 516.667969 C 169.820312 517.175781 169.636719 517.695312 169.476562 518.226562 C 169.316406 518.753906 169.183594 519.289062 169.074219 519.832031 C 168.964844 520.375 168.886719 520.921875 168.832031 521.472656 C 168.777344 522.023438 168.75 522.574219 168.75 523.125 C 168.75 523.679688 168.777344 524.230469 168.832031 524.777344 C 168.886719 525.328125 168.964844 525.875 169.074219 526.417969 C 169.183594 526.957031 169.316406 527.492188 169.476562 528.023438 C 169.636719 528.550781 169.820312 529.070312 170.035156 529.582031 C 170.246094 530.09375 170.480469 530.589844 170.738281 531.078125 C 171 531.566406 171.285156 532.039062 171.589844 532.5 C 171.898438 532.957031 172.226562 533.402344 172.578125 533.828125 C 172.929688 534.257812 173.300781 534.664062 173.691406 535.054688 C 174.082031 535.449219 174.492188 535.820312 174.917969 536.167969 C 175.347656 536.519531 175.785156 536.847656 176.242188 537.15625 C 176.703125 537.460938 177.179688 537.746094 177.667969 538.007812 C 178.15625 538.265625 178.65625 538.503906 179.164062 538.714844 C 179.679688 538.925781 180.195312 539.113281 180.726562 539.273438 C 181.257812 539.433594 181.789062 539.566406 182.328125 539.675781 C 182.871094 539.78125 183.421875 539.863281 183.972656 539.917969 C 184.519531 539.972656 185.074219 540 185.625 540 L 320.625 540 C 321.175781 540 321.726562 539.972656 322.277344 539.917969 C 322.828125 539.863281 323.371094 539.78125 323.914062 539.675781 C 324.453125 539.566406 324.988281 539.433594 325.519531 539.273438 C 326.046875 539.113281 326.570312 538.925781 327.078125 538.714844 C 327.589844 538.503906 328.089844 538.265625 328.578125 538.007812 C 329.066406 537.746094 329.539062 537.460938 329.996094 537.15625 C 330.457031 536.847656 330.902344 536.519531 331.332031 536.167969 C 331.757812 535.820312 332.167969 535.449219 332.554688 535.054688 C 332.949219 534.664062 333.320312 534.257812 333.671875 533.828125 C 334.019531 533.402344 334.347656 532.957031 334.65625 532.5 C 334.960938 532.039062 335.246094 531.566406 335.507812 531.078125 C 335.769531 530.589844 336.003906 530.09375 336.210938 529.582031 C 336.425781 529.070312 336.613281 528.550781 336.769531 528.023438 C 336.933594 527.492188 337.070312 526.957031 337.175781 526.417969 C 337.285156 525.875 337.363281 525.328125 337.417969 524.777344 C 337.476562 524.230469 337.503906 523.679688 337.5 523.125 C 337.503906 522.574219 337.476562 522.023438 337.421875 521.472656 C 337.367188 520.921875 337.285156 520.375 337.175781 519.832031 C 337.070312 519.289062 336.933594 518.753906 336.773438 518.226562 C 336.613281 517.699219 336.425781 517.175781 336.210938 516.667969 C 336.003906 516.15625 335.769531 515.65625 335.507812 515.167969 C 335.246094 514.683594 334.960938 514.210938 334.65625 513.75 C 334.347656 513.289062 334.019531 512.847656 333.671875 512.417969 C 333.320312 511.992188 332.949219 511.582031 332.554688 511.191406 C 332.167969 510.800781 331.757812 510.429688 331.332031 510.078125 C 330.902344 509.730469 330.457031 509.402344 329.996094 509.09375 C 329.539062 508.785156 329.066406 508.503906 328.578125 508.242188 C 328.089844 507.980469 327.589844 507.746094 327.078125 507.535156 C 326.570312 507.324219 326.046875 507.136719 325.519531 506.976562 C 324.992188 506.816406 324.457031 506.683594 323.914062 506.574219 C 323.371094 506.464844 322.828125 506.386719 322.277344 506.332031 C 321.726562 506.277344 321.175781 506.25 320.625 506.25 Z M 320.625 506.25 " fill-opacity="1" fill-rule="nonzero"/></svg>