<svg xmlns="http://www.w3.org/2000/svg" xmlns:xlink="http://www.w3.org/1999/xlink" width="1080" zoomAndPan="magnify" viewBox="0 0 810 809.999993" height="1080" preserveAspectRatio="xMidYMid meet" version="1.0"><path fill="#009688" d="M 780.074219 204.074219 L 230.851562 204.074219 C 223.425781 204.074219 217.351562 210.148438 217.351562 217.574219 C 217.351562 225 223.425781 231.074219 230.851562 231.074219 L 311.851562 231.074219 C 252.449219 268.875 216.675781 334.800781 217.574219 405.226562 C 216.898438 475.648438 252.449219 541.574219 311.851562 579.375 L 29.925781 579.375 L 29.925781 230.851562 L 163.800781 230.851562 C 171.226562 230.851562 177.300781 224.773438 177.300781 217.351562 C 177.300781 209.925781 171.226562 203.851562 163.800781 203.851562 L 29.925781 203.851562 C 15.074219 203.851562 3.148438 215.773438 3.148438 230.625 L 3.148438 578.925781 C 3.148438 593.773438 15.074219 605.699219 29.925781 605.699219 L 780.074219 605.699219 C 794.925781 605.699219 806.851562 593.773438 806.851562 578.925781 L 806.851562 230.851562 C 806.851562 216 794.925781 204.074219 780.074219 204.074219 Z M 244.351562 405 C 244.351562 308.925781 316.574219 230.851562 405 230.851562 C 493.425781 230.851562 565.648438 308.925781 565.648438 405 C 565.648438 501.074219 493.425781 579.148438 405 579.148438 C 316.574219 579.148438 244.351562 501.074219 244.351562 405 Z M 780.074219 579.148438 L 498.148438 579.148438 C 557.550781 541.351562 593.324219 475.425781 592.425781 405 C 593.101562 334.574219 557.550781 268.648438 498.148438 230.851562 L 780.074219 230.851562 Z M 780.074219 579.148438 " fill-opacity="1" fill-rule="nonzero"/><path fill="#009688" d="M 709.648438 59.625 C 703.351562 56.476562 695.925781 56.023438 689.175781 58.050781 L 400.5 154.800781 C 393.523438 157.050781 389.699219 164.699219 391.949219 171.675781 C 394.199219 178.648438 401.851562 182.476562 408.824219 180.226562 L 697.5 83.476562 L 727.199219 171.675781 C 728.773438 176.175781 732.601562 179.550781 737.324219 180.675781 C 742.050781 181.800781 746.773438 180 749.925781 176.398438 C 753.074219 172.800781 754.199219 167.851562 752.625 163.351562 L 722.925781 75.148438 C 720.898438 68.175781 715.949219 62.773438 709.648438 59.625 Z M 709.648438 59.625 " fill-opacity="1" fill-rule="nonzero"/><path fill="#009688" d="M 400.949219 629.773438 L 112.5 726.523438 L 82.800781 638.324219 C 80.550781 631.351562 72.898438 627.523438 65.925781 629.773438 C 58.949219 632.023438 55.125 639.675781 57.375 646.648438 L 86.851562 734.851562 C 89.101562 741.601562 93.824219 747.226562 100.351562 750.375 C 103.949219 752.175781 108.226562 753.074219 112.273438 753.300781 C 115.199219 753.300781 118.125 752.851562 120.824219 751.949219 L 409.5 655.199219 C 416.476562 652.949219 420.300781 645.300781 418.050781 638.324219 C 415.800781 631.351562 407.699219 627.523438 400.949219 629.773438 Z M 400.949219 629.773438 " fill-opacity="1" fill-rule="nonzero"/><path fill="#009688" d="M 445.273438 358.199219 C 445.273438 365.625 451.351562 371.699219 458.773438 371.699219 C 466.199219 371.699219 472.273438 365.625 472.273438 358.199219 C 470.925781 328.273438 448.425781 303.300781 418.726562 299.023438 L 418.726562 297.898438 C 418.726562 290.476562 412.648438 284.398438 405.226562 284.398438 C 397.800781 284.398438 391.726562 290.476562 391.726562 297.898438 L 391.726562 299.023438 C 362.023438 303.300781 339.523438 328.050781 338.175781 358.199219 C 339.523438 388.125 362.023438 413.101562 391.726562 417.375 L 391.726562 483.523438 C 376.875 480.148438 365.851562 467.324219 364.949219 452.023438 C 364.949219 444.601562 358.875 438.523438 351.449219 438.523438 C 344.023438 438.523438 337.949219 444.601562 337.949219 452.023438 C 339.300781 481.949219 361.800781 506.925781 391.5 511.199219 L 391.5 512.324219 C 391.5 519.75 397.574219 525.824219 405 525.824219 C 412.425781 525.824219 418.5 519.75 418.5 512.324219 L 418.5 511.199219 C 448.199219 506.925781 470.699219 482.175781 472.050781 452.023438 C 470.699219 422.101562 448.199219 397.125 418.5 392.851562 L 418.5 326.699219 C 433.351562 330.074219 444.148438 342.898438 445.273438 358.199219 Z M 364.726562 358.199219 C 365.625 342.898438 376.648438 330.074219 391.5 326.699219 L 391.5 389.476562 C 376.648438 386.101562 365.851562 373.5 364.726562 358.199219 Z M 445.273438 451.800781 C 444.375 467.101562 433.351562 479.925781 418.5 483.300781 L 418.5 420.523438 C 433.351562 423.898438 444.148438 436.726562 445.273438 451.800781 Z M 445.273438 451.800781 " fill-opacity="1" fill-rule="nonzero"/><path fill="#009688" d="M 686.25 552.375 L 739.800781 552.375 C 747.226562 552.375 753.300781 546.300781 753.300781 538.875 L 753.300781 485.324219 C 753.300781 477.898438 747.226562 471.824219 739.800781 471.824219 C 732.375 471.824219 726.300781 477.898438 726.300781 485.324219 L 726.300781 525.601562 L 686.25 525.601562 C 678.824219 525.601562 672.75 531.675781 672.75 539.101562 C 672.976562 546.300781 678.824219 552.375 686.25 552.375 Z M 686.25 552.375 " fill-opacity="1" fill-rule="nonzero"/><path fill="#009688" d="M 69.976562 472.050781 C 62.550781 472.050781 56.476562 478.125 56.476562 485.550781 L 56.476562 539.101562 C 56.476562 546.523438 62.550781 552.601562 69.976562 552.601562 L 123.75 552.601562 C 131.175781 552.601562 137.25 546.523438 137.25 539.101562 C 137.25 531.675781 131.175781 525.601562 123.75 525.601562 L 83.476562 525.601562 L 83.476562 485.324219 C 83.476562 477.898438 77.398438 472.050781 69.976562 472.050781 Z M 69.976562 472.050781 " fill-opacity="1" fill-rule="nonzero"/><path fill="#009688" d="M 123.75 257.625 L 69.976562 257.625 C 62.550781 257.625 56.476562 263.699219 56.476562 271.125 L 56.476562 324.675781 C 56.476562 332.101562 62.550781 338.175781 69.976562 338.175781 C 77.398438 338.175781 83.476562 332.101562 83.476562 324.675781 L 83.476562 284.398438 L 123.75 284.398438 C 131.175781 284.398438 137.25 278.324219 137.25 270.898438 C 137.25 263.476562 131.175781 257.625 123.75 257.625 Z M 123.75 257.625 " fill-opacity="1" fill-rule="nonzero"/><path fill="#009688" d="M 686.25 284.398438 L 726.523438 284.398438 L 726.523438 324.675781 C 726.523438 332.101562 732.601562 338.175781 740.023438 338.175781 C 747.449219 338.175781 753.523438 332.101562 753.523438 324.675781 L 753.523438 271.125 C 753.523438 263.699219 747.449219 257.625 740.023438 257.625 L 686.25 257.625 C 678.824219 257.625 672.75 263.699219 672.75 271.125 C 672.75 278.550781 678.824219 284.398438 686.25 284.398438 Z M 686.25 284.398438 " fill-opacity="1" fill-rule="nonzero"/></svg>