<svg xmlns="http://www.w3.org/2000/svg" xmlns:xlink="http://www.w3.org/1999/xlink" width="1080" zoomAndPan="magnify" viewBox="0 0 810 809.999993" height="1080" preserveAspectRatio="xMidYMid meet" version="1.0"><path fill="#009688" d="M 627.277344 135 L 101.25 135 C 100.144531 135 99.042969 135.054688 97.941406 135.164062 C 96.839844 135.269531 95.75 135.433594 94.664062 135.648438 C 93.582031 135.863281 92.511719 136.132812 91.453125 136.453125 C 90.394531 136.773438 89.355469 137.148438 88.335938 137.570312 C 87.3125 137.992188 86.316406 138.464844 85.339844 138.984375 C 84.367188 139.507812 83.417969 140.074219 82.5 140.6875 C 81.582031 141.300781 80.695312 141.960938 79.839844 142.660156 C 78.984375 143.363281 78.167969 144.105469 77.386719 144.886719 C 76.605469 145.667969 75.863281 146.484375 75.160156 147.339844 C 74.460938 148.195312 73.800781 149.082031 73.1875 150 C 72.574219 150.917969 72.003906 151.867188 71.484375 152.839844 C 70.964844 153.816406 70.492188 154.8125 70.070312 155.835938 C 69.648438 156.855469 69.273438 157.894531 68.953125 158.953125 C 68.632812 160.011719 68.363281 161.082031 68.148438 162.164062 C 67.929688 163.25 67.769531 164.34375 67.664062 165.441406 C 67.554688 166.542969 67.5 167.644531 67.5 168.75 L 67.5 472.5 C 67.5 473.605469 67.554688 474.707031 67.664062 475.808594 C 67.769531 476.90625 67.929688 478 68.144531 479.082031 C 68.359375 480.167969 68.628906 481.238281 68.953125 482.296875 C 69.273438 483.355469 69.644531 484.394531 70.066406 485.414062 C 70.488281 486.4375 70.960938 487.433594 71.484375 488.410156 C 72.003906 489.382812 72.570312 490.332031 73.183594 491.25 C 73.800781 492.167969 74.457031 493.054688 75.160156 493.910156 C 75.863281 494.765625 76.605469 495.582031 77.382812 496.363281 C 78.167969 497.148438 78.984375 497.886719 79.839844 498.589844 C 80.695312 499.289062 81.578125 499.949219 82.5 500.5625 C 83.417969 501.175781 84.363281 501.742188 85.339844 502.265625 C 86.3125 502.785156 87.3125 503.257812 88.332031 503.679688 C 89.355469 504.101562 90.394531 504.476562 91.453125 504.796875 C 92.511719 505.117188 93.582031 505.386719 94.664062 505.601562 C 95.75 505.816406 96.839844 505.980469 97.941406 506.085938 C 99.042969 506.195312 100.144531 506.25 101.25 506.25 L 135 506.25 C 135 507.355469 135.027344 508.457031 135.082031 509.5625 C 135.136719 510.664062 135.214844 511.765625 135.324219 512.867188 C 135.433594 513.964844 135.566406 515.0625 135.730469 516.152344 C 135.890625 517.246094 136.082031 518.335938 136.296875 519.417969 C 136.511719 520.5 136.753906 521.578125 137.019531 522.652344 C 137.289062 523.722656 137.585938 524.785156 137.90625 525.84375 C 138.226562 526.902344 138.570312 527.949219 138.945312 528.988281 C 139.316406 530.027344 139.710938 531.058594 140.136719 532.078125 C 140.558594 533.101562 141.003906 534.109375 141.476562 535.109375 C 141.949219 536.109375 142.445312 537.09375 142.96875 538.070312 C 143.488281 539.042969 144.03125 540.003906 144.601562 540.953125 C 145.167969 541.898438 145.757812 542.832031 146.371094 543.75 C 146.988281 544.667969 147.625 545.570312 148.28125 546.457031 C 148.941406 547.347656 149.621094 548.214844 150.320312 549.070312 C 151.023438 549.925781 151.742188 550.761719 152.484375 551.578125 C 153.226562 552.398438 153.988281 553.199219 154.769531 553.980469 C 155.550781 554.761719 156.351562 555.523438 157.167969 556.265625 C 157.988281 557.003906 158.824219 557.726562 159.679688 558.425781 C 160.53125 559.128906 161.402344 559.808594 162.289062 560.464844 C 163.175781 561.125 164.078125 561.761719 164.996094 562.375 C 165.914062 562.988281 166.847656 563.578125 167.796875 564.144531 C 168.742188 564.714844 169.703125 565.257812 170.679688 565.777344 C 171.652344 566.300781 172.640625 566.796875 173.636719 567.269531 C 174.636719 567.742188 175.644531 568.1875 176.667969 568.609375 C 177.6875 569.035156 178.71875 569.429688 179.757812 569.804688 C 180.796875 570.175781 181.847656 570.523438 182.90625 570.84375 C 183.960938 571.164062 185.027344 571.457031 186.097656 571.726562 C 187.167969 571.996094 188.246094 572.238281 189.328125 572.453125 C 190.414062 572.667969 191.503906 572.859375 192.59375 573.019531 C 193.6875 573.183594 194.785156 573.316406 195.882812 573.425781 C 196.984375 573.53125 198.085938 573.613281 199.1875 573.667969 C 200.292969 573.722656 201.394531 573.75 202.5 573.75 C 203.605469 573.75 204.710938 573.722656 205.8125 573.667969 C 206.914062 573.613281 208.015625 573.53125 209.117188 573.425781 C 210.214844 573.316406 211.3125 573.183594 212.402344 573.019531 C 213.496094 572.859375 214.585938 572.667969 215.667969 572.453125 C 216.75 572.238281 217.828125 571.996094 218.898438 571.726562 C 219.972656 571.457031 221.035156 571.164062 222.09375 570.84375 C 223.152344 570.523438 224.199219 570.175781 225.238281 569.804688 C 226.277344 569.429688 227.308594 569.035156 228.328125 568.609375 C 229.351562 568.1875 230.359375 567.742188 231.359375 567.269531 C 232.355469 566.796875 233.34375 566.300781 234.316406 565.777344 C 235.292969 565.257812 236.253906 564.714844 237.199219 564.144531 C 238.148438 563.578125 239.082031 562.988281 240 562.375 C 240.917969 561.761719 241.820312 561.125 242.707031 560.464844 C 243.597656 559.808594 244.46875 559.128906 245.320312 558.425781 C 246.175781 557.726562 247.011719 557.003906 247.832031 556.265625 C 248.648438 555.523438 249.449219 554.761719 250.230469 553.980469 C 251.011719 553.199219 251.773438 552.398438 252.515625 551.578125 C 253.257812 550.761719 253.976562 549.925781 254.679688 549.070312 C 255.378906 548.21875 256.058594 547.347656 256.714844 546.457031 C 257.375 545.570312 258.007812 544.667969 258.621094 543.75 C 259.234375 542.832031 259.828125 541.898438 260.394531 540.953125 C 260.964844 540.003906 261.507812 539.042969 262.027344 538.070312 C 262.550781 537.09375 263.046875 536.109375 263.515625 535.109375 C 263.988281 534.109375 264.4375 533.101562 264.859375 532.078125 C 265.285156 531.058594 265.679688 530.027344 266.054688 528.988281 C 266.425781 527.949219 266.773438 526.902344 267.09375 525.84375 C 267.414062 524.785156 267.707031 523.722656 267.976562 522.652344 C 268.242188 521.578125 268.484375 520.5 268.699219 519.417969 C 268.917969 518.335938 269.105469 517.246094 269.269531 516.152344 C 269.429688 515.0625 269.566406 513.964844 269.675781 512.867188 C 269.78125 511.765625 269.863281 510.664062 269.917969 509.5625 C 269.972656 508.457031 270 507.355469 270 506.25 L 540 506.25 C 540 507.355469 540.027344 508.457031 540.082031 509.5625 C 540.136719 510.664062 540.214844 511.765625 540.324219 512.867188 C 540.433594 513.964844 540.566406 515.0625 540.730469 516.152344 C 540.890625 517.246094 541.082031 518.335938 541.296875 519.417969 C 541.511719 520.5 541.75 521.578125 542.019531 522.652344 C 542.289062 523.722656 542.585938 524.785156 542.90625 525.84375 C 543.226562 526.902344 543.570312 527.949219 543.941406 528.988281 C 544.316406 530.027344 544.714844 531.058594 545.136719 532.078125 C 545.558594 533.101562 546.003906 534.109375 546.476562 535.109375 C 546.953125 536.109375 547.449219 537.09375 547.96875 538.070312 C 548.488281 539.042969 549.035156 540.003906 549.601562 540.953125 C 550.167969 541.898438 550.761719 542.832031 551.375 543.75 C 551.988281 544.667969 552.625 545.570312 553.285156 546.457031 C 553.941406 547.347656 554.621094 548.214844 555.324219 549.070312 C 556.023438 549.925781 556.746094 550.761719 557.484375 551.578125 C 558.226562 552.398438 558.988281 553.199219 559.769531 553.980469 C 560.550781 554.761719 561.347656 555.523438 562.167969 556.265625 C 562.988281 557.003906 563.824219 557.726562 564.679688 558.425781 C 565.53125 559.128906 566.402344 559.808594 567.289062 560.464844 C 568.175781 561.125 569.082031 561.761719 570 562.375 C 570.917969 562.988281 571.851562 563.578125 572.796875 564.144531 C 573.746094 564.714844 574.707031 565.257812 575.679688 565.777344 C 576.652344 566.300781 577.640625 566.796875 578.640625 567.269531 C 579.636719 567.742188 580.648438 568.1875 581.667969 568.609375 C 582.6875 569.035156 583.71875 569.429688 584.757812 569.804688 C 585.796875 570.175781 586.847656 570.523438 587.90625 570.84375 C 588.960938 571.164062 590.027344 571.457031 591.097656 571.726562 C 592.167969 571.996094 593.246094 572.238281 594.332031 572.453125 C 595.414062 572.667969 596.503906 572.859375 597.597656 573.019531 C 598.6875 573.183594 599.785156 573.316406 600.882812 573.425781 C 601.984375 573.53125 603.085938 573.613281 604.1875 573.667969 C 605.292969 573.722656 606.394531 573.75 607.5 573.75 C 608.605469 573.75 609.707031 573.722656 610.8125 573.667969 C 611.914062 573.613281 613.015625 573.53125 614.117188 573.425781 C 615.214844 573.316406 616.308594 573.183594 617.402344 573.019531 C 618.496094 572.859375 619.582031 572.667969 620.667969 572.453125 C 621.75 572.238281 622.828125 571.996094 623.898438 571.726562 C 624.972656 571.457031 626.035156 571.164062 627.09375 570.84375 C 628.148438 570.523438 629.199219 570.175781 630.238281 569.804688 C 631.277344 569.429688 632.308594 569.035156 633.328125 568.609375 C 634.351562 568.1875 635.359375 567.742188 636.359375 567.269531 C 637.355469 566.796875 638.34375 566.300781 639.320312 565.777344 C 640.292969 565.257812 641.253906 564.714844 642.199219 564.144531 C 643.148438 563.578125 644.082031 562.988281 645 562.375 C 645.917969 561.761719 646.820312 561.125 647.707031 560.464844 C 648.59375 559.808594 649.46875 559.128906 650.320312 558.425781 C 651.175781 557.726562 652.011719 557.003906 652.828125 556.265625 C 653.648438 555.523438 654.449219 554.761719 655.230469 553.980469 C 656.011719 553.199219 656.773438 552.398438 657.515625 551.578125 C 658.253906 550.761719 658.976562 549.925781 659.675781 549.070312 C 660.378906 548.21875 661.054688 547.347656 661.714844 546.457031 C 662.371094 545.570312 663.007812 544.667969 663.621094 543.75 C 664.234375 542.832031 664.824219 541.898438 665.394531 540.953125 C 665.960938 540.003906 666.507812 539.042969 667.027344 538.070312 C 667.550781 537.09375 668.046875 536.109375 668.515625 535.109375 C 668.988281 534.109375 669.4375 533.101562 669.859375 532.078125 C 670.285156 531.058594 670.679688 530.027344 671.054688 528.988281 C 671.425781 527.949219 671.773438 526.902344 672.09375 525.84375 C 672.414062 524.785156 672.710938 523.722656 672.976562 522.652344 C 673.246094 521.578125 673.488281 520.5 673.703125 519.417969 C 673.917969 518.335938 674.105469 517.246094 674.269531 516.152344 C 674.429688 515.0625 674.566406 513.964844 674.675781 512.867188 C 674.785156 511.765625 674.863281 510.664062 674.917969 509.5625 C 674.972656 508.457031 675 507.355469 675 506.25 L 708.75 506.25 C 709.855469 506.25 710.960938 506.195312 712.058594 506.085938 C 713.160156 505.980469 714.25 505.816406 715.332031 505.601562 C 716.417969 505.386719 717.488281 505.117188 718.542969 504.796875 C 719.601562 504.476562 720.640625 504.101562 721.664062 503.679688 C 722.683594 503.257812 723.683594 502.785156 724.65625 502.265625 C 725.632812 501.742188 726.578125 501.175781 727.496094 500.5625 C 728.417969 499.949219 729.304688 499.289062 730.160156 498.589844 C 731.015625 497.886719 731.832031 497.148438 732.613281 496.363281 C 733.394531 495.582031 734.136719 494.765625 734.839844 493.910156 C 735.539062 493.054688 736.199219 492.167969 736.808594 491.25 C 737.425781 490.332031 737.992188 489.382812 738.511719 488.410156 C 739.035156 487.433594 739.503906 486.4375 739.929688 485.414062 C 740.351562 484.394531 740.722656 483.355469 741.046875 482.296875 C 741.367188 481.238281 741.636719 480.167969 741.851562 479.082031 C 742.066406 478 742.226562 476.90625 742.335938 475.808594 C 742.445312 474.707031 742.5 473.605469 742.5 472.5 L 742.5 250.222656 C 742.5 248.007812 742.285156 245.8125 741.851562 243.636719 C 741.417969 241.464844 740.777344 239.355469 739.929688 237.308594 C 739.078125 235.261719 738.039062 233.316406 736.808594 231.472656 C 735.578125 229.632812 734.179688 227.929688 732.609375 226.359375 L 651.140625 144.890625 C 649.570312 143.320312 647.867188 141.921875 646.027344 140.691406 C 644.183594 139.460938 642.238281 138.417969 640.191406 137.570312 C 638.144531 136.722656 636.035156 136.082031 633.859375 135.648438 C 631.6875 135.21875 629.492188 135 627.277344 135 Z M 472.5 168.75 L 472.5 303.75 L 371.25 303.75 L 371.25 168.75 Z M 337.5 168.75 L 337.5 303.75 L 236.25 303.75 L 236.25 168.75 Z M 101.25 168.75 L 202.5 168.75 L 202.5 303.75 L 101.25 303.75 Z M 202.5 540 C 201.394531 540 200.292969 539.945312 199.191406 539.835938 C 198.089844 539.730469 197 539.566406 195.914062 539.351562 C 194.832031 539.136719 193.757812 538.867188 192.703125 538.546875 C 191.644531 538.226562 190.605469 537.851562 189.582031 537.429688 C 188.5625 537.007812 187.5625 536.535156 186.589844 536.015625 C 185.613281 535.492188 184.667969 534.925781 183.75 534.3125 C 182.832031 533.699219 181.945312 533.039062 181.089844 532.339844 C 180.234375 531.636719 179.417969 530.898438 178.632812 530.113281 C 177.851562 529.332031 177.109375 528.515625 176.410156 527.660156 C 175.707031 526.804688 175.050781 525.917969 174.4375 525 C 173.824219 524.082031 173.257812 523.132812 172.734375 522.160156 C 172.214844 521.183594 171.742188 520.1875 171.316406 519.164062 C 170.894531 518.144531 170.523438 517.105469 170.203125 516.046875 C 169.882812 514.988281 169.613281 513.917969 169.398438 512.832031 C 169.183594 511.75 169.019531 510.660156 168.914062 509.558594 C 168.804688 508.457031 168.75 507.355469 168.75 506.25 C 168.75 505.144531 168.804688 504.042969 168.914062 502.941406 C 169.019531 501.84375 169.183594 500.75 169.398438 499.664062 C 169.613281 498.582031 169.882812 497.511719 170.203125 496.453125 C 170.523438 495.394531 170.894531 494.355469 171.316406 493.332031 C 171.742188 492.3125 172.214844 491.3125 172.734375 490.339844 C 173.257812 489.363281 173.824219 488.417969 174.4375 487.5 C 175.050781 486.582031 175.707031 485.695312 176.410156 484.839844 C 177.109375 483.984375 177.851562 483.167969 178.632812 482.382812 C 179.417969 481.601562 180.234375 480.863281 181.089844 480.160156 C 181.945312 479.460938 182.832031 478.800781 183.75 478.1875 C 184.667969 477.574219 185.617188 477.007812 186.589844 476.484375 C 187.5625 475.964844 188.5625 475.492188 189.582031 475.070312 C 190.605469 474.644531 191.644531 474.273438 192.703125 473.953125 C 193.761719 473.632812 194.832031 473.363281 195.914062 473.148438 C 197 472.933594 198.089844 472.769531 199.191406 472.664062 C 200.292969 472.554688 201.394531 472.5 202.5 472.5 C 203.605469 472.5 204.707031 472.554688 205.808594 472.664062 C 206.90625 472.769531 208 472.933594 209.082031 473.148438 C 210.167969 473.363281 211.238281 473.632812 212.296875 473.953125 C 213.355469 474.273438 214.394531 474.644531 215.414062 475.070312 C 216.433594 475.492188 217.433594 475.964844 218.410156 476.484375 C 219.382812 477.007812 220.328125 477.574219 221.25 478.1875 C 222.167969 478.800781 223.054688 479.460938 223.910156 480.160156 C 224.765625 480.863281 225.582031 481.601562 226.363281 482.382812 C 227.144531 483.167969 227.886719 483.984375 228.589844 484.839844 C 229.289062 485.691406 229.949219 486.578125 230.558594 487.5 C 231.175781 488.417969 231.742188 489.363281 232.265625 490.339844 C 232.785156 491.3125 233.257812 492.3125 233.679688 493.332031 C 234.101562 494.355469 234.476562 495.394531 234.796875 496.453125 C 235.117188 497.511719 235.386719 498.582031 235.601562 499.664062 C 235.816406 500.75 235.980469 501.84375 236.085938 502.941406 C 236.195312 504.042969 236.25 505.144531 236.25 506.25 C 236.25 507.355469 236.195312 508.457031 236.085938 509.558594 C 235.980469 510.660156 235.816406 511.75 235.601562 512.832031 C 235.386719 513.917969 235.117188 514.988281 234.796875 516.046875 C 234.476562 517.105469 234.101562 518.144531 233.679688 519.164062 C 233.257812 520.1875 232.785156 521.183594 232.265625 522.160156 C 231.742188 523.132812 231.175781 524.082031 230.5625 525 C 229.949219 525.917969 229.289062 526.804688 228.589844 527.660156 C 227.886719 528.515625 227.144531 529.332031 226.363281 530.113281 C 225.582031 530.898438 224.765625 531.636719 223.910156 532.339844 C 223.054688 533.039062 222.167969 533.699219 221.25 534.3125 C 220.328125 534.925781 219.382812 535.492188 218.40625 536.015625 C 217.433594 536.535156 216.433594 537.007812 215.414062 537.429688 C 214.394531 537.851562 213.355469 538.226562 212.296875 538.546875 C 211.238281 538.867188 210.167969 539.136719 209.082031 539.351562 C 208 539.566406 206.90625 539.730469 205.808594 539.835938 C 204.707031 539.945312 203.605469 540 202.5 540 Z M 607.5 540 C 606.394531 540 605.292969 539.945312 604.191406 539.835938 C 603.089844 539.730469 602 539.566406 600.914062 539.351562 C 599.828125 539.136719 598.757812 538.867188 597.703125 538.546875 C 596.644531 538.226562 595.605469 537.851562 594.582031 537.429688 C 593.5625 537.007812 592.5625 536.535156 591.589844 536.015625 C 590.613281 535.492188 589.667969 534.925781 588.75 534.3125 C 587.828125 533.699219 586.941406 533.039062 586.089844 532.339844 C 585.234375 531.636719 584.414062 530.898438 583.632812 530.113281 C 582.851562 529.332031 582.109375 528.515625 581.410156 527.660156 C 580.710938 526.804688 580.050781 525.917969 579.4375 525 C 578.824219 524.082031 578.253906 523.132812 577.734375 522.160156 C 577.210938 521.183594 576.738281 520.1875 576.316406 519.164062 C 575.894531 518.144531 575.523438 517.105469 575.203125 516.046875 C 574.882812 514.988281 574.613281 513.917969 574.398438 512.832031 C 574.183594 511.75 574.019531 510.660156 573.914062 509.558594 C 573.804688 508.457031 573.75 507.355469 573.75 506.25 C 573.75 505.144531 573.804688 504.042969 573.914062 502.941406 C 574.019531 501.84375 574.183594 500.75 574.398438 499.664062 C 574.613281 498.582031 574.882812 497.511719 575.203125 496.453125 C 575.523438 495.394531 575.894531 494.355469 576.316406 493.332031 C 576.742188 492.3125 577.210938 491.3125 577.734375 490.339844 C 578.253906 489.363281 578.824219 488.417969 579.4375 487.5 C 580.050781 486.582031 580.710938 485.695312 581.410156 484.839844 C 582.109375 483.984375 582.851562 483.167969 583.632812 482.382812 C 584.414062 481.601562 585.234375 480.863281 586.085938 480.160156 C 586.941406 479.460938 587.828125 478.800781 588.746094 478.1875 C 589.667969 477.574219 590.613281 477.007812 591.589844 476.484375 C 592.5625 475.964844 593.5625 475.492188 594.582031 475.070312 C 595.605469 474.644531 596.644531 474.273438 597.703125 473.953125 C 598.757812 473.632812 599.828125 473.363281 600.914062 473.148438 C 602 472.933594 603.089844 472.769531 604.191406 472.664062 C 605.292969 472.554688 606.394531 472.5 607.5 472.5 C 608.605469 472.5 609.707031 472.554688 610.808594 472.664062 C 611.90625 472.769531 613 472.933594 614.082031 473.148438 C 615.167969 473.363281 616.238281 473.632812 617.296875 473.953125 C 618.355469 474.273438 619.394531 474.644531 620.414062 475.070312 C 621.433594 475.492188 622.433594 475.964844 623.410156 476.484375 C 624.382812 477.007812 625.328125 477.574219 626.246094 478.1875 C 627.167969 478.800781 628.054688 479.460938 628.910156 480.160156 C 629.765625 480.863281 630.582031 481.601562 631.363281 482.382812 C 632.144531 483.167969 632.886719 483.984375 633.589844 484.839844 C 634.289062 485.691406 634.949219 486.578125 635.558594 487.5 C 636.175781 488.417969 636.742188 489.363281 637.265625 490.339844 C 637.785156 491.3125 638.257812 492.3125 638.679688 493.332031 C 639.101562 494.355469 639.476562 495.394531 639.796875 496.453125 C 640.117188 497.511719 640.386719 498.582031 640.601562 499.664062 C 640.816406 500.75 640.980469 501.84375 641.085938 502.941406 C 641.195312 504.042969 641.25 505.144531 641.25 506.25 C 641.25 507.355469 641.195312 508.457031 641.085938 509.558594 C 640.980469 510.660156 640.816406 511.75 640.601562 512.832031 C 640.386719 513.917969 640.117188 514.988281 639.796875 516.046875 C 639.476562 517.105469 639.101562 518.144531 638.679688 519.164062 C 638.257812 520.1875 637.785156 521.183594 637.265625 522.160156 C 636.742188 523.132812 636.175781 524.082031 635.5625 525 C 634.949219 525.917969 634.289062 526.804688 633.589844 527.660156 C 632.886719 528.515625 632.144531 529.332031 631.363281 530.113281 C 630.582031 530.898438 629.765625 531.636719 628.910156 532.339844 C 628.054688 533.039062 627.167969 533.699219 626.246094 534.3125 C 625.328125 534.925781 624.382812 535.492188 623.410156 536.015625 C 622.433594 536.535156 621.433594 537.007812 620.414062 537.429688 C 619.394531 537.851562 618.355469 538.226562 617.296875 538.546875 C 616.238281 538.867188 615.167969 539.136719 614.082031 539.351562 C 613 539.566406 611.910156 539.730469 610.808594 539.835938 C 609.707031 539.945312 608.605469 540 607.5 540 Z M 708.75 472.5 L 665.632812 472.5 C 664.175781 469.949219 662.558594 467.503906 660.78125 465.164062 C 659 462.824219 657.078125 460.613281 655.007812 458.527344 C 652.9375 456.441406 650.738281 454.5 648.414062 452.707031 C 646.085938 450.910156 643.652344 449.273438 641.109375 447.796875 C 638.570312 446.324219 635.941406 445.019531 633.230469 443.890625 C 630.515625 442.761719 627.742188 441.816406 624.90625 441.050781 C 622.066406 440.289062 619.191406 439.714844 616.277344 439.328125 C 613.363281 438.941406 610.4375 438.75 607.5 438.75 C 604.5625 438.75 601.636719 438.941406 598.722656 439.328125 C 595.808594 439.714844 592.933594 440.289062 590.097656 441.050781 C 587.261719 441.816406 584.484375 442.761719 581.769531 443.890625 C 579.058594 445.019531 576.429688 446.324219 573.890625 447.796875 C 571.347656 449.273438 568.914062 450.910156 566.589844 452.707031 C 564.261719 454.5 562.0625 456.441406 559.996094 458.527344 C 557.921875 460.613281 556 462.824219 554.21875 465.164062 C 552.441406 467.503906 550.824219 469.949219 549.367188 472.5 L 260.632812 472.5 C 259.175781 469.949219 257.558594 467.503906 255.777344 465.164062 C 254 462.824219 252.074219 460.613281 250.007812 458.527344 C 247.933594 456.441406 245.738281 454.5 243.410156 452.707031 C 241.085938 450.910156 238.652344 449.273438 236.109375 447.796875 C 233.570312 446.324219 230.941406 445.019531 228.230469 443.890625 C 225.515625 442.761719 222.742188 441.816406 219.90625 441.050781 C 217.066406 440.289062 214.191406 439.714844 211.277344 439.328125 C 208.363281 438.941406 205.4375 438.75 202.5 438.75 C 199.558594 438.75 196.632812 438.941406 193.722656 439.328125 C 190.808594 439.714844 187.933594 440.289062 185.097656 441.050781 C 182.257812 441.816406 179.484375 442.761719 176.769531 443.890625 C 174.058594 445.019531 171.429688 446.324219 168.890625 447.796875 C 166.347656 449.273438 163.914062 450.910156 161.589844 452.707031 C 159.261719 454.5 157.066406 456.441406 154.996094 458.527344 C 152.925781 460.613281 151 462.824219 149.21875 465.164062 C 147.441406 467.503906 145.824219 469.949219 144.367188 472.5 L 101.25 472.5 L 101.25 337.5 L 708.75 337.5 Z M 506.25 303.75 L 506.25 168.75 L 627.277344 168.75 L 708.75 250.222656 L 708.75 303.75 Z M 506.25 303.75 " fill-opacity="1" fill-rule="nonzero"/><path fill="#009688" d="M 84.375 607.5 L 725.625 607.5 C 726.175781 607.5 726.730469 607.527344 727.277344 607.582031 C 727.828125 607.636719 728.375 607.714844 728.917969 607.824219 C 729.460938 607.933594 729.996094 608.066406 730.523438 608.226562 C 731.050781 608.386719 731.570312 608.574219 732.082031 608.785156 C 732.59375 608.996094 733.09375 609.230469 733.578125 609.492188 C 734.066406 609.753906 734.539062 610.035156 735 610.34375 C 735.460938 610.652344 735.902344 610.980469 736.332031 611.332031 C 736.757812 611.679688 737.167969 612.050781 737.558594 612.441406 C 737.949219 612.832031 738.320312 613.242188 738.667969 613.667969 C 739.019531 614.097656 739.347656 614.539062 739.65625 615 C 739.964844 615.460938 740.246094 615.933594 740.507812 616.421875 C 740.769531 616.90625 741.003906 617.40625 741.214844 617.917969 C 741.425781 618.429688 741.613281 618.949219 741.773438 619.476562 C 741.933594 620.003906 742.066406 620.539062 742.175781 621.082031 C 742.285156 621.625 742.363281 622.171875 742.417969 622.722656 C 742.472656 623.269531 742.5 623.824219 742.5 624.375 C 742.5 624.925781 742.472656 625.480469 742.417969 626.027344 C 742.363281 626.578125 742.285156 627.125 742.175781 627.667969 C 742.066406 628.210938 741.933594 628.746094 741.773438 629.273438 C 741.613281 629.800781 741.425781 630.320312 741.214844 630.832031 C 741.003906 631.34375 740.769531 631.84375 740.507812 632.328125 C 740.246094 632.816406 739.964844 633.289062 739.65625 633.75 C 739.347656 634.210938 739.019531 634.652344 738.667969 635.082031 C 738.320312 635.507812 737.949219 635.917969 737.558594 636.308594 C 737.167969 636.699219 736.757812 637.070312 736.332031 637.417969 C 735.902344 637.769531 735.460938 638.097656 735 638.40625 C 734.539062 638.714844 734.066406 638.996094 733.578125 639.257812 C 733.09375 639.519531 732.59375 639.753906 732.082031 639.964844 C 731.570312 640.175781 731.050781 640.363281 730.523438 640.523438 C 729.996094 640.683594 729.460938 640.816406 728.917969 640.925781 C 728.375 641.035156 727.828125 641.113281 727.277344 641.167969 C 726.730469 641.222656 726.175781 641.25 725.625 641.25 L 84.375 641.25 C 83.824219 641.25 83.269531 641.222656 82.722656 641.167969 C 82.171875 641.113281 81.625 641.035156 81.082031 640.925781 C 80.539062 640.816406 80.003906 640.683594 79.476562 640.523438 C 78.949219 640.363281 78.429688 640.175781 77.917969 639.964844 C 77.40625 639.753906 76.90625 639.519531 76.421875 639.257812 C 75.933594 638.996094 75.460938 638.714844 75 638.40625 C 74.539062 638.097656 74.097656 637.769531 73.667969 637.417969 C 73.242188 637.070312 72.832031 636.699219 72.441406 636.308594 C 72.050781 635.917969 71.679688 635.507812 71.332031 635.082031 C 70.980469 634.652344 70.652344 634.210938 70.34375 633.75 C 70.035156 633.289062 69.753906 632.816406 69.492188 632.328125 C 69.230469 631.84375 68.996094 631.34375 68.785156 630.832031 C 68.574219 630.320312 68.386719 629.800781 68.226562 629.273438 C 68.066406 628.746094 67.933594 628.210938 67.824219 627.667969 C 67.714844 627.125 67.636719 626.578125 67.582031 626.027344 C 67.527344 625.480469 67.5 624.925781 67.5 624.375 C 67.5 623.824219 67.527344 623.269531 67.582031 622.722656 C 67.636719 622.171875 67.714844 621.625 67.824219 621.082031 C 67.933594 620.539062 68.066406 620.003906 68.226562 619.476562 C 68.386719 618.949219 68.574219 618.429688 68.785156 617.917969 C 68.996094 617.40625 69.230469 616.90625 69.492188 616.421875 C 69.753906 615.933594 70.035156 615.460938 70.34375 615 C 70.652344 614.539062 70.980469 614.097656 71.332031 613.667969 C 71.679688 613.242188 72.050781 612.832031 72.441406 612.441406 C 72.832031 612.050781 73.242188 611.679688 73.667969 611.332031 C 74.097656 610.980469 74.539062 610.652344 75 610.34375 C 75.460938 610.035156 75.933594 609.753906 76.421875 609.492188 C 76.90625 609.230469 77.40625 608.996094 77.917969 608.785156 C 78.429688 608.574219 78.949219 608.386719 79.476562 608.226562 C 80.003906 608.066406 80.539062 607.933594 81.082031 607.824219 C 81.625 607.714844 82.171875 607.636719 82.722656 607.582031 C 83.269531 607.527344 83.824219 607.5 84.375 607.5 Z M 84.375 607.5 " fill-opacity="1" fill-rule="nonzero"/></svg>