<svg xmlns="http://www.w3.org/2000/svg" xmlns:xlink="http://www.w3.org/1999/xlink" width="1080" zoomAndPan="magnify" viewBox="0 0 810 809.999993" height="1080" preserveAspectRatio="xMidYMid meet" version="1.0"><path fill="#009688" d="M 725.625 590.625 L 675 590.625 L 675 455.625 C 675 455.070312 674.972656 454.519531 674.917969 453.96875 C 674.867188 453.417969 674.785156 452.875 674.675781 452.332031 C 674.566406 451.789062 674.433594 451.253906 674.273438 450.726562 C 674.113281 450.195312 673.925781 449.675781 673.714844 449.167969 C 673.503906 448.65625 673.269531 448.15625 673.007812 447.667969 C 672.746094 447.183594 672.460938 446.710938 672.15625 446.25 C 671.847656 445.789062 671.519531 445.347656 671.171875 444.917969 C 670.816406 444.492188 670.449219 444.082031 670.054688 443.691406 C 669.667969 443.300781 669.257812 442.929688 668.832031 442.578125 C 668.402344 442.226562 667.957031 441.898438 667.496094 441.589844 C 667.039062 441.285156 666.570312 441.003906 666.082031 440.742188 C 665.59375 440.480469 665.09375 440.246094 664.582031 440.035156 C 664.070312 439.820312 663.554688 439.636719 663.023438 439.476562 C 662.492188 439.316406 661.957031 439.179688 661.414062 439.074219 C 660.871094 438.964844 660.328125 438.886719 659.777344 438.832031 C 659.230469 438.777344 658.679688 438.75 658.125 438.75 L 555.644531 438.75 C 555.089844 438.75 554.539062 438.777344 553.988281 438.832031 C 553.4375 438.886719 552.894531 438.96875 552.351562 439.074219 C 551.808594 439.183594 551.273438 439.316406 550.746094 439.476562 C 550.214844 439.636719 549.695312 439.824219 549.183594 440.035156 C 548.675781 440.246094 548.179688 440.480469 547.691406 440.742188 C 547.203125 441.003906 546.726562 441.289062 546.265625 441.59375 C 545.808594 441.902344 545.367188 442.230469 544.9375 442.582031 C 544.511719 442.929688 544.101562 443.300781 543.710938 443.691406 C 543.320312 444.082031 542.953125 444.492188 542.597656 444.917969 C 542.25 445.347656 541.917969 445.789062 541.613281 446.25 C 541.304688 446.710938 541.023438 447.183594 540.761719 447.667969 C 540.503906 448.15625 540.265625 448.65625 540.054688 449.167969 C 539.839844 449.679688 539.65625 450.199219 539.496094 450.726562 C 539.332031 451.253906 539.199219 451.789062 539.089844 452.332031 C 538.984375 452.875 538.902344 453.421875 538.847656 453.972656 C 538.796875 454.519531 538.769531 455.070312 538.769531 455.625 L 538.769531 590.625 L 489.375 590.625 C 488.488281 590.625 487.609375 590.695312 486.730469 590.832031 C 485.859375 590.972656 485 591.175781 484.160156 591.449219 C 483.316406 591.722656 482.5 592.0625 481.710938 592.464844 C 480.925781 592.867188 480.171875 593.328125 479.457031 593.847656 C 478.738281 594.367188 478.066406 594.941406 477.441406 595.566406 C 476.816406 596.191406 476.242188 596.863281 475.722656 597.578125 C 475.199219 598.296875 474.738281 599.046875 474.335938 599.835938 C 473.933594 600.625 473.597656 601.441406 473.324219 602.285156 C 473.050781 603.125 472.84375 603.984375 472.703125 604.855469 C 472.566406 605.730469 472.496094 606.613281 472.496094 607.496094 C 472.496094 608.382812 472.566406 609.261719 472.703125 610.136719 C 472.84375 611.011719 473.050781 611.871094 473.324219 612.714844 C 473.597656 613.554688 473.933594 614.371094 474.335938 615.160156 C 474.738281 615.949219 475.199219 616.699219 475.71875 617.417969 C 476.242188 618.132812 476.8125 618.804688 477.4375 619.429688 C 478.0625 620.058594 478.734375 620.632812 479.453125 621.152344 L 584.246094 720.496094 C 585.023438 721.230469 585.828125 721.925781 586.671875 722.585938 C 587.511719 723.242188 588.382812 723.859375 589.28125 724.433594 C 590.183594 725.011719 591.105469 725.542969 592.058594 726.027344 C 593.007812 726.515625 593.976562 726.957031 594.96875 727.355469 C 595.957031 727.75 596.96875 728.097656 597.992188 728.398438 C 599.015625 728.695312 600.054688 728.949219 601.105469 729.148438 C 602.152344 729.347656 603.207031 729.5 604.269531 729.601562 C 605.332031 729.703125 606.398438 729.753906 607.46875 729.753906 C 608.535156 729.753906 609.597656 729.703125 610.660156 729.601562 C 611.726562 729.5 612.78125 729.351562 613.832031 729.148438 C 614.878906 728.949219 615.914062 728.699219 616.9375 728.398438 C 617.960938 728.097656 618.972656 727.75 619.964844 727.355469 C 620.957031 726.957031 621.929688 726.515625 622.878906 726.027344 C 623.828125 725.542969 624.753906 725.011719 625.652344 724.433594 C 626.550781 723.859375 627.417969 723.242188 628.261719 722.585938 C 629.101562 721.925781 629.90625 721.230469 630.683594 720.496094 L 735.476562 621.152344 C 736.191406 620.632812 736.863281 620.058594 737.484375 619.433594 C 738.113281 618.808594 738.683594 618.140625 739.207031 617.425781 C 739.726562 616.710938 740.183594 615.960938 740.585938 615.171875 C 740.988281 614.382812 741.328125 613.570312 741.601562 612.730469 C 741.875 611.886719 742.082031 611.03125 742.222656 610.160156 C 742.363281 609.285156 742.433594 608.410156 742.433594 607.523438 C 742.4375 606.640625 742.367188 605.761719 742.230469 604.886719 C 742.09375 604.015625 741.890625 603.15625 741.617188 602.316406 C 741.34375 601.476562 741.007812 600.660156 740.609375 599.871094 C 740.210938 599.082031 739.753906 598.332031 739.234375 597.613281 C 738.714844 596.898438 738.144531 596.226562 737.523438 595.597656 C 736.898438 594.972656 736.230469 594.398438 735.519531 593.875 C 734.804688 593.355469 734.054688 592.890625 733.265625 592.488281 C 732.480469 592.085938 731.667969 591.746094 730.828125 591.46875 C 729.988281 591.191406 729.132812 590.984375 728.257812 590.839844 C 727.386719 590.699219 726.507812 590.628906 725.625 590.625 Z M 725.625 590.625 " fill-opacity="1" fill-rule="nonzero"/><path fill="#009688" d="M 607.5 101.25 L 101.25 101.25 C 100.144531 101.25 99.042969 101.304688 97.945312 101.414062 C 96.84375 101.519531 95.753906 101.683594 94.667969 101.898438 C 93.585938 102.113281 92.515625 102.382812 91.453125 102.703125 C 90.398438 103.023438 89.359375 103.398438 88.335938 103.820312 C 87.316406 104.242188 86.316406 104.714844 85.339844 105.234375 C 84.367188 105.757812 83.417969 106.324219 82.5 106.9375 C 81.578125 107.550781 80.695312 108.210938 79.839844 108.910156 C 78.984375 109.613281 78.167969 110.355469 77.386719 111.136719 C 76.605469 111.917969 75.863281 112.734375 75.160156 113.589844 C 74.460938 114.445312 73.804688 115.332031 73.191406 116.25 C 72.578125 117.171875 72.007812 118.117188 71.488281 119.089844 C 70.96875 120.066406 70.492188 121.066406 70.070312 122.085938 C 69.648438 123.105469 69.273438 124.144531 68.953125 125.203125 C 68.632812 126.261719 68.363281 127.332031 68.148438 128.414062 C 67.929688 129.5 67.769531 130.589844 67.660156 131.691406 C 67.554688 132.792969 67.5 133.894531 67.5 135 L 67.5 607.5 C 67.5 608.605469 67.554688 609.707031 67.660156 610.808594 C 67.769531 611.910156 67.929688 613 68.148438 614.082031 C 68.363281 615.167969 68.632812 616.238281 68.953125 617.296875 C 69.273438 618.355469 69.644531 619.394531 70.066406 620.414062 C 70.488281 621.433594 70.960938 622.433594 71.484375 623.410156 C 72.003906 624.382812 72.574219 625.332031 73.183594 626.25 C 73.800781 627.167969 74.457031 628.054688 75.160156 628.910156 C 75.859375 629.765625 76.601562 630.582031 77.382812 631.363281 C 78.164062 632.144531 78.980469 632.886719 79.835938 633.589844 C 80.691406 634.289062 81.578125 634.949219 82.496094 635.5625 C 83.414062 636.175781 84.363281 636.742188 85.339844 637.265625 C 86.3125 637.785156 87.3125 638.257812 88.332031 638.679688 C 89.351562 639.101562 90.390625 639.476562 91.449219 639.796875 C 92.507812 640.117188 93.578125 640.386719 94.664062 640.601562 C 95.746094 640.816406 96.839844 640.980469 97.941406 641.089844 C 99.042969 641.195312 100.144531 641.25 101.25 641.25 L 421.875 641.25 C 422.429688 641.25 422.980469 641.222656 423.527344 641.167969 C 424.078125 641.113281 424.621094 641.035156 425.164062 640.925781 C 425.707031 640.816406 426.242188 640.683594 426.773438 640.523438 C 427.304688 640.363281 427.820312 640.175781 428.332031 639.964844 C 428.84375 639.753906 429.34375 639.515625 429.832031 639.257812 C 430.316406 638.996094 430.789062 638.710938 431.246094 638.40625 C 431.707031 638.097656 432.152344 637.769531 432.582031 637.417969 C 433.007812 637.070312 433.417969 636.699219 433.804688 636.308594 C 434.199219 635.917969 434.566406 635.507812 434.917969 635.082031 C 435.269531 634.652344 435.597656 634.210938 435.902344 633.75 C 436.210938 633.292969 436.496094 632.816406 436.757812 632.328125 C 437.019531 631.84375 437.253906 631.34375 437.464844 630.832031 C 437.675781 630.320312 437.863281 629.800781 438.023438 629.273438 C 438.179688 628.742188 438.316406 628.207031 438.421875 627.667969 C 438.53125 627.125 438.613281 626.578125 438.667969 626.027344 C 438.722656 625.480469 438.75 624.929688 438.75 624.375 C 438.75 623.824219 438.722656 623.273438 438.667969 622.722656 C 438.613281 622.167969 438.53125 621.625 438.421875 621.082031 C 438.316406 620.539062 438.179688 620.003906 438.023438 619.472656 C 437.863281 618.945312 437.675781 618.425781 437.464844 617.914062 C 437.253906 617.40625 437.019531 616.90625 436.757812 616.417969 C 436.496094 615.933594 436.210938 615.457031 435.902344 615 C 435.597656 614.539062 435.269531 614.097656 434.917969 613.667969 C 434.566406 613.242188 434.199219 612.832031 433.804688 612.441406 C 433.417969 612.050781 433.007812 611.679688 432.582031 611.328125 C 432.152344 610.980469 431.707031 610.648438 431.246094 610.339844 C 430.789062 610.035156 430.316406 609.75 429.832031 609.492188 C 429.34375 609.230469 428.84375 608.996094 428.332031 608.785156 C 427.820312 608.570312 427.304688 608.386719 426.773438 608.226562 C 426.242188 608.066406 425.707031 607.929688 425.164062 607.824219 C 424.621094 607.714844 424.078125 607.636719 423.527344 607.582031 C 422.980469 607.527344 422.429688 607.5 421.875 607.5 L 371.25 607.5 L 371.25 540 L 506.25 540 L 506.25 337.5 L 607.5 337.5 L 607.5 389.675781 C 607.5 390.679688 607.597656 391.675781 607.792969 392.664062 C 607.988281 393.652344 608.28125 394.609375 608.671875 395.539062 C 609.054688 396.464844 609.527344 397.347656 610.085938 398.183594 C 610.644531 399.019531 611.28125 399.796875 611.992188 400.507812 C 612.703125 401.21875 613.476562 401.851562 614.308594 402.414062 C 615.148438 402.972656 616.03125 403.445312 616.960938 403.828125 C 617.890625 404.214844 618.847656 404.503906 619.832031 404.703125 C 620.820312 404.898438 621.816406 405 622.820312 405 L 625.925781 405 C 626.933594 405 627.929688 404.898438 628.917969 404.703125 C 629.902344 404.503906 630.859375 404.214844 631.789062 403.828125 C 632.71875 403.441406 633.597656 402.972656 634.433594 402.410156 C 635.269531 401.851562 636.042969 401.21875 636.753906 400.507812 C 637.464844 399.792969 638.101562 399.019531 638.660156 398.183594 C 639.21875 397.347656 639.691406 396.464844 640.074219 395.539062 C 640.460938 394.609375 640.75 393.652344 640.953125 392.664062 C 641.148438 391.679688 641.246094 390.683594 641.246094 389.675781 L 641.246094 135 C 641.25 133.894531 641.195312 132.792969 641.085938 131.691406 C 640.976562 130.589844 640.816406 129.5 640.597656 128.414062 C 640.386719 127.332031 640.117188 126.261719 639.796875 125.203125 C 639.472656 124.144531 639.101562 123.105469 638.675781 122.082031 C 638.253906 121.0625 637.78125 120.066406 637.261719 119.089844 C 636.742188 118.113281 636.175781 117.167969 635.558594 116.25 C 634.945312 115.328125 634.289062 114.441406 633.585938 113.589844 C 632.882812 112.734375 632.144531 111.917969 631.363281 111.132812 C 630.582031 110.351562 629.761719 109.613281 628.90625 108.910156 C 628.054688 108.210938 627.167969 107.550781 626.246094 106.9375 C 625.328125 106.324219 624.382812 105.757812 623.40625 105.234375 C 622.433594 104.714844 621.433594 104.242188 620.414062 103.816406 C 619.394531 103.394531 618.355469 103.023438 617.296875 102.703125 C 616.238281 102.382812 615.167969 102.113281 614.082031 101.898438 C 613 101.683594 611.910156 101.523438 610.808594 101.414062 C 609.707031 101.304688 608.605469 101.25 607.5 101.25 Z M 202.5 607.5 L 101.25 607.5 L 101.25 540 L 202.5 540 Z M 202.5 506.25 L 101.25 506.25 L 101.25 438.75 L 202.5 438.75 Z M 202.5 405 L 101.25 405 L 101.25 337.5 L 202.5 337.5 Z M 202.5 303.75 L 101.25 303.75 L 101.25 236.25 L 202.5 236.25 Z M 337.5 607.5 L 236.25 607.5 L 236.25 540 L 337.5 540 Z M 337.5 506.25 L 236.25 506.25 L 236.25 438.75 L 337.5 438.75 Z M 337.5 405 L 236.25 405 L 236.25 337.5 L 337.5 337.5 Z M 337.5 303.75 L 236.25 303.75 L 236.25 236.25 L 337.5 236.25 Z M 472.5 506.25 L 371.25 506.25 L 371.25 438.75 L 472.5 438.75 Z M 472.5 405 L 371.25 405 L 371.25 337.5 L 472.5 337.5 Z M 472.5 303.75 L 371.25 303.75 L 371.25 236.25 L 472.5 236.25 Z M 607.5 303.75 L 506.25 303.75 L 506.25 236.25 L 607.5 236.25 Z M 607.5 202.5 L 101.25 202.5 L 101.25 135 L 607.5 135 Z M 607.5 202.5 " fill-opacity="1" fill-rule="nonzero"/></svg>