<svg xmlns="http://www.w3.org/2000/svg" xmlns:xlink="http://www.w3.org/1999/xlink" width="1080" zoomAndPan="magnify" viewBox="0 0 810 809.999993" height="1080" preserveAspectRatio="xMidYMid meet" version="1.0"><path fill="#009688" d="M 708.75 135 L 708.75 472.5 L 101.25 472.5 L 101.25 135 Z M 101.25 101.25 C 100.144531 101.25 99.042969 101.304688 97.941406 101.414062 C 96.839844 101.519531 95.75 101.683594 94.664062 101.898438 C 93.582031 102.113281 92.511719 102.382812 91.453125 102.703125 C 90.394531 103.027344 89.355469 103.398438 88.335938 103.820312 C 87.3125 104.242188 86.316406 104.714844 85.339844 105.238281 C 84.363281 105.757812 83.417969 106.324219 82.496094 106.9375 C 81.578125 107.550781 80.691406 108.210938 79.839844 108.910156 C 78.984375 109.613281 78.167969 110.355469 77.382812 111.132812 C 76.605469 111.917969 75.863281 112.734375 75.160156 113.589844 C 74.460938 114.445312 73.804688 115.332031 73.1875 116.25 C 72.574219 117.167969 72.007812 118.117188 71.484375 119.089844 C 70.964844 120.066406 70.492188 121.066406 70.070312 122.085938 C 69.648438 123.105469 69.277344 124.144531 68.953125 125.203125 C 68.632812 126.261719 68.363281 127.332031 68.148438 128.414062 C 67.933594 129.5 67.773438 130.59375 67.664062 131.691406 C 67.554688 132.792969 67.5 133.894531 67.5 135 L 67.5 573.75 C 67.5 574.855469 67.554688 575.957031 67.664062 577.058594 C 67.769531 578.160156 67.929688 579.25 68.148438 580.332031 C 68.363281 581.417969 68.632812 582.488281 68.953125 583.546875 C 69.273438 584.605469 69.644531 585.644531 70.066406 586.664062 C 70.488281 587.683594 70.960938 588.683594 71.484375 589.660156 C 72.003906 590.632812 72.574219 591.582031 73.1875 592.5 C 73.800781 593.417969 74.457031 594.304688 75.160156 595.160156 C 75.859375 596.015625 76.601562 596.832031 77.382812 597.613281 C 78.164062 598.394531 78.984375 599.136719 79.839844 599.839844 C 80.691406 600.539062 81.578125 601.199219 82.496094 601.8125 C 83.417969 602.425781 84.363281 602.992188 85.339844 603.515625 C 86.3125 604.035156 87.3125 604.507812 88.332031 604.929688 C 89.355469 605.351562 90.394531 605.722656 91.449219 606.046875 C 92.507812 606.367188 93.582031 606.636719 94.664062 606.851562 C 95.75 607.066406 96.839844 607.230469 97.941406 607.339844 C 99.042969 607.445312 100.144531 607.5 101.25 607.5 L 337.5 607.5 L 337.5 675 L 286.875 675 C 286.320312 675 285.769531 675.027344 285.21875 675.082031 C 284.671875 675.136719 284.125 675.21875 283.582031 675.324219 C 283.039062 675.433594 282.503906 675.566406 281.976562 675.726562 C 281.449219 675.886719 280.929688 676.070312 280.417969 676.285156 C 279.90625 676.496094 279.40625 676.730469 278.917969 676.992188 C 278.433594 677.25 277.957031 677.535156 277.496094 677.839844 C 277.039062 678.148438 276.597656 678.476562 276.167969 678.828125 C 275.742188 679.179688 275.332031 679.550781 274.941406 679.941406 C 274.550781 680.332031 274.179688 680.742188 273.828125 681.167969 C 273.476562 681.597656 273.148438 682.039062 272.839844 682.496094 C 272.535156 682.957031 272.25 683.429688 271.992188 683.917969 C 271.730469 684.40625 271.496094 684.902344 271.28125 685.414062 C 271.070312 685.925781 270.886719 686.445312 270.726562 686.976562 C 270.566406 687.503906 270.429688 688.039062 270.324219 688.582031 C 270.214844 689.125 270.136719 689.667969 270.082031 690.222656 C 270.027344 690.769531 270 691.320312 270 691.875 C 270 692.425781 270.027344 692.976562 270.082031 693.527344 C 270.136719 694.078125 270.214844 694.625 270.324219 695.164062 C 270.429688 695.707031 270.566406 696.242188 270.726562 696.773438 C 270.886719 697.300781 271.070312 697.820312 271.28125 698.332031 C 271.496094 698.84375 271.730469 699.34375 271.992188 699.828125 C 272.253906 700.316406 272.535156 700.789062 272.84375 701.25 C 273.152344 701.710938 273.480469 702.152344 273.828125 702.578125 C 274.179688 703.007812 274.550781 703.417969 274.941406 703.808594 C 275.332031 704.199219 275.742188 704.570312 276.167969 704.917969 C 276.597656 705.269531 277.039062 705.597656 277.496094 705.90625 C 277.957031 706.214844 278.429688 706.496094 278.917969 706.757812 C 279.40625 707.019531 279.90625 707.253906 280.417969 707.464844 C 280.929688 707.675781 281.449219 707.863281 281.976562 708.023438 C 282.503906 708.183594 283.039062 708.316406 283.582031 708.425781 C 284.125 708.53125 284.671875 708.613281 285.222656 708.667969 C 285.769531 708.722656 286.320312 708.75 286.875 708.75 L 523.125 708.75 C 523.679688 708.75 524.230469 708.722656 524.777344 708.667969 C 525.328125 708.613281 525.875 708.53125 526.414062 708.425781 C 526.957031 708.316406 527.492188 708.183594 528.023438 708.023438 C 528.550781 707.863281 529.070312 707.675781 529.582031 707.464844 C 530.089844 707.253906 530.589844 707.019531 531.078125 706.757812 C 531.566406 706.496094 532.039062 706.214844 532.5 705.90625 C 532.960938 705.597656 533.402344 705.269531 533.828125 704.917969 C 534.257812 704.570312 534.664062 704.199219 535.054688 703.808594 C 535.449219 703.417969 535.820312 703.007812 536.167969 702.578125 C 536.519531 702.152344 536.847656 701.710938 537.152344 701.25 C 537.460938 700.789062 537.746094 700.316406 538.007812 699.828125 C 538.269531 699.34375 538.503906 698.84375 538.714844 698.332031 C 538.925781 697.820312 539.113281 697.300781 539.273438 696.773438 C 539.433594 696.242188 539.570312 695.710938 539.675781 695.167969 C 539.785156 694.625 539.863281 694.078125 539.917969 693.527344 C 539.972656 692.976562 540 692.425781 540 691.875 C 540 691.320312 539.972656 690.769531 539.917969 690.222656 C 539.863281 689.667969 539.785156 689.125 539.675781 688.582031 C 539.570312 688.039062 539.433594 687.503906 539.273438 686.976562 C 539.113281 686.445312 538.925781 685.925781 538.714844 685.414062 C 538.503906 684.902344 538.269531 684.40625 538.007812 683.917969 C 537.746094 683.429688 537.460938 682.957031 537.152344 682.496094 C 536.847656 682.039062 536.519531 681.59375 536.167969 681.167969 C 535.820312 680.742188 535.449219 680.332031 535.054688 679.941406 C 534.664062 679.550781 534.257812 679.179688 533.828125 678.828125 C 533.402344 678.480469 532.960938 678.152344 532.5 677.84375 C 532.039062 677.535156 531.566406 677.25 531.078125 676.992188 C 530.589844 676.730469 530.089844 676.496094 529.582031 676.285156 C 529.070312 676.070312 528.550781 675.886719 528.023438 675.726562 C 527.492188 675.566406 526.957031 675.433594 526.414062 675.324219 C 525.875 675.21875 525.328125 675.136719 524.777344 675.082031 C 524.230469 675.027344 523.679688 675 523.125 675 L 472.5 675 L 472.5 607.5 L 708.75 607.5 C 709.855469 607.5 710.960938 607.445312 712.058594 607.339844 C 713.160156 607.230469 714.25 607.066406 715.332031 606.851562 C 716.417969 606.636719 717.488281 606.367188 718.546875 606.046875 C 719.605469 605.722656 720.644531 605.351562 721.664062 604.929688 C 722.683594 604.507812 723.683594 604.035156 724.65625 603.515625 C 725.632812 602.992188 726.582031 602.425781 727.5 601.8125 C 728.417969 601.199219 729.304688 600.542969 730.160156 599.839844 C 731.015625 599.140625 731.832031 598.394531 732.613281 597.613281 C 733.394531 596.832031 734.136719 596.015625 734.839844 595.160156 C 735.539062 594.304688 736.199219 593.417969 736.808594 592.5 C 737.425781 591.582031 737.992188 590.632812 738.515625 589.660156 C 739.035156 588.683594 739.507812 587.683594 739.929688 586.664062 C 740.351562 585.644531 740.726562 584.605469 741.046875 583.546875 C 741.367188 582.488281 741.636719 581.417969 741.851562 580.332031 C 742.066406 579.25 742.230469 578.160156 742.339844 577.058594 C 742.445312 575.957031 742.5 574.855469 742.5 573.75 L 742.5 135 C 742.5 133.894531 742.445312 132.792969 742.335938 131.691406 C 742.230469 130.589844 742.066406 129.5 741.851562 128.414062 C 741.636719 127.328125 741.367188 126.261719 741.046875 125.203125 C 740.726562 124.144531 740.351562 123.105469 739.929688 122.082031 C 739.507812 121.0625 739.035156 120.066406 738.515625 119.089844 C 737.992188 118.113281 737.425781 117.167969 736.808594 116.25 C 736.199219 115.328125 735.539062 114.441406 734.839844 113.589844 C 734.136719 112.734375 733.394531 111.917969 732.613281 111.132812 C 731.832031 110.351562 731.015625 109.609375 730.160156 108.910156 C 729.304688 108.207031 728.417969 107.550781 727.5 106.9375 C 726.582031 106.324219 725.632812 105.753906 724.660156 105.234375 C 723.683594 104.710938 722.683594 104.242188 721.664062 103.816406 C 720.644531 103.394531 719.605469 103.023438 718.546875 102.703125 C 717.488281 102.382812 716.417969 102.113281 715.332031 101.898438 C 714.25 101.683594 713.160156 101.519531 712.058594 101.414062 C 710.960938 101.304688 709.855469 101.25 708.75 101.25 Z M 438.75 675 L 371.25 675 L 371.25 607.5 L 438.75 607.5 Z M 708.75 573.75 L 101.25 573.75 L 101.25 506.25 L 708.75 506.25 Z M 708.75 573.75 " fill-opacity="1" fill-rule="nonzero"/><path fill="#009688" d="M 261.257812 178.875 L 211.546875 229.195312 L 199.597656 217.265625 C 199.207031 216.875 198.796875 216.503906 198.371094 216.15625 C 197.945312 215.804688 197.5 215.476562 197.042969 215.167969 C 196.582031 214.863281 196.109375 214.578125 195.621094 214.316406 C 195.132812 214.054688 194.636719 213.820312 194.125 213.609375 C 193.613281 213.398438 193.09375 213.210938 192.566406 213.050781 C 192.039062 212.890625 191.503906 212.757812 190.960938 212.648438 C 190.417969 212.542969 189.871094 212.460938 189.324219 212.40625 C 188.773438 212.351562 188.21875 212.324219 187.667969 212.324219 C 187.117188 212.324219 186.5625 212.351562 186.015625 212.40625 C 185.464844 212.460938 184.921875 212.542969 184.378906 212.648438 C 183.835938 212.757812 183.300781 212.890625 182.773438 213.050781 C 182.242188 213.210938 181.722656 213.398438 181.210938 213.609375 C 180.703125 213.820312 180.203125 214.054688 179.714844 214.316406 C 179.226562 214.578125 178.753906 214.863281 178.292969 215.167969 C 177.835938 215.476562 177.390625 215.804688 176.964844 216.15625 C 176.535156 216.503906 176.125 216.875 175.734375 217.265625 C 175.347656 217.65625 174.976562 218.066406 174.625 218.492188 C 174.277344 218.921875 173.945312 219.363281 173.640625 219.824219 C 173.332031 220.28125 173.050781 220.757812 172.789062 221.242188 C 172.527344 221.730469 172.292969 222.230469 172.078125 222.738281 C 171.867188 223.25 171.683594 223.769531 171.523438 224.300781 C 171.359375 224.828125 171.226562 225.363281 171.117188 225.90625 C 171.011719 226.449219 170.929688 226.992188 170.875 227.542969 C 170.820312 228.09375 170.792969 228.644531 170.792969 229.195312 C 170.792969 229.75 170.820312 230.300781 170.875 230.851562 C 170.929688 231.398438 171.011719 231.945312 171.117188 232.488281 C 171.226562 233.03125 171.359375 233.566406 171.523438 234.09375 C 171.683594 234.621094 171.867188 235.144531 172.078125 235.652344 C 172.292969 236.164062 172.527344 236.664062 172.789062 237.152344 C 173.050781 237.636719 173.332031 238.113281 173.640625 238.570312 C 173.945312 239.03125 174.277344 239.476562 174.625 239.902344 C 174.976562 240.328125 175.347656 240.738281 175.734375 241.125 L 199.597656 264.988281 C 199.988281 265.378906 200.398438 265.75 200.824219 266.101562 C 201.25 266.453125 201.695312 266.78125 202.15625 267.089844 C 202.613281 267.398438 203.089844 267.679688 203.574219 267.941406 C 204.0625 268.203125 204.5625 268.441406 205.074219 268.652344 C 205.582031 268.863281 206.105469 269.050781 206.632812 269.210938 C 207.164062 269.371094 207.699219 269.503906 208.242188 269.613281 C 208.785156 269.722656 209.328125 269.800781 209.878906 269.855469 C 210.429688 269.910156 210.984375 269.9375 211.535156 269.9375 C 212.089844 269.9375 212.640625 269.910156 213.191406 269.855469 C 213.742188 269.800781 214.289062 269.722656 214.832031 269.613281 C 215.375 269.503906 215.910156 269.371094 216.4375 269.210938 C 216.96875 269.050781 217.488281 268.863281 217.996094 268.652344 C 218.507812 268.441406 219.007812 268.203125 219.496094 267.941406 C 219.984375 267.679688 220.457031 267.398438 220.917969 267.089844 C 221.378906 266.785156 221.820312 266.453125 222.246094 266.101562 C 222.675781 265.75 223.085938 265.378906 223.476562 264.988281 L 285.121094 202.734375 C 285.5 202.34375 285.859375 201.933594 286.199219 201.503906 C 286.539062 201.078125 286.859375 200.632812 287.15625 200.175781 C 287.453125 199.714844 287.726562 199.242188 287.976562 198.757812 C 288.226562 198.269531 288.453125 197.773438 288.65625 197.265625 C 288.859375 196.757812 289.035156 196.242188 289.1875 195.71875 C 289.34375 195.195312 289.46875 194.664062 289.570312 194.128906 C 289.667969 193.589844 289.742188 193.050781 289.792969 192.503906 C 289.839844 191.960938 289.859375 191.414062 289.855469 190.867188 C 289.851562 190.320312 289.820312 189.777344 289.761719 189.234375 C 289.703125 188.691406 289.621094 188.152344 289.511719 187.613281 C 289.402344 187.078125 289.265625 186.550781 289.101562 186.027344 C 288.941406 185.507812 288.753906 184.992188 288.542969 184.488281 C 288.332031 183.984375 288.097656 183.492188 287.835938 183.011719 C 287.578125 182.53125 287.296875 182.0625 286.992188 181.609375 C 286.6875 181.152344 286.363281 180.714844 286.015625 180.292969 C 285.667969 179.871094 285.300781 179.46875 284.914062 179.082031 C 284.527344 178.695312 284.125 178.328125 283.703125 177.980469 C 283.277344 177.632812 282.839844 177.308594 282.386719 177.003906 C 281.933594 176.699219 281.464844 176.414062 280.984375 176.15625 C 280.503906 175.898438 280.011719 175.664062 279.507812 175.449219 C 279.003906 175.238281 278.488281 175.054688 277.96875 174.890625 C 277.445312 174.730469 276.917969 174.59375 276.382812 174.484375 C 275.847656 174.375 275.304688 174.292969 274.761719 174.234375 C 274.21875 174.175781 273.675781 174.144531 273.128906 174.140625 C 272.582031 174.132812 272.035156 174.15625 271.492188 174.203125 C 270.949219 174.253906 270.40625 174.328125 269.871094 174.429688 C 269.332031 174.527344 268.800781 174.65625 268.277344 174.808594 C 267.75 174.960938 267.234375 175.136719 266.726562 175.339844 C 266.21875 175.542969 265.722656 175.769531 265.238281 176.019531 C 264.753906 176.269531 264.28125 176.542969 263.820312 176.839844 C 263.363281 177.136719 262.917969 177.457031 262.492188 177.792969 C 262.0625 178.136719 261.652344 178.496094 261.257812 178.875 Z M 261.257812 178.875 " fill-opacity="1" fill-rule="nonzero"/><path fill="#009688" d="M 322.886719 185.625 C 322.886719 186.179688 322.914062 186.730469 322.96875 187.277344 C 323.023438 187.828125 323.101562 188.375 323.210938 188.914062 C 323.316406 189.457031 323.453125 189.992188 323.613281 190.523438 C 323.773438 191.050781 323.957031 191.570312 324.167969 192.082031 C 324.382812 192.589844 324.617188 193.089844 324.878906 193.578125 C 325.140625 194.066406 325.421875 194.539062 325.726562 194.996094 C 326.035156 195.457031 326.363281 195.902344 326.714844 196.328125 C 327.066406 196.757812 327.4375 197.164062 327.828125 197.554688 C 328.21875 197.949219 328.628906 198.320312 329.054688 198.667969 C 329.484375 199.019531 329.925781 199.347656 330.382812 199.65625 C 330.84375 199.964844 331.316406 200.246094 331.804688 200.507812 C 332.292969 200.769531 332.792969 201.003906 333.300781 201.214844 C 333.8125 201.425781 334.332031 201.613281 334.863281 201.773438 C 335.390625 201.933594 335.925781 202.066406 336.46875 202.175781 C 337.011719 202.28125 337.558594 202.363281 338.109375 202.417969 C 338.65625 202.472656 339.207031 202.5 339.761719 202.5 L 474.761719 202.5 C 475.3125 202.5 475.863281 202.472656 476.414062 202.417969 C 476.964844 202.363281 477.511719 202.28125 478.050781 202.175781 C 478.59375 202.066406 479.128906 201.933594 479.660156 201.773438 C 480.1875 201.613281 480.707031 201.425781 481.21875 201.214844 C 481.730469 201.003906 482.230469 200.769531 482.714844 200.507812 C 483.203125 200.246094 483.675781 199.964844 484.136719 199.65625 C 484.597656 199.347656 485.039062 199.019531 485.464844 198.667969 C 485.894531 198.320312 486.300781 197.949219 486.691406 197.554688 C 487.082031 197.164062 487.453125 196.757812 487.804688 196.328125 C 488.15625 195.902344 488.484375 195.457031 488.789062 194.996094 C 489.097656 194.539062 489.382812 194.066406 489.640625 193.578125 C 489.902344 193.089844 490.140625 192.589844 490.347656 192.082031 C 490.5625 191.570312 490.746094 191.050781 490.910156 190.523438 C 491.070312 189.992188 491.203125 189.457031 491.308594 188.914062 C 491.417969 188.375 491.5 187.828125 491.554688 187.277344 C 491.609375 186.730469 491.636719 186.179688 491.636719 185.625 C 491.636719 185.070312 491.609375 184.519531 491.554688 183.96875 C 491.5 183.417969 491.417969 182.875 491.3125 182.332031 C 491.203125 181.789062 491.070312 181.253906 490.910156 180.726562 C 490.746094 180.195312 490.5625 179.679688 490.347656 179.167969 C 490.140625 178.65625 489.902344 178.15625 489.644531 177.667969 C 489.382812 177.183594 489.097656 176.710938 488.789062 176.25 C 488.484375 175.789062 488.15625 175.347656 487.804688 174.917969 C 487.453125 174.492188 487.082031 174.082031 486.691406 173.691406 C 486.300781 173.300781 485.894531 172.929688 485.464844 172.578125 C 485.039062 172.226562 484.597656 171.898438 484.136719 171.59375 C 483.675781 171.285156 483.203125 171.003906 482.714844 170.742188 C 482.230469 170.480469 481.730469 170.246094 481.21875 170.035156 C 480.707031 169.824219 480.1875 169.636719 479.660156 169.476562 C 479.128906 169.316406 478.59375 169.183594 478.050781 169.074219 C 477.511719 168.964844 476.964844 168.886719 476.414062 168.832031 C 475.863281 168.777344 475.3125 168.75 474.761719 168.75 L 339.761719 168.75 C 339.207031 168.75 338.65625 168.777344 338.105469 168.832031 C 337.558594 168.886719 337.011719 168.964844 336.46875 169.074219 C 335.925781 169.183594 335.390625 169.316406 334.859375 169.476562 C 334.332031 169.636719 333.8125 169.824219 333.304688 170.035156 C 332.792969 170.246094 332.292969 170.484375 331.804688 170.742188 C 331.320312 171.003906 330.84375 171.289062 330.386719 171.59375 C 329.925781 171.902344 329.484375 172.230469 329.054688 172.582031 C 328.628906 172.929688 328.21875 173.300781 327.828125 173.691406 C 327.4375 174.082031 327.066406 174.492188 326.71875 174.917969 C 326.367188 175.347656 326.035156 175.789062 325.726562 176.25 C 325.421875 176.710938 325.140625 177.183594 324.878906 177.671875 C 324.617188 178.160156 324.382812 178.660156 324.171875 179.167969 C 323.957031 179.679688 323.773438 180.199219 323.613281 180.726562 C 323.453125 181.257812 323.320312 181.792969 323.210938 182.332031 C 323.105469 182.875 323.023438 183.421875 322.96875 183.972656 C 322.914062 184.519531 322.886719 185.070312 322.886719 185.625 Z M 322.886719 185.625 " fill-opacity="1" fill-rule="nonzero"/><path fill="#009688" d="M 339.761719 270 L 390.386719 270 C 390.9375 270 391.492188 269.972656 392.039062 269.917969 C 392.589844 269.863281 393.136719 269.785156 393.675781 269.675781 C 394.21875 269.570312 394.753906 269.433594 395.28125 269.273438 C 395.8125 269.113281 396.332031 268.925781 396.839844 268.714844 C 397.355469 268.503906 397.851562 268.265625 398.339844 268.007812 C 398.828125 267.746094 399.300781 267.460938 399.757812 267.152344 C 400.21875 266.847656 400.664062 266.519531 401.089844 266.167969 C 401.519531 265.820312 401.925781 265.449219 402.316406 265.058594 C 402.710938 264.667969 403.082031 264.257812 403.429688 263.832031 C 403.78125 263.402344 404.109375 262.960938 404.414062 262.5 C 404.722656 262.039062 405.007812 261.566406 405.269531 261.078125 C 405.527344 260.589844 405.761719 260.089844 405.972656 259.582031 C 406.1875 259.070312 406.371094 258.550781 406.535156 258.023438 C 406.695312 257.492188 406.828125 256.957031 406.933594 256.414062 C 407.042969 255.875 407.125 255.328125 407.179688 254.777344 C 407.234375 254.230469 407.261719 253.679688 407.261719 253.125 C 407.261719 252.574219 407.234375 252.023438 407.179688 251.472656 C 407.125 250.921875 407.042969 250.375 406.933594 249.832031 C 406.828125 249.289062 406.695312 248.753906 406.535156 248.226562 C 406.371094 247.695312 406.1875 247.175781 405.972656 246.667969 C 405.761719 246.15625 405.527344 245.65625 405.269531 245.167969 C 405.007812 244.683594 404.722656 244.207031 404.414062 243.75 C 404.109375 243.289062 403.78125 242.847656 403.429688 242.417969 C 403.082031 241.992188 402.710938 241.582031 402.316406 241.191406 C 401.925781 240.800781 401.519531 240.429688 401.09375 240.078125 C 400.664062 239.726562 400.21875 239.398438 399.757812 239.089844 C 399.300781 238.785156 398.828125 238.503906 398.339844 238.242188 C 397.851562 237.980469 397.355469 237.746094 396.839844 237.535156 C 396.332031 237.320312 395.8125 237.136719 395.28125 236.976562 C 394.753906 236.816406 394.21875 236.679688 393.675781 236.574219 C 393.136719 236.464844 392.589844 236.386719 392.039062 236.332031 C 391.492188 236.277344 390.9375 236.25 390.386719 236.25 L 339.761719 236.25 C 339.207031 236.25 338.65625 236.277344 338.105469 236.332031 C 337.558594 236.386719 337.011719 236.464844 336.46875 236.574219 C 335.925781 236.679688 335.390625 236.816406 334.859375 236.976562 C 334.332031 237.136719 333.8125 237.320312 333.300781 237.535156 C 332.792969 237.746094 332.292969 237.980469 331.804688 238.242188 C 331.316406 238.503906 330.84375 238.785156 330.382812 239.089844 C 329.925781 239.398438 329.484375 239.726562 329.054688 240.078125 C 328.628906 240.429688 328.21875 240.800781 327.828125 241.191406 C 327.4375 241.582031 327.066406 241.992188 326.714844 242.417969 C 326.363281 242.847656 326.035156 243.289062 325.726562 243.75 C 325.421875 244.207031 325.140625 244.683594 324.878906 245.167969 C 324.617188 245.65625 324.382812 246.15625 324.171875 246.667969 C 323.957031 247.175781 323.773438 247.695312 323.613281 248.226562 C 323.453125 248.753906 323.316406 249.289062 323.210938 249.832031 C 323.101562 250.375 323.023438 250.921875 322.96875 251.472656 C 322.914062 252.023438 322.886719 252.574219 322.886719 253.125 C 322.886719 253.679688 322.914062 254.230469 322.96875 254.777344 C 323.023438 255.328125 323.101562 255.875 323.210938 256.414062 C 323.316406 256.957031 323.453125 257.492188 323.613281 258.023438 C 323.773438 258.550781 323.957031 259.070312 324.167969 259.582031 C 324.382812 260.089844 324.617188 260.589844 324.878906 261.078125 C 325.140625 261.566406 325.421875 262.039062 325.726562 262.5 C 326.035156 262.960938 326.363281 263.402344 326.714844 263.832031 C 327.066406 264.257812 327.4375 264.667969 327.828125 265.058594 C 328.21875 265.449219 328.628906 265.820312 329.054688 266.167969 C 329.484375 266.519531 329.925781 266.847656 330.382812 267.152344 C 330.84375 267.460938 331.316406 267.746094 331.804688 268.007812 C 332.292969 268.265625 332.792969 268.503906 333.300781 268.714844 C 333.8125 268.925781 334.332031 269.113281 334.863281 269.273438 C 335.390625 269.433594 335.925781 269.570312 336.46875 269.675781 C 337.011719 269.785156 337.558594 269.863281 338.109375 269.917969 C 338.65625 269.972656 339.207031 270 339.761719 270 Z M 339.761719 270 " fill-opacity="1" fill-rule="nonzero"/><path fill="#009688" d="M 474.761719 320.625 L 339.761719 320.625 C 339.207031 320.625 338.65625 320.652344 338.105469 320.707031 C 337.558594 320.761719 337.011719 320.84375 336.46875 320.949219 C 335.925781 321.058594 335.390625 321.191406 334.859375 321.351562 C 334.332031 321.511719 333.8125 321.695312 333.300781 321.910156 C 332.792969 322.121094 332.292969 322.355469 331.804688 322.617188 C 331.316406 322.878906 330.84375 323.160156 330.382812 323.46875 C 329.925781 323.777344 329.484375 324.105469 329.054688 324.457031 C 328.628906 324.804688 328.21875 325.175781 327.828125 325.566406 C 327.4375 325.957031 327.066406 326.367188 326.714844 326.792969 C 326.363281 327.222656 326.035156 327.664062 325.726562 328.125 C 325.421875 328.582031 325.140625 329.054688 324.878906 329.542969 C 324.617188 330.03125 324.382812 330.53125 324.171875 331.042969 C 323.957031 331.550781 323.773438 332.070312 323.613281 332.601562 C 323.453125 333.128906 323.316406 333.664062 323.210938 334.207031 C 323.101562 334.75 323.023438 335.296875 322.96875 335.847656 C 322.914062 336.398438 322.886719 336.949219 322.886719 337.5 C 322.886719 338.054688 322.914062 338.605469 322.96875 339.15625 C 323.023438 339.703125 323.101562 340.25 323.210938 340.789062 C 323.316406 341.332031 323.453125 341.867188 323.613281 342.398438 C 323.773438 342.925781 323.957031 343.445312 324.167969 343.957031 C 324.382812 344.46875 324.617188 344.964844 324.878906 345.453125 C 325.140625 345.941406 325.421875 346.414062 325.726562 346.875 C 326.035156 347.335938 326.363281 347.777344 326.714844 348.207031 C 327.066406 348.632812 327.4375 349.042969 327.828125 349.433594 C 328.21875 349.824219 328.628906 350.195312 329.054688 350.542969 C 329.484375 350.894531 329.925781 351.222656 330.382812 351.527344 C 330.84375 351.835938 331.316406 352.121094 331.804688 352.382812 C 332.292969 352.644531 332.792969 352.878906 333.300781 353.089844 C 333.8125 353.300781 334.332031 353.488281 334.863281 353.648438 C 335.390625 353.808594 335.925781 353.941406 336.46875 354.050781 C 337.011719 354.15625 337.558594 354.238281 338.109375 354.292969 C 338.65625 354.347656 339.207031 354.375 339.761719 354.375 L 474.761719 354.375 C 475.3125 354.375 475.863281 354.347656 476.414062 354.292969 C 476.964844 354.238281 477.511719 354.15625 478.050781 354.050781 C 478.59375 353.941406 479.128906 353.808594 479.660156 353.648438 C 480.1875 353.488281 480.707031 353.300781 481.21875 353.089844 C 481.730469 352.878906 482.230469 352.644531 482.714844 352.382812 C 483.203125 352.121094 483.675781 351.835938 484.136719 351.527344 C 484.597656 351.222656 485.039062 350.894531 485.464844 350.542969 C 485.894531 350.195312 486.300781 349.824219 486.691406 349.433594 C 487.082031 349.042969 487.453125 348.632812 487.804688 348.207031 C 488.15625 347.777344 488.484375 347.335938 488.789062 346.875 C 489.097656 346.414062 489.382812 345.941406 489.640625 345.453125 C 489.902344 344.96875 490.140625 344.46875 490.347656 343.957031 C 490.5625 343.445312 490.746094 342.925781 490.910156 342.398438 C 491.070312 341.867188 491.203125 341.332031 491.308594 340.789062 C 491.417969 340.25 491.5 339.703125 491.554688 339.152344 C 491.609375 338.605469 491.636719 338.054688 491.636719 337.5 C 491.636719 336.949219 491.609375 336.398438 491.554688 335.847656 C 491.5 335.296875 491.417969 334.75 491.3125 334.207031 C 491.203125 333.664062 491.070312 333.128906 490.910156 332.601562 C 490.746094 332.070312 490.5625 331.550781 490.347656 331.042969 C 490.140625 330.53125 489.902344 330.03125 489.644531 329.542969 C 489.382812 329.058594 489.097656 328.585938 488.789062 328.125 C 488.484375 327.664062 488.15625 327.222656 487.804688 326.796875 C 487.453125 326.367188 487.082031 325.957031 486.691406 325.566406 C 486.300781 325.175781 485.894531 324.804688 485.464844 324.457031 C 485.039062 324.105469 484.597656 323.777344 484.136719 323.46875 C 483.675781 323.160156 483.203125 322.878906 482.714844 322.617188 C 482.230469 322.355469 481.730469 322.121094 481.21875 321.910156 C 480.707031 321.695312 480.1875 321.511719 479.660156 321.351562 C 479.128906 321.191406 478.59375 321.058594 478.050781 320.949219 C 477.511719 320.84375 476.964844 320.761719 476.414062 320.707031 C 475.863281 320.652344 475.3125 320.625 474.761719 320.625 Z M 474.761719 320.625 " fill-opacity="1" fill-rule="nonzero"/><path fill="#009688" d="M 390.386719 388.125 L 339.761719 388.125 C 339.207031 388.125 338.65625 388.152344 338.105469 388.207031 C 337.558594 388.261719 337.011719 388.34375 336.46875 388.449219 C 335.925781 388.558594 335.390625 388.691406 334.859375 388.851562 C 334.332031 389.011719 333.8125 389.195312 333.300781 389.410156 C 332.792969 389.621094 332.292969 389.855469 331.804688 390.117188 C 331.316406 390.378906 330.84375 390.660156 330.382812 390.96875 C 329.925781 391.277344 329.484375 391.605469 329.054688 391.957031 C 328.628906 392.304688 328.21875 392.675781 327.828125 393.066406 C 327.4375 393.457031 327.066406 393.867188 326.714844 394.292969 C 326.363281 394.722656 326.035156 395.164062 325.726562 395.625 C 325.421875 396.082031 325.140625 396.554688 324.878906 397.042969 C 324.617188 397.53125 324.382812 398.03125 324.171875 398.542969 C 323.957031 399.050781 323.773438 399.570312 323.613281 400.097656 C 323.453125 400.628906 323.316406 401.164062 323.210938 401.707031 C 323.101562 402.25 323.023438 402.796875 322.96875 403.347656 C 322.914062 403.898438 322.886719 404.449219 322.886719 405 C 322.886719 405.554688 322.914062 406.105469 322.96875 406.65625 C 323.023438 407.203125 323.101562 407.75 323.210938 408.289062 C 323.316406 408.832031 323.453125 409.367188 323.613281 409.898438 C 323.773438 410.425781 323.957031 410.945312 324.167969 411.457031 C 324.382812 411.96875 324.617188 412.46875 324.878906 412.953125 C 325.140625 413.441406 325.421875 413.914062 325.726562 414.375 C 326.035156 414.835938 326.363281 415.277344 326.714844 415.707031 C 327.066406 416.132812 327.4375 416.539062 327.828125 416.929688 C 328.21875 417.324219 328.628906 417.695312 329.054688 418.042969 C 329.484375 418.394531 329.925781 418.722656 330.382812 419.03125 C 330.84375 419.339844 331.316406 419.621094 331.804688 419.882812 C 332.292969 420.140625 332.792969 420.378906 333.300781 420.589844 C 333.8125 420.800781 334.332031 420.984375 334.863281 421.148438 C 335.390625 421.304688 335.925781 421.441406 336.46875 421.546875 C 337.011719 421.65625 337.558594 421.738281 338.109375 421.792969 C 338.65625 421.847656 339.207031 421.875 339.761719 421.875 L 390.386719 421.875 C 390.9375 421.875 391.492188 421.847656 392.039062 421.792969 C 392.589844 421.738281 393.136719 421.65625 393.675781 421.546875 C 394.21875 421.441406 394.753906 421.304688 395.28125 421.148438 C 395.8125 420.984375 396.332031 420.800781 396.839844 420.589844 C 397.355469 420.378906 397.851562 420.140625 398.339844 419.882812 C 398.828125 419.621094 399.300781 419.335938 399.757812 419.027344 C 400.21875 418.722656 400.664062 418.394531 401.089844 418.042969 C 401.519531 417.695312 401.925781 417.324219 402.316406 416.929688 C 402.710938 416.539062 403.082031 416.132812 403.429688 415.707031 C 403.78125 415.277344 404.109375 414.835938 404.414062 414.375 C 404.722656 413.914062 405.007812 413.441406 405.269531 412.953125 C 405.527344 412.46875 405.761719 411.96875 405.972656 411.457031 C 406.1875 410.945312 406.371094 410.425781 406.535156 409.898438 C 406.695312 409.367188 406.828125 408.832031 406.933594 408.292969 C 407.042969 407.75 407.125 407.203125 407.179688 406.652344 C 407.234375 406.105469 407.261719 405.554688 407.261719 405 C 407.261719 404.449219 407.234375 403.898438 407.179688 403.347656 C 407.125 402.796875 407.042969 402.25 406.933594 401.707031 C 406.828125 401.164062 406.695312 400.628906 406.535156 400.097656 C 406.371094 399.570312 406.1875 399.050781 405.972656 398.542969 C 405.761719 398.03125 405.527344 397.53125 405.269531 397.042969 C 405.007812 396.554688 404.722656 396.082031 404.414062 395.625 C 404.109375 395.164062 403.78125 394.722656 403.429688 394.296875 C 403.082031 393.867188 402.710938 393.457031 402.316406 393.066406 C 401.925781 392.675781 401.519531 392.304688 401.09375 391.957031 C 400.664062 391.605469 400.21875 391.277344 399.757812 390.96875 C 399.300781 390.660156 398.828125 390.378906 398.339844 390.117188 C 397.851562 389.855469 397.355469 389.621094 396.839844 389.410156 C 396.332031 389.195312 395.8125 389.011719 395.28125 388.851562 C 394.753906 388.691406 394.21875 388.558594 393.675781 388.449219 C 393.136719 388.34375 392.589844 388.261719 392.039062 388.207031 C 391.492188 388.152344 390.9375 388.125 390.386719 388.125 Z M 390.386719 388.125 " fill-opacity="1" fill-rule="nonzero"/><path fill="#009688" d="M 269.15625 325.570312 C 268.765625 325.179688 268.359375 324.808594 267.929688 324.460938 C 267.503906 324.109375 267.058594 323.78125 266.601562 323.472656 C 266.144531 323.167969 265.667969 322.882812 265.179688 322.621094 C 264.695312 322.363281 264.195312 322.125 263.683594 321.914062 C 263.171875 321.703125 262.65625 321.515625 262.125 321.355469 C 261.597656 321.195312 261.0625 321.0625 260.519531 320.953125 C 259.976562 320.84375 259.429688 320.765625 258.878906 320.710938 C 258.332031 320.65625 257.777344 320.628906 257.226562 320.628906 C 256.671875 320.628906 256.121094 320.65625 255.574219 320.710938 C 255.023438 320.765625 254.476562 320.84375 253.933594 320.953125 C 253.394531 321.0625 252.859375 321.195312 252.328125 321.355469 C 251.800781 321.515625 251.28125 321.703125 250.769531 321.914062 C 250.261719 322.125 249.761719 322.359375 249.273438 322.621094 C 248.785156 322.882812 248.3125 323.164062 247.855469 323.472656 C 247.394531 323.78125 246.953125 324.109375 246.523438 324.460938 C 246.097656 324.808594 245.6875 325.179688 245.296875 325.570312 L 221.417969 349.429688 L 197.554688 325.570312 C 197.164062 325.179688 196.757812 324.808594 196.332031 324.460938 C 195.902344 324.109375 195.460938 323.78125 195 323.472656 C 194.542969 323.167969 194.070312 322.882812 193.582031 322.621094 C 193.09375 322.363281 192.59375 322.125 192.082031 321.914062 C 191.574219 321.703125 191.054688 321.515625 190.523438 321.355469 C 189.996094 321.195312 189.460938 321.0625 188.917969 320.953125 C 188.375 320.84375 187.828125 320.765625 187.277344 320.710938 C 186.726562 320.65625 186.175781 320.628906 185.625 320.628906 C 185.070312 320.628906 184.519531 320.65625 183.972656 320.710938 C 183.421875 320.765625 182.875 320.84375 182.335938 320.953125 C 181.792969 321.0625 181.257812 321.195312 180.730469 321.355469 C 180.199219 321.515625 179.679688 321.703125 179.167969 321.914062 C 178.660156 322.125 178.160156 322.359375 177.671875 322.621094 C 177.1875 322.882812 176.710938 323.164062 176.253906 323.472656 C 175.792969 323.78125 175.351562 324.109375 174.921875 324.460938 C 174.496094 324.808594 174.085938 325.179688 173.695312 325.570312 C 173.304688 325.960938 172.933594 326.371094 172.582031 326.796875 C 172.234375 327.226562 171.90625 327.667969 171.597656 328.128906 C 171.289062 328.585938 171.007812 329.0625 170.746094 329.546875 C 170.484375 330.035156 170.25 330.535156 170.039062 331.042969 C 169.828125 331.554688 169.640625 332.074219 169.480469 332.605469 C 169.320312 333.132812 169.1875 333.667969 169.078125 334.210938 C 168.972656 334.753906 168.890625 335.296875 168.835938 335.847656 C 168.78125 336.394531 168.753906 336.945312 168.753906 337.5 C 168.753906 338.054688 168.78125 338.605469 168.835938 339.152344 C 168.890625 339.707031 168.972656 340.25 169.078125 340.792969 C 169.1875 341.335938 169.320312 341.871094 169.480469 342.398438 C 169.640625 342.929688 169.828125 343.449219 170.039062 343.957031 C 170.25 344.46875 170.484375 344.96875 170.746094 345.457031 C 171.007812 345.941406 171.289062 346.414062 171.597656 346.875 C 171.90625 347.335938 172.234375 347.777344 172.582031 348.207031 C 172.933594 348.632812 173.304688 349.039062 173.695312 349.429688 L 197.554688 373.292969 L 173.695312 397.171875 C 173.304688 397.5625 172.933594 397.96875 172.582031 398.398438 C 172.234375 398.824219 171.90625 399.269531 171.597656 399.726562 C 171.289062 400.1875 171.007812 400.660156 170.746094 401.148438 C 170.484375 401.636719 170.25 402.132812 170.039062 402.644531 C 169.828125 403.15625 169.640625 403.675781 169.480469 404.203125 C 169.320312 404.730469 169.1875 405.269531 169.078125 405.808594 C 168.972656 406.351562 168.890625 406.898438 168.835938 407.445312 C 168.78125 407.996094 168.753906 408.546875 168.753906 409.097656 C 168.753906 409.652344 168.78125 410.203125 168.835938 410.753906 C 168.890625 411.304688 168.972656 411.851562 169.078125 412.390625 C 169.1875 412.933594 169.320312 413.46875 169.480469 414 C 169.640625 414.527344 169.828125 415.046875 170.039062 415.558594 C 170.25 416.066406 170.484375 416.566406 170.746094 417.054688 C 171.007812 417.542969 171.289062 418.015625 171.597656 418.472656 C 171.90625 418.933594 172.234375 419.378906 172.582031 419.804688 C 172.933594 420.230469 173.304688 420.640625 173.695312 421.03125 C 174.085938 421.421875 174.496094 421.792969 174.921875 422.144531 C 175.351562 422.496094 175.792969 422.824219 176.253906 423.128906 C 176.710938 423.433594 177.1875 423.71875 177.671875 423.980469 C 178.160156 424.242188 178.660156 424.476562 179.167969 424.6875 C 179.679688 424.898438 180.199219 425.085938 180.726562 425.246094 C 181.257812 425.40625 181.792969 425.539062 182.335938 425.648438 C 182.875 425.753906 183.421875 425.835938 183.972656 425.890625 C 184.519531 425.945312 185.070312 425.972656 185.625 425.972656 C 186.175781 425.972656 186.726562 425.945312 187.277344 425.890625 C 187.828125 425.835938 188.375 425.753906 188.917969 425.648438 C 189.460938 425.539062 189.996094 425.40625 190.523438 425.246094 C 191.054688 425.085938 191.574219 424.898438 192.082031 424.6875 C 192.59375 424.476562 193.09375 424.238281 193.582031 423.980469 C 194.070312 423.71875 194.542969 423.433594 195 423.128906 C 195.460938 422.824219 195.902344 422.496094 196.332031 422.144531 C 196.757812 421.792969 197.164062 421.421875 197.554688 421.03125 L 221.417969 397.171875 L 245.296875 421.03125 C 245.6875 421.410156 246.097656 421.769531 246.527344 422.109375 C 246.957031 422.449219 247.398438 422.769531 247.859375 423.066406 C 248.316406 423.363281 248.789062 423.636719 249.273438 423.886719 C 249.761719 424.140625 250.257812 424.367188 250.765625 424.566406 C 251.273438 424.769531 251.789062 424.949219 252.316406 425.101562 C 252.839844 425.253906 253.371094 425.378906 253.90625 425.480469 C 254.445312 425.582031 254.984375 425.65625 255.53125 425.703125 C 256.074219 425.75 256.621094 425.773438 257.164062 425.769531 C 257.710938 425.761719 258.257812 425.734375 258.800781 425.675781 C 259.34375 425.617188 259.882812 425.535156 260.421875 425.425781 C 260.957031 425.3125 261.484375 425.179688 262.007812 425.015625 C 262.527344 424.855469 263.039062 424.667969 263.542969 424.457031 C 264.046875 424.246094 264.542969 424.011719 265.023438 423.75 C 265.503906 423.492188 265.972656 423.210938 266.425781 422.90625 C 266.878906 422.601562 267.316406 422.273438 267.742188 421.925781 C 268.160156 421.578125 268.566406 421.210938 268.953125 420.828125 C 269.335938 420.4375 269.703125 420.035156 270.050781 419.613281 C 270.398438 419.191406 270.726562 418.753906 271.03125 418.300781 C 271.335938 417.847656 271.617188 417.378906 271.875 416.898438 C 272.136719 416.417969 272.371094 415.921875 272.582031 415.417969 C 272.792969 414.914062 272.980469 414.402344 273.140625 413.882812 C 273.304688 413.359375 273.4375 412.828125 273.550781 412.296875 C 273.660156 411.757812 273.742188 411.21875 273.800781 410.675781 C 273.859375 410.132812 273.890625 409.585938 273.894531 409.039062 C 273.898438 408.492188 273.878906 407.949219 273.828125 407.402344 C 273.78125 406.859375 273.707031 406.320312 273.605469 405.78125 C 273.503906 405.246094 273.378906 404.714844 273.226562 404.191406 C 273.074219 403.664062 272.894531 403.148438 272.691406 402.640625 C 272.488281 402.132812 272.261719 401.636719 272.011719 401.152344 C 271.761719 400.664062 271.488281 400.191406 271.191406 399.734375 C 270.894531 399.273438 270.578125 398.832031 270.234375 398.402344 C 269.894531 397.972656 269.535156 397.5625 269.15625 397.171875 L 245.296875 373.292969 L 269.15625 349.429688 C 269.546875 349.039062 269.917969 348.632812 270.269531 348.207031 C 270.617188 347.777344 270.949219 347.335938 271.253906 346.875 C 271.5625 346.414062 271.847656 345.941406 272.105469 345.457031 C 272.367188 344.96875 272.601562 344.46875 272.8125 343.957031 C 273.023438 343.449219 273.210938 342.929688 273.371094 342.402344 C 273.53125 341.871094 273.664062 341.335938 273.773438 340.792969 C 273.878906 340.25 273.960938 339.707031 274.015625 339.15625 C 274.070312 338.605469 274.097656 338.054688 274.097656 337.5 C 274.097656 336.945312 274.070312 336.394531 274.015625 335.847656 C 273.960938 335.296875 273.882812 334.75 273.773438 334.210938 C 273.664062 333.667969 273.53125 333.132812 273.371094 332.605469 C 273.210938 332.074219 273.023438 331.554688 272.8125 331.042969 C 272.601562 330.535156 272.367188 330.035156 272.105469 329.546875 C 271.847656 329.0625 271.5625 328.585938 271.253906 328.128906 C 270.949219 327.667969 270.617188 327.226562 270.269531 326.796875 C 269.917969 326.371094 269.546875 325.960938 269.15625 325.570312 Z M 269.15625 325.570312 " fill-opacity="1" fill-rule="nonzero"/></svg>