<svg xmlns="http://www.w3.org/2000/svg" xmlns:xlink="http://www.w3.org/1999/xlink" width="1080" zoomAndPan="magnify" viewBox="0 0 810 809.999993" height="1080" preserveAspectRatio="xMidYMid meet" version="1.0"><path fill="#009688" d="M 337.5 472.5 L 337.5 691.875 C 337.503906 692.429688 337.476562 692.980469 337.417969 693.527344 C 337.363281 694.078125 337.285156 694.625 337.175781 695.167969 C 337.066406 695.707031 336.933594 696.242188 336.773438 696.773438 C 336.613281 697.300781 336.425781 697.820312 336.210938 698.332031 C 336.003906 698.84375 335.769531 699.339844 335.507812 699.828125 C 335.246094 700.316406 334.960938 700.789062 334.652344 701.25 C 334.347656 701.707031 334.019531 702.152344 333.667969 702.578125 C 333.320312 703.007812 332.949219 703.414062 332.554688 703.804688 C 332.167969 704.199219 331.757812 704.570312 331.328125 704.917969 C 330.902344 705.269531 330.457031 705.597656 329.996094 705.90625 C 329.539062 706.210938 329.066406 706.496094 328.578125 706.757812 C 328.089844 707.015625 327.589844 707.253906 327.078125 707.464844 C 326.570312 707.675781 326.050781 707.863281 325.519531 708.023438 C 324.992188 708.183594 324.457031 708.316406 323.914062 708.425781 C 323.375 708.53125 322.832031 708.613281 322.28125 708.667969 C 321.730469 708.722656 321.179688 708.75 320.625 708.75 L 118.125 708.75 C 117.574219 708.75 117.019531 708.722656 116.472656 708.667969 C 115.921875 708.613281 115.371094 708.53125 114.828125 708.425781 C 114.289062 708.316406 113.75 708.183594 113.222656 708.023438 C 112.695312 707.863281 112.175781 707.675781 111.664062 707.464844 C 111.152344 707.253906 110.65625 707.015625 110.167969 706.757812 C 109.679688 706.496094 109.207031 706.210938 108.75 705.90625 C 108.289062 705.597656 107.847656 705.269531 107.417969 704.917969 C 106.992188 704.566406 106.582031 704.199219 106.191406 703.804688 C 105.800781 703.414062 105.429688 703.007812 105.078125 702.578125 C 104.726562 702.152344 104.398438 701.707031 104.09375 701.25 C 103.785156 700.789062 103.503906 700.316406 103.242188 699.828125 C 102.980469 699.339844 102.746094 698.84375 102.535156 698.332031 C 102.324219 697.820312 102.136719 697.300781 101.976562 696.773438 C 101.816406 696.242188 101.679688 695.707031 101.570312 695.167969 C 101.464844 694.625 101.386719 694.078125 101.332031 693.527344 C 101.277344 692.980469 101.25 692.429688 101.25 691.875 L 101.25 472.5 L 337.5 472.5 M 67.5 455.625 L 67.5 725.625 C 67.5 726.175781 67.527344 726.730469 67.582031 727.277344 C 67.632812 727.828125 67.714844 728.375 67.820312 728.917969 C 67.929688 729.457031 68.066406 729.996094 68.226562 730.523438 C 68.382812 731.050781 68.570312 731.570312 68.78125 732.082031 C 68.992188 732.59375 69.230469 733.09375 69.492188 733.578125 C 69.753906 734.066406 70.035156 734.539062 70.34375 735 C 70.648438 735.460938 70.980469 735.902344 71.332031 736.332031 C 71.679688 736.757812 72.050781 737.167969 72.441406 737.558594 C 72.832031 737.949219 73.242188 738.320312 73.667969 738.667969 C 74.097656 739.019531 74.539062 739.347656 75 739.65625 C 75.457031 739.964844 75.929688 740.246094 76.417969 740.507812 C 76.90625 740.769531 77.402344 741.003906 77.914062 741.214844 C 78.425781 741.425781 78.945312 741.613281 79.472656 741.773438 C 80.003906 741.933594 80.539062 742.066406 81.082031 742.175781 C 81.621094 742.285156 82.171875 742.363281 82.722656 742.417969 C 83.269531 742.472656 83.824219 742.5 84.375 742.5 L 354.375 742.5 C 354.929688 742.5 355.480469 742.472656 356.027344 742.417969 C 356.578125 742.363281 357.125 742.285156 357.667969 742.175781 C 358.207031 742.066406 358.742188 741.933594 359.273438 741.773438 C 359.804688 741.613281 360.320312 741.425781 360.832031 741.214844 C 361.34375 741.003906 361.84375 740.769531 362.332031 740.507812 C 362.820312 740.246094 363.289062 739.964844 363.746094 739.65625 C 364.207031 739.347656 364.648438 739.019531 365.078125 738.667969 C 365.507812 738.320312 365.917969 737.949219 366.304688 737.558594 C 366.699219 737.167969 367.070312 736.757812 367.421875 736.332031 C 367.769531 735.902344 368.097656 735.460938 368.40625 735 C 368.710938 734.539062 368.996094 734.066406 369.257812 733.578125 C 369.519531 733.09375 369.753906 732.59375 369.964844 732.082031 C 370.175781 731.570312 370.363281 731.050781 370.523438 730.523438 C 370.683594 729.996094 370.820312 729.457031 370.925781 728.917969 C 371.035156 728.375 371.117188 727.828125 371.167969 727.277344 C 371.222656 726.730469 371.25 726.175781 371.25 725.625 L 371.25 455.625 C 371.25 455.074219 371.222656 454.519531 371.167969 453.972656 C 371.117188 453.421875 371.035156 452.875 370.925781 452.332031 C 370.820312 451.789062 370.683594 451.253906 370.523438 450.726562 C 370.363281 450.195312 370.175781 449.675781 369.964844 449.167969 C 369.753906 448.65625 369.519531 448.15625 369.257812 447.667969 C 368.996094 447.183594 368.710938 446.707031 368.40625 446.25 C 368.097656 445.789062 367.769531 445.347656 367.421875 444.917969 C 367.070312 444.492188 366.699219 444.082031 366.304688 443.691406 C 365.917969 443.300781 365.507812 442.929688 365.078125 442.578125 C 364.648438 442.230469 364.207031 441.898438 363.746094 441.59375 C 363.289062 441.285156 362.820312 441.003906 362.332031 440.742188 C 361.84375 440.480469 361.34375 440.246094 360.832031 440.035156 C 360.320312 439.824219 359.804688 439.636719 359.273438 439.476562 C 358.742188 439.316406 358.207031 439.179688 357.667969 439.074219 C 357.125 438.964844 356.578125 438.886719 356.027344 438.832031 C 355.480469 438.777344 354.929688 438.75 354.375 438.75 L 84.375 438.75 C 83.824219 438.75 83.273438 438.777344 82.722656 438.832031 C 82.171875 438.886719 81.628906 438.964844 81.082031 439.074219 C 80.542969 439.179688 80.007812 439.316406 79.476562 439.476562 C 78.945312 439.636719 78.429688 439.824219 77.917969 440.035156 C 77.410156 440.246094 76.90625 440.480469 76.417969 440.742188 C 75.933594 441.003906 75.460938 441.285156 75 441.59375 C 74.539062 441.902344 74.097656 442.230469 73.671875 442.582031 C 73.246094 442.929688 72.835938 443.300781 72.445312 443.691406 C 72.054688 444.082031 71.683594 444.492188 71.335938 444.921875 C 70.984375 445.347656 70.652344 445.789062 70.347656 446.25 C 70.039062 446.710938 69.757812 447.183594 69.496094 447.671875 C 69.234375 448.160156 68.996094 448.65625 68.785156 449.167969 C 68.574219 449.679688 68.386719 450.199219 68.230469 450.726562 C 68.070312 451.257812 67.933594 451.789062 67.824219 452.332031 C 67.714844 452.875 67.636719 453.421875 67.582031 453.972656 C 67.527344 454.519531 67.503906 455.074219 67.5 455.625 Z M 67.5 455.625 " fill-opacity="1" fill-rule="nonzero"/><path fill="#009688" d="M 101.25 101.25 L 337.5 101.25 L 337.5 337.5 L 101.25 337.5 L 101.25 101.25 M 67.5 354.375 C 67.5 354.925781 67.527344 355.480469 67.582031 356.027344 C 67.632812 356.578125 67.714844 357.125 67.820312 357.667969 C 67.929688 358.210938 68.066406 358.746094 68.226562 359.273438 C 68.382812 359.800781 68.570312 360.320312 68.78125 360.832031 C 68.992188 361.34375 69.230469 361.839844 69.492188 362.328125 C 69.753906 362.816406 70.035156 363.289062 70.34375 363.75 C 70.648438 364.210938 70.980469 364.652344 71.332031 365.082031 C 71.679688 365.507812 72.050781 365.917969 72.441406 366.308594 C 72.832031 366.699219 73.242188 367.070312 73.667969 367.417969 C 74.097656 367.769531 74.539062 368.097656 75 368.40625 C 75.457031 368.714844 75.929688 368.996094 76.417969 369.257812 C 76.90625 369.519531 77.402344 369.753906 77.914062 369.964844 C 78.425781 370.175781 78.945312 370.363281 79.472656 370.523438 C 80.003906 370.683594 80.539062 370.816406 81.082031 370.925781 C 81.621094 371.035156 82.171875 371.113281 82.722656 371.167969 C 83.269531 371.222656 83.824219 371.25 84.375 371.25 L 354.375 371.25 C 354.929688 371.25 355.480469 371.222656 356.027344 371.167969 C 356.578125 371.113281 357.125 371.035156 357.667969 370.925781 C 358.207031 370.816406 358.742188 370.683594 359.273438 370.523438 C 359.804688 370.363281 360.320312 370.175781 360.832031 369.964844 C 361.34375 369.753906 361.84375 369.519531 362.332031 369.257812 C 362.820312 368.996094 363.289062 368.714844 363.746094 368.40625 C 364.207031 368.097656 364.648438 367.769531 365.078125 367.417969 C 365.507812 367.070312 365.917969 366.699219 366.304688 366.308594 C 366.699219 365.917969 367.070312 365.507812 367.421875 365.082031 C 367.769531 364.652344 368.097656 364.210938 368.40625 363.75 C 368.710938 363.289062 368.996094 362.816406 369.257812 362.328125 C 369.519531 361.839844 369.753906 361.34375 369.964844 360.832031 C 370.175781 360.320312 370.363281 359.800781 370.523438 359.273438 C 370.683594 358.746094 370.820312 358.210938 370.925781 357.667969 C 371.035156 357.125 371.117188 356.578125 371.167969 356.027344 C 371.222656 355.480469 371.25 354.925781 371.25 354.375 L 371.25 84.375 C 371.25 83.824219 371.222656 83.269531 371.167969 82.722656 C 371.117188 82.171875 371.035156 81.625 370.925781 81.082031 C 370.820312 80.539062 370.683594 80.003906 370.523438 79.476562 C 370.363281 78.945312 370.175781 78.425781 369.964844 77.917969 C 369.753906 77.40625 369.519531 76.90625 369.257812 76.417969 C 368.996094 75.933594 368.710938 75.457031 368.40625 75 C 368.097656 74.539062 367.769531 74.097656 367.421875 73.667969 C 367.070312 73.242188 366.699219 72.832031 366.304688 72.441406 C 365.917969 72.050781 365.507812 71.679688 365.078125 71.328125 C 364.648438 70.980469 364.207031 70.652344 363.746094 70.34375 C 363.289062 70.035156 362.820312 69.753906 362.332031 69.492188 C 361.84375 69.230469 361.34375 68.996094 360.832031 68.785156 C 360.320312 68.574219 359.804688 68.386719 359.273438 68.226562 C 358.742188 68.066406 358.207031 67.933594 357.667969 67.824219 C 357.125 67.71875 356.578125 67.636719 356.027344 67.582031 C 355.480469 67.527344 354.929688 67.5 354.375 67.5 L 84.375 67.5 C 83.824219 67.5 83.273438 67.527344 82.722656 67.582031 C 82.171875 67.636719 81.628906 67.71875 81.082031 67.824219 C 80.542969 67.933594 80.007812 68.066406 79.476562 68.226562 C 78.945312 68.386719 78.429688 68.574219 77.917969 68.785156 C 77.410156 68.996094 76.90625 69.230469 76.417969 69.492188 C 75.933594 69.753906 75.460938 70.039062 75 70.34375 C 74.539062 70.652344 74.097656 70.980469 73.671875 71.332031 C 73.246094 71.683594 72.835938 72.050781 72.445312 72.441406 C 72.054688 72.832031 71.683594 73.242188 71.335938 73.671875 C 70.984375 74.097656 70.652344 74.539062 70.347656 75 C 70.039062 75.460938 69.757812 75.933594 69.496094 76.421875 C 69.234375 76.90625 68.996094 77.40625 68.785156 77.917969 C 68.574219 78.425781 68.386719 78.945312 68.230469 79.476562 C 68.070312 80.003906 67.933594 80.539062 67.824219 81.082031 C 67.714844 81.625 67.636719 82.171875 67.582031 82.722656 C 67.527344 83.269531 67.503906 83.824219 67.5 84.375 Z M 67.5 354.375 " fill-opacity="1" fill-rule="nonzero"/><path fill="#009688" d="M 472.5 101.25 L 708.75 101.25 L 708.75 337.5 L 472.5 337.5 L 472.5 101.25 M 438.75 354.375 C 438.753906 354.925781 438.777344 355.480469 438.832031 356.027344 C 438.886719 356.578125 438.964844 357.125 439.070312 357.667969 C 439.179688 358.210938 439.316406 358.746094 439.476562 359.273438 C 439.632812 359.800781 439.820312 360.320312 440.03125 360.832031 C 440.242188 361.34375 440.480469 361.839844 440.738281 362.328125 C 441 362.816406 441.285156 363.289062 441.589844 363.75 C 441.898438 364.210938 442.226562 364.652344 442.578125 365.082031 C 442.929688 365.507812 443.300781 365.917969 443.691406 366.308594 C 444.082031 366.699219 444.492188 367.070312 444.917969 367.417969 C 445.34375 367.769531 445.789062 368.097656 446.25 368.40625 C 446.707031 368.714844 447.179688 368.996094 447.667969 369.257812 C 448.15625 369.519531 448.652344 369.753906 449.164062 369.964844 C 449.675781 370.175781 450.195312 370.363281 450.726562 370.523438 C 451.257812 370.683594 451.789062 370.816406 452.332031 370.925781 C 452.875 371.035156 453.421875 371.113281 453.972656 371.167969 C 454.523438 371.222656 455.074219 371.25 455.625 371.25 L 725.625 371.25 C 726.179688 371.25 726.730469 371.222656 727.277344 371.167969 C 727.828125 371.113281 728.371094 371.035156 728.914062 370.925781 C 729.457031 370.816406 729.992188 370.683594 730.519531 370.523438 C 731.050781 370.363281 731.570312 370.175781 732.078125 369.964844 C 732.589844 369.753906 733.089844 369.519531 733.578125 369.257812 C 734.0625 368.996094 734.535156 368.714844 734.996094 368.40625 C 735.453125 368.097656 735.898438 367.769531 736.328125 367.417969 C 736.757812 367.070312 737.164062 366.699219 737.554688 366.308594 C 737.945312 365.917969 738.316406 365.507812 738.667969 365.082031 C 739.015625 364.652344 739.347656 364.210938 739.652344 363.75 C 739.960938 363.289062 740.246094 362.816406 740.507812 362.328125 C 740.765625 361.839844 741 361.34375 741.210938 360.832031 C 741.425781 360.320312 741.609375 359.800781 741.773438 359.273438 C 741.929688 358.746094 742.066406 358.210938 742.175781 357.667969 C 742.285156 357.125 742.363281 356.578125 742.417969 356.027344 C 742.472656 355.480469 742.5 354.925781 742.5 354.375 L 742.5 84.375 C 742.5 83.824219 742.472656 83.269531 742.417969 82.722656 C 742.363281 82.171875 742.285156 81.625 742.175781 81.082031 C 742.066406 80.539062 741.929688 80.003906 741.769531 79.476562 C 741.609375 78.945312 741.425781 78.425781 741.210938 77.917969 C 741 77.40625 740.765625 76.90625 740.507812 76.417969 C 740.246094 75.933594 739.960938 75.457031 739.652344 75 C 739.347656 74.539062 739.015625 74.097656 738.667969 73.667969 C 738.316406 73.242188 737.945312 72.832031 737.554688 72.441406 C 737.164062 72.050781 736.757812 71.679688 736.328125 71.328125 C 735.898438 70.980469 735.453125 70.652344 734.992188 70.34375 C 734.535156 70.035156 734.0625 69.753906 733.578125 69.492188 C 733.089844 69.230469 732.589844 68.996094 732.078125 68.785156 C 731.570312 68.574219 731.050781 68.386719 730.519531 68.226562 C 729.992188 68.066406 729.457031 67.933594 728.914062 67.824219 C 728.371094 67.71875 727.828125 67.636719 727.277344 67.582031 C 726.730469 67.527344 726.179688 67.5 725.625 67.5 L 455.625 67.5 C 455.074219 67.5 454.523438 67.527344 453.972656 67.582031 C 453.421875 67.636719 452.875 67.71875 452.332031 67.824219 C 451.789062 67.933594 451.257812 68.066406 450.726562 68.226562 C 450.195312 68.386719 449.675781 68.574219 449.164062 68.785156 C 448.652344 68.996094 448.15625 69.230469 447.667969 69.492188 C 447.179688 69.753906 446.707031 70.039062 446.25 70.34375 C 445.789062 70.652344 445.34375 70.980469 444.917969 71.332031 C 444.492188 71.683594 444.082031 72.050781 443.691406 72.441406 C 443.300781 72.832031 442.929688 73.242188 442.578125 73.671875 C 442.230469 74.097656 441.902344 74.539062 441.59375 75 C 441.289062 75.460938 441.003906 75.933594 440.742188 76.421875 C 440.484375 76.90625 440.246094 77.40625 440.035156 77.917969 C 439.824219 78.425781 439.636719 78.945312 439.480469 79.476562 C 439.320312 80.003906 439.183594 80.539062 439.074219 81.082031 C 438.964844 81.625 438.886719 82.171875 438.832031 82.722656 C 438.777344 83.269531 438.753906 83.824219 438.75 84.375 Z M 438.75 354.375 " fill-opacity="1" fill-rule="nonzero"/><path fill="#009688" d="M 716.140625 607.5 C 716.148438 601.292969 715.585938 595.140625 714.453125 589.039062 L 734.148438 577.664062 C 734.625 577.386719 735.089844 577.089844 735.539062 576.765625 C 735.992188 576.445312 736.421875 576.101562 736.835938 575.738281 C 737.253906 575.375 737.652344 574.988281 738.027344 574.585938 C 738.40625 574.183594 738.761719 573.761719 739.097656 573.324219 C 739.433594 572.886719 739.746094 572.429688 740.039062 571.960938 C 740.332031 571.492188 740.597656 571.011719 740.84375 570.515625 C 741.085938 570.019531 741.304688 569.511719 741.5 568.996094 C 741.695312 568.476562 741.867188 567.953125 742.007812 567.417969 C 742.148438 566.882812 742.265625 566.34375 742.359375 565.800781 C 742.445312 565.253906 742.511719 564.707031 742.546875 564.15625 C 742.582031 563.601562 742.589844 563.050781 742.574219 562.5 C 742.554688 561.945312 742.511719 561.394531 742.4375 560.847656 C 742.367188 560.300781 742.265625 559.757812 742.140625 559.21875 C 742.015625 558.679688 741.867188 558.152344 741.6875 557.625 C 741.511719 557.101562 741.308594 556.589844 741.078125 556.085938 C 740.851562 555.582031 740.597656 555.09375 740.324219 554.613281 L 723.449219 525.386719 C 723.167969 524.90625 722.871094 524.445312 722.550781 523.992188 C 722.226562 523.546875 721.882812 523.113281 721.519531 522.699219 C 721.15625 522.28125 720.769531 521.886719 720.367188 521.507812 C 719.964844 521.128906 719.542969 520.773438 719.105469 520.4375 C 718.667969 520.097656 718.210938 519.785156 717.742188 519.492188 C 717.273438 519.203125 716.792969 518.933594 716.296875 518.6875 C 715.800781 518.445312 715.292969 518.226562 714.773438 518.03125 C 714.257812 517.835938 713.734375 517.667969 713.199219 517.523438 C 712.664062 517.382812 712.125 517.265625 711.582031 517.175781 C 711.035156 517.085938 710.488281 517.023438 709.9375 516.984375 C 709.382812 516.949219 708.832031 516.941406 708.28125 516.957031 C 707.726562 516.976562 707.179688 517.019531 706.628906 517.09375 C 706.085938 517.167969 705.539062 517.265625 705.003906 517.390625 C 704.464844 517.515625 703.933594 517.667969 703.410156 517.84375 C 702.886719 518.023438 702.371094 518.226562 701.867188 518.453125 C 701.363281 518.679688 700.875 518.933594 700.398438 519.210938 L 680.703125 530.585938 C 671.160156 522.445312 660.472656 516.296875 648.640625 512.140625 L 648.640625 489.375 C 648.640625 488.824219 648.613281 488.269531 648.558594 487.722656 C 648.503906 487.171875 648.421875 486.625 648.3125 486.082031 C 648.207031 485.539062 648.074219 485.003906 647.910156 484.476562 C 647.75 483.949219 647.566406 483.425781 647.351562 482.917969 C 647.140625 482.40625 646.90625 481.90625 646.644531 481.421875 C 646.386719 480.933594 646.101562 480.460938 645.792969 480 C 645.484375 479.539062 645.15625 479.097656 644.808594 478.667969 C 644.460938 478.242188 644.089844 477.832031 643.695312 477.441406 C 643.308594 477.050781 642.898438 476.679688 642.472656 476.332031 C 642.042969 475.980469 641.597656 475.652344 641.140625 475.34375 C 640.679688 475.035156 640.207031 474.753906 639.71875 474.492188 C 639.230469 474.230469 638.730469 473.996094 638.21875 473.785156 C 637.710938 473.574219 637.191406 473.386719 636.664062 473.226562 C 636.132812 473.066406 635.597656 472.929688 635.054688 472.824219 C 634.515625 472.714844 633.96875 472.636719 633.421875 472.582031 C 632.871094 472.527344 632.320312 472.5 631.765625 472.5 L 598.015625 472.5 C 597.464844 472.5 596.910156 472.527344 596.363281 472.582031 C 595.8125 472.636719 595.265625 472.714844 594.722656 472.824219 C 594.179688 472.929688 593.648438 473.066406 593.117188 473.226562 C 592.589844 473.386719 592.070312 473.574219 591.558594 473.785156 C 591.050781 473.996094 590.550781 474.230469 590.0625 474.492188 C 589.574219 474.753906 589.101562 475.035156 588.640625 475.34375 C 588.183594 475.652344 587.738281 475.980469 587.3125 476.332031 C 586.886719 476.679688 586.476562 477.050781 586.085938 477.441406 C 585.695312 477.832031 585.324219 478.242188 584.972656 478.671875 C 584.621094 479.097656 584.292969 479.539062 583.984375 480 C 583.679688 480.460938 583.398438 480.933594 583.136719 481.421875 C 582.875 481.910156 582.640625 482.40625 582.429688 482.917969 C 582.214844 483.429688 582.03125 483.949219 581.867188 484.476562 C 581.707031 485.007812 581.574219 485.539062 581.464844 486.082031 C 581.359375 486.625 581.277344 487.171875 581.222656 487.722656 C 581.167969 488.269531 581.144531 488.824219 581.140625 489.375 L 581.140625 512.140625 C 569.304688 516.296875 558.621094 522.445312 549.078125 530.582031 L 529.386719 519.210938 C 528.90625 518.933594 528.417969 518.679688 527.914062 518.453125 C 527.410156 518.226562 526.898438 518.023438 526.375 517.84375 C 525.851562 517.667969 525.320312 517.515625 524.78125 517.390625 C 524.242188 517.265625 523.699219 517.164062 523.152344 517.09375 C 522.605469 517.019531 522.054688 516.976562 521.5 516.957031 C 520.949219 516.941406 520.398438 516.949219 519.84375 516.984375 C 519.296875 517.023438 518.746094 517.085938 518.203125 517.175781 C 517.65625 517.265625 517.117188 517.382812 516.582031 517.523438 C 516.046875 517.667969 515.523438 517.835938 515.003906 518.03125 C 514.488281 518.226562 513.984375 518.445312 513.488281 518.6875 C 512.988281 518.933594 512.507812 519.203125 512.039062 519.492188 C 511.570312 519.785156 511.113281 520.101562 510.675781 520.4375 C 510.234375 520.773438 509.816406 521.128906 509.414062 521.507812 C 509.007812 521.886719 508.625 522.28125 508.261719 522.695312 C 507.898438 523.113281 507.554688 523.546875 507.234375 523.996094 C 506.910156 524.445312 506.613281 524.90625 506.335938 525.386719 L 489.460938 554.613281 C 489.183594 555.089844 488.929688 555.582031 488.699219 556.085938 C 488.472656 556.589844 488.269531 557.101562 488.089844 557.625 C 487.914062 558.148438 487.761719 558.679688 487.636719 559.21875 C 487.511719 559.757812 487.414062 560.300781 487.34375 560.847656 C 487.269531 561.394531 487.226562 561.945312 487.207031 562.5 C 487.1875 563.050781 487.199219 563.601562 487.234375 564.152344 C 487.273438 564.707031 487.335938 565.253906 487.425781 565.800781 C 487.515625 566.34375 487.632812 566.882812 487.773438 567.417969 C 487.917969 567.953125 488.085938 568.476562 488.277344 568.996094 C 488.472656 569.511719 488.691406 570.019531 488.9375 570.515625 C 489.183594 571.011719 489.453125 571.492188 489.742188 571.960938 C 490.035156 572.429688 490.347656 572.882812 490.683594 573.324219 C 491.019531 573.761719 491.378906 574.183594 491.757812 574.585938 C 492.132812 574.988281 492.53125 575.371094 492.945312 575.738281 C 493.359375 576.101562 493.792969 576.445312 494.242188 576.765625 C 494.695312 577.089844 495.15625 577.386719 495.636719 577.664062 L 515.328125 589.039062 C 514.15625 595.136719 513.574219 601.289062 513.574219 607.5 C 513.574219 613.707031 514.15625 619.863281 515.328125 625.960938 L 495.636719 637.335938 C 495.15625 637.609375 494.695312 637.910156 494.242188 638.230469 C 493.792969 638.554688 493.359375 638.898438 492.945312 639.261719 C 492.53125 639.625 492.132812 640.007812 491.757812 640.414062 C 491.378906 640.816406 491.019531 641.238281 490.683594 641.675781 C 490.347656 642.113281 490.035156 642.566406 489.742188 643.035156 C 489.453125 643.507812 489.183594 643.988281 488.9375 644.484375 C 488.691406 644.980469 488.472656 645.488281 488.277344 646.003906 C 488.085938 646.523438 487.917969 647.046875 487.773438 647.582031 C 487.632812 648.117188 487.515625 648.65625 487.425781 649.199219 C 487.335938 649.746094 487.273438 650.292969 487.234375 650.84375 C 487.199219 651.398438 487.1875 651.949219 487.207031 652.5 C 487.226562 653.054688 487.269531 653.601562 487.34375 654.152344 C 487.414062 654.699219 487.511719 655.242188 487.636719 655.78125 C 487.761719 656.316406 487.914062 656.847656 488.089844 657.371094 C 488.269531 657.894531 488.472656 658.410156 488.699219 658.914062 C 488.929688 659.417969 489.183594 659.90625 489.460938 660.386719 L 506.335938 689.613281 C 506.613281 690.09375 506.910156 690.554688 507.234375 691.003906 C 507.554688 691.453125 507.898438 691.886719 508.261719 692.300781 C 508.625 692.71875 509.007812 693.113281 509.414062 693.492188 C 509.816406 693.871094 510.238281 694.226562 510.675781 694.5625 C 511.117188 694.898438 511.570312 695.214844 512.039062 695.503906 C 512.507812 695.796875 512.988281 696.066406 513.488281 696.308594 C 513.984375 696.554688 514.488281 696.773438 515.007812 696.96875 C 515.523438 697.164062 516.046875 697.332031 516.582031 697.472656 C 517.117188 697.617188 517.65625 697.734375 518.203125 697.824219 C 518.746094 697.914062 519.292969 697.976562 519.84375 698.011719 C 520.394531 698.050781 520.949219 698.058594 521.5 698.042969 C 522.054688 698.023438 522.605469 697.976562 523.152344 697.90625 C 523.699219 697.832031 524.242188 697.734375 524.78125 697.609375 C 525.320312 697.484375 525.851562 697.332031 526.375 697.152344 C 526.898438 696.976562 527.410156 696.773438 527.914062 696.546875 C 528.417969 696.316406 528.90625 696.066406 529.386719 695.789062 L 549.078125 684.414062 C 558.621094 692.554688 569.304688 698.703125 581.140625 702.859375 L 581.140625 725.625 C 581.144531 726.175781 581.167969 726.730469 581.222656 727.277344 C 581.277344 727.828125 581.355469 728.375 581.460938 728.917969 C 581.570312 729.457031 581.707031 729.996094 581.867188 730.523438 C 582.027344 731.050781 582.210938 731.570312 582.421875 732.082031 C 582.632812 732.59375 582.871094 733.09375 583.132812 733.578125 C 583.390625 734.066406 583.675781 734.539062 583.980469 735 C 584.289062 735.460938 584.617188 735.902344 584.96875 736.332031 C 585.320312 736.757812 585.691406 737.167969 586.082031 737.558594 C 586.472656 737.949219 586.882812 738.320312 587.3125 738.667969 C 587.738281 739.019531 588.179688 739.347656 588.640625 739.65625 C 589.097656 739.964844 589.574219 740.246094 590.058594 740.507812 C 590.546875 740.769531 591.046875 741.003906 591.554688 741.214844 C 592.066406 741.425781 592.589844 741.613281 593.117188 741.773438 C 593.648438 741.933594 594.179688 742.066406 594.722656 742.175781 C 595.265625 742.285156 595.8125 742.363281 596.363281 742.417969 C 596.910156 742.472656 597.464844 742.5 598.015625 742.5 L 631.765625 742.5 C 632.320312 742.5 632.871094 742.472656 633.421875 742.417969 C 633.96875 742.363281 634.515625 742.285156 635.054688 742.175781 C 635.597656 742.066406 636.132812 741.933594 636.664062 741.773438 C 637.191406 741.613281 637.710938 741.425781 638.21875 741.214844 C 638.730469 741.003906 639.230469 740.769531 639.71875 740.507812 C 640.207031 740.246094 640.679688 739.964844 641.140625 739.65625 C 641.597656 739.347656 642.042969 739.019531 642.472656 738.667969 C 642.898438 738.320312 643.308594 737.949219 643.695312 737.558594 C 644.089844 737.167969 644.460938 736.757812 644.808594 736.332031 C 645.15625 735.902344 645.484375 735.460938 645.792969 735 C 646.101562 734.539062 646.386719 734.066406 646.648438 733.578125 C 646.90625 733.09375 647.140625 732.59375 647.351562 732.082031 C 647.566406 731.570312 647.75 731.050781 647.910156 730.523438 C 648.074219 729.996094 648.207031 729.457031 648.3125 728.917969 C 648.421875 728.375 648.503906 727.828125 648.558594 727.277344 C 648.613281 726.730469 648.640625 726.175781 648.640625 725.625 L 648.640625 702.859375 C 660.472656 698.703125 671.160156 692.554688 680.703125 684.417969 L 700.398438 695.789062 C 700.875 696.066406 701.367188 696.320312 701.871094 696.546875 C 702.375 696.773438 702.886719 696.976562 703.410156 697.15625 C 703.933594 697.332031 704.464844 697.484375 705.003906 697.609375 C 705.539062 697.734375 706.085938 697.835938 706.628906 697.90625 C 707.179688 697.980469 707.730469 698.023438 708.285156 698.042969 C 708.835938 698.0625 709.386719 698.050781 709.941406 698.015625 C 710.496094 697.976562 711.042969 697.914062 711.589844 697.824219 C 712.132812 697.734375 712.671875 697.617188 713.203125 697.476562 C 713.738281 697.332031 714.261719 697.164062 714.78125 696.96875 C 715.296875 696.773438 715.800781 696.554688 716.296875 696.3125 C 716.792969 696.066406 717.277344 695.800781 717.746094 695.507812 C 718.214844 695.214844 718.667969 694.902344 719.105469 694.5625 C 719.546875 694.226562 719.96875 693.871094 720.371094 693.492188 C 720.773438 693.113281 721.15625 692.71875 721.523438 692.304688 C 721.886719 691.886719 722.226562 691.457031 722.550781 691.007812 C 722.871094 690.558594 723.167969 690.09375 723.449219 689.613281 L 740.324219 660.386719 C 740.597656 659.910156 740.851562 659.417969 741.078125 658.914062 C 741.308594 658.410156 741.511719 657.898438 741.6875 657.375 C 741.867188 656.851562 742.019531 656.320312 742.144531 655.78125 C 742.269531 655.242188 742.367188 654.699219 742.4375 654.152344 C 742.511719 653.605469 742.554688 653.054688 742.574219 652.5 C 742.59375 651.949219 742.582031 651.398438 742.546875 650.847656 C 742.511719 650.292969 742.445312 649.746094 742.359375 649.203125 C 742.269531 648.65625 742.152344 648.117188 742.007812 647.582031 C 741.867188 647.046875 741.695312 646.523438 741.503906 646.007812 C 741.308594 645.488281 741.085938 644.980469 740.839844 644.484375 C 740.597656 643.992188 740.332031 643.507812 740.039062 643.039062 C 739.746094 642.570312 739.433594 642.117188 739.097656 641.675781 C 738.757812 641.238281 738.402344 640.816406 738.027344 640.414062 C 737.648438 640.011719 737.25 639.628906 736.835938 639.261719 C 736.421875 638.898438 735.992188 638.554688 735.539062 638.234375 C 735.089844 637.910156 734.625 637.613281 734.148438 637.335938 L 714.453125 625.960938 C 715.585938 619.859375 716.148438 613.707031 716.140625 607.5 Z M 614.890625 641.25 C 613.785156 641.25 612.683594 641.195312 611.582031 641.085938 C 610.484375 640.980469 609.390625 640.816406 608.304688 640.601562 C 607.21875 640.386719 606.148438 640.117188 605.09375 639.796875 C 604.035156 639.476562 602.996094 639.105469 601.972656 638.679688 C 600.953125 638.257812 599.953125 637.785156 598.980469 637.265625 C 598.003906 636.742188 597.058594 636.175781 596.136719 635.5625 C 595.21875 634.949219 594.332031 634.289062 593.480469 633.589844 C 592.625 632.886719 591.808594 632.144531 591.023438 631.363281 C 590.242188 630.582031 589.503906 629.765625 588.800781 628.910156 C 588.097656 628.054688 587.441406 627.167969 586.824219 626.25 C 586.210938 625.332031 585.644531 624.382812 585.121094 623.410156 C 584.601562 622.433594 584.128906 621.4375 583.707031 620.414062 C 583.285156 619.394531 582.914062 618.355469 582.59375 617.296875 C 582.273438 616.238281 582.003906 615.167969 581.789062 614.082031 C 581.574219 613 581.414062 611.90625 581.304688 610.808594 C 581.195312 609.707031 581.144531 608.605469 581.140625 607.5 C 581.144531 606.394531 581.195312 605.292969 581.304688 604.191406 C 581.414062 603.089844 581.574219 602 581.789062 600.914062 C 582.003906 599.832031 582.273438 598.761719 582.589844 597.703125 C 582.914062 596.644531 583.285156 595.605469 583.707031 594.585938 C 584.128906 593.5625 584.597656 592.566406 585.121094 591.589844 C 585.640625 590.613281 586.210938 589.667969 586.824219 588.75 C 587.4375 587.828125 588.097656 586.945312 588.800781 586.089844 C 589.503906 585.234375 590.242188 584.417969 591.023438 583.632812 C 591.808594 582.851562 592.625 582.109375 593.480469 581.410156 C 594.332031 580.710938 595.21875 580.050781 596.136719 579.4375 C 597.058594 578.824219 598.003906 578.257812 598.980469 577.734375 C 599.953125 577.214844 600.953125 576.742188 601.972656 576.320312 C 602.996094 575.894531 604.035156 575.523438 605.09375 575.203125 C 606.148438 574.882812 607.21875 574.613281 608.304688 574.398438 C 609.390625 574.183594 610.484375 574.019531 611.582031 573.914062 C 612.683594 573.804688 613.785156 573.75 614.890625 573.75 C 615.996094 573.75 617.097656 573.804688 618.203125 573.914062 C 619.300781 574.019531 620.390625 574.183594 621.476562 574.398438 C 622.558594 574.613281 623.632812 574.882812 624.6875 575.203125 C 625.746094 575.523438 626.785156 575.894531 627.804688 576.320312 C 628.828125 576.742188 629.824219 577.214844 630.796875 577.734375 C 631.773438 578.257812 632.722656 578.824219 633.636719 579.4375 C 634.558594 580.050781 635.445312 580.710938 636.300781 581.410156 C 637.15625 582.109375 637.972656 582.851562 638.753906 583.632812 C 639.535156 584.417969 640.277344 585.234375 640.976562 586.089844 C 641.679688 586.945312 642.335938 587.828125 642.949219 588.75 C 643.566406 589.667969 644.132812 590.613281 644.65625 591.589844 C 645.175781 592.566406 645.644531 593.5625 646.066406 594.585938 C 646.492188 595.605469 646.867188 596.644531 647.1875 597.703125 C 647.507812 598.761719 647.773438 599.832031 647.988281 600.914062 C 648.207031 602 648.371094 603.089844 648.476562 604.191406 C 648.585938 605.292969 648.640625 606.394531 648.640625 607.5 C 648.640625 608.605469 648.585938 609.707031 648.476562 610.808594 C 648.371094 611.90625 648.207031 613 647.988281 614.082031 C 647.773438 615.167969 647.507812 616.238281 647.1875 617.296875 C 646.867188 618.355469 646.492188 619.394531 646.066406 620.414062 C 645.644531 621.4375 645.175781 622.433594 644.652344 623.410156 C 644.132812 624.382812 643.566406 625.332031 642.949219 626.25 C 642.335938 627.167969 641.679688 628.054688 640.976562 628.910156 C 640.277344 629.765625 639.535156 630.582031 638.753906 631.363281 C 637.972656 632.144531 637.15625 632.886719 636.300781 633.589844 C 635.445312 634.289062 634.558594 634.949219 633.636719 635.5625 C 632.722656 636.175781 631.773438 636.742188 630.796875 637.265625 C 629.824219 637.785156 628.828125 638.257812 627.804688 638.679688 C 626.785156 639.105469 625.746094 639.476562 624.6875 639.796875 C 623.632812 640.117188 622.558594 640.386719 621.476562 640.601562 C 620.390625 640.816406 619.300781 640.980469 618.203125 641.085938 C 617.097656 641.195312 615.996094 641.25 614.890625 641.25 Z M 614.890625 641.25 " fill-opacity="1" fill-rule="nonzero"/><path fill="#009688" d="M 708.75 168.75 L 472.5 168.75 L 472.5 135 L 708.75 135 Z M 708.75 168.75 " fill-opacity="1" fill-rule="nonzero"/><path fill="#009688" d="M 337.5 168.75 L 101.25 168.75 L 101.25 135 L 337.5 135 Z M 337.5 168.75 " fill-opacity="1" fill-rule="nonzero"/><path fill="#009688" d="M 101.25 506.25 L 337.5 506.25 L 337.5 540 L 101.25 540 Z M 101.25 506.25 " fill-opacity="1" fill-rule="nonzero"/></svg>