<svg xmlns="http://www.w3.org/2000/svg" xmlns:xlink="http://www.w3.org/1999/xlink" width="1080" zoomAndPan="magnify" viewBox="0 0 810 809.999993" height="1080" preserveAspectRatio="xMidYMid meet" version="1.0"><path fill="#009688" d="M 573.96875 233.347656 C 573.964844 231.132812 573.75 228.9375 573.316406 226.765625 C 572.886719 224.589844 572.246094 222.480469 571.394531 220.433594 C 570.546875 218.386719 569.507812 216.441406 568.277344 214.597656 C 567.042969 212.757812 565.644531 211.054688 564.078125 209.484375 L 431.964844 77.390625 C 430.398438 75.820312 428.691406 74.421875 426.851562 73.191406 C 425.011719 71.960938 423.066406 70.921875 421.019531 70.070312 C 418.96875 69.222656 416.859375 68.582031 414.6875 68.148438 C 412.515625 67.71875 410.320312 67.5 408.105469 67.5 L 135 67.5 C 133.894531 67.5 132.792969 67.554688 131.695312 67.664062 C 130.59375 67.769531 129.503906 67.933594 128.417969 68.148438 C 127.332031 68.363281 126.261719 68.632812 125.203125 68.953125 C 124.148438 69.273438 123.109375 69.648438 122.085938 70.070312 C 121.066406 70.492188 120.066406 70.964844 119.089844 71.484375 C 118.117188 72.007812 117.167969 72.574219 116.25 73.1875 C 115.332031 73.800781 114.445312 74.460938 113.589844 75.160156 C 112.734375 75.863281 111.917969 76.605469 111.136719 77.386719 C 110.355469 78.167969 109.613281 78.984375 108.914062 79.839844 C 108.210938 80.695312 107.554688 81.582031 106.941406 82.5 C 106.324219 83.417969 105.757812 84.367188 105.238281 85.339844 C 104.71875 86.316406 104.246094 87.3125 103.820312 88.335938 C 103.398438 89.355469 103.027344 90.394531 102.707031 91.453125 C 102.382812 92.511719 102.113281 93.582031 101.898438 94.664062 C 101.683594 95.75 101.523438 96.839844 101.414062 97.941406 C 101.304688 99.042969 101.253906 100.144531 101.25 101.25 L 101.25 607.5 C 101.25 608.605469 101.304688 609.707031 101.410156 610.808594 C 101.519531 611.90625 101.679688 613 101.894531 614.082031 C 102.109375 615.167969 102.378906 616.238281 102.703125 617.296875 C 103.023438 618.355469 103.394531 619.394531 103.816406 620.414062 C 104.242188 621.4375 104.710938 622.433594 105.234375 623.410156 C 105.753906 624.382812 106.320312 625.332031 106.933594 626.25 C 107.550781 627.167969 108.207031 628.054688 108.910156 628.910156 C 109.609375 629.765625 110.351562 630.582031 111.132812 631.363281 C 111.917969 632.144531 112.734375 632.886719 113.585938 633.589844 C 114.441406 634.289062 115.328125 634.949219 116.246094 635.5625 C 117.167969 636.175781 118.113281 636.742188 119.089844 637.265625 C 120.0625 637.785156 121.0625 638.257812 122.082031 638.679688 C 123.105469 639.105469 124.144531 639.476562 125.203125 639.796875 C 126.257812 640.117188 127.332031 640.386719 128.414062 640.601562 C 129.5 640.816406 130.589844 640.980469 131.695312 641.085938 C 132.792969 641.195312 133.894531 641.25 135 641.25 L 540.21875 641.25 C 541.324219 641.25 542.425781 641.195312 543.527344 641.085938 C 544.625 640.980469 545.714844 640.816406 546.800781 640.601562 C 547.886719 640.386719 548.957031 640.117188 550.015625 639.796875 C 551.070312 639.476562 552.109375 639.105469 553.128906 638.679688 C 554.152344 638.257812 555.152344 637.785156 556.128906 637.265625 C 557.101562 636.742188 558.046875 636.175781 558.964844 635.5625 C 559.886719 634.949219 560.773438 634.289062 561.628906 633.589844 C 562.480469 632.886719 563.300781 632.144531 564.082031 631.363281 C 564.863281 630.582031 565.605469 629.765625 566.308594 628.910156 C 567.007812 628.054688 567.664062 627.167969 568.277344 626.25 C 568.894531 625.332031 569.460938 624.382812 569.980469 623.410156 C 570.503906 622.433594 570.976562 621.4375 571.398438 620.414062 C 571.820312 619.394531 572.191406 618.355469 572.515625 617.296875 C 572.832031 616.238281 573.101562 615.167969 573.316406 614.082031 C 573.535156 613 573.695312 611.90625 573.804688 610.808594 C 573.914062 609.707031 573.96875 608.605469 573.96875 607.5 Z M 540.21875 607.5 L 135 607.5 L 135 101.25 L 405.21875 101.25 L 405.21875 236.25 C 405.21875 236.800781 405.246094 237.355469 405.300781 237.902344 C 405.351562 238.453125 405.433594 239 405.539062 239.542969 C 405.648438 240.082031 405.78125 240.617188 405.941406 241.148438 C 406.101562 241.675781 406.289062 242.195312 406.5 242.707031 C 406.710938 243.21875 406.949219 243.714844 407.210938 244.203125 C 407.46875 244.691406 407.753906 245.164062 408.058594 245.625 C 408.367188 246.085938 408.695312 246.527344 409.046875 246.953125 C 409.398438 247.382812 409.769531 247.792969 410.160156 248.183594 C 410.550781 248.574219 410.960938 248.945312 411.386719 249.292969 C 411.8125 249.644531 412.257812 249.972656 412.71875 250.28125 C 413.179688 250.585938 413.652344 250.871094 414.140625 251.132812 C 414.628906 251.394531 415.125 251.628906 415.632812 251.839844 C 416.144531 252.050781 416.664062 252.238281 417.195312 252.398438 C 417.722656 252.558594 418.257812 252.691406 418.800781 252.800781 C 419.34375 252.910156 419.890625 252.988281 420.441406 253.042969 C 420.992188 253.097656 421.542969 253.125 422.09375 253.125 L 540.21875 253.125 Z M 540.21875 607.5 " fill-opacity="1" fill-rule="nonzero"/><path fill="#009688" d="M 276.089844 313.875 L 226.359375 364.195312 L 214.429688 352.265625 C 214.039062 351.875 213.628906 351.503906 213.203125 351.15625 C 212.773438 350.804688 212.328125 350.476562 211.871094 350.167969 C 211.414062 349.859375 210.941406 349.578125 210.453125 349.316406 C 209.964844 349.054688 209.464844 348.820312 208.953125 348.609375 C 208.445312 348.398438 207.925781 348.210938 207.394531 348.050781 C 206.867188 347.890625 206.332031 347.757812 205.789062 347.648438 C 205.246094 347.542969 204.703125 347.460938 204.152344 347.40625 C 203.605469 347.351562 203.050781 347.324219 202.496094 347.324219 C 201.945312 347.324219 201.394531 347.351562 200.847656 347.40625 C 200.296875 347.460938 199.75 347.542969 199.207031 347.648438 C 198.667969 347.757812 198.132812 347.890625 197.605469 348.050781 C 197.074219 348.210938 196.554688 348.398438 196.042969 348.609375 C 195.535156 348.820312 195.035156 349.054688 194.546875 349.316406 C 194.058594 349.578125 193.585938 349.859375 193.125 350.167969 C 192.664062 350.476562 192.222656 350.804688 191.796875 351.15625 C 191.367188 351.503906 190.957031 351.875 190.570312 352.265625 C 190.179688 352.65625 189.808594 353.066406 189.457031 353.492188 C 189.105469 353.917969 188.773438 354.363281 188.46875 354.820312 C 188.160156 355.28125 187.878906 355.753906 187.617188 356.242188 C 187.355469 356.730469 187.121094 357.230469 186.910156 357.738281 C 186.699219 358.25 186.511719 358.769531 186.351562 359.296875 C 186.191406 359.828125 186.054688 360.363281 185.949219 360.90625 C 185.839844 361.445312 185.761719 361.992188 185.707031 362.542969 C 185.652344 363.09375 185.628906 363.644531 185.628906 364.195312 C 185.628906 364.75 185.652344 365.300781 185.707031 365.847656 C 185.761719 366.398438 185.839844 366.945312 185.949219 367.488281 C 186.054688 368.03125 186.191406 368.566406 186.351562 369.09375 C 186.511719 369.621094 186.699219 370.140625 186.910156 370.652344 C 187.121094 371.164062 187.355469 371.660156 187.617188 372.148438 C 187.878906 372.636719 188.160156 373.109375 188.46875 373.570312 C 188.773438 374.027344 189.105469 374.472656 189.457031 374.898438 C 189.808594 375.328125 190.179688 375.734375 190.570312 376.125 L 214.429688 399.988281 C 214.820312 400.378906 215.230469 400.75 215.65625 401.101562 C 216.082031 401.449219 216.527344 401.78125 216.984375 402.085938 C 217.445312 402.394531 217.917969 402.675781 218.40625 402.9375 C 218.894531 403.199219 219.394531 403.433594 219.902344 403.644531 C 220.414062 403.855469 220.933594 404.042969 221.464844 404.203125 C 221.992188 404.363281 222.527344 404.496094 223.070312 404.605469 C 223.609375 404.710938 224.160156 404.792969 224.707031 404.847656 C 225.257812 404.902344 225.804688 404.929688 226.359375 404.929688 C 226.914062 404.929688 227.464844 404.902344 228.015625 404.847656 C 228.5625 404.792969 229.109375 404.710938 229.652344 404.605469 C 230.195312 404.496094 230.730469 404.363281 231.257812 404.203125 C 231.789062 404.042969 232.304688 403.855469 232.8125 403.644531 C 233.324219 403.433594 233.824219 403.199219 234.3125 402.9375 C 234.800781 402.675781 235.273438 402.394531 235.734375 402.085938 C 236.191406 401.78125 236.636719 401.449219 237.0625 401.101562 C 237.488281 400.75 237.898438 400.378906 238.289062 399.988281 L 299.953125 337.738281 C 300.355469 337.347656 300.738281 336.941406 301.097656 336.515625 C 301.464844 336.089844 301.804688 335.648438 302.121094 335.1875 C 302.441406 334.726562 302.734375 334.253906 303.007812 333.761719 C 303.277344 333.273438 303.519531 332.773438 303.742188 332.257812 C 303.960938 331.746094 304.15625 331.222656 304.328125 330.6875 C 304.496094 330.15625 304.640625 329.617188 304.753906 329.070312 C 304.867188 328.519531 304.957031 327.96875 305.015625 327.414062 C 305.078125 326.859375 305.109375 326.300781 305.117188 325.742188 C 305.121094 325.179688 305.097656 324.625 305.046875 324.066406 C 305 323.511719 304.921875 322.957031 304.816406 322.410156 C 304.710938 321.859375 304.578125 321.316406 304.417969 320.78125 C 304.257812 320.242188 304.074219 319.71875 303.859375 319.199219 C 303.648438 318.683594 303.414062 318.175781 303.152344 317.683594 C 302.886719 317.1875 302.601562 316.707031 302.292969 316.242188 C 301.984375 315.777344 301.652344 315.328125 301.296875 314.894531 C 300.945312 314.460938 300.570312 314.046875 300.175781 313.652344 C 299.777344 313.257812 299.363281 312.882812 298.933594 312.527344 C 298.5 312.175781 298.050781 311.84375 297.585938 311.53125 C 297.117188 311.222656 296.640625 310.9375 296.148438 310.675781 C 295.65625 310.414062 295.148438 310.175781 294.628906 309.964844 C 294.113281 309.753906 293.589844 309.566406 293.050781 309.410156 C 292.511719 309.25 291.972656 309.117188 291.421875 309.011719 C 290.871094 308.90625 290.320312 308.828125 289.761719 308.777344 C 289.203125 308.726562 288.644531 308.707031 288.085938 308.710938 C 287.527344 308.714844 286.96875 308.75 286.414062 308.808594 C 285.859375 308.871094 285.308594 308.957031 284.757812 309.074219 C 284.214844 309.1875 283.671875 309.332031 283.136719 309.5 C 282.605469 309.671875 282.082031 309.863281 281.570312 310.085938 C 281.058594 310.308594 280.554688 310.554688 280.066406 310.824219 C 279.578125 311.09375 279.101562 311.390625 278.640625 311.707031 C 278.183594 312.023438 277.738281 312.367188 277.3125 312.726562 C 276.886719 313.089844 276.480469 313.472656 276.089844 313.875 Z M 276.089844 313.875 " fill-opacity="1" fill-rule="nonzero"/><path fill="#009688" d="M 276.089844 195.75 L 226.359375 246.070312 L 214.429688 234.140625 C 214.039062 233.75 213.628906 233.378906 213.203125 233.027344 C 212.773438 232.679688 212.328125 232.351562 211.871094 232.042969 C 211.414062 231.734375 210.941406 231.453125 210.453125 231.191406 C 209.964844 230.929688 209.464844 230.695312 208.953125 230.484375 C 208.445312 230.273438 207.925781 230.085938 207.394531 229.925781 C 206.867188 229.765625 206.332031 229.632812 205.789062 229.523438 C 205.246094 229.417969 204.703125 229.335938 204.152344 229.28125 C 203.605469 229.226562 203.050781 229.199219 202.496094 229.199219 C 201.945312 229.199219 201.394531 229.226562 200.847656 229.28125 C 200.296875 229.335938 199.75 229.417969 199.207031 229.523438 C 198.667969 229.632812 198.132812 229.765625 197.605469 229.925781 C 197.074219 230.085938 196.554688 230.273438 196.042969 230.484375 C 195.535156 230.695312 195.035156 230.929688 194.546875 231.191406 C 194.058594 231.453125 193.585938 231.734375 193.125 232.042969 C 192.664062 232.351562 192.222656 232.679688 191.796875 233.027344 C 191.367188 233.378906 190.957031 233.75 190.570312 234.140625 C 190.179688 234.53125 189.808594 234.941406 189.457031 235.367188 C 189.105469 235.792969 188.773438 236.238281 188.46875 236.695312 C 188.160156 237.15625 187.878906 237.628906 187.617188 238.117188 C 187.355469 238.605469 187.121094 239.105469 186.910156 239.613281 C 186.699219 240.125 186.511719 240.644531 186.351562 241.171875 C 186.191406 241.703125 186.054688 242.238281 185.949219 242.78125 C 185.839844 243.320312 185.761719 243.867188 185.707031 244.417969 C 185.652344 244.96875 185.628906 245.519531 185.628906 246.070312 C 185.628906 246.625 185.652344 247.175781 185.707031 247.726562 C 185.761719 248.273438 185.839844 248.820312 185.949219 249.363281 C 186.054688 249.902344 186.191406 250.4375 186.351562 250.96875 C 186.511719 251.496094 186.699219 252.015625 186.910156 252.527344 C 187.121094 253.039062 187.355469 253.535156 187.617188 254.023438 C 187.878906 254.511719 188.160156 254.984375 188.46875 255.445312 C 188.773438 255.902344 189.105469 256.347656 189.457031 256.773438 C 189.808594 257.203125 190.179688 257.609375 190.570312 258 L 214.429688 281.863281 C 214.820312 282.253906 215.230469 282.625 215.65625 282.976562 C 216.082031 283.324219 216.527344 283.652344 216.984375 283.960938 C 217.445312 284.269531 217.917969 284.550781 218.40625 284.8125 C 218.894531 285.070312 219.394531 285.308594 219.902344 285.519531 C 220.414062 285.730469 220.933594 285.917969 221.464844 286.078125 C 221.992188 286.238281 222.527344 286.371094 223.070312 286.480469 C 223.609375 286.585938 224.160156 286.667969 224.707031 286.722656 C 225.257812 286.777344 225.804688 286.804688 226.359375 286.804688 C 226.914062 286.804688 227.464844 286.777344 228.015625 286.722656 C 228.5625 286.667969 229.109375 286.585938 229.652344 286.480469 C 230.195312 286.371094 230.730469 286.238281 231.257812 286.078125 C 231.789062 285.917969 232.304688 285.730469 232.8125 285.519531 C 233.324219 285.308594 233.824219 285.070312 234.3125 284.8125 C 234.800781 284.550781 235.273438 284.269531 235.734375 283.960938 C 236.191406 283.652344 236.636719 283.324219 237.0625 282.976562 C 237.488281 282.625 237.898438 282.253906 238.289062 281.863281 L 299.953125 219.613281 C 300.355469 219.222656 300.738281 218.816406 301.097656 218.390625 C 301.464844 217.964844 301.804688 217.523438 302.121094 217.0625 C 302.441406 216.601562 302.734375 216.128906 303.007812 215.636719 C 303.277344 215.148438 303.519531 214.648438 303.742188 214.132812 C 303.960938 213.621094 304.15625 213.097656 304.328125 212.5625 C 304.496094 212.03125 304.640625 211.492188 304.753906 210.945312 C 304.867188 210.394531 304.957031 209.84375 305.015625 209.289062 C 305.078125 208.734375 305.109375 208.175781 305.117188 207.617188 C 305.121094 207.058594 305.097656 206.5 305.046875 205.941406 C 305 205.386719 304.921875 204.832031 304.816406 204.285156 C 304.710938 203.734375 304.578125 203.191406 304.417969 202.65625 C 304.257812 202.121094 304.074219 201.59375 303.859375 201.074219 C 303.648438 200.558594 303.414062 200.050781 303.152344 199.558594 C 302.886719 199.0625 302.601562 198.582031 302.292969 198.117188 C 301.984375 197.652344 301.652344 197.203125 301.296875 196.769531 C 300.945312 196.335938 300.570312 195.921875 300.175781 195.527344 C 299.777344 195.132812 299.363281 194.757812 298.933594 194.402344 C 298.5 194.050781 298.050781 193.71875 297.585938 193.40625 C 297.117188 193.097656 296.640625 192.8125 296.148438 192.550781 C 295.65625 192.289062 295.148438 192.050781 294.628906 191.839844 C 294.113281 191.628906 293.589844 191.445312 293.050781 191.285156 C 292.511719 191.125 291.972656 190.992188 291.421875 190.886719 C 290.871094 190.78125 290.320312 190.703125 289.761719 190.652344 C 289.203125 190.601562 288.644531 190.582031 288.085938 190.585938 C 287.527344 190.589844 286.96875 190.625 286.414062 190.683594 C 285.859375 190.746094 285.308594 190.832031 284.757812 190.949219 C 284.214844 191.0625 283.671875 191.207031 283.136719 191.375 C 282.605469 191.542969 282.082031 191.738281 281.570312 191.960938 C 281.058594 192.183594 280.554688 192.425781 280.066406 192.699219 C 279.578125 192.96875 279.101562 193.265625 278.640625 193.582031 C 278.183594 193.902344 277.738281 194.242188 277.3125 194.601562 C 276.886719 194.964844 276.480469 195.347656 276.089844 195.75 Z M 276.089844 195.75 " fill-opacity="1" fill-rule="nonzero"/><path fill="#009688" d="M 337.71875 320.625 C 337.714844 321.179688 337.742188 321.730469 337.796875 322.277344 C 337.855469 322.828125 337.933594 323.375 338.042969 323.917969 C 338.152344 324.457031 338.285156 324.992188 338.445312 325.523438 C 338.605469 326.050781 338.789062 326.570312 339 327.082031 C 339.210938 327.59375 339.449219 328.09375 339.710938 328.578125 C 339.96875 329.066406 340.253906 329.539062 340.558594 330 C 340.867188 330.460938 341.199219 330.902344 341.550781 331.328125 C 341.898438 331.757812 342.269531 332.167969 342.660156 332.558594 C 343.050781 332.949219 343.460938 333.320312 343.886719 333.667969 C 344.3125 334.019531 344.757812 334.347656 345.214844 334.65625 C 345.675781 334.960938 346.148438 335.246094 346.636719 335.507812 C 347.125 335.769531 347.625 336.003906 348.136719 336.214844 C 348.644531 336.425781 349.164062 336.613281 349.695312 336.773438 C 350.222656 336.933594 350.761719 337.066406 351.300781 337.175781 C 351.84375 337.285156 352.390625 337.363281 352.9375 337.417969 C 353.488281 337.472656 354.042969 337.5 354.59375 337.5 L 489.59375 337.5 C 490.148438 337.5 490.699219 337.472656 491.246094 337.417969 C 491.796875 337.363281 492.34375 337.285156 492.882812 337.175781 C 493.425781 337.066406 493.960938 336.933594 494.492188 336.773438 C 495.019531 336.613281 495.539062 336.425781 496.050781 336.214844 C 496.558594 336.003906 497.058594 335.769531 497.546875 335.507812 C 498.035156 335.246094 498.507812 334.964844 498.964844 334.65625 C 499.425781 334.347656 499.871094 334.019531 500.300781 333.667969 C 500.726562 333.320312 501.136719 332.949219 501.523438 332.558594 C 501.917969 332.167969 502.289062 331.757812 502.636719 331.328125 C 502.988281 330.902344 503.316406 330.460938 503.621094 330 C 503.929688 329.539062 504.210938 329.066406 504.46875 328.578125 C 504.730469 328.09375 504.96875 327.59375 505.179688 327.082031 C 505.390625 326.570312 505.578125 326.050781 505.738281 325.523438 C 505.898438 324.992188 506.03125 324.457031 506.140625 323.917969 C 506.25 323.375 506.332031 322.828125 506.386719 322.277344 C 506.445312 321.730469 506.46875 321.179688 506.46875 320.625 C 506.46875 320.074219 506.445312 319.519531 506.386719 318.972656 C 506.332031 318.421875 506.25 317.875 506.140625 317.332031 C 506.03125 316.789062 505.898438 316.253906 505.738281 315.726562 C 505.578125 315.195312 505.390625 314.675781 505.179688 314.167969 C 504.96875 313.65625 504.730469 313.15625 504.46875 312.667969 C 504.210938 312.183594 503.929688 311.707031 503.621094 311.25 C 503.316406 310.789062 502.988281 310.347656 502.636719 309.917969 C 502.289062 309.492188 501.917969 309.082031 501.523438 308.691406 C 501.136719 308.300781 500.726562 307.929688 500.300781 307.578125 C 499.871094 307.230469 499.425781 306.898438 498.964844 306.59375 C 498.507812 306.285156 498.035156 306.003906 497.546875 305.742188 C 497.058594 305.480469 496.558594 305.246094 496.050781 305.035156 C 495.539062 304.824219 495.019531 304.636719 494.492188 304.476562 C 493.960938 304.316406 493.425781 304.183594 492.882812 304.074219 C 492.34375 303.964844 491.796875 303.886719 491.246094 303.832031 C 490.699219 303.777344 490.148438 303.75 489.59375 303.75 L 354.59375 303.75 C 354.042969 303.75 353.488281 303.777344 352.9375 303.832031 C 352.390625 303.886719 351.84375 303.96875 351.300781 304.074219 C 350.761719 304.183594 350.226562 304.316406 349.695312 304.476562 C 349.167969 304.636719 348.648438 304.824219 348.136719 305.035156 C 347.628906 305.246094 347.128906 305.480469 346.640625 305.742188 C 346.152344 306.003906 345.679688 306.285156 345.21875 306.59375 C 344.761719 306.902344 344.316406 307.230469 343.890625 307.582031 C 343.464844 307.929688 343.054688 308.300781 342.664062 308.691406 C 342.273438 309.082031 341.902344 309.492188 341.550781 309.921875 C 341.199219 310.347656 340.871094 310.789062 340.5625 311.25 C 340.253906 311.710938 339.972656 312.183594 339.710938 312.671875 C 339.449219 313.15625 339.214844 313.65625 339.003906 314.167969 C 338.792969 314.679688 338.609375 315.199219 338.445312 315.726562 C 338.285156 316.253906 338.152344 316.789062 338.042969 317.332031 C 337.933594 317.875 337.855469 318.421875 337.796875 318.972656 C 337.742188 319.519531 337.714844 320.074219 337.71875 320.625 Z M 337.71875 320.625 " fill-opacity="1" fill-rule="nonzero"/><path fill="#009688" d="M 354.59375 405 L 405.21875 405 C 405.773438 405 406.324219 404.972656 406.871094 404.917969 C 407.421875 404.863281 407.964844 404.78125 408.507812 404.675781 C 409.050781 404.566406 409.585938 404.433594 410.117188 404.273438 C 410.644531 404.113281 411.164062 403.925781 411.675781 403.714844 C 412.1875 403.503906 412.683594 403.265625 413.175781 403.007812 C 413.660156 402.746094 414.132812 402.460938 414.59375 402.15625 C 415.050781 401.847656 415.496094 401.519531 415.925781 401.167969 C 416.351562 400.820312 416.761719 400.449219 417.152344 400.058594 C 417.542969 399.667969 417.914062 399.257812 418.265625 398.832031 C 418.613281 398.402344 418.941406 397.960938 419.246094 397.5 C 419.554688 397.039062 419.839844 396.566406 420.101562 396.078125 C 420.359375 395.589844 420.59375 395.09375 420.804688 394.582031 C 421.019531 394.070312 421.207031 393.550781 421.367188 393.023438 C 421.523438 392.496094 421.660156 391.960938 421.765625 391.417969 C 421.875 390.875 421.957031 390.328125 422.011719 389.777344 C 422.066406 389.230469 422.09375 388.675781 422.09375 388.125 C 422.09375 387.574219 422.066406 387.019531 422.011719 386.472656 C 421.960938 385.921875 421.878906 385.375 421.769531 384.832031 C 421.660156 384.289062 421.523438 383.753906 421.367188 383.226562 C 421.207031 382.699219 421.019531 382.175781 420.804688 381.667969 C 420.59375 381.15625 420.359375 380.65625 420.101562 380.171875 C 419.839844 379.683594 419.554688 379.210938 419.25 378.75 C 418.941406 378.289062 418.613281 377.847656 418.265625 377.417969 C 417.914062 376.992188 417.542969 376.582031 417.152344 376.191406 C 416.761719 375.800781 416.351562 375.429688 415.925781 375.082031 C 415.496094 374.730469 415.050781 374.402344 414.59375 374.09375 C 414.132812 373.785156 413.660156 373.503906 413.175781 373.242188 C 412.683594 372.980469 412.1875 372.746094 411.675781 372.535156 C 411.164062 372.324219 410.644531 372.136719 410.117188 371.976562 C 409.585938 371.816406 409.050781 371.683594 408.507812 371.574219 C 407.964844 371.46875 407.421875 371.386719 406.871094 371.332031 C 406.324219 371.277344 405.773438 371.25 405.21875 371.25 L 354.59375 371.25 C 354.042969 371.25 353.488281 371.277344 352.9375 371.332031 C 352.390625 371.386719 351.839844 371.46875 351.300781 371.574219 C 350.757812 371.683594 350.222656 371.816406 349.691406 371.976562 C 349.164062 372.136719 348.644531 372.324219 348.132812 372.535156 C 347.625 372.746094 347.125 372.980469 346.636719 373.242188 C 346.148438 373.503906 345.675781 373.789062 345.214844 374.09375 C 344.757812 374.402344 344.316406 374.730469 343.890625 375.082031 C 343.460938 375.429688 343.050781 375.800781 342.660156 376.191406 C 342.269531 376.582031 341.898438 376.992188 341.550781 377.417969 C 341.199219 377.847656 340.867188 378.289062 340.558594 378.75 C 340.253906 379.210938 339.96875 379.683594 339.710938 380.171875 C 339.449219 380.65625 339.210938 381.15625 339 381.667969 C 338.789062 382.175781 338.605469 382.699219 338.445312 383.226562 C 338.285156 383.753906 338.152344 384.289062 338.042969 384.832031 C 337.933594 385.375 337.855469 385.921875 337.796875 386.472656 C 337.742188 387.019531 337.714844 387.574219 337.71875 388.125 C 337.714844 388.675781 337.742188 389.230469 337.796875 389.777344 C 337.855469 390.328125 337.933594 390.875 338.042969 391.417969 C 338.152344 391.960938 338.285156 392.496094 338.445312 393.023438 C 338.605469 393.550781 338.789062 394.070312 339 394.582031 C 339.210938 395.09375 339.449219 395.589844 339.710938 396.078125 C 339.96875 396.566406 340.253906 397.039062 340.558594 397.5 C 340.867188 397.960938 341.199219 398.402344 341.550781 398.832031 C 341.898438 399.257812 342.269531 399.667969 342.660156 400.058594 C 343.050781 400.449219 343.460938 400.820312 343.886719 401.167969 C 344.3125 401.519531 344.757812 401.847656 345.214844 402.15625 C 345.675781 402.460938 346.148438 402.746094 346.636719 403.007812 C 347.125 403.265625 347.625 403.503906 348.136719 403.714844 C 348.644531 403.925781 349.164062 404.113281 349.695312 404.273438 C 350.222656 404.433594 350.761719 404.566406 351.300781 404.675781 C 351.84375 404.78125 352.390625 404.863281 352.9375 404.917969 C 353.488281 404.972656 354.042969 405 354.59375 405 Z M 354.59375 405 " fill-opacity="1" fill-rule="nonzero"/><path fill="#009688" d="M 489.59375 455.625 L 354.59375 455.625 C 354.042969 455.625 353.488281 455.652344 352.9375 455.707031 C 352.390625 455.761719 351.839844 455.84375 351.300781 455.949219 C 350.757812 456.058594 350.222656 456.191406 349.691406 456.351562 C 349.164062 456.511719 348.644531 456.699219 348.132812 456.910156 C 347.625 457.121094 347.125 457.355469 346.636719 457.617188 C 346.148438 457.878906 345.675781 458.160156 345.214844 458.46875 C 344.757812 458.777344 344.316406 459.105469 343.890625 459.457031 C 343.460938 459.804688 343.050781 460.175781 342.660156 460.566406 C 342.269531 460.957031 341.898438 461.367188 341.550781 461.792969 C 341.199219 462.222656 340.867188 462.664062 340.558594 463.125 C 340.253906 463.585938 339.96875 464.058594 339.710938 464.546875 C 339.449219 465.03125 339.210938 465.53125 339 466.042969 C 338.789062 466.550781 338.605469 467.074219 338.445312 467.601562 C 338.285156 468.128906 338.152344 468.664062 338.042969 469.207031 C 337.933594 469.75 337.855469 470.296875 337.796875 470.847656 C 337.742188 471.394531 337.714844 471.949219 337.71875 472.5 C 337.714844 473.054688 337.742188 473.605469 337.796875 474.15625 C 337.855469 474.703125 337.933594 475.25 338.042969 475.792969 C 338.152344 476.335938 338.285156 476.871094 338.445312 477.398438 C 338.605469 477.925781 338.789062 478.445312 339 478.957031 C 339.210938 479.46875 339.449219 479.96875 339.710938 480.453125 C 339.96875 480.941406 340.253906 481.414062 340.558594 481.875 C 340.867188 482.335938 341.199219 482.777344 341.550781 483.207031 C 341.898438 483.632812 342.269531 484.042969 342.660156 484.433594 C 343.050781 484.824219 343.460938 485.195312 343.886719 485.542969 C 344.3125 485.894531 344.757812 486.222656 345.214844 486.53125 C 345.675781 486.835938 346.148438 487.121094 346.636719 487.382812 C 347.125 487.640625 347.625 487.878906 348.136719 488.089844 C 348.644531 488.300781 349.164062 488.488281 349.695312 488.648438 C 350.222656 488.808594 350.761719 488.941406 351.300781 489.050781 C 351.84375 489.15625 352.390625 489.238281 352.9375 489.292969 C 353.488281 489.347656 354.042969 489.375 354.59375 489.375 L 489.59375 489.375 C 490.148438 489.375 490.699219 489.347656 491.246094 489.292969 C 491.796875 489.238281 492.34375 489.15625 492.882812 489.050781 C 493.425781 488.941406 493.960938 488.808594 494.492188 488.648438 C 495.019531 488.488281 495.539062 488.300781 496.050781 488.089844 C 496.558594 487.878906 497.058594 487.640625 497.546875 487.382812 C 498.035156 487.121094 498.507812 486.835938 498.964844 486.53125 C 499.425781 486.222656 499.871094 485.894531 500.300781 485.542969 C 500.726562 485.195312 501.136719 484.824219 501.523438 484.433594 C 501.917969 484.042969 502.289062 483.632812 502.636719 483.207031 C 502.988281 482.777344 503.316406 482.335938 503.621094 481.875 C 503.929688 481.414062 504.210938 480.941406 504.46875 480.453125 C 504.730469 479.96875 504.96875 479.46875 505.179688 478.957031 C 505.390625 478.445312 505.578125 477.925781 505.738281 477.398438 C 505.898438 476.871094 506.03125 476.335938 506.140625 475.792969 C 506.25 475.25 506.332031 474.703125 506.386719 474.15625 C 506.445312 473.605469 506.46875 473.054688 506.46875 472.5 C 506.46875 471.949219 506.445312 471.394531 506.386719 470.847656 C 506.332031 470.296875 506.25 469.75 506.140625 469.207031 C 506.03125 468.664062 505.898438 468.128906 505.738281 467.601562 C 505.578125 467.074219 505.390625 466.550781 505.179688 466.042969 C 504.96875 465.53125 504.730469 465.03125 504.46875 464.546875 C 504.210938 464.058594 503.929688 463.585938 503.621094 463.125 C 503.316406 462.664062 502.988281 462.222656 502.636719 461.792969 C 502.289062 461.367188 501.917969 460.957031 501.523438 460.566406 C 501.136719 460.175781 500.726562 459.804688 500.300781 459.453125 C 499.871094 459.105469 499.425781 458.777344 498.964844 458.46875 C 498.507812 458.160156 498.035156 457.878906 497.546875 457.617188 C 497.058594 457.355469 496.558594 457.121094 496.050781 456.910156 C 495.539062 456.699219 495.019531 456.511719 494.492188 456.351562 C 493.960938 456.191406 493.425781 456.058594 492.882812 455.949219 C 492.34375 455.84375 491.796875 455.761719 491.246094 455.707031 C 490.699219 455.652344 490.148438 455.625 489.59375 455.625 Z M 489.59375 455.625 " fill-opacity="1" fill-rule="nonzero"/><path fill="#009688" d="M 405.21875 523.125 L 354.59375 523.125 C 354.042969 523.125 353.488281 523.152344 352.9375 523.207031 C 352.390625 523.261719 351.839844 523.339844 351.300781 523.449219 C 350.757812 523.558594 350.222656 523.691406 349.691406 523.851562 C 349.164062 524.011719 348.644531 524.199219 348.132812 524.410156 C 347.625 524.621094 347.125 524.855469 346.636719 525.117188 C 346.148438 525.378906 345.675781 525.660156 345.214844 525.96875 C 344.757812 526.277344 344.316406 526.605469 343.890625 526.957031 C 343.460938 527.304688 343.050781 527.675781 342.660156 528.066406 C 342.269531 528.457031 341.898438 528.867188 341.550781 529.296875 C 341.199219 529.722656 340.867188 530.164062 340.558594 530.625 C 340.253906 531.085938 339.96875 531.558594 339.710938 532.042969 C 339.449219 532.53125 339.210938 533.03125 339 533.542969 C 338.789062 534.050781 338.605469 534.574219 338.445312 535.101562 C 338.285156 535.628906 338.152344 536.164062 338.042969 536.707031 C 337.933594 537.25 337.855469 537.796875 337.796875 538.347656 C 337.742188 538.894531 337.714844 539.449219 337.71875 540 C 337.714844 540.550781 337.742188 541.105469 337.796875 541.652344 C 337.855469 542.203125 337.933594 542.75 338.042969 543.292969 C 338.152344 543.835938 338.285156 544.371094 338.445312 544.898438 C 338.605469 545.425781 338.789062 545.945312 339 546.457031 C 339.210938 546.96875 339.449219 547.464844 339.710938 547.953125 C 339.96875 548.441406 340.253906 548.914062 340.558594 549.375 C 340.867188 549.835938 341.199219 550.277344 341.550781 550.703125 C 341.898438 551.132812 342.269531 551.542969 342.660156 551.933594 C 343.050781 552.324219 343.460938 552.695312 343.886719 553.042969 C 344.3125 553.394531 344.757812 553.722656 345.214844 554.03125 C 345.675781 554.335938 346.148438 554.621094 346.636719 554.882812 C 347.125 555.140625 347.625 555.378906 348.136719 555.589844 C 348.644531 555.800781 349.164062 555.988281 349.695312 556.148438 C 350.222656 556.308594 350.761719 556.441406 351.300781 556.550781 C 351.84375 556.65625 352.390625 556.738281 352.9375 556.792969 C 353.488281 556.847656 354.042969 556.875 354.59375 556.875 L 405.21875 556.875 C 405.773438 556.875 406.324219 556.847656 406.871094 556.792969 C 407.421875 556.738281 407.964844 556.65625 408.507812 556.550781 C 409.050781 556.441406 409.585938 556.308594 410.117188 556.148438 C 410.644531 555.988281 411.164062 555.800781 411.675781 555.589844 C 412.1875 555.378906 412.683594 555.140625 413.175781 554.882812 C 413.660156 554.621094 414.132812 554.335938 414.59375 554.03125 C 415.050781 553.722656 415.496094 553.394531 415.925781 553.042969 C 416.351562 552.695312 416.761719 552.324219 417.152344 551.933594 C 417.542969 551.542969 417.914062 551.132812 418.265625 550.707031 C 418.613281 550.277344 418.941406 549.835938 419.246094 549.375 C 419.554688 548.914062 419.839844 548.441406 420.101562 547.953125 C 420.359375 547.464844 420.59375 546.96875 420.804688 546.457031 C 421.019531 545.945312 421.207031 545.425781 421.367188 544.898438 C 421.523438 544.371094 421.660156 543.835938 421.765625 543.292969 C 421.875 542.75 421.957031 542.203125 422.011719 541.652344 C 422.066406 541.105469 422.09375 540.550781 422.09375 540 C 422.09375 539.449219 422.066406 538.894531 422.011719 538.347656 C 421.960938 537.796875 421.878906 537.25 421.769531 536.707031 C 421.660156 536.164062 421.523438 535.628906 421.367188 535.101562 C 421.207031 534.574219 421.019531 534.050781 420.804688 533.542969 C 420.59375 533.03125 420.359375 532.53125 420.101562 532.042969 C 419.839844 531.558594 419.554688 531.082031 419.25 530.625 C 418.941406 530.164062 418.613281 529.722656 418.265625 529.292969 C 417.914062 528.867188 417.542969 528.457031 417.152344 528.066406 C 416.761719 527.675781 416.351562 527.304688 415.925781 526.957031 C 415.496094 526.605469 415.050781 526.277344 414.59375 525.96875 C 414.132812 525.660156 413.660156 525.378906 413.175781 525.117188 C 412.683594 524.855469 412.1875 524.621094 411.675781 524.410156 C 411.164062 524.199219 410.644531 524.011719 410.117188 523.851562 C 409.585938 523.691406 409.050781 523.558594 408.507812 523.449219 C 407.964844 523.339844 407.421875 523.261719 406.871094 523.207031 C 406.324219 523.152344 405.773438 523.125 405.21875 523.125 Z M 405.21875 523.125 " fill-opacity="1" fill-rule="nonzero"/><path fill="#009688" d="M 283.972656 460.570312 C 283.582031 460.179688 283.171875 459.808594 282.746094 459.457031 C 282.320312 459.109375 281.875 458.777344 281.417969 458.472656 C 280.957031 458.164062 280.484375 457.882812 279.996094 457.621094 C 279.507812 457.363281 279.007812 457.125 278.496094 456.914062 C 277.988281 456.703125 277.46875 456.515625 276.941406 456.355469 C 276.414062 456.195312 275.878906 456.0625 275.335938 455.953125 C 274.792969 455.847656 274.246094 455.765625 273.699219 455.710938 C 273.148438 455.65625 272.597656 455.628906 272.042969 455.628906 C 271.492188 455.628906 270.9375 455.65625 270.390625 455.710938 C 269.839844 455.765625 269.292969 455.847656 268.75 455.953125 C 268.210938 456.0625 267.675781 456.195312 267.144531 456.355469 C 266.617188 456.515625 266.097656 456.703125 265.585938 456.914062 C 265.078125 457.125 264.578125 457.359375 264.089844 457.621094 C 263.605469 457.882812 263.128906 458.164062 262.667969 458.472656 C 262.210938 458.777344 261.765625 459.105469 261.339844 459.457031 C 260.914062 459.808594 260.503906 460.179688 260.113281 460.570312 L 236.25 484.429688 L 212.390625 460.570312 C 212 460.179688 211.59375 459.804688 211.164062 459.457031 C 210.738281 459.105469 210.292969 458.777344 209.832031 458.46875 C 209.375 458.160156 208.898438 457.875 208.410156 457.617188 C 207.921875 457.355469 207.425781 457.117188 206.914062 456.90625 C 206.402344 456.695312 205.882812 456.507812 205.355469 456.347656 C 204.824219 456.1875 204.289062 456.050781 203.746094 455.945312 C 203.203125 455.835938 202.65625 455.753906 202.105469 455.703125 C 201.554688 455.648438 201.003906 455.621094 200.449219 455.621094 C 199.898438 455.621094 199.347656 455.648438 198.796875 455.703125 C 198.246094 455.753906 197.699219 455.835938 197.15625 455.945312 C 196.613281 456.050781 196.078125 456.1875 195.550781 456.347656 C 195.019531 456.507812 194.5 456.695312 193.988281 456.90625 C 193.476562 457.117188 192.980469 457.355469 192.492188 457.617188 C 192.003906 457.875 191.527344 458.160156 191.070312 458.46875 C 190.609375 458.777344 190.164062 459.105469 189.738281 459.457031 C 189.3125 459.804688 188.902344 460.179688 188.511719 460.570312 C 188.121094 460.960938 187.75 461.371094 187.402344 461.796875 C 187.050781 462.222656 186.71875 462.667969 186.410156 463.125 C 186.105469 463.585938 185.824219 464.058594 185.5625 464.546875 C 185.300781 465.035156 185.066406 465.535156 184.851562 466.042969 C 184.640625 466.554688 184.453125 467.074219 184.296875 467.601562 C 184.132812 468.132812 184 468.664062 183.890625 469.207031 C 183.785156 469.75 183.703125 470.296875 183.648438 470.847656 C 183.59375 471.394531 183.566406 471.949219 183.566406 472.5 C 183.566406 473.050781 183.59375 473.605469 183.648438 474.152344 C 183.703125 474.703125 183.785156 475.25 183.890625 475.792969 C 184 476.332031 184.132812 476.867188 184.292969 477.398438 C 184.453125 477.925781 184.640625 478.445312 184.851562 478.957031 C 185.066406 479.46875 185.300781 479.964844 185.558594 480.453125 C 185.820312 480.941406 186.105469 481.414062 186.410156 481.875 C 186.71875 482.332031 187.046875 482.777344 187.402344 483.203125 C 187.75 483.632812 188.121094 484.039062 188.511719 484.429688 L 212.390625 508.292969 L 188.511719 532.171875 C 188.121094 532.5625 187.75 532.96875 187.402344 533.398438 C 187.050781 533.824219 186.71875 534.269531 186.410156 534.726562 C 186.105469 535.1875 185.824219 535.660156 185.5625 536.148438 C 185.300781 536.636719 185.066406 537.132812 184.851562 537.644531 C 184.640625 538.15625 184.453125 538.675781 184.296875 539.203125 C 184.132812 539.730469 184 540.265625 183.890625 540.808594 C 183.785156 541.351562 183.703125 541.898438 183.648438 542.449219 C 183.59375 542.996094 183.566406 543.546875 183.566406 544.101562 C 183.566406 544.652344 183.59375 545.207031 183.648438 545.753906 C 183.703125 546.304688 183.785156 546.851562 183.890625 547.390625 C 184 547.933594 184.132812 548.46875 184.292969 549 C 184.453125 549.527344 184.640625 550.046875 184.851562 550.558594 C 185.066406 551.066406 185.300781 551.566406 185.558594 552.054688 C 185.820312 552.539062 186.105469 553.015625 186.410156 553.472656 C 186.71875 553.933594 187.046875 554.375 187.402344 554.804688 C 187.75 555.230469 188.121094 555.640625 188.511719 556.03125 C 188.902344 556.421875 189.3125 556.792969 189.742188 557.144531 C 190.167969 557.496094 190.609375 557.824219 191.070312 558.132812 C 191.527344 558.441406 192.003906 558.726562 192.492188 558.988281 C 192.980469 559.246094 193.476562 559.484375 193.988281 559.695312 C 194.5 559.90625 195.019531 560.09375 195.550781 560.253906 C 196.078125 560.414062 196.613281 560.550781 197.15625 560.65625 C 197.699219 560.765625 198.246094 560.847656 198.796875 560.902344 C 199.347656 560.953125 199.898438 560.980469 200.449219 560.980469 C 201.003906 560.980469 201.554688 560.953125 202.105469 560.902344 C 202.65625 560.847656 203.203125 560.765625 203.746094 560.65625 C 204.289062 560.550781 204.824219 560.414062 205.355469 560.253906 C 205.882812 560.09375 206.402344 559.90625 206.914062 559.695312 C 207.425781 559.484375 207.921875 559.246094 208.410156 558.988281 C 208.898438 558.726562 209.371094 558.441406 209.832031 558.132812 C 210.289062 557.824219 210.734375 557.496094 211.164062 557.144531 C 211.59375 556.792969 212 556.421875 212.390625 556.03125 L 236.25 532.171875 L 260.109375 556.03125 C 260.5 556.433594 260.90625 556.816406 261.332031 557.179688 C 261.757812 557.539062 262.203125 557.882812 262.664062 558.199219 C 263.121094 558.515625 263.59375 558.8125 264.085938 559.082031 C 264.574219 559.355469 265.078125 559.601562 265.589844 559.820312 C 266.105469 560.042969 266.628906 560.238281 267.160156 560.40625 C 267.695312 560.578125 268.234375 560.71875 268.78125 560.832031 C 269.328125 560.949219 269.878906 561.035156 270.433594 561.097656 C 270.992188 561.15625 271.546875 561.191406 272.105469 561.195312 C 272.664062 561.203125 273.222656 561.179688 273.78125 561.128906 C 274.339844 561.078125 274.890625 561 275.441406 560.894531 C 275.992188 560.789062 276.53125 560.65625 277.066406 560.5 C 277.601562 560.339844 278.128906 560.152344 278.644531 559.941406 C 279.164062 559.730469 279.667969 559.492188 280.160156 559.230469 C 280.65625 558.96875 281.136719 558.683594 281.605469 558.375 C 282.070312 558.066406 282.519531 557.734375 282.953125 557.378906 C 283.386719 557.023438 283.800781 556.648438 284.191406 556.253906 C 284.589844 555.859375 284.964844 555.445312 285.320312 555.011719 C 285.671875 554.578125 286.003906 554.128906 286.316406 553.664062 C 286.625 553.199219 286.914062 552.71875 287.171875 552.226562 C 287.433594 551.730469 287.671875 551.226562 287.878906 550.707031 C 288.09375 550.191406 288.277344 549.664062 288.4375 549.128906 C 288.59375 548.589844 288.726562 548.046875 288.832031 547.5 C 288.9375 546.949219 289.015625 546.398438 289.066406 545.839844 C 289.113281 545.285156 289.136719 544.726562 289.132812 544.164062 C 289.128906 543.605469 289.09375 543.050781 289.035156 542.492188 C 288.976562 541.9375 288.886719 541.386719 288.769531 540.839844 C 288.65625 540.292969 288.515625 539.75 288.347656 539.21875 C 288.175781 538.6875 287.980469 538.164062 287.761719 537.648438 C 287.539062 537.136719 287.292969 536.632812 287.023438 536.144531 C 286.75 535.65625 286.457031 535.179688 286.140625 534.722656 C 285.820312 534.261719 285.480469 533.816406 285.121094 533.390625 C 284.757812 532.964844 284.375 532.558594 283.96875 532.171875 L 260.109375 508.292969 L 283.96875 484.429688 C 284.363281 484.039062 284.734375 483.632812 285.082031 483.203125 C 285.433594 482.777344 285.761719 482.332031 286.070312 481.875 C 286.375 481.414062 286.660156 480.941406 286.921875 480.453125 C 287.183594 479.964844 287.417969 479.46875 287.628906 478.957031 C 287.839844 478.445312 288.027344 477.925781 288.183594 477.398438 C 288.347656 476.867188 288.480469 476.332031 288.589844 475.792969 C 288.699219 475.25 288.777344 474.703125 288.832031 474.152344 C 288.886719 473.605469 288.914062 473.050781 288.910156 472.5 C 288.914062 471.949219 288.886719 471.394531 288.832031 470.847656 C 288.777344 470.296875 288.699219 469.75 288.589844 469.210938 C 288.480469 468.667969 288.347656 468.132812 288.1875 467.605469 C 288.027344 467.074219 287.839844 466.554688 287.628906 466.042969 C 287.417969 465.535156 287.183594 465.035156 286.921875 464.546875 C 286.664062 464.058594 286.378906 463.585938 286.070312 463.125 C 285.765625 462.667969 285.4375 462.222656 285.085938 461.796875 C 284.734375 461.371094 284.363281 460.960938 283.972656 460.570312 Z M 283.972656 460.570312 " fill-opacity="1" fill-rule="nonzero"/><path fill="#009688" d="M 673.902344 297.304688 C 673.0625 295.234375 671.851562 293.40625 670.277344 291.820312 L 636.527344 258.070312 C 636.136719 257.679688 635.726562 257.308594 635.300781 256.957031 C 634.871094 256.605469 634.425781 256.277344 633.96875 255.96875 C 633.507812 255.660156 633.035156 255.378906 632.550781 255.117188 C 632.058594 254.855469 631.5625 254.621094 631.050781 254.410156 C 630.539062 254.195312 630.019531 254.011719 629.492188 253.851562 C 628.960938 253.691406 628.425781 253.554688 627.886719 253.445312 C 627.34375 253.339844 626.800781 253.257812 626.25 253.203125 C 625.699219 253.148438 625.148438 253.121094 624.59375 253.121094 C 624.042969 253.121094 623.492188 253.148438 622.941406 253.203125 C 622.390625 253.257812 621.84375 253.335938 621.300781 253.445312 C 620.761719 253.550781 620.222656 253.6875 619.695312 253.847656 C 619.164062 254.007812 618.644531 254.191406 618.136719 254.40625 C 617.625 254.617188 617.125 254.851562 616.636719 255.113281 C 616.148438 255.371094 615.675781 255.65625 615.214844 255.960938 C 614.753906 256.269531 614.3125 256.597656 613.886719 256.949219 C 613.460938 257.300781 613.050781 257.671875 612.65625 258.0625 C 612.269531 258.453125 611.898438 258.859375 611.546875 259.289062 C 611.195312 259.714844 610.867188 260.15625 610.558594 260.617188 C 610.253906 261.078125 609.96875 261.550781 609.707031 262.039062 C 609.445312 262.527344 609.210938 263.023438 608.996094 263.535156 C 608.785156 264.046875 608.601562 264.566406 608.4375 265.09375 C 608.28125 265.625 608.144531 266.160156 608.035156 266.699219 C 607.925781 267.242188 607.847656 267.789062 607.792969 268.339844 C 607.738281 268.886719 607.710938 269.441406 607.710938 269.992188 C 607.710938 270.546875 607.738281 271.097656 607.792969 271.648438 C 607.847656 272.199219 607.925781 272.746094 608.035156 273.285156 C 608.144531 273.828125 608.277344 274.363281 608.4375 274.894531 C 608.597656 275.421875 608.785156 275.941406 608.992188 276.453125 C 609.207031 276.964844 609.441406 277.464844 609.699219 277.949219 C 609.960938 278.4375 610.242188 278.910156 610.550781 279.371094 C 610.859375 279.832031 611.1875 280.273438 611.535156 280.703125 C 611.886719 281.128906 612.257812 281.539062 612.648438 281.929688 L 641.46875 310.734375 L 641.46875 708.75 L 202.71875 708.75 L 202.71875 691.875 C 202.722656 691.324219 202.695312 690.769531 202.640625 690.222656 C 202.585938 689.671875 202.503906 689.125 202.394531 688.582031 C 202.285156 688.039062 202.152344 687.507812 201.992188 686.976562 C 201.832031 686.449219 201.644531 685.929688 201.433594 685.417969 C 201.21875 684.90625 200.984375 684.40625 200.722656 683.921875 C 200.464844 683.433594 200.179688 682.960938 199.875 682.5 C 199.570312 682.039062 199.242188 681.597656 198.890625 681.171875 C 198.539062 680.742188 198.171875 680.332031 197.777344 679.941406 C 197.386719 679.550781 196.976562 679.179688 196.550781 678.832031 C 196.121094 678.480469 195.675781 678.152344 195.214844 677.84375 C 194.757812 677.539062 194.285156 677.253906 193.800781 676.992188 C 193.308594 676.730469 192.8125 676.496094 192.300781 676.285156 C 191.792969 676.074219 191.273438 675.886719 190.742188 675.726562 C 190.214844 675.566406 189.679688 675.433594 189.136719 675.324219 C 188.59375 675.214844 188.050781 675.136719 187.5 675.082031 C 186.949219 675.027344 186.398438 675 185.84375 675 C 185.292969 675 184.742188 675.027344 184.191406 675.082031 C 183.640625 675.136719 183.09375 675.214844 182.550781 675.324219 C 182.011719 675.433594 181.472656 675.566406 180.945312 675.726562 C 180.414062 675.886719 179.894531 676.074219 179.386719 676.285156 C 178.875 676.496094 178.375 676.730469 177.890625 676.992188 C 177.402344 677.253906 176.929688 677.539062 176.46875 677.84375 C 176.011719 678.152344 175.566406 678.480469 175.140625 678.832031 C 174.714844 679.179688 174.304688 679.550781 173.914062 679.941406 C 173.523438 680.332031 173.152344 680.742188 172.800781 681.171875 C 172.453125 681.597656 172.121094 682.039062 171.8125 682.5 C 171.507812 682.960938 171.222656 683.433594 170.960938 683.921875 C 170.699219 684.40625 170.464844 684.90625 170.253906 685.417969 C 170.042969 685.929688 169.855469 686.449219 169.695312 686.976562 C 169.535156 687.507812 169.402344 688.039062 169.292969 688.582031 C 169.1875 689.125 169.105469 689.671875 169.050781 690.222656 C 168.996094 690.769531 168.96875 691.324219 168.96875 691.875 L 168.96875 725.625 C 168.96875 726.175781 168.996094 726.730469 169.050781 727.277344 C 169.105469 727.828125 169.1875 728.375 169.292969 728.917969 C 169.402344 729.457031 169.535156 729.996094 169.695312 730.523438 C 169.855469 731.050781 170.042969 731.570312 170.253906 732.082031 C 170.464844 732.59375 170.699219 733.09375 170.960938 733.578125 C 171.222656 734.066406 171.507812 734.539062 171.8125 735 C 172.121094 735.460938 172.453125 735.902344 172.800781 736.332031 C 173.152344 736.757812 173.523438 737.167969 173.914062 737.558594 C 174.304688 737.949219 174.714844 738.320312 175.140625 738.667969 C 175.566406 739.019531 176.011719 739.347656 176.46875 739.65625 C 176.929688 739.964844 177.402344 740.246094 177.890625 740.507812 C 178.375 740.769531 178.875 741.003906 179.386719 741.214844 C 179.894531 741.425781 180.414062 741.613281 180.945312 741.773438 C 181.472656 741.933594 182.011719 742.066406 182.550781 742.175781 C 183.09375 742.285156 183.640625 742.363281 184.191406 742.417969 C 184.742188 742.472656 185.292969 742.5 185.84375 742.5 L 641.46875 742.5 C 642.578125 742.5 643.679688 742.445312 644.777344 742.335938 C 645.878906 742.230469 646.96875 742.066406 648.050781 741.851562 C 649.136719 741.636719 650.207031 741.367188 651.265625 741.046875 C 652.328125 740.726562 653.363281 740.355469 654.382812 739.929688 C 655.402344 739.507812 656.402344 739.035156 657.378906 738.515625 C 658.355469 737.992188 659.300781 737.425781 660.21875 736.8125 C 661.140625 736.199219 662.023438 735.539062 662.878906 734.839844 C 663.734375 734.136719 664.554688 733.394531 665.335938 732.613281 C 666.117188 731.832031 666.859375 731.015625 667.558594 730.160156 C 668.261719 729.304688 668.917969 728.417969 669.53125 727.5 C 670.144531 726.582031 670.714844 725.632812 671.234375 724.660156 C 671.753906 723.683594 672.226562 722.6875 672.648438 721.664062 C 673.074219 720.644531 673.445312 719.605469 673.769531 718.546875 C 674.089844 717.488281 674.355469 716.417969 674.570312 715.335938 C 674.789062 714.25 674.949219 713.160156 675.058594 712.058594 C 675.167969 710.957031 675.222656 709.855469 675.21875 708.75 L 675.21875 303.75 C 675.210938 301.511719 674.769531 299.363281 673.902344 297.304688 Z M 673.902344 297.304688 " fill-opacity="1" fill-rule="nonzero"/></svg>