<svg xmlns="http://www.w3.org/2000/svg" xmlns:xlink="http://www.w3.org/1999/xlink" width="1080" zoomAndPan="magnify" viewBox="0 0 810 809.999993" height="1080" preserveAspectRatio="xMidYMid meet" version="1.0"><path fill="#009688" d="M 590.625 371.25 C 588.238281 371.246094 585.851562 371.316406 583.464844 371.457031 C 581.082031 371.597656 578.703125 371.8125 576.332031 372.097656 C 573.960938 372.382812 571.601562 372.738281 569.25 373.167969 C 566.902344 373.597656 564.566406 374.097656 562.246094 374.667969 C 559.929688 375.238281 557.628906 375.878906 555.351562 376.589844 C 553.070312 377.300781 550.8125 378.082031 548.578125 378.929688 C 546.347656 379.777344 544.140625 380.691406 541.964844 381.671875 C 539.789062 382.65625 537.640625 383.703125 535.527344 384.8125 C 533.414062 385.925781 531.332031 387.101562 529.292969 388.339844 C 527.25 389.578125 525.246094 390.875 523.285156 392.238281 C 521.320312 393.597656 519.402344 395.015625 517.523438 396.492188 C 515.644531 397.96875 513.8125 399.5 512.03125 401.089844 C 510.246094 402.675781 508.511719 404.316406 506.828125 406.011719 C 505.144531 407.703125 503.511719 409.445312 501.933594 411.238281 C 500.355469 413.03125 498.832031 414.871094 497.363281 416.753906 C 495.898438 418.640625 494.488281 420.566406 493.136719 422.539062 C 491.789062 424.507812 490.5 426.519531 489.273438 428.566406 C 488.042969 430.617188 486.878906 432.699219 485.777344 434.820312 C 484.675781 436.9375 483.640625 439.089844 482.667969 441.273438 C 481.699219 443.453125 480.796875 445.664062 479.960938 447.902344 C 479.125 450.140625 478.359375 452.398438 477.660156 454.683594 C 476.960938 456.96875 476.332031 459.269531 475.773438 461.59375 C 475.214844 463.914062 474.730469 466.253906 474.3125 468.605469 C 473.894531 470.957031 473.550781 473.316406 473.277344 475.691406 C 473.003906 478.0625 472.800781 480.441406 472.675781 482.828125 C 472.546875 485.210938 472.488281 487.597656 472.503906 489.988281 C 472.519531 492.375 472.609375 494.761719 472.769531 497.144531 C 472.929688 499.527344 473.164062 501.902344 473.46875 504.269531 C 473.773438 506.640625 474.152344 508.996094 474.597656 511.34375 C 475.046875 513.691406 475.566406 516.019531 476.15625 518.335938 C 476.746094 520.648438 477.40625 522.941406 478.136719 525.214844 C 478.867188 527.492188 479.664062 529.742188 480.53125 531.96875 L 376.195312 636.304688 C 374.613281 637.886719 373.390625 639.710938 372.535156 641.78125 C 371.679688 643.847656 371.25 646 371.25 648.234375 L 371.25 691.875 C 371.25 692.425781 371.277344 692.980469 371.332031 693.527344 C 371.382812 694.078125 371.464844 694.625 371.570312 695.167969 C 371.679688 695.707031 371.8125 696.242188 371.972656 696.773438 C 372.136719 697.300781 372.320312 697.820312 372.53125 698.332031 C 372.742188 698.84375 372.976562 699.339844 373.238281 699.828125 C 373.5 700.316406 373.785156 700.789062 374.09375 701.25 C 374.398438 701.710938 374.726562 702.152344 375.078125 702.578125 C 375.429688 703.007812 375.800781 703.417969 376.191406 703.804688 C 376.582031 704.199219 376.992188 704.570312 377.417969 704.917969 C 377.847656 705.269531 378.289062 705.597656 378.75 705.90625 C 379.207031 706.210938 379.679688 706.496094 380.167969 706.757812 C 380.65625 707.019531 381.15625 707.253906 381.664062 707.464844 C 382.179688 707.675781 382.695312 707.863281 383.226562 708.023438 C 383.757812 708.183594 384.289062 708.316406 384.832031 708.425781 C 385.371094 708.53125 385.921875 708.613281 386.472656 708.667969 C 387.019531 708.722656 387.574219 708.75 388.125 708.75 L 421.875 708.75 C 422.429688 708.75 422.980469 708.722656 423.527344 708.667969 C 424.078125 708.613281 424.625 708.53125 425.164062 708.425781 C 425.707031 708.316406 426.242188 708.183594 426.769531 708.023438 C 427.296875 707.863281 427.820312 707.675781 428.332031 707.464844 C 428.839844 707.253906 429.339844 707.015625 429.828125 706.757812 C 430.316406 706.496094 430.789062 706.210938 431.246094 705.90625 C 431.707031 705.597656 432.152344 705.269531 432.578125 704.917969 C 433.007812 704.570312 433.417969 704.199219 433.804688 703.804688 C 434.199219 703.417969 434.566406 703.007812 434.921875 702.578125 C 435.273438 702.152344 435.601562 701.710938 435.90625 701.25 C 436.214844 700.789062 436.5 700.316406 436.757812 699.828125 C 437.019531 699.339844 437.253906 698.84375 437.464844 698.332031 C 437.675781 697.820312 437.863281 697.300781 438.023438 696.773438 C 438.183594 696.242188 438.320312 695.707031 438.425781 695.167969 C 438.535156 694.625 438.617188 694.078125 438.667969 693.527344 C 438.722656 692.980469 438.75 692.425781 438.75 691.875 L 438.75 675 L 472.5 675 C 473.054688 675 473.605469 674.972656 474.152344 674.917969 C 474.703125 674.863281 475.25 674.78125 475.792969 674.675781 C 476.332031 674.566406 476.867188 674.433594 477.398438 674.273438 C 477.929688 674.113281 478.445312 673.925781 478.957031 673.714844 C 479.464844 673.503906 479.964844 673.265625 480.453125 673.007812 C 480.941406 672.746094 481.414062 672.460938 481.871094 672.15625 C 482.335938 671.847656 482.777344 671.519531 483.203125 671.167969 C 483.632812 670.820312 484.042969 670.449219 484.429688 670.054688 C 484.824219 669.667969 485.191406 669.257812 485.542969 668.828125 C 485.894531 668.402344 486.222656 667.960938 486.527344 667.5 C 486.835938 667.039062 487.121094 666.566406 487.378906 666.078125 C 487.640625 665.589844 487.878906 665.09375 488.089844 664.582031 C 488.300781 664.070312 488.488281 663.550781 488.648438 663.023438 C 488.804688 662.496094 488.941406 661.957031 489.050781 661.417969 C 489.160156 660.875 489.238281 660.328125 489.292969 659.78125 C 489.347656 659.230469 489.375 658.679688 489.375 658.125 L 489.375 641.25 L 523.125 641.25 C 523.679688 641.25 524.230469 641.222656 524.777344 641.167969 C 525.328125 641.113281 525.875 641.03125 526.414062 640.925781 C 526.957031 640.816406 527.492188 640.683594 528.019531 640.523438 C 528.550781 640.363281 529.070312 640.175781 529.582031 639.964844 C 530.089844 639.753906 530.589844 639.515625 531.078125 639.257812 C 531.566406 638.996094 532.039062 638.710938 532.496094 638.40625 C 532.957031 638.097656 533.402344 637.769531 533.832031 637.417969 C 534.257812 637.070312 534.667969 636.699219 535.054688 636.304688 C 535.449219 635.917969 535.816406 635.507812 536.167969 635.078125 C 536.519531 634.652344 536.847656 634.210938 537.152344 633.75 C 537.460938 633.289062 537.746094 632.816406 538.007812 632.328125 C 538.269531 631.84375 538.503906 631.34375 538.714844 630.832031 C 538.925781 630.320312 539.113281 629.800781 539.273438 629.273438 C 539.433594 628.746094 539.566406 628.210938 539.675781 627.667969 C 539.785156 627.125 539.863281 626.578125 539.917969 626.027344 C 539.972656 625.480469 540 624.925781 540 624.375 L 540 595.972656 C 541.992188 596.925781 544.011719 597.820312 546.054688 598.660156 C 548.097656 599.496094 550.164062 600.277344 552.25 601 C 554.339844 601.722656 556.445312 602.386719 558.570312 602.992188 C 560.695312 603.59375 562.835938 604.140625 564.988281 604.625 C 567.144531 605.109375 569.3125 605.53125 571.492188 605.894531 C 573.667969 606.257812 575.855469 606.558594 578.050781 606.800781 C 580.25 607.039062 582.449219 607.21875 584.65625 607.335938 C 586.863281 607.453125 589.066406 607.507812 591.277344 607.5 C 593.484375 607.492188 595.691406 607.421875 597.898438 607.292969 C 600.101562 607.160156 602.300781 606.96875 604.496094 606.714844 C 606.691406 606.460938 608.875 606.144531 611.050781 605.765625 C 613.226562 605.390625 615.390625 604.953125 617.542969 604.453125 C 619.695312 603.957031 621.832031 603.398438 623.953125 602.78125 C 626.074219 602.160156 628.171875 601.484375 630.257812 600.75 C 632.339844 600.011719 634.398438 599.21875 636.441406 598.367188 C 638.476562 597.515625 640.488281 596.609375 642.476562 595.644531 C 644.464844 594.679688 646.421875 593.660156 648.351562 592.585938 C 650.28125 591.507812 652.183594 590.382812 654.046875 589.199219 C 655.914062 588.019531 657.746094 586.789062 659.542969 585.503906 C 661.34375 584.21875 663.105469 582.886719 664.824219 581.503906 C 666.546875 580.121094 668.230469 578.691406 669.871094 577.214844 C 671.515625 575.738281 673.113281 574.21875 674.671875 572.652344 C 676.226562 571.085938 677.738281 569.476562 679.207031 567.824219 C 680.675781 566.171875 682.09375 564.480469 683.464844 562.75 C 684.839844 561.019531 686.160156 559.25 687.433594 557.445312 C 688.707031 555.640625 689.929688 553.800781 691.097656 551.929688 C 692.265625 550.054688 693.382812 548.148438 694.449219 546.214844 C 695.507812 544.277344 696.515625 542.3125 697.46875 540.320312 C 698.421875 538.328125 699.316406 536.308594 700.15625 534.265625 C 700.996094 532.222656 701.777344 530.15625 702.503906 528.070312 C 703.226562 525.984375 703.890625 523.878906 704.496094 521.753906 C 705.105469 519.628906 705.648438 517.488281 706.132812 515.335938 C 706.621094 513.179688 707.042969 511.011719 707.40625 508.835938 C 707.773438 506.65625 708.074219 504.46875 708.3125 502.273438 C 708.554688 500.078125 708.734375 497.875 708.851562 495.671875 C 708.96875 493.464844 709.027344 491.257812 709.019531 489.046875 C 709.015625 486.839844 708.945312 484.632812 708.816406 482.429688 C 708.6875 480.222656 708.492188 478.023438 708.238281 475.828125 C 707.984375 473.636719 707.671875 471.449219 707.296875 469.273438 C 706.921875 467.097656 706.484375 464.933594 705.988281 462.78125 C 705.492188 460.628906 704.933594 458.492188 704.316406 456.371094 C 703.699219 454.25 703.019531 452.148438 702.285156 450.0625 C 701.550781 447.980469 700.757812 445.921875 699.910156 443.882812 C 699.058594 441.84375 698.148438 439.832031 697.1875 437.84375 C 696.222656 435.855469 695.203125 433.898438 694.128906 431.964844 C 693.058594 430.035156 691.929688 428.136719 690.75 426.269531 C 689.570312 424.402344 688.339844 422.570312 687.058594 420.769531 C 685.773438 418.972656 684.441406 417.210938 683.058594 415.488281 C 681.679688 413.765625 680.25 412.082031 678.773438 410.4375 C 677.296875 408.796875 675.777344 407.195312 674.210938 405.636719 C 672.644531 404.078125 671.035156 402.566406 669.382812 401.097656 C 667.734375 399.628906 666.042969 398.210938 664.3125 396.835938 C 662.582031 395.464844 660.816406 394.140625 659.007812 392.867188 C 657.207031 391.59375 655.367188 390.371094 653.496094 389.203125 C 651.621094 388.03125 649.714844 386.914062 647.78125 385.847656 C 645.847656 384.785156 643.878906 383.777344 641.886719 382.824219 C 639.898438 381.871094 637.878906 380.972656 635.835938 380.132812 C 633.789062 379.292969 631.726562 378.511719 629.636719 377.785156 C 627.550781 377.058594 625.449219 376.394531 623.324219 375.789062 C 621.199219 375.183594 619.058594 374.636719 616.90625 374.148438 C 614.753906 373.664062 612.585938 373.238281 610.40625 372.871094 C 608.230469 372.507812 606.042969 372.203125 603.84375 371.960938 C 601.652344 371.71875 599.453125 371.539062 597.246094 371.421875 C 595.039062 371.300781 592.832031 371.246094 590.625 371.25 Z M 590.625 573.75 C 589.242188 573.75 587.863281 573.714844 586.484375 573.648438 C 585.105469 573.582031 583.726562 573.480469 582.355469 573.34375 C 580.980469 573.207031 579.609375 573.039062 578.246094 572.835938 C 576.878906 572.632812 575.515625 572.398438 574.164062 572.128906 C 572.808594 571.859375 571.460938 571.558594 570.125 571.222656 C 568.785156 570.886719 567.453125 570.515625 566.132812 570.117188 C 564.8125 569.714844 563.5 569.28125 562.199219 568.816406 C 560.898438 568.351562 559.609375 567.855469 558.332031 567.328125 C 557.058594 566.796875 555.796875 566.238281 554.546875 565.648438 C 553.300781 565.058594 552.066406 564.4375 550.847656 563.789062 C 549.632812 563.136719 548.429688 562.457031 547.246094 561.746094 C 546.058594 561.035156 544.894531 560.296875 543.746094 559.53125 C 542.597656 558.761719 541.472656 557.96875 540.363281 557.144531 C 539.253906 556.320312 538.167969 555.472656 537.097656 554.597656 C 536.03125 553.722656 534.984375 552.820312 533.960938 551.890625 C 532.9375 550.964844 531.9375 550.011719 530.960938 549.035156 C 529.984375 548.058594 529.03125 547.058594 528.105469 546.035156 C 527.179688 545.015625 526.277344 543.96875 525.402344 542.902344 C 524.523438 541.832031 523.671875 540.746094 522.851562 539.636719 C 522.027344 538.527344 521.234375 537.398438 520.464844 536.25 C 519.699219 535.101562 518.960938 533.9375 518.25 532.75 C 517.539062 531.566406 516.859375 530.367188 516.210938 529.148438 C 515.5625 527.929688 514.9375 526.699219 514.347656 525.449219 C 513.757812 524.199219 513.199219 522.9375 512.667969 521.664062 C 512.140625 520.386719 511.644531 519.097656 511.179688 517.800781 C 510.714844 516.5 510.285156 515.1875 509.882812 513.867188 C 509.480469 512.546875 509.113281 511.214844 508.777344 509.875 C 508.441406 508.535156 508.140625 507.191406 507.867188 505.835938 C 507.597656 504.480469 507.363281 503.121094 507.164062 501.753906 C 506.957031 500.390625 506.792969 499.019531 506.65625 497.644531 C 506.523438 496.269531 506.417969 494.894531 506.351562 493.515625 C 506.28125 492.136719 506.246094 490.753906 506.25 489.375 C 506.246094 487.996094 506.28125 486.613281 506.351562 485.234375 C 506.417969 483.855469 506.523438 482.480469 506.65625 481.105469 C 506.792969 479.730469 506.957031 478.359375 507.164062 476.996094 C 507.363281 475.628906 507.597656 474.269531 507.867188 472.914062 C 508.140625 471.558594 508.441406 470.214844 508.777344 468.875 C 509.113281 467.535156 509.480469 466.203125 509.882812 464.882812 C 510.285156 463.558594 510.714844 462.25 511.179688 460.949219 C 511.644531 459.648438 512.140625 458.359375 512.667969 457.085938 C 513.199219 455.808594 513.757812 454.546875 514.347656 453.300781 C 514.9375 452.050781 515.5625 450.820312 516.210938 449.601562 C 516.859375 448.382812 517.539062 447.179688 518.25 445.996094 C 518.960938 444.8125 519.699219 443.644531 520.464844 442.5 C 521.234375 441.347656 522.027344 440.222656 522.851562 439.113281 C 523.671875 438.003906 524.523438 436.914062 525.402344 435.847656 C 526.277344 434.78125 527.179688 433.734375 528.105469 432.710938 C 529.03125 431.6875 529.984375 430.6875 530.960938 429.710938 C 531.9375 428.734375 532.9375 427.785156 533.960938 426.859375 C 534.984375 425.929688 536.03125 425.027344 537.097656 424.152344 C 538.167969 423.277344 539.253906 422.425781 540.363281 421.605469 C 541.472656 420.78125 542.597656 419.988281 543.746094 419.21875 C 544.894531 418.453125 546.058594 417.714844 547.246094 417.003906 C 548.429688 416.292969 549.632812 415.613281 550.847656 414.964844 C 552.066406 414.3125 553.300781 413.691406 554.546875 413.101562 C 555.796875 412.511719 557.058594 411.949219 558.332031 411.421875 C 559.609375 410.894531 560.898438 410.398438 562.199219 409.933594 C 563.5 409.46875 564.8125 409.035156 566.132812 408.632812 C 567.453125 408.230469 568.785156 407.863281 570.125 407.527344 C 571.460938 407.191406 572.808594 406.890625 574.164062 406.621094 C 575.515625 406.351562 576.878906 406.117188 578.246094 405.914062 C 579.609375 405.710938 580.980469 405.542969 582.355469 405.40625 C 583.726562 405.269531 585.105469 405.167969 586.484375 405.101562 C 587.863281 405.035156 589.242188 405 590.625 405 C 592.007812 405 593.386719 405.035156 594.765625 405.101562 C 596.144531 405.171875 597.523438 405.269531 598.894531 405.40625 C 600.269531 405.542969 601.636719 405.710938 603 405.914062 C 604.367188 406.117188 605.726562 406.351562 607.082031 406.621094 C 608.433594 406.890625 609.78125 407.191406 611.125 407.527344 C 612.460938 407.863281 613.792969 408.234375 615.117188 408.632812 C 616.4375 409.035156 617.746094 409.46875 619.046875 409.933594 C 620.347656 410.398438 621.636719 410.894531 622.910156 411.421875 C 624.183594 411.949219 625.449219 412.511719 626.695312 413.101562 C 627.941406 413.691406 629.175781 414.3125 630.394531 414.964844 C 631.613281 415.613281 632.816406 416.292969 634 417.003906 C 635.183594 417.714844 636.347656 418.453125 637.496094 419.21875 C 638.644531 419.988281 639.773438 420.78125 640.882812 421.605469 C 641.992188 422.425781 643.078125 423.277344 644.148438 424.152344 C 645.214844 425.027344 646.261719 425.929688 647.28125 426.859375 C 648.308594 427.785156 649.308594 428.734375 650.285156 429.710938 C 651.261719 430.6875 652.214844 431.6875 653.140625 432.710938 C 654.066406 433.734375 654.96875 434.78125 655.847656 435.847656 C 656.722656 436.914062 657.570312 438.003906 658.394531 439.113281 C 659.214844 440.222656 660.007812 441.347656 660.777344 442.5 C 661.546875 443.644531 662.285156 444.8125 662.992188 445.996094 C 663.703125 447.179688 664.382812 448.382812 665.035156 449.601562 C 665.683594 450.820312 666.304688 452.050781 666.894531 453.300781 C 667.488281 454.546875 668.046875 455.808594 668.574219 457.085938 C 669.105469 458.359375 669.601562 459.648438 670.066406 460.949219 C 670.53125 462.25 670.960938 463.558594 671.363281 464.882812 C 671.765625 466.203125 672.132812 467.535156 672.46875 468.871094 C 672.804688 470.210938 673.109375 471.558594 673.378906 472.914062 C 673.648438 474.269531 673.882812 475.628906 674.085938 476.996094 C 674.289062 478.359375 674.457031 479.730469 674.59375 481.105469 C 674.730469 482.480469 674.832031 483.855469 674.898438 485.234375 C 674.96875 486.613281 675 487.996094 675 489.375 C 674.996094 490.753906 674.960938 492.132812 674.890625 493.511719 C 674.824219 494.890625 674.71875 496.265625 674.582031 497.640625 C 674.449219 499.015625 674.277344 500.382812 674.074219 501.75 C 673.867188 503.113281 673.632812 504.472656 673.363281 505.828125 C 673.09375 507.183594 672.789062 508.527344 672.449219 509.867188 C 672.113281 511.207031 671.742188 512.535156 671.339844 513.855469 C 670.941406 515.175781 670.507812 516.488281 670.042969 517.785156 C 669.574219 519.085938 669.078125 520.371094 668.550781 521.648438 C 668.019531 522.921875 667.460938 524.183594 666.871094 525.429688 C 666.277344 526.679688 665.65625 527.910156 665.007812 529.128906 C 664.355469 530.34375 663.675781 531.546875 662.964844 532.730469 C 662.253906 533.914062 661.515625 535.078125 660.75 536.226562 C 659.980469 537.375 659.1875 538.503906 658.363281 539.609375 C 657.542969 540.71875 656.691406 541.808594 655.816406 542.875 C 654.941406 543.941406 654.039062 544.984375 653.113281 546.007812 C 652.1875 547.03125 651.234375 548.03125 650.257812 549.007812 C 649.28125 549.984375 648.28125 550.933594 647.257812 551.863281 C 646.234375 552.789062 645.191406 553.691406 644.121094 554.566406 C 643.054688 555.441406 641.96875 556.292969 640.859375 557.113281 C 639.753906 557.9375 638.625 558.730469 637.476562 559.5 C 636.332031 560.265625 635.164062 561.003906 633.980469 561.714844 C 632.796875 562.425781 631.59375 563.105469 630.378906 563.757812 C 629.160156 564.40625 627.929688 565.03125 626.683594 565.621094 C 625.4375 566.210938 624.175781 566.773438 622.898438 567.300781 C 621.625 567.828125 620.335938 568.328125 619.039062 568.792969 C 617.738281 569.257812 616.425781 569.691406 615.105469 570.09375 C 613.785156 570.496094 612.457031 570.863281 611.117188 571.199219 C 609.78125 571.539062 608.433594 571.839844 607.078125 572.113281 C 605.722656 572.382812 604.363281 572.621094 603 572.824219 C 601.632812 573.027344 600.265625 573.199219 598.890625 573.332031 C 597.515625 573.46875 596.140625 573.574219 594.761719 573.644531 C 593.386719 573.710938 592.003906 573.746094 590.625 573.75 Z M 590.625 573.75 " fill-opacity="1" fill-rule="nonzero"/><path fill="#009688" d="M 641.25 472.5 C 641.25 473.605469 641.195312 474.707031 641.085938 475.808594 C 640.980469 476.90625 640.816406 478 640.601562 479.085938 C 640.386719 480.167969 640.117188 481.238281 639.796875 482.296875 C 639.476562 483.355469 639.105469 484.394531 638.679688 485.414062 C 638.257812 486.4375 637.785156 487.433594 637.265625 488.410156 C 636.742188 489.382812 636.175781 490.332031 635.5625 491.25 C 634.949219 492.167969 634.289062 493.054688 633.589844 493.910156 C 632.886719 494.765625 632.144531 495.582031 631.363281 496.363281 C 630.582031 497.144531 629.765625 497.886719 628.910156 498.589844 C 628.054688 499.289062 627.167969 499.949219 626.25 500.5625 C 625.332031 501.175781 624.382812 501.742188 623.410156 502.265625 C 622.433594 502.785156 621.4375 503.257812 620.414062 503.679688 C 619.394531 504.105469 618.355469 504.476562 617.296875 504.796875 C 616.238281 505.117188 615.167969 505.386719 614.085938 505.601562 C 613 505.816406 611.90625 505.980469 610.808594 506.085938 C 609.707031 506.195312 608.605469 506.25 607.5 506.25 C 606.394531 506.25 605.292969 506.195312 604.191406 506.085938 C 603.09375 505.980469 602 505.816406 600.914062 505.601562 C 599.832031 505.386719 598.761719 505.117188 597.703125 504.796875 C 596.644531 504.476562 595.605469 504.105469 594.585938 503.679688 C 593.5625 503.257812 592.566406 502.785156 591.589844 502.265625 C 590.617188 501.742188 589.667969 501.175781 588.75 500.5625 C 587.832031 499.949219 586.945312 499.289062 586.089844 498.589844 C 585.234375 497.886719 584.417969 497.144531 583.636719 496.363281 C 582.855469 495.582031 582.113281 494.765625 581.410156 493.910156 C 580.710938 493.054688 580.050781 492.167969 579.4375 491.25 C 578.824219 490.332031 578.257812 489.382812 577.734375 488.410156 C 577.214844 487.433594 576.742188 486.4375 576.320312 485.414062 C 575.894531 484.394531 575.523438 483.355469 575.203125 482.296875 C 574.882812 481.238281 574.613281 480.167969 574.398438 479.085938 C 574.183594 478 574.019531 476.90625 573.914062 475.808594 C 573.804688 474.707031 573.75 473.605469 573.75 472.5 C 573.75 471.394531 573.804688 470.292969 573.914062 469.191406 C 574.019531 468.09375 574.183594 467 574.398438 465.914062 C 574.613281 464.832031 574.882812 463.761719 575.203125 462.703125 C 575.523438 461.644531 575.894531 460.605469 576.320312 459.585938 C 576.742188 458.5625 577.214844 457.566406 577.734375 456.589844 C 578.257812 455.617188 578.824219 454.667969 579.4375 453.75 C 580.050781 452.832031 580.710938 451.945312 581.410156 451.089844 C 582.113281 450.234375 582.855469 449.417969 583.636719 448.636719 C 584.417969 447.855469 585.234375 447.113281 586.089844 446.410156 C 586.945312 445.710938 587.832031 445.050781 588.75 444.4375 C 589.667969 443.824219 590.617188 443.257812 591.589844 442.734375 C 592.566406 442.214844 593.5625 441.742188 594.585938 441.320312 C 595.605469 440.894531 596.644531 440.523438 597.703125 440.203125 C 598.761719 439.882812 599.832031 439.613281 600.914062 439.398438 C 602 439.183594 603.09375 439.019531 604.191406 438.914062 C 605.292969 438.804688 606.394531 438.75 607.5 438.75 C 608.605469 438.75 609.707031 438.804688 610.808594 438.914062 C 611.90625 439.019531 613 439.183594 614.085938 439.398438 C 615.167969 439.613281 616.238281 439.882812 617.296875 440.203125 C 618.355469 440.523438 619.394531 440.894531 620.414062 441.320312 C 621.4375 441.742188 622.433594 442.214844 623.410156 442.734375 C 624.382812 443.257812 625.332031 443.824219 626.25 444.4375 C 627.167969 445.050781 628.054688 445.710938 628.910156 446.410156 C 629.765625 447.113281 630.582031 447.855469 631.363281 448.636719 C 632.144531 449.417969 632.886719 450.234375 633.589844 451.089844 C 634.289062 451.945312 634.949219 452.832031 635.5625 453.75 C 636.175781 454.667969 636.742188 455.617188 637.265625 456.589844 C 637.785156 457.566406 638.257812 458.5625 638.679688 459.585938 C 639.105469 460.605469 639.476562 461.644531 639.796875 462.703125 C 640.117188 463.761719 640.386719 464.832031 640.601562 465.914062 C 640.816406 467 640.980469 468.09375 641.085938 469.191406 C 641.195312 470.292969 641.25 471.394531 641.25 472.5 Z M 641.25 472.5 " fill-opacity="1" fill-rule="nonzero"/><path fill="#009688" d="M 396.5625 394.589844 C 388.605469 390.246094 380.378906 386.503906 371.875 383.367188 L 370.101562 383.367188 C 371.800781 382.171875 373.464844 380.933594 375.09375 379.648438 C 376.726562 378.367188 378.320312 377.042969 379.882812 375.679688 C 381.445312 374.3125 382.96875 372.902344 384.457031 371.457031 C 385.945312 370.011719 387.394531 368.527344 388.800781 367.003906 C 390.210938 365.480469 391.578125 363.921875 392.90625 362.324219 C 394.234375 360.730469 395.519531 359.101562 396.761719 357.4375 C 398 355.777344 399.195312 354.082031 400.351562 352.355469 C 401.503906 350.628906 402.605469 348.875 403.667969 347.089844 C 404.726562 345.304688 405.738281 343.496094 406.703125 341.65625 C 407.664062 339.820312 408.582031 337.957031 409.449219 336.074219 C 410.3125 334.1875 411.128906 332.277344 411.890625 330.351562 C 412.660156 328.421875 413.375 326.472656 414.035156 324.507812 C 414.699219 322.542969 415.308594 320.558594 415.867188 318.558594 C 416.425781 316.5625 416.929688 314.550781 417.382812 312.527344 C 417.835938 310.5 418.234375 308.464844 418.578125 306.417969 C 418.921875 304.375 419.214844 302.320312 419.449219 300.257812 C 419.683594 298.195312 419.867188 296.128906 419.996094 294.058594 C 420.125 291.988281 420.199219 289.914062 420.21875 287.839844 C 420.238281 285.765625 420.199219 283.691406 420.109375 281.617188 C 420.015625 279.542969 419.871094 277.472656 419.671875 275.410156 C 419.472656 273.34375 419.21875 271.285156 418.910156 269.234375 C 418.601562 267.179688 418.238281 265.140625 417.824219 263.105469 C 417.410156 261.074219 416.941406 259.050781 416.417969 257.042969 C 415.898438 255.035156 415.320312 253.042969 414.695312 251.066406 C 414.066406 249.085938 413.386719 247.128906 412.65625 245.183594 C 411.925781 243.242188 411.144531 241.320312 410.3125 239.421875 C 409.480469 237.519531 408.597656 235.640625 407.667969 233.789062 C 406.738281 231.933594 405.757812 230.105469 404.730469 228.300781 C 403.703125 226.5 402.628906 224.722656 401.507812 222.976562 C 400.390625 221.230469 399.222656 219.515625 398.011719 217.832031 C 396.800781 216.144531 395.546875 214.496094 394.25 212.875 C 392.949219 211.257812 391.609375 209.671875 390.226562 208.125 C 388.847656 206.578125 387.425781 205.066406 385.964844 203.59375 C 384.5 202.121094 383 200.6875 381.46875 199.292969 C 379.929688 197.898438 378.359375 196.542969 376.75 195.234375 C 375.140625 193.921875 373.5 192.652344 371.824219 191.429688 C 370.148438 190.203125 368.445312 189.023438 366.707031 187.890625 C 364.972656 186.753906 363.203125 185.667969 361.410156 184.625 C 359.617188 183.582031 357.792969 182.589844 355.949219 181.644531 C 354.101562 180.695312 352.226562 179.800781 350.335938 178.953125 C 348.441406 178.105469 346.527344 177.308594 344.589844 176.5625 C 342.652344 175.816406 340.699219 175.121094 338.726562 174.476562 C 336.753906 173.835938 334.765625 173.242188 332.761719 172.703125 C 330.753906 172.164062 328.738281 171.679688 326.710938 171.246094 C 324.679688 170.816406 322.640625 170.4375 320.589844 170.113281 C 318.539062 169.785156 316.484375 169.515625 314.421875 169.300781 C 312.359375 169.082031 310.289062 168.921875 308.21875 168.8125 C 306.144531 168.707031 304.070312 168.652344 301.996094 168.65625 C 299.921875 168.65625 297.847656 168.714844 295.777344 168.824219 C 293.703125 168.9375 291.636719 169.101562 289.574219 169.320312 C 287.511719 169.542969 285.453125 169.816406 283.402344 170.144531 C 281.355469 170.472656 279.316406 170.855469 277.289062 171.289062 C 275.257812 171.726562 273.242188 172.214844 271.238281 172.757812 C 269.238281 173.300781 267.253906 173.894531 265.28125 174.539062 C 263.308594 175.1875 261.355469 175.886719 259.421875 176.636719 C 257.484375 177.386719 255.570312 178.183594 253.679688 179.035156 C 251.785156 179.886719 249.917969 180.785156 248.070312 181.734375 C 246.226562 182.683594 244.40625 183.683594 242.617188 184.726562 C 240.820312 185.773438 239.058594 186.863281 237.320312 188 C 235.585938 189.140625 233.882812 190.320312 232.210938 191.550781 C 230.535156 192.777344 228.898438 194.046875 227.292969 195.363281 C 225.6875 196.675781 224.117188 198.03125 222.582031 199.429688 C 221.046875 200.824219 219.550781 202.261719 218.089844 203.738281 C 216.632812 205.214844 215.214844 206.726562 213.835938 208.277344 C 212.457031 209.828125 211.117188 211.414062 209.820312 213.035156 C 208.527344 214.65625 207.273438 216.308594 206.066406 217.996094 C 204.859375 219.683594 203.695312 221.402344 202.578125 223.148438 C 201.457031 224.894531 200.386719 226.671875 199.363281 228.476562 C 198.339844 230.28125 197.363281 232.113281 196.4375 233.96875 C 195.507812 235.824219 194.628906 237.703125 193.800781 239.605469 C 192.972656 241.507812 192.195312 243.433594 191.46875 245.375 C 190.742188 247.320312 190.066406 249.28125 189.441406 251.257812 C 188.816406 253.238281 188.246094 255.230469 187.726562 257.242188 C 187.207031 259.25 186.742188 261.273438 186.328125 263.304688 C 185.917969 265.339844 185.558594 267.382812 185.253906 269.433594 C 184.949219 271.488281 184.699219 273.546875 184.5 275.613281 C 184.304688 277.679688 184.164062 279.746094 184.078125 281.820312 C 183.992188 283.894531 183.957031 285.96875 183.980469 288.042969 C 184.003906 290.117188 184.082031 292.191406 184.210938 294.261719 C 184.339844 296.332031 184.527344 298.398438 184.769531 300.460938 C 185.007812 302.519531 185.300781 304.574219 185.652344 306.621094 C 186 308.664062 186.402344 310.699219 186.859375 312.726562 C 187.3125 314.75 187.820312 316.761719 188.382812 318.757812 C 188.945312 320.753906 189.558594 322.734375 190.226562 324.699219 C 190.890625 326.667969 191.609375 328.613281 192.378906 330.539062 C 193.148438 332.46875 193.964844 334.375 194.835938 336.257812 C 195.703125 338.144531 196.621094 340.003906 197.589844 341.839844 C 198.554688 343.675781 199.570312 345.484375 200.632812 347.265625 C 201.695312 349.046875 202.804688 350.800781 203.957031 352.523438 C 205.113281 354.25 206.3125 355.941406 207.558594 357.601562 C 208.800781 359.261719 210.085938 360.890625 211.417969 362.484375 C 212.75 364.074219 214.117188 365.632812 215.53125 367.152344 C 216.941406 368.671875 218.394531 370.15625 219.882812 371.601562 C 221.375 373.042969 222.902344 374.449219 224.464844 375.8125 C 226.03125 377.175781 227.628906 378.496094 229.261719 379.777344 C 230.894531 381.058594 232.5625 382.292969 234.257812 383.484375 C 229.765625 385.101562 225.335938 386.875 220.96875 388.808594 C 216.601562 390.738281 212.308594 392.820312 208.089844 395.054688 C 203.867188 397.292969 199.734375 399.671875 195.683594 402.199219 C 191.628906 404.726562 187.671875 407.394531 183.808594 410.203125 C 179.945312 413.007812 176.1875 415.949219 172.535156 419.023438 C 168.878906 422.097656 165.335938 425.292969 161.90625 428.617188 C 158.480469 431.941406 155.171875 435.382812 151.988281 438.941406 C 148.800781 442.5 145.746094 446.164062 142.820312 449.9375 C 139.894531 453.710938 137.105469 457.585938 134.457031 461.554688 C 131.804688 465.527344 129.292969 469.585938 126.929688 473.734375 C 124.566406 477.882812 122.351562 482.113281 120.285156 486.417969 C 118.21875 490.722656 116.308594 495.09375 114.550781 499.535156 C 112.796875 503.976562 111.199219 508.472656 109.761719 513.027344 C 108.324219 517.582031 107.046875 522.179688 105.933594 526.824219 C 104.824219 531.46875 103.875 536.144531 103.09375 540.855469 C 102.3125 545.566406 101.699219 550.296875 101.25 555.050781 C 101.191406 555.640625 101.167969 556.230469 101.171875 556.820312 C 101.175781 557.410156 101.210938 558 101.277344 558.585938 C 101.34375 559.175781 101.4375 559.757812 101.566406 560.332031 C 101.691406 560.910156 101.847656 561.480469 102.03125 562.039062 C 102.21875 562.601562 102.433594 563.152344 102.675781 563.691406 C 102.917969 564.230469 103.183594 564.753906 103.480469 565.265625 C 103.78125 565.773438 104.101562 566.269531 104.453125 566.746094 C 104.800781 567.222656 105.171875 567.679688 105.566406 568.121094 C 105.964844 568.558594 106.378906 568.972656 106.820312 569.371094 C 107.257812 569.765625 107.71875 570.136719 108.195312 570.484375 C 108.671875 570.832031 109.164062 571.152344 109.675781 571.449219 C 110.1875 571.746094 110.714844 572.015625 111.253906 572.257812 C 111.792969 572.496094 112.339844 572.710938 112.902344 572.894531 C 113.464844 573.078125 114.03125 573.234375 114.609375 573.359375 C 115.1875 573.484375 115.769531 573.582031 116.359375 573.648438 C 116.945312 573.710938 117.535156 573.746094 118.125 573.75 L 354.375 573.75 C 354.929688 573.75 355.480469 573.722656 356.027344 573.667969 C 356.578125 573.613281 357.125 573.535156 357.667969 573.425781 C 358.207031 573.316406 358.742188 573.183594 359.273438 573.023438 C 359.804688 572.863281 360.320312 572.675781 360.832031 572.464844 C 361.339844 572.253906 361.839844 572.019531 362.328125 571.757812 C 362.816406 571.496094 363.289062 571.210938 363.746094 570.90625 C 364.210938 570.597656 364.652344 570.269531 365.078125 569.917969 C 365.503906 569.570312 365.914062 569.199219 366.304688 568.804688 C 366.699219 568.414062 367.070312 568.007812 367.417969 567.578125 C 367.769531 567.152344 368.097656 566.710938 368.402344 566.25 C 368.710938 565.789062 368.996094 565.316406 369.253906 564.828125 C 369.515625 564.34375 369.753906 563.84375 369.960938 563.332031 C 370.175781 562.820312 370.359375 562.300781 370.523438 561.773438 C 370.679688 561.246094 370.816406 560.710938 370.925781 560.167969 C 371.035156 559.625 371.113281 559.078125 371.167969 558.527344 C 371.222656 557.980469 371.25 557.425781 371.25 556.875 C 371.25 556.324219 371.222656 555.769531 371.167969 555.21875 C 371.113281 554.671875 371.035156 554.125 370.925781 553.582031 C 370.816406 553.039062 370.679688 552.503906 370.523438 551.976562 C 370.359375 551.445312 370.175781 550.925781 369.960938 550.414062 C 369.753906 549.90625 369.515625 549.40625 369.253906 548.917969 C 368.996094 548.429688 368.710938 547.957031 368.402344 547.5 C 368.097656 547.039062 367.769531 546.59375 367.417969 546.167969 C 367.070312 545.742188 366.699219 545.332031 366.304688 544.941406 C 365.914062 544.550781 365.503906 544.179688 365.078125 543.828125 C 364.652344 543.480469 364.210938 543.148438 363.746094 542.84375 C 363.289062 542.535156 362.816406 542.253906 362.328125 541.992188 C 361.839844 541.730469 361.339844 541.496094 360.832031 541.285156 C 360.320312 541.074219 359.804688 540.886719 359.273438 540.726562 C 358.742188 540.566406 358.207031 540.433594 357.667969 540.324219 C 357.125 540.214844 356.578125 540.136719 356.027344 540.082031 C 355.480469 540.027344 354.929688 540 354.375 540 L 303.75 540 L 303.75 455.625 C 303.753906 455.074219 303.726562 454.519531 303.667969 453.972656 C 303.617188 453.421875 303.535156 452.875 303.425781 452.332031 C 303.316406 451.789062 303.183594 451.253906 303.023438 450.726562 C 302.863281 450.195312 302.675781 449.675781 302.460938 449.167969 C 302.253906 448.65625 302.019531 448.15625 301.757812 447.667969 C 301.496094 447.183594 301.210938 446.707031 300.902344 446.25 C 300.597656 445.789062 300.269531 445.347656 299.917969 444.917969 C 299.570312 444.492188 299.199219 444.082031 298.804688 443.691406 C 298.417969 443.300781 298.007812 442.929688 297.578125 442.578125 C 297.152344 442.230469 296.707031 441.902344 296.246094 441.59375 C 295.789062 441.285156 295.316406 441.003906 294.828125 440.742188 C 294.339844 440.480469 293.839844 440.246094 293.332031 440.035156 C 292.820312 439.824219 292.300781 439.636719 291.769531 439.476562 C 291.242188 439.316406 290.707031 439.183594 290.164062 439.074219 C 289.621094 438.96875 289.078125 438.886719 288.527344 438.832031 C 287.980469 438.777344 287.425781 438.75 286.875 438.75 C 286.324219 438.75 285.769531 438.777344 285.222656 438.832031 C 284.671875 438.886719 284.121094 438.964844 283.582031 439.074219 C 283.039062 439.179688 282.503906 439.316406 281.972656 439.476562 C 281.445312 439.636719 280.925781 439.824219 280.414062 440.035156 C 279.90625 440.246094 279.40625 440.480469 278.917969 440.742188 C 278.429688 441.003906 277.957031 441.285156 277.5 441.59375 C 277.039062 441.902344 276.597656 442.230469 276.167969 442.578125 C 275.742188 442.929688 275.332031 443.300781 274.941406 443.691406 C 274.550781 444.082031 274.179688 444.492188 273.828125 444.917969 C 273.476562 445.347656 273.148438 445.789062 272.839844 446.25 C 272.535156 446.710938 272.25 447.183594 271.988281 447.671875 C 271.730469 448.15625 271.492188 448.65625 271.28125 449.167969 C 271.070312 449.675781 270.882812 450.199219 270.726562 450.726562 C 270.566406 451.253906 270.429688 451.789062 270.324219 452.332031 C 270.214844 452.875 270.132812 453.421875 270.082031 453.972656 C 270.027344 454.519531 270 455.074219 270 455.625 L 270 540 L 137.617188 540 C 138.097656 537.640625 138.628906 535.292969 139.210938 532.957031 C 139.792969 530.621094 140.425781 528.296875 141.105469 525.988281 C 141.789062 523.675781 142.519531 521.382812 143.300781 519.105469 C 144.078125 516.828125 144.910156 514.566406 145.785156 512.324219 C 146.660156 510.082031 147.585938 507.859375 148.554688 505.65625 C 149.527344 503.453125 150.546875 501.269531 151.609375 499.109375 C 152.675781 496.953125 153.785156 494.816406 154.941406 492.703125 C 156.101562 490.589844 157.300781 488.503906 158.546875 486.445312 C 159.792969 484.382812 161.082031 482.351562 162.414062 480.34375 C 163.746094 478.339844 165.121094 476.363281 166.539062 474.417969 C 167.957031 472.46875 169.414062 470.554688 170.914062 468.671875 C 172.414062 466.789062 173.953125 464.9375 175.535156 463.117188 C 177.113281 461.300781 178.730469 459.515625 180.382812 457.765625 C 182.039062 456.019531 183.730469 454.304688 185.457031 452.628906 C 187.1875 450.953125 188.949219 449.3125 190.75 447.710938 C 192.546875 446.109375 194.378906 444.546875 196.246094 443.027344 C 198.109375 441.503906 200.007812 440.019531 201.933594 438.578125 C 203.863281 437.136719 205.824219 435.738281 207.8125 434.378906 C 209.800781 433.023438 211.816406 431.707031 213.863281 430.4375 C 215.90625 429.167969 217.976562 427.9375 220.078125 426.757812 C 222.175781 425.574219 224.296875 424.4375 226.441406 423.34375 C 228.589844 422.253906 230.757812 421.207031 232.945312 420.207031 C 235.136719 419.207031 237.347656 418.257812 239.582031 417.351562 C 241.8125 416.449219 244.0625 415.59375 246.332031 414.785156 C 248.597656 413.976562 250.882812 413.21875 253.183594 412.507812 C 255.484375 411.796875 257.800781 411.136719 260.128906 410.523438 C 262.457031 409.914062 264.796875 409.351562 267.152344 408.84375 C 269.503906 408.332031 271.867188 407.871094 274.242188 407.460938 C 276.613281 407.050781 278.996094 406.691406 281.382812 406.386719 C 283.769531 406.078125 286.164062 405.820312 288.5625 405.617188 C 290.960938 405.410156 293.363281 405.253906 295.769531 405.152344 C 298.175781 405.050781 300.582031 405 302.992188 405 C 309.753906 405.015625 316.496094 405.421875 323.210938 406.230469 C 329.925781 407.035156 336.570312 408.230469 343.144531 409.820312 C 349.71875 411.40625 356.179688 413.375 362.523438 415.71875 C 368.863281 418.066406 375.046875 420.777344 381.070312 423.847656 C 382.03125 424.320312 383.023438 424.691406 384.050781 424.96875 C 385.082031 425.246094 386.125 425.421875 387.191406 425.5 C 388.253906 425.574219 389.316406 425.546875 390.371094 425.417969 C 391.429688 425.289062 392.464844 425.058594 393.480469 424.730469 C 394.492188 424.398438 395.464844 423.976562 396.398438 423.457031 C 397.332031 422.941406 398.203125 422.339844 399.019531 421.652344 C 399.832031 420.964844 400.574219 420.207031 401.246094 419.378906 C 401.914062 418.546875 402.496094 417.660156 402.996094 416.71875 C 403.496094 415.777344 403.898438 414.792969 404.203125 413.773438 C 404.515625 412.753906 404.722656 411.714844 404.828125 410.652344 C 404.9375 409.59375 404.941406 408.53125 404.84375 407.46875 C 404.746094 406.40625 404.550781 405.367188 404.25 404.34375 C 403.953125 403.320312 403.554688 402.332031 403.066406 401.386719 C 402.578125 400.441406 402.003906 399.546875 401.339844 398.710938 C 400.679688 397.875 399.941406 397.113281 399.132812 396.417969 C 398.324219 395.722656 397.457031 395.113281 396.53125 394.589844 Z M 302.0625 371.25 C 300.679688 371.25 299.300781 371.214844 297.921875 371.148438 C 296.542969 371.082031 295.167969 370.980469 293.792969 370.84375 C 292.417969 370.707031 291.046875 370.539062 289.679688 370.335938 C 288.316406 370.132812 286.953125 369.898438 285.601562 369.628906 C 284.246094 369.359375 282.898438 369.054688 281.558594 368.722656 C 280.222656 368.386719 278.890625 368.019531 277.570312 367.617188 C 276.25 367.214844 274.9375 366.78125 273.636719 366.316406 C 272.335938 365.851562 271.046875 365.355469 269.773438 364.828125 C 268.496094 364.296875 267.234375 363.738281 265.988281 363.148438 C 264.738281 362.558594 263.503906 361.9375 262.289062 361.289062 C 261.070312 360.636719 259.867188 359.957031 258.683594 359.246094 C 257.5 358.535156 256.332031 357.796875 255.183594 357.03125 C 254.035156 356.261719 252.910156 355.46875 251.800781 354.644531 C 250.691406 353.824219 249.601562 352.972656 248.535156 352.097656 C 247.46875 351.222656 246.421875 350.320312 245.398438 349.394531 C 244.375 348.464844 243.375 347.515625 242.398438 346.535156 C 241.421875 345.558594 240.472656 344.558594 239.542969 343.539062 C 238.617188 342.515625 237.714844 341.46875 236.839844 340.402344 C 235.964844 339.335938 235.113281 338.246094 234.289062 337.136719 C 233.46875 336.027344 232.671875 334.898438 231.90625 333.75 C 231.136719 332.601562 230.398438 331.4375 229.691406 330.25 C 228.980469 329.066406 228.300781 327.867188 227.652344 326.648438 C 227 325.429688 226.378906 324.199219 225.789062 322.949219 C 225.199219 321.699219 224.636719 320.4375 224.109375 319.164062 C 223.582031 317.886719 223.082031 316.597656 222.621094 315.300781 C 222.15625 314 221.722656 312.6875 221.320312 311.367188 C 220.917969 310.046875 220.550781 308.714844 220.214844 307.375 C 219.878906 306.035156 219.578125 304.6875 219.308594 303.335938 C 219.039062 301.980469 218.800781 300.621094 218.597656 299.253906 C 218.398438 297.890625 218.226562 296.519531 218.09375 295.144531 C 217.957031 293.769531 217.855469 292.394531 217.789062 291.015625 C 217.722656 289.636719 217.6875 288.257812 217.6875 286.875 C 217.6875 285.496094 217.722656 284.113281 217.789062 282.734375 C 217.855469 281.355469 217.957031 279.980469 218.09375 278.605469 C 218.230469 277.230469 218.398438 275.859375 218.601562 274.496094 C 218.800781 273.128906 219.039062 271.769531 219.308594 270.414062 C 219.578125 269.058594 219.878906 267.714844 220.214844 266.375 C 220.550781 265.035156 220.917969 263.703125 221.320312 262.382812 C 221.722656 261.0625 222.15625 259.75 222.621094 258.449219 C 223.085938 257.148438 223.582031 255.863281 224.109375 254.585938 C 224.636719 253.308594 225.199219 252.046875 225.789062 250.800781 C 226.378906 249.550781 227 248.320312 227.652344 247.101562 C 228.300781 245.882812 228.980469 244.683594 229.691406 243.496094 C 230.402344 242.3125 231.136719 241.148438 231.90625 240 C 232.671875 238.851562 233.46875 237.722656 234.289062 236.613281 C 235.113281 235.503906 235.960938 234.417969 236.839844 233.347656 C 237.714844 232.28125 238.617188 231.234375 239.542969 230.210938 C 240.472656 229.1875 241.421875 228.1875 242.398438 227.214844 C 243.375 226.238281 244.375 225.285156 245.398438 224.355469 C 246.421875 223.429688 247.46875 222.527344 248.535156 221.652344 C 249.601562 220.777344 250.691406 219.925781 251.800781 219.105469 C 252.910156 218.28125 254.035156 217.488281 255.183594 216.71875 C 256.332031 215.953125 257.5 215.214844 258.683594 214.503906 C 259.867188 213.792969 261.070312 213.113281 262.289062 212.460938 C 263.507812 211.8125 264.738281 211.191406 265.988281 210.601562 C 267.234375 210.011719 268.496094 209.449219 269.773438 208.921875 C 271.046875 208.394531 272.335938 207.898438 273.636719 207.433594 C 274.9375 206.96875 276.25 206.535156 277.570312 206.132812 C 278.890625 205.734375 280.222656 205.363281 281.5625 205.027344 C 282.902344 204.691406 284.25 204.390625 285.601562 204.121094 C 286.957031 203.851562 288.316406 203.617188 289.683594 203.414062 C 291.046875 203.210938 292.417969 203.042969 293.792969 202.90625 C 295.167969 202.773438 296.542969 202.671875 297.921875 202.601562 C 299.300781 202.535156 300.679688 202.5 302.0625 202.5 C 303.441406 202.5 304.824219 202.535156 306.203125 202.601562 C 307.582031 202.671875 308.960938 202.773438 310.332031 202.90625 C 311.707031 203.042969 313.078125 203.210938 314.441406 203.414062 C 315.808594 203.617188 317.171875 203.851562 318.523438 204.121094 C 319.878906 204.390625 321.226562 204.691406 322.5625 205.027344 C 323.90625 205.363281 325.234375 205.734375 326.554688 206.132812 C 327.875 206.535156 329.1875 206.96875 330.488281 207.433594 C 331.789062 207.898438 333.074219 208.394531 334.351562 208.921875 C 335.625 209.449219 336.886719 210.011719 338.136719 210.601562 C 339.382812 211.191406 340.617188 211.8125 341.835938 212.460938 C 343.054688 213.113281 344.253906 213.792969 345.4375 214.503906 C 346.621094 215.214844 347.789062 215.953125 348.9375 216.71875 C 350.085938 217.488281 351.214844 218.28125 352.324219 219.105469 C 353.433594 219.925781 354.519531 220.777344 355.589844 221.652344 C 356.65625 222.527344 357.703125 223.429688 358.726562 224.355469 C 359.746094 225.285156 360.746094 226.238281 361.726562 227.214844 C 362.703125 228.1875 363.652344 229.1875 364.578125 230.210938 C 365.507812 231.234375 366.410156 232.28125 367.285156 233.347656 C 368.160156 234.417969 369.007812 235.503906 369.832031 236.613281 C 370.65625 237.722656 371.449219 238.851562 372.214844 240 C 372.980469 241.144531 373.71875 242.3125 374.429688 243.496094 C 375.140625 244.683594 375.820312 245.882812 376.472656 247.101562 C 377.121094 248.320312 377.746094 249.550781 378.335938 250.800781 C 378.925781 252.046875 379.484375 253.308594 380.011719 254.585938 C 380.539062 255.859375 381.035156 257.148438 381.503906 258.449219 C 381.96875 259.75 382.402344 261.058594 382.804688 262.382812 C 383.207031 263.703125 383.574219 265.03125 383.910156 266.371094 C 384.242188 267.710938 384.546875 269.058594 384.816406 270.414062 C 385.085938 271.769531 385.320312 273.128906 385.523438 274.496094 C 385.726562 275.859375 385.894531 277.230469 386.03125 278.605469 C 386.164062 279.980469 386.265625 281.355469 386.335938 282.734375 C 386.402344 284.113281 386.4375 285.496094 386.4375 286.875 C 386.4375 288.253906 386.402344 289.632812 386.332031 291.011719 C 386.261719 292.390625 386.15625 293.769531 386.019531 295.140625 C 385.882812 296.515625 385.714844 297.886719 385.511719 299.25 C 385.308594 300.617188 385.070312 301.976562 384.796875 303.328125 C 384.527344 304.683594 384.222656 306.027344 383.886719 307.367188 C 383.550781 308.707031 383.183594 310.035156 382.78125 311.355469 C 382.378906 312.675781 381.945312 313.988281 381.480469 315.285156 C 381.015625 316.585938 380.515625 317.871094 379.988281 319.148438 C 379.457031 320.421875 378.902344 321.683594 378.308594 322.933594 C 377.71875 324.179688 377.097656 325.410156 376.445312 326.628906 C 375.792969 327.847656 375.113281 329.046875 374.402344 330.230469 C 373.691406 331.414062 372.953125 332.582031 372.1875 333.726562 C 371.417969 334.875 370.625 336.003906 369.800781 337.109375 C 368.980469 338.21875 368.128906 339.308594 367.253906 340.375 C 366.378906 341.441406 365.476562 342.484375 364.550781 343.507812 C 363.621094 344.53125 362.671875 345.53125 361.695312 346.507812 C 360.71875 347.484375 359.71875 348.433594 358.695312 349.363281 C 357.671875 350.289062 356.625 351.191406 355.558594 352.066406 C 354.492188 352.941406 353.40625 353.789062 352.296875 354.613281 C 351.1875 355.4375 350.0625 356.230469 348.914062 357 C 347.765625 357.765625 346.601562 358.503906 345.417969 359.214844 C 344.230469 359.925781 343.03125 360.605469 341.8125 361.257812 C 340.597656 361.90625 339.367188 362.53125 338.121094 363.121094 C 336.871094 363.710938 335.609375 364.273438 334.335938 364.800781 C 333.0625 365.328125 331.773438 365.828125 330.472656 366.292969 C 329.171875 366.757812 327.863281 367.191406 326.542969 367.59375 C 325.222656 367.996094 323.890625 368.363281 322.554688 368.699219 C 321.214844 369.039062 319.867188 369.339844 318.515625 369.613281 C 317.164062 369.882812 315.800781 370.121094 314.4375 370.324219 C 313.070312 370.527344 311.703125 370.699219 310.328125 370.832031 C 308.957031 370.972656 307.578125 371.074219 306.203125 371.144531 C 304.824219 371.210938 303.441406 371.25 302.0625 371.25 Z M 302.0625 371.25 " fill-opacity="1" fill-rule="nonzero"/><path fill="#009688" d="M 388.125 472.5 L 354.375 472.5 C 353.824219 472.5 353.269531 472.527344 352.722656 472.582031 C 352.171875 472.636719 351.625 472.714844 351.082031 472.824219 C 350.539062 472.933594 350.007812 473.066406 349.476562 473.226562 C 348.945312 473.386719 348.429688 473.574219 347.914062 473.785156 C 347.402344 473.996094 346.90625 474.230469 346.417969 474.492188 C 345.929688 474.753906 345.457031 475.035156 345 475.34375 C 344.539062 475.652344 344.097656 475.980469 343.667969 476.332031 C 343.242188 476.679688 342.832031 477.050781 342.441406 477.441406 C 342.050781 477.832031 341.679688 478.242188 341.332031 478.667969 C 340.980469 479.097656 340.648438 479.539062 340.34375 480 C 340.035156 480.460938 339.75 480.933594 339.488281 481.421875 C 339.230469 481.90625 338.996094 482.40625 338.785156 482.917969 C 338.570312 483.425781 338.386719 483.945312 338.226562 484.476562 C 338.066406 485.003906 337.933594 485.539062 337.824219 486.082031 C 337.714844 486.625 337.636719 487.171875 337.582031 487.722656 C 337.527344 488.269531 337.5 488.824219 337.5 489.375 C 337.5 489.925781 337.527344 490.480469 337.582031 491.027344 C 337.636719 491.578125 337.714844 492.125 337.824219 492.667969 C 337.933594 493.207031 338.066406 493.742188 338.226562 494.273438 C 338.386719 494.800781 338.570312 495.320312 338.785156 495.832031 C 338.996094 496.34375 339.230469 496.839844 339.488281 497.328125 C 339.75 497.816406 340.035156 498.289062 340.34375 498.75 C 340.648438 499.210938 340.980469 499.652344 341.332031 500.078125 C 341.679688 500.507812 342.050781 500.914062 342.441406 501.304688 C 342.832031 501.699219 343.242188 502.070312 343.667969 502.417969 C 344.09375 502.769531 344.535156 503.097656 344.996094 503.40625 C 345.457031 503.710938 345.929688 503.996094 346.417969 504.257812 C 346.90625 504.519531 347.402344 504.753906 347.914062 504.964844 C 348.429688 505.175781 348.945312 505.363281 349.476562 505.523438 C 350.007812 505.683594 350.539062 505.816406 351.082031 505.925781 C 351.625 506.03125 352.171875 506.113281 352.722656 506.167969 C 353.269531 506.222656 353.824219 506.25 354.375 506.25 L 388.125 506.25 C 388.675781 506.25 389.226562 506.222656 389.777344 506.167969 C 390.328125 506.113281 390.871094 506.03125 391.414062 505.925781 C 391.957031 505.816406 392.492188 505.683594 393.019531 505.523438 C 393.550781 505.363281 394.070312 505.175781 394.578125 504.964844 C 395.089844 504.753906 395.589844 504.515625 396.078125 504.257812 C 396.566406 503.996094 397.039062 503.710938 397.496094 503.40625 C 397.957031 503.097656 398.402344 502.769531 398.828125 502.417969 C 399.257812 502.066406 399.667969 501.699219 400.054688 501.304688 C 400.449219 500.914062 400.816406 500.507812 401.171875 500.078125 C 401.519531 499.652344 401.847656 499.210938 402.152344 498.75 C 402.460938 498.289062 402.746094 497.816406 403.007812 497.328125 C 403.265625 496.839844 403.5 496.34375 403.710938 495.832031 C 403.925781 495.320312 404.113281 494.800781 404.269531 494.273438 C 404.429688 493.746094 404.566406 493.207031 404.675781 492.667969 C 404.785156 492.125 404.863281 491.578125 404.917969 491.027344 C 404.976562 490.480469 405.003906 489.925781 405 489.375 C 405.003906 488.824219 404.976562 488.269531 404.917969 487.722656 C 404.863281 487.171875 404.785156 486.625 404.675781 486.082031 C 404.566406 485.539062 404.429688 485.003906 404.269531 484.476562 C 404.113281 483.949219 403.925781 483.425781 403.710938 482.917969 C 403.5 482.40625 403.265625 481.90625 403.003906 481.421875 C 402.746094 480.933594 402.460938 480.457031 402.152344 480 C 401.847656 479.539062 401.519531 479.097656 401.171875 478.667969 C 400.816406 478.242188 400.449219 477.832031 400.054688 477.441406 C 399.667969 477.050781 399.257812 476.679688 398.828125 476.332031 C 398.402344 475.980469 397.957031 475.652344 397.496094 475.34375 C 397.039062 475.035156 396.566406 474.753906 396.078125 474.492188 C 395.589844 474.230469 395.089844 473.996094 394.578125 473.785156 C 394.070312 473.574219 393.550781 473.386719 393.019531 473.226562 C 392.492188 473.066406 391.957031 472.933594 391.414062 472.824219 C 390.871094 472.714844 390.328125 472.636719 389.777344 472.582031 C 389.226562 472.527344 388.675781 472.5 388.125 472.5 Z M 388.125 472.5 " fill-opacity="1" fill-rule="nonzero"/></svg>