<svg xmlns="http://www.w3.org/2000/svg" xmlns:xlink="http://www.w3.org/1999/xlink" width="1080" zoomAndPan="magnify" viewBox="0 0 810 809.999993" height="1080" preserveAspectRatio="xMidYMid meet" version="1.0"><path fill="#009688" d="M 556.875 487.6875 L 556.875 352.6875 C 556.875 351.308594 556.839844 349.925781 556.773438 348.546875 C 556.703125 347.167969 556.601562 345.792969 556.46875 344.417969 C 556.332031 343.042969 556.164062 341.671875 555.960938 340.308594 C 555.757812 338.941406 555.523438 337.582031 555.253906 336.226562 C 554.984375 334.871094 554.679688 333.527344 554.34375 332.1875 C 554.007812 330.847656 553.640625 329.515625 553.242188 328.195312 C 552.839844 326.875 552.40625 325.5625 551.941406 324.265625 C 551.476562 322.964844 550.980469 321.675781 550.449219 320.398438 C 549.921875 319.121094 549.363281 317.859375 548.769531 316.609375 C 548.183594 315.363281 547.5625 314.132812 546.910156 312.914062 C 546.261719 311.695312 545.578125 310.496094 544.871094 309.3125 C 544.160156 308.125 543.421875 306.960938 542.652344 305.8125 C 541.886719 304.664062 541.09375 303.535156 540.269531 302.425781 C 539.449219 301.316406 538.597656 300.230469 537.722656 299.160156 C 536.84375 298.09375 535.945312 297.046875 535.015625 296.023438 C 534.089844 295.003906 533.136719 294.003906 532.160156 293.027344 C 531.183594 292.050781 530.183594 291.097656 529.160156 290.171875 C 528.140625 289.242188 527.09375 288.339844 526.027344 287.464844 C 524.957031 286.589844 523.871094 285.738281 522.761719 284.917969 C 521.652344 284.09375 520.523438 283.300781 519.375 282.53125 C 518.226562 281.765625 517.058594 281.027344 515.875 280.316406 C 514.691406 279.605469 513.492188 278.925781 512.273438 278.273438 C 511.054688 277.625 509.820312 277.003906 508.574219 276.414062 C 507.324219 275.824219 506.0625 275.261719 504.789062 274.734375 C 503.511719 274.207031 502.222656 273.707031 500.921875 273.246094 C 499.625 272.777344 498.3125 272.347656 496.992188 271.945312 C 495.671875 271.546875 494.339844 271.175781 493 270.839844 C 491.660156 270.503906 490.3125 270.203125 488.960938 269.933594 C 487.605469 269.664062 486.246094 269.429688 484.878906 269.226562 C 483.515625 269.023438 482.144531 268.855469 480.769531 268.71875 C 479.398438 268.582031 478.019531 268.480469 476.640625 268.414062 C 475.261719 268.347656 473.882812 268.3125 472.5 268.3125 L 472.113281 268.3125 C 473.976562 265.890625 475.699219 263.371094 477.289062 260.757812 C 478.875 258.144531 480.3125 255.453125 481.601562 252.683594 C 482.890625 249.910156 484.023438 247.078125 485.003906 244.179688 C 485.980469 241.285156 486.796875 238.34375 487.449219 235.355469 C 488.105469 232.371094 488.597656 229.359375 488.917969 226.320312 C 489.242188 223.28125 489.398438 220.230469 489.382812 217.175781 C 489.371094 214.117188 489.191406 211.070312 488.84375 208.03125 C 488.496094 204.996094 487.980469 201.988281 487.300781 199.007812 C 486.414062 195.070312 485.25 191.214844 483.808594 187.445312 C 482.367188 183.675781 480.664062 180.03125 478.699219 176.503906 C 476.734375 172.980469 474.527344 169.613281 472.078125 166.40625 C 469.628906 163.199219 466.964844 160.183594 464.078125 157.359375 C 462.136719 155.539062 460.109375 153.816406 457.996094 152.191406 C 455.886719 150.566406 453.699219 149.046875 451.441406 147.632812 C 449.183594 146.21875 446.863281 144.914062 444.480469 143.722656 C 442.097656 142.53125 439.664062 141.460938 437.175781 140.503906 C 434.691406 139.546875 432.164062 138.714844 429.597656 138.003906 C 427.03125 137.289062 424.433594 136.703125 421.8125 136.242188 C 419.1875 135.777344 416.546875 135.445312 413.890625 135.238281 C 411.234375 135.03125 408.574219 134.949219 405.910156 135 L 405 135 C 403.0625 134.960938 401.125 134.988281 399.1875 135.085938 C 397.25 135.183594 395.320312 135.347656 393.394531 135.582031 C 391.46875 135.8125 389.554688 136.113281 387.648438 136.480469 C 385.746094 136.847656 383.855469 137.28125 381.980469 137.777344 C 380.109375 138.277344 378.253906 138.84375 376.421875 139.476562 C 374.589844 140.105469 372.777344 140.800781 370.992188 141.558594 C 369.207031 142.316406 367.453125 143.136719 365.726562 144.015625 C 363.996094 144.898438 362.300781 145.839844 360.640625 146.839844 C 358.980469 147.839844 357.355469 148.894531 355.769531 150.011719 C 354.183594 151.125 352.636719 152.296875 351.132812 153.519531 C 349.628906 154.742188 348.167969 156.015625 346.753906 157.34375 C 345.339844 158.667969 343.972656 160.042969 342.652344 161.464844 C 341.335938 162.886719 340.070312 164.355469 338.855469 165.863281 C 337.640625 167.378906 336.480469 168.929688 335.375 170.523438 C 334.269531 172.117188 333.21875 173.746094 332.226562 175.414062 C 331.238281 177.078125 330.304688 178.777344 329.433594 180.511719 C 328.5625 182.242188 327.753906 184.003906 327.007812 185.796875 C 326.257812 187.585938 325.574219 189.398438 324.953125 191.234375 C 324.335938 193.070312 323.78125 194.929688 323.289062 196.804688 C 322.800781 198.683594 322.378906 200.574219 322.023438 202.480469 C 321.667969 204.386719 321.375 206.300781 321.15625 208.230469 C 320.933594 210.15625 320.78125 212.085938 320.695312 214.023438 C 320.609375 215.960938 320.59375 217.898438 320.644531 219.839844 C 320.695312 221.777344 320.8125 223.710938 321 225.640625 C 321.1875 227.570312 321.441406 229.492188 321.761719 231.40625 C 322.085938 233.316406 322.472656 235.214844 322.929688 237.101562 C 323.386719 238.988281 323.910156 240.851562 324.496094 242.703125 C 325.082031 244.550781 325.734375 246.375 326.449219 248.175781 C 327.164062 249.976562 327.941406 251.753906 328.78125 253.5 C 329.621094 255.25 330.523438 256.964844 331.484375 258.648438 C 332.445312 260.332031 333.464844 261.984375 334.542969 263.59375 C 335.621094 265.207031 336.75 266.777344 337.9375 268.3125 L 337.5 268.3125 C 336.121094 268.3125 334.738281 268.347656 333.359375 268.414062 C 331.980469 268.480469 330.605469 268.582031 329.230469 268.71875 C 327.855469 268.855469 326.484375 269.023438 325.121094 269.226562 C 323.753906 269.429688 322.394531 269.664062 321.039062 269.933594 C 319.683594 270.203125 318.335938 270.503906 316.996094 270.839844 C 315.660156 271.175781 314.328125 271.546875 313.007812 271.945312 C 311.6875 272.347656 310.375 272.78125 309.074219 273.246094 C 307.773438 273.710938 306.488281 274.207031 305.210938 274.734375 C 303.933594 275.265625 302.671875 275.824219 301.425781 276.414062 C 300.175781 277.003906 298.945312 277.625 297.726562 278.277344 C 296.507812 278.925781 295.308594 279.609375 294.125 280.316406 C 292.9375 281.027344 291.769531 281.765625 290.625 282.535156 C 289.472656 283.300781 288.347656 284.097656 287.238281 284.917969 C 286.128906 285.742188 285.039062 286.589844 283.972656 287.464844 C 282.90625 288.339844 281.859375 289.242188 280.835938 290.171875 C 279.816406 291.097656 278.816406 292.050781 277.839844 293.027344 C 276.859375 294.003906 275.910156 295 274.980469 296.023438 C 274.054688 297.046875 273.15625 298.09375 272.277344 299.160156 C 271.402344 300.230469 270.554688 301.316406 269.730469 302.425781 C 268.90625 303.535156 268.113281 304.664062 267.347656 305.8125 C 266.578125 306.960938 265.839844 308.125 265.132812 309.3125 C 264.421875 310.496094 263.738281 311.695312 263.089844 312.914062 C 262.4375 314.132812 261.816406 315.367188 261.226562 316.613281 C 260.636719 317.863281 260.078125 319.125 259.546875 320.398438 C 259.019531 321.675781 258.523438 322.964844 258.054688 324.265625 C 257.59375 325.566406 257.160156 326.875 256.757812 328.195312 C 256.355469 329.519531 255.988281 330.847656 255.652344 332.1875 C 255.316406 333.527344 255.015625 334.875 254.746094 336.226562 C 254.476562 337.582031 254.242188 338.941406 254.039062 340.308594 C 253.835938 341.675781 253.664062 343.042969 253.53125 344.417969 C 253.394531 345.792969 253.292969 347.171875 253.226562 348.550781 C 253.160156 349.925781 253.125 351.308594 253.125 352.6875 L 253.125 487.6875 C 253.125 488.242188 253.152344 488.792969 253.207031 489.34375 C 253.261719 489.894531 253.339844 490.4375 253.449219 490.980469 C 253.554688 491.523438 253.691406 492.058594 253.851562 492.585938 C 254.011719 493.113281 254.195312 493.636719 254.410156 494.144531 C 254.621094 494.65625 254.855469 495.15625 255.117188 495.644531 C 255.378906 496.128906 255.660156 496.601562 255.964844 497.0625 C 256.273438 497.523438 256.601562 497.964844 256.953125 498.394531 C 257.304688 498.820312 257.675781 499.230469 258.066406 499.621094 C 258.457031 500.011719 258.867188 500.382812 259.292969 500.730469 C 259.722656 501.082031 260.164062 501.410156 260.625 501.71875 C 261.082031 502.023438 261.558594 502.308594 262.042969 502.570312 C 262.53125 502.832031 263.03125 503.066406 263.539062 503.277344 C 264.050781 503.488281 264.570312 503.675781 265.101562 503.835938 C 265.628906 503.996094 266.164062 504.128906 266.707031 504.238281 C 267.25 504.34375 267.796875 504.425781 268.347656 504.480469 C 268.894531 504.535156 269.445312 504.5625 270 504.5625 L 320.625 504.5625 L 320.625 641.25 C 320.625 642.355469 320.679688 643.460938 320.789062 644.558594 C 320.894531 645.660156 321.058594 646.75 321.273438 647.832031 C 321.488281 648.917969 321.757812 649.988281 322.078125 651.046875 C 322.398438 652.105469 322.769531 653.144531 323.191406 654.164062 C 323.613281 655.1875 324.085938 656.183594 324.609375 657.160156 C 325.128906 658.136719 325.695312 659.082031 326.3125 660 C 326.925781 660.921875 327.582031 661.804688 328.285156 662.660156 C 328.984375 663.515625 329.726562 664.332031 330.507812 665.113281 C 331.289062 665.894531 332.109375 666.636719 332.964844 667.339844 C 333.816406 668.039062 334.703125 668.699219 335.621094 669.3125 C 336.542969 669.925781 337.488281 670.492188 338.464844 671.015625 C 339.4375 671.535156 340.4375 672.003906 341.457031 672.429688 C 342.480469 672.851562 343.519531 673.226562 344.578125 673.546875 C 345.632812 673.867188 346.707031 674.136719 347.789062 674.351562 C 348.875 674.566406 349.964844 674.730469 351.066406 674.839844 C 352.167969 674.945312 353.269531 675 354.375 675 L 455.625 675 C 456.730469 675 457.832031 674.945312 458.933594 674.839844 C 460.035156 674.730469 461.125 674.566406 462.207031 674.351562 C 463.292969 674.136719 464.363281 673.867188 465.417969 673.546875 C 466.476562 673.226562 467.515625 672.851562 468.539062 672.429688 C 469.558594 672.003906 470.558594 671.535156 471.535156 671.011719 C 472.507812 670.492188 473.453125 669.925781 474.375 669.308594 C 475.292969 668.695312 476.179688 668.039062 477.035156 667.339844 C 477.890625 666.636719 478.707031 665.894531 479.488281 665.113281 C 480.269531 664.332031 481.011719 663.515625 481.714844 662.660156 C 482.414062 661.804688 483.070312 660.917969 483.683594 660 C 484.300781 659.082031 484.867188 658.136719 485.390625 657.160156 C 485.910156 656.183594 486.382812 655.1875 486.804688 654.164062 C 487.226562 653.144531 487.601562 652.105469 487.921875 651.046875 C 488.242188 649.988281 488.511719 648.917969 488.726562 647.832031 C 488.941406 646.75 489.105469 645.65625 489.214844 644.558594 C 489.320312 643.460938 489.375 642.355469 489.375 641.25 L 489.375 504.5625 L 540 504.5625 C 540.554688 504.5625 541.105469 504.535156 541.65625 504.480469 C 542.203125 504.425781 542.75 504.34375 543.292969 504.238281 C 543.832031 504.128906 544.367188 503.996094 544.898438 503.835938 C 545.425781 503.675781 545.945312 503.488281 546.457031 503.277344 C 546.96875 503.066406 547.464844 502.832031 547.953125 502.570312 C 548.441406 502.308594 548.914062 502.027344 549.371094 501.71875 C 549.832031 501.414062 550.277344 501.082031 550.703125 500.730469 C 551.132812 500.382812 551.539062 500.011719 551.929688 499.621094 C 552.324219 499.230469 552.691406 498.820312 553.042969 498.394531 C 553.394531 497.964844 553.722656 497.523438 554.03125 497.0625 C 554.339844 496.601562 554.621094 496.128906 554.882812 495.644531 C 555.140625 495.15625 555.378906 494.65625 555.589844 494.144531 C 555.800781 493.636719 555.988281 493.117188 556.148438 492.585938 C 556.308594 492.058594 556.441406 491.523438 556.550781 490.980469 C 556.65625 490.4375 556.738281 489.894531 556.792969 489.34375 C 556.847656 488.792969 556.875 488.242188 556.875 487.6875 Z M 405 167.0625 C 406.660156 167.0625 408.3125 167.144531 409.960938 167.308594 C 411.613281 167.472656 413.25 167.710938 414.875 168.035156 C 416.5 168.359375 418.109375 168.761719 419.695312 169.246094 C 421.28125 169.722656 422.839844 170.28125 424.371094 170.914062 C 425.902344 171.550781 427.402344 172.257812 428.863281 173.039062 C 430.324219 173.820312 431.746094 174.671875 433.125 175.59375 C 434.503906 176.515625 435.835938 177.5 437.117188 178.554688 C 438.398438 179.605469 439.625 180.71875 440.796875 181.890625 C 441.96875 183.0625 443.082031 184.289062 444.132812 185.570312 C 445.183594 186.851562 446.167969 188.183594 447.089844 189.558594 C 448.011719 190.9375 448.863281 192.359375 449.644531 193.824219 C 450.425781 195.285156 451.136719 196.78125 451.769531 198.3125 C 452.40625 199.84375 452.964844 201.402344 453.445312 202.992188 C 453.925781 204.578125 454.328125 206.183594 454.652344 207.808594 C 454.976562 209.4375 455.21875 211.074219 455.382812 212.722656 C 455.542969 214.375 455.625 216.03125 455.625 217.6875 C 455.625 219.347656 455.542969 221 455.382812 222.648438 C 455.21875 224.300781 454.976562 225.9375 454.652344 227.5625 C 454.328125 229.191406 453.925781 230.796875 453.445312 232.382812 C 452.964844 233.96875 452.40625 235.527344 451.769531 237.058594 C 451.136719 238.59375 450.429688 240.089844 449.644531 241.550781 C 448.867188 243.015625 448.011719 244.433594 447.089844 245.8125 C 446.171875 247.191406 445.183594 248.523438 444.132812 249.804688 C 443.082031 251.085938 441.96875 252.3125 440.796875 253.484375 C 439.625 254.65625 438.398438 255.769531 437.117188 256.820312 C 435.835938 257.871094 434.503906 258.859375 433.125 259.78125 C 431.746094 260.699219 430.324219 261.550781 428.863281 262.335938 C 427.402344 263.117188 425.902344 263.824219 424.371094 264.457031 C 422.839844 265.089844 421.28125 265.648438 419.695312 266.132812 C 418.109375 266.613281 416.5 267.015625 414.875 267.339844 C 413.25 267.664062 411.613281 267.90625 409.960938 268.070312 C 408.3125 268.230469 406.660156 268.3125 405 268.3125 C 403.34375 268.3125 401.6875 268.230469 400.039062 268.070312 C 398.390625 267.90625 396.75 267.664062 395.121094 267.339844 C 393.496094 267.015625 391.890625 266.613281 390.304688 266.132812 C 388.714844 265.652344 387.15625 265.09375 385.625 264.457031 C 384.09375 263.824219 382.597656 263.117188 381.132812 262.335938 C 379.671875 261.550781 378.25 260.703125 376.871094 259.78125 C 375.496094 258.859375 374.164062 257.871094 372.882812 256.820312 C 371.601562 255.769531 370.375 254.65625 369.203125 253.484375 C 368.027344 252.3125 366.917969 251.085938 365.867188 249.804688 C 364.816406 248.523438 363.828125 247.191406 362.90625 245.8125 C 361.984375 244.433594 361.132812 243.015625 360.351562 241.550781 C 359.570312 240.089844 358.863281 238.589844 358.226562 237.058594 C 357.59375 235.527344 357.035156 233.96875 356.554688 232.382812 C 356.074219 230.796875 355.667969 229.191406 355.34375 227.5625 C 355.023438 225.9375 354.78125 224.300781 354.617188 222.648438 C 354.457031 221 354.375 219.347656 354.375 217.6875 C 354.375 216.03125 354.457031 214.375 354.617188 212.726562 C 354.78125 211.074219 355.023438 209.4375 355.347656 207.8125 C 355.671875 206.1875 356.074219 204.578125 356.558594 202.992188 C 357.039062 201.40625 357.597656 199.847656 358.230469 198.316406 C 358.863281 196.785156 359.570312 195.285156 360.355469 193.824219 C 361.136719 192.363281 361.988281 190.941406 362.90625 189.5625 C 363.828125 188.183594 364.816406 186.855469 365.867188 185.574219 C 366.917969 184.292969 368.03125 183.066406 369.203125 181.890625 C 370.375 180.71875 371.605469 179.605469 372.886719 178.554688 C 374.167969 177.503906 375.496094 176.515625 376.875 175.59375 C 378.253906 174.675781 379.675781 173.824219 381.136719 173.039062 C 382.597656 172.261719 384.097656 171.554688 385.628906 170.917969 C 387.160156 170.285156 388.71875 169.726562 390.304688 169.246094 C 391.890625 168.761719 393.496094 168.359375 395.125 168.035156 C 396.75 167.710938 398.390625 167.46875 400.039062 167.308594 C 401.6875 167.144531 403.34375 167.0625 405 167.0625 Z M 523.125 470.8125 L 489.375 470.8125 L 489.375 354.375 C 489.375 353.824219 489.347656 353.273438 489.292969 352.722656 C 489.238281 352.171875 489.160156 351.625 489.050781 351.082031 C 488.941406 350.542969 488.808594 350.007812 488.648438 349.476562 C 488.488281 348.949219 488.300781 348.429688 488.089844 347.917969 C 487.878906 347.40625 487.644531 346.90625 487.382812 346.417969 C 487.121094 345.933594 486.835938 345.457031 486.527344 345 C 486.222656 344.539062 485.894531 344.097656 485.542969 343.667969 C 485.195312 343.242188 484.824219 342.832031 484.433594 342.441406 C 484.042969 342.050781 483.632812 341.679688 483.207031 341.332031 C 482.777344 340.980469 482.335938 340.652344 481.875 340.34375 C 481.414062 340.035156 480.941406 339.753906 480.457031 339.492188 C 479.96875 339.230469 479.46875 338.996094 478.957031 338.785156 C 478.445312 338.574219 477.925781 338.386719 477.398438 338.226562 C 476.867188 338.066406 476.332031 337.929688 475.789062 337.824219 C 475.25 337.714844 474.703125 337.636719 474.152344 337.582031 C 473.605469 337.527344 473.054688 337.5 472.5 337.5 C 471.949219 337.5 471.398438 337.527344 470.847656 337.582031 C 470.296875 337.636719 469.75 337.71875 469.207031 337.824219 C 468.664062 337.933594 468.128906 338.066406 467.601562 338.226562 C 467.070312 338.386719 466.550781 338.574219 466.042969 338.785156 C 465.53125 338.996094 465.03125 339.230469 464.542969 339.492188 C 464.058594 339.753906 463.582031 340.035156 463.125 340.34375 C 462.664062 340.652344 462.222656 340.980469 461.796875 341.332031 C 461.367188 341.679688 460.957031 342.050781 460.566406 342.441406 C 460.175781 342.832031 459.804688 343.242188 459.457031 343.667969 C 459.105469 344.097656 458.773438 344.539062 458.464844 345 C 458.160156 345.457031 457.875 345.933594 457.617188 346.417969 C 457.355469 346.90625 457.121094 347.40625 456.90625 347.917969 C 456.695312 348.425781 456.511719 348.945312 456.351562 349.476562 C 456.191406 350.007812 456.054688 350.542969 455.949219 351.082031 C 455.84375 351.625 455.761719 352.171875 455.707031 352.722656 C 455.652344 353.273438 455.625 353.824219 455.625 354.375 L 455.625 641.25 L 421.875 641.25 L 421.875 521.4375 C 421.875 520.886719 421.847656 520.335938 421.792969 519.785156 C 421.738281 519.234375 421.65625 518.6875 421.550781 518.144531 C 421.441406 517.601562 421.308594 517.066406 421.148438 516.539062 C 420.988281 516.011719 420.800781 515.492188 420.589844 514.980469 C 420.378906 514.46875 420.140625 513.96875 419.882812 513.484375 C 419.621094 512.996094 419.335938 512.523438 419.027344 512.0625 C 418.722656 511.601562 418.394531 511.160156 418.042969 510.734375 C 417.691406 510.304688 417.320312 509.894531 416.929688 509.503906 C 416.539062 509.113281 416.132812 508.742188 415.703125 508.390625 C 415.277344 508.042969 414.832031 507.710938 414.371094 507.40625 C 413.914062 507.097656 413.441406 506.816406 412.953125 506.554688 C 412.464844 506.292969 411.964844 506.058594 411.457031 505.847656 C 410.945312 505.636719 410.425781 505.449219 409.894531 505.289062 C 409.367188 505.128906 408.832031 504.996094 408.289062 504.886719 C 407.75 504.777344 407.203125 504.699219 406.652344 504.644531 C 406.105469 504.589844 405.554688 504.5625 405 504.5625 C 404.449219 504.5625 403.898438 504.589844 403.347656 504.644531 C 402.796875 504.699219 402.25 504.777344 401.707031 504.886719 C 401.167969 504.996094 400.632812 505.128906 400.101562 505.289062 C 399.570312 505.449219 399.050781 505.636719 398.539062 505.847656 C 398.03125 506.058594 397.53125 506.292969 397.042969 506.554688 C 396.558594 506.816406 396.082031 507.097656 395.625 507.40625 C 395.164062 507.710938 394.722656 508.042969 394.296875 508.390625 C 393.867188 508.742188 393.457031 509.113281 393.066406 509.503906 C 392.675781 509.894531 392.304688 510.304688 391.957031 510.734375 C 391.605469 511.160156 391.277344 511.601562 390.96875 512.0625 C 390.660156 512.523438 390.375 512.996094 390.113281 513.484375 C 389.855469 513.96875 389.617188 514.46875 389.40625 514.980469 C 389.195312 515.492188 389.011719 516.011719 388.851562 516.539062 C 388.691406 517.066406 388.554688 517.601562 388.449219 518.144531 C 388.339844 518.6875 388.261719 519.234375 388.207031 519.785156 C 388.152344 520.335938 388.125 520.886719 388.125 521.4375 L 388.125 641.25 L 354.375 641.25 L 354.375 354.375 C 354.375 353.824219 354.347656 353.273438 354.292969 352.722656 C 354.238281 352.171875 354.15625 351.625 354.050781 351.082031 C 353.941406 350.542969 353.808594 350.007812 353.648438 349.476562 C 353.488281 348.949219 353.300781 348.429688 353.089844 347.917969 C 352.878906 347.40625 352.640625 346.90625 352.382812 346.417969 C 352.121094 345.933594 351.835938 345.457031 351.527344 345 C 351.222656 344.539062 350.894531 344.097656 350.542969 343.667969 C 350.195312 343.242188 349.824219 342.832031 349.433594 342.441406 C 349.042969 342.050781 348.632812 341.679688 348.207031 341.332031 C 347.777344 340.980469 347.335938 340.652344 346.875 340.34375 C 346.414062 340.035156 345.941406 339.753906 345.453125 339.492188 C 344.96875 339.230469 344.46875 338.996094 343.957031 338.785156 C 343.445312 338.574219 342.925781 338.386719 342.398438 338.226562 C 341.871094 338.066406 341.332031 337.929688 340.789062 337.824219 C 340.25 337.714844 339.703125 337.636719 339.152344 337.582031 C 338.605469 337.527344 338.054688 337.5 337.5 337.5 C 336.945312 337.5 336.394531 337.527344 335.847656 337.582031 C 335.296875 337.636719 334.75 337.71875 334.207031 337.824219 C 333.664062 337.933594 333.128906 338.066406 332.601562 338.226562 C 332.070312 338.386719 331.550781 338.574219 331.039062 338.785156 C 330.527344 338.996094 330.03125 339.230469 329.542969 339.492188 C 329.054688 339.753906 328.582031 340.035156 328.121094 340.34375 C 327.664062 340.652344 327.21875 340.980469 326.792969 341.332031 C 326.367188 341.679688 325.957031 342.050781 325.566406 342.441406 C 325.175781 342.832031 324.804688 343.242188 324.453125 343.667969 C 324.101562 344.097656 323.773438 344.539062 323.464844 345 C 323.160156 345.457031 322.875 345.933594 322.617188 346.417969 C 322.355469 346.90625 322.121094 347.40625 321.90625 347.917969 C 321.695312 348.425781 321.511719 348.945312 321.351562 349.476562 C 321.191406 350.007812 321.054688 350.542969 320.949219 351.082031 C 320.839844 351.625 320.761719 352.171875 320.707031 352.722656 C 320.652344 353.273438 320.625 353.824219 320.625 354.375 L 320.625 470.8125 L 286.875 470.8125 L 286.875 352.6875 C 286.875 351.03125 286.957031 349.378906 287.121094 347.730469 C 287.28125 346.078125 287.527344 344.4375 287.847656 342.8125 C 288.171875 341.1875 288.574219 339.582031 289.058594 337.996094 C 289.539062 336.40625 290.097656 334.847656 290.730469 333.316406 C 291.363281 331.785156 292.070312 330.289062 292.855469 328.824219 C 293.636719 327.363281 294.488281 325.941406 295.410156 324.5625 C 296.328125 323.183594 297.316406 321.855469 298.367188 320.574219 C 299.421875 319.292969 300.53125 318.066406 301.703125 316.890625 C 302.878906 315.71875 304.105469 314.609375 305.386719 313.554688 C 306.667969 312.503906 308 311.515625 309.375 310.59375 C 310.753906 309.675781 312.175781 308.824219 313.636719 308.042969 C 315.097656 307.261719 316.597656 306.550781 318.128906 305.917969 C 319.660156 305.28125 321.21875 304.722656 322.804688 304.242188 C 324.394531 303.761719 326 303.359375 327.625 303.035156 C 329.25 302.710938 330.890625 302.46875 332.539062 302.308594 C 334.191406 302.144531 335.84375 302.0625 337.5 302.0625 L 388.125 302.0625 L 388.125 386.4375 C 388.125 386.992188 388.152344 387.542969 388.207031 388.089844 C 388.261719 388.640625 388.339844 389.1875 388.449219 389.730469 C 388.554688 390.273438 388.691406 390.808594 388.851562 391.335938 C 389.011719 391.863281 389.195312 392.386719 389.40625 392.894531 C 389.617188 393.40625 389.855469 393.90625 390.117188 394.390625 C 390.375 394.878906 390.660156 395.355469 390.964844 395.8125 C 391.273438 396.273438 391.601562 396.714844 391.953125 397.144531 C 392.304688 397.570312 392.675781 397.980469 393.066406 398.371094 C 393.457031 398.761719 393.867188 399.132812 394.292969 399.480469 C 394.722656 399.832031 395.164062 400.160156 395.625 400.46875 C 396.082031 400.773438 396.558594 401.058594 397.042969 401.320312 C 397.53125 401.582031 398.03125 401.816406 398.539062 402.027344 C 399.050781 402.238281 399.570312 402.425781 400.101562 402.585938 C 400.632812 402.746094 401.167969 402.878906 401.707031 402.988281 C 402.25 403.09375 402.796875 403.175781 403.347656 403.230469 C 403.898438 403.285156 404.449219 403.3125 405 403.3125 C 405.554688 403.3125 406.105469 403.285156 406.65625 403.230469 C 407.203125 403.175781 407.75 403.09375 408.289062 402.988281 C 408.832031 402.878906 409.367188 402.746094 409.898438 402.585938 C 410.425781 402.425781 410.945312 402.238281 411.457031 402.027344 C 411.964844 401.816406 412.464844 401.582031 412.953125 401.320312 C 413.441406 401.058594 413.914062 400.773438 414.371094 400.46875 C 414.832031 400.160156 415.277344 399.832031 415.703125 399.480469 C 416.132812 399.132812 416.539062 398.761719 416.929688 398.371094 C 417.320312 397.980469 417.691406 397.570312 418.042969 397.144531 C 418.394531 396.714844 418.722656 396.273438 419.027344 395.8125 C 419.335938 395.355469 419.621094 394.878906 419.882812 394.394531 C 420.144531 393.902344 420.378906 393.40625 420.589844 392.894531 C 420.800781 392.382812 420.988281 391.863281 421.148438 391.335938 C 421.308594 390.808594 421.441406 390.269531 421.550781 389.726562 C 421.65625 389.1875 421.738281 388.640625 421.792969 388.089844 C 421.847656 387.542969 421.875 386.992188 421.875 386.4375 L 421.875 302.0625 L 472.5 302.0625 C 474.160156 302.0625 475.8125 302.144531 477.464844 302.308594 C 479.113281 302.472656 480.75 302.714844 482.375 303.035156 C 484 303.359375 485.609375 303.761719 487.195312 304.242188 C 488.78125 304.722656 490.339844 305.28125 491.871094 305.914062 C 493.40625 306.550781 494.902344 307.257812 496.367188 308.039062 C 497.828125 308.820312 499.246094 309.671875 500.625 310.59375 C 502.003906 311.515625 503.335938 312.5 504.617188 313.554688 C 505.898438 314.605469 507.125 315.71875 508.296875 316.890625 C 509.46875 318.0625 510.582031 319.289062 511.632812 320.570312 C 512.683594 321.851562 513.671875 323.183594 514.589844 324.5625 C 515.511719 325.941406 516.367188 327.359375 517.144531 328.824219 C 517.929688 330.285156 518.636719 331.78125 519.269531 333.3125 C 519.902344 334.84375 520.460938 336.402344 520.945312 337.992188 C 521.425781 339.578125 521.828125 341.183594 522.152344 342.8125 C 522.476562 344.4375 522.71875 346.074219 522.882812 347.726562 C 523.042969 349.378906 523.125 351.03125 523.125 352.6875 Z M 523.125 470.8125 " fill-opacity="1" fill-rule="nonzero"/><path fill="#009688" d="M 607.855469 270 L 607.5 270 C 608.703125 268.472656 609.855469 266.902344 610.945312 265.292969 C 612.039062 263.683594 613.074219 262.035156 614.050781 260.351562 C 615.027344 258.667969 615.941406 256.953125 616.796875 255.207031 C 617.652344 253.457031 618.445312 251.683594 619.175781 249.878906 C 619.902344 248.074219 620.566406 246.246094 621.167969 244.394531 C 621.765625 242.542969 622.300781 240.671875 622.765625 238.785156 C 623.234375 236.898438 623.632812 234.992188 623.964844 233.074219 C 624.296875 231.160156 624.558594 229.230469 624.757812 227.296875 C 624.953125 225.359375 625.078125 223.417969 625.136719 221.472656 C 625.195312 219.53125 625.183594 217.585938 625.101562 215.640625 C 625.023438 213.699219 624.875 211.757812 624.65625 209.824219 C 624.441406 207.890625 624.15625 205.96875 623.800781 204.054688 C 623.449219 202.140625 623.027344 200.242188 622.539062 198.359375 C 622.050781 196.476562 621.496094 194.613281 620.875 192.769531 C 620.257812 190.921875 619.570312 189.101562 618.820312 187.308594 C 618.074219 185.511719 617.261719 183.742188 616.386719 182.003906 C 615.511719 180.265625 614.578125 178.5625 613.582031 176.890625 C 612.585938 175.21875 611.535156 173.582031 610.421875 171.984375 C 609.3125 170.390625 608.144531 168.832031 606.921875 167.316406 C 605.703125 165.804688 604.429688 164.335938 603.101562 162.910156 C 601.777344 161.484375 600.402344 160.109375 598.980469 158.78125 C 597.558594 157.457031 596.089844 156.179688 594.574219 154.957031 C 593.0625 153.734375 591.507812 152.566406 589.914062 151.453125 C 588.316406 150.339844 586.683594 149.285156 585.011719 148.289062 C 583.339844 147.292969 581.636719 146.355469 579.898438 145.480469 C 578.160156 144.601562 576.394531 143.789062 574.601562 143.039062 C 572.804688 142.285156 570.984375 141.597656 569.140625 140.976562 C 567.296875 140.355469 565.433594 139.796875 563.550781 139.308594 C 561.667969 138.816406 559.769531 138.394531 557.855469 138.039062 C 555.945312 137.683594 554.023438 137.398438 552.089844 137.175781 C 550.15625 136.957031 548.214844 136.808594 546.269531 136.726562 C 544.328125 136.644531 542.382812 136.628906 540.4375 136.6875 L 539.476562 136.6875 C 531.390625 136.6875 523.441406 137.734375 515.632812 139.824219 C 515.097656 139.960938 514.570312 140.125 514.054688 140.320312 C 513.539062 140.515625 513.035156 140.742188 512.542969 140.996094 C 512.054688 141.25 511.578125 141.53125 511.121094 141.839844 C 510.664062 142.148438 510.222656 142.480469 509.804688 142.839844 C 509.386719 143.199219 508.988281 143.582031 508.613281 143.988281 C 508.238281 144.394531 507.886719 144.820312 507.5625 145.265625 C 507.234375 145.710938 506.9375 146.171875 506.664062 146.652344 C 506.390625 147.136719 506.148438 147.628906 505.933594 148.136719 C 505.71875 148.644531 505.53125 149.164062 505.378906 149.695312 C 505.222656 150.226562 505.097656 150.761719 505.003906 151.304688 C 504.910156 151.851562 504.851562 152.398438 504.820312 152.949219 C 504.792969 153.5 504.792969 154.050781 504.828125 154.601562 C 504.863281 155.15625 504.925781 155.703125 505.023438 156.246094 C 505.121094 156.789062 505.25 157.328125 505.410156 157.855469 C 505.570312 158.382812 505.757812 158.902344 505.980469 159.40625 C 506.199219 159.914062 506.445312 160.40625 506.722656 160.886719 L 509.035156 164.785156 C 509.464844 165.480469 509.953125 166.136719 510.496094 166.75 C 511.039062 167.363281 511.632812 167.925781 512.269531 168.441406 C 512.910156 168.957031 513.585938 169.414062 514.300781 169.8125 C 515.015625 170.214844 515.757812 170.550781 516.53125 170.828125 C 517.304688 171.101562 518.09375 171.308594 518.902344 171.453125 C 519.710938 171.59375 520.523438 171.664062 521.34375 171.667969 C 522.164062 171.675781 522.976562 171.609375 523.785156 171.476562 C 524.59375 171.34375 525.386719 171.140625 526.164062 170.875 C 527.578125 170.453125 529.007812 170.09375 530.457031 169.796875 C 531.902344 169.503906 533.359375 169.269531 534.824219 169.101562 C 536.292969 168.933594 537.765625 168.828125 539.242188 168.789062 C 540.71875 168.75 542.195312 168.777344 543.667969 168.867188 C 545.144531 168.957031 546.609375 169.109375 548.070312 169.328125 C 549.53125 169.550781 550.976562 169.832031 552.414062 170.175781 C 553.847656 170.523438 555.265625 170.933594 556.667969 171.402344 C 558.066406 171.875 559.445312 172.40625 560.796875 172.996094 C 562.152344 173.589844 563.476562 174.238281 564.773438 174.949219 C 566.070312 175.65625 567.332031 176.417969 568.558594 177.238281 C 569.789062 178.054688 570.980469 178.925781 572.132812 179.851562 C 573.285156 180.773438 574.394531 181.746094 575.460938 182.765625 C 576.527344 183.789062 577.546875 184.851562 578.523438 185.964844 C 579.496094 187.074219 580.417969 188.222656 581.292969 189.417969 C 582.164062 190.609375 582.984375 191.835938 583.746094 193.101562 C 584.511719 194.363281 585.222656 195.65625 585.871094 196.984375 C 586.523438 198.308594 587.113281 199.660156 587.648438 201.039062 C 588.179688 202.414062 588.652344 203.8125 589.058594 205.230469 C 589.46875 206.652344 589.816406 208.085938 590.101562 209.535156 C 590.386719 210.984375 590.605469 212.441406 590.761719 213.910156 C 590.917969 215.382812 591.007812 216.855469 591.035156 218.328125 C 591.058594 219.804688 591.019531 221.28125 590.917969 222.753906 C 590.816406 224.226562 590.648438 225.691406 590.414062 227.152344 C 590.183594 228.609375 589.886719 230.054688 589.527344 231.488281 C 589.171875 232.921875 588.75 234.335938 588.265625 235.730469 C 587.785156 237.128906 587.238281 238.5 586.636719 239.847656 C 586.035156 241.195312 585.371094 242.515625 584.652344 243.804688 C 583.933594 245.09375 583.15625 246.347656 582.328125 247.570312 C 581.5 248.792969 580.617188 249.976562 579.683594 251.121094 C 578.75 252.265625 577.769531 253.367188 576.738281 254.425781 C 575.707031 255.480469 574.632812 256.492188 573.515625 257.457031 C 572.394531 258.421875 571.234375 259.332031 570.035156 260.195312 C 568.011719 261.734375 566.191406 263.488281 564.582031 265.457031 C 562.972656 267.425781 561.613281 269.554688 560.503906 271.847656 C 559.398438 274.136719 558.574219 276.527344 558.03125 279.011719 C 557.488281 281.496094 557.242188 284.011719 557.296875 286.554688 L 557.296875 286.707031 C 557.296875 287.265625 557.324219 287.820312 557.378906 288.375 C 557.433594 288.933594 557.515625 289.484375 557.621094 290.03125 C 557.730469 290.578125 557.867188 291.117188 558.03125 291.652344 C 558.191406 292.1875 558.378906 292.710938 558.59375 293.226562 C 558.804688 293.742188 559.042969 294.246094 559.308594 294.738281 C 559.570312 295.230469 559.855469 295.710938 560.164062 296.171875 C 560.476562 296.640625 560.808594 297.085938 561.164062 297.519531 C 561.519531 297.949219 561.890625 298.363281 562.285156 298.757812 C 562.679688 299.152344 563.09375 299.527344 563.527344 299.878906 C 563.957031 300.234375 564.40625 300.566406 564.871094 300.875 C 565.335938 301.1875 565.8125 301.472656 566.304688 301.738281 C 566.796875 302 567.300781 302.238281 567.816406 302.449219 C 568.332031 302.667969 568.859375 302.855469 569.390625 303.015625 C 569.925781 303.175781 570.464844 303.3125 571.011719 303.421875 C 571.5625 303.53125 572.113281 303.613281 572.667969 303.667969 C 573.226562 303.722656 573.78125 303.75 574.339844 303.75 L 607.921875 303.75 C 609.578125 303.75 611.234375 303.832031 612.882812 303.996094 C 614.535156 304.15625 616.171875 304.398438 617.796875 304.722656 C 619.421875 305.046875 621.027344 305.449219 622.617188 305.929688 C 624.203125 306.410156 625.761719 306.96875 627.292969 307.601562 C 628.824219 308.238281 630.320312 308.945312 631.78125 309.726562 C 633.246094 310.507812 634.667969 311.359375 636.042969 312.28125 C 637.421875 313.203125 638.753906 314.1875 640.035156 315.242188 C 641.316406 316.292969 642.542969 317.402344 643.71875 318.578125 C 644.890625 319.75 646.003906 320.976562 647.054688 322.257812 C 648.105469 323.539062 649.09375 324.871094 650.011719 326.246094 C 650.933594 327.625 651.785156 329.046875 652.570312 330.507812 C 653.351562 331.972656 654.058594 333.46875 654.691406 335 C 655.324219 336.53125 655.882812 338.09375 656.367188 339.679688 C 656.847656 341.265625 657.25 342.871094 657.574219 344.496094 C 657.898438 346.125 658.140625 347.761719 658.300781 349.414062 C 658.464844 351.0625 658.546875 352.714844 658.546875 354.375 L 658.546875 455.625 L 624.796875 455.625 L 624.796875 354.375 C 624.796875 353.824219 624.769531 353.273438 624.714844 352.722656 C 624.660156 352.171875 624.578125 351.625 624.472656 351.082031 C 624.363281 350.542969 624.230469 350.007812 624.070312 349.476562 C 623.910156 348.949219 623.722656 348.429688 623.511719 347.917969 C 623.296875 347.40625 623.0625 346.90625 622.800781 346.417969 C 622.539062 345.933594 622.257812 345.457031 621.949219 345 C 621.644531 344.539062 621.316406 344.097656 620.964844 343.667969 C 620.617188 343.242188 620.246094 342.832031 619.851562 342.441406 C 619.464844 342.050781 619.054688 341.679688 618.628906 341.332031 C 618.199219 340.980469 617.757812 340.652344 617.296875 340.34375 C 616.835938 340.035156 616.363281 339.753906 615.875 339.492188 C 615.386719 339.230469 614.886719 338.996094 614.378906 338.785156 C 613.867188 338.574219 613.347656 338.386719 612.820312 338.226562 C 612.289062 338.066406 611.753906 337.929688 611.210938 337.824219 C 610.671875 337.714844 610.125 337.636719 609.574219 337.582031 C 609.023438 337.527344 608.472656 337.5 607.921875 337.5 C 607.371094 337.5 606.816406 337.527344 606.269531 337.582031 C 605.71875 337.636719 605.171875 337.71875 604.628906 337.824219 C 604.085938 337.933594 603.550781 338.066406 603.023438 338.226562 C 602.492188 338.386719 601.972656 338.574219 601.460938 338.785156 C 600.953125 338.996094 600.453125 339.230469 599.964844 339.492188 C 599.476562 339.753906 599.003906 340.035156 598.542969 340.34375 C 598.085938 340.652344 597.640625 340.980469 597.214844 341.332031 C 596.789062 341.679688 596.378906 342.050781 595.988281 342.441406 C 595.597656 342.832031 595.226562 343.242188 594.875 343.667969 C 594.523438 344.097656 594.195312 344.539062 593.886719 345 C 593.582031 345.457031 593.296875 345.933594 593.035156 346.417969 C 592.777344 346.90625 592.539062 347.40625 592.328125 347.917969 C 592.117188 348.425781 591.933594 348.945312 591.769531 349.476562 C 591.613281 350.007812 591.476562 350.542969 591.367188 351.082031 C 591.261719 351.625 591.183594 352.171875 591.128906 352.722656 C 591.074219 353.273438 591.046875 353.824219 591.046875 354.375 L 591.046875 609.1875 L 556.875 609.1875 L 556.875 556.875 C 556.875 556.324219 556.847656 555.773438 556.792969 555.222656 C 556.738281 554.667969 556.65625 554.125 556.550781 553.582031 C 556.441406 553.039062 556.308594 552.503906 556.148438 551.972656 C 555.988281 551.445312 555.800781 550.925781 555.589844 550.417969 C 555.378906 549.90625 555.140625 549.40625 554.882812 548.917969 C 554.621094 548.433594 554.339844 547.960938 554.03125 547.5 C 553.722656 547.039062 553.394531 546.597656 553.042969 546.171875 C 552.691406 545.742188 552.324219 545.332031 551.929688 544.941406 C 551.539062 544.550781 551.132812 544.179688 550.707031 543.832031 C 550.277344 543.480469 549.835938 543.148438 549.375 542.839844 C 548.914062 542.535156 548.441406 542.25 547.953125 541.992188 C 547.464844 541.730469 546.96875 541.496094 546.457031 541.28125 C 545.945312 541.070312 545.425781 540.886719 544.898438 540.726562 C 544.367188 540.566406 543.832031 540.429688 543.292969 540.324219 C 542.75 540.21875 542.203125 540.136719 541.652344 540.082031 C 541.105469 540.027344 540.554688 540 540 540 C 539.449219 540 538.898438 540.027344 538.347656 540.082031 C 537.792969 540.136719 537.25 540.214844 536.707031 540.324219 C 536.164062 540.429688 535.628906 540.566406 535.101562 540.726562 C 534.570312 540.886719 534.050781 541.070312 533.542969 541.28125 C 533.03125 541.496094 532.53125 541.730469 532.042969 541.992188 C 531.554688 542.253906 531.082031 542.535156 530.621094 542.84375 C 530.164062 543.152344 529.722656 543.480469 529.292969 543.832031 C 528.867188 544.179688 528.457031 544.550781 528.066406 544.941406 C 527.675781 545.332031 527.304688 545.742188 526.957031 546.167969 C 526.605469 546.597656 526.277344 547.039062 525.96875 547.5 C 525.660156 547.957031 525.378906 548.433594 525.117188 548.917969 C 524.855469 549.40625 524.621094 549.90625 524.410156 550.417969 C 524.195312 550.925781 524.011719 551.445312 523.851562 551.972656 C 523.6875 552.503906 523.554688 553.039062 523.449219 553.582031 C 523.339844 554.125 523.261719 554.667969 523.207031 555.222656 C 523.152344 555.773438 523.125 556.324219 523.125 556.875 L 523.125 626.0625 C 523.125 626.613281 523.152344 627.167969 523.207031 627.71875 C 523.261719 628.265625 523.339844 628.8125 523.449219 629.355469 C 523.554688 629.898438 523.691406 630.433594 523.851562 630.960938 C 524.011719 631.488281 524.195312 632.007812 524.410156 632.519531 C 524.621094 633.027344 524.855469 633.527344 525.117188 634.015625 C 525.378906 634.503906 525.660156 634.976562 525.96875 635.4375 C 526.277344 635.894531 526.605469 636.339844 526.957031 636.769531 C 527.304688 637.195312 527.675781 637.605469 528.066406 637.996094 C 528.457031 638.386719 528.867188 638.757812 529.292969 639.109375 C 529.722656 639.457031 530.164062 639.789062 530.621094 640.09375 C 531.082031 640.402344 531.554688 640.683594 532.042969 640.945312 C 532.53125 641.207031 533.03125 641.441406 533.542969 641.652344 C 534.050781 641.863281 534.570312 642.050781 535.101562 642.207031 C 535.628906 642.371094 536.164062 642.503906 536.707031 642.613281 C 537.25 642.71875 537.796875 642.800781 538.347656 642.859375 C 538.898438 642.910156 539.449219 642.9375 540 642.9375 L 590.980469 642.9375 C 592.085938 642.9375 593.1875 642.882812 594.289062 642.773438 C 595.386719 642.667969 596.480469 642.503906 597.5625 642.289062 C 598.648438 642.070312 599.71875 641.804688 600.777344 641.484375 C 601.835938 641.164062 602.875 640.789062 603.894531 640.367188 C 604.914062 639.945312 605.914062 639.472656 606.886719 638.953125 C 607.863281 638.429688 608.808594 637.863281 609.726562 637.246094 C 610.648438 636.632812 611.535156 635.976562 612.390625 635.273438 C 613.242188 634.574219 614.0625 633.832031 614.84375 633.050781 C 615.625 632.269531 616.367188 631.453125 617.070312 630.597656 C 617.769531 629.742188 618.425781 628.855469 619.039062 627.9375 C 619.65625 627.019531 620.222656 626.070312 620.742188 625.097656 C 621.265625 624.121094 621.734375 623.121094 622.160156 622.101562 C 622.582031 621.082031 622.953125 620.042969 623.273438 618.984375 C 623.597656 617.925781 623.863281 616.855469 624.082031 615.769531 C 624.296875 614.6875 624.457031 613.59375 624.566406 612.496094 C 624.675781 611.394531 624.730469 610.292969 624.730469 609.1875 L 624.730469 489.375 L 675.355469 489.375 C 675.90625 489.375 676.460938 489.347656 677.007812 489.292969 C 677.558594 489.238281 678.105469 489.15625 678.644531 489.050781 C 679.1875 488.941406 679.722656 488.808594 680.25 488.648438 C 680.78125 488.488281 681.300781 488.300781 681.808594 488.089844 C 682.320312 487.878906 682.820312 487.644531 683.308594 487.382812 C 683.796875 487.121094 684.269531 486.839844 684.726562 486.53125 C 685.1875 486.222656 685.632812 485.894531 686.058594 485.542969 C 686.488281 485.195312 686.894531 484.824219 687.285156 484.429688 C 687.679688 484.039062 688.046875 483.632812 688.398438 483.203125 C 688.75 482.777344 689.078125 482.332031 689.382812 481.871094 C 689.691406 481.414062 689.976562 480.941406 690.234375 480.453125 C 690.496094 479.964844 690.730469 479.464844 690.941406 478.957031 C 691.15625 478.445312 691.339844 477.925781 691.503906 477.398438 C 691.664062 476.871094 691.796875 476.332031 691.902344 475.789062 C 692.011719 475.25 692.09375 474.703125 692.148438 474.152344 C 692.203125 473.605469 692.230469 473.054688 692.230469 472.5 L 692.230469 354.375 C 692.230469 352.992188 692.195312 351.613281 692.128906 350.234375 C 692.058594 348.855469 691.957031 347.480469 691.824219 346.105469 C 691.6875 344.730469 691.519531 343.359375 691.316406 341.992188 C 691.113281 340.625 690.878906 339.265625 690.605469 337.910156 C 690.339844 336.558594 690.035156 335.210938 689.699219 333.871094 C 689.363281 332.53125 688.996094 331.203125 688.597656 329.882812 C 688.195312 328.558594 687.761719 327.25 687.296875 325.949219 C 686.832031 324.648438 686.332031 323.359375 685.804688 322.085938 C 685.277344 320.808594 684.71875 319.546875 684.128906 318.300781 C 683.535156 317.050781 682.914062 315.816406 682.265625 314.601562 C 681.613281 313.382812 680.933594 312.179688 680.222656 310.996094 C 679.511719 309.8125 678.773438 308.644531 678.007812 307.496094 C 677.238281 306.347656 676.445312 305.222656 675.625 304.113281 C 674.800781 303.003906 673.953125 301.914062 673.074219 300.847656 C 672.199219 299.78125 671.296875 298.734375 670.371094 297.710938 C 669.445312 296.6875 668.492188 295.6875 667.515625 294.710938 C 666.539062 293.734375 665.539062 292.785156 664.515625 291.855469 C 663.492188 290.929688 662.449219 290.027344 661.378906 289.152344 C 660.3125 288.277344 659.222656 287.425781 658.113281 286.605469 C 657.003906 285.78125 655.878906 284.984375 654.730469 284.21875 C 653.582031 283.453125 652.414062 282.714844 651.230469 282.003906 C 650.046875 281.292969 648.84375 280.613281 647.628906 279.960938 C 646.410156 279.3125 645.175781 278.691406 643.929688 278.101562 C 642.679688 277.507812 641.417969 276.949219 640.140625 276.421875 C 638.867188 275.894531 637.578125 275.394531 636.277344 274.929688 C 634.976562 274.464844 633.667969 274.035156 632.347656 273.632812 C 631.023438 273.234375 629.695312 272.863281 628.355469 272.527344 C 627.015625 272.191406 625.667969 271.890625 624.3125 271.621094 C 622.957031 271.351562 621.597656 271.117188 620.234375 270.914062 C 618.867188 270.710938 617.496094 270.542969 616.125 270.40625 C 614.75 270.273438 613.371094 270.171875 611.992188 270.101562 C 610.613281 270.035156 609.234375 270 607.855469 270 Z M 607.855469 270 " fill-opacity="1" fill-rule="nonzero"/><path fill="#009688" d="M 270 540 C 269.449219 540 268.898438 540.027344 268.347656 540.082031 C 267.796875 540.136719 267.253906 540.21875 266.710938 540.324219 C 266.167969 540.429688 265.632812 540.566406 265.105469 540.726562 C 264.574219 540.886719 264.054688 541.074219 263.542969 541.285156 C 263.035156 541.496094 262.535156 541.730469 262.046875 541.992188 C 261.558594 542.253906 261.085938 542.535156 260.625 542.84375 C 260.164062 543.152344 259.722656 543.480469 259.296875 543.832031 C 258.867188 544.179688 258.460938 544.550781 258.066406 544.941406 C 257.675781 545.332031 257.308594 545.742188 256.957031 546.167969 C 256.605469 546.597656 256.277344 547.039062 255.96875 547.5 C 255.664062 547.960938 255.378906 548.433594 255.117188 548.921875 C 254.859375 549.40625 254.621094 549.90625 254.410156 550.417969 C 254.199219 550.929688 254.011719 551.449219 253.851562 551.976562 C 253.691406 552.507812 253.554688 553.039062 253.449219 553.582031 C 253.339844 554.125 253.261719 554.671875 253.207031 555.222656 C 253.152344 555.773438 253.125 556.324219 253.125 556.875 L 253.125 609.1875 L 219.019531 609.1875 L 219.019531 354.375 C 219.019531 353.824219 218.992188 353.273438 218.9375 352.722656 C 218.886719 352.171875 218.804688 351.625 218.695312 351.082031 C 218.589844 350.542969 218.453125 350.007812 218.292969 349.476562 C 218.132812 348.949219 217.945312 348.429688 217.734375 347.917969 C 217.523438 347.40625 217.289062 346.90625 217.027344 346.417969 C 216.765625 345.933594 216.484375 345.457031 216.175781 345 C 215.867188 344.539062 215.539062 344.097656 215.1875 343.667969 C 214.839844 343.242188 214.46875 342.832031 214.078125 342.441406 C 213.6875 342.050781 213.277344 341.679688 212.851562 341.332031 C 212.421875 340.980469 211.980469 340.652344 211.519531 340.34375 C 211.058594 340.035156 210.585938 339.753906 210.097656 339.492188 C 209.613281 339.230469 209.113281 338.996094 208.601562 338.785156 C 208.089844 338.574219 207.570312 338.386719 207.042969 338.226562 C 206.515625 338.066406 205.976562 337.929688 205.433594 337.824219 C 204.894531 337.714844 204.347656 337.636719 203.800781 337.582031 C 203.25 337.527344 202.699219 337.5 202.144531 337.5 C 201.59375 337.5 201.042969 337.527344 200.492188 337.582031 C 199.941406 337.636719 199.394531 337.71875 198.851562 337.824219 C 198.3125 337.933594 197.777344 338.066406 197.246094 338.226562 C 196.71875 338.386719 196.199219 338.574219 195.6875 338.785156 C 195.175781 338.996094 194.675781 339.230469 194.1875 339.492188 C 193.703125 339.753906 193.230469 340.035156 192.769531 340.34375 C 192.308594 340.652344 191.867188 340.980469 191.441406 341.332031 C 191.011719 341.679688 190.601562 342.050781 190.210938 342.441406 C 189.820312 342.832031 189.453125 343.242188 189.101562 343.667969 C 188.75 344.097656 188.421875 344.539062 188.113281 345 C 187.804688 345.457031 187.523438 345.933594 187.261719 346.417969 C 187 346.90625 186.765625 347.40625 186.554688 347.917969 C 186.34375 348.425781 186.15625 348.945312 185.996094 349.476562 C 185.835938 350.007812 185.703125 350.542969 185.59375 351.082031 C 185.484375 351.625 185.40625 352.171875 185.351562 352.722656 C 185.296875 353.273438 185.269531 353.824219 185.269531 354.375 L 185.269531 455.625 L 151.519531 455.625 L 151.519531 354.375 C 151.519531 352.71875 151.601562 351.0625 151.765625 349.414062 C 151.925781 347.765625 152.167969 346.125 152.492188 344.5 C 152.816406 342.875 153.21875 341.265625 153.699219 339.679688 C 154.179688 338.09375 154.738281 336.535156 155.375 335.003906 C 156.007812 333.472656 156.71875 331.972656 157.5 330.511719 C 158.28125 329.050781 159.132812 327.628906 160.050781 326.25 C 160.972656 324.871094 161.960938 323.542969 163.011719 322.257812 C 164.066406 320.976562 165.175781 319.75 166.347656 318.578125 C 167.519531 317.40625 168.746094 316.292969 170.027344 315.242188 C 171.3125 314.191406 172.640625 313.203125 174.019531 312.28125 C 175.398438 311.363281 176.820312 310.507812 178.28125 309.726562 C 179.746094 308.945312 181.242188 308.238281 182.773438 307.605469 C 184.304688 306.972656 185.863281 306.414062 187.449219 305.929688 C 189.039062 305.449219 190.644531 305.046875 192.269531 304.722656 C 193.894531 304.402344 195.535156 304.15625 197.183594 303.996094 C 198.835938 303.832031 200.488281 303.75 202.144531 303.75 L 235.726562 303.75 C 236.285156 303.75 236.839844 303.722656 237.398438 303.667969 C 237.953125 303.613281 238.503906 303.53125 239.050781 303.421875 C 239.597656 303.3125 240.140625 303.175781 240.675781 303.015625 C 241.207031 302.851562 241.734375 302.664062 242.246094 302.449219 C 242.761719 302.238281 243.265625 302 243.757812 301.738281 C 244.253906 301.472656 244.730469 301.1875 245.195312 300.875 C 245.660156 300.566406 246.105469 300.234375 246.539062 299.878906 C 246.96875 299.527344 247.382812 299.152344 247.777344 298.757812 C 248.171875 298.363281 248.546875 297.949219 248.902344 297.519531 C 249.253906 297.085938 249.585938 296.640625 249.898438 296.171875 C 250.207031 295.710938 250.496094 295.230469 250.757812 294.738281 C 251.019531 294.246094 251.257812 293.742188 251.472656 293.226562 C 251.6875 292.710938 251.875 292.1875 252.039062 291.652344 C 252.199219 291.117188 252.335938 290.578125 252.441406 290.03125 C 252.554688 289.484375 252.636719 288.933594 252.6875 288.375 C 252.742188 287.820312 252.769531 287.265625 252.769531 286.707031 L 252.769531 286.554688 C 252.824219 284.011719 252.578125 281.496094 252.035156 279.011719 C 251.492188 276.523438 250.667969 274.136719 249.558594 271.847656 C 248.453125 269.554688 247.09375 267.425781 245.484375 265.457031 C 243.875 263.488281 242.054688 261.734375 240.03125 260.195312 C 238.828125 259.335938 237.667969 258.425781 236.542969 257.460938 C 235.421875 256.5 234.34375 255.488281 233.3125 254.429688 C 232.28125 253.371094 231.292969 252.273438 230.359375 251.128906 C 229.421875 249.984375 228.539062 248.800781 227.707031 247.578125 C 226.875 246.355469 226.097656 245.101562 225.375 243.808594 C 224.652344 242.519531 223.992188 241.199219 223.382812 239.851562 C 222.777344 238.503906 222.234375 237.128906 221.75 235.734375 C 221.261719 234.335938 220.839844 232.921875 220.476562 231.484375 C 220.117188 230.050781 219.820312 228.605469 219.585938 227.144531 C 219.351562 225.6875 219.183594 224.21875 219.078125 222.742188 C 218.976562 221.269531 218.9375 219.792969 218.960938 218.316406 C 218.988281 216.839844 219.078125 215.363281 219.230469 213.890625 C 219.386719 212.421875 219.605469 210.964844 219.890625 209.511719 C 220.175781 208.0625 220.523438 206.625 220.929688 205.203125 C 221.339844 203.785156 221.8125 202.382812 222.34375 201.003906 C 222.878906 199.625 223.46875 198.273438 224.121094 196.945312 C 224.773438 195.617188 225.484375 194.320312 226.25 193.058594 C 227.015625 191.792969 227.835938 190.566406 228.707031 189.371094 C 229.582031 188.179688 230.507812 187.027344 231.480469 185.917969 C 232.457031 184.804688 233.476562 183.738281 234.546875 182.714844 C 235.617188 181.695312 236.726562 180.722656 237.882812 179.796875 C 239.035156 178.875 240.230469 178.003906 241.460938 177.183594 C 242.691406 176.367188 243.953125 175.601562 245.253906 174.894531 C 246.550781 174.1875 247.878906 173.539062 249.230469 172.945312 C 250.589844 172.355469 251.964844 171.824219 253.367188 171.355469 C 254.769531 170.886719 256.191406 170.480469 257.628906 170.136719 C 259.066406 169.789062 260.515625 169.507812 261.976562 169.289062 C 263.441406 169.074219 264.910156 168.921875 266.382812 168.832031 C 267.859375 168.742188 269.335938 168.722656 270.816406 168.761719 C 272.292969 168.804688 273.765625 168.910156 275.234375 169.082031 C 276.703125 169.253906 278.164062 169.488281 279.609375 169.789062 C 281.058594 170.085938 282.488281 170.449219 283.90625 170.875 C 284.679688 171.140625 285.472656 171.34375 286.28125 171.476562 C 287.089844 171.609375 287.90625 171.675781 288.726562 171.667969 C 289.542969 171.664062 290.359375 171.59375 291.167969 171.453125 C 291.972656 171.308594 292.761719 171.101562 293.535156 170.828125 C 294.308594 170.550781 295.050781 170.214844 295.769531 169.8125 C 296.484375 169.414062 297.160156 168.957031 297.796875 168.441406 C 298.433594 167.925781 299.027344 167.363281 299.570312 166.75 C 300.113281 166.136719 300.601562 165.480469 301.03125 164.785156 L 303.34375 160.886719 C 303.621094 160.40625 303.867188 159.914062 304.085938 159.40625 C 304.308594 158.898438 304.496094 158.382812 304.65625 157.855469 C 304.816406 157.324219 304.945312 156.789062 305.039062 156.242188 C 305.136719 155.703125 305.203125 155.152344 305.238281 154.601562 C 305.273438 154.050781 305.273438 153.5 305.246094 152.949219 C 305.214844 152.398438 305.152344 151.847656 305.0625 151.304688 C 304.96875 150.761719 304.84375 150.226562 304.6875 149.695312 C 304.535156 149.164062 304.347656 148.644531 304.132812 148.136719 C 303.917969 147.628906 303.675781 147.132812 303.402344 146.652344 C 303.128906 146.171875 302.832031 145.710938 302.503906 145.265625 C 302.179688 144.816406 301.828125 144.390625 301.453125 143.988281 C 301.078125 143.582031 300.679688 143.199219 300.261719 142.839844 C 299.84375 142.480469 299.402344 142.144531 298.945312 141.839844 C 298.488281 141.527344 298.015625 141.246094 297.523438 140.992188 C 297.03125 140.738281 296.53125 140.515625 296.015625 140.320312 C 295.496094 140.125 294.96875 139.960938 294.433594 139.824219 C 286.625 137.734375 278.675781 136.6875 270.589844 136.6875 L 269.628906 136.6875 C 267.6875 136.644531 265.75 136.671875 263.8125 136.765625 C 261.875 136.863281 259.945312 137.027344 258.015625 137.257812 C 256.089844 137.488281 254.175781 137.789062 252.273438 138.152344 C 250.367188 138.519531 248.476562 138.953125 246.601562 139.449219 C 244.726562 139.949219 242.871094 140.511719 241.039062 141.144531 C 239.203125 141.773438 237.390625 142.464844 235.605469 143.222656 C 233.820312 143.980469 232.0625 144.796875 230.332031 145.675781 C 228.605469 146.558594 226.90625 147.5 225.246094 148.496094 C 223.582031 149.496094 221.957031 150.554688 220.371094 151.671875 C 218.78125 152.785156 217.234375 153.953125 215.730469 155.175781 C 214.222656 156.398438 212.761719 157.675781 211.34375 159 C 209.929688 160.328125 208.5625 161.699219 207.242188 163.121094 C 205.921875 164.546875 204.65625 166.011719 203.4375 167.523438 C 202.222656 169.035156 201.0625 170.585938 199.953125 172.179688 C 198.847656 173.773438 197.796875 175.40625 196.804688 177.070312 C 195.816406 178.738281 194.882812 180.4375 194.011719 182.167969 C 193.136719 183.902344 192.328125 185.664062 191.582031 187.453125 C 190.832031 189.242188 190.144531 191.054688 189.527344 192.894531 C 188.90625 194.730469 188.347656 196.589844 187.859375 198.46875 C 187.371094 200.34375 186.945312 202.234375 186.589844 204.140625 C 186.230469 206.050781 185.941406 207.964844 185.722656 209.894531 C 185.5 211.820312 185.34375 213.753906 185.257812 215.691406 C 185.171875 217.628906 185.15625 219.566406 185.203125 221.507812 C 185.253906 223.445312 185.371094 225.378906 185.558594 227.3125 C 185.746094 229.242188 186 231.167969 186.324219 233.078125 C 186.644531 234.992188 187.03125 236.890625 187.488281 238.777344 C 187.945312 240.660156 188.464844 242.527344 189.054688 244.378906 C 189.640625 246.226562 190.289062 248.050781 191.007812 249.855469 C 191.722656 251.660156 192.5 253.433594 193.339844 255.183594 C 194.183594 256.933594 195.085938 258.648438 196.046875 260.332031 C 197.007812 262.019531 198.027344 263.667969 199.101562 265.28125 C 200.179688 266.894531 201.3125 268.46875 202.5 270 L 202.113281 270 C 200.730469 270 199.351562 270.035156 197.972656 270.101562 C 196.59375 270.171875 195.21875 270.273438 193.84375 270.40625 C 192.46875 270.542969 191.097656 270.710938 189.734375 270.914062 C 188.367188 271.117188 187.007812 271.351562 185.652344 271.621094 C 184.296875 271.890625 182.949219 272.191406 181.609375 272.527344 C 180.273438 272.863281 178.941406 273.234375 177.621094 273.632812 C 176.300781 274.035156 174.988281 274.46875 173.6875 274.933594 C 172.386719 275.398438 171.097656 275.894531 169.824219 276.421875 C 168.546875 276.953125 167.285156 277.511719 166.039062 278.101562 C 164.789062 278.691406 163.554688 279.3125 162.339844 279.960938 C 161.121094 280.613281 159.917969 281.292969 158.734375 282.003906 C 157.546875 282.714844 156.382812 283.453125 155.234375 284.21875 C 154.085938 284.984375 152.957031 285.78125 151.847656 286.605469 C 150.738281 287.425781 149.652344 288.277344 148.585938 289.152344 C 147.515625 290.027344 146.472656 290.929688 145.449219 291.855469 C 144.425781 292.785156 143.425781 293.734375 142.449219 294.710938 C 141.472656 295.6875 140.523438 296.6875 139.59375 297.710938 C 138.667969 298.734375 137.765625 299.78125 136.890625 300.847656 C 136.011719 301.914062 135.164062 303.003906 134.339844 304.113281 C 133.515625 305.222656 132.722656 306.347656 131.957031 307.5 C 131.1875 308.644531 130.449219 309.8125 129.738281 310.996094 C 129.03125 312.179688 128.351562 313.382812 127.699219 314.601562 C 127.046875 315.816406 126.425781 317.050781 125.835938 318.300781 C 125.246094 319.546875 124.6875 320.808594 124.160156 322.085938 C 123.632812 323.359375 123.136719 324.648438 122.667969 325.949219 C 122.203125 327.25 121.769531 328.558594 121.371094 329.882812 C 120.96875 331.203125 120.601562 332.535156 120.265625 333.875 C 119.929688 335.210938 119.625 336.558594 119.359375 337.914062 C 119.089844 339.269531 118.851562 340.628906 118.648438 341.992188 C 118.449219 343.359375 118.277344 344.730469 118.144531 346.105469 C 118.007812 347.480469 117.90625 348.855469 117.835938 350.234375 C 117.769531 351.613281 117.734375 352.996094 117.738281 354.375 L 117.738281 472.5 C 117.738281 473.054688 117.761719 473.605469 117.816406 474.152344 C 117.871094 474.703125 117.953125 475.25 118.058594 475.789062 C 118.167969 476.332031 118.304688 476.871094 118.460938 477.398438 C 118.625 477.925781 118.808594 478.445312 119.019531 478.957031 C 119.230469 479.464844 119.46875 479.964844 119.730469 480.453125 C 119.988281 480.941406 120.273438 481.414062 120.582031 481.875 C 120.886719 482.332031 121.21875 482.777344 121.570312 483.203125 C 121.917969 483.632812 122.289062 484.039062 122.679688 484.429688 C 123.070312 484.824219 123.480469 485.195312 123.90625 485.542969 C 124.332031 485.894531 124.777344 486.222656 125.234375 486.53125 C 125.695312 486.839844 126.167969 487.121094 126.65625 487.382812 C 127.144531 487.644531 127.644531 487.878906 128.152344 488.089844 C 128.664062 488.300781 129.1875 488.488281 129.714844 488.648438 C 130.242188 488.808594 130.777344 488.941406 131.320312 489.050781 C 131.863281 489.15625 132.40625 489.238281 132.957031 489.292969 C 133.507812 489.347656 134.058594 489.375 134.613281 489.375 L 185.238281 489.375 L 185.238281 609.1875 C 185.238281 610.292969 185.292969 611.394531 185.398438 612.496094 C 185.507812 613.59375 185.667969 614.6875 185.882812 615.769531 C 186.101562 616.855469 186.371094 617.925781 186.691406 618.984375 C 187.011719 620.042969 187.382812 621.082031 187.804688 622.101562 C 188.230469 623.121094 188.703125 624.121094 189.222656 625.09375 C 189.742188 626.070312 190.308594 627.019531 190.921875 627.9375 C 191.539062 628.855469 192.195312 629.742188 192.898438 630.597656 C 193.597656 631.453125 194.339844 632.269531 195.121094 633.050781 C 195.902344 633.832031 196.722656 634.574219 197.574219 635.273438 C 198.429688 635.976562 199.316406 636.632812 200.234375 637.246094 C 201.15625 637.863281 202.101562 638.429688 203.078125 638.953125 C 204.050781 639.472656 205.050781 639.945312 206.070312 640.367188 C 207.089844 640.789062 208.128906 641.164062 209.1875 641.484375 C 210.246094 641.804688 211.316406 642.070312 212.402344 642.289062 C 213.484375 642.503906 214.578125 642.667969 215.679688 642.773438 C 216.777344 642.882812 217.882812 642.9375 218.988281 642.9375 L 270 642.9375 C 270.554688 642.9375 271.105469 642.910156 271.65625 642.855469 C 272.207031 642.800781 272.75 642.71875 273.292969 642.613281 C 273.835938 642.503906 274.371094 642.371094 274.898438 642.210938 C 275.425781 642.050781 275.945312 641.863281 276.457031 641.652344 C 276.96875 641.441406 277.46875 641.203125 277.953125 640.945312 C 278.441406 640.683594 278.914062 640.402344 279.375 640.09375 C 279.835938 639.789062 280.277344 639.457031 280.707031 639.109375 C 281.132812 638.757812 281.542969 638.386719 281.933594 637.996094 C 282.324219 637.605469 282.695312 637.195312 283.042969 636.765625 C 283.394531 636.339844 283.722656 635.894531 284.03125 635.4375 C 284.339844 634.976562 284.621094 634.503906 284.882812 634.015625 C 285.144531 633.527344 285.378906 633.027344 285.589844 632.519531 C 285.804688 632.007812 285.988281 631.488281 286.148438 630.960938 C 286.308594 630.429688 286.445312 629.894531 286.550781 629.351562 C 286.660156 628.8125 286.742188 628.265625 286.792969 627.71875 C 286.847656 627.167969 286.875 626.613281 286.875 626.0625 L 286.875 556.875 C 286.875 556.324219 286.847656 555.773438 286.792969 555.222656 C 286.742188 554.667969 286.660156 554.125 286.550781 553.582031 C 286.445312 553.039062 286.308594 552.503906 286.148438 551.972656 C 285.988281 551.445312 285.804688 550.925781 285.589844 550.417969 C 285.378906 549.90625 285.140625 549.40625 284.882812 548.917969 C 284.621094 548.433594 284.335938 547.960938 284.027344 547.5 C 283.722656 547.039062 283.394531 546.597656 283.042969 546.171875 C 282.695312 545.742188 282.324219 545.332031 281.933594 544.941406 C 281.542969 544.550781 281.132812 544.179688 280.707031 543.832031 C 280.277344 543.480469 279.835938 543.148438 279.375 542.839844 C 278.914062 542.535156 278.441406 542.25 277.953125 541.992188 C 277.46875 541.730469 276.96875 541.496094 276.457031 541.28125 C 275.945312 541.070312 275.425781 540.886719 274.898438 540.726562 C 274.371094 540.566406 273.835938 540.429688 273.292969 540.324219 C 272.75 540.21875 272.207031 540.136719 271.652344 540.082031 C 271.105469 540.027344 270.554688 540 270 540 Z M 270 540 " fill-opacity="1" fill-rule="nonzero"/></svg>