<svg xmlns="http://www.w3.org/2000/svg" xmlns:xlink="http://www.w3.org/1999/xlink" width="1080" zoomAndPan="magnify" viewBox="0 0 810 809.999993" height="1080" preserveAspectRatio="xMidYMid meet" version="1.0"><path fill="#009688" d="M 572.90625 354.375 L 640.40625 354.375 L 640.40625 421.875 L 572.90625 421.875 Z M 572.90625 354.375 " fill-opacity="1" fill-rule="nonzero"/><path fill="#009688" d="M 437.90625 354.375 L 505.40625 354.375 L 505.40625 421.875 L 437.90625 421.875 Z M 437.90625 354.375 " fill-opacity="1" fill-rule="nonzero"/><path fill="#009688" d="M 302.90625 354.375 L 370.40625 354.375 L 370.40625 421.875 L 302.90625 421.875 Z M 302.90625 354.375 " fill-opacity="1" fill-rule="nonzero"/><path fill="#009688" d="M 572.90625 489.375 L 640.40625 489.375 L 640.40625 556.875 L 572.90625 556.875 Z M 572.90625 489.375 " fill-opacity="1" fill-rule="nonzero"/><path fill="#009688" d="M 437.90625 489.375 L 505.40625 489.375 L 505.40625 556.875 L 437.90625 556.875 Z M 437.90625 489.375 " fill-opacity="1" fill-rule="nonzero"/><path fill="#009688" d="M 387.28125 641.25 C 387.28125 641.804688 387.308594 642.355469 387.359375 642.902344 C 387.414062 643.453125 387.496094 644 387.601562 644.539062 C 387.710938 645.082031 387.84375 645.617188 388.003906 646.148438 C 388.164062 646.675781 388.347656 647.195312 388.5625 647.707031 C 388.773438 648.214844 389.011719 648.714844 389.273438 649.203125 C 389.53125 649.691406 389.816406 650.164062 390.125 650.625 C 390.429688 651.085938 390.757812 651.527344 391.113281 651.957031 C 391.460938 652.382812 391.832031 652.792969 392.222656 653.183594 C 392.617188 653.574219 393.027344 653.945312 393.453125 654.292969 C 393.878906 654.644531 394.320312 654.972656 394.777344 655.28125 C 395.238281 655.585938 395.714844 655.871094 396.203125 656.132812 C 396.691406 656.394531 397.1875 656.628906 397.695312 656.839844 C 398.207031 657.050781 398.726562 657.238281 399.257812 657.398438 C 399.785156 657.558594 400.320312 657.691406 400.863281 657.800781 C 401.402344 657.90625 401.949219 657.988281 402.5 658.042969 C 403.050781 658.097656 403.601562 658.125 404.15625 658.125 L 707.90625 658.125 C 709.011719 658.125 710.113281 658.070312 711.210938 657.960938 C 712.3125 657.855469 713.40625 657.691406 714.488281 657.476562 C 715.574219 657.261719 716.644531 656.992188 717.699219 656.671875 C 718.757812 656.351562 719.796875 655.976562 720.816406 655.554688 C 721.839844 655.132812 722.839844 654.660156 723.8125 654.140625 C 724.785156 653.617188 725.730469 653.050781 726.652344 652.433594 C 727.570312 651.824219 728.460938 651.164062 729.316406 650.460938 C 730.171875 649.761719 730.988281 649.019531 731.769531 648.238281 C 732.550781 647.457031 733.292969 646.640625 733.996094 645.785156 C 734.695312 644.929688 735.351562 644.042969 735.964844 643.125 C 736.578125 642.207031 737.148438 641.257812 737.671875 640.285156 C 738.191406 639.308594 738.664062 638.3125 739.085938 637.289062 C 739.507812 636.269531 739.878906 635.230469 740.203125 634.171875 C 740.523438 633.113281 740.789062 632.042969 741.007812 630.957031 C 741.222656 629.875 741.386719 628.785156 741.496094 627.683594 C 741.605469 626.582031 741.65625 625.480469 741.65625 624.375 L 741.65625 185.625 C 741.65625 184.519531 741.601562 183.417969 741.492188 182.316406 C 741.382812 181.214844 741.222656 180.125 741.007812 179.039062 C 740.789062 177.957031 740.523438 176.886719 740.203125 175.828125 C 739.878906 174.769531 739.507812 173.730469 739.085938 172.707031 C 738.664062 171.6875 738.191406 170.691406 737.667969 169.714844 C 737.148438 168.738281 736.578125 167.792969 735.964844 166.871094 C 735.351562 165.953125 734.695312 165.066406 733.996094 164.214844 C 733.292969 163.359375 732.550781 162.539062 731.769531 161.757812 C 730.988281 160.976562 730.167969 160.234375 729.3125 159.535156 C 728.460938 158.832031 727.570312 158.175781 726.652344 157.5625 C 725.730469 156.949219 724.785156 156.382812 723.8125 155.859375 C 722.839844 155.339844 721.839844 154.867188 720.816406 154.441406 C 719.796875 154.019531 718.757812 153.648438 717.699219 153.328125 C 716.644531 153.007812 715.574219 152.738281 714.488281 152.523438 C 713.40625 152.308594 712.3125 152.144531 711.210938 152.039062 C 710.113281 151.929688 709.011719 151.875 707.90625 151.875 L 674.15625 151.875 L 674.15625 101.25 C 674.15625 100.695312 674.128906 100.144531 674.074219 99.59375 C 674.019531 99.046875 673.9375 98.5 673.828125 97.957031 C 673.71875 97.414062 673.585938 96.878906 673.429688 96.351562 C 673.269531 95.820312 673.082031 95.300781 672.867188 94.789062 C 672.65625 94.28125 672.421875 93.78125 672.160156 93.292969 C 671.902344 92.808594 671.617188 92.332031 671.308594 91.875 C 671.003906 91.414062 670.675781 90.972656 670.324219 90.542969 C 669.972656 90.117188 669.601562 89.707031 669.210938 89.316406 C 668.820312 88.925781 668.410156 88.554688 667.984375 88.203125 C 667.558594 87.855469 667.113281 87.527344 666.652344 87.21875 C 666.195312 86.910156 665.722656 86.628906 665.234375 86.367188 C 664.746094 86.105469 664.246094 85.871094 663.734375 85.660156 C 663.226562 85.445312 662.707031 85.261719 662.175781 85.101562 C 661.648438 84.941406 661.113281 84.804688 660.570312 84.699219 C 660.03125 84.589844 659.488281 84.511719 658.9375 84.457031 C 658.386719 84.402344 657.835938 84.375 657.28125 84.375 L 589.78125 84.375 C 589.226562 84.375 588.675781 84.402344 588.125 84.457031 C 587.578125 84.511719 587.027344 84.589844 586.488281 84.699219 C 585.945312 84.804688 585.410156 84.941406 584.882812 85.101562 C 584.351562 85.261719 583.832031 85.449219 583.324219 85.660156 C 582.8125 85.871094 582.3125 86.109375 581.824219 86.367188 C 581.335938 86.628906 580.863281 86.914062 580.402344 87.21875 C 579.945312 87.527344 579.503906 87.855469 579.074219 88.207031 C 578.648438 88.554688 578.238281 88.925781 577.84375 89.316406 C 577.457031 89.707031 577.085938 90.117188 576.734375 90.546875 C 576.382812 90.972656 576.054688 91.414062 575.746094 91.875 C 575.4375 92.335938 575.15625 92.808594 574.898438 93.296875 C 574.636719 93.785156 574.402344 94.285156 574.1875 94.792969 C 573.976562 95.304688 573.792969 95.824219 573.632812 96.351562 C 573.472656 96.882812 573.339844 97.417969 573.230469 97.957031 C 573.121094 98.5 573.042969 99.046875 572.984375 99.597656 C 572.933594 100.144531 572.90625 100.695312 572.90625 101.25 L 572.90625 151.875 L 370.40625 151.875 L 370.40625 101.25 C 370.40625 100.695312 370.378906 100.144531 370.324219 99.59375 C 370.273438 99.046875 370.191406 98.5 370.082031 97.957031 C 369.976562 97.414062 369.84375 96.878906 369.679688 96.351562 C 369.519531 95.820312 369.332031 95.300781 369.121094 94.789062 C 368.910156 94.28125 368.675781 93.78125 368.414062 93.292969 C 368.152344 92.808594 367.871094 92.332031 367.5625 91.875 C 367.253906 91.414062 366.929688 90.972656 366.574219 90.542969 C 366.222656 90.117188 365.851562 89.707031 365.464844 89.316406 C 365.074219 88.925781 364.664062 88.554688 364.234375 88.203125 C 363.808594 87.855469 363.367188 87.527344 362.90625 87.21875 C 362.445312 86.910156 361.972656 86.628906 361.484375 86.367188 C 360.996094 86.105469 360.496094 85.871094 359.984375 85.660156 C 359.476562 85.445312 358.957031 85.261719 358.429688 85.101562 C 357.898438 84.941406 357.363281 84.804688 356.820312 84.699219 C 356.28125 84.589844 355.734375 84.511719 355.183594 84.457031 C 354.632812 84.402344 354.085938 84.375 353.53125 84.375 L 286.03125 84.375 C 285.476562 84.375 284.925781 84.402344 284.375 84.457031 C 283.828125 84.511719 283.28125 84.589844 282.738281 84.699219 C 282.195312 84.804688 281.660156 84.941406 281.132812 85.101562 C 280.601562 85.261719 280.082031 85.449219 279.574219 85.660156 C 279.0625 85.871094 278.5625 86.109375 278.074219 86.367188 C 277.585938 86.628906 277.113281 86.914062 276.652344 87.21875 C 276.195312 87.527344 275.75 87.855469 275.324219 88.207031 C 274.898438 88.554688 274.492188 88.925781 274.097656 89.316406 C 273.710938 89.707031 273.339844 90.117188 272.992188 90.546875 C 272.640625 90.972656 272.308594 91.414062 272.003906 91.875 C 271.695312 92.335938 271.414062 92.808594 271.152344 93.296875 C 270.890625 93.785156 270.652344 94.285156 270.441406 94.792969 C 270.230469 95.304688 270.042969 95.824219 269.882812 96.351562 C 269.722656 96.882812 269.589844 97.417969 269.480469 97.957031 C 269.375 98.5 269.292969 99.046875 269.238281 99.597656 C 269.183594 100.144531 269.15625 100.695312 269.15625 101.25 L 269.15625 151.875 L 235.40625 151.875 C 234.300781 151.875 233.199219 151.929688 232.097656 152.039062 C 231 152.144531 229.90625 152.308594 228.820312 152.523438 C 227.738281 152.738281 226.667969 153.007812 225.609375 153.328125 C 224.554688 153.648438 223.511719 154.023438 222.492188 154.445312 C 221.472656 154.867188 220.472656 155.339844 219.496094 155.859375 C 218.519531 156.382812 217.574219 156.949219 216.652344 157.5625 C 215.738281 158.175781 214.851562 158.835938 213.996094 159.535156 C 213.140625 160.238281 212.320312 160.976562 211.542969 161.757812 C 210.761719 162.542969 210.015625 163.359375 209.3125 164.214844 C 208.613281 165.070312 207.957031 165.957031 207.339844 166.875 C 206.726562 167.792969 206.160156 168.742188 205.640625 169.714844 C 205.117188 170.691406 204.648438 171.6875 204.222656 172.710938 C 203.800781 173.730469 203.429688 174.769531 203.109375 175.828125 C 202.789062 176.886719 202.519531 177.957031 202.304688 179.039062 C 202.089844 180.125 201.929688 181.214844 201.820312 182.316406 C 201.710938 183.417969 201.65625 184.519531 201.65625 185.625 L 201.65625 371.25 C 201.65625 371.804688 201.683594 372.355469 201.734375 372.90625 C 201.792969 373.453125 201.871094 374 201.976562 374.539062 C 202.085938 375.082031 202.21875 375.617188 202.378906 376.148438 C 202.539062 376.675781 202.722656 377.195312 202.933594 377.707031 C 203.148438 378.21875 203.382812 378.71875 203.644531 379.203125 C 203.90625 379.691406 204.1875 380.164062 204.496094 380.625 C 204.804688 381.085938 205.132812 381.527344 205.484375 381.957031 C 205.835938 382.382812 206.207031 382.792969 206.59375 383.183594 C 206.988281 383.574219 207.394531 383.945312 207.824219 384.296875 C 208.25 384.644531 208.695312 384.972656 209.15625 385.28125 C 209.613281 385.589844 210.089844 385.871094 210.574219 386.132812 C 211.0625 386.394531 211.5625 386.628906 212.070312 386.839844 C 212.582031 387.050781 213.101562 387.238281 213.628906 387.398438 C 214.160156 387.558594 214.695312 387.695312 215.238281 387.800781 C 215.777344 387.910156 216.328125 387.988281 216.875 388.042969 C 217.425781 388.097656 217.976562 388.125 218.53125 388.125 C 219.082031 388.125 219.632812 388.097656 220.183594 388.046875 C 220.734375 387.992188 221.28125 387.910156 221.820312 387.800781 C 222.367188 387.695312 222.902344 387.558594 223.429688 387.398438 C 223.957031 387.238281 224.476562 387.050781 224.984375 386.839844 C 225.5 386.628906 226 386.394531 226.484375 386.132812 C 226.972656 385.871094 227.445312 385.589844 227.902344 385.28125 C 228.363281 384.972656 228.808594 384.644531 229.234375 384.292969 C 229.660156 383.945312 230.070312 383.574219 230.460938 383.183594 C 230.855469 382.792969 231.226562 382.382812 231.574219 381.957031 C 231.925781 381.527344 232.253906 381.085938 232.5625 380.625 C 232.871094 380.164062 233.152344 379.691406 233.410156 379.203125 C 233.671875 378.71875 233.910156 378.21875 234.121094 377.707031 C 234.332031 377.195312 234.519531 376.675781 234.679688 376.148438 C 234.835938 375.617188 234.96875 375.082031 235.078125 374.542969 C 235.1875 374 235.269531 373.457031 235.324219 372.902344 C 235.378906 372.355469 235.40625 371.804688 235.40625 371.25 L 235.40625 286.875 L 707.90625 286.875 L 707.90625 624.375 L 404.15625 624.375 C 403.601562 624.375 403.054688 624.402344 402.503906 624.457031 C 401.953125 624.511719 401.40625 624.589844 400.867188 624.699219 C 400.324219 624.808594 399.789062 624.941406 399.257812 625.101562 C 398.730469 625.261719 398.207031 625.449219 397.699219 625.660156 C 397.1875 625.871094 396.691406 626.105469 396.203125 626.367188 C 395.714844 626.628906 395.238281 626.914062 394.777344 627.21875 C 394.320312 627.527344 393.878906 627.855469 393.453125 628.207031 C 393.027344 628.558594 392.617188 628.925781 392.222656 629.316406 C 391.832031 629.707031 391.460938 630.117188 391.113281 630.542969 C 390.765625 630.972656 390.433594 631.414062 390.128906 631.875 C 389.820312 632.335938 389.539062 632.808594 389.277344 633.292969 C 389.015625 633.78125 388.78125 634.28125 388.566406 634.792969 C 388.355469 635.304688 388.171875 635.824219 388.007812 636.351562 C 387.851562 636.878906 387.71875 637.414062 387.609375 637.957031 C 387.5 638.5 387.417969 639.046875 387.363281 639.597656 C 387.308594 640.148438 387.28125 640.699219 387.28125 641.25 Z M 336.65625 151.875 L 302.90625 151.875 L 302.90625 118.125 L 336.65625 118.125 Z M 640.40625 151.875 L 606.65625 151.875 L 606.65625 118.125 L 640.40625 118.125 Z M 707.90625 253.125 L 235.40625 253.125 L 235.40625 185.625 L 707.90625 185.625 Z M 707.90625 253.125 " fill-opacity="1" fill-rule="nonzero"/><path fill="#009688" d="M 202.5 472.5 C 146.671875 472.5 101.25 517.921875 101.25 573.75 C 101.25 629.578125 146.671875 675 202.5 675 C 258.328125 675 303.75 629.578125 303.75 573.75 C 303.75 517.921875 258.328125 472.5 202.5 472.5 M 202.5 438.75 C 277.054688 438.75 337.5 499.195312 337.5 573.75 C 337.5 648.304688 277.054688 708.75 202.5 708.75 C 127.945312 708.75 67.5 648.304688 67.5 573.75 C 67.5 499.195312 127.945312 438.75 202.5 438.75 Z M 202.5 438.75 " fill-opacity="1" fill-rule="nonzero"/><path fill="#009688" d="M 202.5 523.125 L 202.5 573.75 L 151.875 573.75 L 202.5 573.75 L 202.5 624.375 L 202.5 556.875 L 202.519531 523.125 C 202.519531 523.125 202.511719 523.125 202.5 523.125 M 202.5 506.25 C 211.816406 506.25 219.375 513.808594 219.375 523.125 L 219.375 556.875 L 253.125 556.875 C 262.441406 556.875 270 564.433594 270 573.75 C 270 583.066406 262.441406 590.625 253.125 590.625 L 219.375 590.625 L 219.375 624.375 C 219.375 633.691406 211.816406 641.25 202.5 641.25 C 193.183594 641.25 185.625 633.691406 185.625 624.375 L 185.625 590.625 L 151.875 590.625 C 142.558594 590.625 135 583.066406 135 573.75 C 135 564.433594 142.558594 556.875 151.875 556.875 L 185.625 556.875 L 185.625 523.125 C 185.625 513.808594 193.183594 506.25 202.5 506.25 Z M 202.5 506.25 " fill-opacity="1" fill-rule="nonzero"/></svg>