<svg xmlns="http://www.w3.org/2000/svg" xmlns:xlink="http://www.w3.org/1999/xlink" width="1080" zoomAndPan="magnify" viewBox="0 0 810 809.999993" height="1080" preserveAspectRatio="xMidYMid meet" version="1.0"><path fill="#009688" d="M 455.625 303.75 L 624.375 303.75 C 624.925781 303.75 625.480469 303.777344 626.027344 303.832031 C 626.578125 303.886719 627.125 303.964844 627.667969 304.074219 C 628.210938 304.183594 628.746094 304.316406 629.273438 304.476562 C 629.800781 304.636719 630.320312 304.824219 630.832031 305.035156 C 631.34375 305.246094 631.84375 305.480469 632.328125 305.742188 C 632.816406 306.003906 633.289062 306.285156 633.75 306.59375 C 634.210938 306.902344 634.652344 307.230469 635.082031 307.582031 C 635.507812 307.929688 635.917969 308.300781 636.308594 308.691406 C 636.699219 309.082031 637.070312 309.492188 637.417969 309.917969 C 637.769531 310.347656 638.097656 310.789062 638.40625 311.25 C 638.714844 311.710938 638.996094 312.183594 639.257812 312.671875 C 639.519531 313.15625 639.753906 313.65625 639.964844 314.167969 C 640.175781 314.679688 640.363281 315.199219 640.523438 315.726562 C 640.683594 316.253906 640.816406 316.789062 640.925781 317.332031 C 641.035156 317.875 641.113281 318.421875 641.167969 318.972656 C 641.222656 319.519531 641.25 320.074219 641.25 320.625 C 641.25 321.175781 641.222656 321.730469 641.167969 322.277344 C 641.113281 322.828125 641.035156 323.375 640.925781 323.917969 C 640.816406 324.460938 640.683594 324.996094 640.523438 325.523438 C 640.363281 326.050781 640.175781 326.570312 639.964844 327.082031 C 639.753906 327.59375 639.519531 328.09375 639.257812 328.578125 C 638.996094 329.066406 638.714844 329.539062 638.40625 330 C 638.097656 330.460938 637.769531 330.902344 637.417969 331.332031 C 637.070312 331.757812 636.699219 332.167969 636.308594 332.558594 C 635.917969 332.949219 635.507812 333.320312 635.082031 333.667969 C 634.652344 334.019531 634.210938 334.347656 633.75 334.65625 C 633.289062 334.964844 632.816406 335.246094 632.328125 335.507812 C 631.84375 335.769531 631.34375 336.003906 630.832031 336.214844 C 630.320312 336.425781 629.800781 336.613281 629.273438 336.773438 C 628.746094 336.933594 628.210938 337.066406 627.667969 337.175781 C 627.125 337.285156 626.578125 337.363281 626.027344 337.417969 C 625.480469 337.472656 624.925781 337.5 624.375 337.5 L 455.625 337.5 C 455.074219 337.5 454.519531 337.472656 453.972656 337.417969 C 453.421875 337.363281 452.875 337.285156 452.332031 337.175781 C 451.789062 337.066406 451.253906 336.933594 450.726562 336.773438 C 450.199219 336.613281 449.679688 336.425781 449.167969 336.214844 C 448.65625 336.003906 448.15625 335.769531 447.671875 335.507812 C 447.183594 335.246094 446.710938 334.964844 446.25 334.65625 C 445.789062 334.347656 445.347656 334.019531 444.917969 333.667969 C 444.492188 333.320312 444.082031 332.949219 443.691406 332.558594 C 443.300781 332.167969 442.929688 331.757812 442.582031 331.332031 C 442.230469 330.902344 441.902344 330.460938 441.59375 330 C 441.285156 329.539062 441.003906 329.066406 440.742188 328.578125 C 440.480469 328.09375 440.246094 327.59375 440.035156 327.082031 C 439.824219 326.570312 439.636719 326.050781 439.476562 325.523438 C 439.316406 324.996094 439.183594 324.460938 439.074219 323.917969 C 438.964844 323.375 438.886719 322.828125 438.832031 322.277344 C 438.777344 321.730469 438.75 321.175781 438.75 320.625 C 438.75 320.074219 438.777344 319.519531 438.832031 318.972656 C 438.886719 318.421875 438.964844 317.875 439.074219 317.332031 C 439.183594 316.789062 439.316406 316.253906 439.476562 315.726562 C 439.636719 315.199219 439.824219 314.679688 440.035156 314.167969 C 440.246094 313.65625 440.480469 313.15625 440.742188 312.671875 C 441.003906 312.183594 441.285156 311.710938 441.59375 311.25 C 441.902344 310.789062 442.230469 310.347656 442.582031 309.917969 C 442.929688 309.492188 443.300781 309.082031 443.691406 308.691406 C 444.082031 308.300781 444.492188 307.929688 444.917969 307.582031 C 445.347656 307.230469 445.789062 306.902344 446.25 306.59375 C 446.710938 306.285156 447.183594 306.003906 447.671875 305.742188 C 448.15625 305.480469 448.65625 305.246094 449.167969 305.035156 C 449.679688 304.824219 450.199219 304.636719 450.726562 304.476562 C 451.253906 304.316406 451.789062 304.183594 452.332031 304.074219 C 452.875 303.964844 453.421875 303.886719 453.972656 303.832031 C 454.519531 303.777344 455.074219 303.75 455.625 303.75 Z M 455.625 303.75 " fill-opacity="1" fill-rule="nonzero"/><path fill="#009688" d="M 455.625 371.25 L 624.375 371.25 C 624.925781 371.25 625.480469 371.277344 626.027344 371.332031 C 626.578125 371.386719 627.125 371.464844 627.667969 371.574219 C 628.210938 371.683594 628.746094 371.816406 629.273438 371.976562 C 629.800781 372.136719 630.320312 372.324219 630.832031 372.535156 C 631.34375 372.746094 631.84375 372.980469 632.328125 373.242188 C 632.816406 373.503906 633.289062 373.785156 633.75 374.09375 C 634.210938 374.402344 634.652344 374.730469 635.082031 375.082031 C 635.507812 375.429688 635.917969 375.800781 636.308594 376.191406 C 636.699219 376.582031 637.070312 376.992188 637.417969 377.417969 C 637.769531 377.847656 638.097656 378.289062 638.40625 378.75 C 638.714844 379.210938 638.996094 379.683594 639.257812 380.171875 C 639.519531 380.65625 639.753906 381.15625 639.964844 381.667969 C 640.175781 382.179688 640.363281 382.699219 640.523438 383.226562 C 640.683594 383.753906 640.816406 384.289062 640.925781 384.832031 C 641.035156 385.375 641.113281 385.921875 641.167969 386.472656 C 641.222656 387.019531 641.25 387.574219 641.25 388.125 C 641.25 388.675781 641.222656 389.230469 641.167969 389.777344 C 641.113281 390.328125 641.035156 390.875 640.925781 391.417969 C 640.816406 391.960938 640.683594 392.496094 640.523438 393.023438 C 640.363281 393.550781 640.175781 394.070312 639.964844 394.582031 C 639.753906 395.09375 639.519531 395.59375 639.257812 396.078125 C 638.996094 396.566406 638.714844 397.039062 638.40625 397.5 C 638.097656 397.960938 637.769531 398.402344 637.417969 398.832031 C 637.070312 399.257812 636.699219 399.667969 636.308594 400.058594 C 635.917969 400.449219 635.507812 400.820312 635.082031 401.167969 C 634.652344 401.519531 634.210938 401.847656 633.75 402.15625 C 633.289062 402.464844 632.816406 402.746094 632.328125 403.007812 C 631.84375 403.269531 631.34375 403.503906 630.832031 403.714844 C 630.320312 403.925781 629.800781 404.113281 629.273438 404.273438 C 628.746094 404.433594 628.210938 404.566406 627.667969 404.675781 C 627.125 404.785156 626.578125 404.863281 626.027344 404.917969 C 625.480469 404.972656 624.925781 405 624.375 405 L 455.625 405 C 455.074219 405 454.519531 404.972656 453.972656 404.917969 C 453.421875 404.863281 452.875 404.785156 452.332031 404.675781 C 451.789062 404.566406 451.253906 404.433594 450.726562 404.273438 C 450.199219 404.113281 449.679688 403.925781 449.167969 403.714844 C 448.65625 403.503906 448.15625 403.269531 447.671875 403.007812 C 447.183594 402.746094 446.710938 402.464844 446.25 402.15625 C 445.789062 401.847656 445.347656 401.519531 444.917969 401.167969 C 444.492188 400.820312 444.082031 400.449219 443.691406 400.058594 C 443.300781 399.667969 442.929688 399.257812 442.582031 398.832031 C 442.230469 398.402344 441.902344 397.960938 441.59375 397.5 C 441.285156 397.039062 441.003906 396.566406 440.742188 396.078125 C 440.480469 395.59375 440.246094 395.09375 440.035156 394.582031 C 439.824219 394.070312 439.636719 393.550781 439.476562 393.023438 C 439.316406 392.496094 439.183594 391.960938 439.074219 391.417969 C 438.964844 390.875 438.886719 390.328125 438.832031 389.777344 C 438.777344 389.230469 438.75 388.675781 438.75 388.125 C 438.75 387.574219 438.777344 387.019531 438.832031 386.472656 C 438.886719 385.921875 438.964844 385.375 439.074219 384.832031 C 439.183594 384.289062 439.316406 383.753906 439.476562 383.226562 C 439.636719 382.699219 439.824219 382.179688 440.035156 381.667969 C 440.246094 381.15625 440.480469 380.65625 440.742188 380.171875 C 441.003906 379.683594 441.285156 379.210938 441.59375 378.75 C 441.902344 378.289062 442.230469 377.847656 442.582031 377.417969 C 442.929688 376.992188 443.300781 376.582031 443.691406 376.191406 C 444.082031 375.800781 444.492188 375.429688 444.917969 375.082031 C 445.347656 374.730469 445.789062 374.402344 446.25 374.09375 C 446.710938 373.785156 447.183594 373.503906 447.671875 373.242188 C 448.15625 372.980469 448.65625 372.746094 449.167969 372.535156 C 449.679688 372.324219 450.199219 372.136719 450.726562 371.976562 C 451.253906 371.816406 451.789062 371.683594 452.332031 371.574219 C 452.875 371.464844 453.421875 371.386719 453.972656 371.332031 C 454.519531 371.277344 455.074219 371.25 455.625 371.25 Z M 455.625 371.25 " fill-opacity="1" fill-rule="nonzero"/><path fill="#009688" d="M 337.5 118.125 L 337.5 185.625 C 337.5 186.175781 337.527344 186.730469 337.582031 187.277344 C 337.632812 187.828125 337.714844 188.375 337.824219 188.917969 C 337.933594 189.460938 338.070312 189.996094 338.226562 190.523438 C 338.386719 191.050781 338.570312 191.570312 338.78125 192.082031 C 338.992188 192.59375 339.226562 193.09375 339.488281 193.578125 C 339.75 194.066406 340.035156 194.539062 340.339844 195 C 340.648438 195.460938 340.980469 195.902344 341.332031 196.332031 C 341.679688 196.757812 342.050781 197.167969 342.441406 197.558594 C 342.835938 197.949219 343.242188 198.320312 343.667969 198.667969 C 344.097656 199.019531 344.539062 199.347656 345 199.65625 C 345.460938 199.964844 345.933594 200.246094 346.421875 200.507812 C 346.90625 200.769531 347.40625 201.003906 347.914062 201.214844 C 348.425781 201.425781 348.945312 201.613281 349.472656 201.773438 C 350.003906 201.933594 350.539062 202.066406 351.078125 202.175781 C 351.621094 202.28125 352.171875 202.363281 352.722656 202.417969 C 353.269531 202.472656 353.824219 202.5 354.375 202.5 C 354.929688 202.5 355.480469 202.472656 356.027344 202.417969 C 356.578125 202.363281 357.121094 202.28125 357.664062 202.175781 C 358.207031 202.066406 358.742188 201.933594 359.273438 201.773438 C 359.800781 201.613281 360.320312 201.425781 360.832031 201.214844 C 361.339844 201.003906 361.839844 200.769531 362.328125 200.507812 C 362.816406 200.246094 363.289062 199.964844 363.75 199.65625 C 364.210938 199.347656 364.652344 199.019531 365.082031 198.671875 C 365.507812 198.320312 365.917969 197.949219 366.308594 197.558594 C 366.699219 197.167969 367.070312 196.757812 367.421875 196.332031 C 367.769531 195.902344 368.097656 195.460938 368.40625 195 C 368.714844 194.539062 369 194.066406 369.257812 193.578125 C 369.519531 193.09375 369.757812 192.59375 369.964844 192.082031 C 370.175781 191.570312 370.363281 191.050781 370.523438 190.523438 C 370.683594 189.996094 370.816406 189.460938 370.925781 188.917969 C 371.035156 188.375 371.113281 187.828125 371.167969 187.277344 C 371.226562 186.730469 371.253906 186.175781 371.25 185.625 L 371.25 135 L 708.75 135 L 708.75 573.75 L 523.125 573.75 C 522.574219 573.75 522.019531 573.777344 521.472656 573.832031 C 520.921875 573.886719 520.371094 573.964844 519.832031 574.074219 C 519.289062 574.179688 518.757812 574.316406 518.226562 574.476562 C 517.695312 574.636719 517.179688 574.824219 516.667969 575.035156 C 516.160156 575.246094 515.660156 575.484375 515.171875 575.742188 C 514.683594 576.003906 514.210938 576.289062 513.75 576.59375 C 513.289062 576.902344 512.851562 577.230469 512.421875 577.582031 C 511.996094 577.929688 511.585938 578.300781 511.195312 578.691406 C 510.804688 579.082031 510.433594 579.492188 510.082031 579.917969 C 509.730469 580.347656 509.402344 580.789062 509.09375 581.25 C 508.789062 581.710938 508.503906 582.183594 508.246094 582.671875 C 507.984375 583.15625 507.75 583.65625 507.539062 584.167969 C 507.324219 584.679688 507.136719 585.199219 506.980469 585.726562 C 506.820312 586.253906 506.683594 586.789062 506.574219 587.332031 C 506.46875 587.875 506.386719 588.421875 506.332031 588.972656 C 506.277344 589.519531 506.253906 590.074219 506.25 590.625 C 506.253906 591.175781 506.277344 591.730469 506.335938 592.277344 C 506.386719 592.828125 506.46875 593.375 506.574219 593.917969 C 506.683594 594.460938 506.816406 594.996094 506.976562 595.523438 C 507.132812 596.050781 507.320312 596.570312 507.53125 597.082031 C 507.742188 597.59375 507.980469 598.089844 508.242188 598.578125 C 508.5 599.066406 508.785156 599.539062 509.089844 600 C 509.398438 600.460938 509.730469 600.902344 510.082031 601.328125 C 510.429688 601.757812 510.800781 602.167969 511.191406 602.558594 C 511.582031 602.949219 511.992188 603.320312 512.417969 603.667969 C 512.847656 604.019531 513.289062 604.347656 513.75 604.65625 C 514.207031 604.960938 514.679688 605.246094 515.167969 605.507812 C 515.65625 605.769531 516.15625 606.003906 516.664062 606.214844 C 517.175781 606.425781 517.695312 606.613281 518.222656 606.773438 C 518.753906 606.933594 519.289062 607.066406 519.832031 607.175781 C 520.371094 607.28125 520.921875 607.363281 521.472656 607.417969 C 522.019531 607.472656 522.574219 607.5 523.125 607.5 L 725.625 607.5 C 726.179688 607.5 726.730469 607.472656 727.277344 607.417969 C 727.828125 607.363281 728.371094 607.28125 728.914062 607.175781 C 729.457031 607.066406 729.992188 606.933594 730.519531 606.773438 C 731.046875 606.613281 731.570312 606.425781 732.078125 606.214844 C 732.589844 606.003906 733.089844 605.769531 733.578125 605.507812 C 734.066406 605.246094 734.539062 604.960938 734.996094 604.65625 C 735.457031 604.347656 735.902344 604.019531 736.328125 603.667969 C 736.753906 603.320312 737.164062 602.949219 737.554688 602.558594 C 737.945312 602.167969 738.316406 601.757812 738.667969 601.328125 C 739.019531 600.902344 739.347656 600.460938 739.65625 600 C 739.960938 599.539062 740.246094 599.066406 740.507812 598.578125 C 740.769531 598.089844 741.003906 597.59375 741.210938 597.082031 C 741.425781 596.570312 741.613281 596.050781 741.773438 595.523438 C 741.929688 594.996094 742.066406 594.460938 742.171875 593.917969 C 742.28125 593.375 742.363281 592.828125 742.417969 592.277344 C 742.472656 591.730469 742.5 591.175781 742.5 590.625 L 742.5 118.125 C 742.5 117.574219 742.472656 117.019531 742.417969 116.472656 C 742.363281 115.921875 742.285156 115.375 742.175781 114.832031 C 742.066406 114.289062 741.933594 113.753906 741.773438 113.226562 C 741.613281 112.695312 741.425781 112.175781 741.210938 111.667969 C 741.003906 111.15625 740.765625 110.65625 740.503906 110.171875 C 740.246094 109.683594 739.960938 109.210938 739.652344 108.75 C 739.347656 108.289062 739.019531 107.847656 738.667969 107.417969 C 738.316406 106.992188 737.945312 106.582031 737.554688 106.191406 C 737.164062 105.800781 736.753906 105.429688 736.328125 105.078125 C 735.898438 104.730469 735.457031 104.402344 734.996094 104.09375 C 734.539062 103.785156 734.066406 103.503906 733.578125 103.242188 C 733.089844 102.980469 732.589844 102.746094 732.078125 102.535156 C 731.570312 102.324219 731.046875 102.136719 730.519531 101.976562 C 729.992188 101.816406 729.457031 101.683594 728.914062 101.574219 C 728.371094 101.464844 727.828125 101.386719 727.277344 101.332031 C 726.730469 101.277344 726.179688 101.25 725.625 101.25 L 354.375 101.25 C 353.824219 101.25 353.273438 101.277344 352.722656 101.332031 C 352.171875 101.386719 351.625 101.46875 351.082031 101.574219 C 350.539062 101.683594 350.007812 101.816406 349.476562 101.976562 C 348.945312 102.136719 348.429688 102.324219 347.914062 102.535156 C 347.40625 102.746094 346.90625 102.980469 346.421875 103.242188 C 345.933594 103.503906 345.460938 103.785156 345 104.09375 C 344.539062 104.402344 344.097656 104.730469 343.667969 105.082031 C 343.242188 105.429688 342.835938 105.800781 342.441406 106.191406 C 342.050781 106.582031 341.679688 106.992188 341.332031 107.417969 C 340.980469 107.847656 340.648438 108.289062 340.339844 108.75 C 340.035156 109.210938 339.753906 109.683594 339.492188 110.171875 C 339.230469 110.660156 338.996094 111.15625 338.785156 111.667969 C 338.570312 112.179688 338.386719 112.699219 338.226562 113.226562 C 338.070312 113.757812 337.933594 114.289062 337.824219 114.832031 C 337.714844 115.375 337.632812 115.921875 337.582031 116.472656 C 337.527344 117.019531 337.5 117.574219 337.5 118.125 Z M 337.5 118.125 " fill-opacity="1" fill-rule="nonzero"/><path fill="#009688" d="M 470.8125 675 C 470.070312 670.605469 469.1875 666.234375 468.15625 661.898438 C 467.125 657.558594 465.953125 653.261719 464.640625 649 C 463.324219 644.742188 461.867188 640.527344 460.277344 636.363281 C 458.683594 632.199219 456.953125 628.09375 455.085938 624.042969 C 453.222656 619.992188 451.226562 616.007812 449.097656 612.089844 C 446.972656 608.171875 444.714844 604.332031 442.332031 600.5625 C 439.949219 596.792969 437.445312 593.105469 434.820312 589.503906 C 432.191406 585.902344 429.449219 582.386719 426.59375 578.964844 C 423.734375 575.542969 420.765625 572.222656 417.6875 568.996094 C 414.613281 565.769531 411.429688 562.652344 408.144531 559.636719 C 404.863281 556.621094 401.480469 553.71875 398.003906 550.925781 C 394.527344 548.136719 390.960938 545.460938 387.308594 542.90625 C 383.65625 540.351562 379.921875 537.917969 376.109375 535.609375 C 372.296875 533.300781 368.410156 531.121094 364.449219 529.070312 C 360.492188 527.015625 356.46875 525.097656 352.386719 523.3125 C 348.300781 521.527344 344.160156 519.878906 339.964844 518.367188 C 341.601562 517.21875 343.207031 516.027344 344.785156 514.796875 C 346.363281 513.566406 347.902344 512.296875 349.414062 510.984375 C 350.925781 509.675781 352.402344 508.328125 353.84375 506.945312 C 355.289062 505.558594 356.695312 504.136719 358.0625 502.683594 C 359.4375 501.226562 360.769531 499.734375 362.066406 498.210938 C 363.359375 496.6875 364.609375 495.132812 365.824219 493.542969 C 367.042969 491.957031 368.214844 490.335938 369.347656 488.691406 C 370.484375 487.042969 371.574219 485.367188 372.621094 483.664062 C 373.667969 481.960938 374.671875 480.230469 375.632812 478.476562 C 376.589844 476.722656 377.503906 474.945312 378.371094 473.144531 C 379.242188 471.34375 380.066406 469.519531 380.84375 467.679688 C 381.621094 465.835938 382.347656 463.972656 383.027344 462.09375 C 383.710938 460.214844 384.34375 458.316406 384.929688 456.40625 C 385.511719 454.492188 386.046875 452.566406 386.535156 450.628906 C 387.023438 448.6875 387.464844 446.738281 387.851562 444.777344 C 388.238281 442.816406 388.574219 440.84375 388.863281 438.867188 C 389.148438 436.886719 389.386719 434.902344 389.570312 432.910156 C 389.757812 430.917969 389.894531 428.925781 389.980469 426.925781 C 390.0625 424.929688 390.097656 422.929688 390.082031 420.929688 C 390.0625 418.929688 389.996094 416.933594 389.878906 414.9375 C 389.761719 412.941406 389.589844 410.949219 389.371094 408.960938 C 389.152344 406.972656 388.882812 404.992188 388.558594 403.019531 C 388.238281 401.046875 387.871094 399.082031 387.449219 397.128906 C 387.023438 395.171875 386.554688 393.230469 386.035156 391.296875 C 385.515625 389.367188 384.949219 387.449219 384.332031 385.546875 C 383.710938 383.648438 383.046875 381.761719 382.332031 379.894531 C 381.621094 378.023438 380.859375 376.175781 380.054688 374.347656 C 379.246094 372.515625 378.390625 370.710938 377.492188 368.921875 C 376.59375 367.136719 375.648438 365.375 374.664062 363.636719 C 373.671875 361.902344 372.636719 360.1875 371.558594 358.503906 C 370.484375 356.816406 369.363281 355.160156 368.207031 353.53125 C 367.042969 351.902344 365.84375 350.304688 364.601562 348.738281 L 335 366.375 C 338.390625 370.15625 341.410156 374.214844 344.058594 378.550781 C 346.707031 382.886719 348.941406 387.421875 350.765625 392.164062 C 352.585938 396.90625 353.964844 401.773438 354.898438 406.765625 C 355.835938 411.757812 356.3125 416.796875 356.332031 421.875 C 356.332031 423.253906 356.296875 424.636719 356.230469 426.015625 C 356.160156 427.394531 356.058594 428.773438 355.925781 430.144531 C 355.789062 431.519531 355.621094 432.890625 355.414062 434.253906 C 355.210938 435.621094 354.976562 436.980469 354.707031 438.335938 C 354.4375 439.691406 354.136719 441.035156 353.800781 442.375 C 353.464844 443.714844 353.097656 445.046875 352.699219 446.367188 C 352.296875 447.691406 351.863281 449 351.398438 450.300781 C 350.933594 451.601562 350.4375 452.886719 349.90625 454.164062 C 349.378906 455.4375 348.820312 456.703125 348.226562 457.949219 C 347.636719 459.199219 347.015625 460.429688 346.367188 461.648438 C 345.714844 462.867188 345.035156 464.066406 344.328125 465.253906 C 343.617188 466.4375 342.875 467.601562 342.109375 468.75 C 341.339844 469.898438 340.546875 471.027344 339.726562 472.136719 C 338.902344 473.246094 338.054688 474.335938 337.179688 475.402344 C 336.304688 476.46875 335.402344 477.515625 334.472656 478.539062 C 333.546875 479.5625 332.59375 480.5625 331.617188 481.535156 C 330.640625 482.511719 329.640625 483.464844 328.617188 484.390625 C 327.59375 485.320312 326.550781 486.222656 325.480469 487.097656 C 324.414062 487.972656 323.324219 488.824219 322.214844 489.644531 C 321.105469 490.46875 319.976562 491.261719 318.828125 492.03125 C 317.679688 492.796875 316.515625 493.535156 315.332031 494.246094 C 314.148438 494.953125 312.949219 495.636719 311.730469 496.285156 C 310.511719 496.9375 309.277344 497.558594 308.03125 498.148438 C 306.78125 498.738281 305.515625 499.296875 304.242188 499.828125 C 302.96875 500.355469 301.679688 500.851562 300.378906 501.316406 C 299.082031 501.78125 297.769531 502.214844 296.449219 502.617188 C 295.128906 503.015625 293.796875 503.386719 292.457031 503.722656 C 291.117188 504.058594 289.769531 504.359375 288.414062 504.628906 C 287.0625 504.898438 285.703125 505.132812 284.335938 505.335938 C 282.972656 505.539062 281.601562 505.707031 280.226562 505.84375 C 278.855469 505.980469 277.476562 506.082031 276.097656 506.148438 C 274.71875 506.214844 273.339844 506.25 271.957031 506.25 C 270.574219 506.25 269.195312 506.214844 267.820312 506.148438 C 266.441406 506.082031 265.0625 505.980469 263.6875 505.84375 C 262.3125 505.707031 260.941406 505.539062 259.574219 505.335938 C 258.207031 505.132812 256.847656 504.898438 255.496094 504.628906 C 254.140625 504.359375 252.796875 504.054688 251.453125 503.722656 C 250.117188 503.386719 248.785156 503.015625 247.464844 502.617188 C 246.140625 502.214844 244.832031 501.78125 243.53125 501.316406 C 242.230469 500.851562 240.941406 500.355469 239.664062 499.828125 C 238.390625 499.296875 237.128906 498.738281 235.878906 498.148438 C 234.628906 497.558594 233.398438 496.9375 232.179688 496.285156 C 230.964844 495.636719 229.761719 494.957031 228.578125 494.246094 C 227.390625 493.535156 226.226562 492.796875 225.078125 492.03125 C 223.929688 491.261719 222.804688 490.46875 221.691406 489.644531 C 220.585938 488.824219 219.496094 487.972656 218.425781 487.097656 C 217.359375 486.222656 216.3125 485.320312 215.289062 484.390625 C 214.265625 483.464844 213.265625 482.511719 212.289062 481.535156 C 211.3125 480.5625 210.359375 479.5625 209.433594 478.539062 C 208.503906 477.515625 207.605469 476.46875 206.730469 475.402344 C 205.855469 474.335938 205.003906 473.246094 204.179688 472.136719 C 203.355469 471.027344 202.5625 469.898438 201.796875 468.75 C 201.027344 467.601562 200.292969 466.4375 199.582031 465.253906 C 198.871094 464.066406 198.191406 462.867188 197.542969 461.648438 C 196.890625 460.429688 196.269531 459.199219 195.679688 457.949219 C 195.089844 456.703125 194.527344 455.4375 194 454.164062 C 193.472656 452.886719 192.976562 451.601562 192.511719 450.300781 C 192.046875 449 191.617188 447.691406 191.214844 446.367188 C 190.8125 445.046875 190.441406 443.714844 190.109375 442.375 C 189.773438 441.035156 189.46875 439.691406 189.199219 438.335938 C 188.929688 436.980469 188.695312 435.621094 188.496094 434.253906 C 188.289062 432.890625 188.121094 431.519531 187.988281 430.144531 C 187.851562 428.773438 187.75 427.394531 187.683594 426.015625 C 187.617188 424.636719 187.582031 423.253906 187.582031 421.875 C 187.613281 416.957031 188.078125 412.078125 188.96875 407.238281 C 189.863281 402.402344 191.171875 397.679688 192.898438 393.070312 C 194.628906 388.464844 196.746094 384.046875 199.253906 379.8125 C 201.761719 375.582031 204.621094 371.601562 207.832031 367.875 L 178.300781 350.273438 C 177.097656 351.839844 175.933594 353.433594 174.808594 355.058594 C 173.6875 356.683594 172.605469 358.335938 171.5625 360.015625 C 170.523438 361.695312 169.527344 363.398438 168.574219 365.125 C 167.617188 366.855469 166.707031 368.609375 165.839844 370.382812 C 164.972656 372.15625 164.152344 373.953125 163.378906 375.769531 C 162.601562 377.585938 161.875 379.421875 161.191406 381.273438 C 160.507812 383.125 159.871094 384.996094 159.28125 386.878906 C 158.691406 388.765625 158.152344 390.664062 157.65625 392.574219 C 157.164062 394.488281 156.71875 396.410156 156.320312 398.34375 C 155.921875 400.28125 155.574219 402.222656 155.277344 404.175781 C 154.976562 406.125 154.722656 408.085938 154.523438 410.050781 C 154.324219 412.015625 154.171875 413.984375 154.070312 415.957031 C 153.96875 417.925781 153.917969 419.902344 153.917969 421.875 C 153.914062 423.851562 153.960938 425.824219 154.054688 427.796875 C 154.152344 429.769531 154.300781 431.738281 154.5 433.703125 C 154.695312 435.667969 154.941406 437.628906 155.234375 439.582031 C 155.527344 441.535156 155.875 443.476562 156.265625 445.414062 C 156.660156 447.347656 157.097656 449.273438 157.582031 451.1875 C 158.074219 453.101562 158.609375 455 159.195312 456.886719 C 159.78125 458.773438 160.414062 460.644531 161.089844 462.496094 C 161.769531 464.351562 162.492188 466.1875 163.265625 468.007812 C 164.035156 469.824219 164.851562 471.621094 165.714844 473.398438 C 166.578125 475.175781 167.484375 476.929688 168.433594 478.660156 C 169.382812 480.394531 170.378906 482.097656 171.414062 483.78125 C 172.449219 485.460938 173.527344 487.117188 174.644531 488.742188 C 175.765625 490.371094 176.921875 491.96875 178.121094 493.539062 C 179.324219 495.105469 180.5625 496.644531 181.835938 498.152344 C 183.113281 499.65625 184.429688 501.132812 185.78125 502.570312 C 187.128906 504.011719 188.515625 505.417969 189.9375 506.789062 C 191.359375 508.160156 192.8125 509.492188 194.300781 510.792969 C 195.789062 512.089844 197.3125 513.347656 198.863281 514.570312 C 200.417969 515.789062 202 516.972656 203.613281 518.113281 C 199.085938 519.714844 194.617188 521.476562 190.214844 523.398438 C 185.816406 525.316406 181.488281 527.390625 177.238281 529.617188 C 172.984375 531.847656 168.8125 534.222656 164.726562 536.746094 C 160.640625 539.273438 156.652344 541.9375 152.757812 544.746094 C 148.863281 547.554688 145.074219 550.496094 141.386719 553.574219 C 137.703125 556.652344 134.128906 559.859375 130.675781 563.191406 C 127.214844 566.523438 123.878906 569.972656 120.667969 573.542969 C 117.457031 577.113281 114.375 580.789062 111.425781 584.578125 C 108.472656 588.367188 105.660156 592.257812 102.984375 596.246094 C 100.3125 600.234375 97.78125 604.3125 95.398438 608.480469 C 93.015625 612.648438 90.785156 616.898438 88.699219 621.222656 C 86.621094 625.550781 84.695312 629.945312 82.925781 634.410156 C 81.15625 638.875 79.546875 643.398438 78.101562 647.976562 C 76.65625 652.554688 75.371094 657.179688 74.253906 661.847656 C 73.132812 666.519531 72.183594 671.222656 71.402344 675.960938 C 70.617188 680.699219 70 685.457031 69.558594 690.238281 C 69.503906 690.824219 69.480469 691.410156 69.488281 692 C 69.496094 692.585938 69.535156 693.171875 69.605469 693.757812 C 69.671875 694.339844 69.769531 694.921875 69.898438 695.496094 C 70.027344 696.066406 70.183594 696.632812 70.375 697.191406 C 70.558594 697.75 70.773438 698.296875 71.019531 698.832031 C 71.261719 699.367188 71.535156 699.886719 71.835938 700.394531 C 72.128906 700.902344 72.453125 701.390625 72.800781 701.863281 C 73.152344 702.339844 73.519531 702.792969 73.917969 703.226562 C 74.3125 703.664062 74.726562 704.078125 75.167969 704.46875 C 75.605469 704.859375 76.066406 705.230469 76.542969 705.574219 C 77.015625 705.917969 77.507812 706.238281 78.019531 706.53125 C 78.527344 706.824219 79.050781 707.089844 79.589844 707.328125 C 80.125 707.570312 80.671875 707.777344 81.230469 707.960938 C 81.789062 708.144531 82.359375 708.296875 82.933594 708.421875 C 83.511719 708.542969 84.089844 708.636719 84.671875 708.699219 C 85.257812 708.765625 85.847656 708.796875 86.433594 708.800781 L 455.625 708.800781 C 456.214844 708.800781 456.804688 708.769531 457.390625 708.707031 C 457.976562 708.644531 458.554688 708.554688 459.132812 708.429688 C 459.707031 708.308594 460.277344 708.15625 460.839844 707.972656 C 461.398438 707.789062 461.945312 707.578125 462.488281 707.339844 C 463.023438 707.097656 463.546875 706.832031 464.054688 706.535156 C 464.570312 706.242188 465.0625 705.921875 465.542969 705.574219 C 466.015625 705.226562 466.472656 704.855469 466.910156 704.460938 C 467.351562 704.066406 467.765625 703.652344 468.164062 703.210938 C 468.558594 702.773438 468.929688 702.316406 469.273438 701.839844 C 469.617188 701.363281 469.941406 700.867188 470.234375 700.355469 C 470.527344 699.847656 470.792969 699.320312 471.035156 698.78125 C 471.273438 698.242188 471.488281 697.695312 471.667969 697.132812 C 471.847656 696.570312 472 696.003906 472.121094 695.425781 C 472.246094 694.847656 472.335938 694.265625 472.402344 693.679688 C 472.460938 693.09375 472.492188 692.507812 472.492188 691.917969 C 472.488281 691.328125 472.457031 690.738281 472.398438 690.152344 Z M 253.816406 675 L 105.753906 675 C 106.234375 672.640625 106.765625 670.289062 107.34375 667.949219 C 107.929688 665.613281 108.558594 663.289062 109.238281 660.976562 C 109.917969 658.664062 110.648438 656.367188 111.425781 654.089844 C 112.203125 651.808594 113.027344 649.546875 113.902344 647.300781 C 114.78125 645.054688 115.699219 642.832031 116.671875 640.625 C 117.640625 638.421875 118.660156 636.238281 119.722656 634.074219 C 120.785156 631.914062 121.898438 629.777344 123.050781 627.660156 C 124.207031 625.546875 125.410156 623.457031 126.652344 621.394531 C 127.898438 619.332031 129.1875 617.296875 130.519531 615.289062 C 131.851562 613.28125 133.222656 611.304688 134.640625 609.355469 C 136.058594 607.40625 137.515625 605.488281 139.011719 603.601562 C 140.511719 601.71875 142.050781 599.863281 143.628906 598.042969 C 145.210938 596.222656 146.824219 594.4375 148.480469 592.6875 C 150.132812 590.933594 151.824219 589.21875 153.554688 587.539062 C 155.28125 585.863281 157.046875 584.222656 158.847656 582.617188 C 160.644531 581.015625 162.476562 579.449219 164.339844 577.925781 C 166.207031 576.402344 168.101562 574.917969 170.035156 573.472656 C 171.964844 572.03125 173.921875 570.628906 175.910156 569.269531 C 177.898438 567.910156 179.914062 566.59375 181.960938 565.320312 C 184.003906 564.046875 186.078125 562.820312 188.175781 561.632812 C 190.273438 560.449219 192.394531 559.308594 194.542969 558.214844 C 196.6875 557.125 198.859375 556.074219 201.046875 555.074219 C 203.242188 554.074219 205.453125 553.121094 207.6875 552.214844 C 209.921875 551.308594 212.171875 550.453125 214.441406 549.640625 C 216.710938 548.832031 218.996094 548.074219 221.300781 547.359375 C 223.601562 546.648438 225.917969 545.988281 228.246094 545.375 C 230.578125 544.761719 232.917969 544.203125 235.273438 543.6875 C 237.628906 543.175781 239.992188 542.714844 242.363281 542.304688 C 244.738281 541.894531 247.121094 541.535156 249.511719 541.226562 C 251.898438 540.917969 254.296875 540.660156 256.695312 540.453125 C 259.09375 540.246094 261.5 540.09375 263.90625 539.988281 C 266.316406 539.886719 268.722656 539.835938 271.132812 539.835938 C 273.542969 539.835938 275.949219 539.886719 278.355469 539.988281 C 280.765625 540.09375 283.171875 540.246094 285.570312 540.453125 C 287.972656 540.660156 290.367188 540.917969 292.757812 541.226562 C 295.144531 541.535156 297.523438 541.894531 299.898438 542.304688 C 302.273438 542.714844 304.640625 543.175781 306.996094 543.6875 C 309.347656 544.203125 311.691406 544.761719 314.019531 545.375 C 316.347656 545.988281 318.664062 546.648438 320.96875 547.359375 C 323.269531 548.074219 325.554688 548.832031 327.824219 549.640625 C 330.09375 550.453125 332.347656 551.308594 334.578125 552.214844 C 336.8125 553.121094 339.023438 554.074219 341.214844 555.074219 C 343.40625 556.074219 345.578125 557.121094 347.726562 558.214844 C 349.871094 559.308594 351.992188 560.449219 354.089844 561.632812 C 356.191406 562.816406 358.261719 564.046875 360.308594 565.320312 C 362.351562 566.59375 364.371094 567.910156 366.359375 569.269531 C 368.351562 570.628906 370.308594 572.03125 372.234375 573.472656 C 374.164062 574.917969 376.0625 576.398438 377.925781 577.925781 C 379.792969 579.449219 381.625 581.015625 383.425781 582.617188 C 385.222656 584.21875 386.984375 585.863281 388.710938 587.539062 C 390.441406 589.21875 392.136719 590.933594 393.789062 592.683594 C 395.445312 594.4375 397.0625 596.222656 398.636719 598.042969 C 400.214844 599.863281 401.753906 601.71875 403.253906 603.601562 C 404.75 605.488281 406.210938 607.40625 407.625 609.355469 C 409.042969 611.304688 410.414062 613.28125 411.75 615.289062 C 413.082031 617.296875 414.367188 619.332031 415.609375 621.394531 C 416.855469 623.457031 418.058594 625.546875 419.214844 627.660156 C 420.367188 629.773438 421.476562 631.914062 422.539062 634.074219 C 423.601562 636.238281 424.621094 638.421875 425.589844 640.625 C 426.5625 642.832031 427.484375 645.054688 428.359375 647.300781 C 429.234375 649.546875 430.0625 651.808594 430.839844 654.089844 C 431.617188 656.367188 432.347656 658.664062 433.027344 660.976562 C 433.707031 663.289062 434.335938 665.613281 434.917969 667.949219 C 435.496094 670.289062 436.023438 672.640625 436.503906 675 Z M 253.816406 675 " fill-opacity="1" fill-rule="nonzero"/><path fill="#009688" d="M 270.183594 242.140625 L 372.128906 304.964844 L 270.183594 365.714844 L 168.242188 304.964844 L 270.183594 242.140625 M 126.832031 290.839844 C 126.21875 291.21875 125.632812 291.636719 125.070312 292.089844 C 124.511719 292.546875 123.980469 293.035156 123.480469 293.558594 C 122.984375 294.078125 122.519531 294.632812 122.09375 295.214844 C 121.667969 295.796875 121.277344 296.402344 120.925781 297.035156 C 120.578125 297.667969 120.269531 298.320312 120.003906 298.988281 C 119.738281 299.660156 119.515625 300.347656 119.335938 301.046875 C 119.15625 301.746094 119.023438 302.457031 118.941406 303.171875 C 118.851562 303.890625 118.8125 304.609375 118.816406 305.328125 C 118.824219 306.050781 118.875 306.769531 118.972656 307.488281 C 119.070312 308.203125 119.214844 308.910156 119.402344 309.605469 C 119.589844 310.304688 119.824219 310.984375 120.101562 311.652344 C 120.375 312.320312 120.691406 312.964844 121.050781 313.59375 C 121.410156 314.21875 121.808594 314.820312 122.246094 315.394531 C 122.679688 315.972656 123.152344 316.515625 123.65625 317.03125 C 124.164062 317.546875 124.703125 318.027344 125.269531 318.472656 C 125.839844 318.917969 126.433594 319.328125 127.050781 319.695312 L 261.542969 399.851562 C 262.851562 400.632812 264.238281 401.222656 265.703125 401.628906 C 267.167969 402.03125 268.664062 402.234375 270.183594 402.234375 C 271.707031 402.234375 273.203125 402.03125 274.664062 401.625 C 276.128906 401.222656 277.515625 400.632812 278.824219 399.851562 L 413.316406 319.695312 C 413.9375 319.328125 414.535156 318.917969 415.101562 318.472656 C 415.671875 318.027344 416.207031 317.546875 416.710938 317.03125 C 417.21875 316.515625 417.691406 315.972656 418.125 315.394531 C 418.5625 314.820312 418.957031 314.21875 419.316406 313.59375 C 419.675781 312.964844 419.996094 312.320312 420.273438 311.652344 C 420.546875 310.984375 420.78125 310.304688 420.96875 309.605469 C 421.15625 308.910156 421.300781 308.203125 421.402344 307.488281 C 421.496094 306.769531 421.546875 306.050781 421.550781 305.328125 C 421.558594 304.609375 421.519531 303.890625 421.433594 303.171875 C 421.34375 302.457031 421.210938 301.746094 421.03125 301.046875 C 420.851562 300.347656 420.632812 299.660156 420.371094 298.988281 C 420.101562 298.320312 419.792969 297.667969 419.441406 297.035156 C 419.09375 296.402344 418.707031 295.796875 418.277344 295.214844 C 417.851562 294.632812 417.386719 294.078125 416.886719 293.558594 C 416.390625 293.035156 415.863281 292.546875 415.304688 292.089844 C 414.742188 291.636719 414.152344 291.21875 413.535156 290.839844 L 279.042969 207.949219 C 277.710938 207.128906 276.289062 206.503906 274.785156 206.078125 C 273.28125 205.652344 271.746094 205.4375 270.179688 205.4375 C 268.617188 205.4375 267.082031 205.652344 265.578125 206.078125 C 264.074219 206.503906 262.65625 207.128906 261.324219 207.949219 Z M 126.832031 290.839844 " fill-opacity="1" fill-rule="nonzero"/></svg>