<svg xmlns="http://www.w3.org/2000/svg" xmlns:xlink="http://www.w3.org/1999/xlink" width="1080" zoomAndPan="magnify" viewBox="0 0 810 809.999993" height="1080" preserveAspectRatio="xMidYMid meet" version="1.0"><path fill="#162b4d" d="M 408.238281 259.199219 C 406.621094 259.199219 404.191406 259.199219 402.570312 258.390625 L 188.730469 175.769531 C 182.25 173.339844 178.199219 166.859375 178.199219 160.378906 C 178.199219 153.898438 182.25 147.421875 188.730469 144.988281 L 402.570312 63.179688 C 406.621094 61.558594 410.671875 61.558594 414.71875 63.179688 L 627.75 144.988281 C 634.230469 147.421875 638.28125 153.898438 638.28125 160.378906 C 638.28125 166.859375 634.230469 173.339844 627.75 175.769531 L 413.910156 257.578125 C 412.289062 258.390625 410.671875 259.199219 408.238281 259.199219 Z M 240.570312 160.378906 L 408.238281 225.179688 L 575.910156 160.378906 L 408.238281 95.578125 Z M 240.570312 160.378906 " fill-opacity="1" fill-rule="nonzero"/><path fill="#162b4d" d="M 408.238281 521.640625 C 406.621094 521.640625 404.191406 521.640625 402.570312 520.828125 L 188.730469 438.210938 C 182.25 435.78125 178.199219 429.300781 178.199219 422.820312 L 178.199219 160.378906 C 178.199219 151.46875 185.488281 144.179688 194.398438 144.179688 C 203.308594 144.179688 210.601562 151.46875 210.601562 160.378906 L 210.601562 411.480469 L 407.429688 487.621094 L 604.261719 411.480469 L 604.261719 160.378906 C 604.261719 151.46875 611.550781 144.179688 620.460938 144.179688 C 629.371094 144.179688 636.660156 151.46875 636.660156 160.378906 L 636.660156 422.820312 C 636.660156 429.300781 632.609375 435.78125 626.128906 438.210938 L 413.910156 520.828125 C 412.289062 520.828125 410.671875 521.640625 408.238281 521.640625 Z M 408.238281 521.640625 " fill-opacity="1" fill-rule="nonzero"/><path fill="#162b4d" d="M 408.238281 521.640625 C 399.328125 521.640625 392.039062 514.351562 392.039062 505.441406 L 392.039062 242.191406 C 392.039062 233.28125 399.328125 225.988281 408.238281 225.988281 C 417.148438 225.988281 424.441406 233.28125 424.441406 242.191406 L 424.441406 504.628906 C 424.441406 514.351562 417.148438 521.640625 408.238281 521.640625 Z M 408.238281 521.640625 " fill-opacity="1" fill-rule="nonzero"/><path fill="#009688" d="M 358.828125 751.679688 C 353.96875 751.679688 349.109375 749.25 345.871094 745.199219 C 340.199219 737.910156 341.820312 727.378906 349.109375 722.519531 L 396.898438 686.070312 L 349.109375 649.621094 C 341.820312 643.949219 340.199219 634.230469 345.871094 626.941406 C 351.539062 619.648438 361.261719 618.03125 368.550781 623.699219 L 434.160156 673.109375 C 438.210938 676.351562 440.640625 681.210938 440.640625 686.070312 C 440.640625 690.929688 438.210938 695.789062 434.160156 699.03125 L 368.550781 748.441406 C 366.121094 750.058594 362.878906 751.679688 358.828125 751.679688 Z M 358.828125 751.679688 " fill-opacity="1" fill-rule="nonzero"/><path fill="#009688" d="M 408.238281 702.269531 C 358.828125 702.269531 311.851562 699.839844 268.921875 694.980469 C 208.980469 689.308594 14.578125 663.390625 14.578125 587.25 C 14.578125 556.46875 46.980469 529.738281 110.160156 510.300781 C 120.691406 507.058594 132.03125 515.160156 132.03125 525.691406 C 132.03125 533.789062 126.359375 540.269531 119.070312 541.890625 C 66.421875 558.898438 47.789062 576.71875 47.789062 587.25 C 47.789062 609.121094 117.449219 647.191406 272.96875 662.578125 C 315.089844 667.441406 360.449219 669.058594 409.050781 669.058594 C 417.960938 669.058594 425.25 676.351562 425.25 685.261719 C 424.441406 694.980469 417.148438 702.269531 408.238281 702.269531 Z M 408.238281 702.269531 " fill-opacity="1" fill-rule="nonzero"/><path fill="#009688" d="M 523.261719 697.410156 C 515.160156 697.410156 507.871094 690.929688 507.058594 682.019531 C 506.25 673.109375 512.730469 665.011719 522.449219 664.199219 C 690.929688 650.429688 769.5 609.929688 769.5 587.25 C 769.5 576.71875 750.871094 558.089844 696.601562 541.078125 C 687.691406 538.648438 682.828125 528.929688 686.070312 520.828125 C 688.5 511.921875 698.21875 507.058594 706.320312 510.300781 C 769.5 530.550781 801.898438 556.46875 801.898438 587.25 C 801.898438 668.25 588.871094 691.738281 524.070312 697.410156 C 524.070312 697.410156 523.261719 697.410156 523.261719 697.410156 Z M 523.261719 697.410156 " fill-opacity="1" fill-rule="nonzero"/></svg>