<svg xmlns="http://www.w3.org/2000/svg" xmlns:xlink="http://www.w3.org/1999/xlink" width="1080" zoomAndPan="magnify" viewBox="0 0 810 809.999993" height="1080" preserveAspectRatio="xMidYMid meet" version="1.0"><path fill="#162b4d" d="M 555.660156 77.761719 C 520.828125 53.460938 479.519531 40.5 436.589844 40.5 C 357.210938 40.5 285.121094 84.238281 249.480469 155.519531 C 243.808594 166.859375 233.28125 165.238281 222.75 165.238281 C 159.570312 165.238281 102.871094 205.738281 82.621094 264.871094 C 81 270.539062 76.140625 274.589844 70.46875 276.210938 C 30.78125 289.980469 5.671875 327.238281 7.289062 369.359375 C 9.71875 421.199219 52.648438 460.890625 104.488281 460.890625 L 139.320312 460.890625 L 139.320312 502.199219 L 105.300781 502.199219 C 100.441406 487.621094 86.671875 477.898438 71.28125 477.898438 C 51.03125 477.898438 35.640625 494.101562 35.640625 513.539062 C 35.640625 533.789062 51.839844 549.179688 71.28125 549.179688 C 87.480469 549.179688 100.441406 538.648438 105.300781 524.878906 L 150.660156 524.878906 C 157.140625 524.878906 162 520.019531 162 513.539062 L 162 460.078125 L 266.488281 460.078125 L 266.488281 613.980469 L 197.640625 613.980469 C 192.78125 596.96875 176.578125 584.011719 157.949219 584.011719 C 135.269531 584.011719 116.640625 602.640625 116.640625 625.320312 C 116.640625 648 135.269531 666.628906 157.949219 666.628906 C 176.578125 666.628906 192.78125 653.671875 197.640625 636.660156 L 278.640625 636.660156 C 285.121094 636.660156 289.980469 631.800781 289.980469 625.320312 L 289.980469 460.890625 L 393.660156 460.890625 L 393.660156 675.539062 C 371.789062 680.398438 356.398438 699.839844 356.398438 723.328125 C 356.398438 750.058594 378.269531 772.738281 405.808594 772.738281 C 433.351562 772.738281 455.21875 750.871094 455.21875 723.328125 C 455.21875 700.648438 439.019531 681.210938 417.960938 675.539062 L 417.960938 460.890625 L 443.070312 460.890625 C 449.550781 460.890625 454.410156 456.03125 454.410156 449.550781 C 454.410156 443.070312 449.550781 438.210938 443.070312 438.210938 L 104.488281 438.210938 C 65.609375 438.210938 32.398438 407.429688 30.78125 369.359375 C 29.160156 337.769531 48.601562 309.421875 78.570312 298.890625 C 91.53125 294.839844 100.441406 285.121094 104.488281 272.96875 C 121.5 222.75 169.289062 188.730469 222.75 188.730469 C 230.851562 188.730469 256.769531 191.96875 269.730469 166.050781 C 302.128906 102.871094 366.121094 63.988281 436.589844 63.988281 C 474.660156 63.988281 511.109375 75.328125 542.699219 97.199219 C 547.558594 100.441406 554.851562 99.628906 558.898438 93.960938 C 562.949219 88.289062 561.328125 81 555.660156 77.761719 Z M 71.28125 527.308594 C 63.988281 527.308594 58.320312 521.640625 58.320312 514.351562 C 58.320312 507.058594 63.988281 501.390625 71.28125 501.390625 C 78.570312 501.390625 84.238281 507.058594 84.238281 514.351562 C 84.238281 521.640625 78.570312 527.308594 71.28125 527.308594 Z M 157.140625 644.761719 C 147.421875 644.761719 139.320312 636.660156 139.320312 626.941406 C 139.320312 617.21875 147.421875 609.121094 157.140625 609.121094 C 166.859375 609.121094 174.960938 617.21875 174.960938 626.941406 C 174.960938 636.660156 167.671875 644.761719 157.140625 644.761719 Z M 430.921875 723.328125 C 430.921875 737.910156 419.578125 749.25 405 749.25 C 390.421875 749.25 379.078125 737.910156 379.078125 723.328125 C 379.078125 708.75 390.421875 697.410156 405 697.410156 C 419.578125 697.410156 430.921875 708.75 430.921875 723.328125 Z M 430.921875 723.328125 " fill-opacity="1" fill-rule="nonzero"/><path fill="#162b4d" d="M 641.519531 438.210938 L 495.71875 438.210938 C 489.238281 438.210938 484.378906 443.070312 484.378906 449.550781 C 484.378906 456.03125 489.238281 460.890625 495.71875 460.890625 L 520.828125 460.890625 L 520.828125 626.128906 C 520.828125 632.609375 525.691406 637.46875 532.171875 637.46875 L 613.171875 637.46875 C 618.03125 654.480469 634.230469 667.441406 652.859375 667.441406 C 675.539062 667.441406 694.171875 648.808594 694.171875 626.128906 C 694.171875 603.449219 675.539062 584.820312 652.859375 584.820312 C 634.230469 584.820312 618.03125 597.78125 613.171875 614.789062 L 544.320312 614.789062 L 544.320312 460.890625 L 642.328125 460.890625 C 644.761719 460.890625 647.191406 460.890625 649.621094 460.890625 L 649.621094 514.351562 C 649.621094 520.828125 654.480469 525.691406 660.960938 525.691406 L 706.320312 525.691406 C 711.179688 540.269531 724.949219 549.988281 740.339844 549.988281 C 760.589844 549.988281 775.980469 533.789062 775.980469 514.351562 C 775.980469 494.101562 759.78125 478.710938 740.339844 478.710938 C 724.140625 478.710938 711.179688 489.238281 706.320312 503.011719 L 672.300781 503.011719 L 672.300781 458.460938 C 742.769531 443.878906 797.039062 382.320312 795.421875 307.800781 C 793.800781 223.558594 723.328125 157.140625 639.898438 160.378906 C 632.609375 160.378906 626.128906 157.140625 622.890625 150.660156 C 616.410156 138.511719 608.308594 127.171875 599.398438 116.640625 C 595.351562 111.78125 588.058594 110.96875 583.199219 115.019531 C 578.339844 119.070312 577.53125 126.359375 581.578125 131.21875 C 589.679688 140.941406 596.160156 150.660156 602.640625 162 C 609.929688 174.960938 624.511719 183.871094 639.089844 183.871094 C 639.898438 183.871094 639.898438 183.871094 640.710938 183.871094 C 711.988281 181.441406 771.121094 237.328125 772.738281 308.609375 C 772.738281 379.890625 711.988281 438.210938 641.519531 438.210938 Z M 652.050781 608.308594 C 661.769531 608.308594 669.871094 616.410156 669.871094 626.128906 C 669.871094 635.851562 661.769531 643.949219 652.050781 643.949219 C 642.328125 643.949219 634.230469 635.851562 634.230469 626.128906 C 634.230469 616.410156 642.328125 608.308594 652.050781 608.308594 Z M 739.53125 501.390625 C 746.820312 501.390625 752.488281 507.058594 752.488281 514.351562 C 752.488281 521.640625 746.820312 527.308594 739.53125 527.308594 C 732.238281 527.308594 726.570312 521.640625 726.570312 514.351562 C 726.570312 507.058594 732.238281 501.390625 739.53125 501.390625 Z M 739.53125 501.390625 " fill-opacity="1" fill-rule="nonzero"/><path fill="#009688" d="M 415.53125 218.699219 C 409.859375 213.03125 399.328125 213.03125 393.660156 218.699219 L 335.339844 277.019531 C 329.671875 282.691406 329.671875 293.21875 335.339844 298.890625 C 341.011719 304.558594 351.539062 304.558594 357.210938 298.890625 L 389.609375 266.488281 L 389.609375 672.300781 C 389.609375 681.210938 396.898438 687.691406 405 687.691406 C 413.910156 687.691406 420.390625 680.398438 420.390625 672.300781 L 420.390625 267.300781 L 452.789062 299.699219 C 458.460938 305.371094 468.988281 305.371094 474.660156 299.699219 C 480.328125 294.03125 480.328125 283.5 474.660156 277.828125 Z M 415.53125 218.699219 " fill-opacity="1" fill-rule="nonzero"/></svg>