<svg xmlns="http://www.w3.org/2000/svg" xmlns:xlink="http://www.w3.org/1999/xlink" width="1080" zoomAndPan="magnify" viewBox="0 0 810 809.999993" height="1080" preserveAspectRatio="xMidYMid meet" version="1.0"><path fill="#009688" d="M 191.96875 537.839844 C 163.621094 537.839844 140.128906 561.328125 140.128906 589.679688 C 140.128906 618.03125 163.621094 641.519531 191.96875 641.519531 C 220.320312 641.519531 243.808594 618.03125 243.808594 589.679688 C 243 561.328125 220.320312 537.839844 191.96875 537.839844 Z M 191.96875 615.601562 C 177.390625 615.601562 166.050781 604.261719 166.050781 589.679688 C 166.050781 575.101562 177.390625 563.761719 191.96875 563.761719 C 206.550781 563.761719 217.890625 575.101562 217.890625 589.679688 C 217.890625 603.449219 205.738281 615.601562 191.96875 615.601562 Z M 191.96875 615.601562 " fill-opacity="1" fill-rule="nonzero"/><path fill="#009688" d="M 630.988281 537.839844 C 602.640625 537.839844 579.148438 561.328125 579.148438 589.679688 C 579.148438 618.03125 602.640625 641.519531 630.988281 641.519531 C 659.339844 641.519531 682.828125 618.03125 682.828125 589.679688 C 682.019531 561.328125 659.339844 537.839844 630.988281 537.839844 Z M 630.988281 615.601562 C 616.410156 615.601562 605.070312 604.261719 605.070312 589.679688 C 605.070312 575.101562 616.410156 563.761719 630.988281 563.761719 C 645.570312 563.761719 656.910156 575.101562 656.910156 589.679688 C 656.910156 603.449219 644.761719 615.601562 630.988281 615.601562 Z M 630.988281 615.601562 " fill-opacity="1" fill-rule="nonzero"/><path fill="#162b4d" d="M 268.921875 550.800781 L 553.230469 550.800781 L 553.230469 576.71875 L 268.921875 576.71875 Z M 268.921875 550.800781 " fill-opacity="1" fill-rule="nonzero"/><path fill="#162b4d" d="M 268.921875 602.640625 L 553.230469 602.640625 L 553.230469 628.558594 L 268.921875 628.558594 Z M 268.921875 602.640625 " fill-opacity="1" fill-rule="nonzero"/><path fill="#162b4d" d="M 772.738281 253.53125 L 733.859375 253.53125 L 733.859375 111.78125 C 733.859375 61.558594 693.359375 21.058594 643.140625 21.058594 L 179.011719 21.058594 C 128.789062 21.058594 88.289062 61.558594 88.289062 111.78125 L 88.289062 163.621094 L 398.519531 163.621094 L 398.519531 473.851562 L 295.648438 473.851562 L 346.679688 417.148438 L 346.679688 447.929688 L 372.601562 447.929688 L 372.601562 318.328125 L 346.679688 318.328125 L 346.679688 378.269531 L 260.820312 473.039062 L 114.210938 473.039062 L 114.210938 189.539062 L 88.289062 189.539062 L 88.289062 254.339844 L 49.410156 254.339844 C 34.828125 254.339844 23.488281 265.679688 23.488281 280.261719 L 23.488281 409.050781 C 23.488281 423.628906 34.828125 434.96875 49.410156 434.96875 L 88.289062 434.96875 L 88.289062 654.480469 C 88.289062 670.679688 98.820312 685.261719 114.210938 690.929688 L 114.210938 770.308594 C 114.210938 784.890625 125.550781 796.230469 140.128906 796.230469 L 217.890625 796.230469 C 232.46875 796.230469 243.808594 784.890625 243.808594 770.308594 L 243.808594 692.550781 L 682.828125 692.550781 L 682.828125 770.308594 L 605.070312 770.308594 L 605.070312 718.46875 L 579.148438 718.46875 L 579.148438 770.308594 C 579.148438 784.890625 590.488281 796.230469 605.070312 796.230469 L 682.828125 796.230469 C 697.410156 796.230469 708.75 784.890625 708.75 770.308594 L 708.75 690.929688 C 724.140625 685.261719 734.671875 670.679688 734.671875 654.480469 L 734.671875 434.96875 L 773.550781 434.96875 C 788.128906 434.96875 799.46875 423.628906 799.46875 409.050781 L 799.46875 279.449219 C 798.660156 265.679688 787.320312 253.53125 772.738281 253.53125 Z M 114.210938 111.78125 C 114.210938 76.140625 143.371094 46.980469 179.011719 46.980469 L 643.949219 46.980469 C 679.589844 46.980469 708.75 76.140625 708.75 111.78125 L 708.75 137.699219 L 114.210938 137.699219 Z M 424.441406 163.621094 L 708.75 163.621094 L 708.75 473.851562 L 561.328125 473.851562 L 475.46875 378.269531 L 475.46875 318.328125 L 449.550781 318.328125 L 449.550781 447.121094 L 475.46875 447.121094 L 475.46875 416.339844 L 526.5 473.039062 L 424.441406 473.039062 Z M 49.410156 409.050781 L 49.410156 279.449219 L 88.289062 279.449219 L 88.289062 408.238281 L 49.410156 408.238281 Z M 217.890625 770.308594 L 140.128906 770.308594 L 140.128906 692.550781 L 217.890625 692.550781 Z M 694.980469 667.441406 L 127.171875 667.441406 C 119.878906 667.441406 114.210938 661.769531 114.210938 654.480469 L 114.210938 498.960938 L 237.328125 498.960938 L 233.28125 503.011719 L 252.71875 520.019531 L 272.160156 498.148438 L 549.988281 498.148438 L 569.429688 520.019531 L 588.871094 503.011719 L 584.820312 498.960938 L 707.941406 498.960938 L 707.941406 653.671875 C 707.941406 660.960938 702.269531 667.441406 694.980469 667.441406 Z M 772.738281 409.050781 L 733.859375 409.050781 L 733.859375 279.449219 L 772.738281 279.449219 Z M 772.738281 409.050781 " fill-opacity="1" fill-rule="nonzero"/><path fill="#162b4d" d="M 398.519531 72.898438 L 424.441406 72.898438 L 424.441406 98.820312 L 398.519531 98.820312 Z M 398.519531 72.898438 " fill-opacity="1" fill-rule="nonzero"/><path fill="#162b4d" d="M 449.550781 72.898438 L 475.46875 72.898438 L 475.46875 98.820312 L 449.550781 98.820312 Z M 449.550781 72.898438 " fill-opacity="1" fill-rule="nonzero"/><path fill="#162b4d" d="M 346.679688 72.898438 L 372.601562 72.898438 L 372.601562 98.820312 L 346.679688 98.820312 Z M 346.679688 72.898438 " fill-opacity="1" fill-rule="nonzero"/><path fill="#162b4d" d="M 166.050781 72.898438 L 191.96875 72.898438 L 191.96875 98.820312 L 166.050781 98.820312 Z M 166.050781 72.898438 " fill-opacity="1" fill-rule="nonzero"/><path fill="#162b4d" d="M 630.988281 72.898438 L 656.910156 72.898438 L 656.910156 98.820312 L 630.988281 98.820312 Z M 630.988281 72.898438 " fill-opacity="1" fill-rule="nonzero"/></svg>