<svg xmlns="http://www.w3.org/2000/svg" xmlns:xlink="http://www.w3.org/1999/xlink" width="1080" zoomAndPan="magnify" viewBox="0 0 810 809.999993" height="1080" preserveAspectRatio="xMidYMid meet" version="1.0"><path fill="#162b4d" d="M 123.929688 111.78125 C 115.828125 111.78125 108.539062 118.261719 108.539062 126.359375 C 108.539062 134.460938 115.019531 140.941406 123.121094 140.941406 C 131.21875 140.941406 137.699219 134.460938 137.699219 126.359375 C 137.699219 118.261719 132.839844 111.78125 123.929688 111.78125 Z M 123.929688 111.78125 " fill-opacity="1" fill-rule="nonzero"/><path fill="#162b4d" d="M 198.449219 111.78125 C 190.351562 111.78125 183.058594 118.261719 183.058594 126.359375 C 183.058594 134.460938 189.539062 140.941406 197.640625 140.941406 C 205.738281 140.941406 212.21875 134.460938 212.21875 126.359375 C 212.21875 118.261719 206.550781 111.78125 198.449219 111.78125 Z M 198.449219 111.78125 " fill-opacity="1" fill-rule="nonzero"/><path fill="#162b4d" d="M 272.160156 111.78125 C 264.058594 111.78125 256.769531 118.261719 256.769531 126.359375 C 256.769531 134.460938 263.25 140.941406 271.351562 140.941406 C 279.449219 140.941406 285.929688 134.460938 285.929688 126.359375 C 285.929688 118.261719 280.261719 111.78125 272.160156 111.78125 Z M 272.160156 111.78125 " fill-opacity="1" fill-rule="nonzero"/><path fill="#162b4d" d="M 687.691406 111.78125 L 399.328125 111.78125 C 391.230469 111.78125 384.75 118.261719 384.75 126.359375 C 384.75 134.460938 391.230469 140.941406 399.328125 140.941406 L 687.691406 140.941406 C 695.789062 140.941406 702.269531 134.460938 702.269531 126.359375 C 703.078125 118.261719 695.789062 111.78125 687.691406 111.78125 Z M 687.691406 111.78125 " fill-opacity="1" fill-rule="nonzero"/><path fill="#162b4d" d="M 416.339844 715.230469 C 412.289062 715.230469 408.238281 716.851562 405.808594 719.28125 C 403.378906 721.710938 401.761719 725.761719 401.761719 729.808594 C 401.761719 733.859375 403.378906 737.910156 405.808594 740.339844 C 408.238281 742.769531 412.289062 744.390625 416.339844 744.390625 C 420.390625 744.390625 424.441406 742.769531 426.871094 740.339844 C 429.300781 737.910156 430.921875 733.859375 430.921875 729.808594 C 430.921875 725.761719 429.300781 721.710938 426.871094 719.28125 C 424.441406 716.851562 420.390625 715.230469 416.339844 715.230469 Z M 416.339844 715.230469 " fill-opacity="1" fill-rule="nonzero"/><path fill="#162b4d" d="M 741.148438 39.691406 L 71.28125 39.691406 C 45.359375 39.691406 23.488281 60.75 23.488281 87.480469 L 23.488281 698.21875 C 23.488281 724.140625 44.550781 746.011719 71.28125 746.011719 L 353.96875 746.011719 C 362.070312 746.011719 368.550781 739.53125 368.550781 731.429688 C 368.550781 723.328125 362.070312 716.851562 353.96875 716.851562 L 71.28125 716.851562 C 61.558594 716.851562 53.460938 708.75 53.460938 699.03125 L 53.460938 213.03125 L 758.96875 213.03125 L 758.96875 698.21875 C 758.96875 707.941406 750.871094 716.039062 741.148438 716.039062 L 477.898438 716.039062 C 469.800781 716.039062 463.320312 722.519531 463.320312 730.621094 C 463.320312 738.71875 469.800781 745.199219 477.898438 745.199219 L 741.960938 745.199219 C 767.878906 745.199219 789.75 724.140625 789.75 697.410156 L 789.75 87.480469 C 788.941406 61.558594 767.878906 39.691406 741.148438 39.691406 Z M 53.460938 183.058594 L 53.460938 87.480469 C 53.460938 77.761719 61.558594 69.660156 71.28125 69.660156 L 741.148438 69.660156 C 750.871094 69.660156 758.96875 77.761719 758.96875 87.480469 L 758.96875 183.058594 Z M 53.460938 183.058594 " fill-opacity="1" fill-rule="nonzero"/><path fill="#009688" d="M 289.980469 383.941406 C 289.980469 353.96875 265.679688 330.480469 236.519531 330.480469 L 186.300781 330.480469 C 178.199219 330.480469 171.71875 336.960938 171.71875 345.058594 L 171.71875 500.578125 C 171.71875 508.679688 178.199219 515.160156 186.300781 515.160156 L 236.519531 515.160156 C 266.488281 515.160156 289.980469 490.859375 289.980469 461.699219 C 289.980469 446.308594 283.5 432.539062 272.96875 422.820312 C 283.5 413.101562 289.980469 399.328125 289.980469 383.941406 Z M 260.011719 461.699219 C 260.011719 474.660156 249.480469 486 235.710938 486 L 200.070312 486 L 200.070312 437.398438 L 235.710938 437.398438 C 249.480469 437.398438 260.011719 447.929688 260.011719 461.699219 Z M 200.878906 407.429688 L 200.878906 359.640625 L 236.519531 359.640625 C 249.480469 359.640625 260.820312 370.171875 260.820312 383.941406 C 260.820312 397.710938 250.289062 408.238281 236.519531 408.238281 L 200.878906 408.238281 Z M 200.878906 407.429688 " fill-opacity="1" fill-rule="nonzero"/><path fill="#009688" d="M 332.910156 329.671875 C 324.808594 329.671875 318.328125 336.148438 318.328125 344.25 L 318.328125 464.941406 C 318.328125 492.480469 340.199219 514.351562 367.738281 514.351562 C 375.839844 514.351562 382.320312 507.871094 382.320312 499.769531 C 382.320312 491.671875 375.839844 485.191406 367.738281 485.191406 C 357.210938 485.191406 348.300781 476.28125 348.300781 465.75 L 348.300781 345.058594 C 347.488281 336.960938 341.011719 329.671875 332.910156 329.671875 Z M 332.910156 329.671875 " fill-opacity="1" fill-rule="nonzero"/><path fill="#009688" d="M 509.488281 460.890625 C 509.488281 430.921875 485.191406 406.621094 455.21875 406.621094 C 425.25 406.621094 400.949219 430.921875 400.949219 460.890625 C 400.949219 490.859375 425.25 515.160156 455.21875 515.160156 C 485.191406 515.160156 509.488281 490.859375 509.488281 460.890625 Z M 430.921875 460.890625 C 430.921875 447.929688 441.449219 436.589844 455.21875 436.589844 C 468.988281 436.589844 479.519531 447.121094 479.519531 460.890625 C 479.519531 473.851562 468.988281 485.191406 455.21875 485.191406 C 441.449219 485.191406 430.921875 474.660156 430.921875 460.890625 Z M 430.921875 460.890625 " fill-opacity="1" fill-rule="nonzero"/><path fill="#009688" d="M 588.058594 557.28125 C 575.101562 557.28125 563.761719 546.75 563.761719 532.980469 C 563.761719 524.878906 557.28125 518.398438 549.179688 518.398438 C 541.078125 518.398438 534.601562 524.878906 534.601562 532.980469 C 534.601562 562.949219 558.898438 587.25 588.871094 587.25 C 618.839844 587.25 643.140625 562.949219 643.140625 532.980469 L 643.140625 460.890625 C 643.140625 430.921875 618.839844 406.621094 588.871094 406.621094 C 558.898438 406.621094 534.601562 430.921875 534.601562 460.890625 C 534.601562 490.859375 558.898438 515.160156 588.871094 515.160156 C 597.78125 515.160156 605.878906 512.730469 613.167969 509.488281 L 613.167969 532.980469 C 612.359375 545.941406 601.019531 557.28125 588.058594 557.28125 Z M 588.058594 485.191406 C 575.101562 485.191406 563.761719 474.660156 563.761719 460.890625 C 563.761719 447.929688 574.289062 436.589844 588.058594 436.589844 C 601.019531 436.589844 612.359375 447.121094 612.359375 460.890625 C 612.359375 474.660156 601.019531 485.191406 588.058594 485.191406 Z M 588.058594 485.191406 " fill-opacity="1" fill-rule="nonzero"/><path fill="#162b4d" d="M 185.488281 661.769531 L 626.941406 661.769531 C 635.039062 661.769531 641.519531 655.289062 641.519531 647.191406 C 641.519531 639.089844 635.039062 632.609375 626.941406 632.609375 L 185.488281 632.609375 C 177.390625 632.609375 170.910156 639.089844 170.910156 647.191406 C 170.910156 655.289062 177.390625 661.769531 185.488281 661.769531 Z M 185.488281 661.769531 " fill-opacity="1" fill-rule="nonzero"/></svg>