<svg xmlns="http://www.w3.org/2000/svg" xmlns:xlink="http://www.w3.org/1999/xlink" width="1080" zoomAndPan="magnify" viewBox="0 0 810 809.999993" height="1080" preserveAspectRatio="xMidYMid meet" version="1.0"><path fill="#162b4d" d="M 705.511719 476.28125 L 701.460938 478.710938 C 685.261719 458.460938 657.71875 451.171875 635.851562 461.699219 L 626.128906 467.371094 C 603.449219 447.121094 570.238281 443.878906 544.320312 459.269531 L 493.289062 487.621094 L 425.25 487.621094 C 410.671875 487.621094 396.089844 484.378906 382.320312 477.898438 L 372.601562 473.039062 C 318.328125 446.308594 254.339844 452.789062 206.550781 489.238281 C 206.550781 489.238281 205.738281 489.238281 205.738281 490.050781 L 182.25 510.300781 C 173.339844 518.398438 162.808594 524.070312 152.28125 527.308594 L 139.320312 483.570312 C 138.511719 479.519531 134.460938 477.089844 130.410156 477.089844 L 20.25 477.089844 C 15.390625 477.089844 10.53125 481.140625 10.53125 486.808594 C 10.53125 486.808594 10.53125 487.621094 10.53125 487.621094 L 46.980469 790.558594 C 47.789062 795.421875 51.839844 798.660156 56.699219 798.660156 L 220.320312 798.660156 C 225.179688 798.660156 230.039062 794.609375 230.039062 788.941406 C 230.039062 788.128906 230.039062 787.320312 230.039062 786.511719 L 208.171875 714.421875 L 275.398438 670.679688 C 284.308594 665.820312 294.839844 664.199219 305.371094 666.628906 C 305.371094 666.628906 305.371094 666.628906 306.179688 666.628906 L 442.261719 691.738281 C 479.519531 698.21875 517.589844 693.359375 550.800781 676.351562 C 551.609375 676.351562 551.609375 675.539062 551.609375 675.539062 L 787.320312 511.109375 C 791.371094 507.871094 792.988281 503.011719 789.75 498.148438 C 773.550781 469.800781 735.480469 459.269531 705.511719 476.28125 Z M 643.949219 478.710938 C 656.101562 472.230469 673.109375 477.089844 683.640625 488.429688 L 592.921875 537.839844 L 587.25 541.078125 C 584.011719 532.171875 579.960938 524.070312 574.289062 516.78125 Z M 552.421875 476.28125 C 552.421875 476.28125 552.421875 475.46875 552.421875 476.28125 C 569.429688 466.558594 590.488281 466.558594 606.691406 477.089844 L 559.710938 503.011719 C 550.800781 495.71875 539.460938 491.671875 528.121094 489.238281 Z M 65.609375 780.839844 L 31.589844 496.53125 L 123.121094 496.53125 L 208.171875 780.839844 Z M 541.890625 660.960938 C 511.921875 675.539062 478.710938 680.398438 445.5 674.730469 L 309.421875 649.621094 C 294.839844 645.570312 278.640625 648 265.679688 655.289062 C 265.679688 655.289062 265.679688 655.289062 264.871094 655.289062 L 201.691406 695.789062 L 156.328125 545.941406 C 170.101562 541.890625 183.058594 534.601562 193.589844 524.878906 L 216.269531 504.628906 C 258.390625 472.230469 315.089844 466.558594 362.070312 490.050781 L 371.789062 494.910156 C 387.988281 503.011719 405 507.058594 422.820312 507.058594 L 513.539062 507.058594 C 541.890625 507.058594 566.191406 528.121094 570.238281 555.660156 L 503.820312 552.417969 C 480.328125 551.609375 456.03125 552.417969 432.539062 555.660156 C 427.679688 556.46875 423.628906 561.328125 424.441406 566.191406 C 425.25 571.050781 430.109375 575.101562 434.96875 574.289062 C 457.648438 571.050781 480.328125 570.238281 503.011719 571.050781 L 579.960938 574.289062 C 579.960938 574.289062 579.960938 574.289062 580.769531 574.289062 C 585.628906 574.289062 590.488281 570.238281 590.488281 564.570312 C 590.488281 562.949219 590.488281 560.519531 590.488281 558.898438 L 601.828125 553.230469 L 713.609375 491.671875 C 732.238281 481.949219 754.921875 486 768.691406 501.390625 Z M 541.890625 660.960938 " fill-opacity="1" fill-rule="nonzero"/><path fill="#162b4d" d="M 98.820312 737.101562 C 98.820312 754.109375 113.398438 768.691406 130.410156 767.878906 C 147.421875 767.070312 162 753.300781 162 736.289062 C 162 719.28125 148.230469 705.511719 130.410156 705.511719 C 112.589844 705.511719 98.820312 719.28125 98.820312 737.101562 Z M 130.410156 724.140625 C 137.699219 724.140625 143.371094 729.808594 143.371094 736.289062 C 143.371094 743.578125 137.699219 749.25 131.21875 749.25 C 123.929688 749.25 118.261719 743.578125 118.261719 737.101562 C 118.261719 729.808594 123.121094 724.140625 130.410156 724.140625 Z M 130.410156 724.140625 " fill-opacity="1" fill-rule="nonzero"/><path fill="#009688" d="M 447.121094 74.519531 C 351.539062 74.519531 273.78125 152.28125 273.78125 247.050781 C 273.78125 341.820312 351.539062 419.578125 447.121094 419.578125 C 542.699219 419.578125 620.460938 341.820312 620.460938 247.050781 C 620.460938 152.28125 542.699219 74.519531 447.121094 74.519531 Z M 447.121094 400.949219 C 362.070312 400.949219 293.21875 332.101562 293.21875 247.050781 C 293.21875 162 362.070312 93.148438 447.121094 93.148438 C 532.171875 93.148438 601.019531 162 601.019531 247.050781 C 601.019531 332.101562 532.171875 400.949219 447.121094 400.949219 Z M 447.121094 400.949219 " fill-opacity="1" fill-rule="nonzero"/><path fill="#009688" d="M 451.980469 176.578125 C 476.28125 177.390625 482.761719 197.640625 482.761719 200.070312 C 484.378906 204.929688 489.238281 208.171875 494.101562 207.359375 C 498.960938 205.738281 502.199219 200.878906 501.390625 196.019531 C 495.71875 176.578125 479.519531 161.191406 459.269531 158.761719 L 459.269531 146.609375 C 459.269531 141.75 455.21875 136.890625 449.550781 136.890625 C 443.878906 136.890625 439.828125 140.941406 439.828125 146.609375 L 439.828125 158.761719 C 430.921875 160.378906 423.628906 163.621094 417.148438 170.101562 C 403.378906 183.058594 402.570312 201.691406 403.378906 207.359375 C 403.378906 227.609375 418.769531 245.429688 440.640625 249.480469 L 442.261719 249.480469 C 443.878906 249.480469 445.5 250.289062 447.121094 250.289062 C 447.929688 250.289062 449.550781 251.101562 450.359375 251.101562 C 450.359375 251.101562 451.171875 251.101562 451.171875 251.101562 L 454.410156 251.910156 C 454.410156 251.910156 455.21875 251.910156 455.21875 251.910156 C 456.839844 252.71875 456.839844 252.71875 457.648438 253.53125 C 458.460938 253.53125 458.460938 254.339844 459.269531 254.339844 C 462.511719 255.960938 477.898438 266.488281 478.710938 281.070312 C 478.710938 289.980469 477.089844 297.269531 471.421875 302.128906 C 463.320312 310.230469 451.171875 311.851562 444.691406 311.039062 C 438.210938 310.230469 431.730469 307.800781 426.871094 304.558594 C 422.011719 301.320312 416.339844 295.648438 415.53125 287.550781 C 414.71875 282.691406 410.671875 278.640625 405 278.640625 C 400.140625 279.449219 396.089844 283.5 396.089844 289.171875 C 398.519531 311.851562 420.390625 326.429688 438.210938 328.859375 L 438.210938 339.390625 C 438.210938 344.25 442.261719 349.109375 447.929688 349.109375 C 452.789062 349.109375 457.648438 345.058594 457.648438 339.390625 L 457.648438 328.859375 C 468.179688 327.238281 477.089844 322.378906 484.378906 315.089844 C 493.289062 306.179688 497.339844 294.03125 497.339844 279.449219 C 496.53125 255.960938 475.46875 241.378906 468.988281 237.328125 C 468.988281 237.328125 468.179688 236.519531 468.179688 236.519531 L 466.558594 235.710938 C 464.941406 234.898438 464.941406 234.898438 462.511719 233.28125 C 461.699219 232.46875 460.890625 232.46875 460.078125 232.46875 L 457.648438 231.660156 C 456.839844 231.660156 456.03125 230.851562 455.21875 230.851562 C 453.601562 230.039062 451.171875 230.039062 450.359375 229.230469 C 449.550781 229.230469 447.121094 228.421875 445.5 228.421875 L 443.878906 228.421875 C 428.488281 225.179688 422.011719 213.839844 422.011719 204.121094 C 422.011719 196.828125 424.441406 187.109375 430.109375 181.441406 C 435.78125 178.199219 443.070312 176.578125 451.980469 176.578125 Z M 451.980469 176.578125 " fill-opacity="1" fill-rule="nonzero"/></svg>