<svg xmlns="http://www.w3.org/2000/svg" xmlns:xlink="http://www.w3.org/1999/xlink" width="1080" zoomAndPan="magnify" viewBox="0 0 810 809.999993" height="1080" preserveAspectRatio="xMidYMid meet" version="1.0"><path fill="#162b4d" d="M 707.941406 736.289062 L 648.808594 736.289062 C 635.039062 736.289062 624.511719 725.761719 624.511719 711.988281 C 624.511719 698.21875 635.039062 687.691406 648.808594 687.691406 L 707.941406 687.691406 C 730.621094 687.691406 748.441406 669.871094 748.441406 647.191406 L 748.441406 110.96875 C 748.441406 88.289062 730.621094 70.46875 707.941406 70.46875 L 106.921875 70.46875 C 84.238281 70.46875 66.421875 88.289062 66.421875 110.96875 L 66.421875 647.191406 C 66.421875 669.871094 84.238281 687.691406 106.921875 687.691406 L 166.050781 687.691406 C 179.820312 687.691406 190.351562 698.21875 190.351562 711.988281 C 190.351562 725.761719 179.820312 736.289062 166.050781 736.289062 L 106.921875 736.289062 C 57.511719 736.289062 17.820312 696.601562 17.820312 647.191406 L 17.820312 110.96875 C 17.820312 61.558594 57.511719 21.871094 106.921875 21.871094 L 707.941406 21.871094 C 757.351562 21.871094 797.039062 61.558594 797.039062 110.96875 L 797.039062 647.191406 C 797.039062 696.601562 757.351562 736.289062 707.941406 736.289062 Z M 707.941406 736.289062 " fill-opacity="1" fill-rule="nonzero"/><path fill="#162b4d" d="M 772.738281 184.679688 L 42.121094 184.679688 C 28.351562 184.679688 17.820312 174.148438 17.820312 160.378906 C 17.820312 146.609375 28.351562 136.078125 42.121094 136.078125 L 772.738281 136.078125 C 786.511719 136.078125 797.039062 146.609375 797.039062 160.378906 C 797.039062 174.148438 786.511719 184.679688 772.738281 184.679688 Z M 772.738281 184.679688 " fill-opacity="1" fill-rule="nonzero"/><path fill="#009688" d="M 407.429688 801.089844 C 404.191406 801.089844 400.949219 800.28125 397.710938 799.46875 C 390.421875 796.230469 212.21875 718.46875 212.21875 559.710938 L 212.21875 429.300781 C 212.21875 418.769531 218.699219 409.859375 228.421875 406.621094 L 399.328125 348.300781 C 404.191406 346.679688 409.859375 346.679688 414.71875 348.300781 L 585.628906 406.621094 C 595.351562 409.859375 601.828125 419.578125 601.828125 429.300781 L 601.828125 559.710938 C 601.828125 719.28125 423.628906 796.230469 416.339844 799.46875 C 413.910156 801.089844 410.671875 801.089844 407.429688 801.089844 Z M 260.820312 446.308594 L 260.820312 559.710938 C 260.820312 668.25 373.410156 733.050781 406.621094 750.058594 C 440.640625 733.050781 553.230469 667.441406 553.230469 559.710938 L 553.230469 446.308594 L 407.429688 396.898438 Z M 260.820312 446.308594 " fill-opacity="1" fill-rule="nonzero"/><path fill="#009688" d="M 399.328125 655.289062 C 392.851562 655.289062 386.371094 652.859375 382.320312 648 L 317.519531 583.199219 C 307.800781 573.480469 307.800781 558.089844 317.519531 548.371094 C 327.238281 538.648438 342.628906 538.648438 352.351562 548.371094 L 397.710938 593.730469 L 477.089844 486 C 485.191406 475.46875 500.578125 473.039062 511.109375 481.140625 C 521.640625 489.238281 524.070312 504.628906 515.96875 515.160156 L 418.769531 644.761719 C 414.71875 650.429688 408.238281 653.671875 400.949219 654.480469 C 400.140625 655.289062 400.140625 655.289062 399.328125 655.289062 Z M 399.328125 655.289062 " fill-opacity="1" fill-rule="nonzero"/></svg>