<svg xmlns="http://www.w3.org/2000/svg" xmlns:xlink="http://www.w3.org/1999/xlink" width="1080" zoomAndPan="magnify" viewBox="0 0 810 809.999993" height="1080" preserveAspectRatio="xMidYMid meet" version="1.0"><path fill="#162b4d" d="M 632.609375 275.398438 L 228.421875 275.398438 L 420.390625 83.429688 C 422.820312 81 424.441406 77.761719 424.441406 74.519531 C 424.441406 71.28125 422.820312 68.039062 420.390625 65.609375 L 383.941406 29.160156 C 369.359375 14.578125 343.441406 14.578125 328.859375 29.160156 L 298.890625 59.128906 L 317.519531 77.761719 L 347.488281 47.789062 C 352.351562 42.929688 361.261719 42.929688 366.121094 47.789062 L 393.660156 75.328125 L 80.191406 387.179688 L 52.648438 359.640625 C 50.21875 356.398438 48.601562 353.160156 48.601562 349.921875 C 48.601562 346.679688 50.21875 343.441406 52.648438 341.011719 L 291.601562 102.058594 L 272.96875 83.429688 L 255.148438 101.25 L 236.519531 82.621094 C 221.128906 67.230469 196.828125 67.230469 181.441406 82.621094 L 89.101562 174.960938 C 73.710938 190.351562 73.710938 214.648438 89.101562 230.039062 L 107.730469 248.671875 L 34.019531 322.378906 C 26.730469 329.671875 22.679688 339.390625 22.679688 349.921875 C 22.679688 360.449219 26.730469 370.171875 34.019531 377.460938 L 70.46875 413.910156 C 72.898438 416.339844 76.140625 417.960938 79.378906 417.960938 C 82.621094 417.960938 85.859375 416.339844 88.289062 413.910156 L 157.949219 344.25 L 213.03125 761.398438 C 215.460938 780.839844 232.46875 795.421875 251.910156 795.421875 L 545.128906 795.421875 C 564.570312 795.421875 581.578125 780.839844 584.011719 761.398438 L 629.371094 419.578125 L 603.449219 416.339844 L 558.089844 758.160156 C 557.28125 764.640625 551.609375 769.5 545.128906 769.5 L 251.910156 769.5 C 245.429688 769.5 239.761719 764.640625 238.949219 758.160156 L 181.441406 321.570312 L 202.5 300.511719 L 618.03125 300.511719 L 609.929688 363.691406 L 635.851562 366.929688 L 646.378906 289.171875 C 647.191406 285.121094 645.570312 281.878906 643.140625 278.640625 C 639.898438 277.019531 636.660156 275.398438 632.609375 275.398438 Z M 107.730469 212.21875 C 102.871094 207.359375 102.871094 199.261719 107.730469 193.589844 L 200.070312 101.25 C 204.929688 96.390625 213.03125 96.390625 218.699219 101.25 L 237.328125 119.878906 L 126.359375 230.039062 Z M 107.730469 212.21875 " fill-opacity="1" fill-rule="nonzero"/><path fill="#162b4d" d="M 359.640625 392.039062 L 359.640625 678.78125 C 359.640625 700.648438 377.460938 717.660156 398.519531 717.660156 C 420.390625 717.660156 437.398438 699.839844 437.398438 678.78125 L 437.398438 392.039062 C 437.398438 370.171875 419.578125 353.160156 398.519531 353.160156 C 376.648438 353.160156 359.640625 370.980469 359.640625 392.039062 Z M 411.480469 392.039062 L 411.480469 678.78125 C 411.480469 686.070312 405.808594 691.738281 398.519531 691.738281 C 391.230469 691.738281 385.558594 686.070312 385.558594 678.78125 L 385.558594 392.039062 C 385.558594 384.75 391.230469 379.078125 398.519531 379.078125 C 405.808594 379.078125 411.480469 384.75 411.480469 392.039062 Z M 411.480469 392.039062 " fill-opacity="1" fill-rule="nonzero"/><path fill="#162b4d" d="M 255.148438 392.039062 L 255.148438 678.78125 C 255.148438 700.648438 272.96875 717.660156 294.03125 717.660156 C 315.089844 717.660156 332.910156 699.839844 332.910156 678.78125 L 332.910156 392.039062 C 332.910156 370.171875 315.089844 353.160156 294.03125 353.160156 C 272.96875 353.160156 255.148438 370.980469 255.148438 392.039062 Z M 306.988281 392.039062 L 306.988281 678.78125 C 306.988281 686.070312 301.320312 691.738281 294.03125 691.738281 C 286.738281 691.738281 281.070312 686.070312 281.070312 678.78125 L 281.070312 392.039062 C 281.070312 384.75 286.738281 379.078125 294.03125 379.078125 C 301.320312 379.078125 306.988281 384.75 306.988281 392.039062 Z M 306.988281 392.039062 " fill-opacity="1" fill-rule="nonzero"/><path fill="#162b4d" d="M 463.320312 392.039062 L 463.320312 678.78125 C 463.320312 700.648438 481.140625 717.660156 502.199219 717.660156 C 524.070312 717.660156 541.078125 699.839844 541.078125 678.78125 L 541.078125 392.039062 C 541.078125 370.171875 523.261719 353.160156 502.199219 353.160156 C 481.140625 353.160156 463.320312 370.980469 463.320312 392.039062 Z M 515.96875 392.039062 L 515.96875 678.78125 C 515.96875 686.070312 510.300781 691.738281 503.011719 691.738281 C 495.71875 691.738281 490.050781 686.070312 490.050781 678.78125 L 490.050781 392.039062 C 490.050781 384.75 495.71875 379.078125 503.011719 379.078125 C 509.488281 379.078125 515.96875 384.75 515.96875 392.039062 Z M 515.96875 392.039062 " fill-opacity="1" fill-rule="nonzero"/><path fill="#009688" d="M 466.558594 157.949219 L 414.71875 144.988281 C 409.859375 143.371094 404.191406 145.800781 400.949219 149.851562 L 362.070312 201.691406 C 359.640625 204.929688 358.828125 208.980469 359.640625 212.21875 C 360.449219 216.269531 362.878906 219.511719 366.121094 221.128906 L 417.960938 247.050781 C 419.578125 247.859375 422.011719 248.671875 423.628906 248.671875 L 488.429688 248.671875 C 492.480469 248.671875 496.53125 246.238281 498.960938 243 C 501.390625 239.761719 502.199219 234.898438 500.578125 230.851562 L 474.660156 166.050781 C 473.851562 162 470.609375 159.570312 466.558594 157.949219 Z M 427.679688 222.75 L 392.039062 204.929688 L 416.339844 172.53125 L 453.601562 181.441406 L 469.800781 222.75 Z M 427.679688 222.75 " fill-opacity="1" fill-rule="nonzero"/><path fill="#009688" d="M 630.988281 137.699219 L 618.839844 112.589844 C 616.410156 107.730469 610.738281 104.488281 604.261719 105.300781 L 539.460938 118.261719 C 532.980469 119.070312 528.929688 124.738281 528.929688 131.21875 L 528.929688 157.140625 C 528.929688 157.949219 528.929688 159.570312 528.929688 160.378906 L 541.890625 212.21875 C 543.511719 217.890625 548.371094 221.941406 554.851562 221.941406 C 555.660156 221.941406 555.660156 221.941406 556.46875 221.941406 L 660.960938 208.980469 C 665.820312 208.171875 669.871094 205.738281 671.488281 200.878906 C 673.109375 196.828125 672.300781 191.96875 669.871094 187.921875 Z M 564.570312 195.210938 L 554.851562 155.519531 L 554.851562 141.75 L 599.398438 132.839844 L 608.308594 149.851562 C 608.308594 150.660156 609.121094 151.46875 609.929688 151.46875 L 635.851562 185.488281 Z M 564.570312 195.210938 " fill-opacity="1" fill-rule="nonzero"/></svg>