<svg xmlns="http://www.w3.org/2000/svg" xmlns:xlink="http://www.w3.org/1999/xlink" width="1080" zoomAndPan="magnify" viewBox="0 0 810 809.999993" height="1080" preserveAspectRatio="xMidYMid meet" version="1.0"><path fill="#162b4d" d="M 661.769531 141.75 L 661.769531 16.199219 L 234.898438 16.199219 L 136.890625 114.210938 L 136.890625 141.75 L 33.210938 141.75 L 33.210938 233.28125 L 55.890625 233.28125 L 55.890625 165.238281 L 136.890625 165.238281 L 136.890625 521.640625 L 159.570312 521.640625 L 159.570312 130.410156 L 251.101562 130.410156 L 251.101562 38.878906 L 639.089844 38.878906 L 639.089844 543.511719 L 55.890625 543.511719 L 55.890625 255.960938 L 33.210938 255.960938 L 33.210938 658.53125 L 342.628906 658.53125 L 342.628906 690.121094 L 324 726.570312 L 239.761719 726.570312 C 221.128906 726.570312 205.738281 741.960938 205.738281 760.589844 L 205.738281 794.609375 L 593.730469 794.609375 L 593.730469 760.589844 C 593.730469 741.960938 578.339844 726.570312 559.710938 726.570312 L 475.46875 726.570312 L 456.839844 689.308594 L 456.839844 657.71875 L 652.050781 657.71875 L 652.050781 635.039062 L 55.890625 635.039062 L 55.890625 567 L 743.578125 567 L 743.578125 635.039062 L 675.539062 635.039062 L 675.539062 657.71875 L 767.070312 657.71875 L 767.070312 141.75 Z M 176.578125 107.730469 L 229.230469 55.078125 L 229.230469 107.730469 Z M 571.050781 760.589844 L 571.050781 771.929688 L 228.421875 771.929688 L 228.421875 760.589844 C 228.421875 754.109375 233.28125 749.25 239.761719 749.25 L 558.898438 749.25 C 565.378906 749.25 571.050781 754.109375 571.050781 760.589844 Z M 449.550781 726.570312 L 349.921875 726.570312 L 365.308594 694.980469 L 365.308594 657.71875 L 433.351562 657.71875 L 433.351562 694.980469 Z M 661.769531 544.320312 L 661.769531 164.429688 L 742.769531 164.429688 L 742.769531 543.511719 L 661.769531 543.511719 Z M 661.769531 544.320312 " fill-opacity="1" fill-rule="nonzero"/><path fill="#162b4d" d="M 387.988281 589.679688 L 410.671875 589.679688 L 410.671875 612.359375 L 387.988281 612.359375 Z M 387.988281 589.679688 " fill-opacity="1" fill-rule="nonzero"/><path fill="#009688" d="M 300.511719 166.859375 L 284.308594 150.660156 L 243.808594 191.160156 L 219.511719 166.859375 L 203.308594 183.058594 L 243.808594 223.558594 Z M 300.511719 166.859375 " fill-opacity="1" fill-rule="nonzero"/><path fill="#009688" d="M 244.621094 360.449219 L 301.320312 303.75 L 285.121094 287.550781 L 244.621094 328.050781 L 220.320312 303.75 L 204.121094 319.949219 Z M 244.621094 360.449219 " fill-opacity="1" fill-rule="nonzero"/><path fill="#162b4d" d="M 334.53125 298.890625 L 564.570312 298.890625 L 564.570312 321.570312 L 334.53125 321.570312 Z M 334.53125 298.890625 " fill-opacity="1" fill-rule="nonzero"/><path fill="#162b4d" d="M 334.53125 344.25 L 515.96875 344.25 L 515.96875 366.929688 L 334.53125 366.929688 Z M 334.53125 344.25 " fill-opacity="1" fill-rule="nonzero"/><path fill="#162b4d" d="M 334.53125 435.78125 L 564.570312 435.78125 L 564.570312 458.460938 L 334.53125 458.460938 Z M 334.53125 435.78125 " fill-opacity="1" fill-rule="nonzero"/><path fill="#162b4d" d="M 334.53125 481.140625 L 515.96875 481.140625 L 515.96875 503.820312 L 334.53125 503.820312 Z M 334.53125 481.140625 " fill-opacity="1" fill-rule="nonzero"/><path fill="#162b4d" d="M 334.53125 207.359375 L 515.96875 207.359375 L 515.96875 230.039062 L 334.53125 230.039062 Z M 334.53125 207.359375 " fill-opacity="1" fill-rule="nonzero"/><path fill="#009688" d="M 244.621094 497.339844 L 301.320312 440.640625 L 285.121094 424.441406 L 244.621094 464.941406 L 220.320312 440.640625 L 204.121094 456.839844 Z M 244.621094 497.339844 " fill-opacity="1" fill-rule="nonzero"/><path fill="#162b4d" d="M 334.53125 162 L 564.570312 162 L 564.570312 184.679688 L 334.53125 184.679688 Z M 334.53125 162 " fill-opacity="1" fill-rule="nonzero"/><path fill="#162b4d" d="M 360.449219 85.050781 L 474.660156 85.050781 L 474.660156 107.730469 L 360.449219 107.730469 Z M 360.449219 85.050781 " fill-opacity="1" fill-rule="nonzero"/><path fill="#162b4d" d="M 697.410156 187.109375 L 720.898438 187.109375 L 720.898438 209.789062 L 698.21875 209.789062 L 698.21875 187.109375 Z M 697.410156 187.109375 " fill-opacity="1" fill-rule="nonzero"/><path fill="#162b4d" d="M 697.410156 233.28125 L 720.898438 233.28125 L 720.898438 301.320312 L 698.21875 301.320312 L 698.21875 233.28125 Z M 697.410156 233.28125 " fill-opacity="1" fill-rule="nonzero"/></svg>