<svg xmlns="http://www.w3.org/2000/svg" xmlns:xlink="http://www.w3.org/1999/xlink" width="1080" zoomAndPan="magnify" viewBox="0 0 810 809.999993" height="1080" preserveAspectRatio="xMidYMid meet" version="1.0"><path fill="#009688" d="M 669.058594 591.300781 C 660.960938 591.300781 653.671875 597.78125 653.671875 606.691406 L 653.671875 756.539062 C 653.671875 764.640625 647.191406 771.929688 638.28125 771.929688 L 114.210938 771.929688 C 106.109375 771.929688 98.820312 765.449219 98.820312 756.539062 L 98.820312 480.328125 C 98.820312 472.230469 92.339844 464.941406 83.429688 464.941406 C 74.519531 464.941406 68.039062 471.421875 68.039062 480.328125 L 68.039062 756.539062 C 68.039062 781.648438 88.289062 802.710938 114.210938 802.710938 L 639.089844 802.710938 C 664.199219 802.710938 685.261719 782.460938 685.261719 756.539062 L 685.261719 606.691406 C 684.449219 598.589844 677.96875 591.300781 669.058594 591.300781 Z M 669.058594 591.300781 " fill-opacity="1" fill-rule="nonzero"/><path fill="#162b4d" d="M 729 306.179688 C 716.039062 293.21875 700.648438 283.5 684.449219 277.019531 L 684.449219 185.488281 C 684.449219 181.441406 682.828125 177.390625 680.398438 174.960938 L 530.550781 25.109375 C 527.308594 21.871094 524.070312 21.058594 520.019531 21.058594 L 114.210938 21.058594 C 89.101562 21.058594 68.039062 41.308594 68.039062 67.230469 L 68.039062 351.539062 C 68.039062 359.640625 74.519531 366.929688 83.429688 366.929688 C 92.339844 366.929688 98.820312 360.449219 98.820312 351.539062 L 98.820312 66.421875 C 98.820312 58.320312 105.300781 51.03125 114.210938 51.03125 L 504.628906 51.03125 L 504.628906 154.710938 C 504.628906 179.820312 524.878906 200.878906 550.800781 200.878906 L 654.480469 200.878906 L 654.480469 269.730469 C 616.410156 264.871094 576.71875 277.019531 547.558594 306.179688 L 329.671875 524.070312 C 324 529.738281 324 539.460938 329.671875 545.941406 C 335.339844 551.609375 345.058594 551.609375 351.539062 545.941406 L 568.621094 328.859375 C 606.691406 290.789062 669.871094 290.789062 707.941406 328.859375 C 746.011719 366.929688 746.011719 430.109375 707.941406 468.179688 L 503.820312 670.679688 C 479.519531 694.980469 440.640625 694.980469 417.148438 670.679688 C 405.808594 659.339844 399.328125 643.949219 399.328125 626.941406 C 399.328125 610.738281 405.808594 595.351562 417.148438 583.199219 L 622.078125 378.269531 C 626.941406 373.410156 632.609375 370.980469 639.089844 370.980469 C 645.570312 370.980469 651.238281 373.410156 656.101562 378.269531 C 660.960938 383.128906 663.390625 388.800781 663.390625 395.28125 C 663.390625 401.761719 660.960938 407.429688 656.101562 412.289062 L 470.609375 597.78125 C 464.941406 603.449219 464.941406 613.171875 470.609375 619.648438 C 476.28125 625.320312 486 625.320312 492.480469 619.648438 L 677.160156 434.96875 C 687.691406 424.441406 693.359375 410.671875 693.359375 396.089844 C 693.359375 381.511719 687.691406 367.738281 677.160156 357.210938 C 666.628906 346.679688 652.859375 341.011719 638.28125 341.011719 C 623.699219 341.011719 609.929688 346.679688 599.398438 357.210938 L 395.28125 562.949219 C 359.640625 598.589844 359.640625 656.910156 395.28125 692.550781 C 413.101562 710.371094 436.589844 719.28125 460.078125 719.28125 C 483.570312 719.28125 507.058594 710.371094 524.878906 692.550781 L 729 488.429688 C 779.21875 438.210938 779.21875 356.398438 729 306.179688 Z M 549.988281 170.101562 C 541.890625 170.101562 534.601562 163.621094 534.601562 154.710938 L 534.601562 72.898438 L 631.800781 170.101562 Z M 549.988281 170.101562 " fill-opacity="1" fill-rule="nonzero"/><path fill="#162b4d" d="M 93.960938 405.808594 C 90.71875 402.570312 87.480469 400.949219 83.429688 400.949219 C 79.378906 400.949219 75.328125 402.570312 72.898438 405.808594 C 69.660156 409.050781 68.851562 412.289062 68.851562 416.339844 C 68.851562 420.390625 70.46875 424.441406 72.898438 426.871094 C 76.140625 430.109375 79.378906 431.730469 83.429688 431.730469 C 87.480469 431.730469 91.53125 430.109375 93.960938 426.871094 C 97.199219 423.628906 98.820312 420.390625 98.820312 416.339844 C 98.820312 412.289062 97.199219 408.238281 93.960938 405.808594 Z M 93.960938 405.808594 " fill-opacity="1" fill-rule="nonzero"/><path fill="#162b4d" d="M 306.179688 576.71875 L 306.179688 575.910156 C 303.75 567.808594 294.839844 563.761719 286.738281 566.191406 C 278.640625 568.621094 274.589844 577.53125 277.019531 585.628906 L 277.019531 586.441406 C 279.449219 592.921875 285.121094 596.96875 291.601562 596.96875 C 293.21875 596.96875 294.839844 596.96875 296.460938 596.160156 C 304.558594 592.921875 308.609375 584.820312 306.179688 576.71875 Z M 306.179688 576.71875 " fill-opacity="1" fill-rule="nonzero"/></svg>