<svg xmlns="http://www.w3.org/2000/svg" xmlns:xlink="http://www.w3.org/1999/xlink" width="1080" zoomAndPan="magnify" viewBox="0 0 810 809.999993" height="1080" preserveAspectRatio="xMidYMid meet" version="1.0"><path fill="#162b4d" d="M 746.011719 68.039062 L 75.328125 68.039062 C 42.929688 68.039062 16.199219 94.769531 16.199219 127.171875 L 16.199219 670.679688 C 16.199219 703.078125 42.929688 729.808594 75.328125 729.808594 L 746.011719 729.808594 C 778.410156 729.808594 805.140625 703.078125 805.140625 670.679688 L 805.140625 127.171875 C 805.140625 94.769531 778.410156 68.039062 746.011719 68.039062 Z M 781.648438 670.679688 C 781.648438 690.121094 765.449219 706.320312 746.011719 706.320312 L 75.328125 706.320312 C 55.890625 706.320312 39.691406 690.121094 39.691406 670.679688 L 39.691406 219.511719 L 782.460938 219.511719 L 782.460938 670.679688 Z M 781.648438 196.019531 L 39.691406 196.019531 L 39.691406 127.171875 C 39.691406 107.730469 55.890625 91.53125 75.328125 91.53125 L 746.011719 91.53125 C 765.449219 91.53125 781.648438 107.730469 781.648438 127.171875 Z M 781.648438 196.019531 " fill-opacity="1" fill-rule="nonzero"/><path fill="#162b4d" d="M 109.351562 102.058594 C 86.671875 102.058594 68.039062 120.691406 68.039062 143.371094 C 68.039062 166.050781 86.671875 184.679688 109.351562 184.679688 C 132.03125 184.679688 150.660156 166.050781 150.660156 143.371094 C 150.660156 120.691406 132.03125 102.058594 109.351562 102.058594 Z M 109.351562 162 C 99.628906 162 91.53125 153.898438 91.53125 144.179688 C 91.53125 134.460938 99.628906 126.359375 109.351562 126.359375 C 119.070312 126.359375 127.171875 134.460938 127.171875 144.179688 C 127.171875 153.898438 119.070312 162 109.351562 162 Z M 109.351562 162 " fill-opacity="1" fill-rule="nonzero"/><path fill="#162b4d" d="M 294.839844 102.058594 C 272.160156 102.058594 253.53125 120.691406 253.53125 143.371094 C 253.53125 166.050781 272.160156 184.679688 294.839844 184.679688 C 317.519531 184.679688 336.148438 166.050781 336.148438 143.371094 C 336.148438 120.691406 317.519531 102.058594 294.839844 102.058594 Z M 294.839844 162 C 285.121094 162 277.019531 153.898438 277.019531 144.179688 C 277.019531 134.460938 285.121094 126.359375 294.839844 126.359375 C 304.558594 126.359375 312.660156 134.460938 312.660156 144.179688 C 312.660156 153.898438 304.558594 162 294.839844 162 Z M 294.839844 162 " fill-opacity="1" fill-rule="nonzero"/><path fill="#162b4d" d="M 201.691406 102.058594 C 179.011719 102.058594 160.378906 120.691406 160.378906 143.371094 C 160.378906 166.050781 179.011719 184.679688 201.691406 184.679688 C 224.371094 184.679688 243 166.050781 243 143.371094 C 243 120.691406 225.179688 102.058594 201.691406 102.058594 Z M 201.691406 162 C 191.96875 162 183.871094 153.898438 183.871094 144.179688 C 183.871094 134.460938 191.96875 126.359375 201.691406 126.359375 C 211.410156 126.359375 219.511719 134.460938 219.511719 144.179688 C 220.320312 153.898438 212.21875 162 201.691406 162 Z M 201.691406 162 " fill-opacity="1" fill-rule="nonzero"/><path fill="#009688" d="M 263.25 247.859375 L 79.378906 247.859375 C 72.898438 247.859375 68.039062 252.71875 68.039062 259.199219 L 68.039062 443.070312 C 68.039062 449.550781 72.898438 454.410156 79.378906 454.410156 L 263.25 454.410156 C 269.730469 454.410156 274.589844 449.550781 274.589844 443.070312 L 274.589844 259.199219 C 275.398438 252.71875 269.730469 247.859375 263.25 247.859375 Z M 251.910156 431.730469 L 91.53125 431.730469 L 91.53125 271.351562 L 251.910156 271.351562 Z M 251.910156 431.730469 " fill-opacity="1" fill-rule="nonzero"/><path fill="#009688" d="M 503.011719 247.859375 L 318.328125 247.859375 C 311.851562 247.859375 306.988281 252.71875 306.988281 259.199219 L 306.988281 443.070312 C 306.988281 449.550781 311.851562 454.410156 318.328125 454.410156 L 502.199219 454.410156 C 508.679688 454.410156 513.539062 449.550781 513.539062 443.070312 L 513.539062 259.199219 C 514.351562 252.71875 509.488281 247.859375 503.011719 247.859375 Z M 490.859375 431.730469 L 330.480469 431.730469 L 330.480469 271.351562 L 490.859375 271.351562 Z M 490.859375 431.730469 " fill-opacity="1" fill-rule="nonzero"/><path fill="#162b4d" d="M 741.960938 247.859375 L 558.089844 247.859375 C 551.609375 247.859375 546.75 252.71875 546.75 259.199219 L 546.75 302.941406 C 546.75 309.421875 551.609375 314.28125 558.089844 314.28125 C 564.570312 314.28125 569.429688 309.421875 569.429688 302.941406 L 569.429688 270.539062 L 729.808594 270.539062 L 729.808594 430.921875 L 569.429688 430.921875 L 569.429688 341.820312 C 569.429688 335.339844 564.570312 330.480469 558.089844 330.480469 C 551.609375 330.480469 546.75 335.339844 546.75 341.820312 L 546.75 443.070312 C 546.75 449.550781 551.609375 454.410156 558.089844 454.410156 L 741.960938 454.410156 C 748.441406 454.410156 753.300781 449.550781 753.300781 443.070312 L 753.300781 259.199219 C 753.300781 252.71875 748.441406 247.859375 741.960938 247.859375 Z M 741.960938 247.859375 " fill-opacity="1" fill-rule="nonzero"/><path fill="#162b4d" d="M 263.25 475.46875 L 79.378906 475.46875 C 72.898438 475.46875 68.039062 480.328125 68.039062 486.808594 L 68.039062 670.679688 C 68.039062 677.160156 72.898438 682.019531 79.378906 682.019531 L 140.941406 682.019531 C 147.421875 682.019531 152.28125 677.160156 152.28125 670.679688 C 152.28125 664.199219 147.421875 659.339844 140.941406 659.339844 L 90.71875 659.339844 L 90.71875 498.960938 L 251.101562 498.960938 L 251.101562 659.339844 L 179.820312 659.339844 C 173.339844 659.339844 168.480469 664.199219 168.480469 670.679688 C 168.480469 677.160156 173.339844 682.019531 179.820312 682.019531 L 263.25 682.019531 C 269.730469 682.019531 274.589844 677.160156 274.589844 670.679688 L 274.589844 486.808594 C 275.398438 480.328125 269.730469 475.46875 263.25 475.46875 Z M 263.25 475.46875 " fill-opacity="1" fill-rule="nonzero"/><path fill="#162b4d" d="M 503.011719 475.46875 L 318.328125 475.46875 C 311.851562 475.46875 306.988281 480.328125 306.988281 486.808594 L 306.988281 670.679688 C 306.988281 677.160156 311.851562 682.019531 318.328125 682.019531 L 502.199219 682.019531 C 508.679688 682.019531 513.539062 677.160156 513.539062 670.679688 L 513.539062 486.808594 C 514.351562 480.328125 509.488281 475.46875 503.011719 475.46875 Z M 490.859375 659.339844 L 330.480469 659.339844 L 330.480469 498.960938 L 490.859375 498.960938 Z M 490.859375 659.339844 " fill-opacity="1" fill-rule="nonzero"/><path fill="#162b4d" d="M 741.960938 475.46875 L 558.089844 475.46875 C 551.609375 475.46875 546.75 480.328125 546.75 486.808594 L 546.75 670.679688 C 546.75 677.160156 551.609375 682.019531 558.089844 682.019531 L 741.960938 682.019531 C 748.441406 682.019531 753.300781 677.160156 753.300781 670.679688 L 753.300781 486.808594 C 753.300781 480.328125 748.441406 475.46875 741.960938 475.46875 Z M 729.808594 659.339844 L 569.429688 659.339844 L 569.429688 498.960938 L 729.808594 498.960938 Z M 729.808594 659.339844 " fill-opacity="1" fill-rule="nonzero"/></svg>