<svg xmlns="http://www.w3.org/2000/svg" xmlns:xlink="http://www.w3.org/1999/xlink" width="1080" zoomAndPan="magnify" viewBox="0 0 810 809.999993" height="1080" preserveAspectRatio="xMidYMid meet" version="1.0"><path fill="#162b4d" d="M 738.558594 190.996094 L 725.761719 190.996094 L 725.761719 11.988281 L 86.265625 11.988281 L 86.265625 190.996094 L 73.46875 190.996094 C 72.421875 191 71.375 191.027344 70.328125 191.078125 C 69.285156 191.132812 68.242188 191.210938 67.199219 191.3125 C 66.160156 191.417969 65.121094 191.546875 64.085938 191.703125 C 63.050781 191.855469 62.019531 192.035156 60.996094 192.242188 C 59.96875 192.445312 58.949219 192.675781 57.933594 192.933594 C 56.917969 193.1875 55.910156 193.46875 54.910156 193.773438 C 53.910156 194.078125 52.914062 194.40625 51.929688 194.761719 C 50.945312 195.113281 49.96875 195.492188 49.003906 195.890625 C 48.039062 196.292969 47.082031 196.71875 46.136719 197.167969 C 45.191406 197.613281 44.257812 198.085938 43.335938 198.578125 C 42.410156 199.074219 41.503906 199.589844 40.605469 200.128906 C 39.707031 200.667969 38.824219 201.226562 37.953125 201.808594 C 37.085938 202.390625 36.230469 202.996094 35.390625 203.621094 C 34.550781 204.242188 33.726562 204.886719 32.917969 205.550781 C 32.109375 206.214844 31.316406 206.898438 30.542969 207.601562 C 29.769531 208.308594 29.011719 209.027344 28.273438 209.769531 C 27.53125 210.507812 26.8125 211.265625 26.109375 212.042969 C 25.40625 212.820312 24.722656 213.609375 24.0625 214.421875 C 23.398438 215.230469 22.753906 216.054688 22.132812 216.894531 C 21.507812 217.738281 20.90625 218.59375 20.324219 219.460938 C 19.746094 220.332031 19.183594 221.214844 18.648438 222.113281 C 18.109375 223.011719 17.59375 223.921875 17.101562 224.84375 C 16.609375 225.769531 16.140625 226.703125 15.691406 227.648438 C 15.246094 228.59375 14.820312 229.550781 14.421875 230.519531 C 14.019531 231.484375 13.644531 232.460938 13.292969 233.445312 C 12.941406 234.433594 12.613281 235.425781 12.308594 236.425781 C 12.003906 237.429688 11.726562 238.4375 11.472656 239.453125 C 11.21875 240.46875 10.988281 241.488281 10.785156 242.515625 C 10.582031 243.539062 10.402344 244.570312 10.25 245.605469 C 10.097656 246.640625 9.96875 247.679688 9.867188 248.722656 C 9.761719 249.761719 9.6875 250.804688 9.636719 251.851562 C 9.582031 252.894531 9.558594 253.941406 9.558594 254.988281 L 9.558594 664.199219 C 9.558594 665.246094 9.582031 666.292969 9.636719 667.335938 C 9.6875 668.382812 9.761719 669.425781 9.867188 670.46875 C 9.96875 671.507812 10.097656 672.546875 10.25 673.582031 C 10.402344 674.617188 10.582031 675.648438 10.785156 676.675781 C 10.988281 677.699219 11.21875 678.722656 11.472656 679.734375 C 11.726562 680.75 12.003906 681.757812 12.308594 682.761719 C 12.613281 683.761719 12.941406 684.753906 13.292969 685.742188 C 13.644531 686.726562 14.019531 687.703125 14.421875 688.667969 C 14.820312 689.636719 15.246094 690.59375 15.691406 691.539062 C 16.140625 692.484375 16.609375 693.417969 17.101562 694.34375 C 17.59375 695.265625 18.109375 696.175781 18.648438 697.074219 C 19.183594 697.972656 19.746094 698.855469 20.324219 699.726562 C 20.90625 700.597656 21.507812 701.453125 22.132812 702.292969 C 22.753906 703.132812 23.398438 703.957031 24.0625 704.765625 C 24.722656 705.578125 25.40625 706.371094 26.109375 707.144531 C 26.8125 707.921875 27.53125 708.679688 28.273438 709.417969 C 29.011719 710.160156 29.769531 710.882812 30.542969 711.585938 C 31.316406 712.289062 32.109375 712.972656 32.917969 713.636719 C 33.726562 714.300781 34.550781 714.945312 35.390625 715.570312 C 36.230469 716.191406 37.085938 716.796875 37.953125 717.378906 C 38.824219 717.960938 39.707031 718.519531 40.605469 719.058594 C 41.503906 719.597656 42.410156 720.113281 43.335938 720.609375 C 44.257812 721.101562 45.191406 721.574219 46.136719 722.019531 C 47.082031 722.46875 48.039062 722.894531 49.003906 723.296875 C 49.96875 723.695312 50.945312 724.074219 51.929688 724.429688 C 52.914062 724.78125 53.910156 725.109375 54.910156 725.414062 C 55.910156 725.71875 56.917969 726 57.933594 726.253906 C 58.949219 726.511719 59.96875 726.742188 60.996094 726.945312 C 62.019531 727.152344 63.050781 727.332031 64.085938 727.488281 C 65.121094 727.640625 66.160156 727.769531 67.199219 727.875 C 68.242188 727.976562 69.285156 728.054688 70.328125 728.109375 C 71.375 728.160156 72.421875 728.1875 73.46875 728.191406 L 239.761719 728.191406 L 239.761719 779.300781 L 188.566406 779.300781 L 188.566406 804.898438 L 623.699219 804.898438 L 623.699219 779.300781 L 572.265625 779.300781 L 572.265625 728.191406 L 738.558594 728.191406 C 739.605469 728.1875 740.648438 728.160156 741.695312 728.109375 C 742.742188 728.054688 743.785156 727.976562 744.824219 727.875 C 745.867188 727.769531 746.902344 727.640625 747.9375 727.488281 C 748.972656 727.332031 750.003906 727.152344 751.03125 726.945312 C 752.054688 726.742188 753.078125 726.511719 754.089844 726.253906 C 755.105469 726 756.113281 725.71875 757.117188 725.414062 C 758.117188 725.109375 759.109375 724.78125 760.09375 724.429688 C 761.078125 724.074219 762.054688 723.695312 763.019531 723.296875 C 763.988281 722.894531 764.941406 722.46875 765.890625 722.019531 C 766.835938 721.574219 767.769531 721.101562 768.691406 720.609375 C 769.613281 720.113281 770.523438 719.597656 771.417969 719.058594 C 772.316406 718.519531 773.199219 717.960938 774.070312 717.378906 C 774.941406 716.796875 775.792969 716.191406 776.632812 715.570312 C 777.472656 714.945312 778.296875 714.300781 779.105469 713.636719 C 779.914062 712.972656 780.707031 712.289062 781.480469 711.585938 C 782.257812 710.882812 783.015625 710.160156 783.753906 709.417969 C 784.492188 708.679688 785.214844 707.921875 785.914062 707.144531 C 786.617188 706.371094 787.300781 705.578125 787.964844 704.765625 C 788.628906 703.957031 789.269531 703.132812 789.894531 702.292969 C 790.515625 701.453125 791.117188 700.597656 791.699219 699.726562 C 792.28125 698.855469 792.839844 697.972656 793.378906 697.074219 C 793.914062 696.175781 794.429688 695.265625 794.921875 694.34375 C 795.414062 693.417969 795.886719 692.484375 796.332031 691.539062 C 796.78125 690.59375 797.203125 689.636719 797.605469 688.667969 C 798.003906 687.703125 798.378906 686.726562 798.730469 685.742188 C 799.085938 684.753906 799.414062 683.761719 799.714844 682.761719 C 800.019531 681.757812 800.296875 680.75 800.550781 679.734375 C 800.804688 678.722656 801.035156 677.699219 801.238281 676.675781 C 801.441406 675.648438 801.621094 674.617188 801.773438 673.582031 C 801.929688 672.546875 802.058594 671.507812 802.160156 670.46875 C 802.261719 669.425781 802.339844 668.382812 802.390625 667.335938 C 802.441406 666.292969 802.46875 665.246094 802.46875 664.199219 L 802.46875 254.988281 C 802.46875 253.941406 802.441406 252.894531 802.390625 251.851562 C 802.339844 250.804688 802.261719 249.761719 802.160156 248.722656 C 802.058594 247.679688 801.929688 246.640625 801.777344 245.605469 C 801.621094 244.570312 801.441406 243.539062 801.238281 242.515625 C 801.035156 241.488281 800.804688 240.46875 800.550781 239.453125 C 800.296875 238.4375 800.019531 237.429688 799.714844 236.425781 C 799.414062 235.425781 799.085938 234.433594 798.730469 233.445312 C 798.378906 232.460938 798.003906 231.484375 797.605469 230.519531 C 797.203125 229.550781 796.78125 228.59375 796.332031 227.648438 C 795.886719 226.703125 795.414062 225.769531 794.921875 224.84375 C 794.429688 223.921875 793.914062 223.011719 793.378906 222.113281 C 792.839844 221.214844 792.28125 220.332031 791.699219 219.460938 C 791.117188 218.59375 790.515625 217.738281 789.894531 216.894531 C 789.269531 216.054688 788.628906 215.230469 787.964844 214.421875 C 787.300781 213.609375 786.617188 212.820312 785.914062 212.042969 C 785.214844 211.265625 784.492188 210.507812 783.753906 209.769531 C 783.015625 209.027344 782.257812 208.304688 781.480469 207.601562 C 780.707031 206.898438 779.914062 206.214844 779.105469 205.550781 C 778.296875 204.886719 777.472656 204.242188 776.632812 203.621094 C 775.792969 202.996094 774.941406 202.390625 774.070312 201.808594 C 773.199219 201.226562 772.316406 200.667969 771.421875 200.128906 C 770.523438 199.589844 769.613281 199.074219 768.691406 198.578125 C 767.769531 198.085938 766.835938 197.613281 765.890625 197.167969 C 764.941406 196.71875 763.988281 196.292969 763.019531 195.890625 C 762.054688 195.492188 761.078125 195.113281 760.09375 194.761719 C 759.109375 194.40625 758.117188 194.078125 757.117188 193.773438 C 756.113281 193.46875 755.105469 193.1875 754.089844 192.933594 C 753.078125 192.675781 752.054688 192.445312 751.03125 192.242188 C 750.003906 192.035156 748.972656 191.855469 747.9375 191.703125 C 746.902344 191.546875 745.867188 191.417969 744.824219 191.3125 C 743.785156 191.210938 742.742188 191.132812 741.695312 191.078125 C 740.648438 191.027344 739.605469 191 738.558594 190.996094 Z M 111.859375 139.886719 L 700.164062 139.886719 L 700.164062 549.097656 L 111.859375 549.097656 Z M 700.164062 37.503906 L 700.164062 114.289062 L 111.859375 114.289062 L 111.859375 37.503906 Z M 73.46875 216.59375 L 86.265625 216.59375 L 86.265625 575.101562 L 725.761719 575.101562 L 725.761719 216.59375 L 738.558594 216.59375 C 739.8125 216.597656 741.066406 216.660156 742.316406 216.785156 C 743.566406 216.910156 744.804688 217.097656 746.035156 217.34375 C 747.269531 217.59375 748.484375 217.898438 749.683594 218.265625 C 750.886719 218.632812 752.066406 219.058594 753.226562 219.539062 C 754.386719 220.023438 755.519531 220.558594 756.625 221.152344 C 757.730469 221.746094 758.804688 222.394531 759.851562 223.09375 C 760.894531 223.792969 761.898438 224.539062 762.867188 225.335938 C 763.839844 226.136719 764.765625 226.980469 765.652344 227.867188 C 766.542969 228.757812 767.382812 229.6875 768.179688 230.660156 C 768.972656 231.628906 769.71875 232.636719 770.417969 233.683594 C 771.113281 234.726562 771.757812 235.804688 772.347656 236.910156 C 772.941406 238.019531 773.476562 239.152344 773.957031 240.3125 C 774.4375 241.472656 774.859375 242.65625 775.222656 243.855469 C 775.585938 245.058594 775.890625 246.277344 776.136719 247.507812 C 776.378906 248.738281 776.5625 249.980469 776.6875 251.230469 C 776.808594 252.480469 776.871094 253.730469 776.871094 254.988281 L 776.871094 600.289062 L 35.074219 600.289062 L 35.074219 254.988281 C 35.074219 253.730469 35.140625 252.476562 35.265625 251.226562 C 35.390625 249.976562 35.578125 248.734375 35.824219 247.503906 C 36.070312 246.269531 36.378906 245.054688 36.746094 243.851562 C 37.109375 242.648438 37.535156 241.46875 38.015625 240.308594 C 38.5 239.148438 39.035156 238.011719 39.628906 236.90625 C 40.222656 235.796875 40.871094 234.722656 41.570312 233.675781 C 42.265625 232.632812 43.015625 231.625 43.8125 230.652344 C 44.609375 229.679688 45.453125 228.75 46.34375 227.863281 C 47.230469 226.972656 48.160156 226.132812 49.132812 225.332031 C 50.101562 224.535156 51.109375 223.789062 52.15625 223.089844 C 53.199219 222.390625 54.277344 221.746094 55.382812 221.152344 C 56.492188 220.558594 57.625 220.019531 58.785156 219.539062 C 59.949219 219.054688 61.128906 218.632812 62.332031 218.265625 C 63.53125 217.898438 64.75 217.59375 65.980469 217.34375 C 67.214844 217.097656 68.457031 216.910156 69.707031 216.785156 C 70.957031 216.660156 72.210938 216.597656 73.46875 216.59375 Z M 546.667969 779.300781 L 265.355469 779.300781 L 265.355469 728.191406 L 546.667969 728.191406 Z M 738.558594 702.59375 L 73.46875 702.59375 C 72.210938 702.589844 70.957031 702.527344 69.707031 702.402344 C 68.457031 702.277344 67.214844 702.089844 65.980469 701.84375 C 64.75 701.597656 63.53125 701.289062 62.332031 700.921875 C 61.128906 700.554688 59.949219 700.132812 58.785156 699.648438 C 57.625 699.167969 56.492188 698.628906 55.382812 698.035156 C 54.277344 697.445312 53.199219 696.796875 52.15625 696.097656 C 51.109375 695.398438 50.101562 694.652344 49.132812 693.855469 C 48.160156 693.058594 47.230469 692.214844 46.34375 691.324219 C 45.453125 690.4375 44.609375 689.507812 43.8125 688.535156 C 43.015625 687.5625 42.265625 686.554688 41.570312 685.511719 C 40.871094 684.46875 40.222656 683.390625 39.628906 682.28125 C 39.035156 681.175781 38.5 680.039062 38.015625 678.878906 C 37.535156 677.71875 37.109375 676.539062 36.746094 675.335938 C 36.378906 674.132812 36.070312 672.917969 35.824219 671.683594 C 35.578125 670.453125 35.390625 669.210938 35.265625 667.960938 C 35.140625 666.710938 35.074219 665.457031 35.074219 664.199219 L 35.074219 625.886719 L 776.871094 625.886719 L 776.871094 664.199219 C 776.871094 665.457031 776.808594 666.707031 776.6875 667.957031 C 776.5625 669.207031 776.378906 670.449219 776.136719 671.679688 C 775.890625 672.910156 775.585938 674.128906 775.222656 675.332031 C 774.859375 676.53125 774.4375 677.714844 773.957031 678.875 C 773.476562 680.035156 772.941406 681.167969 772.347656 682.277344 C 771.757812 683.382812 771.113281 684.460938 770.417969 685.503906 C 769.71875 686.550781 768.972656 687.558594 768.179688 688.53125 C 767.382812 689.5 766.542969 690.429688 765.652344 691.320312 C 764.765625 692.207031 763.839844 693.050781 762.867188 693.851562 C 761.898438 694.648438 760.894531 695.394531 759.847656 696.09375 C 758.804688 696.792969 757.730469 697.441406 756.625 698.035156 C 755.519531 698.628906 754.386719 699.164062 753.226562 699.648438 C 752.066406 700.128906 750.886719 700.554688 749.683594 700.921875 C 748.484375 701.289062 747.269531 701.59375 746.035156 701.84375 C 744.804688 702.089844 743.566406 702.277344 742.316406 702.402344 C 741.066406 702.527344 739.8125 702.589844 738.558594 702.59375 Z M 738.558594 702.59375 " fill-opacity="1" fill-rule="nonzero"/><path fill="#162b4d" d="M 86.265625 651.402344 L 111.859375 651.402344 L 111.859375 676.996094 L 86.265625 676.996094 Z M 86.265625 651.402344 " fill-opacity="1" fill-rule="nonzero"/><path fill="#162b4d" d="M 137.699219 651.402344 L 163.214844 651.402344 L 163.214844 676.996094 L 137.699219 676.996094 Z M 137.699219 651.402344 " fill-opacity="1" fill-rule="nonzero"/><path fill="#162b4d" d="M 188.566406 651.402344 L 214.164062 651.402344 L 214.164062 676.996094 L 188.566406 676.996094 Z M 188.566406 651.402344 " fill-opacity="1" fill-rule="nonzero"/><path fill="#162b4d" d="M 137.699219 63.097656 L 163.214844 63.097656 L 163.214844 89.101562 L 137.699219 89.101562 Z M 137.699219 63.097656 " fill-opacity="1" fill-rule="nonzero"/><path fill="#162b4d" d="M 188.566406 63.097656 L 214.164062 63.097656 L 214.164062 89.101562 L 188.566406 89.101562 Z M 188.566406 63.097656 " fill-opacity="1" fill-rule="nonzero"/><path fill="#162b4d" d="M 239.761719 63.097656 L 265.355469 63.097656 L 265.355469 89.101562 L 239.761719 89.101562 Z M 239.761719 63.097656 " fill-opacity="1" fill-rule="nonzero"/><path fill="#009688" d="M 285.363281 275.804688 L 254.90625 267.300781 L 254.90625 264.871094 C 256.296875 263.828125 257.625 262.710938 258.886719 261.519531 C 260.148438 260.324219 261.335938 259.0625 262.453125 257.730469 C 263.566406 256.398438 264.601562 255.007812 265.558594 253.558594 C 266.511719 252.105469 267.378906 250.605469 268.160156 249.054688 C 268.941406 247.503906 269.632812 245.910156 270.226562 244.28125 C 270.824219 242.648438 271.324219 240.988281 271.730469 239.300781 C 272.136719 237.609375 272.441406 235.902344 272.648438 234.179688 C 272.855469 232.453125 272.964844 230.722656 272.96875 228.988281 L 272.96875 212.785156 C 272.992188 211.359375 272.949219 209.9375 272.839844 208.515625 C 272.730469 207.09375 272.554688 205.679688 272.316406 204.273438 C 272.078125 202.871094 271.773438 201.476562 271.40625 200.101562 C 271.039062 198.722656 270.609375 197.363281 270.117188 196.027344 C 269.625 194.6875 269.074219 193.375 268.460938 192.085938 C 267.847656 190.800781 267.175781 189.542969 266.449219 188.316406 C 265.71875 187.09375 264.9375 185.902344 264.097656 184.75 C 263.261719 183.59375 262.371094 182.484375 261.429688 181.410156 C 260.492188 180.339844 259.503906 179.3125 258.46875 178.332031 C 257.433594 177.351562 256.355469 176.417969 255.234375 175.539062 C 254.113281 174.65625 252.957031 173.828125 251.757812 173.050781 C 250.5625 172.277344 249.332031 171.558594 248.070312 170.894531 C 246.808594 170.234375 245.515625 169.632812 244.199219 169.089844 C 242.878906 168.542969 241.539062 168.0625 240.175781 167.644531 C 238.8125 167.222656 237.433594 166.867188 236.039062 166.574219 C 234.644531 166.28125 233.238281 166.050781 231.820312 165.886719 C 230.269531 165.746094 228.710938 165.683594 227.152344 165.703125 C 225.59375 165.71875 224.039062 165.820312 222.492188 166 C 220.941406 166.179688 219.40625 166.4375 217.882812 166.777344 C 216.359375 167.117188 214.859375 167.53125 213.382812 168.027344 C 211.902344 168.523438 210.453125 169.09375 209.03125 169.738281 C 207.613281 170.382812 206.230469 171.097656 204.882812 171.886719 C 203.539062 172.675781 202.238281 173.53125 200.980469 174.453125 C 199.722656 175.378906 198.519531 176.363281 197.363281 177.410156 C 196.207031 178.460938 195.113281 179.566406 194.070312 180.726562 C 193.03125 181.890625 192.054688 183.101562 191.140625 184.367188 C 190.226562 185.628906 189.378906 186.9375 188.601562 188.289062 C 187.820312 189.640625 187.113281 191.027344 186.480469 192.453125 C 185.84375 193.875 185.285156 195.328125 184.800781 196.8125 C 184.316406 198.292969 183.910156 199.796875 183.582031 201.324219 C 183.253906 202.847656 183.007812 204.382812 182.839844 205.933594 C 182.667969 207.484375 182.582031 209.039062 182.574219 210.601562 L 182.574219 228.664062 C 182.578125 230.40625 182.683594 232.140625 182.890625 233.871094 C 183.097656 235.601562 183.402344 237.3125 183.808594 239.007812 C 184.214844 240.703125 184.71875 242.367188 185.316406 244.003906 C 185.914062 245.640625 186.609375 247.234375 187.390625 248.789062 C 188.175781 250.347656 189.050781 251.851562 190.007812 253.304688 C 190.96875 254.757812 192.007812 256.152344 193.132812 257.484375 C 194.253906 258.820312 195.449219 260.082031 196.71875 261.277344 C 197.984375 262.472656 199.320312 263.585938 200.71875 264.628906 L 200.71875 267.300781 L 170.101562 275.804688 C 168.941406 276.148438 167.792969 276.539062 166.664062 276.976562 C 165.535156 277.410156 164.425781 277.890625 163.335938 278.417969 C 162.246094 278.941406 161.175781 279.511719 160.132812 280.121094 C 159.085938 280.730469 158.066406 281.382812 157.074219 282.078125 C 156.082031 282.769531 155.117188 283.5 154.183594 284.269531 C 153.25 285.039062 152.347656 285.84375 151.480469 286.6875 C 150.609375 287.53125 149.773438 288.40625 148.976562 289.3125 C 148.175781 290.222656 147.414062 291.164062 146.691406 292.132812 C 145.96875 293.101562 145.28125 294.101562 144.640625 295.125 C 143.996094 296.152344 143.394531 297.199219 142.832031 298.273438 C 142.273438 299.347656 141.757812 300.441406 141.285156 301.554688 C 140.8125 302.667969 140.386719 303.800781 140.003906 304.949219 C 139.625 306.097656 139.289062 307.261719 139 308.4375 C 138.714844 309.613281 138.472656 310.796875 138.28125 311.992188 C 138.085938 313.1875 137.941406 314.390625 137.84375 315.59375 C 137.75 316.800781 137.699219 318.011719 137.699219 319.222656 L 137.699219 346.195312 L 318.167969 346.195312 L 318.167969 319.222656 C 318.164062 318.003906 318.109375 316.789062 318.007812 315.578125 C 317.90625 314.367188 317.753906 313.160156 317.554688 311.960938 C 317.355469 310.761719 317.109375 309.570312 316.8125 308.390625 C 316.519531 307.210938 316.175781 306.042969 315.789062 304.890625 C 315.398438 303.738281 314.964844 302.601562 314.484375 301.484375 C 314.003906 300.367188 313.480469 299.269531 312.910156 298.195312 C 312.34375 297.121094 311.730469 296.070312 311.078125 295.042969 C 310.425781 294.015625 309.730469 293.019531 309 292.046875 C 308.265625 291.078125 307.496094 290.136719 306.683594 289.230469 C 305.875 288.320312 305.03125 287.445312 304.152344 286.605469 C 303.273438 285.765625 302.363281 284.960938 301.417969 284.195312 C 300.472656 283.425781 299.5 282.699219 298.5 282.007812 C 297.496094 281.320312 296.46875 280.671875 295.414062 280.066406 C 294.359375 279.460938 293.28125 278.898438 292.179688 278.378906 C 291.082031 277.859375 289.960938 277.382812 288.824219 276.953125 C 287.683594 276.523438 286.53125 276.140625 285.363281 275.804688 Z M 300.105469 328.132812 L 155.519531 328.132812 L 155.519531 319.222656 C 155.527344 317.761719 155.648438 316.308594 155.886719 314.871094 C 156.125 313.429688 156.476562 312.015625 156.941406 310.632812 C 157.40625 309.25 157.980469 307.910156 158.660156 306.617188 C 159.339844 305.324219 160.117188 304.097656 160.996094 302.929688 C 161.871094 301.761719 162.835938 300.671875 163.890625 299.660156 C 164.941406 298.648438 166.066406 297.726562 167.269531 296.894531 C 168.46875 296.0625 169.726562 295.332031 171.042969 294.699219 C 172.363281 294.070312 173.722656 293.550781 175.121094 293.140625 L 218.699219 280.664062 L 218.699219 254.664062 L 214.164062 251.992188 C 213.136719 251.410156 212.152344 250.765625 211.210938 250.050781 C 210.269531 249.339844 209.382812 248.570312 208.542969 247.738281 C 207.703125 246.910156 206.921875 246.027344 206.203125 245.09375 C 205.480469 244.160156 204.824219 243.183594 204.230469 242.164062 C 203.640625 241.144531 203.117188 240.089844 202.667969 239 C 202.214844 237.910156 201.835938 236.792969 201.535156 235.652344 C 201.230469 234.511719 201.003906 233.359375 200.851562 232.1875 C 200.703125 231.019531 200.632812 229.84375 200.636719 228.664062 L 200.636719 210.601562 C 200.636719 208.726562 200.828125 206.875 201.214844 205.039062 C 201.597656 203.207031 202.167969 201.433594 202.917969 199.71875 C 203.671875 198.003906 204.59375 196.382812 205.683594 194.859375 C 206.773438 193.335938 208.007812 191.941406 209.386719 190.675781 C 210.769531 189.378906 212.273438 188.242188 213.898438 187.269531 C 215.523438 186.296875 217.234375 185.503906 219.03125 184.898438 C 220.824219 184.289062 222.664062 183.878906 224.546875 183.664062 C 226.429688 183.449219 228.316406 183.4375 230.203125 183.628906 C 231.054688 183.75 231.902344 183.910156 232.738281 184.109375 C 233.578125 184.3125 234.40625 184.546875 235.222656 184.824219 C 236.039062 185.097656 236.839844 185.410156 237.628906 185.757812 C 238.417969 186.109375 239.1875 186.492188 239.941406 186.910156 C 240.695312 187.328125 241.425781 187.78125 242.136719 188.265625 C 242.851562 188.753906 243.539062 189.269531 244.203125 189.816406 C 244.867188 190.367188 245.507812 190.941406 246.121094 191.550781 C 246.730469 192.15625 247.316406 192.789062 247.867188 193.449219 C 248.421875 194.109375 248.945312 194.792969 249.4375 195.5 C 249.929688 196.207031 250.390625 196.9375 250.816406 197.683594 C 251.242188 198.433594 251.632812 199.203125 251.988281 199.988281 C 252.34375 200.773438 252.664062 201.570312 252.945312 202.386719 C 253.226562 203.199219 253.472656 204.023438 253.679688 204.859375 C 253.886719 205.699219 254.058594 206.542969 254.1875 207.394531 C 254.316406 208.246094 254.410156 209.101562 254.460938 209.960938 C 254.515625 210.820312 254.527344 211.683594 254.503906 212.542969 L 254.503906 228.742188 C 254.503906 229.925781 254.425781 231.101562 254.273438 232.273438 C 254.121094 233.445312 253.886719 234.601562 253.582031 235.742188 C 253.273438 236.882812 252.890625 237.996094 252.4375 239.085938 C 251.980469 240.175781 251.457031 241.234375 250.859375 242.253906 C 250.265625 243.273438 249.605469 244.25 248.878906 245.183594 C 248.15625 246.117188 247.371094 246.996094 246.53125 247.828125 C 245.691406 248.65625 244.796875 249.425781 243.851562 250.136719 C 242.910156 250.847656 241.921875 251.492188 240.894531 252.070312 L 236.4375 254.746094 L 236.4375 280.746094 L 280.015625 293.21875 C 281.421875 293.625 282.789062 294.140625 284.109375 294.765625 C 285.433594 295.390625 286.699219 296.117188 287.90625 296.945312 C 289.109375 297.777344 290.242188 298.695312 291.300781 299.707031 C 292.355469 300.71875 293.328125 301.808594 294.207031 302.976562 C 295.089844 304.148438 295.871094 305.378906 296.554688 306.671875 C 297.238281 307.964844 297.8125 309.308594 298.28125 310.695312 C 298.746094 312.082031 299.097656 313.496094 299.335938 314.941406 C 299.574219 316.386719 299.695312 317.839844 299.699219 319.300781 Z M 300.105469 328.132812 " fill-opacity="1" fill-rule="nonzero"/><path fill="#162b4d" d="M 137.699219 398.195312 L 628.480469 398.195312 L 628.480469 410.992188 L 137.699219 410.992188 Z M 137.699219 398.195312 " fill-opacity="1" fill-rule="nonzero"/><path fill="#162b4d" d="M 137.699219 434.320312 L 628.480469 434.320312 L 628.480469 447.121094 L 137.699219 447.121094 Z M 137.699219 434.320312 " fill-opacity="1" fill-rule="nonzero"/><path fill="#162b4d" d="M 137.699219 471.664062 L 628.480469 471.664062 L 628.480469 484.460938 L 137.699219 484.460938 Z M 137.699219 471.664062 " fill-opacity="1" fill-rule="nonzero"/></svg>