<svg xmlns="http://www.w3.org/2000/svg" xmlns:xlink="http://www.w3.org/1999/xlink" width="1080" zoomAndPan="magnify" viewBox="0 0 810 809.999993" height="1080" preserveAspectRatio="xMidYMid meet" version="1.0"><path fill="#162b4d" d="M 648.808594 55.890625 L 268.921875 55.890625 C 262.441406 55.890625 257.578125 60.75 257.578125 67.230469 C 257.578125 73.710938 262.441406 78.570312 268.921875 78.570312 L 648 78.570312 C 654.480469 78.570312 659.339844 73.710938 659.339844 67.230469 C 659.339844 60.75 654.480469 55.890625 648.808594 55.890625 Z M 648.808594 55.890625 " fill-opacity="1" fill-rule="nonzero"/><path fill="#162b4d" d="M 349.109375 443.878906 C 349.109375 429.300781 336.960938 416.339844 321.570312 416.339844 L 208.171875 416.339844 C 193.589844 416.339844 180.628906 428.488281 180.628906 443.878906 L 180.628906 532.980469 C 180.628906 547.558594 192.78125 560.519531 208.171875 560.519531 L 321.570312 560.519531 C 336.148438 560.519531 349.109375 548.371094 349.109375 532.980469 Z M 326.429688 532.980469 C 326.429688 535.410156 324.808594 537.03125 322.378906 537.03125 L 208.980469 537.03125 C 206.550781 537.03125 204.929688 535.410156 204.929688 532.980469 L 204.929688 443.878906 C 204.929688 441.449219 206.550781 439.828125 208.980469 439.828125 L 322.378906 439.828125 C 324.808594 439.828125 326.429688 441.449219 326.429688 443.878906 Z M 326.429688 532.980469 " fill-opacity="1" fill-rule="nonzero"/><path fill="#162b4d" d="M 321.570312 588.871094 L 208.171875 588.871094 C 193.589844 588.871094 180.628906 601.019531 180.628906 616.410156 L 180.628906 705.511719 C 180.628906 720.089844 192.78125 733.050781 208.171875 733.050781 L 321.570312 733.050781 C 336.148438 733.050781 349.109375 720.898438 349.109375 705.511719 L 349.109375 615.601562 C 349.109375 601.019531 336.960938 588.871094 321.570312 588.871094 Z M 326.429688 704.699219 C 326.429688 707.128906 324.808594 708.75 322.378906 708.75 L 208.980469 708.75 C 206.550781 708.75 204.929688 707.128906 204.929688 704.699219 L 204.929688 615.601562 C 204.929688 613.171875 206.550781 611.550781 208.980469 611.550781 L 322.378906 611.550781 C 324.808594 611.550781 326.429688 613.171875 326.429688 615.601562 Z M 326.429688 704.699219 " fill-opacity="1" fill-rule="nonzero"/><path fill="#162b4d" d="M 630.988281 431.730469 L 391.230469 431.730469 C 384.75 431.730469 379.890625 436.589844 379.890625 443.070312 C 379.890625 449.550781 384.75 454.410156 391.230469 454.410156 L 630.988281 454.410156 C 637.46875 454.410156 642.328125 449.550781 642.328125 443.070312 C 642.328125 436.589844 637.46875 431.730469 630.988281 431.730469 Z M 630.988281 431.730469 " fill-opacity="1" fill-rule="nonzero"/><path fill="#162b4d" d="M 630.988281 477.089844 L 391.230469 477.089844 C 384.75 477.089844 379.890625 481.949219 379.890625 488.429688 C 379.890625 494.910156 384.75 499.769531 391.230469 499.769531 L 630.988281 499.769531 C 637.46875 499.769531 642.328125 494.910156 642.328125 488.429688 C 642.328125 481.949219 637.46875 477.089844 630.988281 477.089844 Z M 630.988281 477.089844 " fill-opacity="1" fill-rule="nonzero"/><path fill="#162b4d" d="M 630.988281 522.449219 L 391.230469 522.449219 C 384.75 522.449219 379.890625 527.308594 379.890625 533.789062 C 379.890625 540.269531 384.75 545.128906 391.230469 545.128906 L 630.988281 545.128906 C 637.46875 545.128906 642.328125 540.269531 642.328125 533.789062 C 642.328125 527.308594 637.46875 522.449219 630.988281 522.449219 Z M 630.988281 522.449219 " fill-opacity="1" fill-rule="nonzero"/><path fill="#162b4d" d="M 630.988281 603.449219 L 391.230469 603.449219 C 384.75 603.449219 379.890625 608.308594 379.890625 614.789062 C 379.890625 621.269531 384.75 626.128906 391.230469 626.128906 L 630.988281 626.128906 C 637.46875 626.128906 642.328125 621.269531 642.328125 614.789062 C 642.328125 608.308594 637.46875 603.449219 630.988281 603.449219 Z M 630.988281 603.449219 " fill-opacity="1" fill-rule="nonzero"/><path fill="#162b4d" d="M 630.988281 648.808594 L 391.230469 648.808594 C 384.75 648.808594 379.890625 653.671875 379.890625 660.148438 C 379.890625 666.628906 384.75 671.488281 391.230469 671.488281 L 630.988281 671.488281 C 637.46875 671.488281 642.328125 666.628906 642.328125 660.148438 C 642.328125 653.671875 637.46875 648.808594 630.988281 648.808594 Z M 630.988281 648.808594 " fill-opacity="1" fill-rule="nonzero"/><path fill="#162b4d" d="M 630.988281 694.171875 L 391.230469 694.171875 C 384.75 694.171875 379.890625 699.03125 379.890625 705.511719 C 379.890625 711.988281 384.75 716.851562 391.230469 716.851562 L 630.988281 716.851562 C 637.46875 716.851562 642.328125 711.988281 642.328125 705.511719 C 642.328125 699.03125 637.46875 694.171875 630.988281 694.171875 Z M 630.988281 694.171875 " fill-opacity="1" fill-rule="nonzero"/><path fill="#162b4d" d="M 280.261719 466.558594 L 260.820312 486 L 250.289062 475.46875 C 245.429688 470.609375 238.140625 470.609375 234.089844 475.46875 C 229.230469 480.328125 229.230469 487.621094 234.089844 491.671875 L 252.71875 510.300781 C 257.578125 515.160156 264.058594 515.160156 268.921875 510.300781 L 296.460938 482.761719 C 301.320312 477.898438 301.320312 470.609375 296.460938 466.558594 C 291.601562 461.699219 284.308594 461.699219 280.261719 466.558594 Z M 280.261719 466.558594 " fill-opacity="1" fill-rule="nonzero"/><path fill="#162b4d" d="M 280.261719 638.28125 L 260.820312 657.71875 L 250.289062 647.191406 C 245.429688 642.328125 238.949219 642.328125 234.089844 647.191406 C 229.230469 652.050781 229.230469 659.339844 234.089844 663.390625 L 252.71875 682.019531 C 257.578125 686.878906 264.058594 686.878906 268.921875 682.019531 L 296.460938 654.480469 C 301.320312 649.621094 301.320312 642.328125 296.460938 638.28125 C 291.601562 633.421875 284.308594 633.421875 280.261719 638.28125 Z M 280.261719 638.28125 " fill-opacity="1" fill-rule="nonzero"/><path fill="#009688" d="M 417.148438 382.320312 C 482.761719 382.320312 535.410156 328.859375 535.410156 264.058594 C 535.410156 209.789062 498.960938 162.808594 447.121094 149.851562 C 440.640625 148.230469 434.96875 152.28125 433.351562 157.949219 C 431.730469 164.429688 435.78125 170.101562 441.449219 171.71875 C 483.570312 182.25 512.730469 220.320312 512.730469 264.058594 C 512.730469 283.5 507.058594 301.320312 497.339844 315.898438 C 497.339844 293.21875 481.140625 274.589844 459.269531 270.539062 C 464.941406 262.441406 468.179688 252.71875 468.179688 242.191406 C 468.179688 214.648438 445.5 191.96875 417.960938 191.96875 C 390.417969 191.96875 367.738281 214.648438 367.738281 242.191406 C 367.738281 252.71875 370.980469 262.441406 376.648438 270.539062 C 354.78125 274.589844 338.578125 293.21875 338.578125 315.898438 C 328.859375 300.511719 323.191406 282.691406 323.191406 264.058594 C 323.191406 220.320312 352.351562 182.25 394.46875 171.71875 C 400.949219 170.101562 404.191406 163.621094 402.570312 157.949219 C 400.949219 151.46875 394.46875 148.230469 388.800781 149.851562 C 336.960938 163.621094 300.511719 210.601562 300.511719 264.058594 C 298.890625 328.859375 351.539062 382.320312 417.148438 382.320312 Z M 417.148438 214.648438 C 432.539062 214.648438 444.691406 226.800781 444.691406 242.191406 C 444.691406 257.578125 432.539062 269.730469 417.148438 269.730469 C 401.761719 269.730469 389.609375 257.578125 389.609375 242.191406 C 389.609375 227.609375 401.761719 214.648438 417.148438 214.648438 Z M 360.449219 315.898438 C 360.449219 303.75 370.980469 293.21875 383.128906 293.21875 L 451.171875 293.21875 C 463.320312 293.21875 473.851562 303.75 473.851562 315.898438 L 473.851562 340.199219 C 456.839844 353.160156 436.589844 358.828125 417.148438 358.828125 C 397.710938 358.828125 377.460938 352.351562 360.449219 340.199219 Z M 360.449219 315.898438 " fill-opacity="1" fill-rule="nonzero"/><path fill="#162b4d" d="M 117.449219 54.269531 L 117.449219 755.730469 C 117.449219 778.410156 136.078125 796.230469 157.949219 796.230469 L 675.539062 796.230469 C 698.21875 796.230469 716.039062 777.601562 716.039062 755.730469 L 716.039062 431.730469 C 716.039062 425.25 711.179688 420.390625 704.699219 420.390625 C 698.21875 420.390625 693.359375 425.25 693.359375 431.730469 L 693.359375 755.730469 C 693.359375 765.449219 685.261719 773.550781 675.539062 773.550781 L 158.761719 773.550781 C 149.039062 773.550781 140.941406 765.449219 140.941406 755.730469 L 140.941406 121.5 L 694.171875 121.5 L 694.171875 378.269531 C 694.171875 384.75 699.03125 389.609375 705.511719 389.609375 C 711.988281 389.609375 716.851562 384.75 716.851562 378.269531 L 716.851562 54.269531 C 716.851562 31.589844 698.21875 13.769531 676.351562 13.769531 L 158.761719 13.769531 C 136.078125 13.769531 117.449219 31.589844 117.449219 54.269531 Z M 225.179688 36.449219 L 676.351562 36.449219 C 686.070312 36.449219 694.171875 44.550781 694.171875 54.269531 L 694.171875 98.820312 L 225.179688 98.820312 Z M 201.691406 98.820312 L 140.128906 98.820312 L 140.128906 54.269531 C 140.128906 44.550781 148.230469 36.449219 157.949219 36.449219 L 200.878906 36.449219 L 200.878906 98.820312 Z M 201.691406 98.820312 " fill-opacity="1" fill-rule="nonzero"/></svg>