<svg xmlns="http://www.w3.org/2000/svg" xmlns:xlink="http://www.w3.org/1999/xlink" width="1080" zoomAndPan="magnify" viewBox="0 0 810 809.999993" height="1080" preserveAspectRatio="xMidYMid meet" version="1.0"><path fill="#162b4d" d="M 689.308594 8.910156 L 114.210938 8.910156 C 55.078125 8.910156 7.289062 56.699219 7.289062 116.640625 L 7.289062 691.738281 C 7.289062 750.871094 55.890625 799.46875 115.019531 799.46875 L 690.121094 799.46875 C 749.25 799.46875 797.851562 750.871094 797.851562 691.738281 L 797.851562 116.640625 C 797.039062 56.699219 748.441406 8.910156 689.308594 8.910156 Z M 761.398438 690.929688 C 761.398438 730.621094 729 763.019531 689.308594 763.019531 L 114.210938 763.019531 C 74.519531 763.019531 42.121094 730.621094 42.121094 690.929688 L 42.121094 115.828125 C 42.121094 76.140625 74.519531 43.738281 114.210938 43.738281 L 689.308594 43.738281 C 729 43.738281 761.398438 76.140625 761.398438 115.828125 Z M 761.398438 690.929688 " fill-opacity="1" fill-rule="nonzero"/><path fill="#162b4d" d="M 259.199219 123.121094 C 259.199219 124.128906 259.152344 125.132812 259.050781 126.136719 C 258.953125 127.140625 258.804688 128.136719 258.609375 129.125 C 258.410156 130.113281 258.167969 131.089844 257.875 132.054688 C 257.582031 133.019531 257.242188 133.96875 256.855469 134.898438 C 256.472656 135.832031 256.039062 136.742188 255.566406 137.628906 C 255.089844 138.519531 254.574219 139.382812 254.011719 140.21875 C 253.453125 141.058594 252.851562 141.867188 252.214844 142.648438 C 251.574219 143.425781 250.898438 144.171875 250.183594 144.882812 C 249.472656 145.597656 248.726562 146.273438 247.945312 146.914062 C 247.167969 147.554688 246.359375 148.152344 245.519531 148.710938 C 244.683594 149.273438 243.820312 149.789062 242.929688 150.265625 C 242.039062 150.742188 241.128906 151.171875 240.199219 151.558594 C 239.269531 151.941406 238.320312 152.28125 237.355469 152.574219 C 236.390625 152.867188 235.414062 153.113281 234.425781 153.308594 C 233.4375 153.503906 232.441406 153.652344 231.4375 153.75 C 230.433594 153.851562 229.429688 153.898438 228.421875 153.898438 C 227.410156 153.898438 226.40625 153.851562 225.402344 153.75 C 224.398438 153.652344 223.402344 153.503906 222.414062 153.308594 C 221.425781 153.113281 220.449219 152.867188 219.484375 152.574219 C 218.519531 152.28125 217.574219 151.941406 216.640625 151.558594 C 215.710938 151.171875 214.800781 150.742188 213.910156 150.265625 C 213.019531 149.789062 212.15625 149.273438 211.320312 148.710938 C 210.480469 148.152344 209.671875 147.554688 208.894531 146.914062 C 208.113281 146.273438 207.367188 145.597656 206.65625 144.882812 C 205.941406 144.171875 205.265625 143.425781 204.625 142.648438 C 203.988281 141.867188 203.386719 141.058594 202.828125 140.21875 C 202.265625 139.382812 201.75 138.519531 201.273438 137.628906 C 200.800781 136.742188 200.367188 135.832031 199.984375 134.898438 C 199.597656 133.96875 199.257812 133.019531 198.964844 132.054688 C 198.671875 131.089844 198.429688 130.113281 198.230469 129.125 C 198.035156 128.136719 197.886719 127.140625 197.789062 126.136719 C 197.6875 125.132812 197.640625 124.128906 197.640625 123.121094 C 197.640625 122.113281 197.6875 121.105469 197.789062 120.101562 C 197.886719 119.101562 198.035156 118.105469 198.230469 117.113281 C 198.429688 116.125 198.671875 115.148438 198.964844 114.183594 C 199.257812 113.21875 199.597656 112.273438 199.984375 111.339844 C 200.367188 110.410156 200.800781 109.5 201.273438 108.609375 C 201.75 107.722656 202.265625 106.859375 202.828125 106.019531 C 203.386719 105.179688 203.988281 104.371094 204.625 103.59375 C 205.265625 102.8125 205.941406 102.066406 206.65625 101.355469 C 207.367188 100.640625 208.113281 99.964844 208.894531 99.328125 C 209.671875 98.6875 210.480469 98.085938 211.320312 97.527344 C 212.15625 96.96875 213.019531 96.449219 213.910156 95.972656 C 214.800781 95.5 215.710938 95.070312 216.640625 94.683594 C 217.574219 94.296875 218.519531 93.957031 219.484375 93.664062 C 220.449219 93.371094 221.425781 93.128906 222.414062 92.929688 C 223.402344 92.734375 224.398438 92.585938 225.402344 92.488281 C 226.40625 92.390625 227.410156 92.339844 228.421875 92.339844 C 229.429688 92.339844 230.433594 92.390625 231.4375 92.488281 C 232.441406 92.585938 233.4375 92.734375 234.425781 92.929688 C 235.414062 93.128906 236.390625 93.371094 237.355469 93.664062 C 238.320312 93.957031 239.269531 94.296875 240.199219 94.683594 C 241.128906 95.070312 242.039062 95.5 242.929688 95.972656 C 243.820312 96.449219 244.683594 96.96875 245.519531 97.527344 C 246.359375 98.085938 247.167969 98.6875 247.945312 99.328125 C 248.726562 99.964844 249.472656 100.640625 250.183594 101.355469 C 250.898438 102.066406 251.574219 102.8125 252.214844 103.59375 C 252.851562 104.371094 253.453125 105.179688 254.011719 106.019531 C 254.574219 106.859375 255.089844 107.722656 255.566406 108.609375 C 256.039062 109.5 256.472656 110.410156 256.855469 111.339844 C 257.242188 112.273438 257.582031 113.21875 257.875 114.183594 C 258.167969 115.148438 258.410156 116.125 258.609375 117.113281 C 258.804688 118.105469 258.953125 119.101562 259.050781 120.101562 C 259.152344 121.105469 259.199219 122.113281 259.199219 123.121094 Z M 259.199219 123.121094 " fill-opacity="1" fill-rule="nonzero"/><path fill="#162b4d" d="M 432.539062 123.121094 C 432.539062 124.128906 432.492188 125.132812 432.390625 126.136719 C 432.292969 127.140625 432.144531 128.136719 431.949219 129.125 C 431.75 130.113281 431.507812 131.089844 431.214844 132.054688 C 430.921875 133.019531 430.582031 133.96875 430.195312 134.898438 C 429.8125 135.832031 429.378906 136.742188 428.90625 137.628906 C 428.429688 138.519531 427.914062 139.382812 427.351562 140.21875 C 426.792969 141.058594 426.191406 141.867188 425.554688 142.648438 C 424.914062 143.425781 424.238281 144.171875 423.523438 144.882812 C 422.8125 145.597656 422.066406 146.273438 421.285156 146.914062 C 420.507812 147.554688 419.699219 148.152344 418.859375 148.710938 C 418.023438 149.273438 417.160156 149.789062 416.269531 150.265625 C 415.378906 150.742188 414.46875 151.171875 413.539062 151.558594 C 412.609375 151.941406 411.660156 152.28125 410.695312 152.574219 C 409.730469 152.867188 408.753906 153.113281 407.765625 153.308594 C 406.777344 153.503906 405.78125 153.652344 404.777344 153.75 C 403.773438 153.851562 402.769531 153.898438 401.761719 153.898438 C 400.75 153.898438 399.746094 153.851562 398.742188 153.75 C 397.738281 153.652344 396.742188 153.503906 395.753906 153.308594 C 394.765625 153.113281 393.789062 152.867188 392.824219 152.574219 C 391.859375 152.28125 390.914062 151.941406 389.980469 151.558594 C 389.050781 151.171875 388.140625 150.742188 387.25 150.265625 C 386.359375 149.789062 385.496094 149.273438 384.660156 148.710938 C 383.820312 148.152344 383.011719 147.554688 382.234375 146.914062 C 381.453125 146.273438 380.707031 145.597656 379.996094 144.882812 C 379.28125 144.171875 378.605469 143.425781 377.964844 142.648438 C 377.328125 141.867188 376.726562 141.058594 376.167969 140.21875 C 375.605469 139.382812 375.089844 138.519531 374.613281 137.628906 C 374.140625 136.742188 373.707031 135.832031 373.324219 134.898438 C 372.9375 133.96875 372.597656 133.019531 372.304688 132.054688 C 372.011719 131.089844 371.769531 130.113281 371.570312 129.125 C 371.375 128.136719 371.226562 127.140625 371.128906 126.136719 C 371.03125 125.132812 370.980469 124.128906 370.980469 123.121094 C 370.980469 122.113281 371.03125 121.105469 371.128906 120.101562 C 371.226562 119.101562 371.375 118.105469 371.570312 117.113281 C 371.769531 116.125 372.011719 115.148438 372.304688 114.183594 C 372.597656 113.21875 372.9375 112.273438 373.324219 111.339844 C 373.707031 110.410156 374.140625 109.5 374.613281 108.609375 C 375.089844 107.722656 375.605469 106.859375 376.167969 106.019531 C 376.726562 105.179688 377.328125 104.371094 377.964844 103.59375 C 378.605469 102.8125 379.28125 102.066406 379.996094 101.355469 C 380.707031 100.640625 381.453125 99.964844 382.234375 99.328125 C 383.011719 98.6875 383.820312 98.085938 384.660156 97.527344 C 385.496094 96.96875 386.363281 96.449219 387.25 95.972656 C 388.140625 95.5 389.050781 95.070312 389.980469 94.683594 C 390.914062 94.296875 391.859375 93.957031 392.824219 93.664062 C 393.789062 93.371094 394.765625 93.128906 395.753906 92.929688 C 396.742188 92.734375 397.738281 92.585938 398.742188 92.488281 C 399.746094 92.390625 400.75 92.339844 401.761719 92.339844 C 402.769531 92.339844 403.773438 92.390625 404.777344 92.488281 C 405.78125 92.585938 406.777344 92.734375 407.765625 92.929688 C 408.753906 93.128906 409.730469 93.371094 410.695312 93.664062 C 411.660156 93.957031 412.609375 94.296875 413.539062 94.683594 C 414.46875 95.070312 415.378906 95.5 416.269531 95.972656 C 417.160156 96.449219 418.023438 96.96875 418.859375 97.527344 C 419.699219 98.085938 420.507812 98.6875 421.285156 99.328125 C 422.066406 99.964844 422.8125 100.640625 423.523438 101.355469 C 424.238281 102.066406 424.914062 102.8125 425.554688 103.59375 C 426.191406 104.371094 426.792969 105.179688 427.351562 106.019531 C 427.914062 106.859375 428.429688 107.722656 428.90625 108.609375 C 429.378906 109.5 429.8125 110.410156 430.195312 111.339844 C 430.582031 112.273438 430.921875 113.21875 431.214844 114.183594 C 431.507812 115.148438 431.75 116.125 431.949219 117.113281 C 432.144531 118.105469 432.292969 119.101562 432.390625 120.101562 C 432.492188 121.105469 432.539062 122.113281 432.539062 123.121094 Z M 432.539062 123.121094 " fill-opacity="1" fill-rule="nonzero"/><path fill="#162b4d" d="M 606.691406 123.121094 C 606.691406 124.128906 606.640625 125.132812 606.542969 126.136719 C 606.441406 127.140625 606.296875 128.136719 606.097656 129.125 C 605.902344 130.113281 605.65625 131.089844 605.363281 132.054688 C 605.070312 133.019531 604.734375 133.96875 604.347656 134.898438 C 603.960938 135.832031 603.53125 136.742188 603.054688 137.628906 C 602.582031 138.519531 602.0625 139.382812 601.503906 140.21875 C 600.941406 141.058594 600.34375 141.867188 599.703125 142.648438 C 599.0625 143.425781 598.386719 144.171875 597.675781 144.882812 C 596.960938 145.597656 596.214844 146.273438 595.4375 146.914062 C 594.65625 147.554688 593.847656 148.152344 593.011719 148.710938 C 592.171875 149.273438 591.308594 149.789062 590.417969 150.265625 C 589.53125 150.742188 588.621094 151.171875 587.6875 151.558594 C 586.757812 151.941406 585.808594 152.28125 584.84375 152.574219 C 583.878906 152.867188 582.902344 153.113281 581.914062 153.308594 C 580.925781 153.503906 579.929688 153.652344 578.925781 153.75 C 577.921875 153.851562 576.917969 153.898438 575.910156 153.898438 C 574.902344 153.898438 573.894531 153.851562 572.894531 153.75 C 571.890625 153.652344 570.894531 153.503906 569.90625 153.308594 C 568.917969 153.113281 567.941406 152.867188 566.976562 152.574219 C 566.011719 152.28125 565.0625 151.941406 564.128906 151.558594 C 563.199219 151.171875 562.289062 150.742188 561.398438 150.265625 C 560.511719 149.789062 559.648438 149.273438 558.808594 148.710938 C 557.972656 148.152344 557.164062 147.554688 556.382812 146.914062 C 555.605469 146.273438 554.859375 145.597656 554.144531 144.882812 C 553.433594 144.171875 552.757812 143.425781 552.117188 142.648438 C 551.476562 141.867188 550.878906 141.058594 550.316406 140.21875 C 549.757812 139.382812 549.238281 138.519531 548.765625 137.628906 C 548.289062 136.742188 547.859375 135.832031 547.472656 134.898438 C 547.085938 133.96875 546.746094 133.019531 546.457031 132.054688 C 546.164062 131.089844 545.917969 130.113281 545.722656 129.125 C 545.523438 128.136719 545.375 127.140625 545.277344 126.136719 C 545.179688 125.132812 545.128906 124.128906 545.128906 123.121094 C 545.128906 122.113281 545.179688 121.105469 545.277344 120.101562 C 545.375 119.101562 545.523438 118.105469 545.722656 117.113281 C 545.917969 116.125 546.164062 115.148438 546.457031 114.183594 C 546.746094 113.21875 547.085938 112.273438 547.472656 111.339844 C 547.859375 110.410156 548.289062 109.5 548.765625 108.609375 C 549.238281 107.722656 549.757812 106.859375 550.316406 106.019531 C 550.878906 105.179688 551.476562 104.371094 552.117188 103.59375 C 552.757812 102.8125 553.433594 102.066406 554.144531 101.355469 C 554.859375 100.640625 555.605469 99.964844 556.382812 99.328125 C 557.164062 98.6875 557.972656 98.085938 558.808594 97.527344 C 559.648438 96.96875 560.511719 96.449219 561.398438 95.972656 C 562.289062 95.5 563.199219 95.070312 564.128906 94.683594 C 565.0625 94.296875 566.011719 93.957031 566.976562 93.664062 C 567.941406 93.371094 568.917969 93.128906 569.90625 92.929688 C 570.894531 92.734375 571.890625 92.585938 572.894531 92.488281 C 573.894531 92.390625 574.902344 92.339844 575.910156 92.339844 C 576.917969 92.339844 577.921875 92.390625 578.925781 92.488281 C 579.929688 92.585938 580.925781 92.734375 581.914062 92.929688 C 582.902344 93.128906 583.878906 93.371094 584.84375 93.664062 C 585.808594 93.957031 586.757812 94.296875 587.6875 94.683594 C 588.621094 95.070312 589.53125 95.5 590.417969 95.972656 C 591.308594 96.449219 592.171875 96.96875 593.011719 97.527344 C 593.847656 98.085938 594.65625 98.6875 595.4375 99.328125 C 596.214844 99.964844 596.960938 100.640625 597.675781 101.355469 C 598.386719 102.066406 599.0625 102.8125 599.703125 103.59375 C 600.34375 104.371094 600.941406 105.179688 601.503906 106.019531 C 602.0625 106.859375 602.582031 107.722656 603.054688 108.609375 C 603.53125 109.5 603.960938 110.410156 604.347656 111.339844 C 604.734375 112.273438 605.070312 113.21875 605.363281 114.183594 C 605.65625 115.148438 605.902344 116.125 606.097656 117.113281 C 606.296875 118.105469 606.441406 119.101562 606.542969 120.101562 C 606.640625 121.105469 606.691406 122.113281 606.691406 123.121094 Z M 606.691406 123.121094 " fill-opacity="1" fill-rule="nonzero"/><path fill="#009688" d="M 273.78125 317.519531 L 371.789062 317.519531 L 371.789062 415.53125 L 273.78125 415.53125 Z M 273.78125 317.519531 " fill-opacity="1" fill-rule="nonzero"/><path fill="#009688" d="M 420.390625 317.519531 L 530.550781 317.519531 L 530.550781 415.53125 L 420.390625 415.53125 Z M 420.390625 317.519531 " fill-opacity="1" fill-rule="nonzero"/><path fill="#009688" d="M 567 317.519531 L 677.160156 317.519531 L 677.160156 415.53125 L 567 415.53125 Z M 567 317.519531 " fill-opacity="1" fill-rule="nonzero"/><path fill="#162b4d" d="M 126.359375 447.929688 L 236.519531 447.929688 L 236.519531 545.941406 L 126.359375 545.941406 Z M 126.359375 447.929688 " fill-opacity="1" fill-rule="nonzero"/><path fill="#162b4d" d="M 273.78125 447.929688 L 383.941406 447.929688 L 383.941406 545.941406 L 273.78125 545.941406 Z M 273.78125 447.929688 " fill-opacity="1" fill-rule="nonzero"/><path fill="#162b4d" d="M 420.390625 447.929688 L 530.550781 447.929688 L 530.550781 545.941406 L 420.390625 545.941406 Z M 420.390625 447.929688 " fill-opacity="1" fill-rule="nonzero"/><path fill="#162b4d" d="M 567 447.929688 L 677.160156 447.929688 L 677.160156 545.941406 L 567 545.941406 Z M 567 447.929688 " fill-opacity="1" fill-rule="nonzero"/><path fill="#162b4d" d="M 126.359375 579.148438 L 236.519531 579.148438 L 236.519531 677.160156 L 126.359375 677.160156 Z M 126.359375 579.148438 " fill-opacity="1" fill-rule="nonzero"/><path fill="#162b4d" d="M 273.78125 579.148438 L 383.941406 579.148438 L 383.941406 677.160156 L 273.78125 677.160156 Z M 273.78125 579.148438 " fill-opacity="1" fill-rule="nonzero"/><path fill="#162b4d" d="M 420.390625 579.148438 L 530.550781 579.148438 L 530.550781 677.160156 L 420.390625 677.160156 Z M 420.390625 579.148438 " fill-opacity="1" fill-rule="nonzero"/><path fill="#162b4d" d="M 567 579.148438 L 677.160156 579.148438 L 677.160156 677.160156 L 567 677.160156 Z M 567 579.148438 " fill-opacity="1" fill-rule="nonzero"/></svg>