<svg xmlns="http://www.w3.org/2000/svg" xmlns:xlink="http://www.w3.org/1999/xlink" width="1080" zoomAndPan="magnify" viewBox="0 0 810 809.999993" height="1080" preserveAspectRatio="xMidYMid meet" version="1.0"><path fill="#162b4d" d="M 792.179688 470.609375 C 790.558594 464.128906 784.078125 459.269531 777.601562 459.269531 C 756.539062 459.269531 719.28125 448.738281 687.691406 434.96875 L 687.691406 368.550781 C 687.691406 343.441406 667.441406 322.378906 641.519531 322.378906 L 610.738281 322.378906 L 610.738281 47.789062 C 610.738281 30.78125 596.96875 17.011719 579.960938 17.011719 L 123.121094 17.011719 C 106.109375 17.011719 92.339844 30.78125 92.339844 47.789062 L 92.339844 230.851562 L 46.980469 230.851562 C 29.96875 230.851562 16.199219 244.621094 16.199219 261.628906 L 16.199219 704.699219 C 16.199219 729.808594 36.449219 750.871094 62.371094 750.871094 L 558.089844 750.871094 C 575.910156 767.070312 596.96875 783.269531 622.890625 797.851562 C 625.320312 799.46875 627.75 799.46875 630.179688 799.46875 C 632.609375 799.46875 635.039062 798.660156 637.46875 797.851562 C 742.769531 737.910156 780.03125 652.050781 791.371094 591.300781 C 805.140625 524.070312 792.988281 473.039062 792.179688 470.609375 Z M 123.121094 47.789062 L 580.769531 47.789062 L 580.769531 322.378906 L 316.710938 322.378906 L 290.789062 259.199219 C 284.308594 242.191406 268.921875 231.660156 251.101562 231.660156 L 123.121094 231.660156 Z M 46.980469 704.699219 L 46.980469 689.308594 L 126.359375 689.308594 C 134.460938 689.308594 141.75 682.828125 141.75 673.921875 C 141.75 665.011719 135.269531 658.53125 126.359375 658.53125 L 46.980469 658.53125 L 46.980469 261.628906 L 251.101562 261.628906 C 256.769531 261.628906 260.820312 265.679688 262.441406 269.730469 L 291.601562 343.441406 C 294.03125 349.109375 299.699219 353.160156 305.371094 353.160156 L 641.519531 353.160156 C 649.621094 353.160156 656.910156 359.640625 656.910156 368.550781 L 656.910156 418.769531 C 650.429688 414.71875 644.761719 410.671875 639.898438 405.808594 C 634.230469 400.140625 624.511719 400.140625 618.03125 405.808594 C 592.921875 430.921875 515.160156 458.460938 481.140625 458.460938 C 473.851562 458.460938 468.179688 463.320312 466.558594 469.800781 C 465.75 472.230469 454.410156 523.261719 467.371094 589.679688 C 474.660156 627.75 491.671875 674.730469 528.121094 719.28125 L 62.371094 719.28125 C 53.460938 720.089844 46.980469 712.800781 46.980469 704.699219 Z M 762.210938 584.011719 C 746.820312 660.960938 702.269531 722.519531 630.179688 765.449219 C 558.089844 721.710938 514.351562 661.769531 498.148438 584.820312 C 489.238281 541.890625 492.480469 505.441406 494.910156 487.621094 C 534.601562 484.378906 596.96875 461.699219 630.179688 437.398438 C 663.390625 461.699219 725.761719 484.378906 764.640625 488.429688 C 767.070312 506.25 770.308594 541.890625 762.210938 584.011719 Z M 762.210938 584.011719 " fill-opacity="1" fill-rule="nonzero"/><path fill="#162b4d" d="M 179.011719 109.351562 L 525.691406 109.351562 C 533.789062 109.351562 541.078125 102.871094 541.078125 93.960938 C 541.078125 85.050781 534.601562 78.570312 525.691406 78.570312 L 179.011719 78.570312 C 170.910156 78.570312 163.621094 85.050781 163.621094 93.960938 C 163.621094 102.871094 170.101562 109.351562 179.011719 109.351562 Z M 179.011719 109.351562 " fill-opacity="1" fill-rule="nonzero"/><path fill="#162b4d" d="M 540.269531 154.710938 C 540.269531 146.609375 533.789062 139.320312 524.878906 139.320312 L 179.011719 139.320312 C 170.910156 139.320312 163.621094 145.800781 163.621094 154.710938 C 163.621094 163.621094 170.101562 170.101562 179.011719 170.101562 L 525.691406 170.101562 C 533.789062 170.101562 540.269531 163.621094 540.269531 154.710938 Z M 540.269531 154.710938 " fill-opacity="1" fill-rule="nonzero"/><path fill="#162b4d" d="M 525.691406 200.878906 L 352.351562 200.878906 C 344.25 200.878906 336.960938 207.359375 336.960938 216.269531 C 336.960938 224.371094 343.441406 231.660156 352.351562 231.660156 L 525.691406 231.660156 C 533.789062 231.660156 541.078125 225.179688 541.078125 216.269531 C 541.078125 207.359375 533.789062 200.878906 525.691406 200.878906 Z M 525.691406 200.878906 " fill-opacity="1" fill-rule="nonzero"/><path fill="#162b4d" d="M 525.691406 261.628906 L 434.96875 261.628906 C 426.871094 261.628906 419.578125 268.109375 419.578125 277.019531 C 419.578125 285.929688 426.058594 292.410156 434.96875 292.410156 L 524.878906 292.410156 C 532.980469 292.410156 540.269531 285.929688 540.269531 277.019531 C 540.269531 268.109375 533.789062 261.628906 525.691406 261.628906 Z M 525.691406 261.628906 " fill-opacity="1" fill-rule="nonzero"/><path fill="#009688" d="M 686.878906 517.589844 C 674.730469 517.589844 663.390625 522.449219 654.480469 531.359375 L 612.359375 573.480469 L 605.070312 566.191406 C 596.160156 557.28125 584.820312 552.421875 572.671875 552.421875 C 560.519531 552.421875 549.179688 557.28125 540.269531 566.191406 C 531.359375 575.101562 526.5 586.441406 526.5 598.589844 C 526.5 610.738281 531.359375 622.078125 540.269531 630.988281 L 579.960938 670.679688 C 588.871094 679.589844 601.019531 684.449219 612.359375 684.449219 C 623.699219 684.449219 635.851562 679.589844 644.761719 670.679688 L 719.28125 596.160156 C 737.101562 578.339844 737.101562 549.179688 719.28125 531.359375 C 710.371094 522.449219 699.03125 517.589844 686.878906 517.589844 Z M 697.410156 574.289062 L 622.890625 648.808594 C 617.21875 654.480469 607.5 654.480469 601.019531 648.808594 L 561.328125 609.121094 C 558.089844 605.878906 556.46875 602.640625 556.46875 598.589844 C 556.46875 594.539062 558.089844 590.488281 561.328125 588.058594 C 564.570312 584.820312 567.808594 583.199219 571.859375 583.199219 C 575.910156 583.199219 579.960938 584.820312 582.390625 588.058594 L 600.210938 605.878906 C 603.449219 609.121094 606.691406 610.738281 610.738281 610.738281 C 614.789062 610.738281 618.839844 609.121094 621.269531 605.878906 L 673.921875 553.230469 C 677.160156 549.988281 680.398438 548.371094 684.449219 548.371094 C 688.5 548.371094 692.550781 549.988281 694.980469 553.230469 C 703.890625 558.898438 703.890625 568.621094 697.410156 574.289062 Z M 697.410156 574.289062 " fill-opacity="1" fill-rule="nonzero"/><path fill="#162b4d" d="M 194.398438 658.53125 C 186.300781 658.53125 179.011719 665.011719 179.011719 673.921875 C 179.011719 682.828125 185.488281 689.308594 194.398438 689.308594 C 202.5 689.308594 209.789062 682.828125 209.789062 673.921875 C 209.789062 665.011719 203.308594 658.53125 194.398438 658.53125 Z M 194.398438 658.53125 " fill-opacity="1" fill-rule="nonzero"/></svg>