<svg xmlns="http://www.w3.org/2000/svg" xmlns:xlink="http://www.w3.org/1999/xlink" width="1080" zoomAndPan="magnify" viewBox="0 0 810 809.999993" height="1080" preserveAspectRatio="xMidYMid meet" version="1.0"><path fill="#162b4d" d="M 408.238281 25.921875 L 241.378906 25.921875 C 234.089844 25.921875 228.421875 31.589844 228.421875 38.878906 L 228.421875 128.789062 L 36.449219 128.789062 C 29.160156 128.789062 23.488281 134.460938 23.488281 141.75 L 23.488281 784.078125 C 23.488281 791.371094 29.160156 797.039062 36.449219 797.039062 L 409.050781 797.039062 C 416.339844 797.039062 422.011719 791.371094 422.011719 784.078125 L 422.011719 38.878906 C 421.199219 31.589844 415.53125 25.921875 408.238281 25.921875 Z M 396.089844 693.359375 L 254.339844 693.359375 L 254.339844 667.441406 L 395.28125 667.441406 L 395.28125 693.359375 Z M 49.410156 218.699219 L 229.230469 218.699219 L 229.230469 604.261719 L 49.410156 604.261719 Z M 396.089844 166.859375 L 254.339844 166.859375 L 254.339844 127.980469 L 395.28125 127.980469 L 395.28125 166.859375 Z M 49.410156 629.371094 L 229.230469 629.371094 L 229.230469 668.25 L 49.410156 668.25 Z M 254.339844 642.328125 L 254.339844 192.78125 L 395.28125 192.78125 L 395.28125 642.328125 Z M 396.089844 51.03125 L 396.089844 102.058594 L 254.339844 102.058594 L 254.339844 51.03125 Z M 228.421875 153.898438 L 228.421875 192.78125 L 49.410156 192.78125 L 49.410156 153.898438 Z M 49.410156 693.359375 L 229.230469 693.359375 L 229.230469 770.308594 L 49.410156 770.308594 Z M 254.339844 770.308594 L 254.339844 719.28125 L 395.28125 719.28125 L 395.28125 770.308594 Z M 254.339844 770.308594 " fill-opacity="1" fill-rule="nonzero"/><path fill="#162b4d" d="M 792.988281 729 L 639.089844 137.699219 C 638.28125 134.460938 635.851562 131.21875 633.421875 129.601562 C 630.179688 127.980469 626.941406 127.171875 623.699219 127.980469 L 430.921875 179.011719 C 424.441406 180.628906 420.390625 187.921875 422.011719 194.398438 L 575.910156 784.890625 C 576.71875 788.128906 579.148438 791.371094 581.578125 792.988281 C 584.820312 794.609375 588.058594 795.421875 591.300781 794.609375 L 784.078125 743.578125 C 791.371094 742.769531 795.421875 735.480469 792.988281 729 Z M 470.609375 280.261719 L 638.28125 235.710938 L 643.949219 259.199219 L 476.28125 303.75 Z M 650.429688 283.5 L 724.949219 569.429688 L 557.28125 613.980469 L 482.761719 328.050781 Z M 731.429688 593.730469 L 744.390625 643.949219 L 576.71875 688.5 L 563.761719 638.28125 Z M 618.03125 157.140625 L 631.800781 210.601562 L 464.128906 255.148438 L 450.359375 201.691406 Z M 597.78125 767.878906 L 583.199219 713.609375 L 750.871094 669.058594 L 764.640625 722.519531 Z M 597.78125 767.878906 " fill-opacity="1" fill-rule="nonzero"/><path fill="#009688" d="M 190.351562 256.769531 L 87.480469 256.769531 C 80.191406 256.769531 74.519531 262.441406 74.519531 269.730469 L 74.519531 372.601562 C 74.519531 379.890625 80.191406 385.558594 87.480469 385.558594 L 190.351562 385.558594 C 197.640625 385.558594 203.308594 379.890625 203.308594 372.601562 L 203.308594 269.730469 C 203.308594 262.441406 197.640625 256.769531 190.351562 256.769531 Z M 177.390625 359.640625 L 100.441406 359.640625 L 100.441406 282.691406 L 177.390625 282.691406 Z M 177.390625 359.640625 " fill-opacity="1" fill-rule="nonzero"/></svg>