<svg xmlns="http://www.w3.org/2000/svg" xmlns:xlink="http://www.w3.org/1999/xlink" width="1080" zoomAndPan="magnify" viewBox="0 0 810 809.999993" height="1080" preserveAspectRatio="xMidYMid meet" version="1.0"><path fill="#162b4d" d="M 790.558594 320.761719 C 790.558594 240.570312 724.949219 174.960938 644.761719 174.960938 C 626.941406 174.960938 609.929688 178.199219 593.730469 184.679688 C 552.421875 135.269531 497.339844 102.058594 435.78125 89.101562 L 435.78125 74.519531 C 435.78125 37.261719 405.808594 7.289062 368.550781 7.289062 C 331.289062 7.289062 301.320312 37.261719 301.320312 74.519531 L 301.320312 92.339844 C 181.441406 125.550781 93.148438 234.898438 93.148438 365.308594 L 93.148438 588.871094 L 85.859375 588.871094 C 48.601562 588.871094 18.628906 618.839844 18.628906 656.101562 C 18.628906 693.359375 48.601562 723.328125 85.859375 723.328125 L 289.980469 723.328125 C 299.699219 766.261719 338.578125 797.851562 383.941406 797.851562 C 429.300781 797.851562 468.179688 766.261719 477.898438 723.328125 L 666.628906 723.328125 C 703.890625 723.328125 733.859375 693.359375 733.859375 656.101562 C 733.859375 618.839844 703.890625 588.871094 666.628906 588.871094 L 659.339844 588.871094 L 659.339844 465.75 C 733.050781 458.460938 790.558594 396.089844 790.558594 320.761719 Z M 761.398438 320.761719 C 761.398438 384.75 709.558594 436.589844 645.570312 436.589844 C 581.578125 436.589844 529.738281 384.75 529.738281 320.761719 C 529.738281 256.769531 581.578125 204.929688 645.570312 204.929688 C 708.75 204.121094 761.398438 256.769531 761.398438 320.761719 Z M 332.101562 74.519531 C 332.101562 54.269531 349.109375 37.261719 369.359375 37.261719 C 389.609375 37.261719 406.621094 54.269531 406.621094 74.519531 L 406.621094 83.429688 C 396.898438 82.621094 387.179688 81.808594 376.648438 81.808594 C 361.261719 81.808594 346.679688 83.429688 332.101562 85.859375 Z M 383.941406 767.878906 C 354.78125 767.878906 330.480469 749.25 320.761719 723.328125 L 447.121094 723.328125 C 438.210938 749.25 413.101562 767.878906 383.941406 767.878906 Z M 667.441406 618.839844 C 687.691406 618.839844 704.699219 635.851562 704.699219 656.101562 C 704.699219 676.351562 687.691406 693.359375 667.441406 693.359375 L 85.859375 693.359375 C 64.800781 693.359375 48.601562 676.351562 48.601562 656.101562 C 48.601562 635.851562 65.609375 618.839844 85.859375 618.839844 L 108.539062 618.839844 C 116.640625 618.839844 123.121094 612.359375 123.121094 604.261719 L 123.121094 365.308594 C 123.121094 225.179688 236.519531 111.78125 376.648438 111.78125 C 449.550781 111.78125 518.398438 143.371094 566.191406 197.640625 C 525.691406 223.558594 498.960938 268.921875 498.960938 320.761719 C 498.960938 396.089844 556.46875 458.460938 630.179688 465.75 L 630.179688 603.449219 C 630.179688 611.550781 636.660156 618.03125 644.761719 618.03125 L 667.441406 618.03125 Z M 667.441406 618.839844 " fill-opacity="1" fill-rule="nonzero"/><path fill="#162b4d" d="M 605.070312 375.839844 C 609.121094 375.839844 612.359375 374.21875 615.601562 371.789062 L 655.289062 332.101562 C 657.71875 329.671875 659.339844 325.621094 659.339844 321.570312 L 659.339844 264.871094 C 659.339844 256.769531 652.859375 250.289062 644.761719 250.289062 C 636.660156 250.289062 630.179688 256.769531 630.179688 264.871094 L 630.179688 315.898438 L 594.539062 351.539062 C 588.871094 357.210938 588.871094 366.929688 594.539062 372.601562 C 597.78125 374.21875 601.019531 375.839844 605.070312 375.839844 Z M 605.070312 375.839844 " fill-opacity="1" fill-rule="nonzero"/><path fill="#009688" d="M 421.199219 588.871094 L 391.230469 588.871094 C 383.128906 588.871094 376.648438 595.351562 376.648438 603.449219 C 376.648438 611.550781 383.128906 618.03125 391.230469 618.03125 L 421.199219 618.03125 C 429.300781 618.03125 435.78125 611.550781 435.78125 603.449219 C 435.78125 595.351562 429.300781 588.871094 421.199219 588.871094 Z M 421.199219 588.871094 " fill-opacity="1" fill-rule="nonzero"/><path fill="#009688" d="M 336.960938 588.871094 L 183.058594 588.871094 C 174.960938 588.871094 168.480469 595.351562 168.480469 603.449219 C 168.480469 611.550781 174.960938 618.03125 183.058594 618.03125 L 336.960938 618.03125 C 345.058594 618.03125 351.539062 611.550781 351.539062 603.449219 C 351.539062 595.351562 345.058594 588.871094 336.960938 588.871094 Z M 336.960938 588.871094 " fill-opacity="1" fill-rule="nonzero"/></svg>