<svg xmlns="http://www.w3.org/2000/svg" xmlns:xlink="http://www.w3.org/1999/xlink" width="1080" zoomAndPan="magnify" viewBox="0 0 810 809.999993" height="1080" preserveAspectRatio="xMidYMid meet" version="1.0"><path fill="#162b4d" d="M 763.828125 32.398438 L 57.511719 32.398438 C 35.640625 32.398438 17.820312 49.410156 17.820312 71.28125 L 17.820312 751.679688 C 17.820312 773.550781 35.640625 790.558594 56.699219 790.558594 L 763.019531 790.558594 C 784.890625 790.558594 801.898438 772.738281 801.898438 751.679688 L 801.898438 71.28125 C 803.519531 49.410156 785.699219 32.398438 763.828125 32.398438 Z M 57.511719 58.320312 L 763.828125 58.320312 C 771.121094 58.320312 776.789062 63.988281 776.789062 71.28125 L 776.789062 136.890625 L 44.550781 136.890625 L 44.550781 71.28125 C 44.550781 63.988281 50.21875 58.320312 57.511719 58.320312 Z M 763.828125 764.640625 L 57.511719 764.640625 C 50.21875 764.640625 44.550781 758.96875 44.550781 751.679688 L 44.550781 162.808594 L 777.601562 162.808594 L 777.601562 751.679688 C 776.789062 758.96875 771.121094 764.640625 763.828125 764.640625 Z M 763.828125 764.640625 " fill-opacity="1" fill-rule="nonzero"/><path fill="#162b4d" d="M 200.878906 97.199219 C 200.878906 98.050781 200.796875 98.894531 200.632812 99.726562 C 200.464844 100.5625 200.21875 101.375 199.894531 102.160156 C 199.566406 102.945312 199.167969 103.691406 198.695312 104.398438 C 198.222656 105.109375 197.6875 105.761719 197.085938 106.363281 C 196.480469 106.964844 195.828125 107.503906 195.121094 107.976562 C 194.414062 108.449219 193.664062 108.847656 192.878906 109.171875 C 192.09375 109.5 191.28125 109.746094 190.449219 109.910156 C 189.613281 110.078125 188.769531 110.160156 187.921875 110.160156 C 187.070312 110.160156 186.226562 110.078125 185.390625 109.910156 C 184.558594 109.746094 183.746094 109.5 182.960938 109.171875 C 182.175781 108.847656 181.425781 108.449219 180.71875 107.976562 C 180.011719 107.503906 179.359375 106.964844 178.757812 106.363281 C 178.152344 105.761719 177.617188 105.109375 177.144531 104.398438 C 176.671875 103.691406 176.273438 102.945312 175.945312 102.160156 C 175.621094 101.375 175.375 100.5625 175.210938 99.726562 C 175.042969 98.894531 174.960938 98.050781 174.960938 97.199219 C 174.960938 96.347656 175.042969 95.507812 175.210938 94.671875 C 175.375 93.835938 175.621094 93.027344 175.945312 92.242188 C 176.273438 91.453125 176.671875 90.707031 177.144531 90 C 177.617188 89.292969 178.152344 88.636719 178.757812 88.035156 C 179.359375 87.433594 180.011719 86.898438 180.71875 86.425781 C 181.425781 85.953125 182.175781 85.550781 182.960938 85.226562 C 183.746094 84.902344 184.558594 84.65625 185.390625 84.488281 C 186.226562 84.324219 187.070312 84.238281 187.921875 84.238281 C 188.769531 84.238281 189.613281 84.324219 190.449219 84.488281 C 191.28125 84.65625 192.09375 84.902344 192.878906 85.226562 C 193.664062 85.550781 194.414062 85.953125 195.121094 86.425781 C 195.828125 86.898438 196.480469 87.433594 197.085938 88.035156 C 197.6875 88.636719 198.222656 89.292969 198.695312 90 C 199.167969 90.707031 199.566406 91.453125 199.894531 92.242188 C 200.21875 93.027344 200.464844 93.835938 200.632812 94.671875 C 200.796875 95.507812 200.878906 96.347656 200.878906 97.199219 Z M 200.878906 97.199219 " fill-opacity="1" fill-rule="nonzero"/><path fill="#162b4d" d="M 149.039062 97.199219 C 149.039062 98.050781 148.957031 98.894531 148.789062 99.726562 C 148.625 100.5625 148.378906 101.375 148.054688 102.160156 C 147.726562 102.945312 147.328125 103.691406 146.855469 104.398438 C 146.382812 105.109375 145.847656 105.761719 145.242188 106.363281 C 144.640625 106.964844 143.988281 107.503906 143.28125 107.976562 C 142.574219 108.449219 141.824219 108.847656 141.039062 109.171875 C 140.253906 109.5 139.441406 109.746094 138.609375 109.910156 C 137.773438 110.078125 136.929688 110.160156 136.078125 110.160156 C 135.230469 110.160156 134.386719 110.078125 133.550781 109.910156 C 132.71875 109.746094 131.90625 109.5 131.121094 109.171875 C 130.335938 108.847656 129.585938 108.449219 128.878906 107.976562 C 128.171875 107.503906 127.519531 106.964844 126.914062 106.363281 C 126.3125 105.761719 125.777344 105.109375 125.304688 104.398438 C 124.832031 103.691406 124.433594 102.945312 124.105469 102.160156 C 123.78125 101.375 123.535156 100.5625 123.367188 99.726562 C 123.203125 98.894531 123.121094 98.050781 123.121094 97.199219 C 123.121094 96.347656 123.203125 95.507812 123.367188 94.671875 C 123.535156 93.835938 123.78125 93.027344 124.105469 92.242188 C 124.433594 91.453125 124.832031 90.707031 125.304688 90 C 125.777344 89.292969 126.3125 88.636719 126.914062 88.035156 C 127.519531 87.433594 128.171875 86.898438 128.878906 86.425781 C 129.585938 85.953125 130.335938 85.550781 131.121094 85.226562 C 131.90625 84.902344 132.71875 84.65625 133.550781 84.488281 C 134.386719 84.324219 135.230469 84.238281 136.078125 84.238281 C 136.929688 84.238281 137.773438 84.324219 138.609375 84.488281 C 139.441406 84.65625 140.253906 84.902344 141.039062 85.226562 C 141.824219 85.550781 142.574219 85.953125 143.28125 86.425781 C 143.988281 86.898438 144.640625 87.433594 145.242188 88.035156 C 145.847656 88.636719 146.382812 89.292969 146.855469 90 C 147.328125 90.707031 147.726562 91.453125 148.054688 92.242188 C 148.378906 93.027344 148.625 93.835938 148.789062 94.671875 C 148.957031 95.507812 149.039062 96.347656 149.039062 97.199219 Z M 149.039062 97.199219 " fill-opacity="1" fill-rule="nonzero"/><path fill="#162b4d" d="M 96.390625 97.199219 C 96.390625 98.050781 96.308594 98.894531 96.140625 99.726562 C 95.976562 100.5625 95.730469 101.375 95.402344 102.160156 C 95.078125 102.945312 94.679688 103.691406 94.207031 104.398438 C 93.734375 105.109375 93.195312 105.761719 92.59375 106.363281 C 91.992188 106.964844 91.335938 107.503906 90.628906 107.976562 C 89.921875 108.449219 89.175781 108.847656 88.390625 109.171875 C 87.601562 109.5 86.792969 109.746094 85.957031 109.910156 C 85.125 110.078125 84.28125 110.160156 83.429688 110.160156 C 82.578125 110.160156 81.734375 110.078125 80.902344 109.910156 C 80.066406 109.746094 79.257812 109.5 78.46875 109.171875 C 77.683594 108.847656 76.9375 108.449219 76.230469 107.976562 C 75.523438 107.503906 74.867188 106.964844 74.265625 106.363281 C 73.664062 105.761719 73.125 105.109375 72.652344 104.398438 C 72.179688 103.691406 71.78125 102.945312 71.457031 102.160156 C 71.132812 101.375 70.886719 100.5625 70.71875 99.726562 C 70.554688 98.894531 70.46875 98.050781 70.46875 97.199219 C 70.46875 96.347656 70.554688 95.507812 70.71875 94.671875 C 70.886719 93.835938 71.132812 93.027344 71.457031 92.242188 C 71.78125 91.453125 72.179688 90.707031 72.652344 90 C 73.125 89.292969 73.664062 88.636719 74.265625 88.035156 C 74.867188 87.433594 75.523438 86.898438 76.230469 86.425781 C 76.9375 85.953125 77.683594 85.550781 78.46875 85.226562 C 79.257812 84.902344 80.066406 84.65625 80.902344 84.488281 C 81.734375 84.324219 82.578125 84.238281 83.429688 84.238281 C 84.28125 84.238281 85.125 84.324219 85.957031 84.488281 C 86.792969 84.65625 87.601562 84.902344 88.390625 85.226562 C 89.175781 85.550781 89.921875 85.953125 90.628906 86.425781 C 91.335938 86.898438 91.992188 87.433594 92.59375 88.035156 C 93.195312 88.636719 93.734375 89.292969 94.207031 90 C 94.679688 90.707031 95.078125 91.453125 95.402344 92.242188 C 95.730469 93.027344 95.976562 93.835938 96.140625 94.671875 C 96.308594 95.507812 96.390625 96.347656 96.390625 97.199219 Z M 96.390625 97.199219 " fill-opacity="1" fill-rule="nonzero"/><path fill="#009688" d="M 345.058594 241.378906 L 476.28125 241.378906 C 483.570312 241.378906 489.238281 235.710938 489.238281 228.421875 C 489.238281 221.128906 483.570312 215.460938 476.28125 215.460938 L 345.058594 215.460938 C 337.769531 215.460938 332.101562 221.128906 332.101562 228.421875 C 332.101562 235.710938 337.769531 241.378906 345.058594 241.378906 Z M 345.058594 241.378906 " fill-opacity="1" fill-rule="nonzero"/><path fill="#162b4d" d="M 567.808594 268.109375 L 253.53125 268.109375 C 246.238281 268.109375 240.570312 273.78125 240.570312 281.070312 L 240.570312 333.71875 C 240.570312 341.011719 246.238281 346.679688 253.53125 346.679688 L 567.808594 346.679688 C 575.101562 346.679688 580.769531 341.011719 580.769531 333.71875 L 580.769531 281.070312 C 580.769531 273.78125 575.101562 268.109375 567.808594 268.109375 Z M 554.851562 319.949219 L 266.488281 319.949219 L 266.488281 294.03125 L 554.039062 294.03125 L 554.039062 319.949219 Z M 554.851562 319.949219 " fill-opacity="1" fill-rule="nonzero"/><path fill="#009688" d="M 567.808594 372.601562 L 253.53125 372.601562 C 246.238281 372.601562 240.570312 378.269531 240.570312 385.558594 L 240.570312 438.210938 C 240.570312 445.5 246.238281 451.171875 253.53125 451.171875 L 567.808594 451.171875 C 575.101562 451.171875 580.769531 445.5 580.769531 438.210938 L 580.769531 385.558594 C 580.769531 378.269531 575.101562 372.601562 567.808594 372.601562 Z M 554.851562 424.441406 L 266.488281 424.441406 L 266.488281 398.519531 L 554.039062 398.519531 L 554.039062 424.441406 Z M 554.851562 424.441406 " fill-opacity="1" fill-rule="nonzero"/><path fill="#162b4d" d="M 567.808594 477.089844 L 253.53125 477.089844 C 246.238281 477.089844 240.570312 482.761719 240.570312 490.050781 L 240.570312 594.539062 C 240.570312 601.828125 246.238281 607.5 253.53125 607.5 L 567.808594 607.5 C 575.101562 607.5 580.769531 601.828125 580.769531 594.539062 L 580.769531 490.050781 C 580.769531 482.761719 575.101562 477.089844 567.808594 477.089844 Z M 554.851562 581.578125 L 266.488281 581.578125 L 266.488281 503.011719 L 554.039062 503.011719 L 554.039062 581.578125 Z M 554.851562 581.578125 " fill-opacity="1" fill-rule="nonzero"/><path fill="#162b4d" d="M 436.589844 634.230469 L 383.941406 634.230469 C 362.070312 634.230469 345.058594 652.050781 345.058594 673.109375 C 345.058594 694.980469 362.878906 711.988281 383.941406 711.988281 L 436.589844 711.988281 C 458.460938 711.988281 475.46875 694.171875 475.46875 673.109375 C 476.28125 652.050781 458.460938 634.230469 436.589844 634.230469 Z M 436.589844 686.878906 L 383.941406 686.878906 C 376.648438 686.878906 370.980469 681.210938 370.980469 673.921875 C 370.980469 666.628906 376.648438 660.960938 383.941406 660.960938 L 436.589844 660.960938 C 443.878906 660.960938 449.550781 666.628906 449.550781 673.921875 C 449.550781 681.210938 443.878906 686.878906 436.589844 686.878906 Z M 436.589844 686.878906 " fill-opacity="1" fill-rule="nonzero"/></svg>