<svg xmlns="http://www.w3.org/2000/svg" xmlns:xlink="http://www.w3.org/1999/xlink" width="1080" zoomAndPan="magnify" viewBox="0 0 810 809.999993" height="1080" preserveAspectRatio="xMidYMid meet" version="1.0"><path fill="#009688" d="M 405.648438 359.640625 C 404.136719 359.640625 402.625 359.675781 401.117188 359.746094 C 399.605469 359.820312 398.097656 359.929688 396.59375 360.078125 C 395.089844 360.222656 393.589844 360.40625 392.09375 360.628906 C 390.597656 360.847656 389.109375 361.105469 387.625 361.398438 C 386.140625 361.695312 384.667969 362.023438 383.199219 362.390625 C 381.734375 362.753906 380.277344 363.15625 378.828125 363.59375 C 377.382812 364.035156 375.949219 364.507812 374.523438 365.015625 C 373.101562 365.523438 371.691406 366.066406 370.292969 366.644531 C 368.894531 367.21875 367.511719 367.832031 366.144531 368.476562 C 364.777344 369.121094 363.429688 369.800781 362.09375 370.511719 C 360.761719 371.226562 359.445312 371.96875 358.148438 372.746094 C 356.851562 373.523438 355.574219 374.328125 354.316406 375.167969 C 353.058594 376.007812 351.824219 376.875 350.609375 377.777344 C 349.394531 378.675781 348.199219 379.605469 347.03125 380.5625 C 345.863281 381.523438 344.71875 382.507812 343.597656 383.523438 C 342.476562 384.539062 341.378906 385.578125 340.3125 386.648438 C 339.242188 387.714844 338.199219 388.808594 337.183594 389.929688 C 336.167969 391.050781 335.179688 392.191406 334.21875 393.359375 C 333.257812 394.527344 332.328125 395.71875 331.429688 396.933594 C 330.527344 398.148438 329.65625 399.382812 328.816406 400.640625 C 327.976562 401.894531 327.164062 403.171875 326.386719 404.46875 C 325.609375 405.765625 324.863281 407.078125 324.152344 408.414062 C 323.4375 409.746094 322.757812 411.09375 322.109375 412.460938 C 321.464844 413.828125 320.851562 415.210938 320.269531 416.605469 C 319.691406 418.003906 319.148438 419.410156 318.636719 420.835938 C 318.128906 422.257812 317.652344 423.691406 317.214844 425.140625 C 316.773438 426.585938 316.371094 428.042969 316.003906 429.507812 C 315.636719 430.976562 315.304688 432.449219 315.007812 433.933594 C 314.710938 435.414062 314.453125 436.902344 314.230469 438.398438 C 314.007812 439.894531 313.824219 441.394531 313.675781 442.898438 C 313.527344 444.402344 313.414062 445.910156 313.339844 447.421875 C 313.265625 448.929688 313.226562 450.441406 313.226562 451.953125 C 313.226562 453.464844 313.261719 454.976562 313.335938 456.484375 C 313.410156 457.996094 313.523438 459.503906 313.667969 461.007812 C 313.816406 462.511719 314 464.011719 314.222656 465.507812 C 314.445312 467.003906 314.703125 468.492188 314.996094 469.976562 C 315.292969 471.457031 315.621094 472.933594 315.988281 474.398438 C 316.355469 475.867188 316.757812 477.320312 317.199219 478.769531 C 317.636719 480.214844 318.109375 481.652344 318.621094 483.074219 C 319.128906 484.496094 319.671875 485.90625 320.25 487.304688 C 320.828125 488.703125 321.441406 490.082031 322.085938 491.449219 C 322.734375 492.816406 323.414062 494.167969 324.125 495.5 C 324.839844 496.832031 325.582031 498.148438 326.359375 499.445312 C 327.136719 500.742188 327.945312 502.019531 328.785156 503.277344 C 329.625 504.53125 330.496094 505.769531 331.394531 506.984375 C 332.296875 508.195312 333.226562 509.386719 334.183594 510.558594 C 335.144531 511.726562 336.132812 512.871094 337.144531 513.992188 C 338.160156 515.109375 339.203125 516.207031 340.273438 517.273438 C 341.339844 518.34375 342.4375 519.386719 343.554688 520.402344 C 344.675781 521.414062 345.820312 522.402344 346.988281 523.363281 C 348.160156 524.320312 349.351562 525.25 350.5625 526.152344 C 351.777344 527.050781 353.015625 527.921875 354.269531 528.761719 C 355.527344 529.601562 356.804688 530.410156 358.101562 531.1875 C 359.398438 531.964844 360.714844 532.707031 362.046875 533.421875 C 363.378906 534.132812 364.730469 534.8125 366.097656 535.460938 C 367.464844 536.105469 368.84375 536.71875 370.242188 537.296875 C 371.640625 537.875 373.050781 538.417969 374.472656 538.925781 C 375.894531 539.4375 377.332031 539.910156 378.777344 540.347656 C 380.226562 540.789062 381.683594 541.191406 383.148438 541.558594 C 384.613281 541.925781 386.089844 542.253906 387.570312 542.550781 C 389.054688 542.84375 390.542969 543.101562 392.039062 543.324219 C 393.535156 543.546875 395.035156 543.730469 396.539062 543.878906 C 398.042969 544.027344 399.550781 544.136719 401.0625 544.210938 C 402.570312 544.285156 404.082031 544.320312 405.59375 544.320312 C 407.105469 544.320312 408.617188 544.28125 410.125 544.207031 C 411.636719 544.132812 413.144531 544.019531 414.648438 543.871094 C 416.152344 543.722656 417.652344 543.539062 419.148438 543.316406 C 420.644531 543.09375 422.132812 542.835938 423.613281 542.539062 C 425.097656 542.242188 426.570312 541.910156 428.039062 541.542969 C 429.503906 541.175781 430.960938 540.773438 432.40625 540.332031 C 433.855469 539.894531 435.289062 539.417969 436.710938 538.910156 C 438.136719 538.398438 439.542969 537.855469 440.941406 537.277344 C 442.335938 536.695312 443.71875 536.082031 445.085938 535.4375 C 446.453125 534.789062 447.800781 534.109375 449.132812 533.394531 C 450.46875 532.683594 451.78125 531.9375 453.078125 531.160156 C 454.375 530.382812 455.652344 529.570312 456.90625 528.730469 C 458.164062 527.890625 459.398438 527.019531 460.613281 526.117188 C 461.828125 525.21875 463.019531 524.289062 464.1875 523.328125 C 465.355469 522.367188 466.496094 521.378906 467.617188 520.363281 C 468.738281 519.347656 469.832031 518.304688 470.898438 517.234375 C 471.96875 516.167969 473.007812 515.070312 474.023438 513.949219 C 475.039062 512.828125 476.023438 511.683594 476.984375 510.515625 C 477.941406 509.347656 478.871094 508.152344 479.769531 506.9375 C 480.671875 505.722656 481.539062 504.488281 482.378906 503.230469 C 483.21875 501.972656 484.023438 500.695312 484.800781 499.398438 C 485.578125 498.101562 486.320312 496.785156 487.035156 495.453125 C 487.746094 494.117188 488.425781 492.769531 489.070312 491.402344 C 489.714844 490.035156 490.328125 488.652344 490.902344 487.253906 C 491.480469 485.859375 492.023438 484.445312 492.53125 483.023438 C 493.039062 481.597656 493.511719 480.164062 493.953125 478.71875 C 494.390625 477.269531 494.792969 475.8125 495.15625 474.347656 C 495.523438 472.878906 495.851562 471.40625 496.148438 469.921875 C 496.441406 468.4375 496.699219 466.949219 496.917969 465.453125 C 497.140625 463.957031 497.324219 462.457031 497.46875 460.953125 C 497.617188 459.449219 497.726562 457.941406 497.800781 456.433594 C 497.871094 454.921875 497.910156 453.410156 497.90625 451.898438 C 497.910156 450.390625 497.871094 448.878906 497.800781 447.371094 C 497.726562 445.863281 497.617188 444.355469 497.46875 442.851562 C 497.324219 441.351562 497.140625 439.851562 496.917969 438.359375 C 496.699219 436.863281 496.441406 435.375 496.148438 433.894531 C 495.855469 432.414062 495.523438 430.941406 495.15625 429.476562 C 494.792969 428.007812 494.390625 426.554688 493.953125 425.109375 C 493.515625 423.664062 493.042969 422.230469 492.535156 420.808594 C 492.027344 419.386719 491.484375 417.976562 490.90625 416.582031 C 490.328125 415.183594 489.71875 413.804688 489.070312 412.4375 C 488.425781 411.074219 487.75 409.722656 487.035156 408.390625 C 486.324219 407.058594 485.582031 405.746094 484.804688 404.449219 C 484.03125 403.15625 483.222656 401.878906 482.382812 400.625 C 481.542969 399.367188 480.675781 398.132812 479.777344 396.917969 C 478.875 395.707031 477.949219 394.515625 476.988281 393.347656 C 476.03125 392.179688 475.046875 391.039062 474.03125 389.917969 C 473.019531 388.800781 471.976562 387.707031 470.910156 386.636719 C 469.839844 385.570312 468.746094 384.53125 467.628906 383.515625 C 466.507812 382.5 465.367188 381.515625 464.199219 380.558594 C 463.03125 379.597656 461.839844 378.671875 460.628906 377.769531 C 459.414062 376.871094 458.179688 376.003906 456.921875 375.164062 C 455.667969 374.324219 454.390625 373.515625 453.097656 372.742188 C 451.800781 371.964844 450.488281 371.222656 449.15625 370.511719 C 447.824219 369.796875 446.472656 369.121094 445.109375 368.476562 C 443.742188 367.828125 442.363281 367.21875 440.964844 366.640625 C 439.570312 366.0625 438.164062 365.519531 436.738281 365.011719 C 435.316406 364.503906 433.882812 364.03125 432.4375 363.59375 C 430.992188 363.15625 429.539062 362.753906 428.074219 362.390625 C 426.605469 362.023438 425.132812 361.691406 423.652344 361.398438 C 422.171875 361.105469 420.683594 360.847656 419.1875 360.628906 C 417.695312 360.40625 416.195312 360.222656 414.695312 360.078125 C 413.191406 359.929688 411.683594 359.820312 410.175781 359.746094 C 408.667969 359.675781 407.160156 359.640625 405.648438 359.640625 Z M 405.648438 510.058594 C 403.742188 510.058594 401.84375 509.96875 399.945312 509.785156 C 398.050781 509.601562 396.167969 509.324219 394.296875 508.953125 C 392.429688 508.585938 390.582031 508.125 388.757812 507.574219 C 386.933594 507.023438 385.140625 506.386719 383.378906 505.660156 C 381.617188 504.933594 379.898438 504.121094 378.214844 503.222656 C 376.535156 502.328125 374.902344 501.351562 373.316406 500.296875 C 371.730469 499.238281 370.199219 498.105469 368.726562 496.898438 C 367.25 495.691406 365.839844 494.417969 364.492188 493.070312 C 363.140625 491.726562 361.863281 490.316406 360.652344 488.84375 C 359.441406 487.375 358.304688 485.847656 357.246094 484.261719 C 356.1875 482.679688 355.207031 481.050781 354.304688 479.371094 C 353.40625 477.691406 352.589844 475.972656 351.859375 474.210938 C 351.128906 472.453125 350.484375 470.660156 349.929688 468.839844 C 349.375 467.015625 348.910156 465.167969 348.539062 463.300781 C 348.164062 461.433594 347.882812 459.550781 347.695312 457.65625 C 347.507812 455.757812 347.410156 453.859375 347.410156 451.953125 C 347.40625 450.046875 347.5 448.148438 347.683594 446.25 C 347.867188 444.355469 348.148438 442.472656 348.515625 440.601562 C 348.886719 438.734375 349.347656 436.886719 349.898438 435.0625 C 350.449219 433.238281 351.089844 431.449219 351.816406 429.6875 C 352.546875 427.925781 353.359375 426.203125 354.253906 424.523438 C 355.152344 422.84375 356.128906 421.210938 357.1875 419.625 C 358.242188 418.039062 359.375 416.511719 360.582031 415.035156 C 361.792969 413.5625 363.066406 412.152344 364.414062 410.804688 C 365.761719 409.457031 367.167969 408.175781 368.640625 406.96875 C 370.113281 405.757812 371.640625 404.621094 373.226562 403.5625 C 374.808594 402.503906 376.441406 401.523438 378.121094 400.625 C 379.800781 399.726562 381.519531 398.910156 383.28125 398.179688 C 385.039062 397.449219 386.832031 396.808594 388.652344 396.253906 C 390.476562 395.699219 392.324219 395.238281 394.191406 394.863281 C 396.058594 394.492188 397.941406 394.210938 399.839844 394.023438 C 401.734375 393.835938 403.632812 393.742188 405.539062 393.742188 C 407.445312 393.742188 409.347656 393.832031 411.242188 394.019531 C 413.136719 394.203125 415.019531 394.484375 416.890625 394.855469 C 418.757812 395.226562 420.605469 395.6875 422.429688 396.238281 C 424.25 396.792969 426.042969 397.433594 427.804688 398.160156 C 429.566406 398.890625 431.285156 399.703125 432.964844 400.601562 C 434.648438 401.496094 436.28125 402.476562 437.863281 403.53125 C 439.449219 404.589844 440.976562 405.722656 442.449219 406.933594 C 443.921875 408.140625 445.332031 409.417969 446.679688 410.765625 C 448.027344 412.113281 449.308594 413.523438 450.515625 414.996094 C 451.726562 416.46875 452.859375 417.996094 453.917969 419.578125 C 454.976562 421.164062 455.957031 422.796875 456.855469 424.476562 C 457.753906 426.15625 458.566406 427.875 459.296875 429.636719 C 460.023438 431.398438 460.667969 433.1875 461.21875 435.011719 C 461.773438 436.835938 462.234375 438.679688 462.605469 440.550781 C 462.980469 442.417969 463.257812 444.300781 463.445312 446.195312 C 463.632812 448.09375 463.726562 449.992188 463.726562 451.898438 C 463.734375 453.808594 463.648438 455.710938 463.46875 457.609375 C 463.289062 459.511719 463.015625 461.398438 462.652344 463.269531 C 462.285156 465.140625 461.828125 466.992188 461.28125 468.820312 C 460.734375 470.648438 460.101562 472.445312 459.375 474.210938 C 458.652344 475.976562 457.84375 477.703125 456.949219 479.386719 C 456.054688 481.074219 455.082031 482.710938 454.023438 484.300781 C 452.96875 485.890625 451.839844 487.425781 450.632812 488.902344 C 449.425781 490.382812 448.152344 491.796875 446.804688 493.152344 C 445.460938 494.503906 444.050781 495.789062 442.578125 497.003906 C 441.109375 498.21875 439.578125 499.355469 437.996094 500.421875 C 436.410156 501.484375 434.78125 502.46875 433.097656 503.371094 C 431.417969 504.273438 429.695312 505.09375 427.933594 505.828125 C 426.175781 506.558594 424.382812 507.207031 422.554688 507.761719 C 420.730469 508.320312 418.882812 508.789062 417.011719 509.164062 C 415.140625 509.539062 413.257812 509.820312 411.359375 510.011719 C 409.460938 510.199219 407.554688 510.296875 405.648438 510.300781 Z M 405.648438 510.058594 " fill-opacity="1" fill-rule="nonzero"/><path fill="#162b4d" d="M 471.421875 583.929688 L 340.199219 583.929688 C 337.851562 583.921875 335.503906 583.976562 333.160156 584.085938 C 330.8125 584.195312 328.472656 584.363281 326.132812 584.589844 C 323.796875 584.8125 321.464844 585.097656 319.140625 585.4375 C 316.816406 585.777344 314.503906 586.171875 312.199219 586.625 C 309.894531 587.082031 307.605469 587.589844 305.324219 588.15625 C 303.046875 588.722656 300.78125 589.34375 298.535156 590.023438 C 296.285156 590.699219 294.054688 591.433594 291.84375 592.21875 C 289.628906 593.007812 287.4375 593.847656 285.265625 594.742188 C 283.09375 595.636719 280.945312 596.585938 278.824219 597.585938 C 276.699219 598.585938 274.597656 599.640625 272.527344 600.742188 C 270.453125 601.847656 268.410156 603 266.394531 604.207031 C 264.378906 605.410156 262.390625 606.664062 260.4375 607.964844 C 258.484375 609.265625 256.5625 610.617188 254.671875 612.011719 C 252.785156 613.410156 250.933594 614.851562 249.117188 616.339844 C 247.296875 617.824219 245.519531 619.355469 243.777344 620.933594 C 242.035156 622.507812 240.332031 624.125 238.671875 625.78125 C 237.007812 627.441406 235.386719 629.140625 233.808594 630.878906 C 232.230469 632.617188 230.695312 634.394531 229.203125 636.207031 C 227.710938 638.019531 226.265625 639.871094 224.863281 641.753906 C 223.464844 643.640625 222.109375 645.558594 220.804688 647.507812 C 219.496094 649.460938 218.238281 651.445312 217.03125 653.457031 C 215.820312 655.46875 214.664062 657.511719 213.554688 659.582031 C 212.445312 661.652344 211.390625 663.75 210.382812 665.871094 C 209.378906 667.992188 208.425781 670.140625 207.523438 672.308594 C 206.625 674.476562 205.777344 676.667969 204.988281 678.878906 C 204.195312 681.089844 203.457031 683.316406 202.773438 685.566406 C 202.09375 687.8125 201.464844 690.074219 200.894531 692.351562 C 200.320312 694.628906 199.808594 696.921875 199.347656 699.222656 C 198.890625 701.527344 198.488281 703.839844 198.140625 706.164062 C 197.796875 708.484375 197.507812 710.816406 197.277344 713.152344 C 197.046875 715.488281 196.875 717.832031 196.761719 720.175781 C 196.644531 722.523438 196.585938 724.871094 196.585938 727.21875 L 196.585938 801.898438 L 614.707031 801.898438 L 614.707031 727.21875 C 614.707031 724.871094 614.652344 722.53125 614.535156 720.1875 C 614.421875 717.84375 614.25 715.507812 614.019531 713.171875 C 613.789062 710.839844 613.503906 708.511719 613.15625 706.191406 C 612.8125 703.875 612.414062 701.5625 611.957031 699.261719 C 611.5 696.964844 610.984375 694.675781 610.414062 692.402344 C 609.84375 690.125 609.21875 687.867188 608.539062 685.625 C 607.859375 683.378906 607.121094 681.152344 606.332031 678.945312 C 605.542969 676.738281 604.699219 674.550781 603.800781 672.382812 C 602.902344 670.21875 601.953125 668.074219 600.953125 665.953125 C 599.949219 663.835938 598.894531 661.738281 597.789062 659.671875 C 596.683594 657.605469 595.527344 655.5625 594.324219 653.550781 C 593.117188 651.542969 591.863281 649.5625 590.558594 647.609375 C 589.257812 645.660156 587.90625 643.746094 586.511719 641.859375 C 585.113281 639.976562 583.671875 638.128906 582.183594 636.316406 C 580.695312 634.503906 579.164062 632.730469 577.589844 630.992188 C 576.015625 629.253906 574.398438 627.554688 572.742188 625.898438 C 571.082031 624.238281 569.382812 622.621094 567.648438 621.046875 C 565.910156 619.472656 564.132812 617.941406 562.320312 616.453125 C 560.507812 614.964844 558.660156 613.523438 556.777344 612.128906 C 554.894531 610.730469 552.976562 609.378906 551.027344 608.078125 C 549.078125 606.773438 547.097656 605.519531 545.085938 604.316406 C 543.074219 603.109375 541.035156 601.953125 538.964844 600.847656 C 536.898438 599.742188 534.804688 598.6875 532.683594 597.6875 C 530.5625 596.683594 528.421875 595.734375 526.253906 594.835938 C 524.085938 593.9375 521.902344 593.09375 519.691406 592.304688 C 517.484375 591.515625 515.257812 590.78125 513.015625 590.097656 C 510.769531 589.417969 508.511719 588.792969 506.238281 588.222656 C 503.960938 587.652344 501.675781 587.140625 499.375 586.683594 C 497.074219 586.226562 494.765625 585.824219 492.445312 585.480469 C 490.125 585.136719 487.796875 584.847656 485.464844 584.617188 C 483.132812 584.390625 480.792969 584.214844 478.449219 584.101562 C 476.109375 583.988281 473.765625 583.929688 471.421875 583.929688 Z M 580.527344 767.71875 L 230.769531 767.71875 L 230.769531 727.21875 C 230.769531 725.429688 230.816406 723.640625 230.90625 721.855469 C 230.992188 720.070312 231.125 718.285156 231.304688 716.507812 C 231.480469 714.726562 231.699219 712.953125 231.964844 711.183594 C 232.230469 709.414062 232.535156 707.652344 232.886719 705.898438 C 233.238281 704.144531 233.628906 702.398438 234.066406 700.664062 C 234.503906 698.929688 234.980469 697.207031 235.503906 695.496094 C 236.023438 693.785156 236.585938 692.089844 237.191406 690.40625 C 237.796875 688.722656 238.441406 687.054688 239.125 685.402344 C 239.8125 683.75 240.539062 682.117188 241.304688 680.5 C 242.074219 678.882812 242.878906 677.289062 243.722656 675.710938 C 244.570312 674.136719 245.453125 672.582031 246.375 671.046875 C 247.296875 669.515625 248.253906 668.003906 249.25 666.519531 C 250.246094 665.035156 251.277344 663.574219 252.34375 662.136719 C 253.410156 660.703125 254.511719 659.292969 255.648438 657.914062 C 256.785156 656.53125 257.957031 655.179688 259.160156 653.855469 C 260.363281 652.53125 261.597656 651.238281 262.863281 649.976562 C 264.128906 648.714844 265.425781 647.484375 266.753906 646.285156 C 268.082031 645.085938 269.4375 643.917969 270.820312 642.785156 C 272.207031 641.652344 273.617188 640.554688 275.054688 639.492188 C 276.496094 638.429688 277.957031 637.402344 279.445312 636.410156 C 280.9375 635.417969 282.449219 634.464844 283.984375 633.550781 C 285.519531 632.632812 287.078125 631.753906 288.65625 630.914062 C 290.234375 630.074219 291.832031 629.273438 293.453125 628.507812 C 295.070312 627.746094 296.707031 627.027344 298.359375 626.34375 C 300.011719 625.664062 301.683594 625.023438 303.367188 624.421875 C 305.054688 623.824219 306.753906 623.265625 308.464844 622.75 C 310.175781 622.234375 311.902344 621.761719 313.636719 621.332031 C 315.375 620.898438 317.117188 620.511719 318.875 620.164062 C 320.628906 619.820312 322.390625 619.519531 324.160156 619.257812 C 325.929688 619 327.707031 618.785156 329.488281 618.613281 C 331.265625 618.441406 333.050781 618.316406 334.835938 618.230469 C 336.625 618.148438 338.410156 618.105469 340.199219 618.109375 L 471.421875 618.109375 C 473.207031 618.113281 474.988281 618.15625 476.773438 618.246094 C 478.554688 618.335938 480.335938 618.46875 482.113281 618.644531 C 483.886719 618.820312 485.660156 619.039062 487.425781 619.300781 C 489.191406 619.566406 490.949219 619.871094 492.699219 620.222656 C 494.449219 620.570312 496.191406 620.960938 497.921875 621.398438 C 499.65625 621.832031 501.375 622.308594 503.082031 622.828125 C 504.792969 623.347656 506.484375 623.90625 508.167969 624.507812 C 509.847656 625.109375 511.511719 625.753906 513.160156 626.4375 C 514.808594 627.121094 516.441406 627.84375 518.054688 628.609375 C 519.667969 629.375 521.261719 630.175781 522.835938 631.019531 C 524.410156 631.859375 525.964844 632.738281 527.496094 633.660156 C 529.027344 634.578125 530.53125 635.53125 532.015625 636.523438 C 533.5 637.515625 534.960938 638.542969 536.394531 639.605469 C 537.828125 640.671875 539.234375 641.769531 540.613281 642.902344 C 541.996094 644.035156 543.347656 645.199219 544.667969 646.398438 C 545.992188 647.597656 547.285156 648.828125 548.546875 650.089844 C 549.808594 651.355469 551.039062 652.644531 552.238281 653.96875 C 553.4375 655.292969 554.601562 656.644531 555.734375 658.023438 C 556.867188 659.402344 557.964844 660.808594 559.03125 662.242188 C 560.09375 663.675781 561.121094 665.136719 562.113281 666.621094 C 563.105469 668.105469 564.0625 669.613281 564.980469 671.144531 C 565.898438 672.675781 566.777344 674.226562 567.621094 675.800781 C 568.460938 677.375 569.265625 678.96875 570.027344 680.582031 C 570.792969 682.195312 571.515625 683.828125 572.199219 685.476562 C 572.882812 687.125 573.527344 688.792969 574.128906 690.472656 C 574.730469 692.152344 575.292969 693.847656 575.8125 695.554688 C 576.328125 697.261719 576.804688 698.984375 577.242188 700.714844 C 577.675781 702.445312 578.066406 704.1875 578.417969 705.9375 C 578.765625 707.6875 579.074219 709.445312 579.335938 711.210938 C 579.597656 712.976562 579.816406 714.75 579.992188 716.527344 C 580.171875 718.300781 580.304688 720.082031 580.390625 721.867188 C 580.480469 723.648438 580.527344 725.433594 580.527344 727.21875 Z M 580.527344 767.71875 " fill-opacity="1" fill-rule="nonzero"/><path fill="#162b4d" d="M 763.019531 292.570312 C 758.121094 287.386719 752.878906 282.578125 747.285156 278.148438 C 741.695312 273.71875 735.8125 269.714844 729.640625 266.136719 C 723.472656 262.554688 717.074219 259.4375 710.453125 256.785156 C 703.832031 254.128906 697.054688 251.964844 690.121094 250.289062 C 693.5625 239.6875 695.964844 228.855469 697.328125 217.792969 C 698.691406 206.730469 698.988281 195.636719 698.21875 184.519531 C 697.820312 178.648438 697.144531 172.808594 696.183594 167.003906 C 695.222656 161.199219 693.988281 155.453125 692.476562 149.765625 C 690.964844 144.082031 689.183594 138.480469 687.136719 132.964844 C 685.085938 127.449219 682.777344 122.042969 680.207031 116.75 C 677.640625 111.457031 674.824219 106.300781 671.757812 101.277344 C 668.695312 96.253906 665.394531 91.390625 661.863281 86.683594 C 658.332031 81.976562 654.582031 77.453125 650.617188 73.105469 C 646.648438 68.761719 642.484375 64.613281 638.117188 60.667969 C 635.261719 58.03125 632.332031 55.484375 629.320312 53.023438 C 626.3125 50.5625 623.234375 48.191406 620.082031 45.917969 C 616.933594 43.640625 613.71875 41.460938 610.4375 39.375 C 607.15625 37.292969 603.8125 35.308594 600.414062 33.425781 C 597.011719 31.542969 593.558594 29.765625 590.054688 28.089844 C 586.546875 26.414062 582.992188 24.84375 579.390625 23.382812 C 575.789062 21.917969 572.148438 20.566406 568.464844 19.320312 C 564.785156 18.078125 561.066406 16.945312 557.316406 15.921875 C 553.566406 14.902344 549.789062 13.992188 545.984375 13.199219 C 542.179688 12.402344 538.355469 11.722656 534.511719 11.160156 C 530.664062 10.59375 526.804688 10.144531 522.933594 9.808594 C 519.0625 9.476562 515.183594 9.257812 511.296875 9.15625 C 507.410156 9.054688 503.527344 9.070312 499.640625 9.203125 C 495.757812 9.335938 491.878906 9.582031 488.011719 9.945312 C 484.140625 10.3125 480.285156 10.792969 476.445312 11.386719 C 472.601562 11.984375 468.785156 12.691406 464.984375 13.519531 C 461.1875 14.34375 457.417969 15.28125 453.675781 16.332031 C 449.933594 17.382812 446.226562 18.542969 442.554688 19.816406 C 438.882812 21.089844 435.25 22.472656 431.660156 23.964844 C 428.070312 25.453125 424.53125 27.050781 421.035156 28.753906 C 417.542969 30.457031 414.101562 32.265625 410.71875 34.175781 C 407.332031 36.085938 404.007812 38.09375 400.742188 40.203125 C 397.476562 42.3125 394.28125 44.515625 391.148438 46.820312 C 388.015625 49.121094 384.953125 51.511719 381.964844 53.996094 C 378.976562 56.480469 376.0625 59.054688 373.230469 61.710938 C 370.394531 64.371094 367.640625 67.113281 364.972656 69.9375 C 362.300781 72.761719 359.71875 75.664062 357.222656 78.644531 C 354.726562 81.625 352.320312 84.675781 350.007812 87.796875 C 347.695312 90.921875 345.476562 94.113281 343.355469 97.367188 C 341.234375 100.625 339.210938 103.941406 337.289062 107.320312 C 335.367188 110.699219 333.546875 114.128906 331.828125 117.617188 C 330.113281 121.105469 328.5 124.640625 326.996094 128.222656 C 324.742188 126.460938 322.4375 124.765625 320.082031 123.140625 C 317.726562 121.511719 315.328125 119.957031 312.882812 118.46875 C 310.4375 116.980469 307.949219 115.566406 305.421875 114.226562 C 302.894531 112.882812 300.332031 111.617188 297.730469 110.421875 C 295.128906 109.230469 292.492188 108.113281 289.828125 107.078125 C 287.160156 106.039062 284.464844 105.078125 281.742188 104.195312 C 279.019531 103.3125 276.273438 102.511719 273.503906 101.792969 C 270.734375 101.070312 267.945312 100.429688 265.140625 99.871094 C 262.332031 99.3125 259.511719 98.835938 256.675781 98.441406 C 253.84375 98.046875 251 97.738281 248.144531 97.507812 C 245.292969 97.28125 242.4375 97.136719 239.574219 97.074219 C 236.714844 97.011719 233.851562 97.035156 230.992188 97.140625 C 228.132812 97.246094 225.277344 97.433594 222.429688 97.703125 C 219.582031 97.976562 216.742188 98.332031 213.914062 98.769531 C 211.085938 99.207031 208.273438 99.726562 205.476562 100.328125 C 202.675781 100.929688 199.898438 101.609375 197.140625 102.375 C 194.382812 103.136719 191.648438 103.980469 188.941406 104.902344 C 186.230469 105.828125 183.550781 106.828125 180.898438 107.90625 C 178.25 108.988281 175.632812 110.140625 173.050781 111.375 C 170.464844 112.605469 167.921875 113.914062 165.414062 115.292969 C 162.90625 116.671875 160.441406 118.125 158.019531 119.648438 C 155.597656 121.175781 153.222656 122.769531 150.894531 124.429688 C 148.5625 126.09375 146.285156 127.824219 144.058594 129.617188 C 141.828125 131.414062 139.65625 133.273438 137.535156 135.195312 C 135.414062 137.117188 133.351562 139.101562 131.347656 141.144531 C 129.34375 143.1875 127.402344 145.285156 125.519531 147.441406 C 123.636719 149.597656 121.820312 151.808594 120.066406 154.070312 C 118.3125 156.332031 116.628906 158.644531 115.011719 161.003906 C 113.390625 163.367188 111.84375 165.773438 110.367188 168.222656 C 108.890625 170.671875 107.484375 173.164062 106.152344 175.699219 C 104.820312 178.230469 103.5625 180.800781 102.378906 183.40625 C 101.195312 186.011719 100.089844 188.652344 99.0625 191.320312 C 96.914062 196.839844 95.15625 202.480469 93.78125 208.242188 C 92.40625 214.003906 91.433594 219.828125 90.859375 225.722656 C 90.28125 231.617188 90.113281 237.523438 90.347656 243.441406 C 90.582031 249.359375 91.21875 255.234375 92.257812 261.0625 C 89.199219 262.476562 86.191406 264 83.242188 265.625 C 80.289062 267.253906 77.398438 268.980469 74.566406 270.8125 C 71.738281 272.644531 68.976562 274.570312 66.28125 276.597656 C 63.585938 278.625 60.96875 280.742188 58.421875 282.953125 C 55.878906 285.164062 53.414062 287.460938 51.03125 289.847656 C 48.652344 292.230469 46.355469 294.699219 44.148438 297.246094 C 41.941406 299.792969 39.824219 302.414062 37.800781 305.109375 C 35.777344 307.808594 33.851562 310.570312 32.027344 313.402344 C 30.199219 316.234375 28.472656 319.128906 26.847656 322.082031 C 25.226562 325.039062 23.707031 328.046875 22.296875 331.105469 C 20.886719 334.167969 19.585938 337.277344 18.394531 340.429688 C 17.203125 343.582031 16.125 346.773438 15.15625 350.003906 C 14.191406 353.234375 13.339844 356.492188 12.605469 359.78125 C 11.867188 363.070312 11.25 366.382812 10.746094 369.714844 C 10.242188 373.050781 9.859375 376.394531 9.59375 379.757812 C 9.328125 383.117188 9.179688 386.480469 9.152344 389.851562 C 9.152344 469.558594 71.683594 527.554688 158.191406 527.554688 L 260.738281 527.554688 L 260.738281 493.210938 L 158.191406 493.210938 C 90.640625 493.210938 43.335938 450.601562 43.335938 389.851562 C 43.371094 387.035156 43.511719 384.21875 43.765625 381.410156 C 44.015625 378.601562 44.375 375.808594 44.84375 373.027344 C 45.308594 370.246094 45.882812 367.488281 46.566406 364.75 C 47.246094 362.015625 48.03125 359.308594 48.917969 356.632812 C 49.808594 353.957031 50.800781 351.316406 51.894531 348.71875 C 52.984375 346.117188 54.175781 343.566406 55.46875 341.058594 C 56.757812 338.550781 58.140625 336.097656 59.621094 333.695312 C 61.101562 331.296875 62.671875 328.957031 64.332031 326.675781 C 65.992188 324.394531 67.734375 322.183594 69.566406 320.039062 C 71.398438 317.894531 73.308594 315.824219 75.300781 313.828125 C 77.289062 311.828125 79.355469 309.910156 81.492188 308.074219 C 83.632812 306.234375 85.839844 304.484375 88.113281 302.816406 C 90.386719 301.148438 92.722656 299.570312 95.117188 298.082031 C 97.511719 296.597656 99.960938 295.203125 102.464844 293.90625 C 104.96875 292.605469 107.519531 291.40625 110.113281 290.304688 C 112.710938 289.203125 115.34375 288.203125 118.015625 287.308594 L 133.246094 282.042969 L 128.789062 266.570312 C 127.269531 261.421875 126.179688 256.179688 125.519531 250.851562 C 124.859375 245.519531 124.640625 240.171875 124.859375 234.808594 C 125.082031 229.441406 125.738281 224.128906 126.832031 218.871094 C 127.925781 213.613281 129.441406 208.480469 131.382812 203.472656 C 132.25 201.214844 133.191406 198.984375 134.207031 196.785156 C 135.21875 194.589844 136.300781 192.425781 137.457031 190.296875 C 138.609375 188.167969 139.828125 186.082031 141.117188 184.03125 C 142.40625 181.980469 143.757812 179.976562 145.175781 178.011719 C 146.589844 176.050781 148.070312 174.136719 149.609375 172.269531 C 151.152344 170.402344 152.75 168.589844 154.410156 166.824219 C 156.066406 165.0625 157.78125 163.351562 159.546875 161.699219 C 161.316406 160.046875 163.136719 158.453125 165.007812 156.917969 C 166.878906 155.382812 168.796875 153.910156 170.761719 152.496094 C 172.730469 151.085938 174.738281 149.738281 176.792969 148.457031 C 178.84375 147.175781 180.9375 145.960938 183.066406 144.8125 C 185.199219 143.667969 187.367188 142.589844 189.566406 141.582031 C 191.765625 140.574219 194 139.640625 196.257812 138.777344 C 198.519531 137.914062 200.808594 137.125 203.121094 136.410156 C 205.433594 135.695312 207.765625 135.054688 210.117188 134.488281 C 212.472656 133.921875 214.839844 133.433594 217.226562 133.023438 C 219.613281 132.609375 222.007812 132.277344 224.414062 132.019531 C 226.820312 131.761719 229.234375 131.582031 231.652344 131.480469 C 234.070312 131.378906 236.488281 131.355469 238.910156 131.410156 C 241.328125 131.464844 243.742188 131.59375 246.15625 131.804688 C 248.566406 132.015625 250.96875 132.304688 253.359375 132.667969 C 255.753906 133.035156 258.132812 133.476562 260.496094 133.996094 C 262.859375 134.515625 265.207031 135.109375 267.53125 135.777344 C 269.855469 136.449219 272.160156 137.195312 274.4375 138.011719 C 276.714844 138.832031 278.964844 139.722656 281.183594 140.6875 C 283.402344 141.648438 285.589844 142.683594 287.746094 143.789062 C 289.898438 144.894531 292.011719 146.066406 294.089844 147.308594 C 296.167969 148.550781 298.203125 149.859375 300.199219 151.230469 C 302.191406 152.605469 304.136719 154.039062 306.039062 155.539062 C 307.941406 157.035156 309.789062 158.59375 311.589844 160.210938 C 313.390625 161.832031 315.136719 163.503906 316.828125 165.234375 C 318.519531 166.964844 320.15625 168.75 321.730469 170.585938 L 343.84375 196.910156 L 351.457031 163.457031 C 351.988281 161.320312 352.5625 159.199219 353.179688 157.085938 C 353.800781 154.972656 354.460938 152.875 355.167969 150.789062 C 355.875 148.703125 356.625 146.636719 357.414062 144.582031 C 358.207031 142.53125 359.042969 140.492188 359.921875 138.476562 C 360.800781 136.457031 361.71875 134.457031 362.679688 132.476562 C 363.640625 130.496094 364.644531 128.539062 365.6875 126.601562 C 366.730469 124.664062 367.8125 122.746094 368.9375 120.855469 C 370.0625 118.960938 371.222656 117.09375 372.425781 115.25 C 373.628906 113.40625 374.867188 111.589844 376.144531 109.796875 C 377.421875 108.003906 378.738281 106.238281 380.089844 104.5 C 381.441406 102.765625 382.828125 101.054688 384.25 99.378906 C 385.671875 97.699219 387.128906 96.050781 388.621094 94.429688 C 390.113281 92.8125 391.640625 91.226562 393.195312 89.671875 C 394.753906 88.117188 396.34375 86.597656 397.96875 85.109375 C 399.589844 83.621094 401.242188 82.167969 402.925781 80.75 C 404.605469 79.328125 406.316406 77.945312 408.058594 76.597656 C 409.800781 75.253906 411.566406 73.941406 413.363281 72.667969 C 415.15625 71.394531 416.980469 70.160156 418.824219 68.964844 C 420.671875 67.765625 422.542969 66.609375 424.4375 65.488281 C 426.335938 64.371094 428.253906 63.292969 430.191406 62.253906 C 432.132812 61.214844 434.09375 60.214844 436.078125 59.261719 C 438.058594 58.304688 440.058594 57.390625 442.082031 56.515625 C 444.101562 55.644531 446.140625 54.8125 448.195312 54.023438 C 450.25 53.238281 452.320312 52.492188 454.40625 51.792969 C 456.492188 51.089844 458.59375 50.433594 460.707031 49.820312 C 462.820312 49.207031 464.945312 48.636719 467.085938 48.113281 C 469.222656 47.589844 471.371094 47.109375 473.527344 46.675781 C 475.683594 46.242188 477.851562 45.851562 480.023438 45.507812 C 482.199219 45.164062 484.378906 44.867188 486.566406 44.613281 C 488.75 44.359375 490.941406 44.152344 493.136719 43.992188 C 495.332031 43.832031 497.53125 43.714844 499.730469 43.648438 C 501.929688 43.578125 504.128906 43.554688 506.332031 43.578125 L 507.382812 43.578125 C 589.195312 44.144531 659.421875 108.378906 664.117188 186.867188 C 664.53125 192.851562 664.570312 198.84375 664.230469 204.832031 C 663.890625 210.824219 663.179688 216.769531 662.09375 222.671875 C 661.007812 228.574219 659.554688 234.382812 657.738281 240.101562 C 655.925781 245.820312 653.757812 251.402344 651.238281 256.851562 L 641.277344 278.640625 L 665.578125 280.746094 C 667.273438 280.890625 668.964844 281.070312 670.652344 281.289062 C 672.335938 281.511719 674.019531 281.769531 675.695312 282.066406 C 677.367188 282.363281 679.035156 282.699219 680.695312 283.074219 C 682.355469 283.445312 684.007812 283.859375 685.648438 284.308594 C 687.289062 284.757812 688.917969 285.242188 690.539062 285.765625 C 692.15625 286.289062 693.761719 286.851562 695.355469 287.445312 C 696.949219 288.042969 698.527344 288.675781 700.089844 289.347656 C 701.65625 290.015625 703.203125 290.722656 704.734375 291.460938 C 706.265625 292.203125 707.78125 292.976562 709.277344 293.785156 C 710.773438 294.59375 712.25 295.4375 713.710938 296.316406 C 715.167969 297.191406 716.605469 298.101562 718.019531 299.046875 C 719.4375 299.988281 720.832031 300.964844 722.203125 301.96875 C 723.574219 302.976562 724.921875 304.011719 726.246094 305.082031 C 727.570312 306.148438 728.867188 307.25 730.144531 308.375 C 731.417969 309.503906 732.664062 310.660156 733.886719 311.84375 C 735.105469 313.03125 736.300781 314.242188 737.464844 315.480469 C 738.628906 316.722656 739.765625 317.984375 740.875 319.277344 C 741.980469 320.570312 743.058594 321.886719 744.105469 323.226562 C 745.152344 324.566406 746.171875 325.929688 747.15625 327.316406 C 748.140625 328.707031 749.09375 330.113281 750.011719 331.546875 C 750.933594 332.976562 751.820312 334.425781 752.675781 335.898438 C 753.527344 337.371094 754.347656 338.859375 755.136719 340.371094 C 755.921875 341.878906 756.671875 343.40625 757.386719 344.949219 C 758.105469 346.492188 758.785156 348.050781 759.429688 349.625 C 760.074219 351.199219 760.683594 352.789062 761.253906 354.390625 C 761.824219 355.992188 762.359375 357.605469 762.859375 359.234375 C 763.355469 360.859375 763.816406 362.496094 764.242188 364.144531 C 764.664062 365.792969 765.050781 367.449219 765.398438 369.117188 C 765.742188 370.78125 766.054688 372.453125 766.324219 374.132812 C 766.59375 375.8125 766.828125 377.496094 767.019531 379.1875 C 767.214844 380.878906 767.371094 382.570312 767.484375 384.269531 C 767.601562 385.96875 767.679688 387.667969 767.71875 389.367188 C 767.71875 442.503906 755.648438 498.960938 611.550781 498.960938 L 561.328125 498.960938 L 561.328125 533.140625 L 611.550781 533.140625 C 686.960938 533.140625 738.558594 517.914062 769.257812 486.648438 C 798.253906 456.921875 801.65625 419.09375 801.65625 389.449219 C 801.648438 384.992188 801.433594 380.550781 801.003906 376.117188 C 800.578125 371.683594 799.941406 367.277344 799.097656 362.90625 C 798.253906 358.53125 797.207031 354.207031 795.953125 349.933594 C 794.703125 345.660156 793.25 341.453125 791.601562 337.316406 C 789.949219 333.179688 788.109375 329.128906 786.074219 325.164062 C 784.042969 321.203125 781.828125 317.34375 779.429688 313.589844 C 777.03125 309.835938 774.460938 306.203125 771.722656 302.691406 C 768.980469 299.183594 766.078125 295.808594 763.019531 292.570312 Z M 763.019531 292.570312 " fill-opacity="1" fill-rule="nonzero"/></svg>