<svg xmlns="http://www.w3.org/2000/svg" xmlns:xlink="http://www.w3.org/1999/xlink" width="1080" zoomAndPan="magnify" viewBox="0 0 810 809.999993" height="1080" preserveAspectRatio="xMidYMid meet" version="1.0"><path fill="#009688" d="M 805.300781 372.601562 C 805.300781 373.0625 805.257812 373.519531 805.167969 373.976562 C 805.078125 374.429688 804.941406 374.871094 804.765625 375.296875 C 804.589844 375.722656 804.371094 376.128906 804.113281 376.515625 C 803.855469 376.898438 803.566406 377.253906 803.238281 377.582031 C 802.910156 377.910156 802.554688 378.203125 802.171875 378.460938 C 801.785156 378.714844 801.378906 378.933594 800.953125 379.109375 C 800.523438 379.289062 800.082031 379.421875 799.628906 379.511719 C 799.175781 379.601562 798.71875 379.648438 798.253906 379.648438 C 797.792969 379.648438 797.332031 379.601562 796.878906 379.511719 C 796.425781 379.421875 795.984375 379.289062 795.558594 379.109375 C 795.128906 378.933594 794.722656 378.714844 794.339844 378.460938 C 793.957031 378.203125 793.597656 377.910156 793.273438 377.582031 C 792.945312 377.253906 792.652344 376.898438 792.394531 376.515625 C 792.136719 376.128906 791.921875 375.722656 791.746094 375.296875 C 791.566406 374.871094 791.433594 374.429688 791.34375 373.976562 C 791.253906 373.519531 791.207031 373.0625 791.207031 372.601562 C 791.207031 372.136719 791.253906 371.679688 791.34375 371.226562 C 791.433594 370.769531 791.566406 370.332031 791.746094 369.902344 C 791.921875 369.476562 792.136719 369.070312 792.394531 368.683594 C 792.652344 368.300781 792.945312 367.945312 793.273438 367.617188 C 793.597656 367.289062 793.957031 366.996094 794.339844 366.742188 C 794.722656 366.484375 795.128906 366.265625 795.558594 366.089844 C 795.984375 365.914062 796.425781 365.777344 796.878906 365.6875 C 797.332031 365.597656 797.792969 365.554688 798.253906 365.554688 C 798.71875 365.554688 799.175781 365.597656 799.628906 365.6875 C 800.082031 365.777344 800.523438 365.914062 800.953125 366.089844 C 801.378906 366.265625 801.785156 366.484375 802.171875 366.742188 C 802.554688 366.996094 802.910156 367.289062 803.238281 367.617188 C 803.566406 367.945312 803.855469 368.300781 804.113281 368.683594 C 804.371094 369.070312 804.589844 369.476562 804.765625 369.902344 C 804.941406 370.332031 805.078125 370.769531 805.167969 371.226562 C 805.257812 371.679688 805.300781 372.136719 805.300781 372.601562 Z M 805.300781 372.601562 " fill-opacity="1" fill-rule="nonzero"/><path fill="#009688" d="M 76.140625 67.066406 C 76.140625 67.53125 76.09375 67.988281 76.003906 68.441406 C 75.914062 68.898438 75.78125 69.335938 75.605469 69.765625 C 75.425781 70.191406 75.210938 70.597656 74.953125 70.984375 C 74.695312 71.367188 74.402344 71.722656 74.074219 72.050781 C 73.75 72.378906 73.394531 72.671875 73.007812 72.925781 C 72.625 73.183594 72.21875 73.402344 71.789062 73.578125 C 71.363281 73.753906 70.921875 73.890625 70.46875 73.980469 C 70.015625 74.070312 69.554688 74.113281 69.09375 74.113281 C 68.628906 74.113281 68.171875 74.070312 67.71875 73.980469 C 67.265625 73.890625 66.824219 73.753906 66.394531 73.578125 C 65.96875 73.402344 65.5625 73.183594 65.179688 72.925781 C 64.792969 72.671875 64.4375 72.378906 64.109375 72.050781 C 63.78125 71.722656 63.492188 71.367188 63.234375 70.984375 C 62.976562 70.597656 62.757812 70.191406 62.582031 69.765625 C 62.40625 69.335938 62.273438 68.898438 62.179688 68.441406 C 62.089844 67.988281 62.046875 67.53125 62.046875 67.066406 C 62.046875 66.605469 62.089844 66.148438 62.179688 65.691406 C 62.273438 65.238281 62.40625 64.796875 62.582031 64.371094 C 62.757812 63.945312 62.976562 63.539062 63.234375 63.152344 C 63.492188 62.769531 63.78125 62.414062 64.109375 62.085938 C 64.4375 61.757812 64.792969 61.464844 65.179688 61.207031 C 65.5625 60.953125 65.96875 60.734375 66.394531 60.558594 C 66.824219 60.378906 67.265625 60.246094 67.71875 60.15625 C 68.171875 60.066406 68.628906 60.019531 69.09375 60.019531 C 69.554688 60.019531 70.015625 60.066406 70.46875 60.15625 C 70.921875 60.246094 71.363281 60.378906 71.789062 60.558594 C 72.21875 60.734375 72.625 60.953125 73.007812 61.207031 C 73.394531 61.464844 73.75 61.757812 74.074219 62.085938 C 74.402344 62.414062 74.695312 62.769531 74.953125 63.152344 C 75.210938 63.539062 75.425781 63.945312 75.605469 64.371094 C 75.78125 64.796875 75.914062 65.238281 76.003906 65.691406 C 76.09375 66.148438 76.140625 66.605469 76.140625 67.066406 Z M 76.140625 67.066406 " fill-opacity="1" fill-rule="nonzero"/><path fill="#009688" d="M 506.574219 351.539062 L 447.039062 351.539062 L 447.039062 341.089844 C 447.03125 340.53125 446.902344 340 446.644531 339.5 C 446.386719 339.003906 446.035156 338.585938 445.582031 338.257812 L 408.484375 311.28125 L 408.484375 299.050781 L 447.039062 299.050781 C 447.503906 299.042969 447.949219 298.941406 448.378906 298.757812 C 448.804688 298.570312 449.179688 298.3125 449.507812 297.980469 C 449.832031 297.648438 450.082031 297.265625 450.257812 296.832031 C 450.433594 296.402344 450.523438 295.953125 450.523438 295.488281 L 450.523438 274.507812 C 450.523438 274.046875 450.433594 273.601562 450.257812 273.175781 C 450.082031 272.75 449.828125 272.371094 449.5 272.046875 C 449.175781 271.71875 448.796875 271.46875 448.371094 271.292969 C 447.945312 271.113281 447.5 271.027344 447.039062 271.027344 L 408.484375 271.027344 C 408.484375 270.5625 408.394531 270.121094 408.21875 269.691406 C 408.042969 269.265625 407.789062 268.890625 407.460938 268.5625 C 407.136719 268.238281 406.757812 267.984375 406.332031 267.808594 C 405.90625 267.632812 405.460938 267.542969 405 267.542969 C 404.539062 267.542969 404.09375 267.632812 403.667969 267.808594 C 403.242188 267.984375 402.863281 268.238281 402.535156 268.5625 C 402.210938 268.890625 401.957031 269.265625 401.78125 269.691406 C 401.605469 270.121094 401.515625 270.5625 401.515625 271.027344 L 401.515625 311.527344 L 364.5 338.257812 C 364.046875 338.585938 363.691406 339.003906 363.4375 339.5 C 363.179688 340 363.046875 340.53125 363.042969 341.089844 L 363.042969 351.539062 L 303.425781 351.539062 C 302.953125 351.539062 302.5 351.628906 302.0625 351.8125 C 301.625 351.992188 301.238281 352.25 300.90625 352.582031 C 300.570312 352.917969 300.3125 353.304688 300.132812 353.738281 C 299.953125 354.175781 299.863281 354.632812 299.863281 355.105469 L 299.863281 474.175781 C 299.863281 474.648438 299.953125 475.101562 300.132812 475.539062 C 300.3125 475.972656 300.570312 476.359375 300.90625 476.695312 C 301.238281 477.027344 301.625 477.285156 302.0625 477.464844 C 302.5 477.648438 302.953125 477.738281 303.425781 477.738281 L 506.574219 477.738281 C 507.046875 477.738281 507.5 477.648438 507.9375 477.464844 C 508.375 477.285156 508.761719 477.027344 509.09375 476.695312 C 509.429688 476.359375 509.6875 475.972656 509.867188 475.539062 C 510.046875 475.101562 510.136719 474.648438 510.136719 474.175781 L 510.136719 355.105469 C 510.136719 354.632812 510.046875 354.175781 509.867188 353.738281 C 509.6875 353.304688 509.429688 352.917969 509.09375 352.582031 C 508.761719 352.25 508.375 351.992188 507.9375 351.8125 C 507.5 351.628906 507.046875 351.539062 506.574219 351.539062 Z M 408.484375 277.992188 L 443.554688 277.992188 L 443.554688 292.003906 L 408.484375 292.003906 Z M 362.960938 470.691406 L 306.910156 470.691406 L 306.910156 358.585938 L 362.960938 358.585938 Z M 419.011719 470.691406 L 390.988281 470.691406 L 390.988281 435.699219 L 419.011719 435.699219 Z M 440.074219 470.691406 L 426.058594 470.691406 L 426.058594 432.136719 C 426.050781 431.667969 425.953125 431.222656 425.765625 430.796875 C 425.582031 430.367188 425.320312 429.992188 424.988281 429.667969 C 424.65625 429.339844 424.273438 429.089844 423.839844 428.914062 C 423.410156 428.738281 422.960938 428.652344 422.496094 428.652344 L 387.503906 428.652344 C 387.039062 428.652344 386.589844 428.738281 386.160156 428.914062 C 385.726562 429.089844 385.34375 429.339844 385.011719 429.667969 C 384.679688 429.992188 384.417969 430.367188 384.234375 430.796875 C 384.046875 431.222656 383.949219 431.667969 383.941406 432.136719 L 383.941406 470.691406 L 369.925781 470.691406 L 369.925781 342.871094 L 405 317.359375 L 440.074219 342.871094 Z M 503.089844 470.691406 L 447.039062 470.691406 L 447.039062 358.585938 L 503.089844 358.585938 Z M 503.089844 470.691406 " fill-opacity="1" fill-rule="nonzero"/><path fill="#009688" d="M 317.4375 369.117188 L 331.453125 369.117188 L 331.453125 376.164062 L 317.4375 376.164062 Z M 317.4375 369.117188 " fill-opacity="1" fill-rule="nonzero"/><path fill="#009688" d="M 338.417969 369.117188 L 352.429688 369.117188 L 352.429688 376.164062 L 338.417969 376.164062 Z M 338.417969 369.117188 " fill-opacity="1" fill-rule="nonzero"/><path fill="#009688" d="M 317.4375 383.128906 L 331.453125 383.128906 L 331.453125 390.175781 L 317.4375 390.175781 Z M 317.4375 383.128906 " fill-opacity="1" fill-rule="nonzero"/><path fill="#009688" d="M 338.417969 383.128906 L 352.429688 383.128906 L 352.429688 390.175781 L 338.417969 390.175781 Z M 338.417969 383.128906 " fill-opacity="1" fill-rule="nonzero"/><path fill="#009688" d="M 317.4375 397.144531 L 331.453125 397.144531 L 331.453125 404.191406 L 317.4375 404.191406 Z M 317.4375 397.144531 " fill-opacity="1" fill-rule="nonzero"/><path fill="#009688" d="M 338.417969 397.144531 L 352.429688 397.144531 L 352.429688 404.191406 L 338.417969 404.191406 Z M 338.417969 397.144531 " fill-opacity="1" fill-rule="nonzero"/><path fill="#009688" d="M 317.4375 411.15625 L 331.453125 411.15625 L 331.453125 418.203125 L 317.4375 418.203125 Z M 317.4375 411.15625 " fill-opacity="1" fill-rule="nonzero"/><path fill="#009688" d="M 338.417969 411.15625 L 352.429688 411.15625 L 352.429688 418.203125 L 338.417969 418.203125 Z M 338.417969 411.15625 " fill-opacity="1" fill-rule="nonzero"/><path fill="#009688" d="M 317.4375 425.167969 L 331.453125 425.167969 L 331.453125 432.214844 L 317.4375 432.214844 Z M 317.4375 425.167969 " fill-opacity="1" fill-rule="nonzero"/><path fill="#009688" d="M 338.417969 425.167969 L 352.429688 425.167969 L 352.429688 432.214844 L 338.417969 432.214844 Z M 338.417969 425.167969 " fill-opacity="1" fill-rule="nonzero"/><path fill="#009688" d="M 457.570312 369.117188 L 471.582031 369.117188 L 471.582031 376.164062 L 457.570312 376.164062 Z M 457.570312 369.117188 " fill-opacity="1" fill-rule="nonzero"/><path fill="#009688" d="M 478.546875 369.117188 L 492.5625 369.117188 L 492.5625 376.164062 L 478.546875 376.164062 Z M 478.546875 369.117188 " fill-opacity="1" fill-rule="nonzero"/><path fill="#009688" d="M 457.570312 383.128906 L 471.582031 383.128906 L 471.582031 390.175781 L 457.570312 390.175781 Z M 457.570312 383.128906 " fill-opacity="1" fill-rule="nonzero"/><path fill="#009688" d="M 478.546875 383.128906 L 492.5625 383.128906 L 492.5625 390.175781 L 478.546875 390.175781 Z M 478.546875 383.128906 " fill-opacity="1" fill-rule="nonzero"/><path fill="#009688" d="M 457.570312 397.144531 L 471.582031 397.144531 L 471.582031 404.191406 L 457.570312 404.191406 Z M 457.570312 397.144531 " fill-opacity="1" fill-rule="nonzero"/><path fill="#009688" d="M 478.546875 397.144531 L 492.5625 397.144531 L 492.5625 404.191406 L 478.546875 404.191406 Z M 478.546875 397.144531 " fill-opacity="1" fill-rule="nonzero"/><path fill="#009688" d="M 457.570312 411.15625 L 471.582031 411.15625 L 471.582031 418.203125 L 457.570312 418.203125 Z M 457.570312 411.15625 " fill-opacity="1" fill-rule="nonzero"/><path fill="#009688" d="M 478.546875 411.15625 L 492.5625 411.15625 L 492.5625 418.203125 L 478.546875 418.203125 Z M 478.546875 411.15625 " fill-opacity="1" fill-rule="nonzero"/><path fill="#009688" d="M 457.570312 425.167969 L 471.582031 425.167969 L 471.582031 432.214844 L 457.570312 432.214844 Z M 457.570312 425.167969 " fill-opacity="1" fill-rule="nonzero"/><path fill="#009688" d="M 478.546875 425.167969 L 492.5625 425.167969 L 492.5625 432.214844 L 478.546875 432.214844 Z M 478.546875 425.167969 " fill-opacity="1" fill-rule="nonzero"/><path fill="#009688" d="M 380.699219 372.601562 C 380.699219 373.394531 380.738281 374.191406 380.816406 374.980469 C 380.894531 375.773438 381.011719 376.558594 381.167969 377.339844 C 381.320312 378.121094 381.515625 378.890625 381.746094 379.652344 C 381.976562 380.414062 382.246094 381.164062 382.550781 381.898438 C 382.855469 382.632812 383.195312 383.351562 383.570312 384.054688 C 383.945312 384.757812 384.351562 385.4375 384.796875 386.101562 C 385.238281 386.761719 385.710938 387.402344 386.214844 388.015625 C 386.722656 388.632812 387.253906 389.21875 387.816406 389.78125 C 388.378906 390.34375 388.96875 390.878906 389.585938 391.382812 C 390.199219 391.890625 390.835938 392.363281 391.5 392.804688 C 392.160156 393.246094 392.84375 393.65625 393.546875 394.03125 C 394.246094 394.40625 394.964844 394.746094 395.699219 395.050781 C 396.4375 395.355469 397.183594 395.621094 397.945312 395.855469 C 398.707031 396.085938 399.480469 396.277344 400.257812 396.433594 C 401.039062 396.589844 401.824219 396.703125 402.617188 396.78125 C 403.410156 396.859375 404.203125 396.898438 405 396.898438 C 405.796875 396.898438 406.589844 396.859375 407.382812 396.78125 C 408.171875 396.703125 408.960938 396.589844 409.742188 396.433594 C 410.519531 396.277344 411.292969 396.085938 412.054688 395.855469 C 412.816406 395.621094 413.5625 395.355469 414.300781 395.050781 C 415.035156 394.746094 415.753906 394.40625 416.453125 394.03125 C 417.15625 393.65625 417.839844 393.246094 418.5 392.804688 C 419.160156 392.363281 419.800781 391.890625 420.414062 391.382812 C 421.03125 390.878906 421.621094 390.34375 422.183594 389.78125 C 422.746094 389.21875 423.277344 388.632812 423.785156 388.015625 C 424.289062 387.402344 424.761719 386.761719 425.203125 386.101562 C 425.648438 385.4375 426.054688 384.757812 426.429688 384.054688 C 426.804688 383.351562 427.144531 382.632812 427.449219 381.898438 C 427.753906 381.164062 428.023438 380.414062 428.253906 379.652344 C 428.484375 378.890625 428.679688 378.121094 428.832031 377.339844 C 428.988281 376.558594 429.105469 375.773438 429.183594 374.980469 C 429.261719 374.191406 429.300781 373.394531 429.300781 372.601562 C 429.300781 371.804688 429.261719 371.011719 429.183594 370.21875 C 429.105469 369.425781 428.988281 368.640625 428.832031 367.859375 C 428.679688 367.078125 428.484375 366.308594 428.253906 365.546875 C 428.023438 364.785156 427.753906 364.035156 427.449219 363.300781 C 427.144531 362.566406 426.804688 361.847656 426.429688 361.144531 C 426.054688 360.441406 425.648438 359.761719 425.203125 359.101562 C 424.761719 358.4375 424.289062 357.800781 423.785156 357.183594 C 423.277344 356.570312 422.746094 355.980469 422.183594 355.417969 C 421.621094 354.855469 421.03125 354.320312 420.414062 353.816406 C 419.800781 353.3125 419.160156 352.835938 418.5 352.394531 C 417.839844 351.953125 417.15625 351.542969 416.453125 351.167969 C 415.753906 350.792969 415.035156 350.453125 414.300781 350.148438 C 413.5625 349.84375 412.816406 349.578125 412.054688 349.347656 C 411.292969 349.117188 410.519531 348.921875 409.742188 348.765625 C 408.960938 348.613281 408.171875 348.496094 407.382812 348.417969 C 406.589844 348.339844 405.796875 348.300781 405 348.300781 C 404.203125 348.300781 403.410156 348.339844 402.617188 348.417969 C 401.824219 348.496094 401.039062 348.613281 400.257812 348.765625 C 399.480469 348.921875 398.707031 349.117188 397.945312 349.347656 C 397.183594 349.578125 396.4375 349.84375 395.699219 350.148438 C 394.964844 350.453125 394.246094 350.792969 393.546875 351.167969 C 392.84375 351.542969 392.160156 351.953125 391.5 352.394531 C 390.839844 352.835938 390.199219 353.3125 389.585938 353.816406 C 388.96875 354.320312 388.378906 354.855469 387.816406 355.417969 C 387.253906 355.980469 386.722656 356.570312 386.214844 357.183594 C 385.710938 357.800781 385.238281 358.4375 384.796875 359.101562 C 384.351562 359.761719 383.945312 360.441406 383.570312 361.144531 C 383.195312 361.847656 382.855469 362.566406 382.550781 363.300781 C 382.246094 364.035156 381.976562 364.785156 381.746094 365.546875 C 381.515625 366.308594 381.320312 367.078125 381.167969 367.859375 C 381.011719 368.640625 380.894531 369.425781 380.816406 370.21875 C 380.738281 371.011719 380.699219 371.804688 380.699219 372.601562 Z M 422.738281 372.601562 C 422.738281 373.171875 422.710938 373.742188 422.65625 374.308594 C 422.597656 374.878906 422.515625 375.441406 422.40625 376.003906 C 422.292969 376.5625 422.15625 377.117188 421.988281 377.664062 C 421.824219 378.210938 421.632812 378.75 421.414062 379.277344 C 421.195312 379.804688 420.953125 380.320312 420.683594 380.824219 C 420.414062 381.328125 420.125 381.820312 419.804688 382.292969 C 419.488281 382.769531 419.152344 383.230469 418.789062 383.671875 C 418.425781 384.113281 418.046875 384.539062 417.640625 384.941406 C 417.238281 385.347656 416.816406 385.730469 416.375 386.09375 C 415.9375 386.457031 415.476562 386.800781 415.003906 387.117188 C 414.53125 387.4375 414.042969 387.730469 413.539062 388.003906 C 413.035156 388.273438 412.519531 388.519531 411.992188 388.738281 C 411.464844 388.960938 410.929688 389.152344 410.382812 389.320312 C 409.835938 389.488281 409.285156 389.628906 408.722656 389.746094 C 408.164062 389.859375 407.601562 389.945312 407.03125 390.003906 C 406.464844 390.0625 405.894531 390.089844 405.324219 390.09375 C 404.75 390.097656 404.179688 390.070312 403.613281 390.019531 C 403.042969 389.964844 402.480469 389.882812 401.917969 389.777344 C 401.355469 389.667969 400.804688 389.53125 400.253906 389.367188 C 399.707031 389.207031 399.167969 389.015625 398.640625 388.800781 C 398.109375 388.585938 397.59375 388.34375 397.089844 388.078125 C 396.582031 387.8125 396.089844 387.519531 395.613281 387.207031 C 395.136719 386.890625 394.675781 386.554688 394.234375 386.195312 C 393.789062 385.835938 393.363281 385.457031 392.957031 385.054688 C 392.550781 384.652344 392.164062 384.234375 391.796875 383.792969 C 391.433594 383.355469 391.089844 382.898438 390.769531 382.425781 C 390.449219 381.953125 390.152344 381.46875 389.878906 380.964844 C 389.605469 380.464844 389.355469 379.949219 389.132812 379.421875 C 388.910156 378.898438 388.714844 378.363281 388.542969 377.816406 C 388.371094 377.269531 388.230469 376.71875 388.113281 376.160156 C 387.996094 375.601562 387.910156 375.035156 387.847656 374.46875 C 387.785156 373.902344 387.753906 373.332031 387.746094 372.757812 C 387.742188 372.1875 387.765625 371.617188 387.816406 371.050781 C 387.867188 370.480469 387.945312 369.914062 388.050781 369.355469 C 388.15625 368.792969 388.289062 368.238281 388.449219 367.6875 C 388.609375 367.140625 388.796875 366.601562 389.011719 366.070312 C 389.222656 365.542969 389.460938 365.023438 389.726562 364.515625 C 389.988281 364.007812 390.277344 363.515625 390.589844 363.039062 C 390.902344 362.558594 391.238281 362.097656 391.59375 361.652344 C 391.953125 361.207031 392.328125 360.777344 392.730469 360.371094 C 393.128906 359.960938 393.546875 359.574219 393.984375 359.207031 C 394.421875 358.839844 394.875 358.492188 395.347656 358.171875 C 395.816406 357.847656 396.304688 357.546875 396.804688 357.273438 C 397.304688 356.996094 397.816406 356.746094 398.34375 356.519531 C 398.867188 356.296875 399.402344 356.097656 399.945312 355.921875 C 400.492188 355.75 401.042969 355.605469 401.601562 355.484375 C 402.160156 355.367188 402.722656 355.273438 403.292969 355.210938 C 403.859375 355.148438 404.429688 355.113281 405 355.105469 C 405.574219 355.105469 406.144531 355.132812 406.714844 355.1875 C 407.285156 355.246094 407.851562 355.328125 408.414062 355.441406 C 408.976562 355.550781 409.53125 355.691406 410.078125 355.855469 C 410.628906 356.023438 411.164062 356.214844 411.695312 356.4375 C 412.226562 356.65625 412.742188 356.898438 413.246094 357.167969 C 413.753906 357.441406 414.242188 357.734375 414.71875 358.050781 C 415.195312 358.371094 415.65625 358.710938 416.097656 359.074219 C 416.542969 359.4375 416.964844 359.824219 417.371094 360.226562 C 417.777344 360.632812 418.160156 361.058594 418.523438 361.5 C 418.886719 361.945312 419.230469 362.402344 419.546875 362.878906 C 419.867188 363.355469 420.160156 363.847656 420.429688 364.351562 C 420.699219 364.859375 420.945312 365.375 421.164062 365.90625 C 421.382812 366.433594 421.578125 366.972656 421.742188 367.519531 C 421.910156 368.070312 422.046875 368.625 422.160156 369.1875 C 422.273438 369.75 422.355469 370.316406 422.410156 370.886719 C 422.46875 371.457031 422.496094 372.027344 422.496094 372.601562 Z M 422.738281 372.601562 " fill-opacity="1" fill-rule="nonzero"/><path fill="#009688" d="M 401.515625 369.117188 L 394.46875 369.117188 L 394.46875 376.082031 L 408.484375 376.082031 L 408.484375 358.585938 L 401.515625 358.585938 Z M 401.515625 369.117188 " fill-opacity="1" fill-rule="nonzero"/><path stroke-linecap="butt" transform="matrix(8.1, 0, 0, 8.1, 0.0000035, 0.00002)" fill="none" stroke-linejoin="miter" d="M 76.300158 46.000193 C 76.300158 46.430363 76.289548 46.860532 76.268329 47.290702 C 76.24711 47.72039 76.215763 48.149595 76.173325 48.577836 C 76.131369 49.006076 76.078321 49.433353 76.015146 49.859182 C 75.951971 50.284529 75.878669 50.708912 75.794756 51.130884 C 75.710844 51.552855 75.616323 51.972898 75.511674 52.390529 C 75.407025 52.807678 75.292249 53.222415 75.167345 53.634259 C 75.042442 54.046586 74.907411 54.455054 74.762735 54.860147 C 74.617577 55.26524 74.462773 55.666956 74.297843 56.064333 C 74.133395 56.462192 73.958819 56.85571 73.77508 57.244889 C 73.59086 57.633585 73.397476 58.01794 73.194448 58.397956 C 72.991419 58.777489 72.77971 59.151717 72.558356 59.521123 C 72.337002 59.890047 72.106967 60.253666 71.867769 60.611497 C 71.628572 60.969329 71.380694 61.321374 71.124135 61.666667 C 70.868059 62.012443 70.603302 62.351949 70.330346 62.684704 C 70.056909 63.017458 69.776238 63.342979 69.486886 63.662231 C 69.198016 63.981 68.901431 64.292535 68.597129 64.596837 C 68.292345 64.901139 67.980809 65.197725 67.66204 65.487076 C 67.343271 65.775946 67.017268 66.0571 66.684513 66.330055 C 66.351758 66.60301 66.012734 66.867767 65.666959 67.124326 C 65.321183 67.380884 64.969139 67.628763 64.611307 67.867478 C 64.253475 68.106675 63.889856 68.337192 63.520933 68.558064 C 63.151527 68.779418 62.777298 68.99161 62.397765 69.194638 C 62.018232 69.397667 61.633876 69.59105 61.244698 69.774789 C 60.85552 69.95901 60.462001 70.133103 60.064625 70.298033 C 59.666766 70.462964 59.265531 70.617767 58.860438 70.762443 C 58.454864 70.907601 58.046395 71.042632 57.634551 71.167536 C 57.222707 71.292439 56.807969 71.407216 56.390338 71.511865 C 55.972707 71.616513 55.553147 71.710553 55.130693 71.794465 C 54.708721 71.878377 54.284821 71.952162 53.858991 72.015337 C 53.433162 72.078512 53.006368 72.131078 52.577645 72.173516 C 52.149404 72.215472 51.720199 72.247301 51.290511 72.26852 C 50.860342 72.289257 50.430654 72.299866 50.000002 72.299866 C 49.56935 72.299866 49.13918 72.289257 48.709493 72.26852 C 48.279805 72.247301 47.8506 72.215472 47.422359 72.173516 C 46.993636 72.131078 46.566842 72.078512 46.141013 72.015337 C 45.715183 71.952162 45.291283 71.878859 44.869311 71.794465 C 44.446858 71.710553 44.027297 71.616513 43.609666 71.511865 C 43.192035 71.407216 42.777297 71.292439 42.365453 71.167536 C 41.953609 71.042632 41.545141 70.907601 41.139566 70.762443 C 40.734473 70.617767 40.333238 70.462964 39.93538 70.298033 C 39.538003 70.133103 39.144485 69.95901 38.755306 69.774789 C 38.366128 69.59105 37.981772 69.397667 37.602239 69.194638 C 37.222706 68.99161 36.848478 68.779418 36.479072 68.558064 C 36.110148 68.337192 35.746529 68.106675 35.388697 67.867478 C 35.030383 67.62828 34.678821 67.380884 34.333045 67.124326 C 33.98727 66.867767 33.648246 66.60301 33.315491 66.330055 C 32.982737 66.0571 32.656733 65.775946 32.337964 65.487076 C 32.019195 65.197725 31.707659 64.901139 31.402875 64.596837 C 31.098574 64.292535 30.801988 63.981 30.513118 63.662231 C 30.223767 63.342979 29.943095 63.017458 29.669658 62.684704 C 29.396702 62.351949 29.131945 62.012443 28.875869 61.666667 C 28.61931 61.321374 28.371432 60.969329 28.132235 60.611497 C 27.893037 60.253666 27.663003 59.890047 27.441648 59.521123 C 27.220294 59.151717 27.008585 58.777489 26.805556 58.397956 C 26.602528 58.01794 26.409144 57.633585 26.224924 57.244889 C 26.041185 56.85571 25.86661 56.462192 25.702161 56.064333 C 25.537231 55.666956 25.382428 55.26524 25.237269 54.860147 C 25.092593 54.455054 24.957563 54.046586 24.832659 53.634259 C 24.707755 53.222415 24.592979 52.807678 24.48833 52.390529 C 24.383681 51.972898 24.28916 51.552855 24.205248 51.130884 C 24.121336 50.708912 24.048033 50.284529 23.984858 49.859182 C 23.921683 49.433353 23.868635 49.006076 23.826679 48.577836 C 23.784241 48.149595 23.752894 47.72039 23.731675 47.290702 C 23.710456 46.860532 23.699846 46.430363 23.699846 46.000193 C 23.699846 45.569541 23.710456 45.139371 23.731675 44.709683 C 23.752894 44.279514 23.784241 43.850308 23.826679 43.422068 C 23.868635 42.993827 23.921683 42.566551 23.984858 42.141203 C 24.048033 41.715374 24.121336 41.291473 24.205248 40.86902 C 24.28916 40.447048 24.383681 40.027006 24.48833 39.609375 C 24.592979 39.192226 24.707755 38.777488 24.832659 38.365644 C 24.957563 37.9538 25.092593 37.544849 25.237269 37.139756 C 25.382428 36.734664 25.537231 36.332947 25.702161 35.93557 C 25.86661 35.537712 26.041185 35.144193 26.224924 34.755497 C 26.409144 34.366319 26.602528 33.981963 26.805556 33.60243 C 27.008585 33.222897 27.220294 32.848186 27.441648 32.479262 C 27.663003 32.109856 27.893037 31.746238 28.132235 31.388406 C 28.371432 31.030574 28.61931 30.679011 28.875869 30.333236 C 29.131945 29.98746 29.396702 29.647954 29.669658 29.315682 C 29.943095 28.982927 30.223767 28.656924 30.513118 28.338155 C 30.801988 28.018903 31.098574 27.707368 31.402875 27.403066 C 31.707659 27.098764 32.019195 26.802179 32.337964 26.512827 C 32.656733 26.223957 32.982737 25.942804 33.315491 25.669848 C 33.648246 25.396893 33.98727 25.132136 34.333045 24.875577 C 34.678821 24.619019 35.030383 24.371623 35.388697 24.132425 C 35.746529 23.893228 36.110148 23.663193 36.479072 23.441839 C 36.848478 23.220485 37.222706 23.008293 37.602239 22.805265 C 37.981772 22.602719 38.366128 22.409335 38.755306 22.225114 C 39.144485 22.040894 39.538003 21.8668 39.93538 21.70187 C 40.333238 21.537421 40.734473 21.382618 41.139566 21.23746 C 41.545141 21.092302 41.953609 20.957271 42.365453 20.832367 C 42.777297 20.707464 43.192035 20.592688 43.609666 20.488039 C 44.027297 20.38339 44.446858 20.28935 44.869311 20.205438 C 45.291283 20.121526 45.715183 20.047742 46.141013 19.984566 C 46.566842 19.921391 46.993636 19.868826 47.422359 19.82687 C 47.8506 19.784431 48.279805 19.752603 48.709493 19.731866 C 49.13918 19.710647 49.56935 19.700037 50.000002 19.700037 C 50.430654 19.700037 50.860342 19.710647 51.290511 19.731866 C 51.720199 19.752603 52.149404 19.784431 52.577645 19.82687 C 53.006368 19.868826 53.433162 19.921391 53.858991 19.984566 C 54.284821 20.047742 54.708721 20.121526 55.130693 20.205438 C 55.553147 20.28935 55.972707 20.38339 56.390338 20.488039 C 56.807969 20.592688 57.222707 20.707464 57.634551 20.832367 C 58.046395 20.957271 58.454864 21.092302 58.860438 21.23746 C 59.265531 21.382618 59.666766 21.537421 60.064625 21.70187 C 60.462001 21.8668 60.85552 22.040894 61.244698 22.225114 C 61.633876 22.409335 62.018232 22.602719 62.397765 22.805265 C 62.777298 23.008293 63.151527 23.220485 63.520933 23.441839 C 63.889856 23.663193 64.253475 23.893228 64.611307 24.132425 C 64.969139 24.371623 65.321183 24.619019 65.666959 24.875577 C 66.012734 25.132136 66.351758 25.396893 66.684513 25.669848 C 67.017268 25.942804 67.343271 26.223957 67.66204 26.512827 C 67.980809 26.802179 68.292345 27.098764 68.597129 27.403066 C 68.901431 27.707368 69.198016 28.018903 69.486886 28.338155 C 69.776238 28.656924 70.056909 28.982927 70.330346 29.315682 C 70.603302 29.647954 70.868059 29.98746 71.124135 30.333236 C 71.380694 30.679011 71.628572 31.030574 71.867769 31.388406 C 72.106967 31.746238 72.337002 32.109856 72.558356 32.479262 C 72.77971 32.848186 72.991419 33.222897 73.194448 33.60243 C 73.397476 33.981963 73.59086 34.366319 73.77508 34.755497 C 73.958819 35.144193 74.133395 35.537712 74.297843 35.93557 C 74.462773 36.332947 74.617577 36.734664 74.762735 37.139756 C 74.907411 37.544849 75.042442 37.9538 75.167345 38.365644 C 75.292249 38.777488 75.407025 39.192226 75.511674 39.609857 C 75.616323 40.027006 75.710844 40.447048 75.794756 40.86902 C 75.878669 41.291473 75.951971 41.715374 76.015146 42.141203 C 76.078321 42.566551 76.131369 42.993827 76.173325 43.422068 C 76.215763 43.850308 76.24711 44.279514 76.268329 44.709683 C 76.289548 45.139371 76.300158 45.569541 76.300158 46.000193 Z M 76.300158 46.000193 " stroke="#162b4d" stroke-width="4" stroke-opacity="1" stroke-miterlimit="10"/><path stroke-linecap="round" transform="matrix(8.1, 0, 0, 8.1, 0.0000035, 0.00002)" fill="none" stroke-linejoin="round" d="M 73.319834 24.489775 L 87.020162 10.789929 " stroke="#162b4d" stroke-width="1" stroke-opacity="1" stroke-miterlimit="4"/><path stroke-linecap="round" transform="matrix(8.1, 0, 0, 8.1, 0.0000035, 0.00002)" fill="none" stroke-linejoin="round" d="M 70.090184 69.759839 L 79.600216 79.26987 " stroke="#162b4d" stroke-width="1" stroke-opacity="1" stroke-miterlimit="4"/><path stroke-linecap="round" transform="matrix(8.1, 0, 0, 8.1, 0.0000035, 0.00002)" fill="none" stroke-linejoin="round" d="M 27.81009 68.8098 L 20.320217 76.300156 " stroke="#162b4d" stroke-width="1" stroke-opacity="1" stroke-miterlimit="4"/><path stroke-linecap="round" transform="matrix(8.1, 0, 0, 8.1, 0.0000035, 0.00002)" fill="none" stroke-linejoin="round" d="M 26.059993 25.810184 L 11.260127 11.000191 " stroke="#162b4d" stroke-width="1" stroke-opacity="1" stroke-miterlimit="4"/><path stroke-linecap="round" transform="matrix(8.1, 0, 0, 8.1, 0.0000035, 0.00002)" fill="none" stroke-linejoin="round" d="M 49.649886 9.17004 L 49.649886 14.360048 " stroke="#162b4d" stroke-width="1" stroke-opacity="1" stroke-miterlimit="4"/><path stroke-linecap="round" transform="matrix(8.1, 0, 0, 8.1, 0.0000035, 0.00002)" fill="none" stroke-linejoin="round" d="M 80.170239 45.800058 L 95.96017 45.800058 " stroke="#162b4d" stroke-width="1" stroke-opacity="1" stroke-miterlimit="4"/><path stroke-linecap="round" transform="matrix(8.1, 0, 0, 8.1, 0.0000035, 0.00002)" fill="none" stroke-linejoin="round" d="M 18.959781 46.000193 L 6.739969 46.000193 " stroke="#162b4d" stroke-width="1" stroke-opacity="1" stroke-miterlimit="4"/><path stroke-linecap="round" transform="matrix(8.1, 0, 0, 8.1, 0.0000035, 0.00002)" fill="none" stroke-linejoin="round" d="M 49.450234 77.320121 L 49.450234 90.739778 " stroke="#162b4d" stroke-width="1" stroke-opacity="1" stroke-miterlimit="4"/><path fill="#009688" d="M 416.503906 28.753906 C 416.503906 29.695312 416.410156 30.628906 416.226562 31.550781 C 416.042969 32.476562 415.769531 33.371094 415.410156 34.242188 C 415.050781 35.109375 414.609375 35.9375 414.085938 36.71875 C 413.5625 37.503906 412.96875 38.226562 412.304688 38.894531 C 411.636719 39.558594 410.914062 40.152344 410.128906 40.675781 C 409.347656 41.199219 408.519531 41.640625 407.652344 42 C 406.78125 42.359375 405.886719 42.632812 404.960938 42.816406 C 404.039062 43 403.105469 43.09375 402.164062 43.09375 C 401.222656 43.09375 400.292969 43 399.367188 42.816406 C 398.445312 42.632812 397.546875 42.359375 396.679688 42 C 395.808594 41.640625 394.984375 41.199219 394.199219 40.675781 C 393.417969 40.152344 392.691406 39.558594 392.027344 38.894531 C 391.363281 38.226562 390.765625 37.503906 390.246094 36.71875 C 389.722656 35.9375 389.28125 35.109375 388.917969 34.242188 C 388.558594 33.371094 388.285156 32.476562 388.101562 31.550781 C 387.917969 30.628906 387.828125 29.695312 387.828125 28.753906 C 387.828125 27.8125 387.917969 26.882812 388.101562 25.957031 C 388.285156 25.035156 388.558594 24.136719 388.917969 23.269531 C 389.28125 22.398438 389.722656 21.574219 390.246094 20.789062 C 390.765625 20.007812 391.363281 19.28125 392.027344 18.617188 C 392.691406 17.953125 393.417969 17.355469 394.199219 16.835938 C 394.984375 16.3125 395.808594 15.871094 396.679688 15.507812 C 397.546875 15.148438 398.445312 14.878906 399.367188 14.695312 C 400.292969 14.511719 401.222656 14.417969 402.164062 14.417969 C 403.105469 14.417969 404.039062 14.511719 404.960938 14.695312 C 405.886719 14.878906 406.78125 15.148438 407.652344 15.507812 C 408.519531 15.871094 409.347656 16.3125 410.128906 16.835938 C 410.914062 17.355469 411.636719 17.953125 412.304688 18.617188 C 412.96875 19.28125 413.5625 20.007812 414.085938 20.789062 C 414.609375 21.574219 415.050781 22.398438 415.410156 23.269531 C 415.769531 24.136719 416.042969 25.035156 416.226562 25.957031 C 416.410156 26.882812 416.503906 27.8125 416.503906 28.753906 Z M 416.503906 28.753906 " fill-opacity="1" fill-rule="nonzero"/><path fill="#009688" d="M 682.992188 666.628906 C 682.992188 667.570312 682.898438 668.503906 682.714844 669.425781 C 682.53125 670.351562 682.261719 671.246094 681.902344 672.117188 C 681.539062 672.984375 681.097656 673.8125 680.574219 674.59375 C 680.050781 675.378906 679.457031 676.101562 678.792969 676.769531 C 678.128906 677.433594 677.402344 678.027344 676.621094 678.550781 C 675.835938 679.074219 675.011719 679.515625 674.140625 679.875 C 673.273438 680.234375 672.375 680.507812 671.453125 680.691406 C 670.527344 680.875 669.597656 680.96875 668.65625 680.96875 C 667.714844 680.96875 666.78125 680.875 665.859375 680.691406 C 664.933594 680.507812 664.039062 680.234375 663.167969 679.875 C 662.296875 679.515625 661.472656 679.074219 660.691406 678.550781 C 659.90625 678.027344 659.183594 677.433594 658.515625 676.769531 C 657.851562 676.101562 657.257812 675.378906 656.734375 674.59375 C 656.210938 673.8125 655.769531 672.984375 655.410156 672.117188 C 655.050781 671.246094 654.777344 670.351562 654.59375 669.425781 C 654.410156 668.503906 654.316406 667.570312 654.316406 666.628906 C 654.316406 665.6875 654.410156 664.757812 654.59375 663.832031 C 654.777344 662.910156 655.050781 662.011719 655.410156 661.144531 C 655.769531 660.273438 656.210938 659.449219 656.734375 658.664062 C 657.257812 657.882812 657.851562 657.15625 658.515625 656.492188 C 659.183594 655.828125 659.90625 655.230469 660.691406 654.710938 C 661.472656 654.1875 662.296875 653.746094 663.167969 653.382812 C 664.039062 653.023438 664.933594 652.753906 665.859375 652.570312 C 666.78125 652.386719 667.714844 652.292969 668.65625 652.292969 C 669.597656 652.292969 670.527344 652.386719 671.453125 652.570312 C 672.375 652.753906 673.273438 653.023438 674.140625 653.382812 C 675.011719 653.746094 675.835938 654.1875 676.621094 654.710938 C 677.402344 655.230469 678.128906 655.828125 678.792969 656.492188 C 679.457031 657.15625 680.054688 657.882812 680.574219 658.664062 C 681.097656 659.449219 681.539062 660.273438 681.902344 661.144531 C 682.261719 662.011719 682.53125 662.910156 682.714844 663.832031 C 682.898438 664.757812 682.992188 665.6875 682.992188 666.628906 Z M 682.992188 666.628906 " fill-opacity="1" fill-rule="nonzero"/><path fill="#009688" d="M 31.671875 372.601562 C 31.671875 373.542969 31.578125 374.472656 31.394531 375.398438 C 31.210938 376.320312 30.941406 377.214844 30.578125 378.085938 C 30.21875 378.957031 29.777344 379.78125 29.253906 380.566406 C 28.730469 381.347656 28.136719 382.070312 27.472656 382.738281 C 26.804688 383.402344 26.082031 383.996094 25.300781 384.519531 C 24.515625 385.042969 23.691406 385.484375 22.820312 385.84375 C 21.949219 386.207031 21.054688 386.476562 20.132812 386.660156 C 19.207031 386.84375 18.273438 386.9375 17.335938 386.9375 C 16.394531 386.9375 15.460938 386.84375 14.535156 386.660156 C 13.613281 386.476562 12.71875 386.207031 11.847656 385.84375 C 10.976562 385.484375 10.152344 385.042969 9.367188 384.519531 C 8.585938 383.996094 7.863281 383.402344 7.195312 382.738281 C 6.53125 382.070312 5.9375 381.347656 5.414062 380.566406 C 4.890625 379.78125 4.449219 378.957031 4.089844 378.085938 C 3.726562 377.214844 3.457031 376.320312 3.273438 375.398438 C 3.089844 374.472656 2.996094 373.542969 2.996094 372.601562 C 2.996094 371.660156 3.089844 370.726562 3.273438 369.804688 C 3.457031 368.878906 3.726562 367.984375 4.089844 367.113281 C 4.449219 366.242188 4.890625 365.417969 5.414062 364.632812 C 5.9375 363.851562 6.53125 363.128906 7.195312 362.460938 C 7.863281 361.796875 8.585938 361.203125 9.367188 360.679688 C 10.152344 360.15625 10.976562 359.714844 11.847656 359.355469 C 12.71875 358.992188 13.613281 358.722656 14.535156 358.539062 C 15.460938 358.355469 16.394531 358.261719 17.335938 358.261719 C 18.273438 358.261719 19.207031 358.355469 20.132812 358.539062 C 21.054688 358.722656 21.949219 358.992188 22.820312 359.355469 C 23.691406 359.714844 24.515625 360.15625 25.300781 360.679688 C 26.082031 361.203125 26.804688 361.796875 27.472656 362.460938 C 28.136719 363.128906 28.730469 363.851562 29.253906 364.636719 C 29.777344 365.417969 30.21875 366.242188 30.578125 367.113281 C 30.941406 367.984375 31.210938 368.878906 31.394531 369.804688 C 31.578125 370.726562 31.671875 371.660156 31.671875 372.601562 Z M 31.671875 372.601562 " fill-opacity="1" fill-rule="nonzero"/><path fill="#009688" d="M 751.4375 55.160156 C 751.4375 56.101562 751.34375 57.035156 751.160156 57.957031 C 750.976562 58.882812 750.707031 59.777344 750.34375 60.648438 C 749.984375 61.515625 749.542969 62.34375 749.019531 63.125 C 748.496094 63.910156 747.902344 64.632812 747.238281 65.296875 C 746.570312 65.964844 745.847656 66.558594 745.066406 67.082031 C 744.28125 67.605469 743.457031 68.046875 742.585938 68.40625 C 741.714844 68.765625 740.820312 69.039062 739.898438 69.222656 C 738.972656 69.40625 738.042969 69.496094 737.101562 69.496094 C 736.160156 69.496094 735.226562 69.40625 734.304688 69.222656 C 733.378906 69.039062 732.484375 68.765625 731.613281 68.40625 C 730.742188 68.046875 729.917969 67.605469 729.132812 67.082031 C 728.351562 66.558594 727.628906 65.964844 726.960938 65.296875 C 726.296875 64.632812 725.703125 63.910156 725.179688 63.125 C 724.65625 62.34375 724.214844 61.515625 723.855469 60.648438 C 723.492188 59.777344 723.222656 58.882812 723.039062 57.957031 C 722.855469 57.035156 722.761719 56.101562 722.761719 55.160156 C 722.761719 54.21875 722.855469 53.289062 723.039062 52.363281 C 723.222656 51.441406 723.492188 50.542969 723.855469 49.675781 C 724.214844 48.804688 724.65625 47.980469 725.179688 47.195312 C 725.703125 46.414062 726.296875 45.6875 726.960938 45.023438 C 727.628906 44.359375 728.351562 43.761719 729.132812 43.238281 C 729.917969 42.71875 730.742188 42.277344 731.613281 41.914062 C 732.484375 41.554688 733.378906 41.28125 734.304688 41.097656 C 735.226562 40.914062 736.160156 40.824219 737.101562 40.824219 C 738.042969 40.824219 738.972656 40.914062 739.898438 41.097656 C 740.820312 41.28125 741.714844 41.554688 742.585938 41.914062 C 743.457031 42.277344 744.28125 42.71875 745.066406 43.238281 C 745.847656 43.761719 746.570312 44.359375 747.238281 45.023438 C 747.902344 45.6875 748.496094 46.414062 749.019531 47.195312 C 749.542969 47.980469 749.984375 48.804688 750.34375 49.675781 C 750.707031 50.542969 750.976562 51.441406 751.160156 52.363281 C 751.34375 53.289062 751.4375 54.21875 751.4375 55.160156 Z M 751.4375 55.160156 " fill-opacity="1" fill-rule="nonzero"/><path fill="#009688" d="M 674.488281 666.628906 C 674.488281 667.09375 674.441406 667.550781 674.351562 668.003906 C 674.261719 668.457031 674.128906 668.898438 673.949219 669.328125 C 673.773438 669.753906 673.554688 670.160156 673.300781 670.546875 C 673.042969 670.929688 672.75 671.285156 672.421875 671.613281 C 672.09375 671.941406 671.738281 672.230469 671.355469 672.488281 C 670.96875 672.746094 670.5625 672.964844 670.136719 673.140625 C 669.710938 673.316406 669.269531 673.453125 668.816406 673.542969 C 668.359375 673.632812 667.902344 673.675781 667.441406 673.675781 C 666.976562 673.675781 666.519531 673.632812 666.066406 673.542969 C 665.609375 673.453125 665.171875 673.316406 664.742188 673.140625 C 664.316406 672.964844 663.910156 672.746094 663.523438 672.488281 C 663.140625 672.230469 662.785156 671.941406 662.457031 671.613281 C 662.128906 671.285156 661.835938 670.929688 661.582031 670.546875 C 661.324219 670.160156 661.105469 669.753906 660.929688 669.328125 C 660.753906 668.898438 660.617188 668.457031 660.527344 668.003906 C 660.4375 667.550781 660.394531 667.09375 660.394531 666.628906 C 660.394531 666.167969 660.4375 665.710938 660.527344 665.253906 C 660.617188 664.800781 660.753906 664.359375 660.929688 663.933594 C 661.105469 663.503906 661.324219 663.097656 661.582031 662.714844 C 661.835938 662.328125 662.128906 661.972656 662.457031 661.648438 C 662.785156 661.320312 663.140625 661.027344 663.523438 660.769531 C 663.910156 660.511719 664.316406 660.296875 664.742188 660.121094 C 665.171875 659.941406 665.609375 659.808594 666.066406 659.71875 C 666.519531 659.628906 666.976562 659.582031 667.441406 659.582031 C 667.902344 659.582031 668.359375 659.628906 668.816406 659.71875 C 669.269531 659.808594 669.710938 659.941406 670.136719 660.121094 C 670.5625 660.296875 670.96875 660.511719 671.355469 660.769531 C 671.738281 661.027344 672.09375 661.320312 672.421875 661.648438 C 672.75 661.972656 673.042969 662.328125 673.300781 662.714844 C 673.554688 663.097656 673.773438 663.503906 673.949219 663.933594 C 674.128906 664.359375 674.261719 664.800781 674.351562 665.253906 C 674.441406 665.710938 674.488281 666.167969 674.488281 666.628906 Z M 674.488281 666.628906 " fill-opacity="1" fill-rule="nonzero"/><path fill="#009688" d="M 674.488281 666.628906 C 674.488281 667.09375 674.441406 667.550781 674.351562 668.003906 C 674.261719 668.457031 674.128906 668.898438 673.949219 669.328125 C 673.773438 669.753906 673.554688 670.160156 673.300781 670.546875 C 673.042969 670.929688 672.75 671.285156 672.421875 671.613281 C 672.09375 671.941406 671.738281 672.230469 671.355469 672.488281 C 670.96875 672.746094 670.5625 672.964844 670.136719 673.140625 C 669.710938 673.316406 669.269531 673.453125 668.816406 673.542969 C 668.359375 673.632812 667.902344 673.675781 667.441406 673.675781 C 666.976562 673.675781 666.519531 673.632812 666.066406 673.542969 C 665.609375 673.453125 665.171875 673.316406 664.742188 673.140625 C 664.316406 672.964844 663.910156 672.746094 663.523438 672.488281 C 663.140625 672.230469 662.785156 671.941406 662.457031 671.613281 C 662.128906 671.285156 661.835938 670.929688 661.582031 670.546875 C 661.324219 670.160156 661.105469 669.753906 660.929688 669.328125 C 660.753906 668.898438 660.617188 668.457031 660.527344 668.003906 C 660.4375 667.550781 660.394531 667.09375 660.394531 666.628906 C 660.394531 666.167969 660.4375 665.710938 660.527344 665.253906 C 660.617188 664.800781 660.753906 664.359375 660.929688 663.933594 C 661.105469 663.503906 661.324219 663.097656 661.582031 662.714844 C 661.835938 662.328125 662.128906 661.972656 662.457031 661.648438 C 662.785156 661.320312 663.140625 661.027344 663.523438 660.769531 C 663.910156 660.511719 664.316406 660.296875 664.742188 660.121094 C 665.171875 659.941406 665.609375 659.808594 666.066406 659.71875 C 666.519531 659.628906 666.976562 659.582031 667.441406 659.582031 C 667.902344 659.582031 668.359375 659.628906 668.816406 659.71875 C 669.269531 659.808594 669.710938 659.941406 670.136719 660.121094 C 670.5625 660.296875 670.96875 660.511719 671.355469 660.769531 C 671.738281 661.027344 672.09375 661.320312 672.421875 661.648438 C 672.75 661.972656 673.042969 662.328125 673.300781 662.714844 C 673.554688 663.097656 673.773438 663.503906 673.949219 663.933594 C 674.128906 664.359375 674.261719 664.800781 674.351562 665.253906 C 674.441406 665.710938 674.488281 666.167969 674.488281 666.628906 Z M 674.488281 666.628906 " fill-opacity="1" fill-rule="nonzero"/><path fill="#009688" d="M 407.1875 763.828125 C 407.1875 764.292969 407.140625 764.75 407.050781 765.203125 C 406.960938 765.660156 406.828125 766.097656 406.652344 766.527344 C 406.472656 766.953125 406.257812 767.359375 406 767.746094 C 405.742188 768.128906 405.449219 768.484375 405.121094 768.8125 C 404.796875 769.140625 404.441406 769.433594 404.054688 769.6875 C 403.671875 769.945312 403.265625 770.164062 402.835938 770.339844 C 402.410156 770.515625 401.96875 770.652344 401.515625 770.742188 C 401.0625 770.832031 400.601562 770.875 400.140625 770.878906 C 399.675781 770.875 399.21875 770.832031 398.765625 770.742188 C 398.3125 770.652344 397.871094 770.515625 397.441406 770.339844 C 397.015625 770.164062 396.609375 769.945312 396.226562 769.6875 C 395.839844 769.433594 395.484375 769.140625 395.15625 768.8125 C 394.828125 768.484375 394.539062 768.128906 394.28125 767.746094 C 394.023438 767.359375 393.804688 766.953125 393.628906 766.527344 C 393.453125 766.097656 393.320312 765.660156 393.226562 765.203125 C 393.136719 764.75 393.09375 764.292969 393.09375 763.828125 C 393.09375 763.367188 393.136719 762.910156 393.226562 762.457031 C 393.320312 762 393.453125 761.5625 393.628906 761.132812 C 393.804688 760.707031 394.023438 760.300781 394.28125 759.914062 C 394.539062 759.53125 394.828125 759.175781 395.15625 758.847656 C 395.484375 758.519531 395.839844 758.226562 396.226562 757.96875 C 396.609375 757.714844 397.015625 757.496094 397.441406 757.320312 C 397.871094 757.140625 398.3125 757.007812 398.765625 756.917969 C 399.21875 756.828125 399.675781 756.78125 400.140625 756.78125 C 400.601562 756.78125 401.0625 756.828125 401.515625 756.917969 C 401.96875 757.007812 402.410156 757.140625 402.835938 757.320312 C 403.265625 757.496094 403.671875 757.714844 404.054688 757.96875 C 404.441406 758.226562 404.796875 758.519531 405.121094 758.847656 C 405.449219 759.175781 405.742188 759.53125 406 759.914062 C 406.257812 760.300781 406.472656 760.707031 406.652344 761.132812 C 406.828125 761.5625 406.960938 762 407.050781 762.457031 C 407.140625 762.910156 407.1875 763.367188 407.1875 763.828125 Z M 407.1875 763.828125 " fill-opacity="1" fill-rule="nonzero"/><path fill="#009688" d="M 157.300781 636.253906 C 157.300781 636.71875 157.257812 637.175781 157.167969 637.628906 C 157.078125 638.082031 156.941406 638.523438 156.765625 638.953125 C 156.589844 639.378906 156.371094 639.785156 156.113281 640.171875 C 155.855469 640.554688 155.566406 640.910156 155.238281 641.238281 C 154.910156 641.566406 154.554688 641.855469 154.171875 642.113281 C 153.785156 642.371094 153.378906 642.589844 152.953125 642.765625 C 152.523438 642.941406 152.082031 643.074219 151.628906 643.167969 C 151.175781 643.257812 150.71875 643.300781 150.253906 643.300781 C 149.792969 643.300781 149.335938 643.257812 148.878906 643.167969 C 148.425781 643.074219 147.984375 642.941406 147.558594 642.765625 C 147.128906 642.589844 146.722656 642.371094 146.339844 642.113281 C 145.957031 641.855469 145.597656 641.566406 145.273438 641.238281 C 144.945312 640.910156 144.652344 640.554688 144.394531 640.171875 C 144.136719 639.785156 143.921875 639.378906 143.746094 638.953125 C 143.566406 638.523438 143.433594 638.082031 143.34375 637.628906 C 143.253906 637.175781 143.207031 636.71875 143.207031 636.253906 C 143.207031 635.792969 143.253906 635.332031 143.34375 634.878906 C 143.433594 634.425781 143.566406 633.984375 143.746094 633.558594 C 143.921875 633.128906 144.136719 632.722656 144.394531 632.339844 C 144.652344 631.957031 144.945312 631.597656 145.273438 631.273438 C 145.597656 630.945312 145.957031 630.652344 146.339844 630.394531 C 146.722656 630.136719 147.128906 629.921875 147.558594 629.746094 C 147.984375 629.566406 148.425781 629.433594 148.878906 629.34375 C 149.335938 629.253906 149.792969 629.207031 150.253906 629.207031 C 150.71875 629.207031 151.175781 629.253906 151.628906 629.34375 C 152.082031 629.433594 152.523438 629.566406 152.953125 629.746094 C 153.378906 629.921875 153.785156 630.136719 154.171875 630.394531 C 154.554688 630.652344 154.910156 630.945312 155.238281 631.273438 C 155.566406 631.597656 155.855469 631.957031 156.113281 632.339844 C 156.371094 632.722656 156.589844 633.128906 156.765625 633.558594 C 156.941406 633.984375 157.078125 634.425781 157.167969 634.878906 C 157.257812 635.332031 157.300781 635.792969 157.300781 636.253906 Z M 157.300781 636.253906 " fill-opacity="1" fill-rule="nonzero"/></svg>