<svg xmlns="http://www.w3.org/2000/svg" xmlns:xlink="http://www.w3.org/1999/xlink" width="1080" zoomAndPan="magnify" viewBox="0 0 810 809.999993" height="1080" preserveAspectRatio="xMidYMid meet" version="1.0"><path fill="#009688" d="M 661.769531 400.140625 C 661.769531 422.011719 679.589844 439.828125 701.460938 439.828125 C 707.941406 439.828125 714.421875 438.210938 720.089844 434.96875 L 730.621094 445.5 C 733.050781 447.929688 735.480469 448.738281 738.71875 448.738281 C 741.960938 448.738281 744.390625 447.929688 746.820312 445.5 C 751.679688 440.640625 751.679688 433.351562 746.820312 429.300781 L 736.289062 418.769531 C 739.53125 413.101562 741.148438 406.621094 741.148438 400.140625 C 741.148438 378.269531 723.328125 360.449219 701.460938 360.449219 C 679.589844 360.449219 661.769531 378.269531 661.769531 400.140625 Z M 717.660156 400.140625 C 717.660156 404.191406 716.039062 408.238281 713.609375 411.480469 C 713.609375 411.480469 713.609375 411.480469 712.800781 412.289062 C 712.800781 412.289062 712.800781 412.289062 711.988281 413.101562 C 708.75 415.53125 705.511719 417.148438 700.648438 417.148438 C 691.738281 417.148438 684.449219 409.859375 684.449219 400.949219 C 684.449219 392.039062 691.738281 384.75 700.648438 384.75 C 709.558594 384.75 717.660156 391.230469 717.660156 400.140625 Z M 717.660156 400.140625 " fill-opacity="1" fill-rule="nonzero"/><path fill="#162b4d" d="M 788.128906 311.039062 L 756.539062 311.039062 C 750.058594 311.039062 745.199219 315.898438 745.199219 322.378906 C 745.199219 328.859375 750.058594 333.71875 756.539062 333.71875 L 776.789062 333.71875 L 776.789062 475.46875 L 635.039062 475.46875 L 635.039062 333.71875 L 702.269531 333.71875 C 708.75 333.71875 713.609375 328.859375 713.609375 322.378906 C 713.609375 315.898438 708.75 311.039062 702.269531 311.039062 L 697.410156 311.039062 C 678.78125 251.910156 640.710938 199.261719 591.300781 161.191406 C 537.839844 119.878906 473.851562 98.011719 405.808594 98.011719 C 404.191406 98.011719 405.808594 98.011719 401.761719 98.011719 C 346.679688 98.011719 292.410156 113.398438 245.429688 141.75 C 239.761719 144.988281 238.140625 152.28125 241.378906 157.949219 C 244.621094 163.621094 251.910156 165.238281 257.578125 162 C 279.449219 149.039062 302.128906 139.320312 326.429688 132.03125 C 302.941406 153.898438 283.5 185.488281 268.109375 224.371094 L 185.488281 224.371094 C 195.210938 213.03125 205.738281 202.5 216.269531 191.96875 C 221.128906 187.921875 221.128906 180.628906 217.078125 175.769531 C 213.03125 170.910156 205.738281 170.101562 200.878906 174.960938 C 158.761719 212.21875 127.980469 259.199219 110.96875 311.851562 L 21.871094 311.851562 C 15.390625 311.851562 10.53125 316.710938 10.53125 323.191406 L 10.53125 488.429688 C 10.53125 494.910156 15.390625 499.769531 21.871094 499.769531 L 112.589844 499.769531 C 131.21875 558.898438 169.289062 611.550781 218.699219 649.621094 C 272.160156 690.929688 336.148438 712.800781 404.191406 712.800781 C 405 712.800781 405 712.800781 408.238281 712.800781 C 475.46875 712.800781 540.269531 690.121094 593.730469 649.621094 C 643.140625 611.550781 680.398438 558.898438 699.839844 499.769531 L 790.558594 499.769531 C 797.039062 499.769531 801.898438 494.910156 801.898438 488.429688 L 801.898438 322.378906 C 800.28125 315.898438 794.609375 311.039062 788.128906 311.039062 Z M 622.890625 311.039062 L 564.570312 311.039062 C 560.519531 288.359375 555.660156 266.488281 549.179688 247.050781 L 641.519531 247.050781 C 654.480469 266.488281 665.820312 288.359375 673.921875 311.039062 Z M 268.921875 311.039062 C 272.96875 288.359375 278.640625 266.488281 285.121094 247.050781 L 392.851562 247.050781 L 392.851562 311.039062 Z M 416.339844 247.050781 L 524.070312 247.050781 C 530.550781 266.488281 536.21875 288.359375 540.269531 311.039062 L 416.339844 311.039062 Z M 416.339844 121.5 C 455.21875 127.980469 490.859375 166.050781 515.160156 223.558594 L 416.339844 223.558594 Z M 623.699219 223.558594 L 541.078125 223.558594 C 525.691406 184.679688 505.441406 153.089844 482.761719 131.21875 C 537.839844 147.421875 587.25 179.820312 623.699219 223.558594 Z M 393.660156 121.5 L 393.660156 223.558594 L 294.03125 223.558594 C 319.140625 166.050781 354.78125 127.980469 393.660156 121.5 Z M 168.480469 247.050781 L 260.820312 247.050781 C 254.339844 267.300781 249.480469 288.359375 245.429688 311.039062 L 136.890625 311.039062 C 144.179688 288.359375 155.519531 266.488281 168.480469 247.050781 Z M 149.039062 476.28125 L 33.210938 476.28125 L 33.210938 333.71875 L 611.550781 333.71875 L 611.550781 475.46875 L 202.5 475.46875 C 196.019531 475.46875 191.160156 480.328125 191.160156 486.808594 C 191.160156 493.289062 196.019531 498.148438 202.5 498.148438 L 245.429688 498.148438 C 249.480469 520.828125 254.339844 542.699219 260.820312 562.140625 L 168.480469 562.140625 C 155.519531 542.699219 144.179688 520.828125 136.078125 498.148438 L 148.230469 498.148438 C 154.710938 498.148438 159.570312 493.289062 159.570312 486.808594 C 160.378906 481.140625 154.710938 476.28125 149.039062 476.28125 Z M 393.660156 586.441406 L 393.660156 688.5 C 354.78125 682.019531 319.140625 643.949219 294.839844 586.441406 Z M 285.121094 562.949219 C 278.640625 543.511719 272.96875 521.640625 268.921875 498.960938 L 393.660156 498.960938 L 393.660156 562.949219 Z M 416.339844 688.5 L 416.339844 586.441406 L 515.160156 586.441406 C 490.859375 643.949219 455.21875 682.019531 416.339844 688.5 Z M 416.339844 562.949219 L 416.339844 498.960938 L 541.078125 498.960938 C 537.03125 521.640625 531.359375 543.511719 524.878906 562.949219 Z M 186.300781 586.441406 L 269.730469 586.441406 C 285.121094 625.320312 305.371094 656.910156 328.050781 678.78125 C 272.160156 662.578125 222.75 630.179688 186.300781 586.441406 Z M 482.761719 678.78125 C 506.25 656.910156 525.691406 625.320312 541.078125 586.441406 L 623.699219 586.441406 C 587.25 630.179688 537.839844 662.578125 482.761719 678.78125 Z M 641.519531 562.949219 L 549.179688 562.949219 C 555.660156 542.699219 560.519531 521.640625 564.570312 498.960938 L 673.109375 498.960938 C 665.820312 522.449219 654.480469 543.511719 641.519531 562.949219 Z M 641.519531 562.949219 " fill-opacity="1" fill-rule="nonzero"/></svg>