<svg xmlns="http://www.w3.org/2000/svg" xmlns:xlink="http://www.w3.org/1999/xlink" width="1080" zoomAndPan="magnify" viewBox="0 0 810 809.999993" height="1080" preserveAspectRatio="xMidYMid meet" version="1.0"><path fill="#009688" d="M 203.632812 340.199219 L 338.984375 235.546875 L 396.332031 286.984375 C 397.253906 287.820312 398.238281 288.566406 399.292969 289.230469 C 400.34375 289.894531 401.445312 290.460938 402.59375 290.929688 C 403.746094 291.398438 404.929688 291.765625 406.144531 292.027344 C 407.359375 292.292969 408.589844 292.445312 409.832031 292.496094 C 411.074219 292.542969 412.308594 292.480469 413.542969 292.3125 C 414.773438 292.144531 415.980469 291.871094 417.164062 291.488281 C 418.347656 291.109375 419.488281 290.628906 420.589844 290.050781 C 421.6875 289.46875 422.730469 288.796875 423.710938 288.035156 L 538.488281 198.9375 L 535.410156 224.289062 C 535.382812 224.996094 535.417969 225.695312 535.519531 226.394531 C 535.621094 227.09375 535.789062 227.777344 536.019531 228.445312 C 536.246094 229.109375 536.535156 229.75 536.886719 230.363281 C 537.234375 230.976562 537.636719 231.554688 538.09375 232.09375 C 538.550781 232.628906 539.054688 233.121094 539.601562 233.566406 C 540.152344 234.011719 540.738281 234.398438 541.359375 234.734375 C 541.980469 235.070312 542.625 235.34375 543.300781 235.558594 C 543.972656 235.773438 544.660156 235.921875 545.359375 236.007812 C 546.058594 236.09375 546.761719 236.117188 547.464844 236.070312 C 548.171875 236.023438 548.863281 235.914062 549.550781 235.742188 C 550.234375 235.566406 550.894531 235.328125 551.535156 235.03125 C 552.175781 234.730469 552.78125 234.375 553.355469 233.964844 C 553.925781 233.554688 554.457031 233.09375 554.945312 232.582031 C 555.433594 232.070312 555.867188 231.519531 556.253906 230.925781 C 556.636719 230.335938 556.964844 229.710938 557.230469 229.058594 C 557.5 228.40625 557.703125 227.734375 557.847656 227.042969 C 563.761719 178.441406 564.246094 175.042969 564.246094 173.664062 C 564.269531 172.898438 564.214844 172.140625 564.082031 171.386719 C 563.949219 170.632812 563.742188 169.898438 563.464844 169.1875 C 563.183594 168.472656 562.835938 167.796875 562.417969 167.15625 C 562 166.515625 561.523438 165.921875 560.984375 165.375 C 560.449219 164.832031 559.859375 164.347656 559.226562 163.917969 C 558.589844 163.492188 557.917969 163.136719 557.210938 162.84375 C 556.5 162.554688 555.773438 162.339844 555.019531 162.195312 C 554.269531 162.054688 553.507812 161.988281 552.742188 162 L 498.71875 162 C 498.015625 162.058594 497.324219 162.183594 496.644531 162.371094 C 495.96875 162.558594 495.3125 162.808594 494.679688 163.117188 C 494.046875 163.429688 493.449219 163.792969 492.886719 164.214844 C 492.320312 164.636719 491.800781 165.109375 491.324219 165.625 C 490.847656 166.144531 490.421875 166.703125 490.050781 167.300781 C 489.679688 167.898438 489.363281 168.527344 489.109375 169.183594 C 488.851562 169.839844 488.660156 170.511719 488.53125 171.203125 C 488.398438 171.898438 488.335938 172.59375 488.335938 173.300781 C 488.335938 174.003906 488.398438 174.703125 488.53125 175.394531 C 488.660156 176.085938 488.851562 176.761719 489.109375 177.417969 C 489.363281 178.074219 489.679688 178.699219 490.050781 179.296875 C 490.421875 179.894531 490.847656 180.453125 491.324219 180.972656 C 491.800781 181.492188 492.320312 181.960938 492.886719 182.382812 C 493.449219 182.804688 494.046875 183.171875 494.679688 183.480469 C 495.3125 183.789062 495.96875 184.039062 496.644531 184.226562 C 497.324219 184.414062 498.015625 184.539062 498.71875 184.597656 L 520.019531 184.597656 L 410.671875 269.566406 L 353.320312 218.050781 C 352.398438 217.226562 351.414062 216.484375 350.363281 215.828125 C 349.3125 215.171875 348.210938 214.613281 347.0625 214.148438 C 345.914062 213.6875 344.734375 213.324219 343.523438 213.066406 C 342.3125 212.808594 341.085938 212.660156 339.851562 212.617188 C 338.613281 212.570312 337.378906 212.632812 336.152344 212.804688 C 334.925781 212.976562 333.722656 213.253906 332.546875 213.632812 C 331.367188 214.011719 330.230469 214.492188 329.132812 215.070312 C 328.039062 215.652344 327.003906 216.320312 326.023438 217.078125 L 189.78125 322.378906 C 189.199219 322.835938 188.664062 323.34375 188.179688 323.902344 C 187.695312 324.464844 187.269531 325.066406 186.90625 325.707031 C 186.539062 326.351562 186.242188 327.027344 186.007812 327.730469 C 185.773438 328.433594 185.613281 329.152344 185.519531 329.886719 C 185.429688 330.621094 185.410156 331.355469 185.460938 332.09375 C 185.515625 332.832031 185.640625 333.558594 185.835938 334.273438 C 186.035156 334.988281 186.296875 335.675781 186.628906 336.339844 C 186.960938 337 187.355469 337.625 187.808594 338.207031 C 188.261719 338.792969 188.769531 339.328125 189.328125 339.8125 C 189.890625 340.296875 190.492188 340.722656 191.132812 341.089844 C 191.777344 341.457031 192.449219 341.753906 193.152344 341.988281 C 193.855469 342.222656 194.574219 342.386719 195.308594 342.480469 C 196.042969 342.570312 196.78125 342.589844 197.519531 342.539062 C 198.257812 342.488281 198.984375 342.363281 199.699219 342.167969 C 200.414062 341.972656 201.101562 341.707031 201.761719 341.378906 C 202.425781 341.046875 203.050781 340.652344 203.632812 340.199219 Z M 203.632812 340.199219 " fill-opacity="1" fill-rule="nonzero"/><path fill="#162b4d" d="M 581.175781 466.804688 L 564.246094 466.804688 L 564.246094 284.390625 C 564.246094 283.558594 564.1875 282.726562 564.070312 281.902344 C 563.953125 281.074219 563.78125 280.261719 563.550781 279.460938 C 563.320312 278.660156 563.035156 277.875 562.695312 277.113281 C 562.355469 276.355469 561.960938 275.621094 561.519531 274.910156 C 561.078125 274.203125 560.589844 273.53125 560.050781 272.894531 C 559.515625 272.253906 558.9375 271.65625 558.316406 271.097656 C 557.699219 270.542969 557.042969 270.027344 556.351562 269.5625 C 555.660156 269.097656 554.9375 268.679688 554.1875 268.316406 C 553.4375 267.949219 552.667969 267.636719 551.875 267.382812 C 551.082031 267.125 550.273438 266.921875 549.453125 266.777344 C 548.628906 266.632812 547.800781 266.546875 546.96875 266.515625 C 546.136719 266.488281 545.304688 266.515625 544.472656 266.605469 C 543.644531 266.691406 542.824219 266.835938 542.015625 267.039062 C 541.207031 267.238281 540.414062 267.496094 539.640625 267.808594 C 538.867188 268.121094 538.121094 268.484375 537.398438 268.902344 C 536.675781 269.320312 535.988281 269.785156 535.328125 270.296875 L 504.628906 294.597656 C 503.652344 295.359375 502.773438 296.222656 501.992188 297.1875 C 501.214844 298.152344 500.554688 299.195312 500.011719 300.3125 C 499.472656 301.425781 499.066406 302.589844 498.792969 303.800781 C 498.519531 305.011719 498.386719 306.234375 498.394531 307.476562 L 498.394531 466.804688 L 459.917969 466.804688 L 459.917969 362.476562 C 459.941406 360.9375 459.746094 359.429688 459.339844 357.949219 C 458.933594 356.46875 458.328125 355.074219 457.523438 353.765625 C 456.722656 352.453125 455.75 351.285156 454.613281 350.25 C 453.476562 349.21875 452.21875 348.363281 450.839844 347.6875 C 449.460938 347.015625 448.011719 346.542969 446.5 346.28125 C 444.984375 346.015625 443.464844 345.96875 441.9375 346.140625 C 440.414062 346.308594 438.9375 346.6875 437.519531 347.273438 C 436.101562 347.863281 434.792969 348.636719 433.59375 349.597656 L 400.382812 375.433594 C 399.398438 376.195312 398.511719 377.054688 397.722656 378.015625 C 396.9375 378.980469 396.269531 380.019531 395.722656 381.136719 C 395.171875 382.253906 394.757812 383.417969 394.480469 384.628906 C 394.199219 385.84375 394.0625 387.070312 394.066406 388.3125 L 394.066406 466.804688 L 355.589844 466.804688 L 355.589844 326.753906 C 355.617188 325.230469 355.433594 323.730469 355.035156 322.257812 C 354.640625 320.785156 354.046875 319.394531 353.257812 318.089844 C 352.46875 316.785156 351.515625 315.613281 350.394531 314.578125 C 349.277344 313.542969 348.035156 312.679688 346.671875 311.996094 C 345.3125 311.308594 343.878906 310.828125 342.382812 310.546875 C 340.882812 310.261719 339.375 310.195312 337.855469 310.339844 C 336.335938 310.484375 334.867188 310.835938 333.449219 311.398438 C 332.03125 311.957031 330.714844 312.703125 329.507812 313.632812 L 296.296875 338.335938 C 295.273438 339.09375 294.351562 339.960938 293.53125 340.9375 C 292.710938 341.914062 292.015625 342.972656 291.445312 344.113281 C 290.875 345.253906 290.449219 346.445312 290.160156 347.683594 C 289.871094 348.925781 289.730469 350.183594 289.738281 351.460938 L 289.738281 383.859375 C 289.796875 384.5625 289.921875 385.25 290.109375 385.929688 C 290.296875 386.609375 290.546875 387.265625 290.855469 387.894531 C 291.164062 388.527344 291.53125 389.125 291.953125 389.691406 C 292.375 390.253906 292.84375 390.773438 293.363281 391.25 C 293.882812 391.726562 294.441406 392.152344 295.039062 392.523438 C 295.636719 392.898438 296.261719 393.210938 296.917969 393.46875 C 297.574219 393.722656 298.25 393.917969 298.941406 394.046875 C 299.632812 394.175781 300.332031 394.242188 301.035156 394.242188 C 301.742188 394.242188 302.4375 394.175781 303.132812 394.046875 C 303.824219 393.917969 304.496094 393.722656 305.152344 393.46875 C 305.808594 393.210938 306.4375 392.898438 307.035156 392.523438 C 307.632812 392.152344 308.191406 391.726562 308.710938 391.25 C 309.226562 390.773438 309.699219 390.253906 310.121094 389.691406 C 310.542969 389.125 310.90625 388.527344 311.21875 387.894531 C 311.527344 387.265625 311.777344 386.609375 311.964844 385.929688 C 312.152344 385.25 312.277344 384.5625 312.335938 383.859375 L 312.335938 354.535156 L 333.070312 339.148438 L 333.070312 466.804688 L 312.335938 466.804688 L 312.335938 436.914062 C 312.402344 436.132812 312.386719 435.351562 312.292969 434.570312 C 312.195312 433.792969 312.019531 433.03125 311.765625 432.289062 C 311.511719 431.546875 311.1875 430.835938 310.785156 430.164062 C 310.382812 429.488281 309.917969 428.863281 309.386719 428.285156 C 308.855469 427.707031 308.269531 427.1875 307.632812 426.730469 C 306.992188 426.277344 306.316406 425.890625 305.597656 425.574219 C 304.878906 425.257812 304.132812 425.019531 303.367188 424.859375 C 302.597656 424.695312 301.820312 424.617188 301.035156 424.617188 C 300.25 424.617188 299.476562 424.695312 298.707031 424.859375 C 297.9375 425.019531 297.195312 425.257812 296.476562 425.574219 C 295.757812 425.890625 295.078125 426.277344 294.441406 426.730469 C 293.800781 427.1875 293.21875 427.707031 292.6875 428.285156 C 292.15625 428.863281 291.6875 429.488281 291.289062 430.164062 C 290.886719 430.835938 290.558594 431.546875 290.304688 432.289062 C 290.050781 433.03125 289.878906 433.792969 289.78125 434.570312 C 289.683594 435.351562 289.671875 436.132812 289.738281 436.914062 L 289.738281 466.804688 L 251.101562 466.804688 L 251.101562 407.1875 C 251.117188 406.414062 251.082031 405.648438 250.988281 404.882812 C 250.894531 404.117188 250.75 403.359375 250.550781 402.613281 C 250.347656 401.871094 250.097656 401.144531 249.792969 400.433594 C 249.488281 399.726562 249.136719 399.042969 248.734375 398.382812 C 248.332031 397.722656 247.886719 397.097656 247.394531 396.503906 C 246.902344 395.90625 246.371094 395.351562 245.800781 394.832031 C 245.230469 394.3125 244.625 393.835938 243.988281 393.40625 C 243.347656 392.972656 242.683594 392.585938 241.988281 392.25 C 241.292969 391.914062 240.582031 391.625 239.84375 391.390625 C 239.109375 391.15625 238.363281 390.972656 237.601562 390.84375 C 236.84375 390.71875 236.074219 390.644531 235.304688 390.625 C 234.535156 390.605469 233.765625 390.640625 233 390.730469 C 232.234375 390.824219 231.476562 390.96875 230.730469 391.164062 C 229.984375 391.363281 229.257812 391.613281 228.550781 391.917969 C 227.839844 392.21875 227.15625 392.570312 226.496094 392.972656 C 225.835938 393.371094 225.207031 393.816406 224.613281 394.308594 L 191.726562 420.390625 C 190.746094 421.144531 189.863281 422 189.082031 422.957031 C 188.296875 423.914062 187.628906 424.945312 187.082031 426.054688 C 186.535156 427.164062 186.121094 428.320312 185.835938 429.527344 C 185.554688 430.730469 185.410156 431.949219 185.410156 433.1875 L 185.410156 466.804688 L 168.480469 466.804688 C 167.742188 466.804688 167.011719 466.878906 166.285156 467.023438 C 165.5625 467.167969 164.859375 467.382812 164.179688 467.667969 C 163.496094 467.949219 162.847656 468.296875 162.234375 468.707031 C 161.621094 469.117188 161.054688 469.585938 160.53125 470.109375 C 160.011719 470.632812 159.546875 471.199219 159.136719 471.8125 C 158.726562 472.429688 158.378906 473.078125 158.097656 473.757812 C 157.816406 474.441406 157.601562 475.144531 157.457031 475.867188 C 157.316406 476.59375 157.242188 477.324219 157.242188 478.0625 C 157.242188 478.800781 157.316406 479.53125 157.457031 480.253906 C 157.601562 480.980469 157.816406 481.683594 158.097656 482.367188 C 158.378906 483.046875 158.726562 483.695312 159.136719 484.308594 C 159.546875 484.925781 160.011719 485.492188 160.53125 486.015625 C 161.054688 486.539062 161.621094 487.003906 162.234375 487.414062 C 162.847656 487.828125 163.496094 488.175781 164.179688 488.457031 C 164.859375 488.742188 165.5625 488.957031 166.285156 489.101562 C 167.011719 489.246094 167.742188 489.320312 168.480469 489.320312 L 581.578125 489.320312 C 582.320312 489.320312 583.050781 489.246094 583.773438 489.101562 C 584.496094 488.957031 585.199219 488.742188 585.882812 488.457031 C 586.5625 488.175781 587.210938 487.828125 587.824219 487.414062 C 588.4375 487.003906 589.003906 486.539062 589.527344 486.015625 C 590.046875 485.492188 590.515625 484.925781 590.925781 484.308594 C 591.332031 483.695312 591.679688 483.046875 591.960938 482.367188 C 592.246094 481.683594 592.457031 480.980469 592.601562 480.257812 C 592.746094 479.53125 592.816406 478.800781 592.816406 478.0625 C 592.816406 477.324219 592.746094 476.59375 592.601562 475.867188 C 592.457031 475.144531 592.246094 474.441406 591.960938 473.757812 C 591.679688 473.074219 591.332031 472.429688 590.925781 471.8125 C 590.515625 471.199219 590.046875 470.632812 589.527344 470.109375 C 589.003906 469.585938 588.4375 469.117188 587.824219 468.707031 C 587.210938 468.296875 586.5625 467.949219 585.882812 467.667969 C 585.199219 467.382812 584.496094 467.167969 583.773438 467.023438 C 583.050781 466.878906 582.320312 466.804688 581.578125 466.804688 Z M 520.910156 310.148438 L 541.726562 293.949219 L 541.726562 466.804688 L 520.910156 466.804688 Z M 416.582031 391.148438 L 437.398438 374.949219 L 437.398438 466.804688 L 416.582031 466.804688 Z M 208.007812 436.265625 L 228.742188 420.066406 L 228.742188 466.882812 L 208.007812 466.882812 Z M 208.007812 436.265625 " fill-opacity="1" fill-rule="nonzero"/><path fill="#162b4d" d="M 283.5 547.234375 L 168.480469 547.234375 C 167.777344 547.296875 167.089844 547.417969 166.410156 547.605469 C 165.730469 547.796875 165.074219 548.042969 164.441406 548.355469 C 163.808594 548.664062 163.210938 549.03125 162.648438 549.453125 C 162.082031 549.875 161.5625 550.34375 161.085938 550.863281 C 160.609375 551.382812 160.1875 551.941406 159.8125 552.539062 C 159.441406 553.136719 159.125 553.761719 158.871094 554.417969 C 158.617188 555.074219 158.421875 555.75 158.292969 556.441406 C 158.164062 557.132812 158.097656 557.832031 158.097656 558.535156 C 158.097656 559.238281 158.164062 559.9375 158.292969 560.628906 C 158.421875 561.320312 158.617188 561.996094 158.871094 562.652344 C 159.125 563.308594 159.441406 563.9375 159.8125 564.535156 C 160.1875 565.132812 160.609375 565.6875 161.085938 566.207031 C 161.5625 566.726562 162.082031 567.195312 162.648438 567.617188 C 163.210938 568.039062 163.808594 568.40625 164.441406 568.714844 C 165.074219 569.027344 165.730469 569.277344 166.410156 569.464844 C 167.089844 569.652344 167.777344 569.777344 168.480469 569.835938 L 283.5 569.835938 C 284.28125 569.902344 285.0625 569.886719 285.839844 569.789062 C 286.621094 569.695312 287.382812 569.519531 288.125 569.265625 C 288.867188 569.011719 289.574219 568.683594 290.25 568.285156 C 290.925781 567.882812 291.550781 567.417969 292.128906 566.886719 C 292.707031 566.355469 293.226562 565.769531 293.683594 565.132812 C 294.136719 564.492188 294.523438 563.8125 294.839844 563.09375 C 295.15625 562.375 295.394531 561.632812 295.554688 560.863281 C 295.714844 560.097656 295.796875 559.320312 295.796875 558.535156 C 295.796875 557.75 295.714844 556.972656 295.554688 556.207031 C 295.394531 555.4375 295.15625 554.695312 294.839844 553.976562 C 294.523438 553.257812 294.136719 552.578125 293.683594 551.941406 C 293.226562 551.300781 292.707031 550.714844 292.128906 550.183594 C 291.550781 549.652344 290.925781 549.1875 290.25 548.785156 C 289.574219 548.386719 288.867188 548.058594 288.125 547.804688 C 287.382812 547.550781 286.621094 547.375 285.839844 547.28125 C 285.0625 547.183594 284.28125 547.167969 283.5 547.234375 Z M 283.5 547.234375 " fill-opacity="1" fill-rule="nonzero"/><path fill="#162b4d" d="M 283.5 599.398438 L 168.480469 599.398438 C 167.742188 599.398438 167.007812 599.472656 166.285156 599.617188 C 165.558594 599.761719 164.855469 599.972656 164.171875 600.257812 C 163.488281 600.539062 162.839844 600.886719 162.226562 601.296875 C 161.609375 601.707031 161.042969 602.175781 160.519531 602.699219 C 159.996094 603.21875 159.527344 603.789062 159.117188 604.402344 C 158.707031 605.019531 158.359375 605.667969 158.078125 606.351562 C 157.796875 607.035156 157.582031 607.738281 157.4375 608.460938 C 157.292969 609.1875 157.222656 609.917969 157.222656 610.660156 C 157.222656 611.398438 157.292969 612.128906 157.4375 612.855469 C 157.582031 613.582031 157.796875 614.285156 158.078125 614.96875 C 158.359375 615.652344 158.707031 616.300781 159.117188 616.914062 C 159.527344 617.527344 159.996094 618.097656 160.519531 618.621094 C 161.042969 619.144531 161.609375 619.609375 162.226562 620.019531 C 162.839844 620.429688 163.488281 620.777344 164.171875 621.0625 C 164.855469 621.34375 165.558594 621.558594 166.285156 621.703125 C 167.007812 621.847656 167.742188 621.917969 168.480469 621.917969 L 283.5 621.917969 C 284.238281 621.917969 284.972656 621.847656 285.695312 621.703125 C 286.421875 621.558594 287.125 621.34375 287.808594 621.0625 C 288.492188 620.777344 289.140625 620.429688 289.753906 620.019531 C 290.371094 619.609375 290.9375 619.144531 291.460938 618.621094 C 291.984375 618.097656 292.449219 617.527344 292.863281 616.914062 C 293.273438 616.300781 293.617188 615.652344 293.902344 614.96875 C 294.183594 614.285156 294.398438 613.582031 294.542969 612.855469 C 294.6875 612.128906 294.757812 611.398438 294.757812 610.660156 C 294.757812 609.917969 294.6875 609.1875 294.542969 608.460938 C 294.398438 607.738281 294.183594 607.035156 293.902344 606.351562 C 293.617188 605.667969 293.273438 605.019531 292.863281 604.402344 C 292.449219 603.789062 291.984375 603.21875 291.460938 602.699219 C 290.9375 602.175781 290.371094 601.707031 289.753906 601.296875 C 289.140625 600.886719 288.492188 600.539062 287.808594 600.257812 C 287.125 599.972656 286.421875 599.761719 285.695312 599.617188 C 284.972656 599.472656 284.238281 599.398438 283.5 599.398438 Z M 283.5 599.398438 " fill-opacity="1" fill-rule="nonzero"/><path fill="#162b4d" d="M 667.441406 78.164062 L 649.621094 78.164062 L 649.621094 54.675781 C 649.621094 53.242188 649.550781 51.8125 649.410156 50.386719 C 649.269531 48.957031 649.058594 47.542969 648.78125 46.136719 C 648.5 44.730469 648.152344 43.339844 647.738281 41.96875 C 647.320312 40.597656 646.839844 39.25 646.292969 37.925781 C 645.742188 36.597656 645.132812 35.304688 644.457031 34.039062 C 643.78125 32.777344 643.046875 31.546875 642.25 30.355469 C 641.457031 29.164062 640.605469 28.011719 639.695312 26.902344 C 638.785156 25.792969 637.828125 24.730469 636.8125 23.71875 C 635.800781 22.703125 634.742188 21.742188 633.632812 20.828125 C 632.527344 19.917969 631.378906 19.066406 630.1875 18.265625 C 628.996094 17.46875 627.769531 16.730469 626.503906 16.054688 C 625.242188 15.378906 623.949219 14.761719 622.625 14.214844 C 621.300781 13.664062 619.953125 13.179688 618.582031 12.761719 C 617.210938 12.34375 615.824219 11.992188 614.417969 11.710938 C 613.011719 11.429688 611.597656 11.214844 610.167969 11.074219 C 608.742188 10.929688 607.3125 10.855469 605.878906 10.855469 L 246.96875 10.855469 C 244.09375 10.851562 241.246094 11.132812 238.425781 11.699219 C 235.605469 12.261719 232.867188 13.09375 230.210938 14.199219 C 227.554688 15.304688 225.035156 16.660156 222.648438 18.265625 C 220.257812 19.867188 218.054688 21.691406 216.027344 23.734375 C 213.839844 25.839844 233.199219 6.480469 112.183594 127.574219 C 110.253906 129.585938 108.527344 131.765625 107.015625 134.105469 C 105.5 136.449219 104.222656 138.914062 103.183594 141.503906 C 102.140625 144.09375 101.355469 146.757812 100.828125 149.496094 C 100.296875 152.234375 100.035156 155 100.035156 157.789062 L 100.035156 669.304688 C 100.046875 670.730469 100.128906 672.15625 100.28125 673.574219 C 100.433594 674.992188 100.65625 676.402344 100.945312 677.800781 C 101.234375 679.199219 101.589844 680.578125 102.015625 681.941406 C 102.441406 683.304688 102.929688 684.644531 103.484375 685.960938 C 104.039062 687.277344 104.65625 688.5625 105.335938 689.816406 C 106.015625 691.070312 106.757812 692.292969 107.554688 693.472656 C 108.355469 694.65625 109.210938 695.796875 110.121094 696.898438 C 111.03125 697.996094 111.992188 699.050781 113.007812 700.054688 C 114.019531 701.0625 115.082031 702.015625 116.1875 702.917969 C 117.292969 703.820312 118.441406 704.667969 119.628906 705.457031 C 120.820312 706.25 122.042969 706.980469 123.304688 707.648438 C 124.5625 708.320312 125.855469 708.929688 127.171875 709.472656 C 128.492188 710.019531 129.835938 710.5 131.203125 710.914062 C 132.570312 711.328125 133.953125 711.671875 135.351562 711.953125 C 136.753906 712.230469 138.164062 712.441406 139.582031 712.582031 C 141.003906 712.726562 142.429688 712.796875 143.855469 712.800781 L 162 712.800781 L 162 736.289062 C 162 737.722656 162.070312 739.152344 162.210938 740.582031 C 162.351562 742.007812 162.5625 743.421875 162.839844 744.828125 C 163.121094 746.234375 163.46875 747.625 163.882812 748.996094 C 164.296875 750.367188 164.78125 751.714844 165.328125 753.039062 C 165.875 754.367188 166.488281 755.660156 167.164062 756.925781 C 167.835938 758.1875 168.574219 759.417969 169.367188 760.609375 C 170.164062 761.804688 171.015625 762.953125 171.925781 764.0625 C 172.832031 765.171875 173.792969 766.234375 174.804688 767.246094 C 175.820312 768.261719 176.878906 769.222656 177.984375 770.136719 C 179.09375 771.046875 180.242188 771.898438 181.433594 772.699219 C 182.625 773.496094 183.851562 774.234375 185.113281 774.910156 C 186.378906 775.589844 187.671875 776.203125 188.996094 776.753906 C 190.320312 777.300781 191.667969 777.785156 193.039062 778.203125 C 194.410156 778.625 195.796875 778.972656 197.203125 779.253906 C 198.609375 779.539062 200.023438 779.75 201.449219 779.890625 C 202.875 780.035156 204.304688 780.109375 205.738281 780.109375 L 667.441406 780.109375 C 668.875 780.109375 670.308594 780.039062 671.734375 779.898438 C 673.164062 779.757812 674.582031 779.550781 675.988281 779.269531 C 677.398438 778.988281 678.789062 778.640625 680.160156 778.222656 C 681.535156 777.808594 682.882812 777.324219 684.210938 776.773438 C 685.535156 776.226562 686.832031 775.613281 688.097656 774.9375 C 689.363281 774.261719 690.59375 773.523438 691.785156 772.726562 C 692.980469 771.929688 694.128906 771.074219 695.238281 770.164062 C 696.347656 769.253906 697.410156 768.289062 698.425781 767.277344 C 699.441406 766.261719 700.402344 765.199219 701.3125 764.089844 C 702.222656 762.980469 703.078125 761.828125 703.875 760.636719 C 704.671875 759.441406 705.410156 758.210938 706.085938 756.945312 C 706.761719 755.679688 707.375 754.386719 707.925781 753.058594 C 708.472656 751.734375 708.957031 750.382812 709.375 749.011719 C 709.789062 747.636719 710.140625 746.246094 710.417969 744.839844 C 710.699219 743.429688 710.910156 742.011719 711.050781 740.585938 C 711.191406 739.15625 711.261719 737.726562 711.261719 736.289062 L 711.261719 121.984375 C 711.257812 120.550781 711.183594 119.121094 711.042969 117.691406 C 710.898438 116.265625 710.6875 114.847656 710.40625 113.441406 C 710.125 112.035156 709.773438 110.648438 709.355469 109.273438 C 708.9375 107.902344 708.453125 106.554688 707.902344 105.230469 C 707.355469 103.902344 706.738281 102.609375 706.0625 101.34375 C 705.386719 100.082031 704.648438 98.851562 703.851562 97.660156 C 703.054688 96.46875 702.199219 95.316406 701.289062 94.207031 C 700.378906 93.097656 699.417969 92.039062 698.402344 91.023438 C 697.386719 90.007812 696.328125 89.046875 695.21875 88.136719 C 694.109375 87.226562 692.957031 86.371094 691.765625 85.574219 C 690.574219 84.777344 689.34375 84.039062 688.082031 83.363281 C 686.816406 82.6875 685.523438 82.074219 684.195312 81.523438 C 682.871094 80.972656 681.523438 80.488281 680.152344 80.070312 C 678.777344 79.652344 677.390625 79.300781 675.984375 79.019531 C 674.578125 78.738281 673.160156 78.527344 671.734375 78.382812 C 670.304688 78.242188 668.875 78.167969 667.441406 78.164062 Z M 221.941406 49.410156 L 221.941406 118.421875 C 221.941406 119.382812 221.847656 120.339844 221.660156 121.28125 C 221.46875 122.226562 221.191406 123.144531 220.824219 124.03125 C 220.457031 124.921875 220.003906 125.765625 219.46875 126.566406 C 218.933594 127.367188 218.328125 128.109375 217.644531 128.789062 C 216.964844 129.46875 216.226562 130.078125 215.425781 130.613281 C 214.625 131.148438 213.777344 131.597656 212.890625 131.96875 C 212 132.335938 211.082031 132.613281 210.140625 132.800781 C 209.195312 132.988281 208.242188 133.082031 207.277344 133.082031 L 138.511719 133.082031 Z M 688.5 736.613281 C 688.503906 737.3125 688.472656 738.007812 688.40625 738.699219 C 688.339844 739.394531 688.238281 740.082031 688.105469 740.765625 C 687.972656 741.449219 687.804688 742.125 687.605469 742.792969 C 687.40625 743.460938 687.171875 744.117188 686.90625 744.761719 C 686.644531 745.40625 686.347656 746.035156 686.019531 746.648438 C 685.695312 747.265625 685.335938 747.863281 684.953125 748.441406 C 684.566406 749.023438 684.152344 749.582031 683.710938 750.121094 C 683.269531 750.664062 682.804688 751.179688 682.3125 751.671875 C 681.820312 752.167969 681.304688 752.632812 680.769531 753.078125 C 680.230469 753.519531 679.671875 753.9375 679.09375 754.324219 C 678.515625 754.710938 677.917969 755.070312 677.304688 755.398438 C 676.691406 755.726562 676.0625 756.027344 675.417969 756.292969 C 674.773438 756.5625 674.121094 756.796875 673.453125 757 C 672.785156 757.203125 672.113281 757.371094 671.429688 757.507812 C 670.746094 757.644531 670.054688 757.746094 669.363281 757.8125 C 668.667969 757.882812 667.976562 757.917969 667.277344 757.917969 L 205.578125 757.917969 C 204.882812 757.914062 204.1875 757.878906 203.496094 757.808594 C 202.804688 757.738281 202.117188 757.632812 201.433594 757.492188 C 200.75 757.355469 200.078125 757.183594 199.414062 756.980469 C 198.746094 756.777344 198.09375 756.539062 197.449219 756.273438 C 196.808594 756.003906 196.179688 755.707031 195.566406 755.375 C 194.953125 755.046875 194.359375 754.6875 193.78125 754.296875 C 193.203125 753.910156 192.644531 753.496094 192.109375 753.050781 C 191.570312 752.609375 191.058594 752.140625 190.566406 751.648438 C 190.074219 751.15625 189.609375 750.640625 189.167969 750.101562 C 188.726562 749.5625 188.316406 749.003906 187.929688 748.425781 C 187.542969 747.84375 187.1875 747.25 186.859375 746.632812 C 186.53125 746.019531 186.234375 745.390625 185.96875 744.746094 C 185.703125 744.105469 185.46875 743.449219 185.269531 742.785156 C 185.066406 742.117188 184.898438 741.441406 184.761719 740.761719 C 184.628906 740.078125 184.527344 739.390625 184.457031 738.695312 C 184.390625 738.003906 184.355469 737.308594 184.355469 736.613281 L 184.355469 712.800781 L 605.878906 712.800781 C 607.3125 712.796875 608.742188 712.722656 610.167969 712.582031 C 611.597656 712.4375 613.011719 712.226562 614.417969 711.945312 C 615.824219 711.664062 617.210938 711.3125 618.582031 710.894531 C 619.953125 710.476562 621.300781 709.992188 622.625 709.441406 C 623.949219 708.890625 625.242188 708.277344 626.503906 707.597656 C 627.769531 706.921875 628.996094 706.183594 630.1875 705.386719 C 631.378906 704.589844 632.527344 703.734375 633.632812 702.824219 C 634.742188 701.914062 635.800781 700.949219 636.8125 699.9375 C 637.828125 698.921875 638.785156 697.859375 639.695312 696.75 C 640.605469 695.640625 641.457031 694.492188 642.25 693.300781 C 643.046875 692.105469 643.78125 690.878906 644.457031 689.613281 C 645.132812 688.347656 645.746094 687.054688 646.292969 685.730469 C 646.839844 684.40625 647.320312 683.058594 647.738281 681.683594 C 648.152344 680.3125 648.5 678.925781 648.78125 677.519531 C 649.058594 676.113281 649.269531 674.695312 649.410156 673.269531 C 649.550781 671.84375 649.621094 670.414062 649.621094 668.980469 L 649.621094 627.589844 C 649.621094 626.847656 649.550781 626.113281 649.40625 625.386719 C 649.265625 624.664062 649.050781 623.957031 648.769531 623.273438 C 648.488281 622.589844 648.140625 621.9375 647.730469 621.324219 C 647.320312 620.707031 646.851562 620.136719 646.332031 619.613281 C 645.808594 619.089844 645.238281 618.621094 644.621094 618.210938 C 644.007812 617.796875 643.359375 617.449219 642.675781 617.167969 C 641.992188 616.882812 641.285156 616.667969 640.558594 616.523438 C 639.835938 616.378906 639.101562 616.308594 638.359375 616.308594 C 637.621094 616.308594 636.886719 616.378906 636.160156 616.523438 C 635.4375 616.667969 634.730469 616.882812 634.046875 617.167969 C 633.363281 617.449219 632.714844 617.796875 632.097656 618.210938 C 631.484375 618.621094 630.914062 619.089844 630.390625 619.613281 C 629.867188 620.136719 629.402344 620.707031 628.992188 621.324219 C 628.582031 621.9375 628.234375 622.589844 627.953125 623.273438 C 627.671875 623.957031 627.457031 624.664062 627.316406 625.386719 C 627.171875 626.113281 627.101562 626.847656 627.101562 627.589844 L 627.101562 669.304688 C 627.101562 670 627.066406 670.691406 627 671.386719 C 626.933594 672.078125 626.828125 672.765625 626.695312 673.449219 C 626.558594 674.132812 626.390625 674.804688 626.1875 675.472656 C 625.988281 676.136719 625.753906 676.792969 625.488281 677.4375 C 625.222656 678.078125 624.925781 678.707031 624.597656 679.324219 C 624.269531 679.9375 623.914062 680.535156 623.527344 681.113281 C 623.144531 681.691406 622.730469 682.25 622.289062 682.789062 C 621.847656 683.328125 621.382812 683.84375 620.890625 684.339844 C 620.398438 684.832031 619.886719 685.300781 619.347656 685.742188 C 618.8125 686.183594 618.253906 686.597656 617.675781 686.988281 C 617.097656 687.375 616.503906 687.734375 615.890625 688.0625 C 615.277344 688.394531 614.648438 688.691406 614.007812 688.960938 C 613.363281 689.230469 612.710938 689.464844 612.046875 689.667969 C 611.378906 689.875 610.707031 690.042969 610.023438 690.183594 C 609.34375 690.320312 608.65625 690.425781 607.960938 690.496094 C 607.269531 690.566406 606.574219 690.601562 605.878906 690.605469 L 144.179688 690.605469 C 143.484375 690.605469 142.789062 690.570312 142.09375 690.503906 C 141.402344 690.433594 140.714844 690.332031 140.03125 690.195312 C 139.347656 690.058594 138.671875 689.890625 138.003906 689.6875 C 137.339844 689.484375 136.683594 689.25 136.039062 688.984375 C 135.398438 688.714844 134.769531 688.417969 134.152344 688.089844 C 133.539062 687.757812 132.941406 687.402344 132.363281 687.011719 C 131.785156 686.625 131.226562 686.210938 130.6875 685.765625 C 130.152344 685.324219 129.636719 684.855469 129.144531 684.363281 C 128.652344 683.867188 128.1875 683.351562 127.746094 682.8125 C 127.304688 682.273438 126.890625 681.710938 126.507812 681.132812 C 126.121094 680.550781 125.765625 679.953125 125.4375 679.339844 C 125.109375 678.722656 124.816406 678.09375 124.550781 677.449219 C 124.285156 676.804688 124.054688 676.148438 123.851562 675.480469 C 123.652344 674.8125 123.484375 674.136719 123.351562 673.453125 C 123.21875 672.769531 123.117188 672.082031 123.054688 671.386719 C 122.988281 670.695312 122.957031 670 122.957031 669.304688 L 122.957031 157.789062 C 122.917969 157.058594 122.917969 156.328125 122.957031 155.601562 L 207.601562 155.601562 C 208.820312 155.597656 210.035156 155.535156 211.246094 155.414062 C 212.457031 155.292969 213.65625 155.113281 214.851562 154.875 C 216.042969 154.632812 217.222656 154.335938 218.386719 153.980469 C 219.550781 153.628906 220.695312 153.214844 221.816406 152.75 C 222.941406 152.28125 224.039062 151.761719 225.113281 151.1875 C 226.1875 150.613281 227.226562 149.988281 228.238281 149.308594 C 229.25 148.632812 230.226562 147.910156 231.167969 147.136719 C 232.109375 146.363281 233.007812 145.546875 233.867188 144.6875 C 234.730469 143.828125 235.546875 142.925781 236.316406 141.988281 C 237.089844 141.046875 237.816406 140.070312 238.492188 139.058594 C 239.167969 138.046875 239.792969 137.003906 240.367188 135.933594 C 240.941406 134.859375 241.464844 133.761719 241.929688 132.636719 C 242.398438 131.511719 242.808594 130.371094 243.164062 129.207031 C 243.519531 128.042969 243.816406 126.863281 244.054688 125.667969 C 244.292969 124.476562 244.472656 123.273438 244.59375 122.0625 C 244.71875 120.851562 244.78125 119.640625 244.78125 118.421875 L 244.78125 33.535156 C 246.808594 33.535156 229.878906 33.535156 605.878906 33.535156 C 606.574219 33.535156 607.269531 33.566406 607.960938 33.636719 C 608.652344 33.703125 609.339844 33.804688 610.019531 33.941406 C 610.703125 34.078125 611.375 34.246094 612.039062 34.449219 C 612.707031 34.648438 613.359375 34.882812 614 35.148438 C 614.644531 35.414062 615.269531 35.710938 615.882812 36.039062 C 616.496094 36.367188 617.09375 36.722656 617.671875 37.109375 C 618.25 37.496094 618.804688 37.910156 619.34375 38.351562 C 619.878906 38.792969 620.394531 39.257812 620.886719 39.75 C 621.378906 40.242188 621.84375 40.753906 622.285156 41.292969 C 622.726562 41.832031 623.140625 42.386719 623.527344 42.964844 C 623.910156 43.542969 624.269531 44.140625 624.597656 44.753906 C 624.921875 45.363281 625.21875 45.992188 625.488281 46.632812 C 625.753906 47.277344 625.988281 47.929688 626.1875 48.59375 C 626.390625 49.261719 626.558594 49.933594 626.695312 50.617188 C 626.828125 51.296875 626.933594 51.984375 627 52.675781 C 627.066406 53.367188 627.101562 54.0625 627.101562 54.757812 L 627.101562 575.101562 C 627.101562 575.839844 627.175781 576.570312 627.320312 577.292969 C 627.46875 578.015625 627.683594 578.71875 627.964844 579.402344 C 628.25 580.082031 628.597656 580.730469 629.007812 581.34375 C 629.417969 581.957031 629.886719 582.527344 630.40625 583.046875 C 630.929688 583.570312 631.5 584.035156 632.113281 584.445312 C 632.726562 584.855469 633.375 585.199219 634.058594 585.480469 C 634.738281 585.765625 635.441406 585.976562 636.167969 586.121094 C 636.890625 586.265625 637.621094 586.335938 638.359375 586.335938 C 639.097656 586.335938 639.832031 586.265625 640.554688 586.121094 C 641.277344 585.976562 641.980469 585.765625 642.664062 585.480469 C 643.347656 585.199219 643.996094 584.855469 644.609375 584.445312 C 645.222656 584.035156 645.792969 583.570312 646.316406 583.046875 C 646.835938 582.527344 647.304688 581.957031 647.714844 581.34375 C 648.125 580.730469 648.472656 580.082031 648.757812 579.402344 C 649.039062 578.71875 649.253906 578.015625 649.398438 577.292969 C 649.546875 576.570312 649.617188 575.839844 649.621094 575.101562 L 649.621094 100.765625 L 667.441406 100.765625 C 668.132812 100.769531 668.820312 100.808594 669.507812 100.882812 C 670.195312 100.953125 670.878906 101.058594 671.558594 101.199219 C 672.234375 101.339844 672.902344 101.511719 673.5625 101.714844 C 674.226562 101.921875 674.875 102.15625 675.511719 102.425781 C 676.148438 102.695312 676.773438 102.992188 677.378906 103.320312 C 677.988281 103.652344 678.578125 104.007812 679.152344 104.398438 C 679.726562 104.785156 680.277344 105.199219 680.8125 105.640625 C 681.34375 106.078125 681.855469 106.546875 682.339844 107.035156 C 682.828125 107.527344 683.289062 108.042969 683.726562 108.578125 C 684.164062 109.113281 684.574219 109.667969 684.957031 110.246094 C 685.339844 110.820312 685.695312 111.414062 686.019531 112.027344 C 686.34375 112.636719 686.636719 113.261719 686.898438 113.902344 C 687.164062 114.542969 687.394531 115.191406 687.59375 115.855469 C 687.796875 116.515625 687.960938 117.1875 688.097656 117.867188 C 688.230469 118.542969 688.332031 119.226562 688.398438 119.914062 C 688.464844 120.605469 688.5 121.292969 688.5 121.984375 Z M 688.5 736.613281 " fill-opacity="1" fill-rule="nonzero"/></svg>