<svg xmlns="http://www.w3.org/2000/svg" xmlns:xlink="http://www.w3.org/1999/xlink" width="1080" zoomAndPan="magnify" viewBox="0 0 810 809.999993" height="1080" preserveAspectRatio="xMidYMid meet" version="1.0"><path fill="#162b4d" d="M 607.5 126.117188 C 608.027344 126.15625 608.550781 126.167969 609.078125 126.152344 C 609.605469 126.132812 610.132812 126.089844 610.65625 126.023438 C 611.175781 125.953125 611.695312 125.855469 612.207031 125.734375 C 612.71875 125.609375 613.226562 125.460938 613.722656 125.285156 C 614.21875 125.109375 614.707031 124.910156 615.183594 124.683594 C 615.660156 124.460938 616.125 124.210938 616.578125 123.9375 C 617.027344 123.664062 617.464844 123.371094 617.886719 123.050781 C 618.304688 122.734375 618.710938 122.398438 619.097656 122.039062 C 619.480469 121.679688 619.847656 121.300781 620.195312 120.902344 C 620.542969 120.507812 620.871094 120.09375 621.175781 119.664062 C 621.480469 119.230469 621.761719 118.789062 622.019531 118.328125 C 622.28125 117.867188 622.515625 117.398438 622.726562 116.914062 C 622.9375 116.429688 623.121094 115.9375 623.28125 115.433594 C 623.441406 114.933594 623.574219 114.421875 623.683594 113.90625 C 623.789062 113.390625 623.871094 112.871094 623.925781 112.34375 C 623.980469 111.820312 624.003906 111.292969 624.003906 110.765625 C 624.003906 110.238281 623.980469 109.714844 623.925781 109.191406 C 623.871094 108.664062 623.789062 108.144531 623.683594 107.628906 C 623.574219 107.113281 623.441406 106.601562 623.28125 106.101562 C 623.121094 105.597656 622.9375 105.105469 622.726562 104.621094 C 622.515625 104.136719 622.28125 103.667969 622.019531 103.207031 C 621.761719 102.746094 621.480469 102.300781 621.175781 101.871094 C 620.871094 101.441406 620.542969 101.027344 620.195312 100.632812 C 619.847656 100.234375 619.480469 99.855469 619.097656 99.496094 C 618.710938 99.136719 618.304688 98.800781 617.886719 98.480469 C 617.464844 98.164062 617.027344 97.871094 616.578125 97.597656 C 616.125 97.324219 615.660156 97.074219 615.183594 96.851562 C 614.707031 96.625 614.21875 96.425781 613.722656 96.25 C 613.226562 96.074219 612.71875 95.925781 612.207031 95.800781 C 611.695312 95.679688 611.175781 95.582031 610.65625 95.511719 C 610.132812 95.441406 609.605469 95.402344 609.078125 95.382812 C 608.550781 95.367188 608.027344 95.378906 607.5 95.417969 C 606.972656 95.378906 606.449219 95.367188 605.921875 95.382812 C 605.394531 95.402344 604.867188 95.441406 604.34375 95.511719 C 603.824219 95.582031 603.304688 95.679688 602.792969 95.800781 C 602.28125 95.925781 601.773438 96.074219 601.277344 96.25 C 600.78125 96.425781 600.292969 96.625 599.816406 96.851562 C 599.339844 97.074219 598.875 97.324219 598.421875 97.597656 C 597.972656 97.871094 597.535156 98.164062 597.113281 98.480469 C 596.695312 98.800781 596.289062 99.136719 595.902344 99.496094 C 595.515625 99.855469 595.152344 100.234375 594.804688 100.632812 C 594.457031 101.027344 594.128906 101.441406 593.824219 101.871094 C 593.519531 102.300781 593.238281 102.746094 592.980469 103.207031 C 592.71875 103.667969 592.484375 104.136719 592.273438 104.621094 C 592.0625 105.105469 591.878906 105.597656 591.71875 106.101562 C 591.558594 106.601562 591.425781 107.113281 591.316406 107.628906 C 591.210938 108.144531 591.128906 108.664062 591.074219 109.191406 C 591.019531 109.714844 590.992188 110.238281 590.996094 110.765625 C 590.992188 111.292969 591.019531 111.820312 591.074219 112.34375 C 591.128906 112.871094 591.210938 113.390625 591.316406 113.90625 C 591.425781 114.421875 591.558594 114.933594 591.71875 115.433594 C 591.878906 115.9375 592.0625 116.429688 592.273438 116.914062 C 592.484375 117.398438 592.71875 117.867188 592.980469 118.328125 C 593.238281 118.789062 593.519531 119.230469 593.824219 119.664062 C 594.128906 120.09375 594.457031 120.507812 594.804688 120.902344 C 595.152344 121.300781 595.515625 121.679688 595.902344 122.039062 C 596.289062 122.398438 596.695312 122.734375 597.113281 123.050781 C 597.535156 123.371094 597.972656 123.664062 598.421875 123.9375 C 598.875 124.210938 599.339844 124.460938 599.816406 124.683594 C 600.292969 124.910156 600.78125 125.109375 601.277344 125.285156 C 601.773438 125.460938 602.28125 125.609375 602.792969 125.734375 C 603.304688 125.855469 603.824219 125.953125 604.34375 126.023438 C 604.867188 126.089844 605.394531 126.132812 605.921875 126.152344 C 606.449219 126.167969 606.972656 126.15625 607.5 126.117188 Z M 607.5 126.117188 " fill-opacity="1" fill-rule="nonzero"/><path fill="#162b4d" d="M 690.605469 126.117188 C 691.132812 126.15625 691.660156 126.167969 692.183594 126.152344 C 692.710938 126.132812 693.238281 126.089844 693.761719 126.023438 C 694.28125 125.953125 694.800781 125.855469 695.3125 125.734375 C 695.828125 125.609375 696.332031 125.460938 696.828125 125.285156 C 697.328125 125.109375 697.8125 124.910156 698.289062 124.683594 C 698.765625 124.460938 699.230469 124.210938 699.683594 123.9375 C 700.132812 123.664062 700.570312 123.371094 700.992188 123.050781 C 701.414062 122.734375 701.816406 122.398438 702.203125 122.039062 C 702.589844 121.679688 702.957031 121.300781 703.300781 120.902344 C 703.648438 120.507812 703.976562 120.09375 704.28125 119.664062 C 704.585938 119.230469 704.867188 118.789062 705.125 118.328125 C 705.386719 117.867188 705.621094 117.398438 705.832031 116.914062 C 706.042969 116.429688 706.226562 115.9375 706.386719 115.433594 C 706.546875 114.933594 706.679688 114.421875 706.789062 113.90625 C 706.894531 113.390625 706.976562 112.871094 707.03125 112.34375 C 707.085938 111.820312 707.113281 111.292969 707.113281 110.765625 C 707.113281 110.238281 707.085938 109.714844 707.03125 109.191406 C 706.976562 108.664062 706.894531 108.144531 706.789062 107.628906 C 706.679688 107.113281 706.546875 106.601562 706.386719 106.101562 C 706.226562 105.597656 706.042969 105.105469 705.832031 104.621094 C 705.621094 104.136719 705.386719 103.667969 705.125 103.207031 C 704.867188 102.746094 704.585938 102.300781 704.28125 101.871094 C 703.976562 101.441406 703.648438 101.027344 703.300781 100.632812 C 702.953125 100.234375 702.589844 99.855469 702.203125 99.496094 C 701.816406 99.136719 701.414062 98.800781 700.992188 98.480469 C 700.570312 98.164062 700.132812 97.871094 699.683594 97.597656 C 699.230469 97.324219 698.765625 97.074219 698.289062 96.851562 C 697.8125 96.625 697.328125 96.425781 696.828125 96.25 C 696.332031 96.074219 695.828125 95.925781 695.3125 95.800781 C 694.800781 95.679688 694.28125 95.582031 693.761719 95.511719 C 693.238281 95.441406 692.710938 95.402344 692.183594 95.382812 C 691.660156 95.367188 691.132812 95.378906 690.605469 95.417969 C 690.078125 95.378906 689.554688 95.367188 689.027344 95.382812 C 688.5 95.402344 687.972656 95.441406 687.453125 95.511719 C 686.929688 95.582031 686.410156 95.679688 685.898438 95.800781 C 685.386719 95.925781 684.878906 96.074219 684.382812 96.25 C 683.886719 96.425781 683.398438 96.625 682.921875 96.851562 C 682.445312 97.074219 681.980469 97.324219 681.527344 97.597656 C 681.078125 97.871094 680.640625 98.164062 680.21875 98.480469 C 679.800781 98.800781 679.394531 99.136719 679.007812 99.496094 C 678.625 99.855469 678.257812 100.234375 677.910156 100.632812 C 677.5625 101.027344 677.234375 101.441406 676.929688 101.871094 C 676.625 102.300781 676.34375 102.746094 676.085938 103.207031 C 675.828125 103.667969 675.589844 104.136719 675.382812 104.621094 C 675.171875 105.105469 674.984375 105.597656 674.824219 106.101562 C 674.664062 106.601562 674.53125 107.113281 674.421875 107.628906 C 674.316406 108.144531 674.234375 108.664062 674.179688 109.191406 C 674.128906 109.714844 674.101562 110.238281 674.101562 110.765625 C 674.101562 111.292969 674.128906 111.820312 674.179688 112.34375 C 674.234375 112.871094 674.316406 113.390625 674.421875 113.90625 C 674.53125 114.421875 674.664062 114.933594 674.824219 115.433594 C 674.984375 115.9375 675.171875 116.429688 675.382812 116.914062 C 675.589844 117.398438 675.828125 117.867188 676.085938 118.328125 C 676.34375 118.789062 676.625 119.230469 676.929688 119.664062 C 677.234375 120.09375 677.5625 120.507812 677.910156 120.902344 C 678.257812 121.300781 678.625 121.679688 679.007812 122.039062 C 679.394531 122.398438 679.800781 122.734375 680.21875 123.050781 C 680.640625 123.371094 681.078125 123.664062 681.527344 123.9375 C 681.980469 124.210938 682.445312 124.460938 682.921875 124.683594 C 683.398438 124.910156 683.886719 125.109375 684.382812 125.285156 C 684.878906 125.460938 685.386719 125.609375 685.898438 125.734375 C 686.410156 125.855469 686.929688 125.953125 687.453125 126.023438 C 687.972656 126.089844 688.5 126.132812 689.027344 126.152344 C 689.554688 126.167969 690.078125 126.15625 690.605469 126.117188 Z M 690.605469 126.117188 " fill-opacity="1" fill-rule="nonzero"/><path fill="#162b4d" d="M 524.636719 126.117188 C 525.597656 126.046875 526.542969 125.886719 527.476562 125.640625 C 528.40625 125.394531 529.304688 125.0625 530.175781 124.644531 C 531.042969 124.226562 531.867188 123.734375 532.644531 123.164062 C 533.417969 122.59375 534.136719 121.953125 534.792969 121.246094 C 535.449219 120.542969 536.03125 119.78125 536.546875 118.964844 C 537.058594 118.152344 537.492188 117.292969 537.84375 116.398438 C 538.195312 115.5 538.460938 114.578125 538.640625 113.632812 C 538.820312 112.6875 538.910156 111.730469 538.910156 110.765625 C 538.910156 109.804688 538.820312 108.847656 538.640625 107.902344 C 538.460938 106.957031 538.195312 106.035156 537.84375 105.136719 C 537.492188 104.238281 537.058594 103.382812 536.546875 102.570312 C 536.03125 101.753906 535.449219 100.992188 534.792969 100.285156 C 534.136719 99.582031 533.417969 98.941406 532.644531 98.371094 C 531.867188 97.800781 531.042969 97.308594 530.175781 96.890625 C 529.304688 96.472656 528.40625 96.140625 527.476562 95.894531 C 526.542969 95.648438 525.597656 95.488281 524.636719 95.417969 C 524.109375 95.378906 523.585938 95.367188 523.058594 95.382812 C 522.53125 95.402344 522.003906 95.441406 521.484375 95.511719 C 520.960938 95.582031 520.441406 95.679688 519.929688 95.800781 C 519.417969 95.925781 518.910156 96.074219 518.414062 96.25 C 517.917969 96.425781 517.429688 96.625 516.953125 96.851562 C 516.476562 97.074219 516.011719 97.324219 515.558594 97.597656 C 515.109375 97.871094 514.671875 98.164062 514.25 98.480469 C 513.832031 98.800781 513.425781 99.136719 513.039062 99.496094 C 512.65625 99.855469 512.289062 100.234375 511.941406 100.632812 C 511.59375 101.027344 511.265625 101.441406 510.960938 101.871094 C 510.65625 102.300781 510.375 102.746094 510.117188 103.207031 C 509.855469 103.667969 509.621094 104.136719 509.410156 104.621094 C 509.203125 105.105469 509.015625 105.597656 508.855469 106.101562 C 508.695312 106.601562 508.5625 107.113281 508.453125 107.628906 C 508.347656 108.144531 508.265625 108.664062 508.210938 109.191406 C 508.160156 109.714844 508.132812 110.238281 508.132812 110.765625 C 508.132812 111.292969 508.160156 111.820312 508.210938 112.34375 C 508.265625 112.871094 508.347656 113.390625 508.453125 113.90625 C 508.5625 114.421875 508.695312 114.933594 508.855469 115.433594 C 509.015625 115.9375 509.203125 116.429688 509.410156 116.914062 C 509.621094 117.398438 509.855469 117.867188 510.117188 118.328125 C 510.375 118.789062 510.65625 119.230469 510.960938 119.664062 C 511.265625 120.09375 511.59375 120.507812 511.941406 120.902344 C 512.289062 121.300781 512.65625 121.679688 513.039062 122.039062 C 513.425781 122.398438 513.832031 122.734375 514.25 123.050781 C 514.671875 123.371094 515.109375 123.664062 515.558594 123.9375 C 516.011719 124.210938 516.476562 124.460938 516.953125 124.683594 C 517.429688 124.910156 517.917969 125.109375 518.414062 125.285156 C 518.910156 125.460938 519.417969 125.609375 519.929688 125.734375 C 520.441406 125.855469 520.960938 125.953125 521.484375 126.023438 C 522.003906 126.089844 522.53125 126.132812 523.058594 126.152344 C 523.585938 126.167969 524.109375 126.15625 524.636719 126.117188 Z M 524.636719 126.117188 " fill-opacity="1" fill-rule="nonzero"/><path fill="#162b4d" d="M 119.3125 126.117188 L 350.40625 126.117188 C 350.933594 126.15625 351.457031 126.167969 351.984375 126.152344 C 352.511719 126.132812 353.039062 126.089844 353.558594 126.023438 C 354.082031 125.953125 354.601562 125.855469 355.113281 125.734375 C 355.625 125.609375 356.132812 125.460938 356.628906 125.285156 C 357.125 125.109375 357.613281 124.910156 358.089844 124.683594 C 358.566406 124.460938 359.03125 124.210938 359.484375 123.9375 C 359.933594 123.664062 360.371094 123.371094 360.792969 123.050781 C 361.210938 122.734375 361.617188 122.398438 362.003906 122.039062 C 362.386719 121.679688 362.753906 121.300781 363.101562 120.902344 C 363.449219 120.507812 363.777344 120.09375 364.082031 119.664062 C 364.386719 119.230469 364.667969 118.789062 364.925781 118.328125 C 365.183594 117.867188 365.421875 117.398438 365.632812 116.914062 C 365.839844 116.429688 366.027344 115.9375 366.1875 115.433594 C 366.347656 114.933594 366.480469 114.421875 366.589844 113.90625 C 366.695312 113.390625 366.777344 112.871094 366.832031 112.34375 C 366.882812 111.820312 366.910156 111.292969 366.910156 110.765625 C 366.910156 110.238281 366.882812 109.714844 366.832031 109.191406 C 366.777344 108.664062 366.695312 108.144531 366.589844 107.628906 C 366.480469 107.113281 366.347656 106.601562 366.1875 106.101562 C 366.027344 105.597656 365.839844 105.105469 365.632812 104.621094 C 365.421875 104.136719 365.183594 103.667969 364.925781 103.207031 C 364.667969 102.746094 364.386719 102.300781 364.082031 101.871094 C 363.777344 101.441406 363.449219 101.027344 363.101562 100.632812 C 362.753906 100.234375 362.386719 99.855469 362.003906 99.496094 C 361.617188 99.136719 361.210938 98.800781 360.792969 98.480469 C 360.371094 98.164062 359.933594 97.871094 359.484375 97.597656 C 359.03125 97.324219 358.566406 97.074219 358.089844 96.851562 C 357.613281 96.625 357.125 96.425781 356.628906 96.25 C 356.132812 96.074219 355.625 95.925781 355.113281 95.800781 C 354.601562 95.679688 354.082031 95.582031 353.558594 95.511719 C 353.039062 95.441406 352.511719 95.402344 351.984375 95.382812 C 351.457031 95.367188 350.933594 95.378906 350.40625 95.417969 L 119.3125 95.417969 C 118.351562 95.488281 117.40625 95.648438 116.476562 95.894531 C 115.542969 96.140625 114.644531 96.472656 113.773438 96.890625 C 112.90625 97.308594 112.082031 97.800781 111.308594 98.371094 C 110.53125 98.941406 109.816406 99.582031 109.160156 100.285156 C 108.503906 100.992188 107.917969 101.753906 107.40625 102.570312 C 106.890625 103.382812 106.457031 104.238281 106.105469 105.136719 C 105.753906 106.035156 105.488281 106.957031 105.308594 107.902344 C 105.128906 108.847656 105.039062 109.804688 105.039062 110.765625 C 105.039062 111.730469 105.128906 112.6875 105.308594 113.632812 C 105.488281 114.578125 105.753906 115.5 106.105469 116.398438 C 106.457031 117.292969 106.890625 118.152344 107.40625 118.964844 C 107.917969 119.78125 108.503906 120.542969 109.160156 121.246094 C 109.816406 121.953125 110.53125 122.59375 111.308594 123.164062 C 112.082031 123.734375 112.90625 124.226562 113.773438 124.644531 C 114.644531 125.0625 115.542969 125.394531 116.476562 125.640625 C 117.40625 125.886719 118.351562 126.046875 119.3125 126.117188 Z M 119.3125 126.117188 " fill-opacity="1" fill-rule="nonzero"/><path fill="#162b4d" d="M 749.410156 14.417969 L 60.910156 14.417969 C 59.289062 14.410156 57.671875 14.480469 56.058594 14.632812 C 54.441406 14.785156 52.839844 15.015625 51.25 15.324219 C 49.65625 15.632812 48.082031 16.019531 46.53125 16.484375 C 44.976562 16.949219 43.449219 17.488281 41.949219 18.101562 C 40.445312 18.714844 38.980469 19.402344 37.546875 20.160156 C 36.113281 20.921875 34.722656 21.746094 33.371094 22.644531 C 32.019531 23.539062 30.714844 24.5 29.457031 25.523438 C 28.199219 26.546875 26.996094 27.632812 25.84375 28.773438 C 24.695312 29.917969 23.601562 31.113281 22.570312 32.363281 C 21.539062 33.617188 20.570312 34.914062 19.664062 36.257812 C 18.761719 37.605469 17.921875 38.992188 17.15625 40.421875 C 16.386719 41.847656 15.691406 43.3125 15.066406 44.808594 C 14.441406 46.304688 13.894531 47.828125 13.417969 49.378906 C 12.945312 50.929688 12.546875 52.5 12.226562 54.089844 C 11.910156 55.679688 11.667969 57.28125 11.503906 58.894531 C 11.34375 60.507812 11.261719 62.125 11.257812 63.746094 L 11.257812 633.257812 C 11.261719 634.871094 11.34375 636.484375 11.503906 638.089844 C 11.664062 639.699219 11.902344 641.292969 12.21875 642.875 C 12.539062 644.460938 12.929688 646.023438 13.402344 647.570312 C 13.871094 649.113281 14.417969 650.632812 15.035156 652.121094 C 15.65625 653.613281 16.34375 655.070312 17.109375 656.496094 C 17.871094 657.917969 18.699219 659.300781 19.597656 660.644531 C 20.496094 661.988281 21.457031 663.28125 22.480469 664.53125 C 23.503906 665.777344 24.589844 666.972656 25.730469 668.117188 C 26.871094 669.257812 28.066406 670.339844 29.316406 671.363281 C 30.5625 672.390625 31.859375 673.351562 33.203125 674.25 C 34.542969 675.148438 35.925781 675.976562 37.351562 676.738281 C 38.773438 677.5 40.230469 678.191406 41.722656 678.808594 C 43.214844 679.429688 44.734375 679.972656 46.277344 680.445312 C 47.824219 680.914062 49.386719 681.308594 50.96875 681.625 C 52.554688 681.941406 54.148438 682.179688 55.753906 682.34375 C 57.363281 682.503906 58.972656 682.585938 60.589844 682.585938 L 183.707031 682.585938 C 193.671875 697.636719 205.039062 711.542969 217.808594 724.300781 C 220.871094 727.363281 224.011719 730.351562 227.222656 733.257812 C 230.429688 736.167969 233.710938 738.996094 237.0625 741.742188 C 240.410156 744.492188 243.824219 747.15625 247.304688 749.734375 C 250.785156 752.316406 254.328125 754.808594 257.929688 757.214844 C 261.53125 759.621094 265.191406 761.9375 268.90625 764.164062 C 272.625 766.390625 276.390625 768.523438 280.210938 770.566406 C 284.035156 772.609375 287.902344 774.554688 291.820312 776.40625 C 295.734375 778.257812 299.695312 780.011719 303.699219 781.667969 C 307.699219 783.328125 311.742188 784.886719 315.820312 786.34375 C 319.898438 787.804688 324.011719 789.160156 328.15625 790.417969 C 332.304688 791.675781 336.476562 792.832031 340.679688 793.882812 C 344.882812 794.933594 349.109375 795.882812 353.355469 796.730469 C 357.605469 797.574219 361.875 798.3125 366.160156 798.949219 C 370.445312 799.585938 374.742188 800.113281 379.054688 800.539062 C 383.363281 800.964844 387.683594 801.28125 392.011719 801.496094 C 396.339844 801.707031 400.667969 801.8125 405 801.8125 C 409.332031 801.8125 413.660156 801.707031 417.988281 801.496094 C 422.316406 801.28125 426.636719 800.964844 430.945312 800.539062 C 435.257812 800.113281 439.554688 799.585938 443.839844 798.949219 C 448.125 798.3125 452.394531 797.574219 456.644531 796.730469 C 460.890625 795.882812 465.117188 794.933594 469.320312 793.882812 C 473.523438 792.832031 477.695312 791.675781 481.84375 790.417969 C 485.988281 789.160156 490.101562 787.804688 494.179688 786.34375 C 498.257812 784.886719 502.300781 783.328125 506.300781 781.667969 C 510.304688 780.011719 514.265625 778.257812 518.179688 776.40625 C 522.097656 774.554688 525.964844 772.609375 529.785156 770.566406 C 533.609375 768.523438 537.375 766.390625 541.09375 764.164062 C 544.808594 761.9375 548.46875 759.621094 552.070312 757.214844 C 555.671875 754.808594 559.214844 752.316406 562.695312 749.734375 C 566.175781 747.15625 569.589844 744.492188 572.9375 741.742188 C 576.289062 738.996094 579.570312 736.167969 582.777344 733.257812 C 585.988281 730.351562 589.125 727.363281 592.191406 724.300781 C 604.945312 711.550781 616.285156 697.644531 626.210938 682.585938 L 749.410156 682.585938 C 751.027344 682.585938 752.636719 682.503906 754.246094 682.34375 C 755.851562 682.183594 757.445312 681.941406 759.03125 681.625 C 760.613281 681.308594 762.175781 680.914062 763.722656 680.445312 C 765.265625 679.972656 766.785156 679.429688 768.277344 678.808594 C 769.769531 678.191406 771.226562 677.5 772.648438 676.738281 C 774.074219 675.976562 775.457031 675.148438 776.796875 674.25 C 778.140625 673.351562 779.4375 672.390625 780.683594 671.363281 C 781.933594 670.339844 783.128906 669.257812 784.269531 668.113281 C 785.410156 666.972656 786.496094 665.777344 787.519531 664.53125 C 788.542969 663.28125 789.503906 661.988281 790.402344 660.644531 C 791.300781 659.300781 792.128906 657.917969 792.890625 656.496094 C 793.65625 655.070312 794.34375 653.613281 794.964844 652.121094 C 795.582031 650.632812 796.128906 649.113281 796.597656 647.570312 C 797.070312 646.023438 797.460938 644.460938 797.78125 642.875 C 798.097656 641.292969 798.335938 639.699219 798.496094 638.089844 C 798.65625 636.484375 798.738281 634.871094 798.742188 633.257812 L 798.742188 63.746094 C 798.738281 62.132812 798.65625 60.519531 798.496094 58.914062 C 798.335938 57.308594 798.097656 55.710938 797.78125 54.128906 C 797.460938 52.546875 797.070312 50.980469 796.597656 49.4375 C 796.128906 47.890625 795.582031 46.375 794.964844 44.882812 C 794.34375 43.390625 793.65625 41.933594 792.890625 40.507812 C 792.128906 39.085938 791.300781 37.703125 790.402344 36.359375 C 789.503906 35.019531 788.542969 33.722656 787.519531 32.476562 C 786.496094 31.226562 785.410156 30.03125 784.269531 28.890625 C 783.128906 27.746094 781.933594 26.664062 780.683594 25.640625 C 779.4375 24.617188 778.140625 23.652344 776.796875 22.757812 C 775.457031 21.859375 774.074219 21.027344 772.648438 20.265625 C 771.226562 19.503906 769.769531 18.8125 768.277344 18.195312 C 766.785156 17.574219 765.265625 17.03125 763.722656 16.558594 C 762.175781 16.089844 760.613281 15.695312 759.03125 15.378906 C 757.445312 15.0625 755.851562 14.824219 754.246094 14.664062 C 752.636719 14.503906 751.027344 14.421875 749.410156 14.417969 Z M 60.910156 45.199219 L 749.410156 45.199219 C 750.019531 45.199219 750.625 45.234375 751.226562 45.292969 C 751.832031 45.355469 752.429688 45.449219 753.023438 45.566406 C 753.621094 45.6875 754.207031 45.835938 754.789062 46.015625 C 755.367188 46.191406 755.9375 46.398438 756.496094 46.632812 C 757.058594 46.863281 757.605469 47.125 758.140625 47.410156 C 758.675781 47.699219 759.195312 48.011719 759.699219 48.347656 C 760.203125 48.6875 760.6875 49.046875 761.15625 49.433594 C 761.625 49.816406 762.074219 50.226562 762.503906 50.65625 C 762.933594 51.082031 763.339844 51.53125 763.726562 52 C 764.109375 52.46875 764.472656 52.957031 764.808594 53.460938 C 765.148438 53.964844 765.460938 54.484375 765.746094 55.019531 C 766.035156 55.554688 766.292969 56.101562 766.527344 56.660156 C 766.761719 57.222656 766.964844 57.792969 767.144531 58.371094 C 767.320312 58.953125 767.472656 59.539062 767.589844 60.132812 C 767.710938 60.730469 767.800781 61.328125 767.863281 61.929688 C 767.925781 62.535156 767.957031 63.140625 767.960938 63.746094 L 767.960938 176.417969 L 42.039062 176.417969 L 42.039062 63.746094 C 42.042969 63.140625 42.074219 62.535156 42.136719 61.929688 C 42.199219 61.328125 42.289062 60.730469 42.410156 60.132812 C 42.527344 59.539062 42.679688 58.953125 42.855469 58.371094 C 43.035156 57.792969 43.238281 57.222656 43.472656 56.660156 C 43.707031 56.101562 43.964844 55.554688 44.253906 55.019531 C 44.539062 54.484375 44.851562 53.964844 45.191406 53.460938 C 45.527344 52.957031 45.890625 52.46875 46.273438 52 C 46.660156 51.53125 47.066406 51.082031 47.496094 50.65625 C 47.925781 50.226562 48.375 49.816406 48.84375 49.433594 C 49.3125 49.046875 49.796875 48.6875 50.300781 48.347656 C 50.804688 48.011719 51.324219 47.699219 51.859375 47.410156 C 52.394531 47.125 52.941406 46.863281 53.503906 46.632812 C 54.0625 46.398438 54.632812 46.191406 55.210938 46.015625 C 55.792969 45.835938 56.378906 45.6875 56.976562 45.566406 C 57.570312 45.449219 58.167969 45.355469 58.773438 45.292969 C 59.375 45.234375 59.980469 45.199219 60.589844 45.199219 Z M 749.410156 651.808594 L 643.546875 651.808594 C 645.050781 648.671875 646.492188 645.503906 647.875 642.3125 C 649.253906 639.117188 650.574219 635.898438 651.828125 632.652344 C 653.082031 629.410156 654.269531 626.140625 655.394531 622.847656 C 656.519531 619.554688 657.578125 616.242188 658.574219 612.910156 C 659.566406 609.574219 660.496094 606.222656 661.359375 602.851562 C 662.222656 599.480469 663.015625 596.09375 663.746094 592.691406 C 664.472656 589.292969 665.136719 585.875 665.730469 582.449219 C 666.324219 579.019531 666.851562 575.582031 667.308594 572.132812 C 667.769531 568.683594 668.160156 565.226562 668.480469 561.765625 C 668.804688 558.300781 669.058594 554.832031 669.242188 551.355469 C 669.429688 547.882812 669.546875 544.40625 669.59375 540.925781 C 669.644531 537.449219 669.625 533.96875 669.535156 530.492188 C 669.445312 527.015625 669.289062 523.539062 669.0625 520.066406 C 668.839844 516.597656 668.542969 513.128906 668.183594 509.667969 C 667.820312 506.210938 667.390625 502.757812 666.890625 499.3125 C 666.394531 495.871094 665.828125 492.4375 665.195312 489.019531 C 664.5625 485.597656 663.859375 482.191406 663.09375 478.796875 C 662.324219 475.402344 661.492188 472.027344 660.589844 468.664062 C 659.691406 465.304688 658.722656 461.964844 657.691406 458.640625 C 656.65625 455.320312 655.5625 452.019531 654.398438 448.738281 C 653.234375 445.460938 652.007812 442.207031 650.71875 438.976562 C 649.425781 435.742188 648.074219 432.539062 646.65625 429.363281 C 645.238281 426.183594 643.757812 423.035156 642.21875 419.917969 C 640.675781 416.800781 639.074219 413.710938 637.410156 410.65625 C 635.75 407.597656 634.027344 404.578125 632.242188 401.589844 C 630.460938 398.601562 628.621094 395.648438 626.722656 392.734375 C 624.824219 389.820312 622.867188 386.941406 620.855469 384.105469 C 618.84375 381.265625 616.777344 378.46875 614.65625 375.710938 C 612.535156 372.953125 610.359375 370.238281 608.128906 367.570312 C 605.898438 364.898438 603.617188 362.269531 601.285156 359.691406 C 598.953125 357.109375 596.570312 354.574219 594.136719 352.085938 C 591.707031 349.601562 589.226562 347.160156 586.695312 344.773438 C 584.167969 342.382812 581.59375 340.042969 578.972656 337.753906 C 576.351562 335.46875 573.6875 333.230469 570.976562 331.046875 C 568.269531 328.867188 565.519531 326.738281 562.726562 324.664062 C 559.933594 322.585938 557.097656 320.570312 554.226562 318.605469 C 551.355469 316.644531 548.445312 314.738281 545.496094 312.890625 C 542.550781 311.042969 539.566406 309.25 536.546875 307.519531 C 533.53125 305.789062 530.480469 304.121094 527.394531 302.507812 C 524.3125 300.898438 521.195312 299.351562 518.050781 297.863281 C 514.90625 296.375 511.734375 294.949219 508.53125 293.585938 C 505.332031 292.226562 502.105469 290.925781 498.851562 289.691406 C 495.597656 288.457031 492.324219 287.285156 489.027344 286.179688 C 485.726562 285.070312 482.40625 284.03125 479.066406 283.054688 C 475.730469 282.082031 472.371094 281.171875 468.996094 280.328125 C 465.621094 279.484375 462.230469 278.707031 458.824219 278 C 455.417969 277.289062 452 276.648438 448.566406 276.074219 C 445.136719 275.5 441.695312 274.992188 438.242188 274.550781 C 434.792969 274.113281 431.332031 273.742188 427.867188 273.441406 C 424.402344 273.136719 420.929688 272.902344 417.457031 272.738281 C 413.980469 272.570312 410.503906 272.472656 407.023438 272.445312 C 403.546875 272.417969 400.066406 272.457031 396.589844 272.5625 C 393.113281 272.671875 389.640625 272.847656 386.167969 273.09375 C 382.699219 273.339844 379.234375 273.652344 375.777344 274.035156 C 372.316406 274.417969 368.867188 274.867188 365.429688 275.382812 C 361.988281 275.902344 358.558594 276.488281 355.140625 277.140625 C 351.722656 277.792969 348.320312 278.511719 344.933594 279.300781 C 341.542969 280.085938 338.171875 280.941406 334.816406 281.859375 C 331.460938 282.78125 328.125 283.765625 324.808594 284.816406 C 321.492188 285.867188 318.199219 286.984375 314.925781 288.167969 C 311.652344 289.347656 308.40625 290.59375 305.183594 291.902344 C 301.957031 293.210938 298.761719 294.585938 295.59375 296.019531 C 292.421875 297.453125 289.285156 298.953125 286.175781 300.511719 C 283.0625 302.070312 279.984375 303.691406 276.9375 305.371094 C 276.199219 305.921875 275.515625 306.53125 274.886719 307.203125 C 274.257812 307.878906 273.695312 308.601562 273.195312 309.375 C 272.695312 310.148438 272.269531 310.960938 271.914062 311.8125 C 271.5625 312.664062 271.289062 313.539062 271.089844 314.4375 C 270.894531 315.335938 270.78125 316.25 270.746094 317.167969 C 270.714844 318.089844 270.765625 319.003906 270.894531 319.917969 C 271.027344 320.828125 271.238281 321.722656 271.53125 322.59375 C 271.824219 323.46875 272.191406 324.308594 272.632812 325.117188 C 273.078125 325.925781 273.589844 326.6875 274.167969 327.402344 C 274.75 328.117188 275.386719 328.777344 276.085938 329.378906 C 276.78125 329.976562 277.527344 330.511719 278.324219 330.980469 C 279.117188 331.445312 279.945312 331.839844 280.808594 332.15625 C 281.675781 332.476562 282.558594 332.714844 283.46875 332.875 C 284.375 333.035156 285.289062 333.109375 286.210938 333.105469 C 287.132812 333.101562 288.042969 333.011719 288.949219 332.84375 C 289.855469 332.675781 290.738281 332.425781 291.601562 332.101562 C 294.652344 330.414062 297.738281 328.800781 300.863281 327.253906 C 303.988281 325.707031 307.144531 324.230469 310.335938 322.828125 C 313.523438 321.421875 316.742188 320.085938 319.992188 318.828125 C 323.242188 317.566406 326.519531 316.375 329.820312 315.261719 C 333.125 314.148438 336.449219 313.105469 339.796875 312.140625 C 343.148438 311.171875 346.515625 310.28125 349.90625 309.464844 C 353.292969 308.648438 356.699219 307.910156 360.121094 307.246094 C 363.542969 306.582031 366.980469 305.996094 370.425781 305.484375 C 373.875 304.976562 377.332031 304.542969 380.800781 304.1875 C 384.269531 303.832031 387.742188 303.554688 391.222656 303.351562 C 394.703125 303.152344 398.183594 303.03125 401.667969 302.984375 C 405.15625 302.941406 408.640625 302.972656 412.125 303.085938 C 415.605469 303.195312 419.085938 303.382812 422.5625 303.648438 C 426.039062 303.917969 429.503906 304.261719 432.964844 304.683594 C 436.425781 305.101562 439.875 305.601562 443.3125 306.175781 C 446.75 306.753906 450.175781 307.40625 453.582031 308.132812 C 456.992188 308.863281 460.382812 309.664062 463.753906 310.546875 C 467.128906 311.425781 470.480469 312.378906 473.808594 313.410156 C 477.140625 314.441406 480.445312 315.542969 483.726562 316.722656 C 487.007812 317.898438 490.257812 319.148438 493.484375 320.472656 C 496.710938 321.792969 499.902344 323.1875 503.066406 324.652344 C 506.226562 326.121094 509.355469 327.65625 512.449219 329.261719 C 515.542969 330.867188 518.601562 332.539062 521.621094 334.28125 C 524.640625 336.023438 527.617188 337.832031 530.558594 339.707031 C 533.496094 341.582031 536.390625 343.523438 539.242188 345.527344 C 542.09375 347.53125 544.898438 349.597656 547.660156 351.726562 C 550.417969 353.855469 553.128906 356.046875 555.789062 358.296875 C 558.453125 360.550781 561.0625 362.859375 563.621094 365.226562 C 566.179688 367.59375 568.683594 370.015625 571.132812 372.496094 C 573.582031 374.976562 575.976562 377.507812 578.3125 380.09375 C 580.648438 382.679688 582.925781 385.320312 585.144531 388.007812 C 587.363281 390.695312 589.523438 393.429688 591.621094 396.214844 C 593.714844 399 595.75 401.832031 597.71875 404.707031 C 599.691406 407.582031 601.59375 410.5 603.433594 413.460938 C 605.273438 416.421875 607.046875 419.421875 608.753906 422.460938 C 610.460938 425.5 612.097656 428.578125 613.664062 431.691406 C 615.234375 434.804688 616.730469 437.949219 618.160156 441.128906 C 619.585938 444.308594 620.941406 447.519531 622.226562 450.761719 C 623.511719 454 624.722656 457.269531 625.859375 460.5625 C 626.996094 463.859375 628.0625 467.175781 629.050781 470.519531 C 630.042969 473.859375 630.957031 477.222656 631.796875 480.605469 C 632.636719 483.988281 633.398438 487.390625 634.085938 490.804688 C 634.773438 494.222656 635.386719 497.652344 635.921875 501.097656 C 636.453125 504.542969 636.910156 507.996094 637.292969 511.460938 C 637.671875 514.929688 637.972656 518.398438 638.199219 521.878906 C 638.425781 525.355469 638.570312 528.839844 638.640625 532.324219 C 638.710938 535.808594 638.703125 539.292969 638.613281 542.777344 C 638.527344 546.261719 638.363281 549.742188 638.121094 553.21875 C 637.878906 556.699219 637.5625 560.167969 637.164062 563.628906 C 636.765625 567.09375 636.292969 570.546875 635.742188 573.988281 C 635.191406 577.429688 634.5625 580.859375 633.855469 584.269531 C 633.152344 587.683594 632.371094 591.082031 631.515625 594.460938 C 630.660156 597.839844 629.730469 601.199219 628.722656 604.535156 C 627.714844 607.871094 626.636719 611.183594 625.480469 614.472656 C 624.328125 617.761719 623.097656 621.023438 621.800781 624.257812 C 620.5 627.492188 619.128906 630.695312 617.683594 633.871094 C 616.242188 637.042969 614.726562 640.179688 613.144531 643.285156 C 611.558594 646.390625 609.90625 649.460938 608.1875 652.492188 C 606.46875 655.523438 604.679688 658.515625 602.824219 661.464844 C 600.96875 664.417969 599.050781 667.324219 597.066406 670.191406 C 595.082031 673.058594 593.035156 675.878906 590.925781 678.652344 C 588.816406 681.425781 586.644531 684.152344 584.410156 686.828125 C 582.179688 689.503906 579.886719 692.132812 577.539062 694.707031 C 575.1875 697.28125 572.785156 699.800781 570.320312 702.269531 C 567.613281 704.980469 564.84375 707.625 562.007812 710.199219 C 559.167969 712.773438 556.269531 715.277344 553.3125 717.707031 C 550.351562 720.140625 547.335938 722.5 544.257812 724.785156 C 541.183594 727.066406 538.054688 729.273438 534.871094 731.40625 C 531.683594 733.535156 528.449219 735.585938 525.167969 737.554688 C 521.882812 739.527344 518.550781 741.417969 515.171875 743.226562 C 511.796875 745.03125 508.375 746.753906 504.914062 748.394531 C 501.449219 750.035156 497.949219 751.585938 494.410156 753.054688 C 490.871094 754.523438 487.300781 755.902344 483.691406 757.195312 C 480.085938 758.484375 476.449219 759.6875 472.785156 760.800781 C 469.121094 761.914062 465.429688 762.9375 461.714844 763.867188 C 457.996094 764.800781 454.261719 765.640625 450.503906 766.386719 C 446.746094 767.136719 442.972656 767.792969 439.183594 768.355469 C 435.394531 768.917969 431.59375 769.386719 427.78125 769.761719 C 423.96875 770.136719 420.148438 770.421875 416.324219 770.609375 C 412.496094 770.796875 408.667969 770.890625 404.839844 770.890625 C 401.007812 770.890625 397.179688 770.796875 393.351562 770.609375 C 389.527344 770.421875 385.707031 770.136719 381.894531 769.761719 C 378.082031 769.386719 374.28125 768.917969 370.492188 768.355469 C 366.703125 767.792969 362.929688 767.136719 359.171875 766.386719 C 355.414062 765.640625 351.679688 764.800781 347.960938 763.867188 C 344.246094 762.9375 340.554688 761.914062 336.890625 760.800781 C 333.226562 759.6875 329.589844 758.484375 325.984375 757.195312 C 322.375 755.902344 318.804688 754.523438 315.265625 753.054688 C 311.726562 751.585938 308.226562 750.035156 304.761719 748.394531 C 301.300781 746.753906 297.882812 745.03125 294.503906 743.226562 C 291.125 741.417969 287.792969 739.527344 284.507812 737.558594 C 281.226562 735.585938 277.992188 733.535156 274.804688 731.40625 C 271.621094 729.273438 268.492188 727.066406 265.417969 724.785156 C 262.339844 722.5 259.324219 720.140625 256.363281 717.707031 C 253.40625 715.277344 250.507812 712.773438 247.671875 710.199219 C 244.832031 707.625 242.0625 704.980469 239.355469 702.269531 C 237.140625 700.042969 234.96875 697.769531 232.847656 695.453125 C 230.722656 693.136719 228.644531 690.78125 226.613281 688.382812 C 224.585938 685.984375 222.605469 683.542969 220.671875 681.066406 C 218.742188 678.585938 216.859375 676.070312 215.03125 673.515625 C 213.199219 670.960938 211.421875 668.371094 209.695312 665.746094 C 207.964844 663.121094 206.292969 660.464844 204.671875 657.769531 C 203.054688 655.078125 201.488281 652.355469 199.976562 649.597656 C 198.464844 646.84375 197.011719 644.058594 195.613281 641.246094 C 194.214844 638.429688 192.871094 635.589844 191.585938 632.722656 C 190.300781 629.855469 189.074219 626.964844 187.90625 624.046875 C 186.738281 621.128906 185.625 618.191406 184.574219 615.230469 C 183.523438 612.265625 182.535156 609.285156 181.601562 606.285156 C 180.671875 603.285156 179.800781 600.265625 178.988281 597.230469 C 178.179688 594.191406 177.429688 591.140625 176.742188 588.074219 C 176.054688 585.007812 175.429688 581.929688 174.863281 578.839844 C 174.300781 575.75 173.800781 572.648438 173.359375 569.535156 C 172.917969 566.425781 172.542969 563.304688 172.226562 560.179688 C 171.914062 557.050781 171.660156 553.921875 171.472656 550.785156 C 171.285156 547.648438 171.15625 544.507812 171.09375 541.367188 C 171.03125 538.222656 171.03125 535.082031 171.097656 531.941406 C 171.160156 528.796875 171.285156 525.660156 171.472656 522.523438 C 171.664062 519.386719 171.914062 516.253906 172.230469 513.128906 C 172.546875 510 172.921875 506.882812 173.363281 503.769531 C 173.804688 500.660156 174.304688 497.558594 174.871094 494.46875 C 175.433594 491.375 176.058594 488.296875 176.75 485.230469 C 177.4375 482.164062 178.1875 479.113281 178.996094 476.078125 C 179.808594 473.042969 180.679688 470.023438 181.609375 467.023438 C 182.542969 464.023438 183.53125 461.039062 184.582031 458.078125 C 185.636719 455.117188 186.746094 452.179688 187.914062 449.261719 C 189.085938 446.34375 190.3125 443.453125 191.597656 440.585938 C 192.882812 437.71875 194.222656 434.878906 195.625 432.0625 C 197.023438 429.25 198.476562 426.464844 199.988281 423.710938 C 200.421875 422.832031 200.769531 421.921875 201.03125 420.976562 C 201.289062 420.03125 201.457031 419.070312 201.535156 418.09375 C 201.613281 417.117188 201.59375 416.140625 201.484375 415.167969 C 201.375 414.191406 201.171875 413.238281 200.882812 412.300781 C 200.589844 411.367188 200.210938 410.46875 199.746094 409.605469 C 199.28125 408.742188 198.742188 407.929688 198.121094 407.171875 C 197.503906 406.410156 196.816406 405.714844 196.066406 405.085938 C 195.3125 404.457031 194.507812 403.90625 193.652344 403.433594 C 192.792969 402.957031 191.902344 402.566406 190.96875 402.261719 C 190.039062 401.957031 189.085938 401.746094 188.113281 401.621094 C 187.140625 401.5 186.164062 401.472656 185.1875 401.535156 C 184.210938 401.597656 183.246094 401.753906 182.296875 402.003906 C 181.351562 402.25 180.433594 402.585938 179.550781 403.007812 C 178.664062 403.433594 177.828125 403.933594 177.042969 404.519531 C 176.253906 405.101562 175.527344 405.753906 174.863281 406.472656 C 174.199219 407.195312 173.613281 407.972656 173.097656 408.808594 C 169.699219 414.980469 166.554688 421.28125 163.65625 427.707031 C 160.761719 434.132812 158.125 440.660156 155.746094 447.296875 C 153.371094 453.929688 151.257812 460.648438 149.414062 467.449219 C 147.570312 474.25 146 481.117188 144.703125 488.042969 C 143.40625 494.96875 142.382812 501.9375 141.640625 508.945312 C 140.894531 515.953125 140.429688 522.980469 140.242188 530.023438 C 140.058594 537.070312 140.148438 544.113281 140.523438 551.148438 C 140.898438 558.1875 141.546875 565.199219 142.480469 572.183594 C 144.300781 585.957031 147.195312 599.496094 151.164062 612.808594 C 155.128906 626.121094 160.121094 639.039062 166.132812 651.5625 L 60.832031 651.5625 C 60.222656 651.5625 59.617188 651.527344 59.015625 651.46875 C 58.410156 651.40625 57.8125 651.316406 57.21875 651.195312 C 56.625 651.074219 56.035156 650.925781 55.457031 650.746094 C 54.875 650.570312 54.304688 650.363281 53.746094 650.128906 C 53.183594 649.898438 52.636719 649.636719 52.101562 649.351562 C 51.566406 649.0625 51.050781 648.75 50.542969 648.414062 C 50.039062 648.074219 49.554688 647.714844 49.085938 647.328125 C 48.617188 646.945312 48.167969 646.535156 47.738281 646.109375 C 47.308594 645.679688 46.902344 645.230469 46.515625 644.761719 C 46.132812 644.292969 45.769531 643.804688 45.433594 643.300781 C 45.09375 642.796875 44.78125 642.277344 44.496094 641.742188 C 44.210938 641.207031 43.949219 640.660156 43.714844 640.101562 C 43.480469 639.539062 43.277344 638.972656 43.097656 638.390625 C 42.921875 637.808594 42.773438 637.222656 42.652344 636.628906 C 42.53125 636.035156 42.441406 635.433594 42.378906 634.832031 C 42.316406 634.226562 42.285156 633.621094 42.28125 633.015625 L 42.28125 207.117188 L 767.960938 207.117188 L 767.960938 633.257812 C 767.957031 633.863281 767.925781 634.46875 767.863281 635.074219 C 767.800781 635.675781 767.710938 636.277344 767.589844 636.871094 C 767.472656 637.464844 767.320312 638.054688 767.144531 638.632812 C 766.964844 639.214844 766.761719 639.785156 766.527344 640.34375 C 766.292969 640.902344 766.035156 641.453125 765.746094 641.984375 C 765.460938 642.519531 765.148438 643.039062 764.808594 643.542969 C 764.472656 644.046875 764.109375 644.535156 763.726562 645.003906 C 763.339844 645.472656 762.933594 645.921875 762.503906 646.351562 C 762.074219 646.78125 761.625 647.1875 761.15625 647.570312 C 760.6875 647.957031 760.203125 648.320312 759.699219 648.65625 C 759.195312 648.992188 758.675781 649.304688 758.140625 649.59375 C 757.605469 649.878906 757.058594 650.140625 756.496094 650.375 C 755.9375 650.605469 755.367188 650.8125 754.789062 650.988281 C 754.207031 651.167969 753.621094 651.316406 753.023438 651.4375 C 752.429688 651.558594 751.832031 651.648438 751.226562 651.710938 C 750.625 651.773438 750.019531 651.804688 749.410156 651.808594 Z M 749.410156 651.808594 " fill-opacity="1" fill-rule="nonzero"/><path fill="#009688" d="M 405 625.726562 C 406.011719 625.726562 407.011719 625.625 408.003906 625.429688 C 408.992188 625.230469 409.957031 624.941406 410.890625 624.554688 C 411.824219 624.167969 412.710938 623.691406 413.550781 623.132812 C 414.390625 622.570312 415.167969 621.933594 415.882812 621.21875 C 416.597656 620.503906 417.234375 619.726562 417.796875 618.886719 C 418.359375 618.046875 418.832031 617.15625 419.21875 616.222656 C 419.605469 615.289062 419.898438 614.328125 420.09375 613.335938 C 420.292969 612.347656 420.390625 611.34375 420.390625 610.335938 L 420.390625 573.640625 C 420.390625 572.632812 420.292969 571.628906 420.09375 570.640625 C 419.898438 569.648438 419.605469 568.6875 419.21875 567.753906 C 418.832031 566.820312 418.359375 565.933594 417.796875 565.089844 C 417.234375 564.25 416.597656 563.472656 415.882812 562.757812 C 415.167969 562.046875 414.390625 561.40625 413.550781 560.84375 C 412.710938 560.285156 411.824219 559.808594 410.890625 559.421875 C 409.957031 559.035156 408.992188 558.746094 408.003906 558.546875 C 407.011719 558.351562 406.011719 558.253906 405 558.253906 C 403.988281 558.253906 402.988281 558.351562 401.996094 558.546875 C 401.007812 558.746094 400.042969 559.035156 399.109375 559.421875 C 398.175781 559.808594 397.289062 560.285156 396.449219 560.84375 C 395.609375 561.40625 394.832031 562.046875 394.117188 562.757812 C 393.402344 563.472656 392.765625 564.25 392.203125 565.089844 C 391.640625 565.933594 391.167969 566.820312 390.78125 567.753906 C 390.394531 568.6875 390.101562 569.648438 389.90625 570.640625 C 389.707031 571.628906 389.609375 572.632812 389.609375 573.640625 L 389.609375 610.335938 C 389.609375 611.34375 389.707031 612.347656 389.90625 613.335938 C 390.101562 614.328125 390.394531 615.289062 390.78125 616.222656 C 391.167969 617.15625 391.640625 618.042969 392.203125 618.886719 C 392.765625 619.726562 393.402344 620.503906 394.117188 621.21875 C 394.832031 621.933594 395.609375 622.570312 396.449219 623.132812 C 397.289062 623.691406 398.175781 624.167969 399.109375 624.554688 C 400.042969 624.941406 401.007812 625.230469 401.996094 625.429688 C 402.988281 625.625 403.988281 625.726562 405 625.726562 Z M 405 625.726562 " fill-opacity="1" fill-rule="nonzero"/><path fill="#009688" d="M 405 713.449219 C 407.15625 713.445312 409.3125 713.390625 411.464844 713.28125 C 413.617188 713.171875 415.765625 713.011719 417.914062 712.796875 C 420.058594 712.585938 422.195312 712.320312 424.328125 712 C 426.460938 711.683594 428.585938 711.3125 430.699219 710.890625 C 432.8125 710.464844 434.914062 709.992188 437.007812 709.464844 C 439.097656 708.941406 441.175781 708.363281 443.238281 707.738281 C 445.300781 707.109375 447.347656 706.433594 449.375 705.703125 C 451.40625 704.976562 453.417969 704.199219 455.40625 703.375 C 457.398438 702.546875 459.367188 701.671875 461.316406 700.75 C 463.265625 699.828125 465.191406 698.855469 467.09375 697.839844 C 468.992188 696.820312 470.867188 695.757812 472.714844 694.648438 C 474.566406 693.539062 476.386719 692.386719 478.179688 691.1875 C 479.972656 689.988281 481.734375 688.75 483.464844 687.464844 C 485.195312 686.179688 486.894531 684.851562 488.5625 683.484375 C 490.226562 682.117188 491.859375 680.707031 493.457031 679.261719 C 495.054688 677.8125 496.617188 676.324219 498.140625 674.800781 C 499.664062 673.277344 501.152344 671.714844 502.597656 670.117188 C 504.046875 668.519531 505.457031 666.890625 506.824219 665.222656 C 508.191406 663.554688 509.519531 661.855469 510.800781 660.125 C 512.085938 658.394531 513.328125 656.632812 514.527344 654.839844 C 515.726562 653.046875 516.878906 651.226562 517.988281 649.378906 C 519.097656 647.527344 520.160156 645.652344 521.179688 643.753906 C 522.195312 641.851562 523.164062 639.925781 524.089844 637.976562 C 525.011719 636.03125 525.886719 634.058594 526.710938 632.070312 C 527.539062 630.078125 528.316406 628.066406 529.042969 626.035156 C 529.769531 624.007812 530.449219 621.960938 531.074219 619.898438 C 531.703125 617.835938 532.28125 615.757812 532.804688 613.667969 C 533.332031 611.578125 533.804688 609.472656 534.226562 607.359375 C 534.652344 605.246094 535.019531 603.121094 535.339844 600.988281 C 535.65625 598.859375 535.925781 596.71875 536.136719 594.574219 C 536.351562 592.429688 536.511719 590.277344 536.621094 588.125 C 536.730469 585.972656 536.785156 583.816406 536.785156 581.660156 L 536.785156 522.855469 C 536.792969 521.671875 536.75 520.488281 536.65625 519.308594 C 536.558594 518.128906 536.414062 516.953125 536.21875 515.785156 C 536.019531 514.617188 535.773438 513.460938 535.476562 512.3125 C 535.179688 511.167969 534.832031 510.035156 534.4375 508.917969 C 534.042969 507.800781 533.601562 506.703125 533.109375 505.625 C 532.621094 504.546875 532.082031 503.492188 531.5 502.460938 C 530.917969 501.429688 530.292969 500.425781 529.625 499.449219 C 528.957031 498.472656 528.246094 497.523438 527.496094 496.609375 C 526.742188 495.691406 525.953125 494.8125 525.128906 493.964844 C 524.300781 493.117188 523.4375 492.304688 522.539062 491.535156 C 521.640625 490.761719 520.710938 490.027344 519.75 489.335938 C 518.789062 488.644531 517.800781 487.996094 516.785156 487.386719 C 515.765625 486.78125 514.722656 486.222656 513.65625 485.703125 C 512.59375 485.1875 511.503906 484.71875 510.398438 484.296875 C 509.292969 483.875 508.167969 483.503906 507.03125 483.179688 C 505.890625 482.855469 504.738281 482.578125 503.578125 482.355469 L 503.578125 441.855469 C 503.566406 440.511719 503.523438 439.171875 503.445312 437.832031 C 503.371094 436.492188 503.261719 435.15625 503.121094 433.820312 C 502.980469 432.488281 502.804688 431.15625 502.601562 429.832031 C 502.394531 428.503906 502.15625 427.183594 501.882812 425.871094 C 501.613281 424.554688 501.3125 423.25 500.976562 421.949219 C 500.640625 420.648438 500.277344 419.359375 499.878906 418.078125 C 499.480469 416.796875 499.054688 415.523438 498.59375 414.265625 C 498.132812 413.003906 497.644531 411.753906 497.125 410.515625 C 496.601562 409.28125 496.050781 408.058594 495.472656 406.847656 C 494.890625 405.636719 494.28125 404.441406 493.644531 403.261719 C 493.003906 402.082031 492.339844 400.917969 491.640625 399.769531 C 490.945312 398.621094 490.222656 397.492188 489.472656 396.378906 C 488.722656 395.269531 487.945312 394.175781 487.140625 393.101562 C 486.335938 392.027344 485.507812 390.972656 484.652344 389.9375 C 483.796875 388.902344 482.917969 387.890625 482.011719 386.898438 C 481.105469 385.910156 480.179688 384.941406 479.226562 383.996094 C 478.273438 383.050781 477.300781 382.128906 476.300781 381.230469 C 475.304688 380.332031 474.285156 379.457031 473.246094 378.609375 C 472.207031 377.761719 471.148438 376.941406 470.066406 376.144531 C 468.988281 375.347656 467.890625 374.578125 466.769531 373.835938 C 465.652344 373.089844 464.519531 372.375 463.367188 371.6875 C 462.214844 371 461.046875 370.34375 459.859375 369.710938 C 458.675781 369.082031 457.476562 368.480469 456.261719 367.90625 C 455.050781 367.335938 453.820312 366.792969 452.582031 366.28125 C 451.339844 365.769531 450.089844 365.289062 448.824219 364.839844 C 447.5625 364.386719 446.285156 363.96875 445.003906 363.578125 C 443.71875 363.191406 442.425781 362.832031 441.125 362.507812 C 439.820312 362.183594 438.511719 361.886719 437.195312 361.628906 C 435.878906 361.367188 434.558594 361.136719 433.230469 360.9375 C 431.902344 360.742188 430.570312 360.578125 429.238281 360.445312 C 427.902344 360.3125 426.5625 360.214844 425.222656 360.148438 C 423.882812 360.082031 422.542969 360.046875 421.199219 360.046875 L 388.800781 360.046875 C 387.453125 360.046875 386.105469 360.078125 384.757812 360.144531 C 383.410156 360.210938 382.066406 360.308594 380.722656 360.441406 C 379.378906 360.574219 378.042969 360.738281 376.707031 360.9375 C 375.375 361.132812 374.046875 361.363281 372.722656 361.628906 C 371.402344 361.890625 370.085938 362.1875 368.777344 362.511719 C 367.46875 362.839844 366.167969 363.199219 364.878906 363.589844 C 363.585938 363.984375 362.308594 364.40625 361.039062 364.859375 C 359.765625 365.3125 358.507812 365.796875 357.261719 366.3125 C 356.015625 366.828125 354.785156 367.375 353.566406 367.953125 C 352.347656 368.527344 351.140625 369.132812 349.953125 369.769531 C 348.761719 370.40625 347.589844 371.070312 346.433594 371.761719 C 345.273438 372.453125 344.136719 373.175781 343.015625 373.925781 C 341.890625 374.671875 340.789062 375.449219 339.707031 376.253906 C 338.621094 377.054688 337.558594 377.882812 336.515625 378.738281 C 335.472656 379.59375 334.453125 380.476562 333.453125 381.378906 C 332.453125 382.285156 331.476562 383.214844 330.523438 384.167969 C 329.566406 385.121094 328.636719 386.097656 327.730469 387.097656 C 326.824219 388.09375 325.945312 389.113281 325.089844 390.15625 C 324.230469 391.199219 323.402344 392.261719 322.597656 393.34375 C 321.792969 394.425781 321.015625 395.527344 320.265625 396.648438 C 319.515625 397.769531 318.792969 398.910156 318.101562 400.066406 C 317.40625 401.222656 316.742188 402.394531 316.105469 403.582031 C 315.46875 404.773438 314.859375 405.976562 314.285156 407.195312 C 313.707031 408.414062 313.160156 409.644531 312.640625 410.890625 C 312.125 412.136719 311.640625 413.394531 311.183594 414.664062 C 310.726562 415.933594 310.304688 417.214844 309.910156 418.503906 C 309.519531 419.792969 309.160156 421.09375 308.828125 422.402344 C 308.5 423.707031 308.203125 425.023438 307.941406 426.347656 C 307.675781 427.667969 307.445312 428.996094 307.246094 430.332031 C 307.046875 431.664062 306.878906 433.003906 306.746094 434.34375 C 306.613281 435.6875 306.511719 437.03125 306.445312 438.378906 C 306.378906 439.726562 306.34375 441.074219 306.34375 442.421875 L 306.34375 482.921875 C 305.183594 483.136719 304.039062 483.402344 302.902344 483.714844 C 301.769531 484.027344 300.648438 484.390625 299.546875 484.804688 C 298.445312 485.214844 297.359375 485.675781 296.296875 486.179688 C 295.234375 486.6875 294.195312 487.238281 293.179688 487.835938 C 292.167969 488.433594 291.179688 489.070312 290.21875 489.753906 C 289.261719 490.4375 288.332031 491.160156 287.4375 491.925781 C 286.542969 492.6875 285.679688 493.488281 284.855469 494.328125 C 284.027344 495.167969 283.242188 496.042969 282.492188 496.949219 C 281.742188 497.855469 281.03125 498.796875 280.363281 499.765625 C 279.695312 500.734375 279.070312 501.730469 278.488281 502.753906 C 277.910156 503.777344 277.375 504.824219 276.882812 505.894531 C 276.394531 506.96875 275.953125 508.058594 275.554688 509.167969 C 275.160156 510.273438 274.816406 511.398438 274.519531 512.539062 C 274.222656 513.679688 273.976562 514.828125 273.78125 515.988281 C 273.582031 517.148438 273.4375 518.316406 273.34375 519.492188 C 273.25 520.664062 273.207031 521.839844 273.214844 523.015625 L 273.214844 581.824219 C 273.21875 583.976562 273.277344 586.128906 273.386719 588.28125 C 273.496094 590.433594 273.660156 592.582031 273.878906 594.722656 C 274.09375 596.867188 274.359375 599.003906 274.683594 601.136719 C 275.003906 603.265625 275.375 605.386719 275.800781 607.5 C 276.222656 609.609375 276.699219 611.710938 277.226562 613.800781 C 277.753906 615.890625 278.332031 617.964844 278.960938 620.023438 C 279.589844 622.085938 280.269531 624.128906 281 626.15625 C 281.726562 628.183594 282.507812 630.191406 283.335938 632.179688 C 284.160156 634.171875 285.039062 636.136719 285.960938 638.082031 C 286.886719 640.03125 287.855469 641.953125 288.875 643.851562 C 289.890625 645.75 290.957031 647.621094 292.066406 649.46875 C 293.175781 651.316406 294.328125 653.132812 295.527344 654.925781 C 296.726562 656.714844 297.96875 658.472656 299.253906 660.203125 C 300.539062 661.933594 301.867188 663.628906 303.234375 665.292969 C 304.601562 666.957031 306.011719 668.585938 307.457031 670.183594 C 308.90625 671.777344 310.394531 673.335938 311.917969 674.859375 C 313.441406 676.382812 315 677.863281 316.597656 679.3125 C 318.195312 680.757812 319.828125 682.164062 321.492188 683.527344 C 323.160156 684.894531 324.859375 686.21875 326.589844 687.503906 C 328.320312 688.785156 330.082031 690.027344 331.871094 691.222656 C 333.664062 692.417969 335.484375 693.570312 337.332031 694.679688 C 339.179688 695.785156 341.050781 696.847656 342.953125 697.863281 C 344.851562 698.878906 346.777344 699.847656 348.722656 700.769531 C 350.671875 701.691406 352.640625 702.5625 354.628906 703.390625 C 356.621094 704.214844 358.628906 704.988281 360.65625 705.714844 C 362.683594 706.441406 364.730469 707.121094 366.792969 707.746094 C 368.851562 708.371094 370.929688 708.949219 373.015625 709.472656 C 375.105469 709.996094 377.207031 710.472656 379.320312 710.894531 C 381.433594 711.316406 383.554688 711.683594 385.6875 712.003906 C 387.816406 712.320312 389.953125 712.585938 392.097656 712.800781 C 394.242188 713.011719 396.390625 713.175781 398.539062 713.28125 C 400.691406 713.390625 402.84375 713.445312 405 713.449219 Z M 337.121094 442.421875 C 337.121094 440.730469 337.203125 439.042969 337.371094 437.359375 C 337.535156 435.675781 337.785156 434.003906 338.117188 432.347656 C 338.445312 430.6875 338.855469 429.046875 339.347656 427.429688 C 339.839844 425.8125 340.410156 424.21875 341.058594 422.65625 C 341.707031 421.09375 342.429688 419.570312 343.226562 418.078125 C 344.023438 416.585938 344.894531 415.136719 345.835938 413.730469 C 346.773438 412.324219 347.78125 410.96875 348.855469 409.660156 C 349.929688 408.355469 351.066406 407.105469 352.261719 405.910156 C 353.460938 404.714844 354.710938 403.578125 356.019531 402.507812 C 357.328125 401.4375 358.6875 400.429688 360.09375 399.492188 C 361.503906 398.554688 362.953125 397.6875 364.445312 396.890625 C 365.9375 396.09375 367.464844 395.375 369.03125 394.730469 C 370.59375 394.082031 372.183594 393.515625 373.804688 393.027344 C 375.421875 392.539062 377.0625 392.128906 378.722656 391.800781 C 380.382812 391.476562 382.054688 391.230469 383.738281 391.066406 C 385.421875 390.902344 387.109375 390.824219 388.800781 390.824219 L 421.199219 390.824219 C 422.890625 390.824219 424.574219 390.90625 426.257812 391.074219 C 427.9375 391.238281 429.609375 391.488281 431.265625 391.816406 C 432.921875 392.144531 434.5625 392.554688 436.179688 393.046875 C 437.792969 393.539062 439.382812 394.105469 440.945312 394.753906 C 442.507812 395.398438 444.03125 396.121094 445.523438 396.917969 C 447.011719 397.714844 448.460938 398.582031 449.867188 399.519531 C 451.269531 400.460938 452.625 401.464844 453.933594 402.535156 C 455.238281 403.609375 456.488281 404.742188 457.683594 405.9375 C 458.878906 407.132812 460.011719 408.382812 461.085938 409.6875 C 462.15625 410.996094 463.164062 412.351562 464.101562 413.757812 C 465.039062 415.160156 465.90625 416.609375 466.703125 418.097656 C 467.5 419.589844 468.222656 421.117188 468.871094 422.675781 C 469.515625 424.238281 470.085938 425.828125 470.574219 427.445312 C 471.066406 429.0625 471.476562 430.699219 471.804688 432.355469 C 472.136719 434.011719 472.382812 435.683594 472.546875 437.363281 C 472.714844 439.046875 472.796875 440.730469 472.796875 442.421875 L 472.796875 481.949219 L 337.121094 481.949219 Z M 303.992188 522.855469 C 304 522.191406 304.066406 521.535156 304.199219 520.886719 C 304.335938 520.234375 304.527344 519.605469 304.785156 518.992188 C 305.042969 518.382812 305.355469 517.800781 305.722656 517.25 C 306.09375 516.699219 306.511719 516.1875 306.980469 515.71875 C 307.449219 515.25 307.960938 514.832031 308.511719 514.460938 C 309.0625 514.089844 309.644531 513.777344 310.253906 513.523438 C 310.867188 513.265625 311.5 513.070312 312.148438 512.9375 C 312.796875 512.804688 313.453125 512.734375 314.117188 512.730469 L 495.882812 512.730469 C 496.546875 512.734375 497.203125 512.804688 497.851562 512.9375 C 498.5 513.070312 499.132812 513.265625 499.746094 513.523438 C 500.355469 513.777344 500.9375 514.089844 501.488281 514.460938 C 502.039062 514.832031 502.550781 515.25 503.019531 515.71875 C 503.488281 516.1875 503.90625 516.699219 504.277344 517.25 C 504.644531 517.800781 504.957031 518.382812 505.214844 518.992188 C 505.472656 519.605469 505.664062 520.234375 505.800781 520.886719 C 505.933594 521.535156 506 522.191406 506.007812 522.855469 L 506.007812 581.660156 C 506.007812 583.3125 505.964844 584.964844 505.882812 586.617188 C 505.800781 588.265625 505.679688 589.914062 505.515625 591.558594 C 505.351562 593.203125 505.148438 594.84375 504.90625 596.476562 C 504.664062 598.109375 504.378906 599.738281 504.058594 601.359375 C 503.734375 602.980469 503.371094 604.59375 502.96875 606.195312 C 502.566406 607.796875 502.125 609.390625 501.644531 610.972656 C 501.164062 612.550781 500.648438 614.121094 500.089844 615.675781 C 499.53125 617.230469 498.9375 618.773438 498.304688 620.300781 C 497.671875 621.824219 497 623.335938 496.292969 624.828125 C 495.585938 626.324219 494.84375 627.800781 494.0625 629.257812 C 493.285156 630.714844 492.46875 632.148438 491.621094 633.566406 C 490.769531 634.984375 489.886719 636.378906 488.96875 637.753906 C 488.046875 639.128906 487.097656 640.476562 486.113281 641.804688 C 485.128906 643.132812 484.109375 644.433594 483.0625 645.710938 C 482.011719 646.988281 480.933594 648.238281 479.824219 649.464844 C 478.714844 650.6875 477.574219 651.882812 476.40625 653.050781 C 475.238281 654.21875 474.039062 655.359375 472.816406 656.46875 C 471.589844 657.578125 470.339844 658.65625 469.0625 659.703125 C 467.785156 660.753906 466.480469 661.769531 465.152344 662.753906 C 463.828125 663.738281 462.476562 664.6875 461.101562 665.605469 C 459.726562 666.523438 458.332031 667.40625 456.914062 668.257812 C 455.496094 669.105469 454.058594 669.921875 452.601562 670.699219 C 451.144531 671.476562 449.667969 672.21875 448.171875 672.925781 C 446.679688 673.632812 445.167969 674.300781 443.640625 674.933594 C 442.117188 675.566406 440.574219 676.160156 439.019531 676.71875 C 437.460938 677.273438 435.894531 677.792969 434.3125 678.273438 C 432.730469 678.75 431.136719 679.191406 429.535156 679.59375 C 427.933594 679.996094 426.320312 680.355469 424.699219 680.679688 C 423.078125 681 421.449219 681.285156 419.816406 681.527344 C 418.179688 681.769531 416.542969 681.96875 414.898438 682.132812 C 413.253906 682.292969 411.605469 682.417969 409.953125 682.496094 C 408.304688 682.578125 406.652344 682.617188 405 682.617188 C 403.347656 682.617188 401.695312 682.578125 400.046875 682.496094 C 398.394531 682.417969 396.746094 682.292969 395.101562 682.132812 C 393.457031 681.96875 391.820312 681.769531 390.183594 681.527344 C 388.550781 681.285156 386.921875 681 385.300781 680.679688 C 383.679688 680.355469 382.066406 679.996094 380.464844 679.59375 C 378.863281 679.191406 377.269531 678.75 375.6875 678.273438 C 374.105469 677.792969 372.539062 677.273438 370.980469 676.71875 C 369.425781 676.160156 367.882812 675.566406 366.359375 674.933594 C 364.832031 674.300781 363.320312 673.632812 361.828125 672.925781 C 360.332031 672.21875 358.855469 671.476562 357.398438 670.699219 C 355.941406 669.921875 354.503906 669.105469 353.085938 668.257812 C 351.667969 667.40625 350.273438 666.523438 348.898438 665.605469 C 347.523438 664.6875 346.171875 663.738281 344.847656 662.753906 C 343.519531 661.769531 342.214844 660.753906 340.9375 659.703125 C 339.660156 658.65625 338.410156 657.578125 337.183594 656.46875 C 335.960938 655.359375 334.761719 654.21875 333.59375 653.050781 C 332.425781 651.882812 331.285156 650.6875 330.175781 649.464844 C 329.066406 648.238281 327.988281 646.988281 326.9375 645.710938 C 325.890625 644.433594 324.871094 643.132812 323.886719 641.804688 C 322.902344 640.476562 321.953125 639.128906 321.03125 637.753906 C 320.113281 636.378906 319.230469 634.984375 318.378906 633.566406 C 317.53125 632.148438 316.714844 630.714844 315.9375 629.257812 C 315.15625 627.800781 314.414062 626.324219 313.707031 624.828125 C 313 623.335938 312.328125 621.824219 311.695312 620.300781 C 311.0625 618.773438 310.46875 617.230469 309.910156 615.675781 C 309.351562 614.121094 308.835938 612.550781 308.355469 610.972656 C 307.875 609.390625 307.433594 607.796875 307.03125 606.195312 C 306.628906 604.59375 306.265625 602.980469 305.941406 601.359375 C 305.617188 599.738281 305.335938 598.109375 305.09375 596.476562 C 304.847656 594.84375 304.648438 593.203125 304.484375 591.558594 C 304.320312 589.914062 304.199219 588.265625 304.117188 586.617188 C 304.035156 584.964844 303.992188 583.3125 303.992188 581.660156 Z M 303.992188 522.855469 " fill-opacity="1" fill-rule="nonzero"/><path fill="#162b4d" d="M 217.808594 349.921875 C 217.28125 350.457031 216.792969 351.03125 216.347656 351.640625 C 215.902344 352.25 215.5 352.886719 215.148438 353.554688 C 214.796875 354.222656 214.496094 354.914062 214.246094 355.625 C 213.992188 356.335938 213.792969 357.0625 213.648438 357.804688 C 213.503906 358.542969 213.414062 359.289062 213.378906 360.042969 C 213.34375 360.796875 213.363281 361.550781 213.4375 362.300781 C 213.511719 363.054688 213.640625 363.796875 213.824219 364.527344 C 214.007812 365.257812 214.242188 365.972656 214.53125 366.671875 C 214.816406 367.371094 215.15625 368.042969 215.539062 368.691406 C 215.925781 369.339844 216.359375 369.957031 216.835938 370.542969 C 217.3125 371.128906 217.828125 371.675781 218.382812 372.183594 C 218.941406 372.695312 219.53125 373.160156 220.15625 373.585938 C 220.78125 374.007812 221.433594 374.382812 222.113281 374.710938 C 222.792969 375.039062 223.492188 375.316406 224.214844 375.539062 C 224.933594 375.765625 225.667969 375.9375 226.414062 376.054688 C 227.15625 376.171875 227.910156 376.238281 228.664062 376.246094 C 230.703125 376.242188 232.660156 375.847656 234.542969 375.0625 C 236.425781 374.273438 238.082031 373.15625 239.515625 371.710938 C 240.183594 370.984375 240.777344 370.203125 241.296875 369.363281 C 241.8125 368.527344 242.246094 367.644531 242.597656 366.722656 C 242.945312 365.800781 243.203125 364.855469 243.371094 363.886719 C 243.539062 362.914062 243.609375 361.933594 243.589844 360.949219 C 243.570312 359.964844 243.453125 358.992188 243.246094 358.027344 C 243.039062 357.0625 242.742188 356.128906 242.351562 355.222656 C 241.964844 354.316406 241.496094 353.457031 240.941406 352.640625 C 240.390625 351.824219 239.761719 351.070312 239.066406 350.375 C 238.367188 349.675781 237.609375 349.054688 236.792969 348.503906 C 235.972656 347.953125 235.109375 347.488281 234.203125 347.101562 C 233.296875 346.71875 232.359375 346.425781 231.394531 346.21875 C 230.433594 346.015625 229.457031 345.90625 228.472656 345.886719 C 227.484375 345.871094 226.507812 345.949219 225.539062 346.117188 C 224.566406 346.289062 223.621094 346.550781 222.699219 346.902344 C 221.78125 347.253906 220.902344 347.691406 220.066406 348.214844 C 219.230469 348.734375 218.449219 349.332031 217.726562 350 Z M 217.808594 349.921875 " fill-opacity="1" fill-rule="nonzero"/></svg>