<svg xmlns="http://www.w3.org/2000/svg" xmlns:xlink="http://www.w3.org/1999/xlink" width="1080" zoomAndPan="magnify" viewBox="0 0 810 809.999993" height="1080" preserveAspectRatio="xMidYMid meet" version="1.0"><path fill="#162b4d" d="M 789.265625 619.40625 L 743.984375 487.621094 C 745.839844 483.828125 747.625 480 749.332031 476.140625 C 751.039062 472.277344 752.675781 468.386719 754.234375 464.460938 C 755.792969 460.539062 757.273438 456.585938 758.679688 452.605469 C 760.085938 448.625 761.414062 444.617188 762.667969 440.585938 C 763.917969 436.550781 765.09375 432.496094 766.1875 428.421875 C 767.28125 424.34375 768.300781 420.246094 769.238281 416.128906 C 770.175781 412.011719 771.03125 407.878906 771.808594 403.730469 C 772.585938 399.578125 773.285156 395.414062 773.902344 391.238281 C 774.519531 387.0625 775.058594 382.875 775.511719 378.675781 C 775.96875 374.480469 776.34375 370.277344 776.636719 366.0625 C 776.933594 361.851562 777.144531 357.636719 777.277344 353.414062 C 777.40625 349.195312 777.457031 344.972656 777.425781 340.753906 C 777.394531 336.53125 777.28125 332.3125 777.089844 328.09375 C 776.894531 323.875 776.621094 319.664062 776.261719 315.457031 C 775.90625 311.25 775.46875 307.050781 774.953125 302.859375 C 774.433594 298.667969 773.835938 294.492188 773.15625 290.324219 C 772.476562 286.15625 771.714844 282.003906 770.875 277.867188 C 770.039062 273.726562 769.117188 269.609375 768.121094 265.507812 C 767.121094 261.402344 766.042969 257.320312 764.890625 253.261719 C 763.734375 249.199219 762.5 245.164062 761.1875 241.148438 C 759.878906 237.136719 758.488281 233.148438 757.023438 229.191406 C 755.558594 225.230469 754.019531 221.300781 752.402344 217.398438 C 750.785156 213.5 749.09375 209.632812 747.328125 205.796875 C 745.5625 201.960938 743.722656 198.160156 741.8125 194.398438 C 739.898438 190.632812 737.914062 186.90625 735.859375 183.21875 C 733.804688 179.53125 731.675781 175.882812 729.480469 172.277344 C 727.285156 168.671875 725.019531 165.109375 722.6875 161.589844 C 720.351562 158.074219 717.953125 154.601562 715.484375 151.175781 C 713.015625 147.75 710.484375 144.371094 707.886719 141.042969 C 705.289062 137.714844 702.625 134.4375 699.902344 131.210938 C 697.179688 127.988281 694.394531 124.8125 691.546875 121.695312 C 688.699219 118.578125 685.792969 115.515625 682.828125 112.507812 C 680.007812 109.628906 677.128906 106.804688 674.203125 104.03125 C 671.277344 101.257812 668.296875 98.539062 665.269531 95.875 C 662.242188 93.210938 659.167969 90.605469 656.042969 88.054688 C 652.921875 85.503906 649.753906 83.011719 646.535156 80.578125 C 643.320312 78.144531 640.0625 75.769531 636.761719 73.453125 C 633.457031 71.140625 630.113281 68.886719 626.730469 66.695312 C 623.34375 64.503906 619.921875 62.378906 616.457031 60.3125 C 612.992188 58.246094 609.492188 56.246094 605.957031 54.308594 C 602.417969 52.371094 598.847656 50.5 595.242188 48.695312 C 591.636719 46.890625 587.996094 45.152344 584.328125 43.480469 C 580.660156 41.808594 576.960938 40.207031 573.230469 38.671875 C 569.5 37.136719 565.746094 35.667969 561.964844 34.273438 C 558.179688 32.875 554.375 31.546875 550.542969 30.289062 C 546.710938 29.035156 542.855469 27.847656 538.980469 26.730469 C 535.105469 25.617188 531.210938 24.570312 527.300781 23.597656 C 523.386719 22.628906 519.457031 21.726562 515.507812 20.898438 C 511.5625 20.070312 507.601562 19.316406 503.628906 18.632812 C 499.652344 17.953125 495.667969 17.34375 491.671875 16.808594 C 487.675781 16.273438 483.667969 15.8125 479.65625 15.421875 C 475.640625 15.035156 471.621094 14.71875 467.597656 14.480469 C 463.570312 14.238281 459.542969 14.074219 455.511719 13.980469 C 451.480469 13.886719 447.449219 13.871094 443.414062 13.925781 C 439.382812 13.980469 435.355469 14.113281 431.328125 14.316406 C 427.300781 14.519531 423.277344 14.800781 419.261719 15.152344 C 415.242188 15.503906 411.234375 15.929688 407.234375 16.429688 C 403.230469 16.929688 399.238281 17.5 395.261719 18.148438 C 391.28125 18.792969 387.3125 19.511719 383.359375 20.304688 C 379.40625 21.097656 375.464844 21.960938 371.542969 22.898438 C 367.621094 23.835938 363.71875 24.84375 359.832031 25.925781 C 355.949219 27.007812 352.085938 28.160156 348.242188 29.382812 C 344.398438 30.605469 340.582031 31.898438 336.785156 33.261719 C 332.992188 34.625 329.222656 36.054688 325.480469 37.558594 C 321.738281 39.058594 318.023438 40.628906 314.339844 42.269531 C 310.65625 43.90625 307 45.613281 303.378906 47.382812 C 299.757812 49.15625 296.167969 50.996094 292.613281 52.902344 C 289.058594 54.804688 285.542969 56.773438 282.058594 58.808594 C 278.578125 60.84375 275.136719 62.941406 271.730469 65.101562 C 268.324219 67.261719 264.960938 69.484375 261.640625 71.769531 C 258.316406 74.054688 255.035156 76.398438 251.800781 78.804688 C 248.5625 81.207031 245.371094 83.671875 242.226562 86.195312 C 239.078125 88.714844 235.980469 91.296875 232.929688 93.933594 C 229.878906 96.570312 226.875 99.261719 223.921875 102.007812 C 220.972656 104.753906 218.070312 107.554688 215.222656 110.40625 C 212.371094 113.261719 209.574219 116.164062 206.832031 119.121094 C 204.089844 122.078125 201.402344 125.085938 198.769531 128.140625 C 196.140625 131.195312 193.5625 134.296875 191.046875 137.445312 C 188.527344 140.597656 186.070312 143.792969 183.667969 147.03125 C 181.269531 150.273438 178.929688 153.554688 176.648438 156.882812 C 174.371094 160.207031 172.152344 163.574219 169.996094 166.984375 C 167.839844 170.390625 165.746094 173.835938 163.71875 177.320312 C 161.691406 180.804688 159.726562 184.328125 157.824219 187.882812 C 155.925781 191.441406 154.09375 195.03125 152.324219 198.65625 C 150.558594 202.28125 148.859375 205.9375 147.226562 209.625 C 145.59375 213.3125 144.027344 217.027344 142.53125 220.773438 C 141.035156 224.515625 139.605469 228.285156 138.25 232.085938 C 136.890625 235.882812 135.605469 239.703125 134.386719 243.546875 C 133.171875 247.390625 132.023438 251.257812 130.949219 255.144531 C 129.875 259.027344 128.871094 262.933594 127.9375 266.859375 C 127.007812 270.78125 126.148438 274.71875 125.363281 278.675781 C 124.574219 282.628906 123.863281 286.597656 123.222656 290.578125 C 122.582031 294.5625 122.015625 298.554688 121.519531 302.554688 C 121.027344 306.558594 120.605469 310.566406 120.261719 314.585938 C 119.914062 318.601562 119.640625 322.625 119.441406 326.652344 C 119.246094 330.679688 119.121094 334.710938 119.070312 338.742188 C 116.328125 340.792969 113.632812 342.90625 110.980469 345.074219 C 108.332031 347.242188 105.730469 349.464844 103.171875 351.746094 C 100.617188 354.027344 98.113281 356.359375 95.65625 358.746094 C 93.203125 361.132812 90.796875 363.570312 88.449219 366.0625 C 86.097656 368.550781 83.800781 371.089844 81.558594 373.679688 C 79.316406 376.269531 77.128906 378.90625 75 381.585938 C 72.871094 384.269531 70.800781 386.996094 68.789062 389.765625 C 66.777344 392.539062 64.824219 395.351562 62.933594 398.203125 C 61.042969 401.058594 59.210938 403.953125 57.445312 406.886719 C 55.675781 409.820312 53.972656 412.789062 52.332031 415.792969 C 50.691406 418.800781 49.117188 421.839844 47.605469 424.914062 C 46.09375 427.988281 44.652344 431.089844 43.273438 434.226562 C 41.894531 437.363281 40.585938 440.527344 39.34375 443.71875 C 38.101562 446.910156 36.929688 450.125 35.828125 453.367188 C 34.722656 456.609375 33.6875 459.871094 32.726562 463.160156 C 31.761719 466.445312 30.867188 469.75 30.046875 473.074219 C 29.222656 476.398438 28.472656 479.738281 27.792969 483.097656 C 27.113281 486.453125 26.507812 489.820312 25.972656 493.203125 C 25.4375 496.585938 24.972656 499.980469 24.585938 503.382812 C 24.195312 506.785156 23.878906 510.191406 23.636719 513.609375 C 23.390625 517.023438 23.222656 520.445312 23.125 523.867188 C 23.027344 527.289062 23.003906 530.714844 23.054688 534.136719 C 23.105469 537.5625 23.226562 540.984375 23.421875 544.402344 C 23.621094 547.820312 23.890625 551.234375 24.230469 554.644531 C 24.574219 558.050781 24.988281 561.449219 25.476562 564.839844 C 25.964844 568.226562 26.527344 571.605469 27.160156 574.96875 C 27.792969 578.335938 28.5 581.6875 29.273438 585.023438 C 30.050781 588.355469 30.898438 591.675781 31.816406 594.972656 C 32.738281 598.273438 33.726562 601.550781 34.785156 604.808594 C 35.84375 608.0625 36.972656 611.296875 38.167969 614.503906 C 39.367188 617.710938 40.632812 620.894531 41.96875 624.046875 C 43.300781 627.203125 44.703125 630.324219 46.171875 633.421875 L 15.066406 724.140625 C 14.410156 726.027344 13.890625 727.953125 13.503906 729.914062 C 13.117188 731.875 12.871094 733.851562 12.761719 735.847656 C 12.652344 737.84375 12.683594 739.835938 12.855469 741.828125 C 13.027344 743.820312 13.335938 745.789062 13.78125 747.738281 C 14.230469 749.683594 14.808594 751.589844 15.523438 753.457031 C 16.238281 755.324219 17.078125 757.132812 18.046875 758.878906 C 19.015625 760.628906 20.101562 762.300781 21.300781 763.898438 C 22.503906 765.496094 23.8125 767 25.226562 768.414062 C 26.636719 769.824219 28.144531 771.132812 29.738281 772.335938 C 31.335938 773.539062 33.007812 774.621094 34.757812 775.589844 C 36.507812 776.558594 38.3125 777.398438 40.179688 778.113281 C 42.046875 778.828125 43.953125 779.410156 45.902344 779.855469 C 47.847656 780.300781 49.820312 780.613281 51.808594 780.78125 C 53.800781 780.953125 55.792969 780.984375 57.789062 780.875 C 59.785156 780.765625 61.765625 780.519531 63.726562 780.132812 C 65.6875 779.75 67.609375 779.226562 69.496094 778.570312 L 160.21875 747.386719 C 168.210938 751.167969 176.382812 754.5 184.742188 757.382812 C 193.097656 760.261719 201.589844 762.679688 210.214844 764.625 C 218.835938 766.574219 227.539062 768.042969 236.324219 769.035156 C 245.109375 770.027344 253.921875 770.53125 262.765625 770.554688 L 263.167969 770.554688 C 267.867188 770.558594 272.558594 770.421875 277.246094 770.152344 C 281.9375 769.878906 286.613281 769.46875 291.277344 768.921875 C 295.945312 768.375 300.589844 767.691406 305.214844 766.871094 C 309.839844 766.050781 314.433594 765.097656 319.003906 764.007812 C 323.570312 762.914062 328.105469 761.691406 332.601562 760.335938 C 337.097656 758.976562 341.550781 757.488281 345.960938 755.871094 C 350.367188 754.25 354.726562 752.503906 359.03125 750.628906 C 363.339844 748.753906 367.585938 746.753906 371.777344 744.628906 C 375.964844 742.503906 380.085938 740.257812 384.144531 737.890625 C 388.199219 735.523438 392.183594 733.039062 396.09375 730.4375 C 400.003906 727.835938 403.835938 725.121094 407.585938 722.292969 C 411.335938 719.464844 415 716.53125 418.578125 713.488281 C 422.15625 710.445312 425.644531 707.300781 429.039062 704.054688 C 432.429688 700.804688 435.726562 697.460938 438.921875 694.019531 C 442.117188 690.578125 445.210938 687.046875 448.199219 683.421875 C 451.1875 679.800781 454.070312 676.09375 456.839844 672.300781 C 468.605469 671.992188 480.320312 671.058594 491.984375 669.5 C 503.648438 667.9375 515.195312 665.757812 526.628906 662.960938 C 538.058594 660.160156 549.308594 656.761719 560.375 652.757812 C 571.441406 648.753906 582.261719 644.171875 592.839844 639.007812 L 724.546875 684.289062 C 729.957031 686.121094 735.519531 687.039062 741.230469 687.042969 C 742.238281 687.039062 743.246094 687.007812 744.25 686.949219 C 745.253906 686.886719 746.257812 686.796875 747.257812 686.675781 C 748.257812 686.554688 749.253906 686.402344 750.242188 686.222656 C 751.234375 686.042969 752.21875 685.835938 753.199219 685.597656 C 754.175781 685.359375 755.148438 685.089844 756.109375 684.792969 C 757.070312 684.5 758.023438 684.171875 758.96875 683.820312 C 759.910156 683.46875 760.84375 683.085938 761.765625 682.679688 C 762.683594 682.273438 763.59375 681.835938 764.488281 681.375 C 765.382812 680.914062 766.261719 680.425781 767.128906 679.910156 C 767.996094 679.394531 768.84375 678.855469 769.679688 678.292969 C 770.511719 677.726562 771.328125 677.136719 772.128906 676.523438 C 772.925781 675.910156 773.707031 675.273438 774.46875 674.617188 C 775.230469 673.957031 775.96875 673.273438 776.691406 672.570312 C 777.410156 671.867188 778.109375 671.144531 778.789062 670.398438 C 779.464844 669.652344 780.121094 668.886719 780.753906 668.105469 C 781.386719 667.320312 781.992188 666.519531 782.578125 665.699219 C 783.164062 664.878906 783.722656 664.042969 784.257812 663.1875 C 784.792969 662.335938 785.300781 661.464844 785.785156 660.582031 C 786.265625 659.699219 786.722656 658.800781 787.152344 657.890625 C 787.585938 656.980469 787.988281 656.058594 788.363281 655.121094 C 788.738281 654.1875 789.082031 653.242188 789.402344 652.289062 C 789.722656 651.332031 790.011719 650.367188 790.273438 649.394531 C 790.535156 648.421875 790.769531 647.445312 790.972656 646.457031 C 791.175781 645.472656 791.351562 644.480469 791.496094 643.484375 C 791.640625 642.488281 791.753906 641.488281 791.839844 640.484375 C 791.925781 639.480469 791.980469 638.472656 792.007812 637.46875 C 792.03125 636.460938 792.027344 635.453125 791.992188 634.449219 C 791.960938 633.441406 791.894531 632.4375 791.800781 631.433594 C 791.707031 630.429688 791.582031 629.433594 791.429688 628.4375 C 791.277344 627.441406 791.09375 626.449219 790.882812 625.464844 C 790.671875 624.480469 790.429688 623.503906 790.160156 622.535156 C 789.890625 621.5625 789.589844 620.601562 789.265625 619.648438 Z M 263.167969 724.140625 C 255.347656 724.132812 247.558594 723.652344 239.796875 722.699219 C 232.035156 721.75 224.359375 720.332031 216.773438 718.445312 C 209.183594 716.5625 201.734375 714.226562 194.429688 711.441406 C 187.125 708.652344 180.011719 705.433594 173.097656 701.785156 C 171.691406 701.046875 170.230469 700.460938 168.707031 700.023438 C 167.183594 699.582031 165.632812 699.300781 164.050781 699.175781 C 162.472656 699.050781 160.894531 699.082031 159.324219 699.277344 C 157.75 699.472656 156.210938 699.820312 154.710938 700.324219 L 61.640625 732.726562 L 93.636719 639.738281 C 94.152344 638.238281 94.511719 636.699219 94.710938 635.125 C 94.910156 633.550781 94.949219 631.972656 94.824219 630.390625 C 94.699219 628.8125 94.414062 627.257812 93.964844 625.734375 C 93.519531 624.210938 92.925781 622.75 92.179688 621.351562 C 90.996094 619.121094 89.859375 616.871094 88.769531 614.597656 C 87.675781 612.324219 86.628906 610.03125 85.625 607.71875 C 84.621094 605.40625 83.664062 603.070312 82.753906 600.722656 C 81.839844 598.371094 80.976562 596 80.15625 593.617188 C 79.335938 591.230469 78.566406 588.832031 77.839844 586.414062 C 77.113281 584 76.4375 581.570312 75.804688 579.128906 C 75.175781 576.6875 74.59375 574.234375 74.058594 571.769531 C 73.523438 569.304688 73.035156 566.832031 72.597656 564.347656 C 72.160156 561.863281 71.769531 559.375 71.429688 556.875 C 71.089844 554.375 70.796875 551.871094 70.554688 549.359375 C 70.3125 546.851562 70.117188 544.335938 69.972656 541.820312 C 69.828125 539.300781 69.734375 536.78125 69.6875 534.261719 C 69.644531 531.738281 69.644531 529.21875 69.699219 526.695312 C 69.75 524.175781 69.851562 521.65625 70.003906 519.136719 C 70.15625 516.621094 70.355469 514.105469 70.605469 511.597656 C 70.851562 509.085938 71.152344 506.582031 71.5 504.085938 C 71.84375 501.589844 72.242188 499.097656 72.683594 496.617188 C 73.128906 494.132812 73.621094 491.660156 74.164062 489.195312 C 74.703125 486.734375 75.292969 484.28125 75.929688 481.839844 C 76.566406 479.402344 77.25 476.976562 77.984375 474.5625 C 78.714844 472.148438 79.492188 469.75 80.320312 467.367188 C 81.144531 464.984375 82.015625 462.617188 82.933594 460.269531 C 83.851562 457.917969 84.816406 455.589844 85.824219 453.277344 C 86.832031 450.96875 87.886719 448.675781 88.984375 446.40625 C 90.082031 444.136719 91.226562 441.886719 92.410156 439.664062 C 93.597656 437.4375 94.828125 435.234375 96.101562 433.058594 C 97.371094 430.882812 98.6875 428.730469 100.042969 426.601562 C 101.398438 424.476562 102.796875 422.378906 104.234375 420.308594 C 105.675781 418.234375 107.152344 416.191406 108.671875 414.179688 C 110.1875 412.164062 111.746094 410.183594 113.339844 408.230469 C 114.9375 406.277344 116.570312 404.355469 118.242188 402.46875 C 119.914062 400.578125 121.621094 398.722656 123.363281 396.898438 C 124.078125 401.144531 124.878906 405.378906 125.757812 409.59375 C 126.640625 413.808594 127.601562 418.003906 128.648438 422.179688 C 129.691406 426.359375 130.820312 430.515625 132.027344 434.648438 C 133.234375 438.78125 134.519531 442.890625 135.886719 446.972656 C 137.257812 451.054688 138.703125 455.109375 140.230469 459.136719 C 141.753906 463.164062 143.359375 467.160156 145.042969 471.125 C 146.722656 475.085938 148.484375 479.015625 150.320312 482.914062 C 152.15625 486.808594 154.066406 490.667969 156.050781 494.488281 C 158.039062 498.308594 160.097656 502.089844 162.234375 505.828125 C 164.367188 509.570312 166.574219 513.265625 168.851562 516.917969 C 171.128906 520.574219 173.480469 524.183594 175.898438 527.742188 C 178.320312 531.304688 180.804688 534.820312 183.363281 538.285156 C 185.921875 541.75 188.542969 545.164062 191.234375 548.527344 C 193.921875 551.890625 196.679688 555.199219 199.496094 558.453125 C 202.316406 561.707031 205.199219 564.90625 208.144531 568.050781 C 211.085938 571.191406 214.089844 574.273438 217.15625 577.300781 C 220.222656 580.324219 223.34375 583.289062 226.523438 586.191406 C 229.703125 589.09375 232.941406 591.933594 236.230469 594.710938 C 239.523438 597.488281 242.867188 600.199219 246.265625 602.847656 C 249.664062 605.492188 253.109375 608.070312 256.609375 610.582031 C 260.105469 613.09375 263.652344 615.535156 267.246094 617.910156 C 270.839844 620.28125 274.476562 622.582031 278.160156 624.8125 C 281.84375 627.042969 285.570312 629.203125 289.335938 631.289062 C 293.105469 633.375 296.914062 635.382812 300.757812 637.320312 C 304.605469 639.257812 308.488281 641.117188 312.40625 642.902344 C 316.324219 644.6875 320.277344 646.394531 324.261719 648.027344 C 328.25 649.65625 332.265625 651.207031 336.3125 652.679688 C 340.355469 654.15625 344.429688 655.550781 348.53125 656.863281 C 352.632812 658.179688 356.757812 659.414062 360.90625 660.566406 C 365.054688 661.71875 369.222656 662.789062 373.414062 663.78125 C 377.605469 664.773438 381.816406 665.679688 386.039062 666.507812 C 390.265625 667.332031 394.507812 668.074219 398.761719 668.734375 C 394.296875 673.128906 389.628906 677.296875 384.757812 681.238281 C 379.886719 685.175781 374.835938 688.871094 369.601562 692.320312 C 364.371094 695.765625 358.984375 698.949219 353.441406 701.875 C 347.902344 704.796875 342.230469 707.441406 336.429688 709.8125 C 330.628906 712.179688 324.730469 714.265625 318.726562 716.058594 C 312.722656 717.851562 306.648438 719.351562 300.5 720.554688 C 294.351562 721.757812 288.160156 722.65625 281.921875 723.257812 C 275.683594 723.855469 269.433594 724.148438 263.167969 724.140625 Z M 744.308594 639.089844 C 744.023438 639.402344 743.699219 639.667969 743.335938 639.882812 C 742.96875 640.09375 742.578125 640.25 742.167969 640.34375 C 741.753906 640.4375 741.335938 640.46875 740.914062 640.433594 C 740.492188 640.398438 740.085938 640.300781 739.691406 640.144531 L 598.671875 591.542969 C 596.203125 590.703125 593.664062 590.269531 591.058594 590.246094 C 587.238281 590.265625 583.644531 591.183594 580.285156 593 C 570.167969 598.300781 559.769531 602.976562 549.089844 607.019531 C 538.410156 611.066406 527.527344 614.453125 516.4375 617.183594 C 505.347656 619.914062 494.132812 621.964844 482.796875 623.339844 C 471.457031 624.714844 460.078125 625.402344 448.660156 625.402344 C 444.082031 625.390625 439.511719 625.269531 434.941406 625.039062 C 430.371094 624.804688 425.808594 624.464844 421.253906 624.011719 C 416.699219 623.558594 412.160156 622.996094 407.632812 622.324219 C 403.105469 621.652344 398.597656 620.871094 394.109375 619.980469 C 389.621094 619.089844 385.15625 618.09375 380.71875 616.988281 C 376.277344 615.882812 371.867188 614.667969 367.484375 613.351562 C 363.101562 612.03125 358.753906 610.605469 354.441406 609.078125 C 350.128906 607.546875 345.855469 605.914062 341.621094 604.179688 C 337.386719 602.445312 333.199219 600.605469 329.050781 598.667969 C 324.90625 596.730469 320.8125 594.691406 316.765625 592.554688 C 312.71875 590.417969 308.726562 588.183594 304.785156 585.855469 C 300.847656 583.527344 296.96875 581.101562 293.144531 578.585938 C 289.324219 576.066406 285.566406 573.460938 281.871094 570.761719 C 278.175781 568.0625 274.546875 565.273438 270.988281 562.398438 C 267.425781 559.527344 263.9375 556.566406 260.519531 553.523438 C 257.101562 550.480469 253.761719 547.355469 250.492188 544.152344 C 247.226562 540.945312 244.039062 537.664062 240.933594 534.304688 C 237.824219 530.945312 234.800781 527.515625 231.859375 524.011719 C 228.917969 520.503906 226.0625 516.929688 223.292969 513.289062 C 220.523438 509.644531 217.84375 505.9375 215.253906 502.164062 C 212.664062 498.390625 210.167969 494.558594 207.761719 490.664062 C 205.359375 486.769531 203.050781 482.820312 200.835938 478.816406 C 198.625 474.808594 196.507812 470.753906 194.492188 466.648438 C 192.472656 462.539062 190.554688 458.386719 188.742188 454.183594 C 186.925781 449.984375 185.210938 445.742188 183.597656 441.460938 C 181.988281 437.175781 180.480469 432.859375 179.078125 428.503906 C 177.675781 424.144531 176.378906 419.757812 175.191406 415.339844 C 174 410.921875 172.917969 406.476562 171.941406 402.007812 C 170.964844 397.535156 170.097656 393.042969 169.339844 388.53125 C 168.582031 384.015625 167.933594 379.488281 167.394531 374.945312 C 166.855469 370.402344 166.425781 365.847656 166.109375 361.28125 C 165.789062 356.714844 165.582031 352.144531 165.484375 347.570312 C 165.40625 342.847656 165.449219 338.128906 165.609375 333.40625 C 165.769531 328.6875 166.046875 323.972656 166.445312 319.265625 C 166.839844 314.558594 167.355469 309.867188 167.984375 305.1875 C 168.617188 300.503906 169.367188 295.84375 170.230469 291.199219 C 171.097656 286.558594 172.078125 281.9375 173.171875 277.34375 C 174.269531 272.75 175.480469 268.1875 176.804688 263.652344 C 178.132812 259.121094 179.570312 254.621094 181.121094 250.160156 C 182.671875 245.699219 184.332031 241.28125 186.105469 236.902344 C 187.875 232.523438 189.757812 228.191406 191.746094 223.910156 C 193.734375 219.625 195.832031 215.394531 198.03125 211.214844 C 200.234375 207.035156 202.535156 202.914062 204.945312 198.851562 C 207.351562 194.789062 209.859375 190.789062 212.46875 186.851562 C 215.078125 182.914062 217.78125 179.042969 220.582031 175.242188 C 223.386719 171.4375 226.28125 167.710938 229.269531 164.050781 C 232.257812 160.394531 235.335938 156.816406 238.503906 153.3125 C 241.675781 149.808594 244.929688 146.386719 248.269531 143.046875 C 251.609375 139.707031 255.027344 136.453125 258.53125 133.285156 C 262.035156 130.117188 265.613281 127.039062 269.269531 124.050781 C 272.929688 121.0625 276.65625 118.167969 280.460938 115.363281 C 284.261719 112.5625 288.132812 109.855469 292.070312 107.25 C 296.007812 104.640625 300.007812 102.132812 304.070312 99.726562 C 308.132812 97.316406 312.253906 95.011719 316.433594 92.8125 C 320.613281 90.609375 324.84375 88.515625 329.128906 86.527344 C 333.414062 84.539062 337.742188 82.65625 342.121094 80.886719 C 346.5 79.113281 350.917969 77.453125 355.378906 75.902344 C 359.839844 74.351562 364.339844 72.914062 368.871094 71.585938 C 373.40625 70.261719 377.96875 69.050781 382.5625 67.953125 C 387.15625 66.859375 391.777344 65.875 396.417969 65.011719 C 401.0625 64.144531 405.722656 63.398438 410.40625 62.765625 C 415.085938 62.136719 419.777344 61.621094 424.484375 61.226562 C 429.191406 60.828125 433.90625 60.550781 438.625 60.390625 C 443.347656 60.230469 448.066406 60.1875 452.789062 60.265625 C 458.800781 60.363281 464.804688 60.65625 470.796875 61.136719 C 476.789062 61.621094 482.757812 62.292969 488.707031 63.15625 C 494.65625 64.019531 500.574219 65.074219 506.457031 66.3125 C 512.339844 67.554688 518.175781 68.980469 523.96875 70.59375 C 529.757812 72.203125 535.492188 74 541.171875 75.976562 C 546.847656 77.957031 552.457031 80.113281 557.996094 82.449219 C 563.535156 84.785156 568.996094 87.292969 574.375 89.976562 C 579.753906 92.660156 585.042969 95.511719 590.242188 98.535156 C 595.4375 101.554688 600.535156 104.738281 605.53125 108.082031 C 610.523438 111.429688 615.410156 114.929688 620.179688 118.585938 C 624.953125 122.242188 629.601562 126.046875 634.132812 130 C 638.660156 133.953125 643.058594 138.046875 647.328125 142.28125 C 651.597656 146.515625 655.726562 150.882812 659.714844 155.378906 C 663.707031 159.875 667.546875 164.496094 671.242188 169.238281 C 674.9375 173.976562 678.480469 178.832031 681.867188 183.800781 C 685.253906 188.769531 688.476562 193.839844 691.539062 199.011719 C 694.601562 204.183594 697.496094 209.449219 700.226562 214.808594 C 702.953125 220.164062 705.503906 225.605469 707.886719 231.125 C 710.265625 236.644531 712.46875 242.234375 714.492188 247.898438 C 716.515625 253.558594 718.359375 259.277344 720.019531 265.054688 C 721.679688 270.835938 723.152344 276.660156 724.441406 282.53125 C 725.730469 288.402344 726.828125 294.3125 727.738281 300.253906 C 728.652344 306.195312 729.375 312.160156 729.90625 318.148438 C 730.4375 324.136719 730.777344 330.136719 730.925781 336.148438 C 731.074219 342.15625 731.03125 348.164062 730.796875 354.171875 C 730.5625 360.179688 730.136719 366.175781 729.523438 372.152344 C 728.90625 378.132812 728.101562 384.089844 727.105469 390.019531 C 726.109375 395.945312 724.925781 401.835938 723.554688 407.691406 C 722.183594 413.542969 720.625 419.347656 718.886719 425.101562 C 717.144531 430.855469 715.222656 436.550781 713.117188 442.179688 C 711.011719 447.8125 708.730469 453.371094 706.273438 458.859375 C 703.816406 464.34375 701.183594 469.746094 698.382812 475.066406 C 697.609375 476.453125 696.984375 477.90625 696.511719 479.421875 C 696.039062 480.941406 695.726562 482.492188 695.570312 484.074219 C 695.417969 485.65625 695.429688 487.234375 695.601562 488.816406 C 695.773438 490.394531 696.109375 491.941406 696.601562 493.453125 L 745.199219 634.472656 C 745.371094 634.859375 745.476562 635.257812 745.523438 635.675781 C 745.570312 636.09375 745.554688 636.507812 745.476562 636.921875 C 745.394531 637.332031 745.257812 637.722656 745.058594 638.09375 C 744.859375 638.464844 744.609375 638.796875 744.308594 639.089844 Z M 744.308594 639.089844 " fill-opacity="1" fill-rule="nonzero"/><path fill="#009688" d="M 586.359375 220.078125 L 310.066406 220.078125 C 309.28125 220.03125 308.492188 220.023438 307.699219 220.058594 C 306.910156 220.089844 306.125 220.164062 305.34375 220.28125 C 304.5625 220.394531 303.789062 220.546875 303.023438 220.738281 C 302.257812 220.933594 301.503906 221.164062 300.757812 221.433594 C 300.015625 221.703125 299.289062 222.011719 298.578125 222.355469 C 297.867188 222.699219 297.175781 223.078125 296.503906 223.492188 C 295.832031 223.90625 295.179688 224.351562 294.554688 224.832031 C 293.925781 225.3125 293.324219 225.824219 292.75 226.367188 C 292.175781 226.910156 291.628906 227.480469 291.113281 228.078125 C 290.597656 228.675781 290.109375 229.296875 289.65625 229.945312 C 289.203125 230.589844 288.785156 231.257812 288.398438 231.949219 C 288.015625 232.636719 287.664062 233.347656 287.351562 234.070312 C 287.039062 234.796875 286.765625 235.535156 286.527344 236.289062 C 286.289062 237.042969 286.089844 237.804688 285.929688 238.582031 C 285.769531 239.355469 285.648438 240.132812 285.570312 240.917969 C 285.488281 241.707031 285.449219 242.492188 285.449219 243.285156 C 285.449219 244.074219 285.488281 244.863281 285.570312 245.648438 C 285.648438 246.433594 285.769531 247.214844 285.929688 247.988281 C 286.089844 248.761719 286.289062 249.523438 286.527344 250.277344 C 286.765625 251.03125 287.039062 251.769531 287.351562 252.496094 C 287.664062 253.222656 288.015625 253.929688 288.398438 254.617188 C 288.785156 255.308594 289.203125 255.976562 289.65625 256.625 C 290.109375 257.269531 290.597656 257.894531 291.113281 258.492188 C 291.628906 259.089844 292.175781 259.65625 292.75 260.199219 C 293.324219 260.742188 293.925781 261.253906 294.554688 261.734375 C 295.179688 262.214844 295.832031 262.660156 296.503906 263.074219 C 297.175781 263.492188 297.867188 263.871094 298.578125 264.214844 C 299.289062 264.558594 300.015625 264.863281 300.757812 265.132812 C 301.503906 265.402344 302.257812 265.632812 303.023438 265.828125 C 303.789062 266.019531 304.5625 266.171875 305.34375 266.289062 C 306.125 266.402344 306.910156 266.476562 307.699219 266.507812 C 308.492188 266.542969 309.28125 266.535156 310.066406 266.488281 L 586.359375 266.488281 C 587.148438 266.535156 587.9375 266.542969 588.726562 266.507812 C 589.515625 266.476562 590.300781 266.402344 591.082031 266.289062 C 591.863281 266.171875 592.636719 266.019531 593.40625 265.828125 C 594.171875 265.632812 594.925781 265.402344 595.667969 265.132812 C 596.410156 264.863281 597.136719 264.558594 597.847656 264.214844 C 598.558594 263.871094 599.25 263.492188 599.925781 263.074219 C 600.597656 262.660156 601.246094 262.214844 601.875 261.734375 C 602.5 261.253906 603.101562 260.742188 603.675781 260.199219 C 604.25 259.65625 604.796875 259.089844 605.3125 258.492188 C 605.832031 257.894531 606.316406 257.269531 606.769531 256.625 C 607.222656 255.976562 607.640625 255.308594 608.027344 254.617188 C 608.414062 253.929688 608.761719 253.222656 609.074219 252.496094 C 609.386719 251.769531 609.664062 251.03125 609.902344 250.277344 C 610.136719 249.523438 610.335938 248.761719 610.496094 247.988281 C 610.65625 247.214844 610.777344 246.433594 610.855469 245.648438 C 610.9375 244.863281 610.976562 244.074219 610.976562 243.285156 C 610.976562 242.492188 610.9375 241.707031 610.855469 240.917969 C 610.777344 240.132812 610.65625 239.355469 610.496094 238.582031 C 610.335938 237.804688 610.136719 237.042969 609.902344 236.289062 C 609.664062 235.535156 609.386719 234.796875 609.074219 234.070312 C 608.761719 233.347656 608.414062 232.636719 608.027344 231.949219 C 607.640625 231.257812 607.222656 230.589844 606.769531 229.945312 C 606.316406 229.296875 605.832031 228.675781 605.3125 228.078125 C 604.796875 227.480469 604.25 226.910156 603.675781 226.367188 C 603.101562 225.824219 602.5 225.3125 601.875 224.832031 C 601.246094 224.351562 600.597656 223.90625 599.925781 223.492188 C 599.25 223.078125 598.558594 222.699219 597.847656 222.355469 C 597.136719 222.011719 596.410156 221.703125 595.667969 221.433594 C 594.925781 221.164062 594.171875 220.933594 593.40625 220.738281 C 592.636719 220.546875 591.863281 220.394531 591.082031 220.28125 C 590.300781 220.164062 589.515625 220.089844 588.726562 220.058594 C 587.9375 220.023438 587.148438 220.03125 586.359375 220.078125 Z M 586.359375 220.078125 " fill-opacity="1" fill-rule="nonzero"/><path fill="#009688" d="M 586.359375 315.898438 L 310.066406 315.898438 C 309.308594 315.898438 308.550781 315.9375 307.796875 316.011719 C 307.042969 316.085938 306.292969 316.195312 305.546875 316.34375 C 304.804688 316.492188 304.070312 316.675781 303.34375 316.898438 C 302.617188 317.117188 301.902344 317.371094 301.203125 317.664062 C 300.5 317.953125 299.816406 318.277344 299.148438 318.636719 C 298.476562 318.992188 297.828125 319.382812 297.199219 319.804688 C 296.566406 320.226562 295.957031 320.675781 295.371094 321.160156 C 294.785156 321.640625 294.222656 322.148438 293.6875 322.683594 C 293.152344 323.222656 292.640625 323.78125 292.160156 324.371094 C 291.679688 324.957031 291.226562 325.566406 290.804688 326.195312 C 290.382812 326.828125 289.996094 327.476562 289.636719 328.144531 C 289.28125 328.816406 288.957031 329.5 288.664062 330.199219 C 288.375 330.902344 288.121094 331.613281 287.898438 332.339844 C 287.679688 333.066406 287.496094 333.800781 287.347656 334.546875 C 287.199219 335.289062 287.089844 336.039062 287.011719 336.796875 C 286.9375 337.550781 286.902344 338.308594 286.902344 339.066406 C 286.902344 339.824219 286.9375 340.582031 287.011719 341.335938 C 287.089844 342.089844 287.199219 342.839844 287.347656 343.585938 C 287.496094 344.328125 287.679688 345.066406 287.898438 345.789062 C 288.121094 346.515625 288.375 347.230469 288.664062 347.929688 C 288.957031 348.632812 289.28125 349.316406 289.636719 349.984375 C 289.996094 350.65625 290.382812 351.304688 290.804688 351.9375 C 291.226562 352.566406 291.679688 353.175781 292.160156 353.761719 C 292.640625 354.347656 293.152344 354.910156 293.6875 355.445312 C 294.222656 355.984375 294.785156 356.492188 295.371094 356.972656 C 295.957031 357.453125 296.566406 357.90625 297.199219 358.328125 C 297.828125 358.75 298.476562 359.140625 299.148438 359.496094 C 299.816406 359.855469 300.5 360.179688 301.203125 360.46875 C 301.902344 360.757812 302.617188 361.015625 303.34375 361.234375 C 304.070312 361.453125 304.804688 361.640625 305.546875 361.785156 C 306.292969 361.933594 307.042969 362.046875 307.796875 362.121094 C 308.550781 362.195312 309.308594 362.230469 310.066406 362.230469 L 586.359375 362.230469 C 587.117188 362.230469 587.875 362.195312 588.628906 362.121094 C 589.382812 362.046875 590.132812 361.933594 590.878906 361.785156 C 591.621094 361.640625 592.359375 361.453125 593.082031 361.234375 C 593.808594 361.015625 594.523438 360.757812 595.222656 360.46875 C 595.925781 360.179688 596.609375 359.855469 597.277344 359.496094 C 597.949219 359.140625 598.597656 358.75 599.230469 358.328125 C 599.859375 357.90625 600.46875 357.453125 601.054688 356.972656 C 601.640625 356.492188 602.203125 355.984375 602.738281 355.445312 C 603.277344 354.910156 603.785156 354.347656 604.265625 353.761719 C 604.746094 353.175781 605.199219 352.566406 605.621094 351.9375 C 606.042969 351.304688 606.433594 350.65625 606.789062 349.984375 C 607.148438 349.316406 607.472656 348.632812 607.761719 347.929688 C 608.050781 347.230469 608.308594 346.515625 608.527344 345.789062 C 608.746094 345.066406 608.933594 344.328125 609.078125 343.585938 C 609.226562 342.839844 609.339844 342.089844 609.414062 341.335938 C 609.488281 340.582031 609.523438 339.824219 609.523438 339.066406 C 609.523438 338.308594 609.488281 337.550781 609.414062 336.796875 C 609.339844 336.039062 609.226562 335.289062 609.078125 334.546875 C 608.933594 333.800781 608.746094 333.066406 608.527344 332.339844 C 608.308594 331.613281 608.050781 330.902344 607.761719 330.199219 C 607.472656 329.5 607.148438 328.816406 606.789062 328.144531 C 606.433594 327.476562 606.042969 326.828125 605.621094 326.195312 C 605.199219 325.566406 604.746094 324.957031 604.265625 324.371094 C 603.785156 323.78125 603.277344 323.222656 602.738281 322.683594 C 602.203125 322.148438 601.640625 321.640625 601.054688 321.160156 C 600.46875 320.675781 599.859375 320.226562 599.230469 319.804688 C 598.597656 319.382812 597.949219 318.992188 597.277344 318.636719 C 596.609375 318.277344 595.925781 317.953125 595.222656 317.664062 C 594.523438 317.371094 593.808594 317.117188 593.082031 316.898438 C 592.359375 316.675781 591.621094 316.492188 590.878906 316.34375 C 590.132812 316.195312 589.382812 316.085938 588.628906 316.011719 C 587.875 315.9375 587.117188 315.898438 586.359375 315.898438 Z M 586.359375 315.898438 " fill-opacity="1" fill-rule="nonzero"/><path fill="#009688" d="M 480.007812 410.832031 L 309.90625 410.832031 C 309.117188 410.785156 308.328125 410.777344 307.539062 410.8125 C 306.75 410.847656 305.964844 410.921875 305.183594 411.035156 C 304.402344 411.148438 303.625 411.300781 302.859375 411.496094 C 302.09375 411.6875 301.339844 411.917969 300.597656 412.1875 C 299.855469 412.457031 299.128906 412.765625 298.417969 413.109375 C 297.707031 413.453125 297.011719 413.832031 296.339844 414.246094 C 295.667969 414.660156 295.019531 415.109375 294.390625 415.589844 C 293.765625 416.070312 293.164062 416.582031 292.589844 417.121094 C 292.015625 417.664062 291.46875 418.234375 290.953125 418.832031 C 290.433594 419.429688 289.949219 420.050781 289.496094 420.699219 C 289.042969 421.34375 288.625 422.015625 288.238281 422.703125 C 287.851562 423.394531 287.503906 424.101562 287.191406 424.828125 C 286.878906 425.550781 286.601562 426.292969 286.363281 427.042969 C 286.128906 427.796875 285.929688 428.5625 285.769531 429.335938 C 285.609375 430.109375 285.488281 430.886719 285.40625 431.675781 C 285.328125 432.460938 285.289062 433.25 285.289062 434.039062 C 285.289062 434.828125 285.328125 435.617188 285.40625 436.402344 C 285.488281 437.1875 285.609375 437.96875 285.769531 438.742188 C 285.929688 439.515625 286.128906 440.277344 286.363281 441.03125 C 286.601562 441.785156 286.878906 442.523438 287.191406 443.25 C 287.503906 443.976562 287.851562 444.683594 288.238281 445.375 C 288.625 446.0625 289.042969 446.730469 289.496094 447.378906 C 289.949219 448.027344 290.433594 448.648438 290.953125 449.246094 C 291.46875 449.84375 292.015625 450.414062 292.589844 450.953125 C 293.164062 451.496094 293.765625 452.007812 294.390625 452.488281 C 295.019531 452.96875 295.667969 453.417969 296.339844 453.832031 C 297.011719 454.246094 297.707031 454.625 298.417969 454.96875 C 299.128906 455.3125 299.855469 455.617188 300.597656 455.886719 C 301.339844 456.160156 302.09375 456.390625 302.859375 456.582031 C 303.625 456.773438 304.402344 456.929688 305.183594 457.042969 C 305.964844 457.15625 306.75 457.230469 307.539062 457.265625 C 308.328125 457.296875 309.117188 457.292969 309.90625 457.246094 L 480.007812 457.246094 C 480.738281 457.203125 481.464844 457.125 482.1875 457.011719 C 482.914062 456.898438 483.628906 456.753906 484.339844 456.574219 C 485.050781 456.394531 485.75 456.179688 486.441406 455.933594 C 487.132812 455.6875 487.808594 455.410156 488.472656 455.101562 C 489.136719 454.792969 489.785156 454.449219 490.414062 454.078125 C 491.046875 453.707031 491.660156 453.308594 492.253906 452.878906 C 492.847656 452.449219 493.421875 451.992188 493.972656 451.507812 C 494.519531 451.027344 495.046875 450.515625 495.550781 449.984375 C 496.054688 449.453125 496.53125 448.894531 496.980469 448.316406 C 497.429688 447.738281 497.851562 447.140625 498.246094 446.523438 C 498.636719 445.90625 499 445.269531 499.335938 444.617188 C 499.667969 443.964844 499.96875 443.296875 500.242188 442.617188 C 500.511719 441.9375 500.75 441.242188 500.953125 440.539062 C 501.160156 439.835938 501.332031 439.125 501.46875 438.40625 C 501.605469 437.6875 501.707031 436.960938 501.777344 436.230469 C 501.847656 435.503906 501.882812 434.769531 501.882812 434.039062 C 501.882812 433.304688 501.847656 432.574219 501.777344 431.84375 C 501.707031 431.117188 501.605469 430.390625 501.46875 429.671875 C 501.332031 428.953125 501.160156 428.242188 500.953125 427.535156 C 500.75 426.832031 500.511719 426.140625 500.242188 425.460938 C 499.96875 424.777344 499.667969 424.113281 499.335938 423.460938 C 499 422.808594 498.636719 422.171875 498.246094 421.554688 C 497.851562 420.9375 497.429688 420.335938 496.980469 419.757812 C 496.53125 419.179688 496.054688 418.625 495.550781 418.09375 C 495.046875 417.558594 494.519531 417.050781 493.972656 416.566406 C 493.421875 416.085938 492.847656 415.628906 492.253906 415.199219 C 491.660156 414.769531 491.046875 414.371094 490.414062 413.996094 C 489.785156 413.625 489.136719 413.285156 488.472656 412.976562 C 487.808594 412.664062 487.132812 412.386719 486.441406 412.140625 C 485.75 411.894531 485.050781 411.683594 484.339844 411.503906 C 483.628906 411.324219 482.914062 411.175781 482.1875 411.066406 C 481.464844 410.953125 480.738281 410.875 480.007812 410.832031 Z M 480.007812 410.832031 " fill-opacity="1" fill-rule="nonzero"/></svg>