<svg xmlns="http://www.w3.org/2000/svg" xmlns:xlink="http://www.w3.org/1999/xlink" width="1080" zoomAndPan="magnify" viewBox="0 0 810 809.999993" height="1080" preserveAspectRatio="xMidYMid meet" version="1.0"><path fill="#162b4d" d="M 427.679688 635.851562 L 427.679688 692.550781 C 427.679688 700.648438 434.160156 706.320312 441.449219 706.320312 L 582.390625 706.320312 C 590.488281 706.320312 596.160156 699.839844 596.160156 692.550781 L 596.160156 635.851562 C 596.160156 627.75 589.679688 622.078125 582.390625 622.078125 L 441.449219 622.078125 C 434.160156 621.269531 427.679688 627.75 427.679688 635.851562 Z M 456.03125 649.621094 L 568.621094 649.621094 L 568.621094 677.96875 L 456.03125 677.96875 Z M 456.03125 649.621094 " fill-opacity="1" fill-rule="nonzero"/><path fill="#162b4d" d="M 706.320312 12.960938 L 97.199219 12.960938 C 51.03125 12.960938 12.960938 51.03125 12.960938 97.199219 L 12.960938 705.511719 C 12.960938 752.488281 51.03125 789.75 97.199219 789.75 L 705.511719 789.75 C 752.488281 789.75 789.75 751.679688 789.75 705.511719 L 789.75 97.199219 C 790.558594 51.03125 752.488281 12.960938 706.320312 12.960938 Z M 756.539062 706.320312 C 756.539062 734.671875 733.859375 757.351562 705.511719 757.351562 L 97.199219 757.351562 C 68.851562 757.351562 46.171875 734.671875 46.171875 706.320312 L 46.171875 182.25 L 756.539062 182.25 Z M 756.539062 148.230469 L 46.980469 148.230469 L 46.980469 97.199219 C 46.980469 68.851562 69.660156 46.171875 98.011719 46.171875 L 706.320312 46.171875 C 734.671875 46.171875 757.351562 68.851562 757.351562 97.199219 L 757.351562 148.230469 Z M 756.539062 148.230469 " fill-opacity="1" fill-rule="nonzero"/><path fill="#162b4d" d="M 97.199219 80.191406 C 87.480469 80.191406 80.191406 87.480469 80.191406 97.199219 C 80.191406 106.921875 87.480469 114.210938 97.199219 114.210938 C 106.921875 114.210938 114.210938 106.921875 114.210938 97.199219 C 114.210938 87.480469 106.921875 80.191406 97.199219 80.191406 Z M 97.199219 80.191406 " fill-opacity="1" fill-rule="nonzero"/><path fill="#162b4d" d="M 244.621094 706.320312 L 385.558594 706.320312 C 393.660156 706.320312 399.328125 699.839844 399.328125 692.550781 L 399.328125 635.851562 C 399.328125 627.75 392.851562 622.078125 385.558594 622.078125 L 244.621094 622.078125 C 236.519531 622.078125 230.851562 628.558594 230.851562 635.851562 L 230.851562 692.550781 C 230.851562 699.839844 236.519531 706.320312 244.621094 706.320312 Z M 258.390625 649.621094 L 370.980469 649.621094 L 370.980469 677.96875 L 258.390625 677.96875 Z M 258.390625 649.621094 " fill-opacity="1" fill-rule="nonzero"/><path fill="#162b4d" d="M 232.46875 80.191406 C 222.75 80.191406 215.460938 87.480469 215.460938 97.199219 C 215.460938 106.921875 222.75 114.210938 232.46875 114.210938 C 242.191406 114.210938 249.480469 106.921875 249.480469 97.199219 C 249.480469 87.480469 242.191406 80.191406 232.46875 80.191406 Z M 232.46875 80.191406 " fill-opacity="1" fill-rule="nonzero"/><path fill="#162b4d" d="M 165.238281 80.191406 C 155.519531 80.191406 148.230469 87.480469 148.230469 97.199219 C 148.230469 106.921875 155.519531 114.210938 165.238281 114.210938 C 174.960938 114.210938 182.25 106.921875 182.25 97.199219 C 182.25 87.480469 174.148438 80.191406 165.238281 80.191406 Z M 165.238281 80.191406 " fill-opacity="1" fill-rule="nonzero"/><path fill="#009688" d="M 304.558594 506.25 C 304.558594 506.25 305.371094 507.058594 305.371094 507.058594 C 311.039062 512.730469 317.519531 518.398438 324.808594 523.261719 C 325.621094 524.070312 326.429688 524.070312 327.238281 524.878906 C 333.71875 528.929688 341.011719 532.980469 348.300781 536.21875 C 349.109375 536.21875 349.921875 537.03125 350.730469 537.03125 C 358.019531 540.269531 366.121094 542.699219 374.21875 544.320312 C 375.03125 544.320312 375.03125 544.320312 375.839844 544.320312 C 383.941406 545.941406 392.851562 546.75 401.761719 546.75 C 410.671875 546.75 419.578125 545.941406 427.679688 544.320312 C 428.488281 544.320312 428.488281 544.320312 429.300781 544.320312 C 437.398438 542.699219 444.691406 540.269531 452.789062 537.03125 C 453.601562 537.03125 454.410156 536.21875 455.21875 536.21875 C 462.511719 532.980469 469.800781 528.929688 476.28125 524.878906 C 477.089844 524.070312 477.898438 524.070312 478.710938 523.261719 C 486 518.398438 492.480469 513.539062 498.148438 507.058594 C 498.148438 507.058594 498.960938 506.25 498.960938 506.25 C 524.070312 481.140625 539.460938 447.121094 539.460938 409.050781 C 539.460938 333.71875 477.898438 272.160156 402.570312 272.160156 C 327.238281 272.160156 265.679688 333.71875 265.679688 409.050781 C 264.058594 447.121094 279.449219 481.949219 304.558594 506.25 Z M 468.988281 498.960938 C 466.558594 500.578125 464.128906 503.011719 460.890625 504.628906 C 458.460938 506.25 456.03125 507.058594 453.601562 508.679688 C 421.199219 525.691406 381.511719 525.691406 349.109375 508.679688 C 346.679688 507.058594 344.25 506.25 341.820312 504.628906 C 339.390625 503.011719 336.148438 500.578125 333.71875 498.960938 C 332.101562 497.339844 329.671875 495.71875 328.050781 494.101562 C 341.011719 465.75 369.359375 447.121094 400.949219 447.121094 C 432.539062 447.121094 460.890625 465.75 473.851562 494.101562 C 473.039062 495.71875 470.609375 497.339844 468.988281 498.960938 Z M 363.691406 384.75 C 363.691406 364.5 380.699219 347.488281 400.949219 347.488281 C 421.199219 347.488281 438.210938 364.5 438.210938 384.75 C 438.210938 405 421.199219 422.011719 400.949219 422.011719 C 380.699219 422.011719 363.691406 405 363.691406 384.75 Z M 401.761719 297.269531 C 463.320312 297.269531 514.351562 347.488281 514.351562 409.859375 C 514.351562 434.160156 506.25 456.839844 493.289062 474.660156 C 481.949219 455.21875 464.128906 439.828125 443.878906 430.921875 C 456.839844 419.578125 464.941406 403.378906 464.941406 384.75 C 464.941406 350.730469 436.589844 322.378906 402.570312 322.378906 C 368.550781 322.378906 340.199219 350.730469 340.199219 384.75 C 340.199219 403.378906 348.300781 419.578125 361.261719 430.921875 C 341.011719 439.828125 323.191406 455.21875 311.851562 474.660156 C 298.890625 456.03125 290.789062 434.160156 290.789062 409.859375 C 289.171875 347.488281 339.390625 297.269531 401.761719 297.269531 Z M 401.761719 297.269531 " fill-opacity="1" fill-rule="nonzero"/></svg>