<svg xmlns="http://www.w3.org/2000/svg" xmlns:xlink="http://www.w3.org/1999/xlink" width="1080" zoomAndPan="magnify" viewBox="0 0 810 809.999993" height="1080" preserveAspectRatio="xMidYMid meet" version="1.0"><path fill="#162b4d" d="M 737.101562 284.308594 L 518.398438 284.308594 C 519.210938 277.019531 519.210938 268.921875 519.210938 260.820312 C 519.210938 119.878906 404.191406 4.859375 263.25 4.859375 C 217.890625 4.859375 174.148438 17.011719 135.269531 38.878906 C 127.980469 42.929688 125.550781 52.648438 129.601562 59.941406 C 133.648438 67.230469 143.371094 69.660156 150.660156 65.609375 C 184.679688 46.171875 223.558594 35.640625 263.25 35.640625 C 387.179688 35.640625 488.429688 136.890625 488.429688 260.820312 C 488.429688 384.75 387.179688 486 263.25 486 C 211.410156 486 162.808594 468.988281 122.308594 436.589844 C 118.261719 433.351562 112.589844 432.539062 107.730469 434.160156 L 66.421875 444.691406 L 82.621094 409.050781 C 85.050781 404.191406 84.238281 397.710938 81 393.660156 C 52.648438 354.78125 38.070312 309.421875 38.070312 261.628906 C 38.070312 221.941406 48.601562 183.058594 68.039062 149.039062 C 72.089844 141.75 69.660156 132.03125 62.371094 127.980469 C 55.078125 123.929688 45.359375 126.359375 41.308594 133.648438 C 18.628906 172.53125 7.289062 217.078125 7.289062 261.628906 C 7.289062 313.46875 22.679688 362.070312 51.03125 405 L 25.109375 461.699219 C 22.679688 467.371094 23.488281 473.851562 27.539062 477.898438 C 31.589844 482.761719 37.261719 484.378906 43.738281 482.761719 L 109.351562 465.75 C 153.898438 498.960938 208.171875 517.589844 264.058594 517.589844 C 276.210938 517.589844 288.359375 516.78125 299.699219 515.160156 L 299.699219 651.238281 C 299.699219 686.878906 328.859375 716.039062 364.5 716.039062 L 584.011719 716.039062 L 682.019531 796.230469 C 684.449219 798.660156 688.5 799.46875 691.738281 799.46875 C 694.171875 799.46875 696.601562 798.660156 698.21875 797.851562 C 703.890625 795.421875 707.128906 789.75 707.128906 784.078125 L 707.128906 716.039062 L 737.101562 716.039062 C 772.738281 716.039062 801.898438 686.878906 801.898438 651.238281 L 801.898438 349.109375 C 801.898438 313.46875 772.738281 284.308594 737.101562 284.308594 Z M 771.121094 650.429688 C 771.121094 669.058594 755.730469 684.449219 737.101562 684.449219 L 691.738281 684.449219 C 682.828125 684.449219 676.351562 691.738281 676.351562 699.839844 L 676.351562 750.871094 L 599.398438 688.5 C 595.351562 684.449219 591.300781 684.449219 583.199219 684.449219 L 364.5 684.449219 C 345.871094 684.449219 330.480469 669.058594 330.480469 650.429688 L 330.480469 507.871094 C 422.011719 482.761719 494.101562 408.238281 514.351562 315.089844 L 737.101562 315.089844 C 755.730469 315.089844 771.121094 330.480469 771.121094 349.109375 Z M 771.121094 650.429688 " fill-opacity="1" fill-rule="nonzero"/><path fill="#009688" d="M 627.75 545.941406 C 632.609375 543.511719 636.660156 537.839844 636.660156 532.171875 C 636.660156 523.261719 629.371094 516.78125 621.269531 516.78125 L 614.789062 516.78125 L 564.570312 402.570312 C 562.140625 396.898438 556.46875 393.660156 549.988281 393.660156 C 543.511719 393.660156 538.648438 396.898438 535.410156 402.570312 L 486 515.96875 L 479.519531 515.96875 C 470.609375 515.96875 464.128906 523.261719 464.128906 531.359375 C 464.128906 537.839844 468.179688 542.699219 473.039062 545.128906 L 454.410156 587.25 C 451.171875 595.351562 454.410156 604.261719 462.511719 607.5 C 470.609375 610.738281 479.519531 607.5 482.761719 599.398438 L 506.25 545.941406 L 594.539062 545.941406 L 618.03125 599.398438 C 620.460938 605.070312 626.128906 608.308594 632.609375 608.308594 C 635.039062 608.308594 636.660156 607.5 639.089844 606.691406 C 647.191406 603.449219 650.429688 593.730469 647.191406 586.441406 Z M 520.019531 515.96875 L 549.988281 447.121094 L 579.960938 515.96875 Z M 520.019531 515.96875 " fill-opacity="1" fill-rule="nonzero"/><path fill="#162b4d" d="M 93.148438 106.109375 C 97.199219 106.109375 101.25 104.488281 104.488281 101.25 C 107.730469 98.011719 109.351562 93.960938 109.351562 89.910156 C 109.351562 85.859375 107.730469 81.808594 104.488281 78.570312 C 101.25 75.328125 97.199219 73.710938 93.148438 73.710938 C 89.101562 73.710938 85.050781 75.328125 81.808594 78.570312 C 78.570312 81.808594 76.949219 85.859375 76.949219 89.910156 C 76.949219 93.960938 78.570312 98.011719 81.808594 101.25 C 85.050781 104.488281 89.101562 106.109375 93.148438 106.109375 Z M 93.148438 106.109375 " fill-opacity="1" fill-rule="nonzero"/><path fill="#009688" d="M 170.910156 355.589844 C 163.621094 359.640625 160.378906 369.359375 164.429688 376.648438 C 166.859375 381.511719 172.53125 384.75 178.199219 384.75 C 180.628906 384.75 183.058594 383.941406 185.488281 383.128906 C 220.320312 364.5 247.050781 334.53125 262.441406 299.699219 C 277.828125 334.53125 304.558594 363.691406 339.390625 383.128906 C 341.820312 384.75 344.25 384.75 346.679688 384.75 C 352.351562 384.75 357.210938 381.511719 360.449219 376.648438 C 364.5 369.359375 362.070312 359.640625 353.96875 355.589844 C 313.46875 333.71875 285.929688 294.03125 279.449219 248.671875 L 348.300781 248.671875 C 357.210938 248.671875 363.691406 241.378906 363.691406 233.28125 C 363.691406 225.179688 356.398438 217.890625 348.300781 217.890625 L 277.828125 217.890625 L 277.828125 153.089844 C 277.828125 144.179688 270.539062 137.699219 262.441406 137.699219 C 253.53125 137.699219 247.050781 144.988281 247.050781 153.089844 L 247.050781 217.890625 L 191.160156 217.890625 C 182.25 217.890625 175.769531 225.179688 175.769531 233.28125 C 175.769531 241.378906 183.058594 248.671875 191.160156 248.671875 L 245.429688 248.671875 C 238.140625 293.21875 211.410156 332.910156 170.910156 355.589844 Z M 170.910156 355.589844 " fill-opacity="1" fill-rule="nonzero"/></svg>