<svg xmlns="http://www.w3.org/2000/svg" xmlns:xlink="http://www.w3.org/1999/xlink" width="1080" zoomAndPan="magnify" viewBox="0 0 810 809.999993" height="1080" preserveAspectRatio="xMidYMid meet" version="1.0"><path fill="#162b4d" d="M 641.519531 203.308594 C 635.039062 203.308594 630.179688 208.171875 630.179688 214.648438 L 630.179688 724.949219 C 630.179688 725.761719 630.179688 725.761719 629.371094 725.761719 L 228.421875 725.761719 C 221.941406 725.761719 217.078125 730.621094 217.078125 737.101562 C 217.078125 743.578125 221.941406 748.441406 228.421875 748.441406 L 629.371094 748.441406 C 642.328125 748.441406 652.859375 737.910156 652.859375 724.949219 L 652.859375 214.648438 C 652.859375 208.171875 648 203.308594 641.519531 203.308594 Z M 641.519531 203.308594 " fill-opacity="1" fill-rule="nonzero"/><path fill="#162b4d" d="M 677.96875 69.660156 L 573.480469 69.660156 L 535.410156 31.589844 C 528.929688 25.109375 520.019531 21.058594 510.300781 21.058594 L 119.070312 21.058594 C 106.109375 21.058594 95.578125 31.589844 95.578125 44.550781 L 95.578125 724.949219 C 95.578125 737.910156 106.109375 748.441406 119.070312 748.441406 L 144.179688 748.441406 L 144.179688 773.550781 C 144.179688 786.511719 154.710938 797.039062 167.671875 797.039062 L 677.96875 797.039062 C 690.929688 797.039062 701.460938 786.511719 701.460938 773.550781 L 701.460938 93.148438 C 701.460938 80.191406 690.929688 69.660156 677.96875 69.660156 Z M 519.210938 46.980469 L 626.128906 153.898438 L 520.019531 153.898438 C 519.210938 153.898438 519.210938 153.898438 519.210938 153.089844 Z M 678.78125 773.550781 C 678.78125 773.550781 677.96875 774.359375 678.78125 773.550781 L 167.671875 774.359375 C 166.859375 774.359375 166.859375 774.359375 166.859375 773.550781 L 166.859375 748.441406 L 179.820312 748.441406 C 186.300781 748.441406 191.160156 743.578125 191.160156 737.101562 C 191.160156 730.621094 186.300781 725.761719 179.820312 725.761719 L 119.070312 725.761719 C 118.261719 725.761719 118.261719 725.761719 118.261719 724.949219 L 118.261719 44.550781 C 118.261719 43.738281 118.261719 43.738281 119.070312 43.738281 L 496.53125 43.738281 L 496.53125 153.898438 C 496.53125 166.859375 507.058594 177.390625 520.019531 177.390625 L 641.519531 177.390625 C 648 177.390625 652.859375 172.53125 652.859375 166.050781 L 652.859375 163.621094 C 652.859375 153.898438 648.808594 144.988281 642.328125 138.511719 L 596.160156 92.339844 L 677.96875 92.339844 C 678.78125 92.339844 678.78125 92.339844 678.78125 93.148438 Z M 678.78125 773.550781 " fill-opacity="1" fill-rule="nonzero"/><path fill="#009688" d="M 321.570312 150.660156 C 317.519531 146.609375 310.230469 146.609375 305.371094 150.660156 L 241.378906 214.648438 C 241.378906 214.648438 240.570312 214.648438 240.570312 214.648438 L 214.648438 188.730469 L 234.089844 188.730469 C 240.570312 188.730469 245.429688 183.871094 245.429688 177.390625 C 245.429688 170.910156 240.570312 166.050781 234.089844 166.050781 L 204.121094 166.050781 C 200.878906 166.050781 196.828125 166.859375 193.589844 168.480469 L 187.109375 162 C 183.058594 157.949219 175.769531 157.949219 170.910156 162 C 166.859375 166.050781 166.859375 173.339844 170.910156 178.199219 L 179.820312 187.109375 C 179.820312 187.921875 179.820312 188.730469 179.820312 189.539062 L 179.820312 262.441406 C 179.820312 275.398438 190.351562 285.929688 203.308594 285.929688 L 276.210938 285.929688 C 289.171875 285.929688 299.699219 275.398438 299.699219 262.441406 L 299.699219 187.109375 L 320.761719 166.050781 C 325.621094 162 325.621094 154.710938 321.570312 150.660156 Z M 277.828125 263.25 C 277.828125 263.25 277.019531 264.058594 277.828125 263.25 L 204.121094 264.058594 C 203.308594 264.058594 203.308594 264.058594 203.308594 263.25 L 203.308594 210.601562 L 223.558594 230.851562 C 228.421875 235.710938 234.089844 237.328125 240.570312 237.328125 C 246.238281 237.328125 252.71875 234.898438 257.578125 230.851562 L 277.828125 210.601562 Z M 277.828125 263.25 " fill-opacity="1" fill-rule="nonzero"/><path fill="#009688" d="M 277.019531 324.808594 L 204.121094 324.808594 C 191.160156 324.808594 180.628906 335.339844 180.628906 348.300781 L 180.628906 421.199219 C 180.628906 434.160156 191.160156 444.691406 204.121094 444.691406 L 277.019531 444.691406 C 289.980469 444.691406 300.511719 434.160156 300.511719 421.199219 L 300.511719 348.300781 C 300.511719 335.339844 289.980469 324.808594 277.019531 324.808594 Z M 277.828125 421.199219 C 277.828125 421.199219 277.019531 422.011719 277.828125 421.199219 L 204.121094 422.011719 C 203.308594 422.011719 203.308594 422.011719 203.308594 421.199219 L 203.308594 348.300781 C 203.308594 347.488281 203.308594 347.488281 204.121094 347.488281 L 277.019531 347.488281 C 277.828125 347.488281 277.828125 347.488281 277.828125 348.300781 Z M 277.828125 421.199219 " fill-opacity="1" fill-rule="nonzero"/><path fill="#162b4d" d="M 277.019531 482.761719 L 204.121094 482.761719 C 191.160156 482.761719 180.628906 493.289062 180.628906 506.25 L 180.628906 579.148438 C 180.628906 592.109375 191.160156 602.640625 204.121094 602.640625 L 277.019531 602.640625 C 289.980469 602.640625 300.511719 592.109375 300.511719 579.148438 L 300.511719 506.25 C 300.511719 493.289062 289.980469 482.761719 277.019531 482.761719 Z M 277.828125 579.148438 C 277.828125 579.148438 277.019531 579.960938 277.828125 579.148438 L 204.121094 579.960938 C 203.308594 579.960938 203.308594 579.960938 203.308594 579.148438 L 203.308594 506.25 C 203.308594 505.441406 203.308594 505.441406 204.121094 505.441406 L 277.019531 505.441406 C 277.828125 505.441406 277.828125 505.441406 277.828125 506.25 Z M 277.828125 579.148438 " fill-opacity="1" fill-rule="nonzero"/><path fill="#162b4d" d="M 459.269531 191.160156 L 349.921875 191.160156 C 343.441406 191.160156 338.578125 196.019531 338.578125 202.5 C 338.578125 208.980469 343.441406 213.839844 349.921875 213.839844 L 459.269531 213.839844 C 465.75 213.839844 470.609375 208.980469 470.609375 202.5 C 470.609375 196.019531 465.75 191.160156 459.269531 191.160156 Z M 459.269531 191.160156 " fill-opacity="1" fill-rule="nonzero"/><path fill="#162b4d" d="M 556.46875 239.761719 L 349.921875 239.761719 C 343.441406 239.761719 338.578125 244.621094 338.578125 251.101562 C 338.578125 257.578125 343.441406 262.441406 349.921875 262.441406 L 556.46875 262.441406 C 562.949219 262.441406 567.808594 257.578125 567.808594 251.101562 C 567.808594 244.621094 562.949219 239.761719 556.46875 239.761719 Z M 556.46875 239.761719 " fill-opacity="1" fill-rule="nonzero"/><path fill="#162b4d" d="M 459.269531 349.109375 L 349.921875 349.109375 C 343.441406 349.109375 338.578125 353.96875 338.578125 360.449219 C 338.578125 366.929688 343.441406 371.789062 349.921875 371.789062 L 459.269531 371.789062 C 465.75 371.789062 470.609375 366.929688 470.609375 360.449219 C 470.609375 353.96875 465.75 349.109375 459.269531 349.109375 Z M 459.269531 349.109375 " fill-opacity="1" fill-rule="nonzero"/><path fill="#162b4d" d="M 556.46875 397.710938 L 349.921875 397.710938 C 343.441406 397.710938 338.578125 402.570312 338.578125 409.050781 C 338.578125 415.53125 343.441406 420.390625 349.921875 420.390625 L 556.46875 420.390625 C 562.949219 420.390625 567.808594 415.53125 567.808594 409.050781 C 567.808594 402.570312 562.949219 397.710938 556.46875 397.710938 Z M 556.46875 397.710938 " fill-opacity="1" fill-rule="nonzero"/><path fill="#162b4d" d="M 459.269531 507.058594 L 349.921875 507.058594 C 343.441406 507.058594 338.578125 511.921875 338.578125 518.398438 C 338.578125 524.878906 343.441406 529.738281 349.921875 529.738281 L 459.269531 529.738281 C 465.75 529.738281 470.609375 524.878906 470.609375 518.398438 C 470.609375 511.921875 465.75 507.058594 459.269531 507.058594 Z M 459.269531 507.058594 " fill-opacity="1" fill-rule="nonzero"/><path fill="#162b4d" d="M 556.46875 555.660156 L 349.921875 555.660156 C 343.441406 555.660156 338.578125 560.519531 338.578125 567 C 338.578125 573.480469 343.441406 578.339844 349.921875 578.339844 L 556.46875 578.339844 C 562.949219 578.339844 567.808594 573.480469 567.808594 567 C 567.808594 560.519531 562.949219 555.660156 556.46875 555.660156 Z M 556.46875 555.660156 " fill-opacity="1" fill-rule="nonzero"/></svg>