<svg xmlns="http://www.w3.org/2000/svg" xmlns:xlink="http://www.w3.org/1999/xlink" width="1080" zoomAndPan="magnify" viewBox="0 0 810 809.999993" height="1080" preserveAspectRatio="xMidYMid meet" version="1.0"><path fill="#009688" d="M 526.5 260.011719 C 524.878906 254.339844 520.019531 250.289062 514.351562 249.480469 L 447.929688 239.761719 L 417.960938 179.011719 C 415.53125 174.148438 409.859375 170.101562 404.191406 170.101562 C 398.519531 170.101562 392.851562 173.339844 390.421875 179.011719 L 360.449219 239.761719 L 294.03125 249.480469 C 288.359375 250.289062 283.5 254.339844 281.878906 260.011719 C 280.261719 265.679688 281.878906 271.351562 285.929688 275.398438 L 334.53125 322.378906 L 323.191406 388.800781 C 322.378906 394.46875 324.808594 400.140625 329.671875 404.191406 C 332.101562 405.808594 335.339844 407.429688 338.578125 407.429688 C 341.011719 407.429688 343.441406 406.621094 345.871094 405.808594 L 405.808594 374.21875 L 465.75 405.808594 C 470.609375 408.238281 477.089844 408.238281 481.949219 405 C 486.808594 401.761719 489.238281 396.089844 488.429688 389.609375 L 477.089844 323.191406 L 525.691406 276.210938 C 527.308594 271.351562 528.929688 265.679688 526.5 260.011719 Z M 447.121094 306.179688 C 443.878906 309.421875 442.261719 315.089844 443.070312 319.949219 L 450.359375 363.691406 L 410.671875 342.628906 C 405.808594 340.199219 400.949219 340.199219 396.089844 342.628906 L 356.398438 363.691406 L 363.691406 319.949219 C 364.5 315.089844 362.878906 310.230469 359.640625 306.179688 L 328.859375 275.398438 L 372.601562 268.921875 C 377.460938 268.109375 381.511719 264.871094 383.941406 260.820312 L 403.378906 221.128906 L 422.820312 260.820312 C 425.25 265.679688 429.300781 268.109375 434.160156 268.921875 L 477.898438 275.398438 Z M 447.121094 306.179688 " fill-opacity="1" fill-rule="nonzero"/><path fill="#162b4d" d="M 749.25 687.691406 L 622.078125 466.558594 C 660.148438 418.769531 683.640625 358.019531 683.640625 292.410156 C 683.640625 138.511719 558.089844 12.960938 404.191406 12.960938 C 250.289062 12.960938 124.738281 138.511719 124.738281 292.410156 C 124.738281 358.019531 147.421875 418.769531 186.300781 466.558594 L 59.128906 687.691406 C 55.890625 692.550781 56.699219 699.03125 59.941406 703.890625 C 63.179688 708.75 68.851562 711.179688 74.519531 710.371094 L 173.339844 696.601562 L 211.410156 788.941406 C 213.839844 794.609375 218.699219 797.851562 224.371094 798.660156 C 224.371094 798.660156 225.179688 798.660156 225.179688 798.660156 C 230.851562 798.660156 235.710938 795.421875 238.140625 791.371094 L 366.121094 569.429688 C 378.269531 571.050781 390.421875 571.859375 403.378906 571.859375 C 415.53125 571.859375 428.488281 571.050781 440.640625 569.429688 L 568.621094 791.371094 C 571.050781 796.230469 576.71875 798.660156 581.578125 798.660156 C 581.578125 798.660156 582.390625 798.660156 582.390625 798.660156 C 588.058594 798.660156 593.730469 794.609375 595.351562 788.941406 L 634.230469 696.601562 L 733.050781 709.558594 C 738.71875 710.371094 744.390625 707.941406 747.628906 703.078125 C 751.679688 699.03125 751.679688 692.550781 749.25 687.691406 Z M 228.421875 748.441406 L 200.878906 681.210938 L 225.988281 640.710938 C 230.039062 633.421875 228.421875 623.699219 221.128906 619.648438 C 213.839844 615.601562 204.121094 617.21875 200.070312 624.511719 L 174.960938 665.820312 L 102.058594 675.539062 L 208.171875 490.859375 C 243 525.691406 286.738281 550.800781 335.339844 562.949219 Z M 404.191406 541.078125 C 267.300781 541.078125 155.519531 429.300781 155.519531 292.410156 C 155.519531 155.519531 267.300781 43.738281 404.191406 43.738281 C 541.078125 43.738281 652.859375 155.519531 652.859375 292.410156 C 652.859375 429.300781 541.078125 541.078125 404.191406 541.078125 Z M 634.230469 665.820312 L 609.121094 624.511719 C 605.070312 617.21875 595.351562 614.789062 588.058594 619.648438 C 580.769531 623.699219 578.339844 633.421875 583.199219 640.710938 L 608.308594 681.210938 L 580.769531 748.441406 L 473.039062 562.949219 C 521.640625 550.800781 565.378906 524.878906 600.210938 490.859375 L 706.320312 675.539062 Z M 634.230469 665.820312 " fill-opacity="1" fill-rule="nonzero"/><path fill="#162b4d" d="M 404.191406 93.148438 C 370.171875 93.148438 336.148438 102.058594 306.179688 119.070312 C 298.890625 123.121094 296.460938 132.839844 300.511719 140.128906 C 304.558594 147.421875 314.28125 149.851562 321.570312 145.800781 C 346.679688 132.03125 375.03125 123.929688 404.191406 123.929688 C 497.339844 123.929688 572.671875 199.261719 572.671875 292.410156 C 572.671875 317.519531 567 342.628906 556.46875 365.308594 C 552.421875 372.601562 555.660156 382.320312 563.761719 385.558594 C 566.191406 386.371094 567.808594 387.179688 570.238281 387.179688 C 575.910156 387.179688 581.578125 383.941406 584.011719 378.269531 C 596.96875 351.539062 603.449219 322.378906 603.449219 292.410156 C 603.449219 182.25 514.351562 93.148438 404.191406 93.148438 Z M 404.191406 93.148438 " fill-opacity="1" fill-rule="nonzero"/><path fill="#162b4d" d="M 546.75 409.859375 C 540.269531 404.191406 531.359375 404.191406 524.878906 409.859375 C 519.210938 415.53125 519.210938 425.25 524.878906 431.730469 C 528.121094 434.96875 531.359375 435.78125 535.410156 435.78125 C 539.460938 435.78125 543.511719 434.160156 546.75 430.921875 L 547.558594 430.109375 C 553.230469 425.25 553.230469 415.53125 546.75 409.859375 Z M 546.75 409.859375 " fill-opacity="1" fill-rule="nonzero"/><path fill="#162b4d" d="M 506.25 446.308594 C 502.199219 439.019531 492.480469 436.589844 485.191406 440.640625 C 460.078125 454.410156 432.539062 461.699219 404.191406 461.699219 C 311.039062 461.699219 235.710938 386.371094 235.710938 293.21875 C 235.710938 268.921875 240.570312 245.429688 251.101562 223.558594 C 254.339844 215.460938 251.101562 206.550781 243.808594 203.308594 C 235.710938 200.070312 226.800781 203.308594 223.558594 210.601562 C 211.410156 236.519531 205.738281 264.058594 205.738281 293.21875 C 205.738281 403.378906 294.839844 492.480469 405 492.480469 C 438.210938 492.480469 472.230469 483.570312 501.390625 468.179688 C 507.871094 463.320312 510.300781 453.601562 506.25 446.308594 Z M 506.25 446.308594 " fill-opacity="1" fill-rule="nonzero"/><path fill="#162b4d" d="M 280.261719 155.519531 C 273.78125 149.851562 264.058594 149.851562 258.390625 156.328125 C 252.71875 162.808594 252.71875 172.53125 259.199219 178.199219 C 262.441406 180.628906 265.679688 182.25 269.730469 182.25 C 273.78125 182.25 277.828125 180.628906 281.070312 177.390625 C 286.738281 171.71875 285.929688 162 280.261719 155.519531 Z M 280.261719 155.519531 " fill-opacity="1" fill-rule="nonzero"/></svg>