<svg xmlns="http://www.w3.org/2000/svg" xmlns:xlink="http://www.w3.org/1999/xlink" width="1080" zoomAndPan="magnify" viewBox="0 0 810 809.999993" height="1080" preserveAspectRatio="xMidYMid meet" version="1.0"><path fill="#009688" d="M 529.148438 397.75 C 528.597656 397.75 528.046875 397.722656 527.496094 397.667969 C 526.945312 397.613281 526.398438 397.535156 525.855469 397.425781 C 525.316406 397.316406 524.78125 397.183594 524.25 397.023438 C 523.722656 396.863281 523.203125 396.675781 522.691406 396.464844 C 522.179688 396.253906 521.683594 396.019531 521.195312 395.757812 C 520.707031 395.496094 520.234375 395.214844 519.773438 394.90625 C 519.316406 394.601562 518.871094 394.269531 518.445312 393.921875 C 518.015625 393.570312 517.609375 393.199219 517.21875 392.808594 C 516.828125 392.417969 516.457031 392.007812 516.105469 391.582031 C 515.753906 391.15625 515.425781 390.710938 515.117188 390.25 C 514.8125 389.792969 514.527344 389.320312 514.269531 388.832031 C 514.007812 388.34375 513.773438 387.84375 513.558594 387.335938 C 513.347656 386.824219 513.164062 386.304688 513.003906 385.777344 C 512.84375 385.246094 512.707031 384.710938 512.601562 384.167969 C 512.492188 383.628906 512.410156 383.082031 512.359375 382.53125 C 512.304688 381.984375 512.277344 381.429688 512.277344 380.878906 L 512.277344 296.144531 C 512.277344 292.828125 512.1875 289.511719 512.011719 286.199219 C 511.835938 282.882812 511.570312 279.578125 511.21875 276.277344 C 510.867188 272.980469 510.429688 269.691406 509.902344 266.414062 C 509.378906 263.140625 508.765625 259.878906 508.066406 256.636719 C 507.367188 253.394531 506.585938 250.171875 505.714844 246.96875 C 504.84375 243.765625 503.890625 240.589844 502.855469 237.441406 C 501.816406 234.289062 500.695312 231.167969 499.492188 228.074219 C 498.289062 224.980469 497.003906 221.925781 495.640625 218.902344 C 494.273438 215.875 492.828125 212.890625 491.304688 209.945312 C 489.78125 206.996094 488.179688 204.09375 486.503906 201.230469 C 484.824219 198.367188 483.074219 195.550781 481.246094 192.78125 C 479.417969 190.011719 477.519531 187.292969 475.546875 184.625 C 473.578125 181.957031 471.535156 179.339844 469.425781 176.78125 C 467.316406 174.21875 465.140625 171.71875 462.898438 169.273438 C 460.65625 166.828125 458.347656 164.441406 455.980469 162.121094 C 453.613281 159.796875 451.183594 157.539062 448.695312 155.34375 C 446.207031 153.152344 443.660156 151.023438 441.058594 148.964844 C 438.457031 146.90625 435.804688 144.917969 433.097656 142.996094 C 430.390625 141.078125 427.632812 139.234375 424.828125 137.460938 C 422.023438 135.6875 419.171875 133.992188 416.277344 132.371094 C 413.382812 130.75 410.449219 129.207031 407.472656 127.742188 C 404.496094 126.273438 401.480469 124.890625 398.433594 123.582031 C 395.382812 122.277344 392.300781 121.054688 389.183594 119.910156 C 386.070312 118.769531 382.925781 117.710938 379.757812 116.734375 C 376.585938 115.757812 373.390625 114.867188 370.171875 114.0625 C 366.953125 113.253906 363.714844 112.535156 360.460938 111.898438 C 357.203125 111.265625 353.933594 110.714844 350.644531 110.253906 C 347.359375 109.792969 344.066406 109.417969 340.761719 109.132812 C 337.453125 108.847656 334.144531 108.648438 330.828125 108.535156 C 327.511719 108.425781 324.195312 108.402344 320.878906 108.464844 C 317.558594 108.53125 314.246094 108.683594 310.9375 108.925781 C 307.628906 109.164062 304.328125 109.492188 301.035156 109.910156 C 207.480469 121.25 136.945312 204.679688 136.945312 303.902344 L 136.945312 380.855469 C 136.945312 381.40625 136.917969 381.957031 136.863281 382.507812 C 136.8125 383.058594 136.730469 383.605469 136.621094 384.144531 C 136.515625 384.6875 136.378906 385.222656 136.21875 385.753906 C 136.058594 386.28125 135.875 386.800781 135.660156 387.3125 C 135.449219 387.824219 135.214844 388.320312 134.953125 388.808594 C 134.691406 389.296875 134.410156 389.769531 134.101562 390.230469 C 133.796875 390.6875 133.464844 391.132812 133.117188 391.558594 C 132.765625 391.988281 132.394531 392.394531 132.003906 392.785156 C 131.613281 393.179688 131.203125 393.546875 130.777344 393.898438 C 130.347656 394.25 129.90625 394.578125 129.445312 394.886719 C 128.988281 395.191406 128.511719 395.476562 128.027344 395.738281 C 127.539062 395.996094 127.039062 396.234375 126.527344 396.445312 C 126.015625 396.65625 125.496094 396.84375 124.96875 397.003906 C 124.441406 397.164062 123.90625 397.296875 123.363281 397.40625 C 122.820312 397.511719 122.273438 397.59375 121.726562 397.648438 C 121.175781 397.703125 120.621094 397.730469 120.070312 397.730469 C 119.515625 397.730469 118.964844 397.703125 118.417969 397.648438 C 117.867188 397.59375 117.320312 397.511719 116.777344 397.40625 C 116.234375 397.296875 115.699219 397.164062 115.171875 397.003906 C 114.640625 396.84375 114.121094 396.65625 113.609375 396.445312 C 113.101562 396.234375 112.601562 395.996094 112.113281 395.738281 C 111.625 395.476562 111.152344 395.191406 110.691406 394.886719 C 110.234375 394.578125 109.789062 394.25 109.363281 393.898438 C 108.9375 393.546875 108.527344 393.179688 108.136719 392.785156 C 107.746094 392.394531 107.375 391.988281 107.023438 391.558594 C 106.675781 391.132812 106.34375 390.6875 106.039062 390.230469 C 105.730469 389.769531 105.449219 389.296875 105.1875 388.808594 C 104.925781 388.320312 104.691406 387.824219 104.476562 387.3125 C 104.265625 386.800781 104.082031 386.28125 103.921875 385.753906 C 103.761719 385.222656 103.625 384.6875 103.519531 384.144531 C 103.410156 383.605469 103.328125 383.058594 103.277344 382.507812 C 103.222656 381.957031 103.195312 381.40625 103.195312 380.855469 L 103.195312 303.902344 C 103.195312 187.621094 186.488281 89.8125 296.96875 76.375 C 300.851562 75.886719 304.746094 75.503906 308.648438 75.222656 C 312.550781 74.945312 316.457031 74.765625 320.371094 74.691406 C 324.28125 74.621094 328.195312 74.648438 332.105469 74.785156 C 336.015625 74.917969 339.917969 75.15625 343.816406 75.496094 C 347.714844 75.835938 351.601562 76.28125 355.476562 76.828125 C 359.351562 77.375 363.207031 78.023438 367.046875 78.773438 C 370.886719 79.523438 374.703125 80.375 378.5 81.332031 C 382.292969 82.285156 386.0625 83.335938 389.800781 84.488281 C 393.539062 85.644531 397.246094 86.894531 400.917969 88.242188 C 404.589844 89.59375 408.226562 91.039062 411.820312 92.582031 C 415.417969 94.121094 418.96875 95.757812 422.480469 97.488281 C 425.988281 99.21875 429.449219 101.042969 432.863281 102.957031 C 436.277344 104.871094 439.636719 106.871094 442.941406 108.964844 C 446.25 111.054688 449.5 113.234375 452.6875 115.496094 C 455.878906 117.761719 459.007812 120.109375 462.078125 122.539062 C 465.144531 124.96875 468.144531 127.476562 471.078125 130.066406 C 474.011719 132.65625 476.875 135.320312 479.667969 138.0625 C 482.460938 140.800781 485.179688 143.613281 487.824219 146.5 C 490.46875 149.382812 493.03125 152.335938 495.519531 155.355469 C 498.007812 158.378906 500.414062 161.460938 502.734375 164.609375 C 505.058594 167.757812 507.296875 170.964844 509.453125 174.230469 C 511.605469 177.5 513.671875 180.820312 515.648438 184.195312 C 517.628906 187.570312 519.515625 191 521.308594 194.472656 C 523.105469 197.949219 524.808594 201.472656 526.417969 205.039062 C 528.027344 208.605469 529.542969 212.210938 530.960938 215.859375 C 532.378906 219.503906 533.699219 223.1875 534.925781 226.902344 C 536.148438 230.621094 537.273438 234.367188 538.296875 238.140625 C 539.320312 241.917969 540.246094 245.71875 541.070312 249.542969 C 541.894531 253.371094 542.613281 257.214844 543.234375 261.078125 C 543.855469 264.941406 544.371094 268.816406 544.785156 272.707031 C 545.199219 276.597656 545.507812 280.5 545.71875 284.40625 C 545.925781 288.3125 546.027344 292.222656 546.027344 296.136719 L 546.027344 380.871094 C 546.03125 381.421875 546.003906 381.976562 545.949219 382.523438 C 545.898438 383.074219 545.816406 383.621094 545.710938 384.164062 C 545.601562 384.707031 545.46875 385.242188 545.308594 385.773438 C 545.148438 386.300781 544.964844 386.824219 544.75 387.332031 C 544.539062 387.84375 544.304688 388.34375 544.042969 388.832031 C 543.785156 389.320312 543.5 389.792969 543.191406 390.253906 C 542.886719 390.714844 542.558594 391.160156 542.207031 391.585938 C 541.855469 392.011719 541.484375 392.421875 541.09375 392.8125 C 540.703125 393.203125 540.292969 393.574219 539.863281 393.925781 C 539.4375 394.277344 538.992188 394.605469 538.535156 394.914062 C 538.074219 395.21875 537.597656 395.503906 537.113281 395.765625 C 536.625 396.023438 536.125 396.261719 535.613281 396.472656 C 535.101562 396.683594 534.582031 396.867188 534.050781 397.03125 C 533.523438 397.1875 532.988281 397.324219 532.445312 397.429688 C 531.902344 397.539062 531.355469 397.617188 530.804688 397.671875 C 530.253906 397.726562 529.703125 397.75 529.148438 397.75 Z M 529.148438 397.75 " fill-opacity="1" fill-rule="nonzero"/><path fill="#34495e" d="M 228.21875 719.191406 L 67.496094 719.191406 C 66.945312 719.191406 66.394531 719.164062 65.84375 719.109375 C 65.292969 719.054688 64.746094 718.972656 64.207031 718.867188 C 63.664062 718.757812 63.128906 718.625 62.597656 718.464844 C 62.070312 718.304688 61.550781 718.117188 61.039062 717.90625 C 60.53125 717.695312 60.03125 717.457031 59.542969 717.199219 C 59.054688 716.9375 58.582031 716.652344 58.121094 716.347656 C 57.664062 716.039062 57.21875 715.710938 56.792969 715.359375 C 56.363281 715.007812 55.957031 714.636719 55.566406 714.246094 C 55.175781 713.855469 54.804688 713.445312 54.453125 713.019531 C 54.101562 712.59375 53.773438 712.148438 53.46875 711.6875 C 53.160156 711.230469 52.875 710.753906 52.617188 710.269531 C 52.355469 709.78125 52.117188 709.28125 51.90625 708.769531 C 51.695312 708.257812 51.511719 707.738281 51.351562 707.210938 C 51.191406 706.679688 51.054688 706.144531 50.949219 705.605469 C 50.839844 705.0625 50.761719 704.515625 50.707031 703.964844 C 50.652344 703.414062 50.625 702.863281 50.625 702.3125 C 50.628906 698.351562 50.734375 694.398438 50.933594 690.445312 C 51.128906 686.496094 51.425781 682.550781 51.820312 678.613281 C 52.210938 674.675781 52.699219 670.75 53.285156 666.835938 C 53.871094 662.925781 54.550781 659.027344 55.328125 655.148438 C 56.101562 651.265625 56.972656 647.410156 57.9375 643.570312 C 58.902344 639.734375 59.960938 635.921875 61.109375 632.136719 C 62.261719 628.351562 63.507812 624.59375 64.84375 620.871094 C 66.179688 617.148438 67.605469 613.457031 69.121094 609.800781 C 70.636719 606.148438 72.242188 602.53125 73.9375 598.957031 C 75.632812 595.378906 77.410156 591.847656 79.277344 588.359375 C 81.144531 584.871094 83.097656 581.429688 85.132812 578.035156 C 87.167969 574.644531 89.285156 571.300781 91.484375 568.011719 C 93.683594 564.722656 95.964844 561.488281 98.320312 558.3125 C 100.679688 555.132812 103.113281 552.015625 105.625 548.957031 C 108.136719 545.898438 110.71875 542.90625 113.375 539.972656 C 116.035156 537.042969 118.761719 534.175781 121.558594 531.378906 C 124.359375 528.582031 127.222656 525.855469 130.15625 523.195312 C 133.085938 520.539062 136.082031 517.957031 139.140625 515.445312 C 142.199219 512.933594 145.316406 510.5 148.492188 508.140625 C 151.671875 505.785156 154.90625 503.503906 158.195312 501.304688 C 161.484375 499.105469 164.824219 496.988281 168.214844 494.953125 C 171.609375 492.917969 175.050781 490.964844 178.539062 489.097656 C 182.027344 487.230469 185.5625 485.453125 189.136719 483.757812 C 192.710938 482.0625 196.328125 480.457031 199.984375 478.941406 C 203.636719 477.425781 207.328125 476 211.050781 474.664062 C 214.777344 473.328125 218.53125 472.082031 222.316406 470.929688 C 226.101562 469.78125 229.914062 468.722656 233.75 467.757812 C 237.589844 466.792969 241.449219 465.921875 245.328125 465.144531 C 249.207031 464.371094 253.105469 463.6875 257.019531 463.105469 C 260.933594 462.519531 264.855469 462.03125 268.792969 461.636719 C 272.730469 461.246094 276.675781 460.949219 280.628906 460.75 C 284.578125 460.550781 288.535156 460.449219 292.492188 460.445312 C 293.042969 460.445312 293.59375 460.472656 294.144531 460.527344 C 294.695312 460.582031 295.242188 460.660156 295.78125 460.769531 C 296.324219 460.875 296.859375 461.011719 297.390625 461.171875 C 297.917969 461.332031 298.4375 461.519531 298.949219 461.730469 C 299.460938 461.941406 299.957031 462.175781 300.445312 462.4375 C 300.933594 462.699219 301.40625 462.980469 301.867188 463.289062 C 302.328125 463.59375 302.769531 463.925781 303.199219 464.273438 C 303.625 464.625 304.035156 464.996094 304.425781 465.386719 C 304.816406 465.777344 305.1875 466.1875 305.535156 466.613281 C 305.886719 467.042969 306.214844 467.484375 306.523438 467.945312 C 306.828125 468.402344 307.113281 468.878906 307.375 469.367188 C 307.632812 469.851562 307.871094 470.351562 308.082031 470.863281 C 308.292969 471.375 308.480469 471.894531 308.640625 472.421875 C 308.800781 472.949219 308.933594 473.484375 309.042969 474.027344 C 309.152344 474.570312 309.234375 475.117188 309.285156 475.667969 C 309.339844 476.214844 309.367188 476.769531 309.367188 477.320312 C 309.367188 477.875 309.339844 478.425781 309.285156 478.976562 C 309.234375 479.527344 309.152344 480.070312 309.042969 480.613281 C 308.933594 481.15625 308.800781 481.691406 308.640625 482.21875 C 308.480469 482.75 308.292969 483.269531 308.082031 483.777344 C 307.871094 484.289062 307.632812 484.789062 307.375 485.277344 C 307.113281 485.761719 306.828125 486.238281 306.523438 486.695312 C 306.214844 487.15625 305.886719 487.597656 305.535156 488.027344 C 305.1875 488.453125 304.816406 488.863281 304.425781 489.253906 C 304.035156 489.644531 303.625 490.015625 303.195312 490.367188 C 302.769531 490.71875 302.328125 491.046875 301.867188 491.351562 C 301.40625 491.660156 300.933594 491.945312 300.445312 492.203125 C 299.957031 492.464844 299.460938 492.699219 298.949219 492.910156 C 298.4375 493.125 297.917969 493.308594 297.390625 493.46875 C 296.859375 493.632812 296.324219 493.765625 295.78125 493.871094 C 295.242188 493.980469 294.695312 494.0625 294.144531 494.117188 C 293.59375 494.171875 293.042969 494.199219 292.492188 494.199219 C 289.261719 494.203125 286.035156 494.28125 282.808594 494.433594 C 279.585938 494.589844 276.363281 494.816406 273.152344 495.121094 C 269.9375 495.425781 266.730469 495.804688 263.53125 496.257812 C 260.335938 496.710938 257.152344 497.234375 253.980469 497.835938 C 250.808594 498.4375 247.648438 499.109375 244.507812 499.859375 C 241.367188 500.605469 238.246094 501.425781 235.140625 502.320312 C 232.039062 503.210938 228.957031 504.175781 225.898438 505.210938 C 222.839844 506.246094 219.808594 507.351562 216.800781 508.53125 C 213.796875 509.707031 210.816406 510.953125 207.867188 512.269531 C 204.917969 513.582031 202.003906 514.964844 199.117188 516.417969 C 196.234375 517.867188 193.382812 519.382812 190.570312 520.96875 C 187.753906 522.550781 184.980469 524.199219 182.242188 525.910156 C 179.503906 527.621094 176.808594 529.398438 174.152344 531.234375 C 171.496094 533.070312 168.886719 534.96875 166.320312 536.929688 C 163.753906 538.886719 161.234375 540.90625 158.761719 542.980469 C 156.285156 545.058594 153.863281 547.191406 151.488281 549.378906 C 149.113281 551.566406 146.792969 553.808594 144.523438 556.105469 C 142.253906 558.402344 140.039062 560.75 137.878906 563.148438 C 135.71875 565.550781 133.613281 568 131.566406 570.496094 C 129.519531 572.992188 127.53125 575.535156 125.605469 578.125 C 123.675781 580.714844 121.808594 583.347656 120 586.023438 C 118.195312 588.699219 116.453125 591.417969 114.773438 594.175781 C 113.09375 596.933594 111.476562 599.726562 109.925781 602.558594 C 108.375 605.390625 106.894531 608.261719 105.476562 611.160156 C 104.058594 614.0625 102.710938 616.996094 101.429688 619.960938 C 100.148438 622.921875 98.941406 625.917969 97.796875 628.9375 C 96.65625 631.957031 95.585938 635.003906 94.585938 638.074219 C 93.585938 641.144531 92.660156 644.234375 91.800781 647.347656 C 90.945312 650.460938 90.164062 653.59375 89.453125 656.742188 C 88.742188 659.894531 88.105469 663.058594 87.542969 666.238281 C 86.976562 669.417969 86.488281 672.605469 86.070312 675.808594 C 85.65625 679.011719 85.316406 682.21875 85.050781 685.4375 L 228.21875 685.4375 C 228.769531 685.4375 229.320312 685.464844 229.871094 685.519531 C 230.421875 685.574219 230.96875 685.65625 231.511719 685.761719 C 232.050781 685.871094 232.585938 686.003906 233.117188 686.164062 C 233.644531 686.324219 234.164062 686.511719 234.675781 686.722656 C 235.1875 686.933594 235.683594 687.171875 236.171875 687.429688 C 236.660156 687.691406 237.132812 687.976562 237.59375 688.28125 C 238.054688 688.589844 238.496094 688.917969 238.921875 689.269531 C 239.351562 689.621094 239.761719 689.988281 240.152344 690.378906 C 240.542969 690.773438 240.914062 691.179688 241.261719 691.609375 C 241.613281 692.035156 241.941406 692.480469 242.25 692.9375 C 242.554688 693.398438 242.839844 693.871094 243.101562 694.359375 C 243.359375 694.847656 243.597656 695.34375 243.808594 695.855469 C 244.019531 696.367188 244.207031 696.886719 244.367188 697.414062 C 244.527344 697.945312 244.660156 698.480469 244.769531 699.019531 C 244.878906 699.5625 244.957031 700.109375 245.011719 700.660156 C 245.066406 701.210938 245.09375 701.761719 245.09375 702.316406 C 245.09375 702.867188 245.066406 703.417969 245.011719 703.96875 C 244.957031 704.519531 244.878906 705.066406 244.769531 705.605469 C 244.660156 706.148438 244.527344 706.683594 244.367188 707.214844 C 244.207031 707.742188 244.019531 708.261719 243.808594 708.773438 C 243.597656 709.28125 243.359375 709.78125 243.101562 710.269531 C 242.839844 710.757812 242.554688 711.230469 242.25 711.691406 C 241.941406 712.148438 241.613281 712.59375 241.261719 713.019531 C 240.914062 713.449219 240.542969 713.855469 240.152344 714.246094 C 239.761719 714.636719 239.351562 715.007812 238.921875 715.359375 C 238.496094 715.710938 238.054688 716.039062 237.59375 716.34375 C 237.132812 716.652344 236.660156 716.9375 236.171875 717.199219 C 235.6875 717.457031 235.1875 717.695312 234.675781 717.90625 C 234.164062 718.117188 233.644531 718.304688 233.117188 718.464844 C 232.589844 718.625 232.050781 718.757812 231.511719 718.867188 C 230.96875 718.972656 230.421875 719.054688 229.871094 719.109375 C 229.320312 719.164062 228.769531 719.191406 228.21875 719.191406 Z M 228.21875 719.191406 " fill-opacity="1" fill-rule="nonzero"/><path fill="#34495e" d="M 324.640625 445.945312 C 322.261719 445.945312 319.882812 445.886719 317.503906 445.769531 C 315.125 445.65625 312.753906 445.480469 310.382812 445.246094 C 308.015625 445.011719 305.652344 444.722656 303.300781 444.371094 C 300.945312 444.023438 298.597656 443.617188 296.265625 443.152344 C 293.929688 442.6875 291.609375 442.167969 289.296875 441.589844 C 286.988281 441.011719 284.695312 440.375 282.417969 439.683594 C 280.140625 438.996094 277.878906 438.246094 275.640625 437.445312 C 273.398438 436.644531 271.175781 435.789062 268.976562 434.875 C 266.777344 433.964844 264.601562 433.003906 262.449219 431.984375 C 260.296875 430.964844 258.171875 429.898438 256.074219 428.773438 C 253.972656 427.652344 251.902344 426.480469 249.863281 425.257812 C 247.820312 424.03125 245.808594 422.757812 243.828125 421.4375 C 241.851562 420.113281 239.90625 418.746094 237.992188 417.328125 C 236.082031 415.910156 234.203125 414.445312 232.363281 412.933594 C 230.523438 411.425781 228.722656 409.871094 226.957031 408.269531 C 225.195312 406.671875 223.46875 405.03125 221.785156 403.347656 C 220.101562 401.664062 218.460938 399.941406 216.863281 398.179688 C 215.265625 396.414062 213.710938 394.613281 212.199219 392.773438 C 210.691406 390.933594 209.226562 389.054688 207.808594 387.144531 C 206.390625 385.230469 205.019531 383.285156 203.695312 381.304688 C 202.375 379.328125 201.101562 377.316406 199.878906 375.277344 C 198.652344 373.234375 197.480469 371.164062 196.359375 369.0625 C 195.234375 366.964844 194.167969 364.839844 193.148438 362.6875 C 192.128906 360.535156 191.164062 358.359375 190.253906 356.160156 C 189.34375 353.960938 188.488281 351.742188 187.683594 349.5 C 186.882812 347.257812 186.136719 345 185.445312 342.71875 C 184.753906 340.441406 184.121094 338.148438 183.542969 335.839844 C 182.960938 333.53125 182.441406 331.207031 181.976562 328.875 C 181.511719 326.539062 181.105469 324.195312 180.757812 321.839844 C 180.40625 319.484375 180.117188 317.125 179.882812 314.753906 C 179.648438 312.386719 179.472656 310.011719 179.355469 307.632812 C 179.238281 305.257812 179.179688 302.878906 179.179688 300.496094 C 179.179688 298.117188 179.238281 295.738281 179.355469 293.359375 C 179.472656 290.984375 179.648438 288.609375 179.882812 286.238281 C 180.113281 283.871094 180.40625 281.507812 180.757812 279.152344 C 181.105469 276.800781 181.511719 274.453125 181.976562 272.121094 C 182.441406 269.785156 182.960938 267.464844 183.539062 265.15625 C 184.117188 262.84375 184.753906 260.550781 185.445312 258.273438 C 186.136719 255.996094 186.882812 253.738281 187.683594 251.496094 C 188.484375 249.253906 189.339844 247.035156 190.253906 244.832031 C 191.164062 242.636719 192.128906 240.460938 193.148438 238.308594 C 194.164062 236.15625 195.234375 234.03125 196.355469 231.929688 C 197.476562 229.832031 198.652344 227.761719 199.875 225.71875 C 201.097656 223.675781 202.371094 221.667969 203.695312 219.6875 C 205.015625 217.707031 206.386719 215.761719 207.804688 213.851562 C 209.222656 211.9375 210.6875 210.0625 212.195312 208.222656 C 213.707031 206.382812 215.261719 204.578125 216.859375 202.816406 C 218.457031 201.050781 220.097656 199.328125 221.78125 197.644531 C 223.464844 195.960938 225.1875 194.320312 226.953125 192.722656 C 228.71875 191.125 230.519531 189.570312 232.359375 188.058594 C 234.199219 186.550781 236.074219 185.085938 237.988281 183.667969 C 239.898438 182.25 241.84375 180.878906 243.824219 179.554688 C 245.804688 178.234375 247.8125 176.960938 249.855469 175.738281 C 251.898438 174.511719 253.96875 173.339844 256.066406 172.21875 C 258.167969 171.09375 260.292969 170.023438 262.445312 169.007812 C 264.597656 167.988281 266.773438 167.023438 268.972656 166.113281 C 271.171875 165.203125 273.390625 164.347656 275.632812 163.546875 C 277.875 162.742188 280.132812 161.996094 282.410156 161.304688 C 284.691406 160.613281 286.984375 159.980469 289.292969 159.402344 C 291.601562 158.824219 293.921875 158.300781 296.257812 157.835938 C 298.59375 157.371094 300.9375 156.964844 303.292969 156.617188 C 305.648438 156.269531 308.007812 155.976562 310.378906 155.742188 C 312.746094 155.507812 315.121094 155.335938 317.5 155.21875 C 319.875 155.101562 322.253906 155.042969 324.632812 155.042969 C 327.015625 155.042969 329.394531 155.101562 331.773438 155.21875 C 334.148438 155.335938 336.523438 155.511719 338.890625 155.742188 C 341.261719 155.976562 343.625 156.269531 345.976562 156.617188 C 348.332031 156.964844 350.675781 157.375 353.011719 157.835938 C 355.347656 158.300781 357.667969 158.824219 359.976562 159.402344 C 362.289062 159.980469 364.582031 160.617188 366.859375 161.304688 C 369.136719 161.996094 371.394531 162.742188 373.636719 163.546875 C 375.878906 164.347656 378.097656 165.203125 380.296875 166.117188 C 382.496094 167.027344 384.675781 167.992188 386.824219 169.007812 C 388.976562 170.027344 391.101562 171.097656 393.203125 172.21875 C 395.300781 173.339844 397.371094 174.515625 399.414062 175.738281 C 401.457031 176.960938 403.464844 178.234375 405.445312 179.558594 C 407.425781 180.878906 409.371094 182.25 411.28125 183.667969 C 413.195312 185.085938 415.070312 186.550781 416.910156 188.0625 C 418.75 189.570312 420.554688 191.125 422.316406 192.726562 C 424.078125 194.324219 425.804688 195.964844 427.484375 197.648438 C 429.167969 199.332031 430.808594 201.054688 432.410156 202.820312 C 434.007812 204.582031 435.5625 206.386719 437.070312 208.226562 C 438.582031 210.066406 440.046875 211.941406 441.464844 213.855469 C 442.882812 215.765625 444.253906 217.710938 445.574219 219.691406 C 446.898438 221.671875 448.171875 223.679688 449.394531 225.722656 C 450.617188 227.765625 451.792969 229.835938 452.914062 231.933594 C 454.035156 234.035156 455.105469 236.160156 456.121094 238.3125 C 457.140625 240.464844 458.105469 242.640625 459.015625 244.839844 C 459.925781 247.039062 460.78125 249.257812 461.585938 251.5 C 462.386719 253.742188 463.132812 256 463.824219 258.277344 C 464.515625 260.554688 465.148438 262.851562 465.726562 265.160156 C 466.304688 267.46875 466.828125 269.789062 467.289062 272.125 C 467.753906 274.460938 468.164062 276.804688 468.511719 279.160156 C 468.859375 281.515625 469.152344 283.875 469.386719 286.246094 C 469.617188 288.613281 469.792969 290.988281 469.910156 293.367188 C 470.027344 295.742188 470.085938 298.121094 470.085938 300.5 C 470.082031 302.882812 470.019531 305.257812 469.898438 307.636719 C 469.78125 310.011719 469.601562 312.386719 469.367188 314.753906 C 469.132812 317.121094 468.839844 319.480469 468.488281 321.835938 C 468.136719 324.1875 467.726562 326.53125 467.261719 328.867188 C 466.792969 331.199219 466.269531 333.519531 465.691406 335.828125 C 465.109375 338.132812 464.472656 340.425781 463.78125 342.703125 C 463.089844 344.980469 462.34375 347.238281 461.539062 349.476562 C 460.734375 351.71875 459.878906 353.9375 458.964844 356.132812 C 458.054688 358.332031 457.089844 360.507812 456.070312 362.65625 C 455.050781 364.808594 453.980469 366.929688 452.859375 369.03125 C 451.738281 371.128906 450.5625 373.195312 449.339844 375.238281 C 448.113281 377.277344 446.839844 379.285156 445.519531 381.265625 C 444.195312 383.242188 442.824219 385.1875 441.410156 387.097656 C 439.992188 389.011719 438.527344 390.886719 437.015625 392.722656 C 435.507812 394.5625 433.953125 396.363281 432.355469 398.128906 C 430.757812 399.890625 429.117188 401.613281 427.433594 403.296875 C 425.753906 404.980469 424.027344 406.617188 422.265625 408.21875 C 420.503906 409.816406 418.703125 411.371094 416.863281 412.878906 C 415.023438 414.390625 413.148438 415.851562 411.238281 417.269531 C 409.324219 418.6875 407.382812 420.058594 405.402344 421.382812 C 403.425781 422.703125 401.414062 423.976562 399.375 425.199219 C 397.335938 426.425781 395.265625 427.597656 393.167969 428.722656 C 391.070312 429.84375 388.945312 430.914062 386.792969 431.933594 C 384.644531 432.949219 382.46875 433.917969 380.273438 434.828125 C 378.074219 435.742188 375.855469 436.597656 373.613281 437.402344 C 371.375 438.203125 369.117188 438.953125 366.839844 439.644531 C 364.5625 440.335938 362.273438 440.972656 359.964844 441.550781 C 357.65625 442.132812 355.335938 442.65625 353.003906 443.121094 C 350.667969 443.589844 348.324219 443.996094 345.972656 444.347656 C 343.617188 444.699219 341.257812 444.992188 338.890625 445.230469 C 336.523438 445.464844 334.152344 445.644531 331.773438 445.761719 C 329.398438 445.882812 327.019531 445.941406 324.640625 445.945312 Z M 324.640625 188.785156 C 322.8125 188.785156 320.984375 188.832031 319.160156 188.921875 C 317.332031 189.011719 315.511719 189.144531 313.691406 189.324219 C 311.871094 189.503906 310.058594 189.726562 308.25 189.996094 C 306.441406 190.261719 304.640625 190.574219 302.847656 190.933594 C 301.054688 191.289062 299.269531 191.6875 297.496094 192.132812 C 295.722656 192.578125 293.964844 193.0625 292.214844 193.59375 C 290.464844 194.125 288.726562 194.699219 287.007812 195.3125 C 285.285156 195.929688 283.582031 196.585938 281.890625 197.285156 C 280.203125 197.984375 278.53125 198.726562 276.878906 199.507812 C 275.226562 200.289062 273.59375 201.113281 271.980469 201.972656 C 270.367188 202.835938 268.777344 203.734375 267.210938 204.675781 C 265.640625 205.613281 264.097656 206.59375 262.578125 207.609375 C 261.058594 208.625 259.5625 209.675781 258.09375 210.765625 C 256.625 211.855469 255.183594 212.980469 253.773438 214.136719 C 252.359375 215.296875 250.976562 216.492188 249.621094 217.71875 C 248.265625 218.945312 246.941406 220.207031 245.648438 221.5 C 244.355469 222.792969 243.09375 224.117188 241.867188 225.46875 C 240.640625 226.824219 239.445312 228.207031 238.285156 229.621094 C 237.125 231.035156 236 232.476562 234.914062 233.941406 C 233.824219 235.410156 232.769531 236.90625 231.753906 238.425781 C 230.738281 239.945312 229.761719 241.488281 228.820312 243.058594 C 227.882812 244.625 226.980469 246.214844 226.117188 247.828125 C 225.257812 249.441406 224.4375 251.074219 223.652344 252.722656 C 222.871094 254.378906 222.128906 256.046875 221.429688 257.738281 C 220.730469 259.425781 220.074219 261.132812 219.457031 262.851562 C 218.839844 264.574219 218.269531 266.308594 217.738281 268.058594 C 217.207031 269.808594 216.71875 271.570312 216.273438 273.34375 C 215.828125 275.117188 215.429688 276.898438 215.074219 278.691406 C 214.714844 280.484375 214.402344 282.285156 214.132812 284.09375 C 213.867188 285.902344 213.644531 287.71875 213.464844 289.535156 C 213.285156 291.355469 213.148438 293.179688 213.058594 295.003906 C 212.96875 296.832031 212.925781 298.65625 212.925781 300.484375 C 212.925781 302.3125 212.96875 304.140625 213.058594 305.96875 C 213.148438 307.792969 213.28125 309.617188 213.460938 311.433594 C 213.640625 313.253906 213.863281 315.070312 214.132812 316.875 C 214.398438 318.683594 214.710938 320.484375 215.070312 322.277344 C 215.425781 324.070312 215.824219 325.855469 216.269531 327.628906 C 216.714844 329.402344 217.203125 331.164062 217.730469 332.914062 C 218.261719 334.664062 218.835938 336.398438 219.453125 338.121094 C 220.066406 339.839844 220.726562 341.546875 221.425781 343.234375 C 222.125 344.921875 222.863281 346.59375 223.644531 348.246094 C 224.425781 349.898438 225.25 351.53125 226.109375 353.144531 C 226.972656 354.757812 227.875 356.347656 228.8125 357.914062 C 229.753906 359.484375 230.730469 361.027344 231.746094 362.546875 C 232.761719 364.070312 233.8125 365.5625 234.902344 367.03125 C 235.992188 368.5 237.117188 369.941406 238.277344 371.355469 C 239.433594 372.765625 240.628906 374.152344 241.855469 375.507812 C 243.085938 376.859375 244.34375 378.183594 245.636719 379.476562 C 246.929688 380.769531 248.253906 382.03125 249.609375 383.257812 C 250.960938 384.484375 252.34375 385.679688 253.757812 386.839844 C 255.171875 388 256.613281 389.125 258.082031 390.214844 C 259.550781 391.300781 261.042969 392.355469 262.5625 393.371094 C 264.082031 394.386719 265.628906 395.363281 267.195312 396.304688 C 268.761719 397.242188 270.355469 398.144531 271.964844 399.007812 C 273.578125 399.867188 275.210938 400.691406 276.863281 401.472656 C 278.515625 402.253906 280.1875 402.996094 281.875 403.695312 C 283.566406 404.394531 285.269531 405.050781 286.992188 405.667969 C 288.710938 406.285156 290.449219 406.859375 292.199219 407.390625 C 293.945312 407.917969 295.707031 408.40625 297.480469 408.851562 C 299.253906 409.296875 301.039062 409.695312 302.832031 410.054688 C 304.625 410.410156 306.425781 410.722656 308.234375 410.992188 C 310.042969 411.257812 311.855469 411.484375 313.675781 411.664062 C 315.492188 411.84375 317.316406 411.976562 319.140625 412.066406 C 320.96875 412.15625 322.796875 412.203125 324.625 412.203125 C 326.453125 412.203125 328.277344 412.15625 330.105469 412.066406 C 331.929688 411.976562 333.753906 411.84375 335.574219 411.664062 C 337.394531 411.484375 339.207031 411.261719 341.015625 410.992188 C 342.824219 410.722656 344.621094 410.414062 346.417969 410.054688 C 348.210938 409.699219 349.992188 409.300781 351.765625 408.855469 C 353.539062 408.410156 355.300781 407.925781 357.050781 407.394531 C 358.800781 406.863281 360.535156 406.289062 362.257812 405.671875 C 363.976562 405.058594 365.683594 404.402344 367.371094 403.703125 C 369.0625 403 370.730469 402.261719 372.382812 401.480469 C 374.039062 400.699219 375.667969 399.875 377.28125 399.015625 C 378.894531 398.152344 380.484375 397.253906 382.054688 396.3125 C 383.621094 395.371094 385.164062 394.394531 386.6875 393.378906 C 388.207031 392.363281 389.699219 391.3125 391.167969 390.222656 C 392.636719 389.132812 394.078125 388.007812 395.492188 386.851562 C 396.90625 385.691406 398.289062 384.496094 399.644531 383.269531 C 401 382.042969 402.320312 380.78125 403.613281 379.488281 C 404.90625 378.195312 406.167969 376.871094 407.394531 375.519531 C 408.625 374.164062 409.816406 372.78125 410.976562 371.367188 C 412.136719 369.953125 413.261719 368.511719 414.351562 367.042969 C 415.441406 365.574219 416.492188 364.082031 417.507812 362.5625 C 418.523438 361.042969 419.503906 359.496094 420.441406 357.929688 C 421.382812 356.359375 422.285156 354.769531 423.144531 353.160156 C 424.007812 351.546875 424.828125 349.914062 425.609375 348.261719 C 426.390625 346.609375 427.132812 344.9375 427.832031 343.25 C 428.53125 341.5625 429.191406 339.855469 429.804688 338.132812 C 430.421875 336.414062 430.996094 334.679688 431.527344 332.929688 C 432.058594 331.179688 432.542969 329.417969 432.988281 327.644531 C 433.433594 325.871094 433.832031 324.085938 434.191406 322.292969 C 434.546875 320.5 434.859375 318.699219 435.128906 316.894531 C 435.398438 315.085938 435.621094 313.269531 435.800781 311.453125 C 435.980469 309.632812 436.113281 307.808594 436.203125 305.984375 C 436.292969 304.15625 436.339844 302.328125 436.339844 300.5 C 436.335938 298.675781 436.289062 296.847656 436.199219 295.023438 C 436.105469 293.199219 435.96875 291.375 435.785156 289.558594 C 435.605469 287.742188 435.378906 285.929688 435.109375 284.121094 C 434.839844 282.316406 434.523438 280.515625 434.167969 278.722656 C 433.808594 276.929688 433.40625 275.148438 432.960938 273.378906 C 432.515625 271.605469 432.027344 269.84375 431.496094 268.097656 C 430.960938 266.347656 430.386719 264.613281 429.769531 262.894531 C 429.15625 261.175781 428.496094 259.472656 427.792969 257.785156 C 427.09375 256.097656 426.351562 254.425781 425.570312 252.777344 C 424.789062 251.125 423.964844 249.492188 423.105469 247.882812 C 422.242188 246.273438 421.339844 244.683594 420.402344 243.117188 C 419.460938 241.550781 418.484375 240.007812 417.464844 238.488281 C 416.449219 236.96875 415.398438 235.476562 414.308594 234.007812 C 413.21875 232.542969 412.097656 231.101562 410.9375 229.691406 C 409.777344 228.277344 408.585938 226.894531 407.355469 225.539062 C 406.128906 224.1875 404.871094 222.863281 403.578125 221.574219 C 402.285156 220.28125 400.960938 219.019531 399.609375 217.792969 C 398.253906 216.566406 396.871094 215.375 395.457031 214.214844 C 394.046875 213.054688 392.605469 211.929688 391.140625 210.84375 C 389.671875 209.753906 388.179688 208.703125 386.660156 207.6875 C 385.140625 206.671875 383.597656 205.691406 382.03125 204.753906 C 380.464844 203.8125 378.875 202.914062 377.261719 202.050781 C 375.652344 201.1875 374.019531 200.367188 372.367188 199.585938 C 370.71875 198.800781 369.046875 198.0625 367.359375 197.363281 C 365.671875 196.660156 363.96875 196.003906 362.25 195.386719 C 360.527344 194.769531 358.792969 194.195312 357.046875 193.664062 C 355.296875 193.132812 353.539062 192.644531 351.765625 192.199219 C 349.992188 191.753906 348.210938 191.351562 346.421875 190.996094 C 344.628906 190.636719 342.828125 190.324219 341.019531 190.054688 C 339.214844 189.785156 337.402344 189.558594 335.582031 189.378906 C 333.765625 189.195312 331.941406 189.058594 330.117188 188.96875 C 328.292969 188.875 326.46875 188.828125 324.640625 188.828125 Z M 324.640625 188.785156 " fill-opacity="1" fill-rule="nonzero"/><path fill="#34495e" d="M 324.640625 373.652344 C 323.445312 373.652344 322.25 373.621094 321.054688 373.5625 C 319.859375 373.5 318.667969 373.410156 317.476562 373.292969 C 316.285156 373.175781 315.097656 373.027344 313.914062 372.851562 C 312.730469 372.671875 311.554688 372.46875 310.382812 372.234375 C 309.207031 372 308.042969 371.734375 306.882812 371.445312 C 305.722656 371.152344 304.570312 370.832031 303.425781 370.484375 C 302.28125 370.136719 301.144531 369.761719 300.019531 369.355469 C 298.894531 368.953125 297.777344 368.519531 296.671875 368.0625 C 295.566406 367.605469 294.476562 367.121094 293.394531 366.609375 C 292.3125 366.09375 291.246094 365.558594 290.191406 364.992188 C 289.136719 364.429688 288.09375 363.839844 287.070312 363.222656 C 286.042969 362.609375 285.035156 361.96875 284.039062 361.300781 C 283.042969 360.636719 282.066406 359.949219 281.105469 359.234375 C 280.144531 358.523438 279.203125 357.785156 278.277344 357.027344 C 277.351562 356.269531 276.449219 355.488281 275.5625 354.683594 C 274.675781 353.882812 273.808594 353.058594 272.964844 352.210938 C 272.117188 351.363281 271.292969 350.5 270.488281 349.613281 C 269.6875 348.726562 268.90625 347.820312 268.144531 346.894531 C 267.386719 345.972656 266.652344 345.027344 265.9375 344.066406 C 265.226562 343.109375 264.535156 342.128906 263.871094 341.136719 C 263.207031 340.140625 262.566406 339.132812 261.953125 338.105469 C 261.335938 337.078125 260.746094 336.039062 260.179688 334.984375 C 259.617188 333.929688 259.078125 332.863281 258.566406 331.78125 C 258.054688 330.699219 257.570312 329.605469 257.109375 328.5 C 256.652344 327.398438 256.222656 326.28125 255.816406 325.15625 C 255.414062 324.03125 255.039062 322.894531 254.691406 321.75 C 254.34375 320.605469 254.023438 319.453125 253.730469 318.292969 C 253.441406 317.132812 253.175781 315.964844 252.941406 314.792969 C 252.707031 313.621094 252.5 312.441406 252.324219 311.257812 C 252.148438 310.074219 252 308.886719 251.882812 307.699219 C 251.761719 306.507812 251.675781 305.316406 251.613281 304.121094 C 251.554688 302.925781 251.523438 301.730469 251.519531 300.535156 C 251.523438 299.980469 251.550781 299.429688 251.601562 298.878906 C 251.65625 298.332031 251.738281 297.785156 251.84375 297.242188 C 251.953125 296.699219 252.085938 296.164062 252.25 295.636719 C 252.410156 295.109375 252.59375 294.589844 252.804688 294.078125 C 253.019531 293.566406 253.253906 293.066406 253.515625 292.582031 C 253.773438 292.09375 254.058594 291.621094 254.363281 291.160156 C 254.671875 290.703125 255 290.257812 255.351562 289.832031 C 255.703125 289.402344 256.074219 288.996094 256.464844 288.605469 C 256.855469 288.214844 257.261719 287.84375 257.691406 287.492188 C 258.117188 287.140625 258.558594 286.8125 259.019531 286.503906 C 259.480469 286.199219 259.953125 285.914062 260.441406 285.65625 C 260.929688 285.394531 261.425781 285.15625 261.9375 284.945312 C 262.449219 284.734375 262.96875 284.550781 263.496094 284.390625 C 264.023438 284.230469 264.5625 284.09375 265.101562 283.988281 C 265.644531 283.878906 266.191406 283.796875 266.742188 283.742188 C 267.289062 283.6875 267.839844 283.664062 268.394531 283.664062 L 380.878906 283.664062 C 381.429688 283.660156 381.984375 283.6875 382.53125 283.742188 C 383.082031 283.796875 383.628906 283.875 384.171875 283.984375 C 384.714844 284.089844 385.25 284.226562 385.777344 284.386719 C 386.308594 284.546875 386.828125 284.730469 387.339844 284.941406 C 387.847656 285.152344 388.347656 285.390625 388.835938 285.648438 C 389.324219 285.910156 389.796875 286.195312 390.257812 286.5 C 390.714844 286.808594 391.160156 287.136719 391.585938 287.488281 C 392.015625 287.839844 392.425781 288.207031 392.816406 288.597656 C 393.207031 288.992188 393.574219 289.398438 393.925781 289.828125 C 394.277344 290.253906 394.605469 290.699219 394.914062 291.15625 C 395.21875 291.617188 395.503906 292.089844 395.761719 292.578125 C 396.023438 293.066406 396.261719 293.566406 396.472656 294.074219 C 396.683594 294.585938 396.867188 295.105469 397.027344 295.636719 C 397.1875 296.164062 397.324219 296.699219 397.429688 297.242188 C 397.535156 297.785156 397.617188 298.328125 397.671875 298.878906 C 397.726562 299.429688 397.753906 299.980469 397.75 300.535156 C 397.75 301.730469 397.71875 302.925781 397.660156 304.121094 C 397.597656 305.316406 397.507812 306.507812 397.390625 307.699219 C 397.273438 308.886719 397.125 310.074219 396.945312 311.257812 C 396.769531 312.441406 396.566406 313.617188 396.332031 314.792969 C 396.097656 315.964844 395.832031 317.132812 395.542969 318.292969 C 395.25 319.449219 394.929688 320.605469 394.582031 321.746094 C 394.234375 322.890625 393.859375 324.027344 393.453125 325.152344 C 393.050781 326.28125 392.621094 327.394531 392.160156 328.5 C 391.703125 329.605469 391.21875 330.699219 390.707031 331.777344 C 390.195312 332.859375 389.65625 333.925781 389.09375 334.984375 C 388.527344 336.039062 387.9375 337.078125 387.324219 338.101562 C 386.707031 339.128906 386.066406 340.140625 385.402344 341.132812 C 384.738281 342.128906 384.046875 343.105469 383.335938 344.066406 C 382.621094 345.027344 381.886719 345.96875 381.128906 346.894531 C 380.367188 347.816406 379.585938 348.722656 378.785156 349.609375 C 377.980469 350.496094 377.15625 351.363281 376.3125 352.207031 C 375.464844 353.054688 374.601562 353.878906 373.714844 354.683594 C 372.828125 355.484375 371.921875 356.265625 370.996094 357.027344 C 370.074219 357.785156 369.128906 358.519531 368.171875 359.234375 C 367.210938 359.945312 366.230469 360.636719 365.238281 361.300781 C 364.242188 361.964844 363.234375 362.605469 362.207031 363.222656 C 361.183594 363.835938 360.140625 364.425781 359.085938 364.992188 C 358.03125 365.554688 356.964844 366.09375 355.882812 366.605469 C 354.804688 367.117188 353.710938 367.601562 352.605469 368.0625 C 351.5 368.519531 350.386719 368.949219 349.257812 369.355469 C 348.132812 369.757812 346.996094 370.136719 345.851562 370.484375 C 344.707031 370.832031 343.558594 371.152344 342.398438 371.441406 C 341.238281 371.734375 340.070312 371.996094 338.898438 372.234375 C 337.726562 372.46875 336.546875 372.671875 335.363281 372.847656 C 334.179688 373.027344 332.992188 373.175781 331.804688 373.292969 C 330.613281 373.410156 329.421875 373.5 328.226562 373.558594 C 327.03125 373.621094 325.835938 373.652344 324.640625 373.652344 Z M 289.066406 317.40625 C 289.859375 319.078125 290.765625 320.691406 291.789062 322.238281 C 292.808594 323.78125 293.9375 325.25 295.164062 326.636719 C 296.394531 328.023438 297.714844 329.316406 299.125 330.515625 C 300.539062 331.71875 302.027344 332.8125 303.59375 333.804688 C 305.160156 334.792969 306.789062 335.667969 308.476562 336.429688 C 310.167969 337.191406 311.902344 337.828125 313.683594 338.34375 C 315.460938 338.859375 317.269531 339.246094 319.105469 339.507812 C 320.9375 339.769531 322.78125 339.898438 324.636719 339.898438 C 326.488281 339.898438 328.332031 339.769531 330.167969 339.507812 C 332 339.246094 333.808594 338.859375 335.589844 338.34375 C 337.367188 337.828125 339.101562 337.191406 340.792969 336.429688 C 342.484375 335.667969 344.109375 334.792969 345.679688 333.804688 C 347.246094 332.8125 348.734375 331.71875 350.144531 330.515625 C 351.558594 329.316406 352.878906 328.023438 354.105469 326.636719 C 355.335938 325.25 356.460938 323.78125 357.480469 322.238281 C 358.503906 320.691406 359.410156 319.078125 360.207031 317.40625 Z M 289.066406 317.40625 " fill-opacity="1" fill-rule="nonzero"/><path fill="#34495e" d="M 711.382812 735.253906 L 324.640625 735.253906 C 323.015625 735.28125 321.394531 735.230469 319.777344 735.101562 C 318.15625 734.96875 316.546875 734.757812 314.949219 734.46875 C 313.351562 734.175781 311.773438 733.804688 310.210938 733.359375 C 308.652344 732.910156 307.117188 732.382812 305.609375 731.785156 C 304.101562 731.183594 302.625 730.507812 301.183594 729.761719 C 299.742188 729.015625 298.339844 728.195312 296.980469 727.308594 C 295.617188 726.421875 294.304688 725.472656 293.039062 724.453125 C 291.773438 723.4375 290.5625 722.359375 289.402344 721.222656 C 288.246094 720.085938 287.144531 718.890625 286.105469 717.644531 C 285.0625 716.398438 284.089844 715.101562 283.175781 713.757812 C 282.265625 712.414062 281.421875 711.027344 280.648438 709.601562 C 279.875 708.171875 279.171875 706.710938 278.542969 705.210938 C 277.917969 703.714844 277.363281 702.191406 276.886719 700.636719 C 276.410156 699.085938 276.011719 697.511719 275.691406 695.921875 C 275.371094 694.328125 275.132812 692.722656 274.96875 691.109375 C 274.808594 689.492188 274.726562 687.871094 274.726562 686.25 C 274.726562 684.625 274.808594 683.003906 274.96875 681.390625 C 275.132812 679.773438 275.371094 678.167969 275.691406 676.578125 C 276.011719 674.984375 276.410156 673.414062 276.886719 671.859375 C 277.363281 670.308594 277.917969 668.78125 278.542969 667.285156 C 279.171875 665.789062 279.875 664.324219 280.648438 662.898438 C 281.421875 661.46875 282.265625 660.082031 283.175781 658.738281 C 284.085938 657.394531 285.0625 656.097656 286.105469 654.851562 C 287.144531 653.605469 288.242188 652.414062 289.402344 651.273438 C 290.5625 650.136719 291.773438 649.058594 293.039062 648.042969 C 294.304688 647.027344 295.617188 646.074219 296.980469 645.1875 C 298.339844 644.300781 299.742188 643.484375 301.183594 642.734375 C 302.625 641.988281 304.101562 641.3125 305.609375 640.710938 C 307.117188 640.113281 308.652344 639.585938 310.214844 639.140625 C 311.773438 638.691406 313.355469 638.320312 314.949219 638.03125 C 316.550781 637.738281 318.15625 637.527344 319.777344 637.394531 C 321.394531 637.265625 323.015625 637.214844 324.640625 637.242188 L 372.058594 637.242188 L 372.058594 508.453125 C 372.058594 506.882812 372.136719 505.316406 372.292969 503.75 C 372.449219 502.1875 372.679688 500.636719 372.988281 499.09375 C 373.296875 497.554688 373.679688 496.03125 374.136719 494.527344 C 374.59375 493.023438 375.125 491.546875 375.726562 490.097656 C 376.328125 488.644531 377 487.226562 377.742188 485.84375 C 378.480469 484.457031 379.289062 483.109375 380.164062 481.804688 C 381.035156 480.496094 381.96875 479.238281 382.96875 478.023438 C 383.964844 476.808594 385.019531 475.644531 386.128906 474.535156 C 387.242188 473.425781 388.40625 472.371094 389.621094 471.371094 C 390.832031 470.375 392.09375 469.441406 393.398438 468.566406 C 394.707031 467.695312 396.050781 466.886719 397.4375 466.144531 C 398.824219 465.402344 400.242188 464.730469 401.691406 464.128906 C 403.144531 463.527344 404.621094 462.996094 406.125 462.539062 C 407.628906 462.082031 409.148438 461.699219 410.691406 461.390625 C 412.230469 461.085938 413.785156 460.851562 415.347656 460.699219 C 416.910156 460.542969 418.476562 460.460938 420.050781 460.460938 L 711.382812 460.460938 C 712.953125 460.460938 714.519531 460.542969 716.082031 460.695312 C 717.648438 460.851562 719.199219 461.085938 720.742188 461.394531 C 722.28125 461.699219 723.800781 462.082031 725.304688 462.539062 C 726.808594 462.996094 728.285156 463.527344 729.738281 464.128906 C 731.191406 464.730469 732.609375 465.402344 733.992188 466.144531 C 735.378906 466.886719 736.726562 467.695312 738.03125 468.566406 C 739.335938 469.441406 740.597656 470.375 741.8125 471.371094 C 743.027344 472.371094 744.191406 473.421875 745.300781 474.535156 C 746.414062 475.644531 747.464844 476.808594 748.464844 478.023438 C 749.460938 479.238281 750.394531 480.496094 751.269531 481.804688 C 752.140625 483.109375 752.949219 484.457031 753.691406 485.839844 C 754.433594 487.226562 755.105469 488.644531 755.707031 490.097656 C 756.308594 491.546875 756.835938 493.023438 757.292969 494.527344 C 757.75 496.03125 758.132812 497.554688 758.441406 499.09375 C 758.75 500.636719 758.980469 502.1875 759.136719 503.75 C 759.292969 505.316406 759.371094 506.882812 759.375 508.453125 L 759.375 687.277344 C 759.371094 688.847656 759.292969 690.414062 759.136719 691.980469 C 758.984375 693.542969 758.75 695.09375 758.441406 696.636719 C 758.136719 698.175781 757.753906 699.699219 757.296875 701.203125 C 756.839844 702.703125 756.308594 704.179688 755.707031 705.632812 C 755.105469 707.082031 754.433594 708.5 753.691406 709.886719 C 752.949219 711.273438 752.144531 712.617188 751.269531 713.925781 C 750.394531 715.230469 749.460938 716.488281 748.464844 717.703125 C 747.464844 718.917969 746.410156 720.082031 745.300781 721.191406 C 744.191406 722.300781 743.027344 723.355469 741.8125 724.351562 C 740.597656 725.351562 739.335938 726.285156 738.03125 727.15625 C 736.726562 728.03125 735.378906 728.835938 733.992188 729.578125 C 732.609375 730.320312 731.191406 730.992188 729.738281 731.59375 C 728.285156 732.195312 726.808594 732.722656 725.304688 733.179688 C 723.804688 733.636719 722.28125 734.019531 720.742188 734.324219 C 719.199219 734.632812 717.648438 734.863281 716.085938 735.019531 C 714.519531 735.175781 712.953125 735.253906 711.382812 735.253906 Z M 420.050781 701.5 L 711.382812 701.5 C 712.316406 701.5 713.242188 701.40625 714.15625 701.222656 C 715.070312 701.039062 715.960938 700.769531 716.824219 700.414062 C 717.6875 700.054688 718.503906 699.617188 719.28125 699.097656 C 720.058594 698.578125 720.777344 697.988281 721.4375 697.328125 C 722.097656 696.667969 722.6875 695.953125 723.207031 695.175781 C 723.726562 694.398438 724.167969 693.582031 724.527344 692.71875 C 724.886719 691.855469 725.15625 690.96875 725.339844 690.050781 C 725.523438 689.136719 725.617188 688.210938 725.621094 687.277344 L 725.621094 508.4375 C 725.621094 507.503906 725.527344 506.578125 725.34375 505.660156 C 725.160156 504.746094 724.890625 503.855469 724.53125 502.992188 C 724.171875 502.128906 723.734375 501.308594 723.214844 500.53125 C 722.695312 499.753906 722.101562 499.035156 721.441406 498.375 C 720.78125 497.714844 720.0625 497.125 719.285156 496.605469 C 718.507812 496.082031 717.691406 495.644531 716.828125 495.285156 C 715.964844 494.929688 715.074219 494.65625 714.15625 494.472656 C 713.242188 494.292969 712.316406 494.199219 711.382812 494.199219 L 420.050781 494.199219 C 419.113281 494.199219 418.1875 494.292969 417.273438 494.476562 C 416.355469 494.65625 415.464844 494.929688 414.601562 495.289062 C 413.738281 495.644531 412.917969 496.085938 412.140625 496.605469 C 411.363281 497.125 410.644531 497.714844 409.984375 498.375 C 409.324219 499.035156 408.730469 499.753906 408.210938 500.53125 C 407.691406 501.308594 407.253906 502.128906 406.894531 502.992188 C 406.535156 503.855469 406.265625 504.742188 406.078125 505.660156 C 405.894531 506.578125 405.804688 507.503906 405.800781 508.4375 L 405.800781 654.097656 C 405.800781 654.652344 405.773438 655.203125 405.71875 655.753906 C 405.664062 656.300781 405.585938 656.847656 405.476562 657.390625 C 405.367188 657.933594 405.234375 658.46875 405.074219 658.996094 C 404.914062 659.523438 404.726562 660.042969 404.515625 660.554688 C 404.304688 661.066406 404.066406 661.5625 403.808594 662.050781 C 403.546875 662.539062 403.261719 663.011719 402.957031 663.472656 C 402.648438 663.929688 402.320312 664.375 401.96875 664.800781 C 401.617188 665.226562 401.246094 665.636719 400.855469 666.027344 C 400.464844 666.417969 400.058594 666.789062 399.628906 667.140625 C 399.203125 667.488281 398.761719 667.820312 398.300781 668.125 C 397.84375 668.433594 397.367188 668.714844 396.878906 668.976562 C 396.394531 669.238281 395.894531 669.472656 395.382812 669.6875 C 394.875 669.898438 394.355469 670.082031 393.824219 670.242188 C 393.296875 670.402344 392.761719 670.539062 392.21875 670.644531 C 391.679688 670.753906 391.132812 670.835938 390.582031 670.890625 C 390.03125 670.945312 389.480469 670.972656 388.929688 670.972656 L 324.640625 670.972656 C 323.636719 670.972656 322.644531 671.070312 321.660156 671.265625 C 320.675781 671.460938 319.722656 671.75 318.796875 672.132812 C 317.871094 672.515625 316.992188 672.988281 316.15625 673.542969 C 315.324219 674.101562 314.554688 674.734375 313.84375 675.441406 C 313.136719 676.148438 312.503906 676.921875 311.945312 677.753906 C 311.390625 678.585938 310.917969 679.46875 310.535156 680.394531 C 310.152344 681.320312 309.863281 682.273438 309.667969 683.257812 C 309.472656 684.242188 309.375 685.234375 309.375 686.234375 C 309.375 687.238281 309.472656 688.230469 309.667969 689.214844 C 309.863281 690.195312 310.152344 691.152344 310.535156 692.078125 C 310.917969 693.003906 311.390625 693.882812 311.945312 694.714844 C 312.503906 695.550781 313.136719 696.320312 313.84375 697.027344 C 314.554688 697.738281 315.324219 698.371094 316.15625 698.925781 C 316.992188 699.484375 317.871094 699.953125 318.796875 700.335938 C 319.722656 700.722656 320.675781 701.011719 321.660156 701.207031 C 322.644531 701.402344 323.636719 701.5 324.640625 701.5 Z M 420.050781 701.5 " fill-opacity="1" fill-rule="nonzero"/></svg>