<svg xmlns="http://www.w3.org/2000/svg" xmlns:xlink="http://www.w3.org/1999/xlink" width="1080" zoomAndPan="magnify" viewBox="0 0 810 809.999993" height="1080" preserveAspectRatio="xMidYMid meet" version="1.0"><path fill="#34495e" d="M 405 615.933594 C 404.449219 615.933594 403.894531 615.90625 403.347656 615.851562 C 402.796875 615.796875 402.25 615.71875 401.707031 615.609375 C 401.164062 615.503906 400.628906 615.367188 400.101562 615.207031 C 399.570312 615.046875 399.050781 614.863281 398.539062 614.652344 C 398.03125 614.441406 397.53125 614.203125 397.042969 613.941406 C 396.554688 613.683594 396.082031 613.398438 395.621094 613.09375 C 395.164062 612.785156 394.71875 612.457031 394.292969 612.105469 C 393.863281 611.753906 393.457031 611.386719 393.066406 610.996094 C 392.675781 610.601562 392.304688 610.195312 391.953125 609.765625 C 391.601562 609.339844 391.273438 608.894531 390.964844 608.4375 C 390.660156 607.976562 390.375 607.503906 390.113281 607.015625 C 389.855469 606.527344 389.621094 606.027344 389.40625 605.519531 C 389.195312 605.007812 389.011719 604.488281 388.851562 603.957031 C 388.691406 603.429688 388.558594 602.894531 388.449219 602.351562 C 388.34375 601.808594 388.261719 601.261719 388.207031 600.714844 C 388.152344 600.164062 388.128906 599.613281 388.128906 599.058594 L 388.128906 516.082031 C 388.128906 515.53125 388.15625 514.980469 388.210938 514.429688 C 388.261719 513.878906 388.34375 513.332031 388.449219 512.789062 C 388.558594 512.25 388.691406 511.710938 388.855469 511.183594 C 389.015625 510.65625 389.199219 510.136719 389.410156 509.625 C 389.625 509.113281 389.859375 508.613281 390.121094 508.125 C 390.378906 507.640625 390.664062 507.164062 390.972656 506.707031 C 391.277344 506.246094 391.605469 505.804688 391.957031 505.375 C 392.308594 504.949219 392.679688 504.539062 393.070312 504.148438 C 393.460938 503.757812 393.871094 503.386719 394.296875 503.039062 C 394.726562 502.6875 395.167969 502.359375 395.628906 502.050781 C 396.085938 501.742188 396.558594 501.460938 397.046875 501.199219 C 397.535156 500.9375 398.035156 500.703125 398.542969 500.492188 C 399.054688 500.28125 399.578125 500.09375 400.105469 499.933594 C 400.632812 499.773438 401.167969 499.640625 401.710938 499.53125 C 402.253906 499.421875 402.800781 499.34375 403.347656 499.289062 C 403.898438 499.234375 404.453125 499.207031 405.003906 499.207031 C 405.558594 499.207031 406.109375 499.234375 406.65625 499.289062 C 407.207031 499.34375 407.753906 499.421875 408.296875 499.53125 C 408.839844 499.640625 409.375 499.773438 409.902344 499.933594 C 410.429688 500.09375 410.949219 500.28125 411.460938 500.492188 C 411.972656 500.703125 412.472656 500.9375 412.960938 501.199219 C 413.445312 501.460938 413.917969 501.742188 414.378906 502.050781 C 414.839844 502.359375 415.28125 502.6875 415.710938 503.039062 C 416.136719 503.386719 416.546875 503.757812 416.9375 504.148438 C 417.328125 504.539062 417.699219 504.949219 418.050781 505.375 C 418.398438 505.804688 418.726562 506.246094 419.035156 506.707031 C 419.34375 507.167969 419.625 507.640625 419.886719 508.128906 C 420.148438 508.613281 420.382812 509.113281 420.59375 509.625 C 420.808594 510.136719 420.992188 510.65625 421.152344 511.183594 C 421.3125 511.710938 421.449219 512.25 421.554688 512.789062 C 421.664062 513.332031 421.746094 513.878906 421.800781 514.429688 C 421.855469 514.980469 421.878906 515.53125 421.878906 516.082031 L 421.878906 599.058594 C 421.878906 599.613281 421.855469 600.164062 421.800781 600.714844 C 421.746094 601.265625 421.664062 601.8125 421.558594 602.351562 C 421.449219 602.894531 421.316406 603.429688 421.15625 603.960938 C 420.996094 604.488281 420.808594 605.007812 420.597656 605.519531 C 420.386719 606.03125 420.152344 606.53125 419.890625 607.015625 C 419.628906 607.503906 419.34375 607.976562 419.039062 608.4375 C 418.730469 608.898438 418.402344 609.339844 418.050781 609.769531 C 417.699219 610.195312 417.328125 610.605469 416.9375 610.996094 C 416.546875 611.386719 416.136719 611.757812 415.710938 612.105469 C 415.28125 612.457031 414.839844 612.785156 414.378906 613.09375 C 413.921875 613.402344 413.445312 613.683594 412.957031 613.945312 C 412.472656 614.203125 411.972656 614.441406 411.460938 614.652344 C 410.949219 614.863281 410.429688 615.046875 409.902344 615.207031 C 409.371094 615.367188 408.835938 615.503906 408.292969 615.609375 C 407.75 615.71875 407.203125 615.796875 406.65625 615.851562 C 406.105469 615.90625 405.554688 615.933594 405 615.933594 Z M 405 615.933594 " fill-opacity="1" fill-rule="nonzero"/><path fill="#34495e" d="M 759.375 582.300781 C 758.824219 582.300781 758.273438 582.273438 757.722656 582.21875 C 757.171875 582.167969 756.625 582.085938 756.082031 581.976562 C 755.542969 581.871094 755.007812 581.738281 754.476562 581.578125 C 753.949219 581.417969 753.429688 581.230469 752.917969 581.019531 C 752.40625 580.808594 751.910156 580.574219 751.421875 580.3125 C 750.933594 580.050781 750.460938 579.769531 750 579.460938 C 749.539062 579.152344 749.097656 578.824219 748.671875 578.476562 C 748.242188 578.125 747.832031 577.753906 747.441406 577.363281 C 747.050781 576.972656 746.683594 576.5625 746.332031 576.136719 C 745.980469 575.707031 745.652344 575.265625 745.34375 574.804688 C 745.039062 574.347656 744.753906 573.871094 744.496094 573.386719 C 744.234375 572.898438 743.996094 572.398438 743.785156 571.886719 C 743.574219 571.375 743.390625 570.855469 743.230469 570.328125 C 743.070312 569.796875 742.933594 569.261719 742.828125 568.722656 C 742.71875 568.179688 742.636719 567.632812 742.582031 567.082031 C 742.53125 566.53125 742.503906 565.980469 742.503906 565.429688 L 742.503906 177.1875 L 638.296875 177.1875 C 604.089844 177.1875 587.347656 178.554688 558.996094 192.359375 C 558.5 192.601562 557.992188 192.820312 557.472656 193.015625 C 556.957031 193.207031 556.429688 193.375 555.894531 193.515625 C 555.359375 193.660156 554.816406 193.773438 554.269531 193.863281 C 553.722656 193.949219 553.175781 194.011719 552.621094 194.046875 C 552.070312 194.082031 551.515625 194.089844 550.964844 194.066406 C 550.410156 194.046875 549.859375 194 549.308594 193.925781 C 548.761719 193.851562 548.21875 193.75 547.679688 193.625 C 547.140625 193.496094 546.609375 193.34375 546.085938 193.164062 C 545.5625 192.984375 545.050781 192.777344 544.546875 192.546875 C 544.042969 192.316406 543.554688 192.0625 543.074219 191.78125 C 542.597656 191.503906 542.132812 191.203125 541.683594 190.878906 C 541.238281 190.554688 540.804688 190.207031 540.390625 189.839844 C 539.976562 189.476562 539.582031 189.089844 539.203125 188.683594 C 538.828125 188.277344 538.472656 187.851562 538.136719 187.414062 C 537.804688 186.972656 537.492188 186.515625 537.199219 186.042969 C 536.910156 185.574219 536.644531 185.089844 536.402344 184.589844 C 536.160156 184.09375 535.945312 183.585938 535.75 183.066406 C 535.558594 182.546875 535.390625 182.019531 535.25 181.484375 C 535.109375 180.945312 534.996094 180.40625 534.910156 179.859375 C 534.824219 179.3125 534.765625 178.765625 534.730469 178.210938 C 534.699219 177.65625 534.691406 177.105469 534.714844 176.550781 C 534.734375 176 534.78125 175.449219 534.859375 174.898438 C 534.933594 174.351562 535.039062 173.808594 535.167969 173.269531 C 535.296875 172.730469 535.449219 172.199219 535.632812 171.679688 C 535.8125 171.15625 536.019531 170.644531 536.253906 170.140625 C 536.484375 169.636719 536.738281 169.148438 537.019531 168.671875 C 537.300781 168.191406 537.601562 167.730469 537.929688 167.28125 C 538.253906 166.835938 538.601562 166.40625 538.96875 165.992188 C 539.335938 165.578125 539.722656 165.183594 540.132812 164.808594 C 540.539062 164.433594 540.960938 164.078125 541.402344 163.742188 C 541.847656 163.410156 542.304688 163.097656 542.773438 162.8125 C 543.246094 162.523438 543.734375 162.257812 544.230469 162.015625 C 577.070312 146.019531 598.859375 143.433594 638.296875 143.433594 L 759.375 143.433594 C 759.929688 143.433594 760.480469 143.460938 761.03125 143.515625 C 761.578125 143.570312 762.125 143.648438 762.667969 143.757812 C 763.210938 143.867188 763.746094 144 764.273438 144.160156 C 764.804688 144.320312 765.324219 144.503906 765.832031 144.714844 C 766.34375 144.929688 766.84375 145.164062 767.332031 145.425781 C 767.816406 145.683594 768.289062 145.96875 768.75 146.277344 C 769.210938 146.582031 769.652344 146.910156 770.082031 147.261719 C 770.507812 147.613281 770.917969 147.984375 771.308594 148.375 C 771.699219 148.765625 772.070312 149.175781 772.421875 149.601562 C 772.769531 150.027344 773.101562 150.472656 773.40625 150.929688 C 773.714844 151.390625 773.996094 151.863281 774.257812 152.351562 C 774.519531 152.839844 774.753906 153.339844 774.964844 153.847656 C 775.175781 154.359375 775.363281 154.878906 775.523438 155.410156 C 775.683594 155.9375 775.816406 156.472656 775.925781 157.015625 C 776.03125 157.558594 776.113281 158.101562 776.167969 158.652344 C 776.222656 159.203125 776.25 159.753906 776.246094 160.308594 L 776.246094 565.445312 C 776.246094 565.996094 776.21875 566.546875 776.164062 567.097656 C 776.109375 567.648438 776.027344 568.191406 775.921875 568.734375 C 775.8125 569.277344 775.679688 569.808594 775.519531 570.339844 C 775.359375 570.867188 775.171875 571.386719 774.960938 571.898438 C 774.75 572.40625 774.511719 572.90625 774.253906 573.394531 C 773.992188 573.878906 773.707031 574.351562 773.402344 574.8125 C 773.09375 575.269531 772.765625 575.714844 772.414062 576.140625 C 772.0625 576.566406 771.691406 576.976562 771.300781 577.367188 C 770.910156 577.757812 770.5 578.128906 770.074219 578.476562 C 769.648438 578.828125 769.203125 579.15625 768.746094 579.464844 C 768.285156 579.769531 767.8125 580.050781 767.324219 580.3125 C 766.839844 580.574219 766.339844 580.808594 765.828125 581.019531 C 765.320312 581.230469 764.800781 581.417969 764.269531 581.578125 C 763.742188 581.738281 763.207031 581.871094 762.664062 581.976562 C 762.121094 582.085938 761.578125 582.167969 761.027344 582.21875 C 760.476562 582.273438 759.925781 582.300781 759.375 582.300781 Z M 759.375 582.300781 " fill-opacity="1" fill-rule="nonzero"/><path fill="#34495e" d="M 50.625 582.300781 C 50.074219 582.300781 49.523438 582.277344 48.972656 582.222656 C 48.421875 582.167969 47.875 582.085938 47.335938 581.980469 C 46.792969 581.871094 46.257812 581.738281 45.730469 581.582031 C 45.199219 581.421875 44.679688 581.234375 44.171875 581.023438 C 43.660156 580.8125 43.160156 580.578125 42.675781 580.316406 C 42.1875 580.058594 41.714844 579.773438 41.253906 579.46875 C 40.792969 579.160156 40.351562 578.832031 39.921875 578.480469 C 39.496094 578.132812 39.085938 577.761719 38.695312 577.371094 C 38.304688 576.980469 37.9375 576.570312 37.585938 576.144531 C 37.234375 575.71875 36.90625 575.273438 36.597656 574.816406 C 36.292969 574.355469 36.007812 573.882812 35.746094 573.394531 C 35.488281 572.910156 35.25 572.410156 35.039062 571.898438 C 34.828125 571.390625 34.640625 570.871094 34.480469 570.339844 C 34.320312 569.8125 34.1875 569.277344 34.078125 568.734375 C 33.96875 568.195312 33.890625 567.648438 33.835938 567.097656 C 33.78125 566.546875 33.753906 565.996094 33.753906 565.445312 L 33.753906 160.308594 C 33.75 159.753906 33.777344 159.203125 33.832031 158.652344 C 33.886719 158.101562 33.964844 157.554688 34.074219 157.015625 C 34.179688 156.472656 34.316406 155.9375 34.476562 155.40625 C 34.636719 154.878906 34.820312 154.359375 35.03125 153.847656 C 35.242188 153.335938 35.480469 152.839844 35.738281 152.351562 C 36 151.863281 36.285156 151.390625 36.589844 150.929688 C 36.898438 150.46875 37.226562 150.027344 37.578125 149.597656 C 37.929688 149.171875 38.296875 148.761719 38.6875 148.371094 C 39.082031 147.980469 39.488281 147.609375 39.917969 147.261719 C 40.34375 146.910156 40.789062 146.582031 41.246094 146.273438 C 41.707031 145.964844 42.179688 145.683594 42.667969 145.421875 C 43.15625 145.164062 43.65625 144.925781 44.164062 144.714844 C 44.675781 144.503906 45.195312 144.316406 45.726562 144.15625 C 46.253906 143.996094 46.789062 143.863281 47.332031 143.757812 C 47.875 143.648438 48.421875 143.570312 48.972656 143.515625 C 49.519531 143.460938 50.070312 143.433594 50.625 143.433594 L 171.703125 143.433594 C 187.707031 143.40625 203.566406 144.90625 219.28125 147.941406 C 234.996094 150.972656 250.277344 155.476562 265.121094 161.457031 C 270.695312 163.699219 274.839844 165.117188 278.285156 166.316406 C 284.011719 168.074219 289.496094 170.40625 294.734375 173.308594 C 299.972656 176.214844 304.855469 179.632812 309.378906 183.5625 C 309.8125 183.90625 310.226562 184.269531 310.625 184.652344 C 311.023438 185.035156 311.402344 185.4375 311.761719 185.859375 C 312.117188 186.277344 312.453125 186.714844 312.769531 187.167969 C 313.085938 187.621094 313.378906 188.089844 313.644531 188.574219 C 313.914062 189.054688 314.160156 189.550781 314.382812 190.054688 C 314.601562 190.5625 314.796875 191.078125 314.96875 191.605469 C 315.136719 192.128906 315.28125 192.664062 315.398438 193.203125 C 315.515625 193.742188 315.605469 194.285156 315.671875 194.835938 C 315.734375 195.382812 315.773438 195.933594 315.78125 196.484375 C 315.792969 197.039062 315.777344 197.589844 315.730469 198.140625 C 315.6875 198.691406 315.617188 199.238281 315.519531 199.78125 C 315.421875 200.324219 315.296875 200.863281 315.144531 201.394531 C 314.996094 201.925781 314.820312 202.449219 314.617188 202.964844 C 314.414062 203.476562 314.1875 203.980469 313.9375 204.472656 C 313.683594 204.964844 313.410156 205.441406 313.109375 205.90625 C 312.8125 206.371094 312.492188 206.820312 312.148438 207.253906 C 311.808594 207.6875 311.445312 208.105469 311.058594 208.5 C 310.675781 208.898438 310.273438 209.277344 309.855469 209.636719 C 309.433594 209.992188 308.996094 210.328125 308.542969 210.644531 C 308.089844 210.960938 307.621094 211.253906 307.140625 211.519531 C 306.65625 211.789062 306.164062 212.035156 305.65625 212.257812 C 305.148438 212.476562 304.632812 212.671875 304.109375 212.84375 C 303.582031 213.011719 303.050781 213.15625 302.511719 213.273438 C 301.96875 213.390625 301.425781 213.484375 300.875 213.546875 C 300.328125 213.609375 299.777344 213.648438 299.226562 213.65625 C 298.675781 213.667969 298.121094 213.652344 297.570312 213.605469 C 297.019531 213.5625 296.472656 213.492188 295.929688 213.394531 C 295.386719 213.296875 294.847656 213.171875 294.316406 213.019531 C 293.785156 212.871094 293.261719 212.695312 292.75 212.492188 C 292.234375 212.289062 291.730469 212.0625 291.238281 211.8125 C 290.746094 211.558594 290.269531 211.285156 289.804688 210.988281 C 289.339844 210.6875 288.890625 210.367188 288.457031 210.023438 C 285.425781 207.289062 282.128906 204.925781 278.5625 202.9375 C 274.996094 200.949219 271.253906 199.386719 267.332031 198.246094 C 263.4375 196.9375 258.792969 195.308594 252.519531 192.796875 C 239.675781 187.625 226.457031 183.726562 212.863281 181.101562 C 199.269531 178.480469 185.550781 177.179688 171.703125 177.203125 L 67.503906 177.203125 L 67.503906 565.445312 C 67.503906 565.996094 67.476562 566.546875 67.425781 567.097656 C 67.371094 567.648438 67.289062 568.195312 67.179688 568.734375 C 67.074219 569.277344 66.941406 569.8125 66.777344 570.34375 C 66.617188 570.871094 66.433594 571.390625 66.21875 571.902344 C 66.007812 572.410156 65.773438 572.910156 65.511719 573.398438 C 65.253906 573.882812 64.96875 574.359375 64.660156 574.816406 C 64.351562 575.277344 64.023438 575.71875 63.671875 576.148438 C 63.324219 576.574219 62.953125 576.980469 62.558594 577.371094 C 62.167969 577.761719 61.761719 578.132812 61.332031 578.484375 C 60.90625 578.835938 60.460938 579.164062 60.003906 579.46875 C 59.542969 579.777344 59.070312 580.058594 58.582031 580.320312 C 58.09375 580.578125 57.59375 580.8125 57.082031 581.023438 C 56.570312 581.234375 56.050781 581.421875 55.523438 581.582031 C 54.996094 581.742188 54.460938 581.875 53.917969 581.980469 C 53.375 582.089844 52.828125 582.167969 52.277344 582.222656 C 51.730469 582.277344 51.179688 582.300781 50.625 582.300781 Z M 50.625 582.300781 " fill-opacity="1" fill-rule="nonzero"/><path fill="#34495e" d="M 405 683.4375 L 84.378906 683.4375 C 56.464844 683.4375 33.753906 658.207031 33.753906 627.191406 L 33.753906 548.433594 C 33.75 547.882812 33.777344 547.332031 33.832031 546.78125 C 33.886719 546.230469 33.964844 545.683594 34.074219 545.140625 C 34.179688 544.601562 34.316406 544.066406 34.476562 543.535156 C 34.636719 543.007812 34.820312 542.488281 35.03125 541.976562 C 35.242188 541.464844 35.480469 540.964844 35.738281 540.480469 C 36 539.992188 36.285156 539.519531 36.589844 539.058594 C 36.898438 538.597656 37.226562 538.15625 37.578125 537.726562 C 37.929688 537.300781 38.296875 536.890625 38.6875 536.5 C 39.082031 536.109375 39.488281 535.738281 39.917969 535.386719 C 40.34375 535.039062 40.789062 534.707031 41.246094 534.402344 C 41.707031 534.09375 42.179688 533.808594 42.667969 533.550781 C 43.15625 533.289062 43.65625 533.054688 44.164062 532.84375 C 44.675781 532.632812 45.195312 532.445312 45.726562 532.285156 C 46.253906 532.125 46.789062 531.992188 47.332031 531.882812 C 47.875 531.777344 48.421875 531.695312 48.972656 531.644531 C 49.519531 531.589844 50.070312 531.5625 50.625 531.5625 L 272.441406 531.5625 C 332.617188 531.5625 421.871094 587.046875 421.871094 663.714844 L 421.871094 666.566406 C 421.871094 667.117188 421.847656 667.667969 421.792969 668.21875 C 421.738281 668.769531 421.65625 669.316406 421.550781 669.855469 C 421.441406 670.398438 421.308594 670.933594 421.148438 671.464844 C 420.988281 671.992188 420.800781 672.511719 420.589844 673.023438 C 420.378906 673.535156 420.144531 674.035156 419.882812 674.519531 C 419.621094 675.007812 419.339844 675.480469 419.03125 675.941406 C 418.726562 676.398438 418.394531 676.84375 418.046875 677.269531 C 417.695312 677.699219 417.324219 678.109375 416.933594 678.5 C 416.542969 678.890625 416.132812 679.257812 415.707031 679.609375 C 415.28125 679.960938 414.835938 680.289062 414.375 680.597656 C 413.917969 680.902344 413.445312 681.1875 412.957031 681.449219 C 412.46875 681.707031 411.96875 681.945312 411.457031 682.15625 C 410.945312 682.367188 410.425781 682.550781 409.898438 682.710938 C 409.371094 682.871094 408.835938 683.007812 408.292969 683.113281 C 407.75 683.222656 407.203125 683.304688 406.652344 683.355469 C 406.105469 683.410156 405.554688 683.4375 405 683.4375 Z M 67.496094 565.316406 L 67.496094 627.199219 C 67.496094 639.398438 75.222656 649.691406 84.371094 649.691406 L 386.5625 649.691406 C 376.035156 602.023438 314.101562 565.316406 272.433594 565.316406 Z M 67.496094 565.316406 " fill-opacity="1" fill-rule="nonzero"/><path fill="#34495e" d="M 135.003906 624.378906 L 50.625 624.378906 C 50.070312 624.378906 49.519531 624.351562 48.96875 624.300781 C 48.421875 624.246094 47.875 624.164062 47.332031 624.054688 C 46.789062 623.949219 46.253906 623.8125 45.726562 623.652344 C 45.195312 623.492188 44.675781 623.304688 44.164062 623.09375 C 43.65625 622.882812 43.15625 622.648438 42.667969 622.386719 C 42.179688 622.125 41.707031 621.84375 41.246094 621.535156 C 40.789062 621.230469 40.34375 620.898438 39.917969 620.550781 C 39.492188 620.199219 39.082031 619.828125 38.691406 619.4375 C 38.300781 619.046875 37.929688 618.636719 37.578125 618.210938 C 37.226562 617.78125 36.898438 617.339844 36.589844 616.878906 C 36.285156 616.421875 36 615.945312 35.742188 615.460938 C 35.480469 614.972656 35.242188 614.472656 35.03125 613.960938 C 34.820312 613.449219 34.636719 612.929688 34.472656 612.402344 C 34.3125 611.875 34.179688 611.339844 34.070312 610.796875 C 33.964844 610.253906 33.882812 609.707031 33.828125 609.160156 C 33.777344 608.609375 33.75 608.058594 33.75 607.503906 C 33.75 606.953125 33.777344 606.398438 33.828125 605.851562 C 33.882812 605.300781 33.964844 604.753906 34.070312 604.210938 C 34.179688 603.667969 34.3125 603.132812 34.476562 602.605469 C 34.636719 602.078125 34.820312 601.554688 35.03125 601.046875 C 35.242188 600.535156 35.480469 600.035156 35.742188 599.550781 C 36 599.0625 36.285156 598.585938 36.589844 598.128906 C 36.898438 597.667969 37.226562 597.226562 37.578125 596.796875 C 37.929688 596.371094 38.300781 595.960938 38.691406 595.570312 C 39.082031 595.179688 39.492188 594.808594 39.917969 594.457031 C 40.34375 594.109375 40.789062 593.777344 41.246094 593.472656 C 41.707031 593.164062 42.179688 592.882812 42.667969 592.621094 C 43.15625 592.359375 43.65625 592.125 44.164062 591.914062 C 44.675781 591.699219 45.195312 591.515625 45.726562 591.355469 C 46.253906 591.195312 46.789062 591.058594 47.332031 590.953125 C 47.875 590.84375 48.421875 590.761719 48.96875 590.710938 C 49.519531 590.65625 50.070312 590.628906 50.625 590.628906 L 135.003906 590.628906 C 135.554688 590.628906 136.105469 590.65625 136.65625 590.710938 C 137.207031 590.761719 137.753906 590.84375 138.292969 590.953125 C 138.835938 591.058594 139.371094 591.195312 139.902344 591.355469 C 140.429688 591.515625 140.949219 591.699219 141.460938 591.914062 C 141.96875 592.125 142.46875 592.359375 142.957031 592.621094 C 143.445312 592.882812 143.917969 593.164062 144.378906 593.472656 C 144.835938 593.777344 145.28125 594.109375 145.707031 594.457031 C 146.136719 594.808594 146.542969 595.179688 146.933594 595.570312 C 147.328125 595.960938 147.695312 596.371094 148.046875 596.796875 C 148.398438 597.226562 148.726562 597.667969 149.035156 598.128906 C 149.339844 598.585938 149.625 599.0625 149.886719 599.550781 C 150.144531 600.035156 150.382812 600.535156 150.59375 601.046875 C 150.804688 601.554688 150.992188 602.078125 151.152344 602.605469 C 151.3125 603.132812 151.445312 603.667969 151.554688 604.210938 C 151.660156 604.753906 151.742188 605.300781 151.796875 605.851562 C 151.851562 606.398438 151.878906 606.953125 151.878906 607.503906 C 151.878906 608.058594 151.851562 608.609375 151.796875 609.160156 C 151.742188 609.707031 151.660156 610.253906 151.554688 610.796875 C 151.445312 611.339844 151.3125 611.875 151.152344 612.402344 C 150.992188 612.929688 150.804688 613.449219 150.59375 613.960938 C 150.382812 614.472656 150.144531 614.972656 149.886719 615.460938 C 149.625 615.945312 149.339844 616.421875 149.035156 616.878906 C 148.726562 617.339844 148.398438 617.78125 148.046875 618.210938 C 147.695312 618.636719 147.328125 619.046875 146.933594 619.4375 C 146.542969 619.828125 146.136719 620.199219 145.707031 620.550781 C 145.28125 620.898438 144.835938 621.230469 144.378906 621.535156 C 143.917969 621.84375 143.445312 622.125 142.957031 622.386719 C 142.46875 622.648438 141.96875 622.882812 141.460938 623.09375 C 140.949219 623.304688 140.429688 623.492188 139.902344 623.652344 C 139.371094 623.8125 138.835938 623.949219 138.292969 624.054688 C 137.753906 624.164062 137.207031 624.246094 136.65625 624.300781 C 136.105469 624.351562 135.554688 624.378906 135.003906 624.378906 Z M 135.003906 624.378906 " fill-opacity="1" fill-rule="nonzero"/><path fill="#34495e" d="M 725.628906 683.4375 L 405 683.4375 C 404.449219 683.4375 403.898438 683.410156 403.347656 683.359375 C 402.796875 683.304688 402.25 683.222656 401.707031 683.117188 C 401.167969 683.007812 400.628906 682.875 400.101562 682.714844 C 399.574219 682.554688 399.054688 682.367188 398.542969 682.15625 C 398.03125 681.945312 397.535156 681.710938 397.046875 681.449219 C 396.558594 681.1875 396.085938 680.90625 395.625 680.597656 C 395.164062 680.289062 394.722656 679.960938 394.296875 679.609375 C 393.867188 679.261719 393.457031 678.890625 393.066406 678.5 C 392.675781 678.109375 392.308594 677.699219 391.957031 677.273438 C 391.605469 676.84375 391.277344 676.402344 390.96875 675.941406 C 390.664062 675.480469 390.378906 675.007812 390.117188 674.519531 C 389.859375 674.035156 389.621094 673.535156 389.410156 673.023438 C 389.199219 672.511719 389.015625 671.992188 388.851562 671.464844 C 388.691406 670.933594 388.558594 670.398438 388.449219 669.859375 C 388.34375 669.316406 388.261719 668.769531 388.207031 668.21875 C 388.15625 667.667969 388.128906 667.117188 388.128906 666.566406 L 388.128906 663.714844 C 388.128906 587.046875 477.382812 531.5625 537.554688 531.5625 L 759.375 531.5625 C 759.929688 531.5625 760.480469 531.589844 761.03125 531.644531 C 761.578125 531.699219 762.125 531.777344 762.667969 531.886719 C 763.210938 531.992188 763.746094 532.128906 764.273438 532.289062 C 764.804688 532.449219 765.324219 532.632812 765.832031 532.84375 C 766.34375 533.054688 766.84375 533.292969 767.328125 533.554688 C 767.816406 533.8125 768.289062 534.097656 768.75 534.402344 C 769.210938 534.710938 769.65625 535.039062 770.082031 535.390625 C 770.507812 535.742188 770.917969 536.113281 771.308594 536.503906 C 771.699219 536.894531 772.070312 537.300781 772.417969 537.730469 C 772.769531 538.15625 773.101562 538.601562 773.40625 539.058594 C 773.714844 539.519531 773.996094 539.992188 774.257812 540.480469 C 774.519531 540.96875 774.753906 541.464844 774.964844 541.976562 C 775.175781 542.488281 775.363281 543.007812 775.523438 543.535156 C 775.683594 544.066406 775.816406 544.601562 775.925781 545.144531 C 776.03125 545.683594 776.113281 546.230469 776.167969 546.78125 C 776.222656 547.332031 776.25 547.882812 776.246094 548.433594 L 776.246094 627.191406 C 776.253906 658.207031 753.535156 683.4375 725.628906 683.4375 Z M 423.4375 649.683594 L 725.628906 649.683594 C 734.777344 649.683594 742.503906 639.390625 742.503906 627.191406 L 742.503906 565.308594 L 537.574219 565.308594 C 495.859375 565.316406 433.957031 602.03125 423.425781 649.683594 Z M 423.4375 649.683594 " fill-opacity="1" fill-rule="nonzero"/><path fill="#34495e" d="M 759.375 624.378906 L 674.996094 624.378906 C 674.445312 624.378906 673.894531 624.351562 673.34375 624.300781 C 672.792969 624.246094 672.246094 624.164062 671.703125 624.054688 C 671.160156 623.949219 670.625 623.8125 670.097656 623.652344 C 669.570312 623.492188 669.046875 623.304688 668.539062 623.09375 C 668.027344 622.882812 667.527344 622.648438 667.042969 622.386719 C 666.554688 622.125 666.078125 621.84375 665.621094 621.535156 C 665.160156 621.230469 664.71875 620.898438 664.289062 620.550781 C 663.863281 620.199219 663.453125 619.828125 663.0625 619.4375 C 662.671875 619.046875 662.300781 618.636719 661.953125 618.210938 C 661.601562 617.78125 661.273438 617.339844 660.964844 616.878906 C 660.65625 616.421875 660.375 615.945312 660.113281 615.460938 C 659.851562 614.972656 659.617188 614.472656 659.40625 613.960938 C 659.191406 613.449219 659.007812 612.929688 658.847656 612.402344 C 658.6875 611.875 658.554688 611.339844 658.445312 610.796875 C 658.335938 610.253906 658.257812 609.707031 658.203125 609.160156 C 658.148438 608.609375 658.121094 608.058594 658.121094 607.503906 C 658.121094 606.953125 658.148438 606.398438 658.203125 605.851562 C 658.257812 605.300781 658.335938 604.753906 658.445312 604.210938 C 658.550781 603.667969 658.6875 603.132812 658.847656 602.605469 C 659.007812 602.078125 659.191406 601.554688 659.40625 601.046875 C 659.617188 600.535156 659.851562 600.035156 660.113281 599.550781 C 660.375 599.0625 660.65625 598.585938 660.964844 598.128906 C 661.273438 597.667969 661.601562 597.226562 661.953125 596.796875 C 662.300781 596.371094 662.671875 595.960938 663.0625 595.570312 C 663.453125 595.179688 663.863281 594.808594 664.289062 594.457031 C 664.71875 594.109375 665.160156 593.777344 665.621094 593.472656 C 666.078125 593.164062 666.554688 592.882812 667.042969 592.621094 C 667.527344 592.359375 668.027344 592.125 668.539062 591.914062 C 669.046875 591.699219 669.570312 591.515625 670.097656 591.355469 C 670.625 591.195312 671.160156 591.058594 671.703125 590.953125 C 672.246094 590.84375 672.792969 590.761719 673.34375 590.710938 C 673.894531 590.65625 674.445312 590.628906 674.996094 590.628906 L 759.375 590.628906 C 759.925781 590.628906 760.480469 590.65625 761.027344 590.710938 C 761.578125 590.761719 762.125 590.84375 762.667969 590.953125 C 763.207031 591.058594 763.746094 591.195312 764.273438 591.355469 C 764.800781 591.515625 765.320312 591.699219 765.832031 591.914062 C 766.34375 592.125 766.84375 592.359375 767.328125 592.621094 C 767.816406 592.882812 768.289062 593.164062 768.75 593.472656 C 769.210938 593.777344 769.652344 594.109375 770.082031 594.457031 C 770.507812 594.808594 770.917969 595.179688 771.308594 595.570312 C 771.699219 595.960938 772.070312 596.371094 772.417969 596.796875 C 772.769531 597.226562 773.097656 597.667969 773.40625 598.128906 C 773.714844 598.585938 773.996094 599.0625 774.257812 599.550781 C 774.519531 600.035156 774.753906 600.535156 774.964844 601.046875 C 775.175781 601.554688 775.363281 602.078125 775.523438 602.605469 C 775.683594 603.132812 775.816406 603.667969 775.925781 604.210938 C 776.035156 604.753906 776.117188 605.300781 776.167969 605.851562 C 776.222656 606.398438 776.25 606.953125 776.25 607.503906 C 776.25 608.058594 776.222656 608.609375 776.167969 609.160156 C 776.117188 609.707031 776.035156 610.253906 775.925781 610.796875 C 775.816406 611.339844 775.683594 611.875 775.523438 612.402344 C 775.363281 612.929688 775.175781 613.449219 774.964844 613.960938 C 774.753906 614.472656 774.519531 614.972656 774.257812 615.460938 C 773.996094 615.945312 773.714844 616.421875 773.40625 616.878906 C 773.097656 617.339844 772.769531 617.78125 772.421875 618.210938 C 772.070312 618.636719 771.699219 619.046875 771.308594 619.4375 C 770.917969 619.828125 770.507812 620.199219 770.082031 620.550781 C 769.652344 620.898438 769.210938 621.230469 768.75 621.535156 C 768.289062 621.84375 767.816406 622.125 767.328125 622.386719 C 766.84375 622.648438 766.34375 622.882812 765.832031 623.09375 C 765.320312 623.304688 764.800781 623.492188 764.273438 623.652344 C 763.746094 623.8125 763.207031 623.949219 762.667969 624.054688 C 762.125 624.164062 761.578125 624.246094 761.027344 624.300781 C 760.480469 624.351562 759.925781 624.378906 759.375 624.378906 Z M 759.375 624.378906 " fill-opacity="1" fill-rule="nonzero"/><path fill="#009688" d="M 397.984375 467.320312 C 397.433594 467.320312 396.882812 467.296875 396.332031 467.242188 C 395.78125 467.1875 395.234375 467.105469 394.691406 467 C 394.152344 466.890625 393.617188 466.757812 393.085938 466.597656 C 392.558594 466.4375 392.039062 466.253906 391.527344 466.042969 C 391.015625 465.832031 390.515625 465.59375 390.027344 465.332031 C 389.542969 465.074219 389.066406 464.789062 388.609375 464.484375 C 388.148438 464.175781 387.703125 463.847656 387.277344 463.496094 C 386.851562 463.144531 386.441406 462.773438 386.050781 462.382812 C 385.660156 461.992188 385.289062 461.582031 384.9375 461.15625 C 384.585938 460.730469 384.257812 460.285156 383.953125 459.828125 C 383.644531 459.367188 383.363281 458.894531 383.101562 458.40625 C 382.839844 457.917969 382.605469 457.417969 382.394531 456.910156 C 382.183594 456.398438 381.996094 455.878906 381.835938 455.347656 C 381.675781 454.820312 381.542969 454.285156 381.433594 453.742188 C 381.328125 453.199219 381.246094 452.652344 381.195312 452.101562 C 381.140625 451.554688 381.113281 451.003906 381.113281 450.449219 L 381.113281 355.945312 L 316.46875 355.945312 C 315.808594 355.945312 315.15625 355.910156 314.5 355.832031 C 313.847656 355.757812 313.203125 355.644531 312.5625 355.492188 C 311.921875 355.339844 311.296875 355.148438 310.679688 354.925781 C 310.058594 354.699219 309.457031 354.4375 308.871094 354.144531 C 308.285156 353.847656 307.714844 353.519531 307.167969 353.15625 C 306.617188 352.796875 306.09375 352.402344 305.589844 351.976562 C 305.085938 351.554688 304.609375 351.101562 304.160156 350.625 C 303.710938 350.144531 303.289062 349.640625 302.898438 349.113281 C 302.507812 348.585938 302.148438 348.035156 301.824219 347.464844 C 301.496094 346.894531 301.203125 346.308594 300.945312 345.703125 C 300.6875 345.097656 300.464844 344.480469 300.28125 343.851562 C 300.09375 343.21875 299.945312 342.582031 299.835938 341.933594 C 299.722656 341.285156 299.652344 340.632812 299.617188 339.976562 C 299.582031 339.320312 299.582031 338.664062 299.625 338.007812 C 299.667969 337.351562 299.746094 336.699219 299.867188 336.054688 C 299.984375 335.40625 300.140625 334.769531 300.332031 334.140625 L 360.117188 138.511719 C 360.378906 137.652344 360.707031 136.816406 361.101562 136.011719 C 361.496094 135.203125 361.953125 134.433594 362.46875 133.699219 C 362.988281 132.964844 363.558594 132.277344 364.1875 131.636719 C 364.816406 130.992188 365.488281 130.40625 366.210938 129.871094 C 366.933594 129.335938 367.691406 128.863281 368.492188 128.449219 C 369.289062 128.035156 370.113281 127.6875 370.964844 127.410156 C 371.820312 127.128906 372.6875 126.917969 373.574219 126.773438 C 374.460938 126.632812 375.355469 126.5625 376.253906 126.5625 L 512.113281 126.5625 C 512.773438 126.5625 513.425781 126.601562 514.078125 126.679688 C 514.730469 126.753906 515.375 126.871094 516.015625 127.023438 C 516.65625 127.175781 517.28125 127.363281 517.902344 127.589844 C 518.519531 127.8125 519.121094 128.074219 519.707031 128.371094 C 520.292969 128.667969 520.859375 128.996094 521.410156 129.359375 C 521.957031 129.71875 522.480469 130.113281 522.984375 130.535156 C 523.484375 130.960938 523.960938 131.410156 524.410156 131.890625 C 524.859375 132.371094 525.28125 132.875 525.671875 133.402344 C 526.0625 133.929688 526.421875 134.480469 526.75 135.050781 C 527.074219 135.621094 527.367188 136.207031 527.625 136.8125 C 527.882812 137.414062 528.105469 138.03125 528.292969 138.664062 C 528.480469 139.292969 528.628906 139.929688 528.738281 140.578125 C 528.851562 141.226562 528.925781 141.878906 528.960938 142.535156 C 528.996094 143.191406 528.992188 143.847656 528.949219 144.503906 C 528.910156 145.15625 528.828125 145.808594 528.710938 146.457031 C 528.597656 147.101562 528.441406 147.738281 528.25 148.367188 L 496.367188 252.703125 L 561.015625 252.703125 C 561.828125 252.703125 562.632812 252.761719 563.4375 252.875 C 564.242188 252.992188 565.03125 253.164062 565.8125 253.394531 C 566.589844 253.625 567.347656 253.910156 568.085938 254.25 C 568.824219 254.589844 569.535156 254.980469 570.214844 255.421875 C 570.894531 255.863281 571.542969 256.351562 572.152344 256.886719 C 572.761719 257.421875 573.332031 258 573.859375 258.617188 C 574.386719 259.234375 574.867188 259.886719 575.300781 260.574219 C 575.734375 261.261719 576.113281 261.976562 576.445312 262.71875 C 576.777344 263.460938 577.050781 264.21875 577.269531 265.003906 C 577.492188 265.785156 577.652344 266.578125 577.757812 267.382812 C 577.863281 268.1875 577.910156 268.996094 577.898438 269.808594 C 577.890625 270.621094 577.820312 271.425781 577.691406 272.230469 C 577.566406 273.03125 577.378906 273.820312 577.136719 274.59375 C 576.898438 275.371094 576.601562 276.125 576.25 276.855469 C 575.898438 277.589844 575.5 278.292969 575.046875 278.96875 C 574.59375 279.640625 574.097656 280.28125 573.554688 280.882812 L 410.539062 461.75 C 409.746094 462.625 408.871094 463.414062 407.914062 464.105469 C 406.957031 464.800781 405.9375 465.386719 404.855469 465.867188 C 403.773438 466.347656 402.652344 466.710938 401.496094 466.953125 C 400.339844 467.199219 399.167969 467.320312 397.984375 467.320312 Z M 339.261719 322.195312 L 397.984375 322.195312 C 398.539062 322.191406 399.089844 322.21875 399.640625 322.273438 C 400.191406 322.328125 400.738281 322.40625 401.277344 322.515625 C 401.820312 322.621094 402.355469 322.757812 402.886719 322.914062 C 403.414062 323.074219 403.933594 323.261719 404.445312 323.472656 C 404.957031 323.683594 405.453125 323.921875 405.941406 324.179688 C 406.429688 324.441406 406.902344 324.726562 407.363281 325.03125 C 407.824219 325.339844 408.265625 325.667969 408.695312 326.019531 C 409.121094 326.371094 409.53125 326.738281 409.921875 327.128906 C 410.3125 327.523438 410.683594 327.929688 411.035156 328.359375 C 411.382812 328.785156 411.710938 329.230469 412.019531 329.6875 C 412.328125 330.148438 412.609375 330.621094 412.871094 331.109375 C 413.132812 331.597656 413.367188 332.097656 413.578125 332.605469 C 413.789062 333.117188 413.976562 333.636719 414.136719 334.167969 C 414.296875 334.695312 414.429688 335.230469 414.535156 335.773438 C 414.644531 336.316406 414.726562 336.863281 414.777344 337.410156 C 414.832031 337.960938 414.859375 338.515625 414.859375 339.066406 L 414.859375 406.515625 L 523.074219 286.449219 L 473.542969 286.449219 C 472.886719 286.449219 472.230469 286.40625 471.578125 286.332031 C 470.925781 286.253906 470.28125 286.136719 469.644531 285.984375 C 469.003906 285.832031 468.375 285.640625 467.761719 285.417969 C 467.144531 285.191406 466.542969 284.929688 465.957031 284.632812 C 465.371094 284.335938 464.804688 284.007812 464.253906 283.644531 C 463.707031 283.28125 463.179688 282.890625 462.679688 282.46875 C 462.175781 282.042969 461.703125 281.59375 461.253906 281.113281 C 460.804688 280.632812 460.382812 280.128906 459.992188 279.601562 C 459.601562 279.074219 459.242188 278.527344 458.917969 277.957031 C 458.589844 277.386719 458.296875 276.800781 458.039062 276.195312 C 457.78125 275.59375 457.558594 274.976562 457.371094 274.34375 C 457.1875 273.714844 457.039062 273.078125 456.925781 272.429688 C 456.8125 271.78125 456.738281 271.132812 456.703125 270.476562 C 456.667969 269.820312 456.671875 269.164062 456.710938 268.507812 C 456.75 267.851562 456.832031 267.203125 456.945312 266.554688 C 457.0625 265.910156 457.21875 265.273438 457.40625 264.644531 L 489.28125 160.308594 L 388.75 160.308594 Z M 339.261719 322.195312 " fill-opacity="1" fill-rule="nonzero"/></svg>