<svg xmlns="http://www.w3.org/2000/svg" xmlns:xlink="http://www.w3.org/1999/xlink" width="1080" zoomAndPan="magnify" viewBox="0 0 810 809.999993" height="1080" preserveAspectRatio="xMidYMid meet" version="1.0"><defs><clipPath id="6bc34ed932"><path d="M 405 326 L 807.625 326 L 807.625 796.097656 L 405 796.097656 Z M 405 326 " clip-rule="nonzero"/></clipPath><clipPath id="f81540adb6"><path d="M 2.375 24.394531 L 742 24.394531 L 742 260 L 2.375 260 Z M 2.375 24.394531 " clip-rule="nonzero"/></clipPath></defs><g clip-path="url(#6bc34ed932)"><path fill="#172b4d" d="M 606.3125 796.089844 C 604.039062 796.09375 601.855469 795.65625 599.757812 794.777344 C 591.773438 791.390625 405 710.667969 405 545.65625 L 405 405.449219 C 405 404.574219 405.066406 403.707031 405.199219 402.84375 C 405.335938 401.984375 405.535156 401.136719 405.800781 400.304688 C 406.070312 399.472656 406.398438 398.667969 406.789062 397.886719 C 407.183594 397.109375 407.632812 396.363281 408.140625 395.65625 C 408.648438 394.945312 409.210938 394.277344 409.820312 393.65625 C 410.433594 393.035156 411.089844 392.464844 411.792969 391.945312 C 412.492188 391.425781 413.230469 390.960938 414.003906 390.558594 C 414.777344 390.152344 415.578125 389.808594 416.40625 389.53125 L 600.9375 327.226562 C 602.679688 326.636719 604.46875 326.34375 606.308594 326.34375 C 608.144531 326.34375 609.9375 326.636719 611.679688 327.226562 L 796.210938 389.53125 C 797.039062 389.808594 797.839844 390.152344 798.613281 390.554688 C 799.386719 390.960938 800.125 391.421875 800.828125 391.941406 C 801.53125 392.460938 802.1875 393.03125 802.800781 393.652344 C 803.410156 394.273438 803.972656 394.941406 804.480469 395.652344 C 804.988281 396.359375 805.441406 397.105469 805.832031 397.886719 C 806.222656 398.664062 806.554688 399.472656 806.820312 400.304688 C 807.085938 401.132812 807.285156 401.980469 807.417969 402.84375 C 807.550781 403.707031 807.617188 404.574219 807.617188 405.449219 L 807.617188 545.664062 C 807.617188 710.675781 620.796875 791.398438 612.859375 794.789062 C 610.761719 795.667969 608.578125 796.105469 606.304688 796.097656 M 438.539062 417.527344 L 438.539062 545.664062 C 438.539062 672.625 574.589844 745.574219 606.304688 760.835938 C 637.980469 745.535156 774.066406 672.296875 774.066406 545.664062 L 774.066406 417.527344 L 606.3125 360.851562 Z M 438.539062 417.527344 " fill-opacity="1" fill-rule="nonzero"/></g><path fill="#009688" d="M 589.535156 628.335938 C 589.222656 628.351562 588.910156 628.351562 588.597656 628.335938 C 587.417969 628.273438 586.257812 628.089844 585.121094 627.78125 C 583.980469 627.472656 582.886719 627.050781 581.835938 626.507812 C 580.789062 625.96875 579.804688 625.320312 578.894531 624.574219 C 577.984375 623.824219 577.160156 622.984375 576.425781 622.0625 L 509.316406 538.183594 C 508.976562 537.753906 508.652344 537.308594 508.355469 536.847656 C 508.054688 536.386719 507.777344 535.914062 507.523438 535.425781 C 507.269531 534.9375 507.042969 534.4375 506.839844 533.925781 C 506.632812 533.417969 506.457031 532.898438 506.304688 532.367188 C 506.148438 531.839844 506.023438 531.308594 505.921875 530.765625 C 505.824219 530.226562 505.75 529.679688 505.703125 529.132812 C 505.65625 528.585938 505.632812 528.039062 505.640625 527.488281 C 505.648438 526.9375 505.679688 526.390625 505.742188 525.84375 C 505.804688 525.296875 505.890625 524.753906 506.003906 524.214844 C 506.117188 523.679688 506.257812 523.148438 506.425781 522.625 C 506.589844 522.097656 506.78125 521.585938 507 521.078125 C 507.214844 520.574219 507.457031 520.082031 507.722656 519.597656 C 507.988281 519.117188 508.273438 518.648438 508.585938 518.195312 C 508.898438 517.742188 509.230469 517.308594 509.582031 516.886719 C 509.9375 516.464844 510.3125 516.0625 510.707031 515.679688 C 511.097656 515.296875 511.511719 514.929688 511.941406 514.585938 C 512.367188 514.246094 512.8125 513.921875 513.273438 513.625 C 513.734375 513.324219 514.210938 513.046875 514.699219 512.792969 C 515.1875 512.539062 515.6875 512.3125 516.195312 512.109375 C 516.707031 511.90625 517.226562 511.726562 517.753906 511.574219 C 518.28125 511.417969 518.816406 511.292969 519.359375 511.191406 C 519.898438 511.089844 520.441406 511.019531 520.988281 510.96875 C 521.539062 510.921875 522.085938 510.902344 522.636719 510.910156 C 523.1875 510.917969 523.734375 510.949219 524.28125 511.011719 C 524.828125 511.074219 525.371094 511.160156 525.90625 511.273438 C 526.445312 511.386719 526.976562 511.527344 527.5 511.695312 C 528.023438 511.859375 528.539062 512.050781 529.042969 512.269531 C 529.550781 512.484375 530.042969 512.726562 530.523438 512.992188 C 531.007812 513.257812 531.472656 513.546875 531.925781 513.855469 C 532.378906 514.167969 532.816406 514.5 533.238281 514.855469 C 533.660156 515.207031 534.0625 515.582031 534.445312 515.976562 C 534.828125 516.367188 535.191406 516.78125 535.535156 517.210938 L 590.902344 586.421875 L 695.078125 482.273438 C 695.464844 481.886719 695.875 481.519531 696.296875 481.167969 C 696.722656 480.820312 697.164062 480.492188 697.621094 480.1875 C 698.074219 479.882812 698.546875 479.601562 699.03125 479.34375 C 699.515625 479.085938 700.011719 478.847656 700.519531 478.640625 C 701.027344 478.429688 701.542969 478.246094 702.066406 478.085938 C 702.59375 477.925781 703.125 477.792969 703.664062 477.683594 C 704.203125 477.578125 704.746094 477.496094 705.292969 477.445312 C 705.839844 477.390625 706.386719 477.363281 706.9375 477.363281 C 707.484375 477.363281 708.035156 477.390625 708.582031 477.445312 C 709.128906 477.496094 709.667969 477.578125 710.207031 477.683594 C 710.746094 477.792969 711.28125 477.925781 711.804688 478.085938 C 712.332031 478.242188 712.847656 478.429688 713.355469 478.640625 C 713.863281 478.847656 714.359375 479.082031 714.84375 479.34375 C 715.328125 479.601562 715.796875 479.882812 716.253906 480.1875 C 716.710938 480.492188 717.152344 480.820312 717.574219 481.167969 C 718 481.519531 718.40625 481.886719 718.796875 482.273438 C 719.183594 482.664062 719.550781 483.070312 719.902344 483.496094 C 720.25 483.917969 720.574219 484.359375 720.882812 484.816406 C 721.1875 485.273438 721.46875 485.742188 721.726562 486.226562 C 721.984375 486.710938 722.21875 487.207031 722.429688 487.714844 C 722.640625 488.222656 722.824219 488.738281 722.984375 489.265625 C 723.144531 489.789062 723.277344 490.324219 723.386719 490.863281 C 723.492188 491.398438 723.574219 491.941406 723.625 492.488281 C 723.679688 493.035156 723.707031 493.585938 723.707031 494.132812 C 723.707031 494.683594 723.679688 495.230469 723.625 495.777344 C 723.574219 496.324219 723.492188 496.867188 723.386719 497.40625 C 723.277344 497.945312 723.144531 498.476562 722.984375 499 C 722.824219 499.527344 722.640625 500.042969 722.429688 500.550781 C 722.21875 501.058594 721.984375 501.554688 721.726562 502.039062 C 721.46875 502.523438 721.1875 502.992188 720.878906 503.449219 C 720.574219 503.90625 720.25 504.347656 719.902344 504.773438 C 719.550781 505.199219 719.183594 505.605469 718.796875 505.992188 L 601.359375 623.429688 C 599.792969 625.007812 597.984375 626.222656 595.929688 627.078125 C 593.878906 627.933594 591.738281 628.359375 589.515625 628.363281 " fill-opacity="1" fill-rule="nonzero"/><g clip-path="url(#f81540adb6)"><path fill="#172b4d" d="M 623.09375 259.257812 L 119.808594 259.257812 C 117.886719 259.257812 115.964844 259.210938 114.046875 259.117188 C 112.125 259.023438 110.210938 258.882812 108.296875 258.695312 C 106.382812 258.507812 104.476562 258.273438 102.574219 257.992188 C 100.671875 257.710938 98.777344 257.382812 96.894531 257.007812 C 95.007812 256.632812 93.132812 256.214844 91.269531 255.746094 C 89.402344 255.28125 87.550781 254.769531 85.710938 254.210938 C 83.871094 253.652344 82.046875 253.050781 80.234375 252.402344 C 78.425781 251.757812 76.632812 251.066406 74.855469 250.328125 C 73.082031 249.59375 71.324219 248.816406 69.585938 247.996094 C 67.847656 247.171875 66.128906 246.308594 64.433594 245.402344 C 62.738281 244.5 61.066406 243.550781 59.417969 242.5625 C 57.769531 241.574219 56.144531 240.546875 54.546875 239.480469 C 52.949219 238.414062 51.375 237.304688 49.832031 236.160156 C 48.289062 235.015625 46.773438 233.835938 45.285156 232.617188 C 43.800781 231.394531 42.34375 230.140625 40.921875 228.851562 C 39.496094 227.558594 38.101562 226.234375 36.742188 224.875 C 35.382812 223.515625 34.058594 222.125 32.769531 220.699219 C 31.476562 219.277344 30.222656 217.820312 29 216.335938 C 27.78125 214.851562 26.597656 213.335938 25.453125 211.792969 C 24.308594 210.246094 23.203125 208.675781 22.132812 207.078125 C 21.066406 205.480469 20.035156 203.855469 19.046875 202.207031 C 18.058594 200.558594 17.113281 198.886719 16.207031 197.191406 C 15.300781 195.496094 14.433594 193.78125 13.613281 192.042969 C 12.792969 190.304688 12.011719 188.546875 11.277344 186.773438 C 10.539062 184.996094 9.847656 183.203125 9.199219 181.394531 C 8.554688 179.582031 7.949219 177.757812 7.390625 175.917969 C 6.835938 174.078125 6.320312 172.226562 5.855469 170.363281 C 5.386719 168.496094 4.964844 166.621094 4.589844 164.738281 C 4.214844 162.851562 3.886719 160.957031 3.605469 159.058594 C 3.324219 157.15625 3.085938 155.25 2.898438 153.335938 C 2.710938 151.421875 2.570312 149.503906 2.476562 147.585938 C 2.378906 145.664062 2.332031 143.746094 2.332031 141.820312 C 2.332031 139.898438 2.378906 137.976562 2.476562 136.058594 C 2.570312 134.136719 2.710938 132.222656 2.898438 130.308594 C 3.085938 128.394531 3.324219 126.488281 3.605469 124.585938 C 3.886719 122.683594 4.214844 120.792969 4.589844 118.90625 C 4.964844 117.019531 5.386719 115.144531 5.855469 113.28125 C 6.320312 111.417969 6.835938 109.5625 7.390625 107.726562 C 7.949219 105.886719 8.554688 104.058594 9.199219 102.25 C 9.847656 100.441406 10.539062 98.648438 11.277344 96.871094 C 12.011719 95.097656 12.792969 93.339844 13.613281 91.601562 C 14.433594 89.863281 15.300781 88.148438 16.207031 86.453125 C 17.113281 84.757812 18.058594 83.085938 19.046875 81.4375 C 20.035156 79.789062 21.066406 78.164062 22.132812 76.566406 C 23.203125 74.96875 24.308594 73.394531 25.453125 71.851562 C 26.597656 70.308594 27.78125 68.792969 29 67.308594 C 30.222656 65.820312 31.476562 64.367188 32.769531 62.941406 C 34.058594 61.519531 35.382812 60.128906 36.742188 58.769531 C 38.101562 57.410156 39.496094 56.082031 40.921875 54.792969 C 42.34375 53.503906 43.800781 52.246094 45.285156 51.027344 C 46.773438 49.808594 48.289062 48.628906 49.832031 47.480469 C 51.375 46.335938 52.949219 45.230469 54.546875 44.164062 C 56.144531 43.097656 57.769531 42.066406 59.417969 41.082031 C 61.066406 40.09375 62.738281 39.144531 64.433594 38.238281 C 66.128906 37.332031 67.847656 36.46875 69.585938 35.648438 C 71.324219 34.828125 73.082031 34.050781 74.855469 33.3125 C 76.632812 32.578125 78.425781 31.886719 80.234375 31.242188 C 82.046875 30.59375 83.871094 29.992188 85.710938 29.433594 C 87.550781 28.875 89.402344 28.363281 91.269531 27.898438 C 93.132812 27.429688 95.007812 27.011719 96.894531 26.636719 C 98.777344 26.261719 100.671875 25.933594 102.574219 25.652344 C 104.476562 25.371094 106.382812 25.136719 108.296875 24.949219 C 110.210938 24.761719 112.125 24.621094 114.046875 24.527344 C 115.964844 24.433594 117.886719 24.386719 119.808594 24.386719 L 623.09375 24.386719 C 625.023438 24.367188 626.957031 24.398438 628.886719 24.476562 C 630.820312 24.554688 632.746094 24.679688 634.671875 24.855469 C 636.597656 25.027344 638.519531 25.25 640.433594 25.515625 C 642.347656 25.785156 644.253906 26.101562 646.152344 26.460938 C 648.050781 26.824219 649.9375 27.234375 651.816406 27.6875 C 653.695312 28.144531 655.5625 28.644531 657.414062 29.195312 C 659.269531 29.742188 661.105469 30.335938 662.929688 30.972656 C 664.757812 31.613281 666.5625 32.292969 668.355469 33.023438 C 670.144531 33.75 671.917969 34.519531 673.667969 35.335938 C 675.421875 36.152344 677.152344 37.007812 678.863281 37.910156 C 680.574219 38.8125 682.261719 39.753906 683.921875 40.738281 C 685.585938 41.722656 687.226562 42.746094 688.839844 43.808594 C 690.453125 44.875 692.039062 45.980469 693.597656 47.121094 C 695.15625 48.265625 696.683594 49.445312 698.183594 50.664062 C 699.683594 51.882812 701.152344 53.136719 702.59375 54.429688 C 704.03125 55.722656 705.4375 57.046875 706.808594 58.40625 C 708.183594 59.769531 709.519531 61.160156 710.824219 62.589844 C 712.128906 64.015625 713.394531 65.472656 714.628906 66.960938 C 715.859375 68.453125 717.054688 69.972656 718.210938 71.519531 C 719.367188 73.066406 720.488281 74.644531 721.566406 76.246094 C 722.644531 77.851562 723.683594 79.480469 724.683594 81.132812 C 725.683594 82.789062 726.640625 84.46875 727.554688 86.167969 C 728.472656 87.871094 729.34375 89.59375 730.175781 91.339844 C 731.007812 93.085938 731.792969 94.851562 732.535156 96.632812 C 733.28125 98.417969 733.980469 100.21875 734.632812 102.039062 C 735.289062 103.855469 735.898438 105.691406 736.460938 107.539062 C 737.027344 109.386719 737.546875 111.25 738.015625 113.125 C 738.488281 114.996094 738.914062 116.882812 739.292969 118.777344 C 739.675781 120.671875 740.007812 122.578125 740.292969 124.488281 C 740.578125 126.398438 740.8125 128.316406 741.003906 130.242188 C 741.195312 132.164062 741.339844 134.089844 741.433594 136.023438 C 741.527344 137.953125 741.578125 139.882812 741.578125 141.816406 C 741.578125 143.75 741.527344 145.683594 741.433594 147.613281 C 741.339844 149.542969 741.195312 151.46875 741.003906 153.394531 C 740.8125 155.316406 740.578125 157.234375 740.292969 159.144531 C 740.007812 161.058594 739.671875 162.960938 739.292969 164.855469 C 738.914062 166.75 738.488281 168.636719 738.015625 170.511719 C 737.546875 172.386719 737.027344 174.246094 736.460938 176.09375 C 735.898438 177.945312 735.289062 179.777344 734.632812 181.597656 C 733.980469 183.414062 733.28125 185.214844 732.535156 187 C 731.792969 188.785156 731.007812 190.546875 730.175781 192.292969 C 729.34375 194.039062 728.472656 195.761719 727.554688 197.464844 C 726.640625 199.167969 725.683594 200.84375 724.683594 202.5 C 723.683594 204.15625 722.644531 205.785156 721.566406 207.386719 C 720.488281 208.992188 719.367188 210.566406 718.210938 212.117188 C 717.054688 213.664062 715.859375 215.183594 714.628906 216.671875 C 713.394531 218.160156 712.128906 219.617188 710.824219 221.046875 C 709.519531 222.472656 708.183594 223.867188 706.808594 225.226562 C 705.4375 226.585938 704.03125 227.914062 702.59375 229.203125 C 701.152344 230.496094 699.683594 231.75 698.183594 232.96875 C 696.683594 234.1875 695.15625 235.367188 693.597656 236.511719 C 692.039062 237.65625 690.453125 238.757812 688.839844 239.824219 C 687.226562 240.890625 685.585938 241.914062 683.921875 242.898438 C 682.261719 243.882812 680.574219 244.824219 678.863281 245.722656 C 677.152344 246.625 675.421875 247.484375 673.667969 248.296875 C 671.917969 249.113281 670.144531 249.882812 668.355469 250.613281 C 666.5625 251.339844 664.753906 252.023438 662.929688 252.660156 C 661.105469 253.300781 659.269531 253.894531 657.414062 254.441406 C 655.5625 254.988281 653.695312 255.488281 651.816406 255.945312 C 649.9375 256.402344 648.050781 256.808594 646.152344 257.171875 C 644.253906 257.535156 642.347656 257.847656 640.433594 258.117188 C 638.515625 258.386719 636.597656 258.605469 634.671875 258.78125 C 632.746094 258.953125 630.820312 259.078125 628.886719 259.15625 C 626.957031 259.234375 625.023438 259.265625 623.09375 259.25 M 119.808594 57.933594 C 118.4375 57.9375 117.066406 57.96875 115.695312 58.039062 C 114.324219 58.105469 112.957031 58.207031 111.589844 58.339844 C 110.222656 58.476562 108.863281 58.644531 107.503906 58.847656 C 106.148438 59.046875 104.796875 59.285156 103.449219 59.550781 C 102.101562 59.820312 100.765625 60.121094 99.433594 60.453125 C 98.101562 60.789062 96.78125 61.15625 95.464844 61.554688 C 94.152344 61.953125 92.851562 62.382812 91.558594 62.847656 C 90.265625 63.308594 88.984375 63.804688 87.71875 64.328125 C 86.449219 64.855469 85.195312 65.410156 83.957031 65.996094 C 82.714844 66.585938 81.488281 67.203125 80.28125 67.847656 C 79.070312 68.496094 77.875 69.171875 76.699219 69.878906 C 75.519531 70.585938 74.363281 71.320312 73.222656 72.082031 C 72.082031 72.84375 70.957031 73.636719 69.855469 74.453125 C 68.753906 75.269531 67.671875 76.113281 66.613281 76.984375 C 65.550781 77.855469 64.511719 78.753906 63.496094 79.675781 C 62.480469 80.597656 61.484375 81.542969 60.515625 82.515625 C 59.542969 83.484375 58.597656 84.476562 57.675781 85.496094 C 56.753906 86.511719 55.859375 87.550781 54.988281 88.613281 C 54.117188 89.675781 53.273438 90.753906 52.457031 91.859375 C 51.640625 92.960938 50.847656 94.082031 50.085938 95.222656 C 49.324219 96.363281 48.589844 97.523438 47.886719 98.703125 C 47.179688 99.878906 46.503906 101.074219 45.855469 102.285156 C 45.210938 103.492188 44.59375 104.71875 44.007812 105.960938 C 43.421875 107.199219 42.863281 108.457031 42.339844 109.722656 C 41.8125 110.992188 41.320312 112.273438 40.859375 113.5625 C 40.394531 114.855469 39.964844 116.160156 39.566406 117.472656 C 39.167969 118.785156 38.804688 120.109375 38.46875 121.441406 C 38.136719 122.769531 37.835938 124.109375 37.566406 125.457031 C 37.300781 126.800781 37.066406 128.152344 36.863281 129.511719 C 36.664062 130.871094 36.496094 132.230469 36.359375 133.597656 C 36.226562 134.964844 36.125 136.332031 36.058594 137.703125 C 35.992188 139.074219 35.957031 140.445312 35.957031 141.816406 C 35.957031 143.191406 35.992188 144.5625 36.058594 145.933594 C 36.125 147.304688 36.226562 148.671875 36.359375 150.039062 C 36.496094 151.402344 36.664062 152.765625 36.863281 154.121094 C 37.066406 155.480469 37.300781 156.832031 37.566406 158.179688 C 37.835938 159.523438 38.136719 160.863281 38.46875 162.195312 C 38.804688 163.527344 39.167969 164.847656 39.566406 166.160156 C 39.964844 167.476562 40.394531 168.777344 40.859375 170.070312 C 41.320312 171.363281 41.8125 172.644531 42.339844 173.910156 C 42.863281 175.179688 43.421875 176.433594 44.007812 177.675781 C 44.59375 178.914062 45.210938 180.140625 45.855469 181.351562 C 46.503906 182.5625 47.179688 183.753906 47.886719 184.933594 C 48.589844 186.109375 49.324219 187.269531 50.085938 188.410156 C 50.847656 189.550781 51.640625 190.671875 52.457031 191.777344 C 53.273438 192.878906 54.117188 193.960938 54.988281 195.023438 C 55.859375 196.082031 56.753906 197.121094 57.675781 198.140625 C 58.597656 199.15625 59.542969 200.148438 60.515625 201.121094 C 61.484375 202.089844 62.480469 203.039062 63.496094 203.960938 C 64.511719 204.882812 65.550781 205.777344 66.613281 206.648438 C 67.671875 207.519531 68.753906 208.363281 69.855469 209.179688 C 70.957031 210 72.082031 210.789062 73.222656 211.550781 C 74.363281 212.316406 75.519531 213.050781 76.699219 213.753906 C 77.875 214.460938 79.070312 215.136719 80.28125 215.785156 C 81.488281 216.433594 82.714844 217.050781 83.957031 217.636719 C 85.195312 218.222656 86.449219 218.78125 87.71875 219.304688 C 88.984375 219.832031 90.265625 220.324219 91.558594 220.789062 C 92.851562 221.25 94.152344 221.679688 95.464844 222.082031 C 96.78125 222.480469 98.101562 222.84375 99.433594 223.179688 C 100.765625 223.511719 102.101562 223.8125 103.449219 224.082031 C 104.796875 224.351562 106.148438 224.585938 107.503906 224.789062 C 108.863281 224.988281 110.222656 225.15625 111.589844 225.292969 C 112.957031 225.425781 114.324219 225.527344 115.695312 225.597656 C 117.066406 225.664062 118.4375 225.699219 119.808594 225.699219 L 623.09375 225.699219 C 624.464844 225.699219 625.835938 225.664062 627.207031 225.597656 C 628.578125 225.527344 629.945312 225.425781 631.3125 225.292969 C 632.679688 225.15625 634.039062 224.988281 635.398438 224.789062 C 636.753906 224.585938 638.105469 224.351562 639.453125 224.082031 C 640.796875 223.8125 642.136719 223.511719 643.46875 223.179688 C 644.800781 222.84375 646.121094 222.480469 647.433594 222.082031 C 648.75 221.679688 650.050781 221.25 651.34375 220.789062 C 652.636719 220.324219 653.914062 219.832031 655.183594 219.304688 C 656.453125 218.78125 657.707031 218.222656 658.945312 217.636719 C 660.1875 217.050781 661.414062 216.433594 662.621094 215.785156 C 663.832031 215.136719 665.027344 214.460938 666.203125 213.753906 C 667.378906 213.050781 668.539062 212.316406 669.679688 211.550781 C 670.820312 210.789062 671.945312 210 673.046875 209.179688 C 674.148438 208.363281 675.230469 207.519531 676.289062 206.648438 C 677.351562 205.777344 678.390625 204.882812 679.40625 203.960938 C 680.421875 203.039062 681.417969 202.089844 682.386719 201.121094 C 683.355469 200.148438 684.304688 199.15625 685.226562 198.140625 C 686.144531 197.121094 687.042969 196.082031 687.914062 195.023438 C 688.785156 193.960938 689.628906 192.878906 690.445312 191.777344 C 691.261719 190.671875 692.050781 189.550781 692.816406 188.410156 C 693.578125 187.269531 694.3125 186.109375 695.015625 184.933594 C 695.722656 183.753906 696.398438 182.5625 697.042969 181.351562 C 697.691406 180.140625 698.308594 178.914062 698.894531 177.675781 C 699.480469 176.433594 700.039062 175.179688 700.5625 173.910156 C 701.089844 172.644531 701.582031 171.363281 702.042969 170.070312 C 702.507812 168.777344 702.9375 167.476562 703.335938 166.160156 C 703.734375 164.847656 704.097656 163.527344 704.433594 162.195312 C 704.765625 160.863281 705.066406 159.523438 705.335938 158.179688 C 705.601562 156.832031 705.835938 155.480469 706.039062 154.121094 C 706.238281 152.765625 706.40625 151.402344 706.542969 150.039062 C 706.675781 148.671875 706.777344 147.304688 706.84375 145.933594 C 706.910156 144.5625 706.945312 143.191406 706.945312 141.816406 C 706.945312 140.445312 706.910156 139.074219 706.84375 137.703125 C 706.777344 136.332031 706.675781 134.964844 706.542969 133.597656 C 706.40625 132.230469 706.238281 130.871094 706.039062 129.511719 C 705.835938 128.152344 705.601562 126.800781 705.335938 125.457031 C 705.066406 124.109375 704.765625 122.769531 704.433594 121.441406 C 704.097656 120.109375 703.734375 118.785156 703.335938 117.472656 C 702.9375 116.160156 702.507812 114.855469 702.042969 113.5625 C 701.582031 112.273438 701.089844 110.992188 700.5625 109.722656 C 700.039062 108.457031 699.480469 107.199219 698.894531 105.960938 C 698.308594 104.71875 697.691406 103.492188 697.042969 102.285156 C 696.398438 101.074219 695.722656 99.878906 695.015625 98.703125 C 694.3125 97.523438 693.578125 96.363281 692.816406 95.222656 C 692.050781 94.082031 691.261719 92.960938 690.445312 91.859375 C 689.628906 90.753906 688.785156 89.675781 687.914062 88.613281 C 687.042969 87.550781 686.144531 86.511719 685.226562 85.496094 C 684.304688 84.476562 683.355469 83.484375 682.386719 82.515625 C 681.417969 81.542969 680.421875 80.597656 679.40625 79.675781 C 678.390625 78.753906 677.351562 77.855469 676.289062 76.984375 C 675.230469 76.113281 674.148438 75.269531 673.046875 74.453125 C 671.945312 73.636719 670.820312 72.84375 669.679688 72.082031 C 668.539062 71.320312 667.378906 70.585938 666.203125 69.878906 C 665.027344 69.171875 663.832031 68.496094 662.621094 67.847656 C 661.414062 67.203125 660.1875 66.585938 658.945312 65.996094 C 657.707031 65.410156 656.453125 64.855469 655.183594 64.328125 C 653.914062 63.804688 652.636719 63.308594 651.34375 62.847656 C 650.050781 62.382812 648.75 61.953125 647.433594 61.554688 C 646.121094 61.15625 644.800781 60.789062 643.46875 60.453125 C 642.136719 60.121094 640.796875 59.820312 639.453125 59.550781 C 638.105469 59.285156 636.753906 59.046875 635.398438 58.847656 C 634.039062 58.644531 632.679688 58.476562 631.3125 58.339844 C 629.945312 58.207031 628.578125 58.105469 627.207031 58.039062 C 625.835938 57.96875 624.464844 57.9375 623.09375 57.933594 Z M 119.808594 57.933594 " fill-opacity="1" fill-rule="nonzero"/></g><path fill="#172b4d" d="M 153.359375 192.160156 C 151.710938 192.160156 150.066406 192.078125 148.425781 191.917969 C 146.785156 191.753906 145.15625 191.515625 143.539062 191.191406 C 141.921875 190.871094 140.328125 190.472656 138.75 189.992188 C 137.171875 189.515625 135.621094 188.960938 134.097656 188.328125 C 132.574219 187.699219 131.085938 186.992188 129.632812 186.214844 C 128.179688 185.441406 126.769531 184.59375 125.398438 183.675781 C 124.027344 182.761719 122.703125 181.78125 121.429688 180.734375 C 120.15625 179.691406 118.9375 178.585938 117.769531 177.417969 C 116.605469 176.253906 115.5 175.035156 114.453125 173.757812 C 113.410156 172.484375 112.429688 171.164062 111.511719 169.792969 C 110.597656 168.421875 109.75 167.007812 108.972656 165.554688 C 108.195312 164.101562 107.492188 162.613281 106.863281 161.089844 C 106.230469 159.566406 105.675781 158.019531 105.199219 156.441406 C 104.71875 154.863281 104.320312 153.265625 103.996094 151.648438 C 103.675781 150.03125 103.433594 148.40625 103.273438 146.765625 C 103.109375 145.125 103.03125 143.480469 103.03125 141.832031 C 103.03125 140.183594 103.109375 138.539062 103.273438 136.898438 C 103.433594 135.257812 103.675781 133.628906 103.996094 132.011719 C 104.320312 130.394531 104.71875 128.800781 105.199219 127.222656 C 105.675781 125.644531 106.230469 124.09375 106.863281 122.570312 C 107.492188 121.046875 108.195312 119.558594 108.972656 118.105469 C 109.75 116.652344 110.597656 115.242188 111.511719 113.871094 C 112.429688 112.5 113.410156 111.175781 114.453125 109.902344 C 115.5 108.628906 116.605469 107.410156 117.769531 106.242188 C 118.9375 105.078125 120.15625 103.972656 121.429688 102.925781 C 122.703125 101.882812 124.027344 100.902344 125.398438 99.984375 C 126.769531 99.070312 128.179688 98.222656 129.632812 97.445312 C 131.085938 96.667969 132.574219 95.964844 134.097656 95.332031 C 135.621094 94.703125 137.171875 94.148438 138.75 93.671875 C 140.328125 93.191406 141.921875 92.792969 143.539062 92.46875 C 145.15625 92.148438 146.785156 91.90625 148.425781 91.746094 C 150.066406 91.582031 151.710938 91.503906 153.359375 91.503906 C 155.007812 91.503906 156.652344 91.582031 158.292969 91.746094 C 159.933594 91.90625 161.5625 92.148438 163.175781 92.46875 C 164.792969 92.792969 166.390625 93.191406 167.96875 93.671875 C 169.546875 94.148438 171.09375 94.703125 172.617188 95.332031 C 174.140625 95.964844 175.628906 96.667969 177.082031 97.445312 C 178.535156 98.222656 179.949219 99.070312 181.320312 99.984375 C 182.691406 100.902344 184.011719 101.882812 185.285156 102.925781 C 186.5625 103.972656 187.78125 105.078125 188.945312 106.242188 C 190.113281 107.410156 191.21875 108.628906 192.261719 109.902344 C 193.308594 111.175781 194.289062 112.5 195.203125 113.871094 C 196.121094 115.242188 196.96875 116.652344 197.746094 118.105469 C 198.519531 119.558594 199.226562 121.046875 199.855469 122.570312 C 200.488281 124.09375 201.042969 125.644531 201.519531 127.222656 C 202 128.800781 202.398438 130.394531 202.71875 132.011719 C 203.042969 133.628906 203.28125 135.257812 203.445312 136.898438 C 203.605469 138.539062 203.6875 140.183594 203.6875 141.832031 C 203.683594 143.480469 203.601562 145.121094 203.4375 146.761719 C 203.273438 148.402344 203.03125 150.03125 202.710938 151.644531 C 202.386719 153.261719 201.984375 154.855469 201.503906 156.433594 C 201.027344 158.007812 200.46875 159.558594 199.839844 161.082031 C 199.207031 162.601562 198.503906 164.089844 197.726562 165.542969 C 196.949219 166.996094 196.101562 168.40625 195.183594 169.777344 C 194.269531 171.144531 193.289062 172.46875 192.242188 173.742188 C 191.199219 175.015625 190.09375 176.234375 188.925781 177.398438 C 187.761719 178.566406 186.542969 179.671875 185.269531 180.714844 C 183.996094 181.761719 182.671875 182.742188 181.304688 183.65625 C 179.933594 184.574219 178.523438 185.421875 177.070312 186.199219 C 175.617188 186.976562 174.128906 187.679688 172.609375 188.3125 C 171.085938 188.941406 169.539062 189.496094 167.960938 189.976562 C 166.382812 190.457031 164.789062 190.859375 163.171875 191.179688 C 161.558594 191.503906 159.929688 191.746094 158.289062 191.910156 C 156.648438 192.074219 155.007812 192.15625 153.359375 192.160156 M 153.359375 125.050781 C 152.808594 125.050781 152.261719 125.078125 151.714844 125.132812 C 151.167969 125.1875 150.625 125.265625 150.085938 125.375 C 149.546875 125.480469 149.015625 125.613281 148.488281 125.773438 C 147.960938 125.933594 147.445312 126.117188 146.9375 126.328125 C 146.429688 126.539062 145.933594 126.773438 145.449219 127.035156 C 144.964844 127.292969 144.492188 127.574219 144.035156 127.878906 C 143.578125 128.183594 143.140625 128.511719 142.714844 128.859375 C 142.289062 129.210938 141.882812 129.578125 141.492188 129.964844 C 141.105469 130.355469 140.738281 130.761719 140.386719 131.1875 C 140.039062 131.613281 139.710938 132.050781 139.40625 132.507812 C 139.101562 132.964844 138.820312 133.4375 138.5625 133.921875 C 138.300781 134.40625 138.066406 134.902344 137.855469 135.410156 C 137.644531 135.917969 137.460938 136.433594 137.300781 136.960938 C 137.140625 137.484375 137.007812 138.019531 136.902344 138.558594 C 136.792969 139.097656 136.714844 139.640625 136.660156 140.1875 C 136.605469 140.734375 136.578125 141.28125 136.578125 141.832031 C 136.578125 142.378906 136.605469 142.929688 136.660156 143.476562 C 136.714844 144.023438 136.792969 144.566406 136.902344 145.105469 C 137.007812 145.644531 137.140625 146.175781 137.300781 146.703125 C 137.460938 147.226562 137.644531 147.746094 137.855469 148.253906 C 138.066406 148.761719 138.300781 149.257812 138.5625 149.742188 C 138.820312 150.226562 139.101562 150.695312 139.40625 151.152344 C 139.710938 151.609375 140.039062 152.050781 140.386719 152.476562 C 140.738281 152.902344 141.105469 153.308594 141.492188 153.695312 C 141.882812 154.085938 142.289062 154.453125 142.714844 154.800781 C 143.140625 155.148438 143.578125 155.476562 144.035156 155.78125 C 144.492188 156.089844 144.964844 156.371094 145.449219 156.628906 C 145.933594 156.886719 146.429688 157.121094 146.9375 157.332031 C 147.445312 157.542969 147.960938 157.726562 148.488281 157.886719 C 149.015625 158.046875 149.546875 158.179688 150.085938 158.289062 C 150.625 158.394531 151.167969 158.476562 151.714844 158.53125 C 152.261719 158.582031 152.808594 158.609375 153.359375 158.609375 C 153.910156 158.609375 154.457031 158.582031 155.003906 158.53125 C 155.550781 158.476562 156.09375 158.394531 156.632812 158.289062 C 157.171875 158.179688 157.703125 158.046875 158.230469 157.886719 C 158.753906 157.726562 159.273438 157.542969 159.78125 157.332031 C 160.289062 157.121094 160.785156 156.886719 161.269531 156.628906 C 161.753906 156.371094 162.222656 156.089844 162.679688 155.78125 C 163.136719 155.476562 163.578125 155.148438 164.003906 154.800781 C 164.429688 154.453125 164.835938 154.085938 165.222656 153.695312 C 165.613281 153.308594 165.980469 152.902344 166.328125 152.476562 C 166.675781 152.050781 167.003906 151.609375 167.308594 151.152344 C 167.617188 150.695312 167.898438 150.226562 168.15625 149.742188 C 168.414062 149.257812 168.648438 148.761719 168.859375 148.253906 C 169.070312 147.746094 169.257812 147.226562 169.414062 146.703125 C 169.574219 146.175781 169.707031 145.644531 169.816406 145.105469 C 169.921875 144.566406 170.003906 144.023438 170.058594 143.476562 C 170.109375 142.929688 170.136719 142.378906 170.136719 141.832031 C 170.136719 141.28125 170.105469 140.734375 170.050781 140.1875 C 169.996094 139.644531 169.910156 139.101562 169.804688 138.5625 C 169.695312 138.023438 169.558594 137.492188 169.398438 136.96875 C 169.238281 136.445312 169.050781 135.929688 168.839844 135.421875 C 168.628906 134.914062 168.394531 134.417969 168.132812 133.9375 C 167.875 133.453125 167.59375 132.984375 167.289062 132.527344 C 166.980469 132.070312 166.65625 131.628906 166.304688 131.207031 C 165.957031 130.78125 165.589844 130.375 165.203125 129.988281 C 164.8125 129.601562 164.40625 129.230469 163.984375 128.882812 C 163.558594 128.535156 163.117188 128.207031 162.664062 127.902344 C 162.207031 127.597656 161.738281 127.316406 161.253906 127.054688 C 160.769531 126.796875 160.273438 126.558594 159.769531 126.347656 C 159.261719 126.136719 158.746094 125.953125 158.222656 125.792969 C 157.695312 125.628906 157.164062 125.496094 156.625 125.386719 C 156.089844 125.277344 155.546875 125.195312 155 125.140625 C 154.453125 125.082031 153.90625 125.054688 153.359375 125.050781 " fill-opacity="1" fill-rule="nonzero"/><path fill="#172b4d" d="M 321.121094 192.160156 C 319.472656 192.160156 317.828125 192.078125 316.191406 191.917969 C 314.550781 191.753906 312.921875 191.515625 311.304688 191.191406 C 309.6875 190.871094 308.089844 190.472656 306.511719 189.992188 C 304.9375 189.515625 303.386719 188.960938 301.863281 188.328125 C 300.339844 187.699219 298.851562 186.992188 297.398438 186.214844 C 295.945312 185.441406 294.53125 184.59375 293.160156 183.675781 C 291.792969 182.761719 290.46875 181.78125 289.195312 180.734375 C 287.921875 179.691406 286.699219 178.585938 285.535156 177.417969 C 284.371094 176.253906 283.265625 175.035156 282.21875 173.757812 C 281.171875 172.484375 280.191406 171.164062 279.277344 169.792969 C 278.359375 168.421875 277.515625 167.007812 276.738281 165.554688 C 275.960938 164.101562 275.257812 162.613281 274.625 161.089844 C 273.996094 159.566406 273.441406 158.019531 272.960938 156.441406 C 272.484375 154.863281 272.082031 153.265625 271.761719 151.648438 C 271.441406 150.03125 271.199219 148.40625 271.035156 146.765625 C 270.875 145.125 270.792969 143.480469 270.792969 141.832031 C 270.792969 140.183594 270.875 138.539062 271.035156 136.898438 C 271.199219 135.257812 271.441406 133.628906 271.761719 132.011719 C 272.082031 130.394531 272.484375 128.800781 272.960938 127.222656 C 273.441406 125.644531 273.996094 124.09375 274.625 122.570312 C 275.257812 121.046875 275.960938 119.558594 276.738281 118.105469 C 277.515625 116.652344 278.359375 115.242188 279.277344 113.871094 C 280.191406 112.5 281.171875 111.175781 282.21875 109.902344 C 283.265625 108.628906 284.371094 107.410156 285.535156 106.242188 C 286.699219 105.078125 287.921875 103.972656 289.195312 102.925781 C 290.46875 101.882812 291.792969 100.902344 293.160156 99.984375 C 294.53125 99.070312 295.945312 98.222656 297.398438 97.445312 C 298.851562 96.667969 300.339844 95.964844 301.863281 95.332031 C 303.386719 94.703125 304.9375 94.148438 306.511719 93.671875 C 308.089844 93.191406 309.6875 92.792969 311.304688 92.46875 C 312.921875 92.148438 314.550781 91.90625 316.191406 91.746094 C 317.828125 91.582031 319.472656 91.503906 321.121094 91.503906 C 322.769531 91.503906 324.414062 91.582031 326.054688 91.746094 C 327.695312 91.90625 329.324219 92.148438 330.941406 92.46875 C 332.558594 92.792969 334.15625 93.191406 335.730469 93.671875 C 337.308594 94.148438 338.859375 94.703125 340.382812 95.332031 C 341.90625 95.964844 343.394531 96.667969 344.847656 97.445312 C 346.300781 98.222656 347.710938 99.070312 349.082031 99.984375 C 350.453125 100.902344 351.777344 101.882812 353.050781 102.925781 C 354.324219 103.972656 355.542969 105.078125 356.710938 106.242188 C 357.875 107.410156 358.980469 108.628906 360.027344 109.902344 C 361.074219 111.175781 362.054688 112.5 362.96875 113.871094 C 363.882812 115.242188 364.730469 116.652344 365.507812 118.105469 C 366.285156 119.558594 366.988281 121.046875 367.621094 122.570312 C 368.25 124.09375 368.804688 125.644531 369.285156 127.222656 C 369.761719 128.800781 370.164062 130.394531 370.484375 132.011719 C 370.804688 133.628906 371.046875 135.257812 371.207031 136.898438 C 371.371094 138.539062 371.449219 140.183594 371.449219 141.832031 C 371.449219 143.480469 371.367188 145.121094 371.203125 146.761719 C 371.039062 148.402344 370.796875 150.03125 370.472656 151.644531 C 370.152344 153.261719 369.75 154.859375 369.269531 156.433594 C 368.792969 158.011719 368.234375 159.558594 367.605469 161.082031 C 366.972656 162.605469 366.269531 164.089844 365.492188 165.542969 C 364.714844 166.996094 363.867188 168.410156 362.953125 169.777344 C 362.035156 171.148438 361.054688 172.46875 360.007812 173.742188 C 358.964844 175.019531 357.859375 176.238281 356.695312 177.402344 C 355.527344 178.566406 354.308594 179.671875 353.035156 180.71875 C 351.761719 181.765625 350.441406 182.746094 349.070312 183.660156 C 347.699219 184.578125 346.289062 185.421875 344.835938 186.199219 C 343.382812 186.976562 341.894531 187.683594 340.375 188.3125 C 338.851562 188.945312 337.300781 189.5 335.726562 189.980469 C 334.148438 190.460938 332.554688 190.859375 330.9375 191.183594 C 329.320312 191.507812 327.695312 191.75 326.054688 191.910156 C 324.414062 192.074219 322.769531 192.15625 321.121094 192.160156 M 321.121094 125.050781 C 320.574219 125.050781 320.023438 125.078125 319.476562 125.132812 C 318.929688 125.1875 318.386719 125.265625 317.847656 125.375 C 317.308594 125.480469 316.777344 125.613281 316.253906 125.773438 C 315.726562 125.933594 315.210938 126.117188 314.703125 126.328125 C 314.195312 126.539062 313.699219 126.773438 313.210938 127.035156 C 312.726562 127.292969 312.257812 127.574219 311.800781 127.878906 C 311.34375 128.183594 310.902344 128.511719 310.476562 128.859375 C 310.054688 129.210938 309.648438 129.578125 309.257812 129.964844 C 308.871094 130.355469 308.5 130.761719 308.152344 131.1875 C 307.804688 131.613281 307.476562 132.050781 307.171875 132.507812 C 306.867188 132.964844 306.582031 133.4375 306.324219 133.921875 C 306.066406 134.40625 305.832031 134.902344 305.621094 135.410156 C 305.410156 135.917969 305.226562 136.433594 305.066406 136.960938 C 304.90625 137.484375 304.773438 138.019531 304.664062 138.558594 C 304.558594 139.097656 304.476562 139.640625 304.425781 140.1875 C 304.371094 140.734375 304.34375 141.28125 304.34375 141.832031 C 304.34375 142.378906 304.371094 142.929688 304.425781 143.476562 C 304.476562 144.023438 304.558594 144.566406 304.664062 145.105469 C 304.773438 145.644531 304.90625 146.175781 305.066406 146.703125 C 305.226562 147.226562 305.410156 147.746094 305.621094 148.253906 C 305.832031 148.761719 306.066406 149.257812 306.324219 149.742188 C 306.582031 150.226562 306.867188 150.695312 307.171875 151.152344 C 307.476562 151.609375 307.804688 152.050781 308.152344 152.476562 C 308.5 152.902344 308.871094 153.308594 309.257812 153.695312 C 309.648438 154.085938 310.054688 154.453125 310.476562 154.800781 C 310.902344 155.148438 311.34375 155.476562 311.800781 155.78125 C 312.257812 156.089844 312.726562 156.371094 313.214844 156.628906 C 313.699219 156.886719 314.195312 157.121094 314.703125 157.332031 C 315.210938 157.542969 315.726562 157.726562 316.253906 157.886719 C 316.777344 158.046875 317.308594 158.179688 317.847656 158.289062 C 318.386719 158.394531 318.929688 158.476562 319.476562 158.53125 C 320.023438 158.582031 320.574219 158.609375 321.121094 158.609375 C 321.671875 158.609375 322.21875 158.582031 322.765625 158.53125 C 323.3125 158.476562 323.855469 158.394531 324.394531 158.289062 C 324.933594 158.179688 325.46875 158.046875 325.992188 157.886719 C 326.519531 157.726562 327.035156 157.542969 327.542969 157.332031 C 328.050781 157.121094 328.546875 156.886719 329.03125 156.628906 C 329.515625 156.371094 329.988281 156.089844 330.445312 155.78125 C 330.902344 155.476562 331.34375 155.148438 331.765625 154.800781 C 332.191406 154.453125 332.597656 154.085938 332.988281 153.695312 C 333.375 153.308594 333.746094 152.902344 334.09375 152.476562 C 334.441406 152.050781 334.769531 151.609375 335.074219 151.152344 C 335.378906 150.695312 335.660156 150.226562 335.921875 149.742188 C 336.179688 149.257812 336.414062 148.761719 336.625 148.253906 C 336.835938 147.746094 337.019531 147.226562 337.179688 146.703125 C 337.339844 146.175781 337.472656 145.644531 337.578125 145.105469 C 337.6875 144.566406 337.765625 144.023438 337.820312 143.476562 C 337.875 142.929688 337.902344 142.378906 337.902344 141.832031 C 337.898438 141.28125 337.871094 140.734375 337.816406 140.1875 C 337.757812 139.644531 337.675781 139.101562 337.566406 138.5625 C 337.457031 138.023438 337.324219 137.492188 337.164062 136.96875 C 337.003906 136.445312 336.816406 135.929688 336.605469 135.421875 C 336.394531 134.914062 336.160156 134.421875 335.898438 133.9375 C 335.640625 133.453125 335.355469 132.984375 335.050781 132.527344 C 334.746094 132.070312 334.417969 131.628906 334.070312 131.207031 C 333.722656 130.78125 333.355469 130.375 332.964844 129.988281 C 332.578125 129.601562 332.171875 129.230469 331.746094 128.882812 C 331.324219 128.535156 330.882812 128.207031 330.425781 127.902344 C 329.972656 127.597656 329.5 127.316406 329.019531 127.054688 C 328.535156 126.796875 328.039062 126.558594 327.53125 126.347656 C 327.027344 126.136719 326.511719 125.953125 325.984375 125.792969 C 325.460938 125.628906 324.929688 125.496094 324.390625 125.386719 C 323.851562 125.277344 323.3125 125.195312 322.765625 125.140625 C 322.21875 125.082031 321.671875 125.054688 321.121094 125.050781 " fill-opacity="1" fill-rule="nonzero"/><path fill="#172b4d" d="M 321.121094 460.570312 L 119.808594 460.570312 C 117.898438 460.554688 115.988281 460.488281 114.082031 460.378906 C 112.175781 460.269531 110.269531 460.113281 108.371094 459.910156 C 106.46875 459.707031 104.574219 459.457031 102.6875 459.160156 C 100.800781 458.863281 98.921875 458.523438 97.046875 458.136719 C 95.175781 457.75 93.316406 457.316406 91.464844 456.835938 C 89.617188 456.359375 87.777344 455.835938 85.953125 455.269531 C 84.128906 454.699219 82.320312 454.085938 80.527344 453.429688 C 78.730469 452.773438 76.953125 452.074219 75.191406 451.332031 C 73.433594 450.589844 71.691406 449.804688 69.96875 448.976562 C 68.246094 448.148438 66.546875 447.277344 64.867188 446.367188 C 63.1875 445.453125 61.53125 444.503906 59.894531 443.511719 C 58.261719 442.519531 56.65625 441.488281 55.070312 440.417969 C 53.488281 439.347656 51.933594 438.238281 50.402344 437.09375 C 48.875 435.945312 47.375 434.761719 45.902344 433.542969 C 44.433594 432.324219 42.992188 431.066406 41.582031 429.777344 C 40.171875 428.488281 38.796875 427.164062 37.449219 425.804688 C 36.105469 424.449219 34.792969 423.058594 33.515625 421.640625 C 32.238281 420.21875 30.996094 418.765625 29.789062 417.285156 C 28.585938 415.800781 27.414062 414.292969 26.28125 412.753906 C 25.148438 411.214844 24.054688 409.648438 22.996094 408.054688 C 21.941406 406.460938 20.925781 404.84375 19.949219 403.203125 C 18.96875 401.5625 18.035156 399.894531 17.136719 398.207031 C 16.242188 396.519531 15.386719 394.8125 14.574219 393.082031 C 13.761719 391.351562 12.992188 389.605469 12.265625 387.835938 C 11.535156 386.070312 10.851562 384.285156 10.210938 382.484375 C 9.574219 380.683594 8.976562 378.871094 8.425781 377.039062 C 7.871094 375.210938 7.367188 373.367188 6.90625 371.515625 C 6.441406 369.660156 6.027344 367.796875 5.65625 365.921875 C 5.285156 364.046875 4.960938 362.164062 4.679688 360.273438 C 4.402344 358.382812 4.171875 356.488281 3.984375 354.585938 C 3.796875 352.683594 3.65625 350.777344 3.566406 348.867188 C 3.472656 346.960938 3.425781 345.050781 3.425781 343.140625 C 3.425781 341.226562 3.472656 339.320312 3.566406 337.410156 C 3.65625 335.5 3.796875 333.597656 3.984375 331.695312 C 4.171875 329.792969 4.402344 327.894531 4.679688 326.003906 C 4.960938 324.113281 5.285156 322.230469 5.65625 320.359375 C 6.027344 318.484375 6.441406 316.617188 6.90625 314.765625 C 7.367188 312.910156 7.871094 311.066406 8.425781 309.238281 C 8.976562 307.410156 9.574219 305.59375 10.210938 303.792969 C 10.851562 301.992188 11.535156 300.207031 12.265625 298.441406 C 12.992188 296.675781 13.761719 294.925781 14.574219 293.195312 C 15.386719 291.46875 16.242188 289.757812 17.136719 288.070312 C 18.035156 286.382812 18.96875 284.71875 19.949219 283.074219 C 20.925781 281.433594 21.941406 279.816406 22.996094 278.222656 C 24.054688 276.632812 25.148438 275.066406 26.28125 273.527344 C 27.414062 271.988281 28.585938 270.476562 29.789062 268.996094 C 30.996094 267.511719 32.238281 266.0625 33.515625 264.640625 C 34.792969 263.21875 36.105469 261.828125 37.449219 260.472656 C 38.796875 259.113281 40.171875 257.792969 41.582031 256.5 C 42.992188 255.210938 44.433594 253.957031 45.902344 252.738281 C 47.375 251.515625 48.875 250.335938 50.402344 249.1875 C 51.933594 248.039062 53.488281 246.933594 55.070312 245.863281 C 56.65625 244.792969 58.261719 243.761719 59.894531 242.769531 C 61.53125 241.777344 63.1875 240.824219 64.867188 239.914062 C 66.546875 239 68.246094 238.132812 69.96875 237.304688 C 71.691406 236.476562 73.433594 235.691406 75.191406 234.945312 C 76.953125 234.203125 78.730469 233.503906 80.527344 232.847656 C 82.320312 232.191406 84.128906 231.578125 85.953125 231.011719 C 87.777344 230.441406 89.617188 229.921875 91.464844 229.441406 C 93.316406 228.964844 95.175781 228.53125 97.046875 228.144531 C 98.921875 227.753906 100.800781 227.414062 102.6875 227.117188 C 104.574219 226.824219 106.46875 226.574219 108.371094 226.371094 C 110.269531 226.167969 112.175781 226.011719 114.082031 225.898438 C 115.988281 225.789062 117.898438 225.726562 119.808594 225.707031 L 623.09375 225.707031 C 629.511719 225.675781 635.890625 226.171875 642.226562 227.207031 C 648.558594 228.238281 654.765625 229.792969 660.84375 231.863281 C 666.917969 233.933594 672.78125 236.496094 678.425781 239.550781 C 684.074219 242.601562 689.425781 246.105469 694.488281 250.054688 C 695.316406 250.742188 696.074219 251.503906 696.757812 252.339844 C 697.441406 253.175781 698.035156 254.070312 698.546875 255.019531 C 699.058594 255.972656 699.472656 256.960938 699.792969 257.992188 C 700.109375 259.023438 700.328125 260.074219 700.445312 261.148438 C 700.5625 262.222656 700.574219 263.296875 700.484375 264.371094 C 700.390625 265.445312 700.199219 266.503906 699.90625 267.539062 C 699.609375 268.578125 699.21875 269.578125 698.730469 270.542969 C 698.242188 271.503906 697.667969 272.410156 697.003906 273.261719 C 696.34375 274.113281 695.605469 274.894531 694.792969 275.605469 C 693.976562 276.3125 693.105469 276.9375 692.171875 277.480469 C 691.238281 278.019531 690.261719 278.464844 689.238281 278.820312 C 688.21875 279.171875 687.175781 279.421875 686.105469 279.574219 C 685.039062 279.722656 683.964844 279.769531 682.886719 279.714844 C 681.808594 279.65625 680.746094 279.5 679.699219 279.238281 C 678.652344 278.976562 677.640625 278.617188 676.664062 278.160156 C 675.6875 277.703125 674.761719 277.160156 673.890625 276.523438 C 670.289062 273.71875 666.484375 271.230469 662.464844 269.058594 C 658.449219 266.890625 654.28125 265.074219 649.960938 263.601562 C 645.640625 262.132812 641.230469 261.03125 636.722656 260.300781 C 632.21875 259.570312 627.683594 259.21875 623.121094 259.25 L 119.808594 259.25 C 118.4375 259.25 117.066406 259.285156 115.695312 259.351562 C 114.328125 259.421875 112.957031 259.523438 111.59375 259.660156 C 110.226562 259.796875 108.867188 259.964844 107.511719 260.167969 C 106.152344 260.371094 104.800781 260.605469 103.457031 260.875 C 102.113281 261.140625 100.773438 261.445312 99.441406 261.777344 C 98.113281 262.113281 96.789062 262.480469 95.476562 262.878906 C 94.164062 263.277344 92.863281 263.710938 91.574219 264.171875 C 90.28125 264.636719 89 265.132812 87.734375 265.65625 C 86.46875 266.183594 85.214844 266.738281 83.972656 267.328125 C 82.734375 267.914062 81.507812 268.53125 80.300781 269.179688 C 79.089844 269.828125 77.898438 270.503906 76.722656 271.210938 C 75.546875 271.914062 74.386719 272.648438 73.246094 273.414062 C 72.105469 274.175781 70.984375 274.964844 69.882812 275.785156 C 68.78125 276.601562 67.703125 277.445312 66.640625 278.316406 C 65.582031 279.1875 64.542969 280.085938 63.527344 281.007812 C 62.511719 281.929688 61.519531 282.875 60.550781 283.84375 C 59.578125 284.816406 58.632812 285.808594 57.714844 286.828125 C 56.792969 287.84375 55.898438 288.882812 55.027344 289.945312 C 54.15625 291.003906 53.3125 292.085938 52.496094 293.1875 C 51.679688 294.289062 50.890625 295.414062 50.128906 296.554688 C 49.367188 297.695312 48.632812 298.851562 47.929688 300.03125 C 47.222656 301.207031 46.546875 302.402344 45.902344 303.609375 C 45.257812 304.820312 44.640625 306.046875 44.054688 307.285156 C 43.46875 308.527344 42.910156 309.78125 42.386719 311.050781 C 41.863281 312.316406 41.367188 313.597656 40.90625 314.886719 C 40.445312 316.179688 40.015625 317.484375 39.617188 318.796875 C 39.21875 320.109375 38.851562 321.429688 38.519531 322.761719 C 38.1875 324.09375 37.886719 325.429688 37.621094 326.777344 C 37.351562 328.121094 37.117188 329.472656 36.917969 330.828125 C 36.714844 332.1875 36.546875 333.546875 36.414062 334.914062 C 36.277344 336.277344 36.179688 337.648438 36.109375 339.015625 C 36.042969 340.386719 36.007812 341.757812 36.007812 343.128906 C 36.007812 344.503906 36.042969 345.875 36.109375 347.242188 C 36.179688 348.613281 36.277344 349.980469 36.414062 351.347656 C 36.546875 352.710938 36.714844 354.074219 36.917969 355.429688 C 37.117188 356.789062 37.351562 358.140625 37.621094 359.484375 C 37.886719 360.832031 38.1875 362.167969 38.519531 363.5 C 38.851562 364.832031 39.21875 366.152344 39.617188 367.464844 C 40.015625 368.777344 40.445312 370.082031 40.90625 371.371094 C 41.367188 372.664062 41.863281 373.945312 42.386719 375.210938 C 42.910156 376.480469 43.46875 377.734375 44.054688 378.972656 C 44.640625 380.214844 45.253906 381.4375 45.902344 382.648438 C 46.546875 383.859375 47.222656 385.054688 47.929688 386.230469 C 48.632812 387.40625 49.367188 388.566406 50.128906 389.707031 C 50.890625 390.847656 51.679688 391.96875 52.496094 393.070312 C 53.3125 394.175781 54.15625 395.257812 55.027344 396.316406 C 55.898438 397.378906 56.792969 398.417969 57.714844 399.433594 C 58.632812 400.449219 59.578125 401.445312 60.550781 402.414062 C 61.519531 403.386719 62.511719 404.332031 63.527344 405.253906 C 64.542969 406.175781 65.582031 407.070312 66.640625 407.941406 C 67.703125 408.8125 68.78125 409.65625 69.882812 410.476562 C 70.984375 411.292969 72.105469 412.085938 73.246094 412.847656 C 74.386719 413.609375 75.546875 414.34375 76.722656 415.050781 C 77.898438 415.757812 79.089844 416.433594 80.300781 417.082031 C 81.507812 417.726562 82.734375 418.347656 83.972656 418.933594 C 85.214844 419.519531 86.46875 420.078125 87.734375 420.601562 C 89 421.128906 90.28125 421.625 91.574219 422.085938 C 92.863281 422.550781 94.164062 422.980469 95.476562 423.382812 C 96.789062 423.78125 98.113281 424.148438 99.441406 424.480469 C 100.773438 424.816406 102.113281 425.117188 103.457031 425.386719 C 104.800781 425.65625 106.152344 425.890625 107.511719 426.09375 C 108.867188 426.296875 110.226562 426.464844 111.59375 426.601562 C 112.957031 426.738281 114.328125 426.839844 115.695312 426.90625 C 117.066406 426.976562 118.4375 427.011719 119.808594 427.011719 L 321.121094 427.011719 C 322.207031 427.039062 323.28125 427.167969 324.339844 427.402344 C 325.398438 427.632812 326.425781 427.96875 327.421875 428.402344 C 328.417969 428.832031 329.359375 429.359375 330.253906 429.972656 C 331.148438 430.589844 331.972656 431.285156 332.730469 432.0625 C 333.488281 432.839844 334.164062 433.679688 334.761719 434.589844 C 335.355469 435.496094 335.855469 436.453125 336.265625 437.457031 C 336.675781 438.460938 336.984375 439.496094 337.191406 440.5625 C 337.402344 441.625 337.507812 442.703125 337.507812 443.785156 C 337.507812 444.871094 337.402344 445.945312 337.191406 447.011719 C 336.984375 448.078125 336.675781 449.109375 336.265625 450.117188 C 335.855469 451.121094 335.355469 452.078125 334.761719 452.984375 C 334.164062 453.890625 333.488281 454.734375 332.730469 455.511719 C 331.972656 456.285156 331.148438 456.984375 330.253906 457.597656 C 329.359375 458.214844 328.417969 458.738281 327.421875 459.171875 C 326.425781 459.605469 325.398438 459.9375 324.339844 460.171875 C 323.28125 460.40625 322.207031 460.535156 321.121094 460.5625 " fill-opacity="1" fill-rule="nonzero"/><path fill="#009688" d="M 153.359375 393.472656 C 151.710938 393.472656 150.066406 393.390625 148.425781 393.230469 C 146.785156 393.070312 145.15625 392.828125 143.539062 392.503906 C 141.921875 392.183594 140.328125 391.785156 138.75 391.304688 C 137.171875 390.828125 135.621094 390.273438 134.097656 389.640625 C 132.574219 389.011719 131.085938 388.308594 129.632812 387.53125 C 128.179688 386.753906 126.769531 385.90625 125.398438 384.992188 C 124.027344 384.074219 122.703125 383.09375 121.429688 382.046875 C 120.15625 381.003906 118.9375 379.898438 117.769531 378.730469 C 116.605469 377.566406 115.5 376.347656 114.453125 375.070312 C 113.410156 373.796875 112.429688 372.476562 111.511719 371.105469 C 110.597656 369.734375 109.75 368.320312 108.972656 366.867188 C 108.195312 365.414062 107.492188 363.925781 106.863281 362.402344 C 106.230469 360.882812 105.675781 359.332031 105.199219 357.753906 C 104.71875 356.175781 104.320312 354.578125 103.996094 352.960938 C 103.675781 351.347656 103.433594 349.71875 103.273438 348.078125 C 103.109375 346.4375 103.03125 344.792969 103.03125 343.144531 C 103.03125 341.496094 103.109375 339.851562 103.273438 338.210938 C 103.433594 336.570312 103.675781 334.941406 103.996094 333.324219 C 104.320312 331.710938 104.71875 330.113281 105.199219 328.535156 C 105.675781 326.957031 106.230469 325.40625 106.863281 323.882812 C 107.492188 322.363281 108.195312 320.875 108.972656 319.417969 C 109.75 317.964844 110.597656 316.554688 111.511719 315.183594 C 112.429688 313.8125 113.410156 312.492188 114.453125 311.214844 C 115.5 309.941406 116.605469 308.722656 117.769531 307.558594 C 118.9375 306.390625 120.15625 305.285156 121.429688 304.238281 C 122.703125 303.195312 124.027344 302.214844 125.398438 301.296875 C 126.769531 300.382812 128.179688 299.535156 129.632812 298.757812 C 131.085938 297.980469 132.574219 297.277344 134.097656 296.648438 C 135.621094 296.015625 137.171875 295.460938 138.75 294.984375 C 140.328125 294.503906 141.921875 294.105469 143.539062 293.78125 C 145.15625 293.460938 146.785156 293.21875 148.425781 293.058594 C 150.066406 292.898438 151.710938 292.816406 153.359375 292.816406 C 155.007812 292.816406 156.652344 292.898438 158.292969 293.058594 C 159.933594 293.21875 161.5625 293.460938 163.175781 293.78125 C 164.792969 294.105469 166.390625 294.503906 167.96875 294.984375 C 169.546875 295.460938 171.09375 296.015625 172.617188 296.648438 C 174.140625 297.277344 175.628906 297.980469 177.082031 298.757812 C 178.535156 299.535156 179.949219 300.382812 181.320312 301.296875 C 182.691406 302.214844 184.011719 303.195312 185.285156 304.238281 C 186.5625 305.285156 187.78125 306.390625 188.945312 307.558594 C 190.113281 308.722656 191.21875 309.941406 192.261719 311.214844 C 193.308594 312.492188 194.289062 313.8125 195.203125 315.183594 C 196.121094 316.554688 196.96875 317.964844 197.746094 319.417969 C 198.519531 320.875 199.226562 322.363281 199.855469 323.882812 C 200.488281 325.40625 201.042969 326.957031 201.519531 328.535156 C 202 330.113281 202.398438 331.710938 202.71875 333.324219 C 203.042969 334.941406 203.28125 336.570312 203.445312 338.210938 C 203.605469 339.851562 203.6875 341.496094 203.6875 343.144531 C 203.683594 344.792969 203.601562 346.4375 203.441406 348.074219 C 203.277344 349.714844 203.035156 351.34375 202.710938 352.957031 C 202.386719 354.574219 201.988281 356.171875 201.507812 357.746094 C 201.027344 359.324219 200.472656 360.875 199.839844 362.394531 C 199.210938 363.917969 198.503906 365.40625 197.726562 366.859375 C 196.949219 368.3125 196.105469 369.722656 195.1875 371.09375 C 194.273438 372.460938 193.292969 373.785156 192.246094 375.058594 C 191.199219 376.332031 190.09375 377.550781 188.929688 378.714844 C 187.765625 379.878906 186.546875 380.984375 185.273438 382.03125 C 183.996094 383.078125 182.675781 384.058594 181.304688 384.972656 C 179.9375 385.890625 178.523438 386.734375 177.070312 387.511719 C 175.621094 388.289062 174.132812 388.996094 172.609375 389.625 C 171.085938 390.257812 169.539062 390.8125 167.960938 391.292969 C 166.386719 391.773438 164.789062 392.171875 163.171875 392.496094 C 161.558594 392.820312 159.929688 393.0625 158.289062 393.226562 C 156.648438 393.386719 155.007812 393.46875 153.359375 393.472656 M 153.359375 326.363281 C 152.808594 326.363281 152.261719 326.390625 151.714844 326.445312 C 151.167969 326.5 150.625 326.582031 150.085938 326.6875 C 149.546875 326.792969 149.015625 326.929688 148.488281 327.085938 C 147.960938 327.246094 147.445312 327.433594 146.9375 327.640625 C 146.429688 327.851562 145.933594 328.085938 145.449219 328.347656 C 144.964844 328.605469 144.492188 328.886719 144.035156 329.191406 C 143.578125 329.496094 143.140625 329.824219 142.714844 330.171875 C 142.289062 330.523438 141.882812 330.890625 141.492188 331.28125 C 141.105469 331.667969 140.738281 332.074219 140.386719 332.5 C 140.039062 332.925781 139.710938 333.367188 139.40625 333.820312 C 139.101562 334.277344 138.820312 334.75 138.5625 335.234375 C 138.300781 335.71875 138.066406 336.214844 137.855469 336.722656 C 137.644531 337.230469 137.460938 337.746094 137.300781 338.273438 C 137.140625 338.800781 137.007812 339.332031 136.902344 339.871094 C 136.792969 340.410156 136.714844 340.953125 136.660156 341.5 C 136.605469 342.046875 136.578125 342.59375 136.578125 343.144531 C 136.578125 343.695312 136.605469 344.242188 136.660156 344.789062 C 136.714844 345.335938 136.792969 345.878906 136.902344 346.417969 C 137.007812 346.957031 137.140625 347.488281 137.300781 348.015625 C 137.460938 348.539062 137.644531 349.058594 137.855469 349.566406 C 138.066406 350.074219 138.300781 350.570312 138.5625 351.054688 C 138.820312 351.539062 139.101562 352.007812 139.40625 352.464844 C 139.710938 352.921875 140.039062 353.363281 140.386719 353.789062 C 140.738281 354.214844 141.105469 354.621094 141.492188 355.007812 C 141.882812 355.398438 142.289062 355.765625 142.714844 356.113281 C 143.140625 356.464844 143.578125 356.789062 144.035156 357.09375 C 144.492188 357.402344 144.964844 357.683594 145.449219 357.941406 C 145.933594 358.199219 146.429688 358.4375 146.9375 358.644531 C 147.445312 358.855469 147.960938 359.042969 148.488281 359.199219 C 149.015625 359.359375 149.546875 359.492188 150.085938 359.601562 C 150.625 359.707031 151.167969 359.789062 151.714844 359.84375 C 152.261719 359.898438 152.808594 359.921875 153.359375 359.921875 C 153.910156 359.921875 154.457031 359.894531 155.003906 359.84375 C 155.550781 359.789062 156.09375 359.707031 156.632812 359.601562 C 157.171875 359.492188 157.703125 359.359375 158.230469 359.199219 C 158.753906 359.042969 159.273438 358.855469 159.78125 358.644531 C 160.289062 358.4375 160.785156 358.199219 161.269531 357.941406 C 161.753906 357.683594 162.222656 357.402344 162.679688 357.09375 C 163.136719 356.789062 163.578125 356.464844 164.003906 356.113281 C 164.429688 355.765625 164.835938 355.398438 165.222656 355.007812 C 165.613281 354.621094 165.980469 354.214844 166.328125 353.789062 C 166.675781 353.363281 167.003906 352.921875 167.308594 352.464844 C 167.617188 352.007812 167.898438 351.539062 168.15625 351.054688 C 168.414062 350.570312 168.648438 350.074219 168.859375 349.566406 C 169.070312 349.058594 169.257812 348.539062 169.414062 348.015625 C 169.574219 347.488281 169.707031 346.957031 169.816406 346.417969 C 169.921875 345.878906 170.003906 345.335938 170.058594 344.789062 C 170.109375 344.242188 170.136719 343.695312 170.136719 343.144531 C 170.136719 342.59375 170.105469 342.046875 170.050781 341.503906 C 169.996094 340.957031 169.910156 340.414062 169.804688 339.875 C 169.695312 339.339844 169.558594 338.808594 169.398438 338.28125 C 169.238281 337.757812 169.050781 337.242188 168.839844 336.734375 C 168.628906 336.226562 168.394531 335.734375 168.132812 335.25 C 167.875 334.765625 167.59375 334.296875 167.289062 333.839844 C 166.980469 333.382812 166.65625 332.945312 166.304688 332.519531 C 165.957031 332.09375 165.589844 331.691406 165.203125 331.300781 C 164.8125 330.914062 164.40625 330.546875 163.984375 330.195312 C 163.558594 329.847656 163.117188 329.519531 162.664062 329.214844 C 162.207031 328.910156 161.738281 328.628906 161.253906 328.367188 C 160.769531 328.109375 160.273438 327.875 159.769531 327.664062 C 159.261719 327.449219 158.746094 327.265625 158.222656 327.105469 C 157.695312 326.945312 157.164062 326.808594 156.628906 326.699219 C 156.089844 326.589844 155.546875 326.507812 155 326.453125 C 154.453125 326.398438 153.90625 326.367188 153.359375 326.363281 " fill-opacity="1" fill-rule="nonzero"/><path fill="#172b4d" d="M 321.121094 393.472656 C 319.472656 393.472656 317.828125 393.390625 316.191406 393.230469 C 314.550781 393.070312 312.921875 392.828125 311.304688 392.503906 C 309.6875 392.183594 308.089844 391.785156 306.511719 391.304688 C 304.9375 390.828125 303.386719 390.273438 301.863281 389.640625 C 300.339844 389.011719 298.851562 388.308594 297.398438 387.53125 C 295.945312 386.753906 294.53125 385.90625 293.160156 384.992188 C 291.792969 384.074219 290.46875 383.09375 289.195312 382.046875 C 287.921875 381.003906 286.699219 379.898438 285.535156 378.730469 C 284.371094 377.566406 283.265625 376.347656 282.21875 375.070312 C 281.171875 373.796875 280.191406 372.476562 279.277344 371.105469 C 278.359375 369.734375 277.515625 368.320312 276.738281 366.867188 C 275.960938 365.414062 275.257812 363.925781 274.625 362.402344 C 273.996094 360.882812 273.441406 359.332031 272.960938 357.753906 C 272.484375 356.175781 272.082031 354.578125 271.761719 352.960938 C 271.441406 351.347656 271.199219 349.71875 271.035156 348.078125 C 270.875 346.4375 270.792969 344.792969 270.792969 343.144531 C 270.792969 341.496094 270.875 339.851562 271.035156 338.210938 C 271.199219 336.570312 271.441406 334.941406 271.761719 333.324219 C 272.082031 331.710938 272.484375 330.113281 272.960938 328.535156 C 273.441406 326.957031 273.996094 325.40625 274.625 323.882812 C 275.257812 322.363281 275.960938 320.875 276.738281 319.417969 C 277.515625 317.964844 278.359375 316.554688 279.277344 315.183594 C 280.191406 313.8125 281.171875 312.492188 282.21875 311.214844 C 283.265625 309.941406 284.371094 308.722656 285.535156 307.558594 C 286.699219 306.390625 287.921875 305.285156 289.195312 304.238281 C 290.46875 303.195312 291.792969 302.214844 293.160156 301.296875 C 294.53125 300.382812 295.945312 299.535156 297.398438 298.757812 C 298.851562 297.980469 300.339844 297.277344 301.863281 296.648438 C 303.386719 296.015625 304.9375 295.460938 306.511719 294.984375 C 308.089844 294.503906 309.6875 294.105469 311.304688 293.78125 C 312.921875 293.460938 314.550781 293.21875 316.191406 293.058594 C 317.828125 292.898438 319.472656 292.816406 321.121094 292.816406 C 322.769531 292.816406 324.414062 292.898438 326.054688 293.058594 C 327.695312 293.21875 329.324219 293.460938 330.941406 293.78125 C 332.558594 294.105469 334.15625 294.503906 335.730469 294.984375 C 337.308594 295.460938 338.859375 296.015625 340.382812 296.648438 C 341.90625 297.277344 343.394531 297.980469 344.847656 298.757812 C 346.300781 299.535156 347.710938 300.382812 349.082031 301.296875 C 350.453125 302.214844 351.777344 303.195312 353.050781 304.238281 C 354.324219 305.285156 355.542969 306.390625 356.710938 307.558594 C 357.875 308.722656 358.980469 309.941406 360.027344 311.214844 C 361.074219 312.492188 362.054688 313.8125 362.96875 315.183594 C 363.882812 316.554688 364.730469 317.964844 365.507812 319.417969 C 366.285156 320.875 366.988281 322.363281 367.621094 323.882812 C 368.25 325.40625 368.804688 326.957031 369.285156 328.535156 C 369.761719 330.113281 370.164062 331.710938 370.484375 333.324219 C 370.804688 334.941406 371.046875 336.570312 371.207031 338.210938 C 371.371094 339.851562 371.449219 341.496094 371.449219 343.144531 C 371.449219 344.792969 371.367188 346.4375 371.203125 348.074219 C 371.039062 349.714844 370.796875 351.34375 370.472656 352.957031 C 370.152344 354.574219 369.75 356.171875 369.269531 357.746094 C 368.792969 359.324219 368.234375 360.875 367.605469 362.394531 C 366.972656 363.917969 366.269531 365.40625 365.492188 366.859375 C 364.714844 368.3125 363.867188 369.722656 362.953125 371.09375 C 362.035156 372.460938 361.054688 373.785156 360.011719 375.058594 C 358.964844 376.332031 357.859375 377.550781 356.695312 378.714844 C 355.527344 379.878906 354.308594 380.984375 353.035156 382.03125 C 351.761719 383.078125 350.441406 384.058594 349.070312 384.972656 C 347.699219 385.890625 346.289062 386.734375 344.835938 387.511719 C 343.382812 388.289062 341.894531 388.996094 340.375 389.625 C 338.851562 390.257812 337.300781 390.8125 335.726562 391.292969 C 334.148438 391.773438 332.554688 392.171875 330.9375 392.496094 C 329.320312 392.820312 327.695312 393.0625 326.054688 393.226562 C 324.414062 393.386719 322.769531 393.46875 321.121094 393.472656 M 321.121094 326.363281 C 320.574219 326.363281 320.023438 326.390625 319.476562 326.445312 C 318.929688 326.5 318.386719 326.582031 317.847656 326.6875 C 317.308594 326.792969 316.777344 326.929688 316.253906 327.085938 C 315.726562 327.246094 315.210938 327.433594 314.703125 327.640625 C 314.195312 327.851562 313.699219 328.085938 313.210938 328.347656 C 312.726562 328.605469 312.257812 328.886719 311.800781 329.191406 C 311.34375 329.496094 310.902344 329.824219 310.476562 330.171875 C 310.054688 330.523438 309.648438 330.890625 309.257812 331.28125 C 308.871094 331.667969 308.5 332.074219 308.152344 332.5 C 307.804688 332.925781 307.476562 333.367188 307.171875 333.820312 C 306.867188 334.277344 306.582031 334.75 306.324219 335.234375 C 306.066406 335.71875 305.832031 336.214844 305.621094 336.722656 C 305.410156 337.230469 305.226562 337.746094 305.066406 338.273438 C 304.90625 338.800781 304.773438 339.332031 304.664062 339.871094 C 304.558594 340.410156 304.476562 340.953125 304.425781 341.5 C 304.371094 342.046875 304.34375 342.59375 304.34375 343.144531 C 304.34375 343.695312 304.371094 344.242188 304.425781 344.789062 C 304.476562 345.335938 304.558594 345.878906 304.664062 346.417969 C 304.773438 346.957031 304.90625 347.488281 305.066406 348.015625 C 305.226562 348.539062 305.410156 349.058594 305.621094 349.566406 C 305.832031 350.074219 306.066406 350.570312 306.324219 351.054688 C 306.582031 351.539062 306.867188 352.007812 307.171875 352.464844 C 307.476562 352.921875 307.804688 353.363281 308.152344 353.789062 C 308.5 354.214844 308.871094 354.621094 309.257812 355.007812 C 309.648438 355.398438 310.054688 355.765625 310.476562 356.113281 C 310.902344 356.464844 311.34375 356.789062 311.800781 357.09375 C 312.257812 357.402344 312.726562 357.683594 313.214844 357.941406 C 313.699219 358.199219 314.195312 358.4375 314.703125 358.644531 C 315.210938 358.855469 315.726562 359.042969 316.253906 359.199219 C 316.777344 359.359375 317.308594 359.492188 317.847656 359.601562 C 318.386719 359.707031 318.929688 359.789062 319.476562 359.84375 C 320.023438 359.898438 320.574219 359.921875 321.121094 359.921875 C 321.671875 359.921875 322.21875 359.894531 322.765625 359.84375 C 323.3125 359.789062 323.855469 359.707031 324.394531 359.601562 C 324.933594 359.492188 325.46875 359.359375 325.992188 359.199219 C 326.519531 359.042969 327.035156 358.855469 327.542969 358.644531 C 328.050781 358.4375 328.546875 358.199219 329.03125 357.941406 C 329.515625 357.683594 329.988281 357.402344 330.445312 357.09375 C 330.902344 356.789062 331.34375 356.464844 331.765625 356.113281 C 332.191406 355.765625 332.597656 355.398438 332.988281 355.007812 C 333.375 354.621094 333.746094 354.214844 334.09375 353.789062 C 334.441406 353.363281 334.769531 352.921875 335.074219 352.464844 C 335.378906 352.007812 335.660156 351.539062 335.921875 351.054688 C 336.179688 350.570312 336.414062 350.074219 336.625 349.566406 C 336.835938 349.058594 337.019531 348.539062 337.179688 348.015625 C 337.339844 347.488281 337.472656 346.957031 337.578125 346.417969 C 337.6875 345.878906 337.765625 345.335938 337.820312 344.789062 C 337.875 344.242188 337.902344 343.695312 337.902344 343.144531 C 337.898438 342.59375 337.871094 342.046875 337.816406 341.5 C 337.757812 340.957031 337.675781 340.414062 337.566406 339.875 C 337.457031 339.339844 337.324219 338.808594 337.164062 338.28125 C 337.003906 337.757812 336.816406 337.242188 336.605469 336.734375 C 336.394531 336.226562 336.15625 335.734375 335.898438 335.25 C 335.640625 334.765625 335.355469 334.296875 335.050781 333.839844 C 334.746094 333.382812 334.417969 332.945312 334.070312 332.519531 C 333.722656 332.09375 333.355469 331.691406 332.964844 331.300781 C 332.578125 330.914062 332.171875 330.546875 331.746094 330.195312 C 331.324219 329.847656 330.882812 329.519531 330.425781 329.214844 C 329.972656 328.910156 329.5 328.628906 329.015625 328.367188 C 328.535156 328.109375 328.039062 327.875 327.53125 327.664062 C 327.027344 327.449219 326.507812 327.265625 325.984375 327.105469 C 325.460938 326.945312 324.929688 326.808594 324.390625 326.699219 C 323.851562 326.589844 323.3125 326.507812 322.765625 326.453125 C 322.21875 326.398438 321.671875 326.367188 321.121094 326.363281 " fill-opacity="1" fill-rule="nonzero"/><path fill="#172b4d" d="M 321.121094 661.882812 L 119.808594 661.882812 C 117.898438 661.867188 115.988281 661.800781 114.082031 661.691406 C 112.175781 661.582031 110.269531 661.425781 108.371094 661.222656 C 106.46875 661.019531 104.574219 660.769531 102.6875 660.472656 C 100.800781 660.179688 98.921875 659.835938 97.046875 659.449219 C 95.175781 659.0625 93.316406 658.628906 91.464844 658.152344 C 89.617188 657.671875 87.777344 657.148438 85.953125 656.582031 C 84.128906 656.011719 82.320312 655.402344 80.527344 654.746094 C 78.730469 654.089844 76.953125 653.386719 75.191406 652.644531 C 73.433594 651.902344 71.691406 651.117188 69.96875 650.289062 C 68.246094 649.460938 66.546875 648.589844 64.867188 647.679688 C 63.1875 646.765625 61.53125 645.816406 59.894531 644.824219 C 58.261719 643.832031 56.65625 642.800781 55.070312 641.730469 C 53.488281 640.660156 51.933594 639.550781 50.402344 638.40625 C 48.875 637.257812 47.375 636.074219 45.902344 634.855469 C 44.433594 633.636719 42.992188 632.378906 41.582031 631.089844 C 40.171875 629.800781 38.796875 628.476562 37.449219 627.121094 C 36.105469 625.761719 34.792969 624.371094 33.515625 622.953125 C 32.238281 621.53125 30.996094 620.078125 29.789062 618.597656 C 28.585938 617.113281 27.414062 615.605469 26.28125 614.066406 C 25.148438 612.527344 24.054688 610.960938 22.996094 609.367188 C 21.941406 607.777344 20.925781 606.160156 19.949219 604.515625 C 18.96875 602.875 18.035156 601.210938 17.136719 599.519531 C 16.242188 597.832031 15.386719 596.125 14.574219 594.394531 C 13.761719 592.664062 12.992188 590.917969 12.265625 589.148438 C 11.535156 587.382812 10.851562 585.597656 10.210938 583.796875 C 9.574219 582 8.976562 580.183594 8.425781 578.355469 C 7.871094 576.523438 7.367188 574.683594 6.90625 572.828125 C 6.441406 570.972656 6.027344 569.109375 5.65625 567.234375 C 5.285156 565.359375 4.960938 563.476562 4.679688 561.585938 C 4.402344 559.695312 4.171875 557.800781 3.984375 555.898438 C 3.796875 553.996094 3.65625 552.089844 3.566406 550.183594 C 3.472656 548.273438 3.425781 546.363281 3.425781 544.453125 C 3.425781 542.542969 3.472656 540.632812 3.566406 538.722656 C 3.65625 536.8125 3.796875 534.910156 3.984375 533.007812 C 4.171875 531.105469 4.402344 529.207031 4.679688 527.320312 C 4.960938 525.429688 5.285156 523.546875 5.65625 521.671875 C 6.027344 519.796875 6.441406 517.929688 6.90625 516.078125 C 7.367188 514.222656 7.871094 512.378906 8.425781 510.550781 C 8.976562 508.722656 9.574219 506.90625 10.210938 505.105469 C 10.851562 503.304688 11.535156 501.519531 12.265625 499.753906 C 12.992188 497.988281 13.761719 496.238281 14.574219 494.507812 C 15.386719 492.78125 16.242188 491.070312 17.136719 489.382812 C 18.035156 487.695312 18.96875 486.03125 19.949219 484.390625 C 20.925781 482.746094 21.941406 481.128906 22.996094 479.535156 C 24.054688 477.945312 25.148438 476.378906 26.28125 474.839844 C 27.414062 473.300781 28.585938 471.789062 29.789062 470.308594 C 30.996094 468.824219 32.238281 467.375 33.515625 465.953125 C 34.792969 464.53125 36.105469 463.140625 37.449219 461.785156 C 38.796875 460.425781 40.171875 459.105469 41.582031 457.8125 C 42.992188 456.523438 44.433594 455.269531 45.902344 454.050781 C 47.375 452.828125 48.875 451.648438 50.402344 450.5 C 51.933594 449.355469 53.488281 448.246094 55.070312 447.175781 C 56.65625 446.105469 58.261719 445.074219 59.894531 444.082031 C 61.53125 443.089844 63.1875 442.136719 64.867188 441.226562 C 66.546875 440.316406 68.246094 439.445312 69.96875 438.617188 C 71.691406 437.789062 73.433594 437.003906 75.191406 436.261719 C 76.953125 435.515625 78.730469 434.816406 80.527344 434.160156 C 82.320312 433.503906 84.128906 432.890625 85.953125 432.324219 C 87.777344 431.757812 89.617188 431.234375 91.464844 430.753906 C 93.316406 430.277344 95.175781 429.84375 97.046875 429.457031 C 98.921875 429.070312 100.800781 428.726562 102.6875 428.429688 C 104.574219 428.136719 106.46875 427.886719 108.371094 427.683594 C 110.269531 427.480469 112.175781 427.324219 114.082031 427.210938 C 115.988281 427.101562 117.898438 427.039062 119.808594 427.019531 L 321.121094 427.019531 C 322.207031 427.046875 323.28125 427.175781 324.339844 427.410156 C 325.398438 427.644531 326.425781 427.976562 327.421875 428.410156 C 328.417969 428.84375 329.363281 429.367188 330.253906 429.984375 C 331.148438 430.597656 331.972656 431.292969 332.730469 432.070312 C 333.492188 432.847656 334.167969 433.6875 334.761719 434.597656 C 335.355469 435.503906 335.859375 436.460938 336.269531 437.464844 C 336.679688 438.46875 336.988281 439.503906 337.195312 440.570312 C 337.40625 441.636719 337.507812 442.710938 337.507812 443.796875 C 337.507812 444.882812 337.40625 445.957031 337.195312 447.019531 C 336.988281 448.085938 336.679688 449.121094 336.269531 450.125 C 335.859375 451.128906 335.355469 452.085938 334.761719 452.996094 C 334.167969 453.902344 333.492188 454.746094 332.730469 455.519531 C 331.972656 456.296875 331.148438 456.992188 330.253906 457.609375 C 329.363281 458.226562 328.417969 458.75 327.421875 459.183594 C 326.425781 459.613281 325.398438 459.949219 324.339844 460.183594 C 323.28125 460.414062 322.207031 460.546875 321.121094 460.570312 L 119.808594 460.570312 C 118.4375 460.570312 117.066406 460.605469 115.695312 460.671875 C 114.324219 460.738281 112.953125 460.839844 111.585938 460.972656 C 110.222656 461.109375 108.859375 461.277344 107.5 461.476562 C 106.144531 461.679688 104.792969 461.914062 103.445312 462.183594 C 102.097656 462.449219 100.757812 462.75 99.429688 463.085938 C 98.097656 463.417969 96.773438 463.785156 95.460938 464.183594 C 94.144531 464.582031 92.84375 465.011719 91.550781 465.472656 C 90.257812 465.9375 88.976562 466.429688 87.710938 466.957031 C 86.441406 467.480469 85.1875 468.035156 83.945312 468.625 C 82.703125 469.210938 81.480469 469.828125 80.269531 470.476562 C 79.058594 471.121094 77.863281 471.796875 76.6875 472.503906 C 75.507812 473.210938 74.347656 473.945312 73.207031 474.707031 C 72.066406 475.46875 70.945312 476.261719 69.839844 477.078125 C 68.738281 477.894531 67.65625 478.738281 66.59375 479.609375 C 65.535156 480.480469 64.496094 481.378906 63.476562 482.300781 C 62.460938 483.222656 61.46875 484.167969 60.496094 485.140625 C 59.527344 486.109375 58.578125 487.105469 57.65625 488.121094 C 56.734375 489.136719 55.839844 490.175781 54.96875 491.238281 C 54.097656 492.300781 53.253906 493.382812 52.433594 494.484375 C 51.617188 495.585938 50.828125 496.707031 50.0625 497.851562 C 49.300781 498.992188 48.566406 500.152344 47.863281 501.328125 C 47.15625 502.503906 46.480469 503.699219 45.832031 504.910156 C 45.183594 506.121094 44.566406 507.347656 43.980469 508.589844 C 43.394531 509.828125 42.839844 511.082031 42.3125 512.351562 C 41.789062 513.621094 41.292969 514.902344 40.832031 516.191406 C 40.367188 517.484375 39.9375 518.789062 39.539062 520.101562 C 39.140625 521.417969 38.773438 522.738281 38.441406 524.070312 C 38.109375 525.402344 37.808594 526.742188 37.539062 528.085938 C 37.273438 529.433594 37.035156 530.785156 36.835938 532.144531 C 36.632812 533.503906 36.464844 534.863281 36.332031 536.230469 C 36.195312 537.597656 36.097656 538.964844 36.027344 540.335938 C 35.960938 541.707031 35.925781 543.078125 35.925781 544.453125 C 35.925781 545.824219 35.960938 547.195312 36.027344 548.566406 C 36.097656 549.9375 36.195312 551.308594 36.332031 552.675781 C 36.464844 554.039062 36.632812 555.402344 36.835938 556.761719 C 37.035156 558.117188 37.273438 559.472656 37.539062 560.816406 C 37.808594 562.164062 38.109375 563.503906 38.441406 564.832031 C 38.773438 566.164062 39.140625 567.488281 39.539062 568.800781 C 39.9375 570.117188 40.367188 571.417969 40.832031 572.710938 C 41.292969 574.003906 41.789062 575.285156 42.3125 576.550781 C 42.839844 577.820312 43.394531 579.074219 43.980469 580.316406 C 44.566406 581.558594 45.183594 582.785156 45.832031 583.992188 C 46.480469 585.203125 47.15625 586.398438 47.863281 587.574219 C 48.566406 588.753906 49.300781 589.914062 50.0625 591.054688 C 50.828125 592.195312 51.617188 593.316406 52.433594 594.421875 C 53.253906 595.523438 54.097656 596.605469 54.96875 597.667969 C 55.839844 598.726562 56.734375 599.765625 57.65625 600.785156 C 58.578125 601.800781 59.527344 602.796875 60.496094 603.765625 C 61.46875 604.738281 62.460938 605.683594 63.476562 606.605469 C 64.496094 607.527344 65.535156 608.421875 66.59375 609.292969 C 67.65625 610.164062 68.738281 611.007812 69.839844 611.828125 C 70.945312 612.644531 72.066406 613.433594 73.207031 614.199219 C 74.347656 614.960938 75.507812 615.695312 76.6875 616.398438 C 77.863281 617.105469 79.058594 617.78125 80.269531 618.429688 C 81.480469 619.078125 82.703125 619.695312 83.945312 620.28125 C 85.1875 620.867188 86.441406 621.421875 87.710938 621.949219 C 88.976562 622.472656 90.257812 622.96875 91.550781 623.429688 C 92.84375 623.894531 94.144531 624.324219 95.460938 624.722656 C 96.773438 625.121094 98.097656 625.488281 99.429688 625.820312 C 100.757812 626.152344 102.097656 626.453125 103.445312 626.722656 C 104.792969 626.988281 106.144531 627.226562 107.5 627.425781 C 108.859375 627.628906 110.222656 627.796875 111.585938 627.929688 C 112.953125 628.066406 114.324219 628.164062 115.695312 628.234375 C 117.066406 628.300781 118.4375 628.335938 119.808594 628.335938 L 321.121094 628.335938 C 322.207031 628.359375 323.28125 628.488281 324.339844 628.722656 C 325.398438 628.957031 326.425781 629.292969 327.421875 629.722656 C 328.414062 630.15625 329.359375 630.679688 330.253906 631.296875 C 331.144531 631.914062 331.972656 632.609375 332.730469 633.386719 C 333.488281 634.160156 334.164062 635.003906 334.757812 635.910156 C 335.351562 636.820312 335.855469 637.773438 336.265625 638.78125 C 336.671875 639.785156 336.980469 640.820312 337.191406 641.882812 C 337.398438 642.949219 337.503906 644.023438 337.503906 645.109375 C 337.503906 646.195312 337.398438 647.269531 337.191406 648.332031 C 336.980469 649.398438 336.671875 650.433594 336.265625 651.4375 C 335.855469 652.441406 335.351562 653.398438 334.757812 654.304688 C 334.164062 655.214844 333.488281 656.054688 332.730469 656.832031 C 331.972656 657.609375 331.144531 658.304688 330.253906 658.921875 C 329.359375 659.535156 328.414062 660.0625 327.421875 660.496094 C 326.425781 660.925781 325.398438 661.261719 324.339844 661.492188 C 323.28125 661.726562 322.207031 661.859375 321.121094 661.882812 " fill-opacity="1" fill-rule="nonzero"/><path fill="#172b4d" d="M 153.359375 594.785156 C 151.710938 594.785156 150.066406 594.703125 148.425781 594.542969 C 146.785156 594.382812 145.15625 594.140625 143.539062 593.816406 C 141.921875 593.496094 140.328125 593.097656 138.75 592.617188 C 137.171875 592.140625 135.621094 591.585938 134.097656 590.953125 C 132.574219 590.324219 131.085938 589.621094 129.632812 588.84375 C 128.179688 588.066406 126.769531 587.21875 125.398438 586.304688 C 124.027344 585.386719 122.703125 584.40625 121.429688 583.359375 C 120.15625 582.316406 118.9375 581.210938 117.769531 580.042969 C 116.605469 578.878906 115.5 577.660156 114.453125 576.386719 C 113.410156 575.109375 112.429688 573.789062 111.511719 572.417969 C 110.597656 571.046875 109.75 569.636719 108.972656 568.179688 C 108.195312 566.726562 107.492188 565.238281 106.863281 563.714844 C 106.230469 562.195312 105.675781 560.644531 105.199219 559.066406 C 104.71875 557.488281 104.320312 555.894531 103.996094 554.277344 C 103.675781 552.660156 103.433594 551.03125 103.273438 549.390625 C 103.109375 547.75 103.03125 546.105469 103.03125 544.457031 C 103.03125 542.808594 103.109375 541.164062 103.273438 539.523438 C 103.433594 537.882812 103.675781 536.253906 103.996094 534.636719 C 104.320312 533.023438 104.71875 531.425781 105.199219 529.847656 C 105.675781 528.269531 106.230469 526.71875 106.863281 525.195312 C 107.492188 523.675781 108.195312 522.1875 108.972656 520.734375 C 109.75 519.277344 110.597656 517.867188 111.511719 516.496094 C 112.429688 515.125 113.410156 513.804688 114.453125 512.527344 C 115.5 511.253906 116.605469 510.035156 117.769531 508.871094 C 118.9375 507.703125 120.15625 506.597656 121.429688 505.554688 C 122.703125 504.507812 124.027344 503.527344 125.398438 502.609375 C 126.769531 501.695312 128.179688 500.847656 129.632812 500.070312 C 131.085938 499.292969 132.574219 498.589844 134.097656 497.960938 C 135.621094 497.328125 137.171875 496.773438 138.75 496.296875 C 140.328125 495.816406 141.921875 495.417969 143.539062 495.097656 C 145.15625 494.773438 146.785156 494.53125 148.425781 494.371094 C 150.066406 494.210938 151.710938 494.128906 153.359375 494.128906 C 155.007812 494.128906 156.652344 494.210938 158.292969 494.371094 C 159.933594 494.53125 161.5625 494.773438 163.175781 495.097656 C 164.792969 495.417969 166.390625 495.816406 167.96875 496.296875 C 169.546875 496.773438 171.09375 497.328125 172.617188 497.960938 C 174.140625 498.589844 175.628906 499.292969 177.082031 500.070312 C 178.535156 500.847656 179.949219 501.695312 181.320312 502.609375 C 182.691406 503.527344 184.011719 504.507812 185.285156 505.554688 C 186.5625 506.597656 187.78125 507.703125 188.945312 508.871094 C 190.113281 510.035156 191.21875 511.253906 192.261719 512.53125 C 193.308594 513.804688 194.289062 515.125 195.203125 516.496094 C 196.121094 517.867188 196.96875 519.277344 197.746094 520.734375 C 198.519531 522.1875 199.226562 523.675781 199.855469 525.195312 C 200.488281 526.71875 201.042969 528.269531 201.519531 529.847656 C 202 531.425781 202.398438 533.023438 202.71875 534.636719 C 203.042969 536.253906 203.28125 537.882812 203.445312 539.523438 C 203.605469 541.164062 203.6875 542.808594 203.6875 544.457031 C 203.683594 546.105469 203.601562 547.75 203.441406 549.386719 C 203.277344 551.027344 203.035156 552.65625 202.710938 554.273438 C 202.386719 555.886719 201.988281 557.484375 201.507812 559.0625 C 201.027344 560.636719 200.472656 562.1875 199.839844 563.707031 C 199.210938 565.230469 198.503906 566.71875 197.726562 568.171875 C 196.949219 569.625 196.105469 571.035156 195.1875 572.40625 C 194.273438 573.773438 193.292969 575.097656 192.246094 576.371094 C 191.199219 577.644531 190.09375 578.863281 188.929688 580.027344 C 187.765625 581.195312 186.546875 582.300781 185.273438 583.34375 C 183.996094 584.390625 182.675781 585.371094 181.304688 586.285156 C 179.9375 587.203125 178.523438 588.046875 177.070312 588.828125 C 175.621094 589.605469 174.132812 590.308594 172.609375 590.941406 C 171.085938 591.570312 169.539062 592.125 167.960938 592.605469 C 166.386719 593.085938 164.789062 593.488281 163.171875 593.808594 C 161.558594 594.132812 159.929688 594.375 158.289062 594.539062 C 156.648438 594.699219 155.007812 594.785156 153.359375 594.785156 M 153.359375 527.679688 C 152.808594 527.679688 152.261719 527.703125 151.714844 527.757812 C 151.167969 527.8125 150.625 527.894531 150.085938 528 C 149.546875 528.105469 149.015625 528.242188 148.488281 528.402344 C 147.960938 528.558594 147.445312 528.746094 146.9375 528.953125 C 146.429688 529.164062 145.933594 529.398438 145.449219 529.660156 C 144.964844 529.917969 144.492188 530.199219 144.035156 530.503906 C 143.578125 530.8125 143.140625 531.136719 142.714844 531.488281 C 142.289062 531.835938 141.882812 532.203125 141.492188 532.59375 C 141.105469 532.980469 140.738281 533.386719 140.386719 533.8125 C 140.039062 534.238281 139.710938 534.679688 139.40625 535.132812 C 139.101562 535.59375 138.820312 536.0625 138.5625 536.546875 C 138.300781 537.03125 138.066406 537.527344 137.855469 538.035156 C 137.644531 538.542969 137.460938 539.0625 137.300781 539.585938 C 137.140625 540.113281 137.007812 540.644531 136.902344 541.183594 C 136.792969 541.722656 136.714844 542.265625 136.660156 542.8125 C 136.605469 543.359375 136.578125 543.90625 136.578125 544.457031 C 136.578125 545.007812 136.605469 545.554688 136.660156 546.101562 C 136.714844 546.648438 136.792969 547.191406 136.902344 547.730469 C 137.007812 548.269531 137.140625 548.800781 137.300781 549.328125 C 137.460938 549.855469 137.644531 550.371094 137.855469 550.878906 C 138.066406 551.386719 138.300781 551.882812 138.5625 552.367188 C 138.820312 552.851562 139.101562 553.320312 139.40625 553.777344 C 139.710938 554.234375 140.039062 554.675781 140.386719 555.101562 C 140.738281 555.527344 141.105469 555.933594 141.492188 556.320312 C 141.882812 556.710938 142.289062 557.078125 142.714844 557.425781 C 143.140625 557.777344 143.578125 558.101562 144.035156 558.40625 C 144.492188 558.714844 144.964844 558.996094 145.449219 559.253906 C 145.933594 559.511719 146.429688 559.75 146.9375 559.957031 C 147.445312 560.167969 147.960938 560.355469 148.488281 560.511719 C 149.015625 560.671875 149.546875 560.804688 150.085938 560.914062 C 150.625 561.019531 151.167969 561.101562 151.714844 561.15625 C 152.261719 561.210938 152.808594 561.234375 153.359375 561.234375 C 153.910156 561.234375 154.457031 561.210938 155.003906 561.15625 C 155.550781 561.101562 156.09375 561.019531 156.632812 560.914062 C 157.171875 560.804688 157.703125 560.671875 158.230469 560.511719 C 158.753906 560.355469 159.273438 560.167969 159.78125 559.957031 C 160.289062 559.75 160.785156 559.511719 161.269531 559.253906 C 161.753906 558.996094 162.222656 558.714844 162.679688 558.40625 C 163.136719 558.101562 163.578125 557.777344 164.003906 557.425781 C 164.429688 557.078125 164.835938 556.710938 165.222656 556.320312 C 165.613281 555.933594 165.980469 555.527344 166.328125 555.101562 C 166.675781 554.675781 167.003906 554.234375 167.308594 553.777344 C 167.617188 553.320312 167.898438 552.851562 168.15625 552.367188 C 168.414062 551.882812 168.648438 551.386719 168.859375 550.878906 C 169.070312 550.371094 169.257812 549.855469 169.414062 549.328125 C 169.574219 548.800781 169.707031 548.269531 169.816406 547.730469 C 169.921875 547.191406 170.003906 546.648438 170.058594 546.101562 C 170.109375 545.554688 170.136719 545.007812 170.136719 544.457031 C 170.136719 543.910156 170.105469 543.359375 170.050781 542.816406 C 169.996094 542.269531 169.910156 541.726562 169.804688 541.1875 C 169.695312 540.652344 169.558594 540.121094 169.398438 539.59375 C 169.238281 539.070312 169.050781 538.554688 168.839844 538.046875 C 168.628906 537.542969 168.394531 537.046875 168.132812 536.5625 C 167.875 536.078125 167.59375 535.609375 167.289062 535.152344 C 166.980469 534.695312 166.65625 534.257812 166.304688 533.832031 C 165.957031 533.410156 165.589844 533.003906 165.203125 532.613281 C 164.8125 532.226562 164.40625 531.859375 163.984375 531.507812 C 163.558594 531.160156 163.117188 530.835938 162.664062 530.527344 C 162.207031 530.222656 161.738281 529.941406 161.253906 529.679688 C 160.769531 529.421875 160.273438 529.1875 159.769531 528.976562 C 159.261719 528.765625 158.746094 528.578125 158.222656 528.417969 C 157.695312 528.257812 157.164062 528.121094 156.628906 528.011719 C 156.089844 527.902344 155.546875 527.820312 155 527.765625 C 154.453125 527.710938 153.90625 527.679688 153.359375 527.679688 " fill-opacity="1" fill-rule="nonzero"/><path fill="#172b4d" d="M 321.121094 594.785156 C 319.472656 594.785156 317.828125 594.703125 316.191406 594.542969 C 314.550781 594.382812 312.921875 594.140625 311.304688 593.816406 C 309.6875 593.496094 308.089844 593.097656 306.511719 592.617188 C 304.9375 592.140625 303.386719 591.585938 301.863281 590.953125 C 300.339844 590.324219 298.851562 589.621094 297.398438 588.84375 C 295.945312 588.066406 294.53125 587.21875 293.160156 586.304688 C 291.792969 585.386719 290.46875 584.40625 289.195312 583.359375 C 287.921875 582.316406 286.699219 581.210938 285.535156 580.042969 C 284.371094 578.878906 283.265625 577.660156 282.21875 576.386719 C 281.171875 575.109375 280.191406 573.789062 279.277344 572.417969 C 278.359375 571.046875 277.515625 569.636719 276.738281 568.179688 C 275.960938 566.726562 275.257812 565.238281 274.625 563.714844 C 273.996094 562.195312 273.441406 560.644531 272.960938 559.066406 C 272.484375 557.488281 272.082031 555.894531 271.761719 554.277344 C 271.441406 552.660156 271.199219 551.03125 271.035156 549.390625 C 270.875 547.75 270.792969 546.105469 270.792969 544.457031 C 270.792969 542.808594 270.875 541.164062 271.035156 539.523438 C 271.199219 537.882812 271.441406 536.253906 271.761719 534.636719 C 272.082031 533.023438 272.484375 531.425781 272.960938 529.847656 C 273.441406 528.269531 273.996094 526.71875 274.625 525.195312 C 275.257812 523.675781 275.960938 522.1875 276.738281 520.734375 C 277.515625 519.277344 278.359375 517.867188 279.277344 516.496094 C 280.191406 515.125 281.171875 513.804688 282.21875 512.527344 C 283.265625 511.253906 284.371094 510.035156 285.535156 508.871094 C 286.699219 507.703125 287.921875 506.597656 289.195312 505.554688 C 290.46875 504.507812 291.792969 503.527344 293.160156 502.609375 C 294.53125 501.695312 295.945312 500.847656 297.398438 500.070312 C 298.851562 499.292969 300.339844 498.589844 301.863281 497.960938 C 303.386719 497.328125 304.9375 496.773438 306.511719 496.296875 C 308.089844 495.816406 309.6875 495.417969 311.304688 495.097656 C 312.921875 494.773438 314.550781 494.53125 316.191406 494.371094 C 317.828125 494.210938 319.472656 494.128906 321.121094 494.128906 C 322.769531 494.128906 324.414062 494.210938 326.054688 494.371094 C 327.695312 494.53125 329.324219 494.773438 330.941406 495.097656 C 332.558594 495.417969 334.15625 495.816406 335.730469 496.296875 C 337.308594 496.773438 338.859375 497.328125 340.382812 497.960938 C 341.90625 498.589844 343.394531 499.292969 344.847656 500.070312 C 346.300781 500.847656 347.710938 501.695312 349.082031 502.609375 C 350.453125 503.527344 351.777344 504.507812 353.050781 505.554688 C 354.324219 506.597656 355.542969 507.703125 356.710938 508.871094 C 357.875 510.035156 358.980469 511.253906 360.027344 512.53125 C 361.074219 513.804688 362.054688 515.125 362.96875 516.496094 C 363.882812 517.867188 364.730469 519.277344 365.507812 520.734375 C 366.285156 522.1875 366.988281 523.675781 367.621094 525.195312 C 368.25 526.71875 368.804688 528.269531 369.285156 529.847656 C 369.761719 531.425781 370.164062 533.023438 370.484375 534.636719 C 370.804688 536.253906 371.046875 537.882812 371.207031 539.523438 C 371.371094 541.164062 371.449219 542.808594 371.449219 544.457031 C 371.449219 546.105469 371.367188 547.75 371.203125 549.386719 C 371.039062 551.027344 370.796875 552.65625 370.472656 554.273438 C 370.152344 555.886719 369.75 557.484375 369.269531 559.058594 C 368.792969 560.636719 368.234375 562.1875 367.605469 563.707031 C 366.972656 565.230469 366.269531 566.71875 365.492188 568.171875 C 364.714844 569.625 363.867188 571.035156 362.953125 572.40625 C 362.035156 573.773438 361.054688 575.097656 360.011719 576.371094 C 358.964844 577.644531 357.859375 578.863281 356.695312 580.027344 C 355.527344 581.191406 354.308594 582.296875 353.035156 583.34375 C 351.761719 584.390625 350.441406 585.371094 349.070312 586.285156 C 347.699219 587.203125 346.289062 588.046875 344.835938 588.828125 C 343.382812 589.605469 341.894531 590.308594 340.375 590.9375 C 338.851562 591.570312 337.300781 592.125 335.726562 592.605469 C 334.148438 593.085938 332.554688 593.484375 330.9375 593.808594 C 329.320312 594.132812 327.695312 594.375 326.054688 594.539062 C 324.414062 594.699219 322.769531 594.785156 321.121094 594.785156 M 321.121094 527.679688 C 320.574219 527.679688 320.023438 527.703125 319.476562 527.757812 C 318.929688 527.8125 318.386719 527.894531 317.847656 528 C 317.308594 528.105469 316.777344 528.242188 316.253906 528.402344 C 315.726562 528.558594 315.210938 528.746094 314.703125 528.953125 C 314.195312 529.164062 313.699219 529.398438 313.210938 529.660156 C 312.726562 529.917969 312.257812 530.199219 311.800781 530.503906 C 311.34375 530.8125 310.902344 531.136719 310.476562 531.488281 C 310.054688 531.835938 309.648438 532.203125 309.257812 532.59375 C 308.871094 532.980469 308.5 533.386719 308.152344 533.8125 C 307.804688 534.238281 307.476562 534.679688 307.171875 535.132812 C 306.867188 535.59375 306.582031 536.0625 306.324219 536.546875 C 306.066406 537.03125 305.832031 537.527344 305.621094 538.035156 C 305.410156 538.542969 305.226562 539.0625 305.066406 539.585938 C 304.90625 540.113281 304.773438 540.644531 304.664062 541.183594 C 304.558594 541.722656 304.476562 542.265625 304.425781 542.8125 C 304.371094 543.359375 304.34375 543.90625 304.34375 544.457031 C 304.34375 545.007812 304.371094 545.554688 304.425781 546.101562 C 304.476562 546.648438 304.558594 547.191406 304.664062 547.730469 C 304.773438 548.269531 304.90625 548.800781 305.066406 549.328125 C 305.226562 549.855469 305.410156 550.371094 305.621094 550.878906 C 305.832031 551.386719 306.066406 551.882812 306.324219 552.367188 C 306.582031 552.851562 306.867188 553.320312 307.171875 553.777344 C 307.476562 554.234375 307.804688 554.675781 308.152344 555.101562 C 308.5 555.527344 308.871094 555.933594 309.257812 556.320312 C 309.648438 556.710938 310.054688 557.078125 310.476562 557.425781 C 310.902344 557.777344 311.34375 558.101562 311.800781 558.40625 C 312.257812 558.714844 312.726562 558.996094 313.214844 559.253906 C 313.699219 559.511719 314.195312 559.75 314.703125 559.957031 C 315.210938 560.167969 315.726562 560.355469 316.253906 560.511719 C 316.777344 560.671875 317.308594 560.804688 317.847656 560.914062 C 318.386719 561.019531 318.929688 561.101562 319.476562 561.15625 C 320.023438 561.210938 320.574219 561.234375 321.121094 561.234375 C 321.671875 561.234375 322.21875 561.210938 322.765625 561.15625 C 323.3125 561.101562 323.855469 561.019531 324.394531 560.914062 C 324.933594 560.804688 325.46875 560.671875 325.992188 560.511719 C 326.519531 560.355469 327.035156 560.167969 327.542969 559.957031 C 328.050781 559.75 328.546875 559.511719 329.03125 559.253906 C 329.515625 558.996094 329.988281 558.714844 330.445312 558.40625 C 330.902344 558.101562 331.34375 557.777344 331.765625 557.425781 C 332.191406 557.078125 332.597656 556.710938 332.988281 556.320312 C 333.375 555.933594 333.746094 555.527344 334.09375 555.101562 C 334.441406 554.675781 334.769531 554.234375 335.074219 553.777344 C 335.378906 553.320312 335.660156 552.851562 335.921875 552.367188 C 336.179688 551.882812 336.414062 551.386719 336.625 550.878906 C 336.835938 550.371094 337.019531 549.855469 337.179688 549.328125 C 337.339844 548.800781 337.472656 548.269531 337.578125 547.730469 C 337.6875 547.191406 337.765625 546.648438 337.820312 546.101562 C 337.875 545.554688 337.902344 545.007812 337.902344 544.457031 C 337.898438 543.910156 337.871094 543.359375 337.816406 542.816406 C 337.757812 542.269531 337.675781 541.726562 337.566406 541.1875 C 337.457031 540.652344 337.324219 540.121094 337.164062 539.59375 C 337.003906 539.070312 336.816406 538.554688 336.605469 538.046875 C 336.394531 537.539062 336.160156 537.046875 335.898438 536.5625 C 335.640625 536.078125 335.355469 535.609375 335.050781 535.152344 C 334.746094 534.695312 334.417969 534.257812 334.070312 533.832031 C 333.722656 533.40625 333.355469 533.003906 332.964844 532.613281 C 332.578125 532.226562 332.171875 531.859375 331.746094 531.507812 C 331.324219 531.160156 330.882812 530.835938 330.425781 530.527344 C 329.972656 530.222656 329.5 529.941406 329.015625 529.679688 C 328.535156 529.421875 328.039062 529.1875 327.53125 528.976562 C 327.027344 528.765625 326.507812 528.578125 325.984375 528.417969 C 325.460938 528.257812 324.929688 528.121094 324.390625 528.011719 C 323.851562 527.902344 323.3125 527.820312 322.765625 527.765625 C 322.21875 527.710938 321.671875 527.679688 321.121094 527.679688 " fill-opacity="1" fill-rule="nonzero"/></svg>