<svg xmlns="http://www.w3.org/2000/svg" xmlns:xlink="http://www.w3.org/1999/xlink" width="1080" zoomAndPan="magnify" viewBox="0 0 810 809.999993" height="1080" preserveAspectRatio="xMidYMid meet" version="1.0"><path fill="#797979" d="M 648 490.050781 L 584.820312 553.230469 C 584.011719 552.421875 583.199219 551.609375 582.390625 549.988281 L 500.578125 468.988281 C 495.71875 464.128906 488.429688 464.128906 484.378906 468.988281 C 479.519531 473.851562 479.519531 481.140625 484.378906 485.191406 L 566.191406 567 C 573.480469 574.289062 573.480469 585.628906 566.191406 592.109375 C 558.898438 599.398438 547.558594 599.398438 541.078125 592.109375 L 495.71875 546.75 C 490.859375 541.890625 483.570312 541.890625 479.519531 546.75 C 474.660156 551.609375 474.660156 558.898438 479.519531 562.949219 L 524.878906 608.308594 C 528.121094 611.550781 530.550781 616.410156 530.550781 621.269531 C 530.550781 626.128906 528.929688 630.988281 524.878906 634.230469 C 521.640625 637.46875 516.78125 639.898438 511.921875 639.898438 C 507.058594 639.898438 502.199219 638.28125 498.960938 634.230469 L 453.601562 588.871094 C 448.738281 584.011719 441.449219 584.011719 437.398438 588.871094 C 432.539062 593.730469 432.539062 601.019531 437.398438 605.070312 L 482.761719 650.429688 C 490.050781 657.71875 490.050781 669.058594 482.761719 675.539062 C 479.519531 678.78125 474.660156 681.210938 469.800781 681.210938 C 464.941406 681.210938 460.078125 679.589844 456.839844 675.539062 L 411.480469 630.179688 C 406.621094 625.320312 399.328125 625.320312 395.28125 630.179688 C 391.230469 635.039062 390.421875 642.328125 395.28125 646.378906 L 440.640625 691.738281 C 447.929688 699.03125 447.929688 710.371094 440.640625 716.851562 C 437.398438 720.089844 432.539062 722.519531 427.679688 722.519531 C 422.820312 722.519531 417.960938 720.898438 414.71875 716.851562 L 385.558594 688.5 C 395.28125 673.109375 392.851562 652.050781 379.078125 639.089844 L 378.269531 638.28125 C 369.359375 629.371094 357.210938 625.320312 345.058594 626.941406 C 344.25 617.21875 340.199219 608.308594 332.910156 601.019531 C 327.238281 595.351562 320.761719 592.109375 314.28125 590.488281 C 315.898438 585.628906 316.710938 580.769531 316.710938 575.910156 C 316.710938 565.378906 312.660156 554.851562 304.558594 546.75 C 297.269531 539.460938 286.738281 534.601562 275.398438 534.601562 C 268.921875 534.601562 263.25 536.21875 257.578125 538.648438 C 255.960938 532.171875 251.910156 525.691406 247.050781 520.828125 C 230.851562 504.628906 205.738281 504.628906 189.539062 520.828125 L 186.300781 525.691406 L 183.058594 522.449219 C 177.390625 516.78125 174.148438 509.488281 174.148438 501.390625 L 174.148438 471.421875 C 174.148438 468.179688 172.53125 465.75 170.910156 463.320312 L 121.5 413.101562 L 135.269531 399.328125 C 140.128906 394.46875 140.128906 387.179688 135.269531 383.128906 C 130.410156 378.269531 123.121094 378.269531 119.070312 383.128906 L 100.441406 401.761719 C 97.199219 405 91.53125 405 87.480469 401.761719 L 27.539062 341.820312 C 22.679688 336.960938 15.390625 336.960938 11.339844 341.820312 C 6.480469 346.679688 6.480469 353.96875 11.339844 358.019531 L 71.28125 417.960938 C 77.761719 424.441406 85.859375 427.679688 93.960938 427.679688 C 96.390625 427.679688 99.628906 427.679688 102.058594 426.871094 L 151.46875 476.28125 L 151.46875 501.390625 C 151.46875 515.160156 157.140625 528.929688 166.859375 538.648438 L 170.101562 541.890625 L 166.050781 545.941406 C 158.761719 553.230469 153.898438 563.761719 153.898438 575.101562 C 153.898438 585.628906 157.949219 596.160156 166.050781 604.261719 C 174.148438 612.359375 184.679688 616.410156 195.210938 616.410156 C 195.210938 616.410156 195.210938 616.410156 196.019531 616.410156 C 196.019531 616.410156 196.019531 616.410156 196.019531 617.21875 C 196.019531 627.75 200.070312 638.28125 208.171875 646.378906 C 215.460938 653.671875 225.988281 658.53125 237.328125 658.53125 C 237.328125 658.53125 237.328125 658.53125 238.140625 658.53125 C 238.140625 669.058594 242.191406 679.589844 250.289062 687.691406 C 258.390625 695.789062 268.921875 699.839844 279.449219 699.839844 C 279.449219 699.839844 279.449219 699.839844 280.261719 699.839844 C 280.261719 710.371094 284.308594 720.898438 292.410156 729 L 293.21875 729.808594 C 300.511719 737.101562 311.039062 741.960938 322.378906 741.960938 C 332.910156 741.960938 343.441406 737.910156 351.539062 729.808594 L 373.410156 707.941406 L 401.761719 736.289062 C 409.859375 744.390625 419.578125 748.441406 430.921875 748.441406 C 442.261719 748.441406 451.980469 744.390625 460.078125 736.289062 C 468.179688 728.191406 472.230469 716.851562 472.230469 706.320312 C 472.230469 706.320312 473.039062 706.320312 473.039062 706.320312 C 484.378906 706.320312 494.101562 702.269531 502.199219 694.171875 C 510.300781 686.070312 514.351562 674.730469 514.351562 664.199219 C 514.351562 664.199219 515.160156 664.199219 515.160156 664.199219 C 525.691406 664.199219 536.21875 660.148438 544.320312 652.050781 C 552.417969 643.949219 556.46875 634.230469 556.46875 622.890625 C 556.46875 622.890625 556.46875 622.078125 556.46875 622.078125 C 556.46875 622.078125 557.28125 622.078125 557.28125 622.078125 C 567.808594 622.078125 578.339844 618.03125 586.441406 609.929688 C 595.351562 601.019531 599.398438 589.679688 598.589844 578.339844 L 669.058594 507.871094 C 673.917969 503.011719 673.917969 495.71875 669.058594 491.671875 C 660.148438 486 652.859375 486 648 490.050781 Z M 183.058594 587.25 C 179.820312 584.011719 178.199219 579.148438 178.199219 575.101562 C 178.199219 570.238281 179.820312 566.191406 183.058594 562.949219 L 208.171875 537.839844 C 211.410156 534.601562 216.269531 532.980469 220.320312 532.980469 C 225.179688 532.980469 229.230469 534.601562 232.46875 537.839844 C 238.949219 544.320312 238.949219 555.660156 232.46875 562.949219 L 207.359375 588.058594 C 200.878906 593.730469 189.539062 593.730469 183.058594 587.25 Z M 236.519531 633.421875 C 231.660156 633.421875 227.609375 631.800781 224.371094 628.558594 C 221.128906 625.320312 218.699219 620.460938 218.699219 615.601562 C 218.699219 610.738281 220.320312 606.691406 223.558594 603.449219 L 248.671875 578.339844 L 264.058594 562.949219 C 267.300781 559.710938 272.160156 558.089844 276.210938 558.089844 C 281.070312 558.089844 285.121094 559.710938 288.359375 562.949219 C 291.601562 566.191406 293.21875 571.050781 293.21875 575.101562 C 293.21875 579.148438 291.601562 584.011719 288.359375 587.25 L 247.859375 627.75 C 245.429688 631.800781 240.570312 633.421875 236.519531 633.421875 Z M 264.871094 669.058594 C 258.390625 662.578125 258.390625 651.238281 264.871094 643.949219 L 292.410156 616.410156 C 295.648438 613.171875 300.511719 611.550781 304.558594 611.550781 C 309.421875 611.550781 313.46875 613.171875 316.710938 616.410156 C 319.949219 619.648438 321.570312 624.511719 321.570312 628.558594 C 321.570312 633.421875 319.949219 637.46875 316.710938 640.710938 L 289.171875 668.25 C 282.691406 676.351562 272.160156 676.351562 264.871094 669.058594 Z M 332.101562 711.179688 C 328.859375 714.421875 324 716.039062 319.949219 716.039062 C 315.089844 716.039062 311.039062 714.421875 307.800781 711.179688 L 306.988281 710.371094 C 300.511719 703.890625 300.511719 692.550781 306.988281 685.261719 L 337.769531 654.480469 C 341.011719 651.238281 345.871094 649.621094 349.921875 649.621094 C 354.78125 649.621094 358.828125 651.238281 362.070312 654.480469 L 362.878906 655.289062 C 369.359375 661.769531 369.359375 673.109375 362.878906 680.398438 Z M 332.101562 711.179688 " fill-opacity="1" fill-rule="nonzero"/><path fill="#797979" d="M 793.800781 391.230469 C 788.941406 386.371094 781.648438 386.371094 777.601562 391.230469 L 733.859375 434.96875 C 733.050781 435.78125 732.238281 435.78125 731.429688 434.96875 L 578.339844 287.550781 C 578.339844 287.550781 577.53125 286.738281 577.53125 286.738281 C 577.53125 285.929688 577.53125 285.929688 578.339844 285.929688 L 669.058594 194.398438 C 673.921875 189.539062 673.921875 182.25 669.058594 178.199219 C 664.199219 173.339844 656.910156 173.339844 652.859375 178.199219 L 562.140625 268.921875 C 557.28125 273.78125 554.851562 280.261719 554.851562 286.738281 C 554.851562 292.410156 556.46875 297.269531 559.710938 301.320312 L 518.398438 341.820312 L 479.519531 319.949219 C 474.660156 316.710938 468.179688 315.898438 462.511719 315.898438 L 350.730469 315.898438 L 342.628906 307.800781 C 334.53125 299.699219 325.621094 294.03125 315.089844 289.980469 L 283.5 277.828125 L 268.921875 263.25 C 276.210938 251.101562 274.589844 234.898438 264.058594 224.371094 L 218.699219 178.199219 C 213.839844 173.339844 206.550781 173.339844 202.5 178.199219 C 197.640625 183.058594 197.640625 190.351562 202.5 194.398438 L 248.671875 240.570312 C 251.910156 243.808594 251.910156 249.480469 248.671875 253.53125 L 153.898438 348.300781 C 149.039062 353.160156 149.039062 360.449219 153.898438 364.5 C 156.328125 366.929688 158.761719 367.738281 162 367.738281 C 165.238281 367.738281 167.671875 366.929688 170.101562 364.5 L 253.53125 281.070312 L 268.921875 296.460938 C 269.730469 297.269531 271.351562 298.890625 272.96875 298.890625 L 306.179688 311.851562 C 313.46875 314.28125 319.949219 318.328125 324.808594 324 C 324 324.808594 323.191406 324.808594 322.378906 325.621094 L 278.640625 369.359375 C 269.730469 378.269531 264.871094 389.609375 264.871094 401.761719 C 264.871094 413.910156 269.730469 426.058594 278.640625 434.160156 C 287.550781 443.070312 299.699219 447.929688 311.039062 447.929688 C 321.570312 447.929688 332.101562 444.691406 340.199219 437.398438 L 373.410156 409.859375 L 408.238281 409.859375 L 447.929688 449.550781 C 450.359375 451.980469 452.789062 452.789062 456.03125 452.789062 C 459.269531 452.789062 461.699219 451.980469 464.128906 449.550781 C 468.988281 444.691406 468.988281 437.398438 464.128906 433.351562 L 436.589844 405 C 437.398438 403.378906 438.210938 400.949219 438.210938 398.519531 C 438.210938 392.039062 433.351562 387.179688 426.871094 387.179688 L 370.171875 387.179688 C 367.738281 387.179688 364.5 387.988281 362.878906 389.609375 L 326.429688 419.578125 C 317.519531 426.871094 303.75 426.871094 295.648438 417.960938 C 291.601562 413.910156 289.171875 407.429688 289.171875 401.761719 C 289.171875 396.089844 291.601562 389.609375 295.648438 385.558594 L 339.390625 341.820312 C 341.011719 340.199219 343.441406 339.390625 345.871094 339.390625 L 462.511719 339.390625 C 464.128906 339.390625 466.558594 340.199219 468.179688 341.011719 L 511.921875 365.308594 C 518.398438 368.550781 526.5 367.738281 532.171875 362.878906 L 577.53125 318.328125 L 701.460938 437.398438 L 683.640625 455.21875 C 678.78125 460.078125 678.78125 467.371094 683.640625 471.421875 C 686.070312 473.851562 688.5 474.660156 691.738281 474.660156 C 694.980469 474.660156 697.410156 473.851562 699.839844 471.421875 L 718.46875 452.789062 C 722.519531 456.03125 728.191406 457.648438 733.050781 457.648438 C 739.53125 457.648438 746.011719 455.21875 750.871094 450.359375 L 794.609375 406.621094 C 798.660156 402.570312 798.660156 395.28125 793.800781 391.230469 Z M 793.800781 391.230469 " fill-opacity="1" fill-rule="nonzero"/><path fill="#797979" d="M 459.269531 185.488281 C 459.269531 187.082031 459.191406 188.667969 459.035156 190.253906 C 458.878906 191.835938 458.648438 193.410156 458.335938 194.972656 C 458.027344 196.53125 457.640625 198.074219 457.175781 199.597656 C 456.714844 201.121094 456.179688 202.617188 455.570312 204.089844 C 454.960938 205.558594 454.28125 206.996094 453.53125 208.398438 C 452.78125 209.804688 451.964844 211.167969 451.078125 212.492188 C 450.195312 213.8125 449.25 215.089844 448.238281 216.320312 C 447.226562 217.550781 446.160156 218.730469 445.035156 219.855469 C 443.910156 220.980469 442.730469 222.046875 441.5 223.058594 C 440.269531 224.066406 438.996094 225.015625 437.671875 225.898438 C 436.347656 226.785156 434.984375 227.601562 433.578125 228.351562 C 432.175781 229.101562 430.738281 229.78125 429.269531 230.390625 C 427.796875 231 426.300781 231.535156 424.777344 231.996094 C 423.253906 232.460938 421.710938 232.84375 420.152344 233.15625 C 418.589844 233.464844 417.019531 233.699219 415.433594 233.855469 C 413.847656 234.011719 412.261719 234.089844 410.671875 234.089844 C 409.078125 234.089844 407.492188 234.011719 405.90625 233.855469 C 404.324219 233.699219 402.75 233.464844 401.1875 233.15625 C 399.628906 232.84375 398.085938 232.460938 396.5625 231.996094 C 395.039062 231.535156 393.542969 231 392.070312 230.390625 C 390.601562 229.78125 389.164062 229.101562 387.761719 228.351562 C 386.355469 227.601562 384.992188 226.785156 383.667969 225.898438 C 382.347656 225.015625 381.070312 224.066406 379.839844 223.058594 C 378.609375 222.046875 377.429688 220.980469 376.304688 219.855469 C 375.179688 218.730469 374.113281 217.550781 373.101562 216.320312 C 372.09375 215.089844 371.144531 213.8125 370.261719 212.492188 C 369.375 211.167969 368.558594 209.804688 367.808594 208.398438 C 367.058594 206.996094 366.378906 205.558594 365.769531 204.089844 C 365.160156 202.617188 364.625 201.121094 364.164062 199.597656 C 363.699219 198.074219 363.3125 196.53125 363.003906 194.972656 C 362.691406 193.410156 362.460938 191.835938 362.304688 190.253906 C 362.148438 188.667969 362.070312 187.082031 362.070312 185.488281 C 362.070312 183.898438 362.148438 182.308594 362.304688 180.726562 C 362.460938 179.140625 362.691406 177.570312 363.003906 176.007812 C 363.3125 174.449219 363.699219 172.90625 364.164062 171.382812 C 364.625 169.859375 365.160156 168.363281 365.769531 166.890625 C 366.378906 165.421875 367.058594 163.984375 367.808594 162.582031 C 368.558594 161.175781 369.375 159.8125 370.261719 158.488281 C 371.144531 157.164062 372.09375 155.890625 373.101562 154.660156 C 374.113281 153.429688 375.179688 152.25 376.304688 151.125 C 377.429688 150 378.609375 148.929688 379.839844 147.921875 C 381.070312 146.910156 382.347656 145.964844 383.667969 145.082031 C 384.992188 144.195312 386.355469 143.378906 387.761719 142.628906 C 389.164062 141.878906 390.601562 141.199219 392.070312 140.589844 C 393.542969 139.980469 395.039062 139.445312 396.5625 138.984375 C 398.085938 138.519531 399.628906 138.132812 401.1875 137.824219 C 402.75 137.511719 404.324219 137.28125 405.90625 137.125 C 407.492188 136.96875 409.078125 136.890625 410.671875 136.890625 C 412.261719 136.890625 413.847656 136.96875 415.433594 137.125 C 417.019531 137.28125 418.589844 137.511719 420.152344 137.824219 C 421.710938 138.132812 423.253906 138.519531 424.777344 138.984375 C 426.300781 139.445312 427.796875 139.980469 429.269531 140.589844 C 430.738281 141.199219 432.175781 141.878906 433.578125 142.628906 C 434.984375 143.378906 436.347656 144.195312 437.671875 145.082031 C 438.996094 145.964844 440.269531 146.910156 441.5 147.921875 C 442.730469 148.929688 443.910156 150 445.035156 151.125 C 446.160156 152.25 447.226562 153.429688 448.238281 154.660156 C 449.246094 155.890625 450.195312 157.164062 451.078125 158.488281 C 451.964844 159.8125 452.78125 161.175781 453.53125 162.582031 C 454.28125 163.984375 454.960938 165.421875 455.570312 166.890625 C 456.179688 168.363281 456.714844 169.859375 457.175781 171.382812 C 457.640625 172.90625 458.027344 174.449219 458.335938 176.007812 C 458.648438 177.570312 458.878906 179.140625 459.035156 180.726562 C 459.191406 182.308594 459.269531 183.898438 459.269531 185.488281 Z M 459.269531 185.488281 " fill-opacity="1" fill-rule="nonzero"/></svg>