<svg xmlns="http://www.w3.org/2000/svg" xmlns:xlink="http://www.w3.org/1999/xlink" width="1080" zoomAndPan="magnify" viewBox="0 0 810 809.999993" height="1080" preserveAspectRatio="xMidYMid meet" version="1.0"><path fill="#ebebeb" d="M 403.785156 33.9375 C 402.738281 33.9375 401.699219 34.039062 400.671875 34.238281 C 399.644531 34.441406 398.648438 34.738281 397.675781 35.132812 C 396.707031 35.527344 395.785156 36.011719 394.910156 36.582031 C 394.03125 37.15625 393.21875 37.808594 392.46875 38.539062 C 391.722656 39.269531 391.046875 40.066406 390.453125 40.929688 C 389.859375 41.789062 389.351562 42.699219 388.933594 43.660156 C 388.515625 44.617188 388.191406 45.609375 387.964844 46.632812 C 387.738281 47.652344 387.609375 48.6875 387.585938 49.734375 L 387.585938 143.53125 C 387.585938 144.570312 387.6875 145.597656 387.886719 146.613281 C 388.089844 147.628906 388.390625 148.617188 388.789062 149.578125 C 389.183594 150.535156 389.671875 151.445312 390.246094 152.308594 C 390.824219 153.167969 391.476562 153.96875 392.210938 154.699219 C 392.945312 155.433594 393.742188 156.089844 394.605469 156.664062 C 395.46875 157.242188 396.378906 157.726562 397.335938 158.125 C 398.292969 158.523438 399.28125 158.820312 400.296875 159.023438 C 401.316406 159.226562 402.34375 159.328125 403.378906 159.328125 C 404.417969 159.328125 405.445312 159.226562 406.460938 159.023438 C 407.480469 158.820312 408.464844 158.523438 409.425781 158.125 C 410.382812 157.726562 411.292969 157.242188 412.15625 156.664062 C 413.015625 156.089844 413.816406 155.433594 414.546875 154.699219 C 415.28125 153.96875 415.9375 153.167969 416.511719 152.308594 C 417.089844 151.445312 417.574219 150.535156 417.972656 149.578125 C 418.371094 148.617188 418.667969 147.628906 418.871094 146.613281 C 419.074219 145.597656 419.175781 144.570312 419.175781 143.53125 L 419.175781 49.734375 C 419.152344 48.71875 419.03125 47.71875 418.820312 46.726562 C 418.609375 45.734375 418.304688 44.773438 417.914062 43.839844 C 417.519531 42.90625 417.042969 42.015625 416.484375 41.171875 C 415.921875 40.324219 415.289062 39.539062 414.582031 38.8125 C 413.875 38.085938 413.105469 37.433594 412.277344 36.851562 C 411.445312 36.269531 410.570312 35.769531 409.644531 35.355469 C 408.722656 34.9375 407.765625 34.609375 406.78125 34.371094 C 405.796875 34.132812 404.796875 33.988281 403.785156 33.9375 Z M 403.785156 33.9375 " fill-opacity="1" fill-rule="nonzero"/><path fill="#ebebeb" d="M 314.441406 168.640625 L 276.695312 130.894531 C 275.925781 130.40625 275.117188 129.984375 274.273438 129.632812 C 273.429688 129.28125 272.566406 129 271.675781 128.796875 C 270.785156 128.589844 269.882812 128.460938 268.972656 128.40625 C 268.058594 128.351562 267.148438 128.375 266.242188 128.476562 C 265.332031 128.578125 264.4375 128.753906 263.5625 129.003906 C 262.683594 129.257812 261.832031 129.582031 261.007812 129.976562 C 260.183594 130.371094 259.398438 130.832031 258.65625 131.363281 C 257.910156 131.890625 257.214844 132.476562 256.566406 133.125 C 255.921875 133.769531 255.335938 134.464844 254.804688 135.210938 C 254.277344 135.957031 253.816406 136.742188 253.417969 137.5625 C 253.023438 138.386719 252.699219 139.238281 252.449219 140.117188 C 252.199219 140.996094 252.019531 141.886719 251.921875 142.796875 C 251.820312 143.703125 251.796875 144.613281 251.851562 145.527344 C 251.902344 146.4375 252.035156 147.339844 252.238281 148.230469 C 252.445312 149.121094 252.726562 149.988281 253.078125 150.832031 C 253.429688 151.671875 253.851562 152.480469 254.339844 153.253906 L 292.085938 190.917969 C 292.828125 191.597656 293.628906 192.203125 294.484375 192.730469 C 295.34375 193.261719 296.246094 193.703125 297.1875 194.058594 C 298.128906 194.414062 299.097656 194.679688 300.089844 194.847656 C 301.082031 195.019531 302.082031 195.09375 303.089844 195.074219 C 304.097656 195.054688 305.09375 194.9375 306.082031 194.726562 C 307.066406 194.515625 308.023438 194.214844 308.949219 193.820312 C 309.875 193.425781 310.757812 192.945312 311.59375 192.382812 C 312.429688 191.820312 313.203125 191.183594 313.917969 190.472656 C 314.632812 189.761719 315.273438 188.988281 315.835938 188.15625 C 316.402344 187.320312 316.886719 186.441406 317.28125 185.515625 C 317.679688 184.589844 317.988281 183.632812 318.203125 182.648438 C 318.417969 181.664062 318.535156 180.667969 318.558594 179.664062 C 318.585938 178.65625 318.511719 177.65625 318.34375 176.660156 C 318.179688 175.667969 317.917969 174.699219 317.566406 173.753906 C 317.210938 172.808594 316.773438 171.910156 316.25 171.046875 C 315.722656 170.1875 315.121094 169.386719 314.441406 168.640625 Z M 314.441406 168.640625 " fill-opacity="1" fill-rule="nonzero"/><path fill="#ebebeb" d="M 553.230469 130.894531 C 552.867188 130.527344 552.488281 130.179688 552.089844 129.847656 C 551.691406 129.515625 551.28125 129.207031 550.851562 128.917969 C 550.421875 128.628906 549.980469 128.359375 549.527344 128.113281 C 549.070312 127.867188 548.605469 127.644531 548.128906 127.445312 C 547.652344 127.246094 547.167969 127.070312 546.671875 126.917969 C 546.179688 126.769531 545.679688 126.640625 545.171875 126.539062 C 544.664062 126.4375 544.152344 126.359375 543.640625 126.308594 C 543.125 126.257812 542.609375 126.234375 542.09375 126.234375 C 541.574219 126.234375 541.058594 126.257812 540.546875 126.308594 C 540.03125 126.359375 539.519531 126.4375 539.011719 126.539062 C 538.507812 126.640625 538.007812 126.769531 537.511719 126.917969 C 537.019531 127.070312 536.53125 127.246094 536.054688 127.445312 C 535.578125 127.644531 535.113281 127.867188 534.65625 128.113281 C 534.203125 128.359375 533.761719 128.628906 533.332031 128.917969 C 532.90625 129.207031 532.492188 129.515625 532.09375 129.847656 C 531.699219 130.179688 531.316406 130.527344 530.953125 130.894531 L 490.859375 171.070312 C 490.46875 171.429688 490.09375 171.808594 489.738281 172.203125 C 489.382812 172.601562 489.046875 173.011719 488.734375 173.441406 C 488.421875 173.871094 488.132812 174.316406 487.863281 174.777344 C 487.59375 175.234375 487.351562 175.707031 487.128906 176.191406 C 486.910156 176.675781 486.714844 177.167969 486.542969 177.671875 C 486.371094 178.175781 486.226562 178.6875 486.109375 179.207031 C 485.988281 179.726562 485.894531 180.25 485.828125 180.777344 C 485.761719 181.304688 485.722656 181.832031 485.710938 182.367188 C 485.699219 182.898438 485.710938 183.429688 485.753906 183.957031 C 485.792969 184.488281 485.863281 185.015625 485.957031 185.539062 C 486.050781 186.0625 486.167969 186.582031 486.316406 187.09375 C 486.460938 187.601562 486.632812 188.105469 486.832031 188.601562 C 487.027344 189.09375 487.25 189.578125 487.496094 190.046875 C 487.742188 190.519531 488.011719 190.976562 488.304688 191.421875 C 488.597656 191.867188 488.910156 192.296875 489.246094 192.707031 C 489.582031 193.121094 489.9375 193.515625 490.3125 193.894531 C 490.6875 194.269531 491.082031 194.625 491.492188 194.964844 C 491.902344 195.300781 492.332031 195.617188 492.773438 195.910156 C 493.21875 196.203125 493.675781 196.476562 494.144531 196.722656 C 494.617188 196.96875 495.097656 197.195312 495.59375 197.390625 C 496.085938 197.589844 496.585938 197.765625 497.097656 197.914062 C 497.609375 198.0625 498.125 198.183594 498.648438 198.28125 C 499.171875 198.375 499.699219 198.445312 500.230469 198.488281 C 500.761719 198.53125 501.292969 198.546875 501.824219 198.535156 C 502.355469 198.523438 502.882812 198.488281 503.414062 198.421875 C 503.941406 198.359375 504.464844 198.269531 504.984375 198.152344 C 505.5 198.035156 506.011719 197.890625 506.519531 197.722656 C 507.023438 197.550781 507.515625 197.359375 508 197.140625 C 508.488281 196.921875 508.957031 196.679688 509.417969 196.410156 C 509.878906 196.144531 510.324219 195.855469 510.757812 195.542969 C 511.1875 195.230469 511.601562 194.898438 512 194.546875 C 512.394531 194.191406 512.773438 193.820312 513.136719 193.429688 L 553.230469 152.929688 C 553.917969 152.1875 554.53125 151.386719 555.070312 150.527344 C 555.609375 149.671875 556.0625 148.769531 556.433594 147.828125 C 556.800781 146.886719 557.082031 145.917969 557.269531 144.921875 C 557.457031 143.929688 557.550781 142.925781 557.550781 141.910156 C 557.550781 140.898438 557.457031 139.894531 557.269531 138.902344 C 557.082031 137.90625 556.800781 136.9375 556.433594 135.996094 C 556.0625 135.054688 555.609375 134.152344 555.070312 133.296875 C 554.53125 132.4375 553.917969 131.636719 553.230469 130.894531 Z M 553.230469 130.894531 " fill-opacity="1" fill-rule="nonzero"/><path fill="#ebebeb" d="M 704.699219 450.359375 L 691.578125 450.359375 C 694.242188 446.898438 696.605469 443.246094 698.667969 439.398438 C 700.734375 435.550781 702.472656 431.558594 703.886719 427.429688 C 705.296875 423.296875 706.363281 419.078125 707.085938 414.769531 C 707.804688 410.464844 708.171875 406.125 708.183594 401.761719 L 708.183594 379.324219 C 708.183594 378.007812 708.152344 376.695312 708.085938 375.378906 C 708.023438 374.066406 707.925781 372.753906 707.796875 371.445312 C 707.667969 370.136719 707.507812 368.832031 707.3125 367.53125 C 707.121094 366.230469 706.894531 364.9375 706.640625 363.648438 C 706.382812 362.355469 706.09375 361.074219 705.773438 359.800781 C 705.457031 358.523438 705.105469 357.257812 704.722656 356 C 704.339844 354.738281 703.929688 353.492188 703.484375 352.253906 C 703.042969 351.015625 702.570312 349.789062 702.066406 348.574219 C 701.5625 347.359375 701.03125 346.15625 700.46875 344.96875 C 699.90625 343.78125 699.316406 342.605469 698.695312 341.445312 C 698.074219 340.285156 697.425781 339.140625 696.75 338.015625 C 696.074219 336.886719 695.371094 335.773438 694.640625 334.683594 C 693.910156 333.589844 693.152344 332.511719 692.371094 331.457031 C 691.585938 330.402344 690.777344 329.363281 689.945312 328.347656 C 689.109375 327.332031 688.25 326.335938 687.367188 325.363281 C 686.484375 324.386719 685.578125 323.433594 684.648438 322.503906 C 683.71875 321.574219 682.765625 320.667969 681.792969 319.785156 C 680.816406 318.902344 679.820312 318.042969 678.804688 317.210938 C 677.789062 316.375 676.753906 315.566406 675.695312 314.785156 C 674.640625 314 673.566406 313.242188 672.472656 312.511719 C 671.378906 311.78125 670.269531 311.078125 669.140625 310.402344 C 668.011719 309.726562 666.867188 309.078125 665.707031 308.457031 C 664.546875 307.839844 663.375 307.246094 662.1875 306.6875 C 660.996094 306.125 659.796875 305.589844 658.582031 305.085938 C 657.367188 304.585938 656.140625 304.109375 654.902344 303.667969 C 653.664062 303.226562 652.414062 302.8125 651.15625 302.429688 C 649.898438 302.050781 648.628906 301.699219 647.355469 301.378906 C 646.078125 301.058594 644.796875 300.773438 643.507812 300.515625 C 642.21875 300.257812 640.921875 300.035156 639.621094 299.839844 C 638.320312 299.648438 637.015625 299.488281 635.707031 299.359375 C 634.398438 299.230469 633.085938 299.132812 631.773438 299.066406 C 630.460938 299.003906 629.144531 298.972656 627.832031 298.972656 C 626.515625 298.972656 625.203125 299.003906 623.886719 299.066406 C 622.574219 299.132812 621.265625 299.230469 619.953125 299.359375 C 618.644531 299.488281 617.339844 299.648438 616.039062 299.839844 C 614.738281 300.035156 613.445312 300.257812 612.15625 300.515625 C 610.867188 300.773438 609.582031 301.058594 608.308594 301.378906 C 607.03125 301.699219 605.765625 302.050781 604.507812 302.429688 C 603.246094 302.8125 602 303.226562 600.761719 303.667969 C 599.523438 304.109375 598.296875 304.585938 597.082031 305.085938 C 595.867188 305.589844 594.664062 306.125 593.476562 306.6875 C 592.289062 307.246094 591.113281 307.839844 589.953125 308.457031 C 588.792969 309.078125 587.648438 309.726562 586.523438 310.402344 C 585.394531 311.078125 584.28125 311.78125 583.191406 312.511719 C 582.097656 313.242188 581.023438 314 579.964844 314.785156 C 578.910156 315.566406 577.871094 316.375 576.855469 317.210938 C 575.839844 318.042969 574.84375 318.902344 573.871094 319.785156 C 572.894531 320.667969 571.941406 321.574219 571.011719 322.503906 C 570.082031 323.433594 569.175781 324.386719 568.292969 325.363281 C 567.410156 326.335938 566.550781 327.332031 565.71875 328.347656 C 564.882812 329.363281 564.074219 330.402344 563.292969 331.457031 C 562.507812 332.511719 561.75 333.589844 561.019531 334.683594 C 560.289062 335.773438 559.585938 336.886719 558.910156 338.015625 C 558.234375 339.140625 557.585938 340.285156 556.96875 341.445312 C 556.347656 342.605469 555.753906 343.78125 555.195312 344.96875 C 554.632812 346.15625 554.097656 347.359375 553.59375 348.574219 C 553.09375 349.789062 552.617188 351.015625 552.175781 352.253906 C 551.734375 353.492188 551.320312 354.738281 550.9375 355.996094 C 550.558594 357.257812 550.207031 358.523438 549.886719 359.800781 C 549.566406 361.074219 549.28125 362.355469 549.023438 363.648438 C 548.765625 364.9375 548.542969 366.230469 548.347656 367.53125 C 548.15625 368.832031 547.996094 370.136719 547.867188 371.445312 C 547.738281 372.753906 547.640625 374.066406 547.574219 375.378906 C 547.511719 376.695312 547.480469 378.007812 547.480469 379.324219 L 547.480469 396.898438 L 428.8125 277.910156 C 428.007812 277.121094 427.152344 276.390625 426.246094 275.722656 C 425.339844 275.050781 424.390625 274.445312 423.402344 273.910156 C 422.410156 273.371094 421.386719 272.902344 420.332031 272.507812 C 419.273438 272.113281 418.195312 271.792969 417.097656 271.546875 C 415.996094 271.300781 414.882812 271.132812 413.761719 271.039062 C 412.636719 270.949219 411.511719 270.9375 410.386719 271.003906 C 409.261719 271.070312 408.144531 271.210938 407.039062 271.433594 C 405.933594 271.652344 404.847656 271.949219 403.785156 272.320312 C 402.722656 271.953125 401.640625 271.660156 400.539062 271.445312 C 399.4375 271.226562 398.324219 271.085938 397.203125 271.019531 C 396.082031 270.957031 394.960938 270.972656 393.839844 271.0625 C 392.722656 271.15625 391.613281 271.324219 390.515625 271.570312 C 389.421875 271.816406 388.347656 272.136719 387.292969 272.53125 C 386.242188 272.925781 385.222656 273.390625 384.234375 273.925781 C 383.246094 274.460938 382.300781 275.0625 381.398438 275.730469 C 380.492188 276.398438 379.640625 277.125 378.835938 277.910156 L 260.171875 396.898438 L 260.171875 379.324219 C 260.171875 378.007812 260.140625 376.695312 260.074219 375.378906 C 260.011719 374.066406 259.914062 372.753906 259.785156 371.445312 C 259.65625 370.136719 259.496094 368.832031 259.300781 367.53125 C 259.109375 366.230469 258.882812 364.9375 258.628906 363.648438 C 258.371094 362.355469 258.082031 361.074219 257.765625 359.800781 C 257.445312 358.523438 257.09375 357.257812 256.710938 356 C 256.332031 354.738281 255.917969 353.492188 255.476562 352.253906 C 255.03125 351.015625 254.558594 349.789062 254.054688 348.574219 C 253.550781 347.359375 253.019531 346.15625 252.457031 344.96875 C 251.894531 343.78125 251.304688 342.605469 250.683594 341.445312 C 250.0625 340.285156 249.417969 339.140625 248.738281 338.015625 C 248.0625 336.886719 247.359375 335.773438 246.628906 334.683594 C 245.898438 333.589844 245.144531 332.511719 244.359375 331.457031 C 243.574219 330.402344 242.765625 329.363281 241.933594 328.347656 C 241.097656 327.332031 240.238281 326.335938 239.355469 325.363281 C 238.472656 324.386719 237.566406 323.433594 236.636719 322.503906 C 235.707031 321.574219 234.753906 320.667969 233.78125 319.785156 C 232.808594 318.902344 231.8125 318.042969 230.792969 317.210938 C 229.777344 316.375 228.742188 315.566406 227.6875 314.785156 C 226.628906 314 225.554688 313.242188 224.460938 312.511719 C 223.367188 311.78125 222.257812 311.078125 221.128906 310.402344 C 220 309.726562 218.855469 309.078125 217.699219 308.457031 C 216.539062 307.839844 215.363281 307.246094 214.175781 306.6875 C 212.984375 306.125 211.785156 305.589844 210.570312 305.085938 C 209.355469 304.585938 208.128906 304.109375 206.890625 303.667969 C 205.652344 303.226562 204.402344 302.8125 203.144531 302.429688 C 201.886719 302.050781 200.621094 301.699219 199.34375 301.378906 C 198.066406 301.058594 196.785156 300.773438 195.496094 300.515625 C 194.207031 300.257812 192.910156 300.035156 191.609375 299.839844 C 190.308594 299.648438 189.003906 299.488281 187.695312 299.359375 C 186.386719 299.230469 185.074219 299.132812 183.761719 299.066406 C 182.449219 299.003906 181.136719 298.972656 179.820312 298.972656 C 178.503906 298.972656 177.191406 299.003906 175.878906 299.066406 C 174.5625 299.132812 173.253906 299.230469 171.945312 299.359375 C 170.636719 299.488281 169.332031 299.648438 168.03125 299.839844 C 166.730469 300.035156 165.433594 300.257812 164.144531 300.515625 C 162.855469 300.773438 161.570312 301.058594 160.296875 301.378906 C 159.019531 301.699219 157.753906 302.050781 156.496094 302.429688 C 155.238281 302.8125 153.988281 303.226562 152.75 303.667969 C 151.511719 304.109375 150.285156 304.585938 149.070312 305.085938 C 147.855469 305.589844 146.652344 306.125 145.464844 306.6875 C 144.277344 307.246094 143.101562 307.839844 141.941406 308.457031 C 140.78125 309.078125 139.640625 309.726562 138.511719 310.402344 C 137.382812 311.078125 136.273438 311.78125 135.179688 312.511719 C 134.085938 313.242188 133.011719 314 131.953125 314.785156 C 130.898438 315.566406 129.863281 316.375 128.84375 317.210938 C 127.828125 318.042969 126.832031 318.902344 125.859375 319.785156 C 124.882812 320.667969 123.933594 321.574219 123.003906 322.503906 C 122.074219 323.433594 121.167969 324.386719 120.28125 325.363281 C 119.398438 326.335938 118.542969 327.332031 117.707031 328.347656 C 116.871094 329.363281 116.0625 330.402344 115.28125 331.457031 C 114.496094 332.511719 113.742188 333.589844 113.007812 334.683594 C 112.277344 335.773438 111.574219 336.886719 110.898438 338.015625 C 110.222656 339.140625 109.574219 340.285156 108.957031 341.445312 C 108.335938 342.605469 107.746094 343.78125 107.183594 344.96875 C 106.621094 346.15625 106.085938 347.359375 105.585938 348.574219 C 105.082031 349.789062 104.609375 351.015625 104.164062 352.253906 C 103.722656 353.492188 103.308594 354.738281 102.929688 355.996094 C 102.546875 357.257812 102.195312 358.523438 101.875 359.800781 C 101.554688 361.074219 101.269531 362.355469 101.011719 363.648438 C 100.753906 364.9375 100.53125 366.230469 100.335938 367.53125 C 100.144531 368.832031 99.984375 370.136719 99.855469 371.445312 C 99.726562 372.753906 99.628906 374.066406 99.566406 375.378906 C 99.5 376.695312 99.46875 378.007812 99.46875 379.324219 L 99.46875 401.515625 C 99.46875 405.886719 99.828125 410.222656 100.546875 414.53125 C 101.261719 418.839844 102.328125 423.0625 103.738281 427.195312 C 105.152344 431.328125 106.894531 435.316406 108.960938 439.164062 C 111.03125 443.011719 113.402344 446.660156 116.074219 450.117188 L 103.355469 450.117188 C 101.664062 450.117188 99.96875 450.160156 98.277344 450.246094 C 96.585938 450.332031 94.898438 450.457031 93.210938 450.625 C 91.527344 450.789062 89.847656 451 88.171875 451.25 C 86.496094 451.5 84.828125 451.789062 83.167969 452.121094 C 81.507812 452.453125 79.855469 452.828125 78.214844 453.238281 C 76.570312 453.652344 74.9375 454.105469 73.320312 454.597656 C 71.699219 455.09375 70.089844 455.625 68.496094 456.195312 C 66.902344 456.769531 65.324219 457.378906 63.761719 458.03125 C 62.195312 458.679688 60.648438 459.367188 59.117188 460.09375 C 57.585938 460.816406 56.078125 461.582031 54.582031 462.378906 C 53.089844 463.179688 51.617188 464.015625 50.167969 464.890625 C 48.714844 465.761719 47.285156 466.667969 45.878906 467.609375 C 44.46875 468.554688 43.085938 469.53125 41.726562 470.539062 C 40.367188 471.550781 39.035156 472.59375 37.726562 473.671875 C 36.417969 474.746094 35.136719 475.851562 33.886719 476.992188 C 32.632812 478.132812 31.40625 479.300781 30.210938 480.5 C 29.015625 481.699219 27.847656 482.925781 26.710938 484.183594 C 25.574219 485.4375 24.472656 486.722656 23.398438 488.03125 C 22.324219 489.34375 21.285156 490.679688 20.277344 492.039062 C 19.269531 493.402344 18.296875 494.789062 17.359375 496.195312 C 16.421875 497.605469 15.515625 499.039062 14.648438 500.492188 C 13.777344 501.945312 12.945312 503.421875 12.148438 504.914062 C 11.351562 506.410156 10.59375 507.921875 9.871094 509.453125 C 9.148438 510.988281 8.464844 512.535156 7.820312 514.101562 C 7.171875 515.667969 6.566406 517.246094 5.996094 518.84375 C 5.429688 520.4375 4.902344 522.046875 4.410156 523.667969 C 3.921875 525.289062 3.472656 526.921875 3.0625 528.566406 C 2.65625 530.210938 2.285156 531.863281 1.957031 533.523438 C 1.628906 535.183594 1.34375 536.855469 1.097656 538.53125 C 0.851562 540.207031 0.644531 541.886719 0.484375 543.570312 C 0.320312 545.257812 0.195312 546.945312 0.117188 548.636719 C 0.0351562 550.328125 -0.00390625 552.023438 0 553.714844 L 0 762.695312 C 0 763.226562 0.0273438 763.753906 0.078125 764.285156 C 0.128906 764.8125 0.207031 765.335938 0.3125 765.855469 C 0.414062 766.375 0.542969 766.890625 0.699219 767.398438 C 0.851562 767.90625 1.03125 768.40625 1.234375 768.894531 C 1.4375 769.386719 1.664062 769.863281 1.914062 770.332031 C 2.164062 770.800781 2.433594 771.253906 2.730469 771.695312 C 3.023438 772.136719 3.339844 772.5625 3.675781 772.972656 C 4.015625 773.382812 4.371094 773.777344 4.746094 774.152344 C 5.121094 774.527344 5.511719 774.882812 5.921875 775.21875 C 6.332031 775.554688 6.757812 775.871094 7.199219 776.164062 C 7.640625 776.460938 8.09375 776.734375 8.5625 776.984375 C 9.03125 777.234375 9.511719 777.460938 10 777.664062 C 10.492188 777.867188 10.988281 778.042969 11.496094 778.199219 C 12.003906 778.351562 12.519531 778.480469 13.039062 778.585938 C 13.558594 778.6875 14.085938 778.765625 14.613281 778.816406 C 15.140625 778.871094 15.667969 778.894531 16.199219 778.894531 L 82.863281 778.894531 C 84.414062 778.898438 85.925781 778.65625 87.398438 778.167969 C 88.871094 778.667969 90.382812 778.910156 91.933594 778.894531 L 268.191406 778.894531 C 269.234375 778.863281 270.265625 778.734375 271.28125 778.503906 C 272.300781 778.273438 273.285156 777.949219 274.242188 777.527344 C 275.195312 777.105469 276.101562 776.597656 276.957031 776 C 277.816406 775.40625 278.605469 774.730469 279.332031 773.984375 C 280.058594 773.234375 280.707031 772.421875 281.277344 771.546875 C 281.847656 770.671875 282.328125 769.753906 282.71875 768.785156 C 283.113281 767.816406 283.40625 766.824219 283.605469 765.796875 C 283.804688 764.773438 283.90625 763.738281 283.90625 762.695312 L 283.90625 709.074219 C 283.945312 708.535156 283.953125 707.996094 283.9375 707.453125 C 283.921875 706.914062 283.875 706.375 283.804688 705.839844 C 283.734375 705.300781 283.632812 704.769531 283.507812 704.246094 C 283.378906 703.71875 283.226562 703.203125 283.046875 702.691406 C 282.867188 702.179688 282.660156 701.679688 282.429688 701.191406 C 282.199219 700.703125 281.941406 700.226562 281.664062 699.765625 C 281.382812 699.300781 281.078125 698.855469 280.753906 698.421875 C 280.429688 697.992188 280.082031 697.578125 279.710938 697.183594 C 279.34375 696.785156 278.957031 696.410156 278.546875 696.054688 C 278.140625 695.699219 277.714844 695.363281 277.273438 695.050781 C 276.832031 694.738281 276.378906 694.449219 275.90625 694.183594 C 275.433594 693.917969 274.953125 693.675781 274.457031 693.460938 C 273.960938 693.246094 273.453125 693.054688 272.9375 692.890625 C 272.421875 692.726562 271.898438 692.589844 271.371094 692.480469 C 270.839844 692.371094 270.308594 692.285156 269.769531 692.230469 C 269.230469 692.175781 268.691406 692.148438 268.152344 692.148438 C 267.609375 692.148438 267.070312 692.175781 266.53125 692.230469 C 265.992188 692.289062 265.460938 692.371094 264.929688 692.480469 C 264.402344 692.589844 263.878906 692.726562 263.363281 692.890625 C 262.847656 693.054688 262.339844 693.246094 261.84375 693.460938 C 261.351562 693.675781 260.867188 693.917969 260.394531 694.183594 C 259.921875 694.449219 259.46875 694.738281 259.027344 695.050781 C 258.585938 695.363281 258.160156 695.699219 257.753906 696.054688 C 257.34375 696.410156 256.957031 696.785156 256.589844 697.183594 C 256.21875 697.578125 255.875 697.992188 255.546875 698.421875 C 255.222656 698.855469 254.917969 699.300781 254.636719 699.765625 C 254.359375 700.226562 254.101562 700.703125 253.871094 701.191406 C 253.640625 701.679688 253.433594 702.179688 253.253906 702.691406 C 253.074219 703.203125 252.921875 703.71875 252.792969 704.246094 C 252.667969 704.769531 252.570312 705.300781 252.496094 705.839844 C 252.425781 706.375 252.378906 706.914062 252.363281 707.453125 C 252.347656 707.996094 252.355469 708.535156 252.394531 709.074219 L 252.394531 746.902344 L 107.242188 746.902344 L 107.242188 567 C 107.28125 566.460938 107.292969 565.921875 107.277344 565.378906 C 107.261719 564.839844 107.214844 564.300781 107.144531 563.765625 C 107.070312 563.226562 106.972656 562.695312 106.84375 562.171875 C 106.71875 561.644531 106.566406 561.128906 106.386719 560.617188 C 106.207031 560.105469 106 559.609375 105.769531 559.117188 C 105.539062 558.628906 105.28125 558.152344 105.003906 557.691406 C 104.722656 557.226562 104.417969 556.78125 104.09375 556.347656 C 103.765625 555.917969 103.417969 555.503906 103.050781 555.109375 C 102.683594 554.710938 102.292969 554.335938 101.886719 553.980469 C 101.480469 553.625 101.054688 553.289062 100.613281 552.976562 C 100.171875 552.664062 99.714844 552.375 99.246094 552.109375 C 98.773438 551.84375 98.289062 551.601562 97.792969 551.386719 C 97.296875 551.171875 96.792969 550.980469 96.277344 550.816406 C 95.761719 550.652344 95.238281 550.515625 94.710938 550.40625 C 94.179688 550.296875 93.644531 550.214844 93.109375 550.15625 C 92.570312 550.101562 92.03125 550.074219 91.488281 550.074219 C 90.949219 550.074219 90.410156 550.101562 89.871094 550.15625 C 89.332031 550.214844 88.800781 550.296875 88.269531 550.40625 C 87.738281 550.515625 87.21875 550.652344 86.703125 550.816406 C 86.1875 550.980469 85.679688 551.171875 85.183594 551.386719 C 84.6875 551.601562 84.207031 551.84375 83.734375 552.109375 C 83.261719 552.375 82.804688 552.664062 82.363281 552.976562 C 81.921875 553.289062 81.5 553.625 81.089844 553.980469 C 80.683594 554.335938 80.296875 554.710938 79.929688 555.109375 C 79.558594 555.503906 79.210938 555.917969 78.886719 556.347656 C 78.558594 556.78125 78.257812 557.226562 77.976562 557.691406 C 77.695312 558.152344 77.441406 558.628906 77.210938 559.117188 C 76.980469 559.609375 76.773438 560.105469 76.59375 560.617188 C 76.414062 561.128906 76.261719 561.644531 76.132812 562.171875 C 76.007812 562.695312 75.90625 563.226562 75.835938 563.765625 C 75.761719 564.300781 75.71875 564.839844 75.703125 565.378906 C 75.683594 565.921875 75.695312 566.460938 75.734375 567 L 75.734375 746.902344 L 31.507812 746.902344 L 31.507812 553.714844 C 31.511719 552.539062 31.539062 551.367188 31.597656 550.191406 C 31.660156 549.019531 31.746094 547.847656 31.863281 546.675781 C 31.980469 545.507812 32.125 544.339844 32.296875 543.179688 C 32.46875 542.015625 32.671875 540.859375 32.902344 539.703125 C 33.132812 538.550781 33.390625 537.40625 33.679688 536.265625 C 33.964844 535.125 34.277344 533.992188 34.621094 532.867188 C 34.960938 531.746094 35.332031 530.628906 35.730469 529.523438 C 36.125 528.414062 36.550781 527.320312 37 526.234375 C 37.449219 525.148438 37.925781 524.074219 38.429688 523.011719 C 38.933594 521.949219 39.460938 520.898438 40.015625 519.863281 C 40.570312 518.828125 41.152344 517.804688 41.753906 516.796875 C 42.359375 515.789062 42.988281 514.796875 43.640625 513.820312 C 44.296875 512.84375 44.972656 511.882812 45.671875 510.9375 C 46.375 509.992188 47.097656 509.066406 47.84375 508.160156 C 48.589844 507.25 49.355469 506.359375 50.144531 505.488281 C 50.933594 504.617188 51.746094 503.765625 52.578125 502.9375 C 53.40625 502.105469 54.257812 501.292969 55.128906 500.503906 C 56 499.714844 56.890625 498.949219 57.796875 498.203125 C 58.707031 497.457031 59.632812 496.734375 60.578125 496.03125 C 61.519531 495.332031 62.480469 494.65625 63.460938 494.003906 C 64.4375 493.347656 65.429688 492.71875 66.4375 492.117188 C 67.445312 491.511719 68.46875 490.929688 69.503906 490.375 C 70.539062 489.820312 71.589844 489.292969 72.652344 488.789062 C 73.714844 488.285156 74.789062 487.808594 75.875 487.359375 C 76.960938 486.910156 78.054688 486.484375 79.164062 486.089844 C 80.269531 485.691406 81.382812 485.324219 82.507812 484.980469 C 83.632812 484.640625 84.765625 484.324219 85.90625 484.039062 C 87.046875 483.75 88.191406 483.492188 89.34375 483.261719 C 90.496094 483.03125 91.65625 482.832031 92.816406 482.65625 C 93.980469 482.484375 95.148438 482.339844 96.316406 482.222656 C 97.484375 482.105469 98.65625 482.019531 99.832031 481.960938 C 101.003906 481.902344 102.179688 481.871094 103.355469 481.867188 L 212.949219 481.867188 C 215.027344 481.886719 217.027344 481.5 218.953125 480.714844 C 220.875 479.925781 222.574219 478.800781 224.046875 477.332031 L 387.988281 313.46875 C 387.707031 321.601562 386.863281 329.671875 385.453125 337.683594 C 384.046875 345.695312 382.089844 353.574219 379.582031 361.3125 C 377.074219 369.050781 374.042969 376.582031 370.488281 383.898438 C 366.929688 391.214844 362.882812 398.246094 358.34375 405 L 255.070312 558.332031 C 253.308594 560.953125 252.417969 563.84375 252.394531 567 L 252.394531 584.253906 C 252.355469 584.792969 252.347656 585.332031 252.363281 585.875 C 252.378906 586.414062 252.425781 586.953125 252.496094 587.488281 C 252.570312 588.023438 252.667969 588.554688 252.792969 589.082031 C 252.921875 589.605469 253.074219 590.125 253.253906 590.636719 C 253.433594 591.144531 253.640625 591.644531 253.871094 592.132812 C 254.101562 592.625 254.359375 593.097656 254.636719 593.5625 C 254.917969 594.023438 255.222656 594.472656 255.546875 594.902344 C 255.875 595.335938 256.21875 595.75 256.589844 596.144531 C 256.957031 596.539062 257.34375 596.917969 257.753906 597.273438 C 258.160156 597.628906 258.585938 597.964844 259.027344 598.277344 C 259.46875 598.589844 259.921875 598.878906 260.394531 599.144531 C 260.867188 599.410156 261.351562 599.648438 261.84375 599.867188 C 262.339844 600.082031 262.847656 600.269531 263.363281 600.433594 C 263.878906 600.597656 264.402344 600.738281 264.929688 600.847656 C 265.460938 600.957031 265.992188 601.039062 266.53125 601.09375 C 267.070312 601.152344 267.609375 601.179688 268.152344 601.179688 C 268.691406 601.179688 269.230469 601.152344 269.769531 601.09375 C 270.308594 601.039062 270.839844 600.957031 271.371094 600.847656 C 271.898438 600.738281 272.421875 600.597656 272.9375 600.433594 C 273.453125 600.269531 273.960938 600.082031 274.457031 599.867188 C 274.953125 599.648438 275.433594 599.410156 275.90625 599.144531 C 276.378906 598.878906 276.832031 598.589844 277.273438 598.277344 C 277.714844 597.964844 278.140625 597.628906 278.546875 597.273438 C 278.957031 596.917969 279.34375 596.542969 279.710938 596.144531 C 280.082031 595.75 280.429688 595.335938 280.753906 594.902344 C 281.078125 594.472656 281.382812 594.023438 281.664062 593.5625 C 281.941406 593.097656 282.199219 592.625 282.429688 592.132812 C 282.660156 591.644531 282.867188 591.144531 283.046875 590.636719 C 283.226562 590.125 283.378906 589.605469 283.507812 589.082031 C 283.632812 588.554688 283.734375 588.023438 283.804688 587.488281 C 283.875 586.953125 283.921875 586.414062 283.9375 585.875 C 283.953125 585.332031 283.945312 584.792969 283.90625 584.253906 L 283.90625 572.023438 L 384.507812 422.65625 C 392.128906 411.3125 398.554688 399.324219 403.785156 386.695312 C 409.074219 399.308594 415.527344 411.296875 423.144531 422.65625 L 523.664062 572.023438 L 523.664062 762.695312 C 523.664062 763.742188 523.765625 764.78125 523.964844 765.808594 C 524.167969 766.835938 524.464844 767.832031 524.859375 768.804688 C 525.253906 769.773438 525.738281 770.695312 526.308594 771.570312 C 526.882812 772.449219 527.535156 773.261719 528.265625 774.011719 C 528.996094 774.761719 529.792969 775.433594 530.652344 776.027344 C 531.515625 776.621094 532.425781 777.128906 533.386719 777.546875 C 534.34375 777.96875 535.335938 778.289062 536.355469 778.515625 C 537.378906 778.742188 538.414062 778.871094 539.460938 778.894531 L 716.121094 778.894531 C 717.792969 778.757812 719.386719 778.324219 720.898438 777.601562 C 722.371094 778.089844 723.882812 778.332031 725.4375 778.328125 L 792.097656 778.328125 C 793.144531 778.304688 794.179688 778.175781 795.203125 777.949219 C 796.222656 777.722656 797.214844 777.398438 798.175781 776.980469 C 799.132812 776.5625 800.042969 776.054688 800.90625 775.460938 C 801.765625 774.863281 802.5625 774.191406 803.292969 773.441406 C 804.023438 772.695312 804.675781 771.882812 805.25 771.003906 C 805.824219 770.128906 806.304688 769.207031 806.699219 768.234375 C 807.09375 767.265625 807.390625 766.269531 807.59375 765.242188 C 807.792969 764.214844 807.894531 763.175781 807.894531 762.128906 L 807.894531 553.714844 C 807.894531 552.027344 807.851562 550.339844 807.765625 548.652344 C 807.683594 546.964844 807.554688 545.277344 807.390625 543.597656 C 807.222656 541.917969 807.015625 540.242188 806.765625 538.570312 C 806.519531 536.898438 806.230469 535.234375 805.898438 533.578125 C 805.570312 531.921875 805.199219 530.273438 804.785156 528.632812 C 804.375 526.996094 803.925781 525.367188 803.433594 523.75 C 802.945312 522.136719 802.414062 520.53125 801.84375 518.941406 C 801.273438 517.351562 800.667969 515.773438 800.019531 514.214844 C 799.375 512.652344 798.691406 511.109375 797.96875 509.582031 C 797.246094 508.054688 796.484375 506.546875 795.691406 505.054688 C 794.894531 503.566406 794.0625 502.09375 793.195312 500.644531 C 792.324219 499.195312 791.421875 497.769531 790.484375 496.363281 C 789.546875 494.957031 788.574219 493.578125 787.570312 492.21875 C 786.5625 490.863281 785.523438 489.53125 784.453125 488.222656 C 783.382812 486.917969 782.28125 485.636719 781.144531 484.386719 C 780.011719 483.132812 778.847656 481.910156 777.65625 480.714844 C 776.460938 479.519531 775.238281 478.351562 773.988281 477.214844 C 772.738281 476.082031 771.460938 474.976562 770.15625 473.902344 C 768.851562 472.832031 767.519531 471.789062 766.164062 470.78125 C 764.808594 469.773438 763.429688 468.800781 762.023438 467.859375 C 760.621094 466.917969 759.195312 466.015625 757.746094 465.144531 C 756.300781 464.273438 754.832031 463.4375 753.34375 462.640625 C 751.851562 461.84375 750.34375 461.082031 748.820312 460.355469 C 747.292969 459.632812 745.75 458.945312 744.191406 458.296875 C 742.628906 457.648438 741.054688 457.035156 739.464844 456.464844 C 737.875 455.894531 736.273438 455.359375 734.65625 454.867188 C 733.042969 454.375 731.414062 453.921875 729.777344 453.507812 C 728.140625 453.09375 726.492188 452.71875 724.835938 452.386719 C 723.179688 452.054688 721.515625 451.761719 719.84375 451.511719 C 718.175781 451.257812 716.5 451.050781 714.816406 450.878906 C 713.136719 450.710938 711.453125 450.582031 709.765625 450.496094 C 708.078125 450.410156 706.390625 450.363281 704.699219 450.359375 Z M 229.066406 401.761719 C 229.066406 403.359375 228.988281 404.957031 228.832031 406.546875 C 228.675781 408.140625 228.441406 409.71875 228.128906 411.289062 C 227.816406 412.859375 227.429688 414.40625 226.964844 415.9375 C 226.5 417.46875 225.960938 418.972656 225.351562 420.453125 C 224.738281 421.929688 224.054688 423.375 223.300781 424.785156 C 222.546875 426.195312 221.726562 427.566406 220.835938 428.894531 C 219.949219 430.226562 218.996094 431.507812 217.980469 432.746094 C 216.964844 433.980469 215.894531 435.167969 214.761719 436.296875 C 213.632812 437.429688 212.445312 438.5 211.210938 439.515625 C 209.972656 440.53125 208.691406 441.484375 207.359375 442.371094 C 206.03125 443.261719 204.660156 444.082031 203.25 444.835938 C 201.839844 445.589844 200.394531 446.273438 198.917969 446.886719 C 197.4375 447.496094 195.933594 448.035156 194.402344 448.5 C 192.871094 448.964844 191.324219 449.351562 189.753906 449.664062 C 188.183594 449.976562 186.605469 450.210938 185.011719 450.367188 C 183.421875 450.523438 181.824219 450.601562 180.226562 450.601562 C 178.625 450.601562 177.03125 450.523438 175.4375 450.367188 C 173.84375 450.210938 172.265625 449.976562 170.695312 449.664062 C 169.128906 449.351562 167.578125 448.964844 166.046875 448.5 C 164.515625 448.035156 163.011719 447.496094 161.535156 446.886719 C 160.054688 446.273438 158.609375 445.589844 157.199219 444.835938 C 155.789062 444.082031 154.417969 443.261719 153.089844 442.371094 C 151.757812 441.484375 150.476562 440.53125 149.238281 439.515625 C 148.003906 438.5 146.820312 437.429688 145.6875 436.296875 C 144.554688 435.167969 143.484375 433.980469 142.46875 432.746094 C 141.453125 431.507812 140.503906 430.226562 139.613281 428.894531 C 138.726562 427.566406 137.902344 426.195312 137.148438 424.785156 C 136.394531 423.375 135.710938 421.929688 135.101562 420.453125 C 134.488281 418.972656 133.949219 417.46875 133.484375 415.9375 C 133.019531 414.40625 132.632812 412.859375 132.320312 411.289062 C 132.007812 409.71875 131.773438 408.140625 131.617188 406.546875 C 131.460938 404.957031 131.382812 403.359375 131.382812 401.761719 L 131.382812 379.324219 C 131.382812 377.722656 131.460938 376.128906 131.617188 374.535156 C 131.773438 372.945312 132.007812 371.363281 132.320312 369.792969 C 132.632812 368.226562 133.019531 366.675781 133.484375 365.144531 C 133.949219 363.613281 134.488281 362.109375 135.101562 360.632812 C 135.710938 359.152344 136.394531 357.710938 137.148438 356.296875 C 137.902344 354.886719 138.726562 353.515625 139.613281 352.1875 C 140.503906 350.855469 141.453125 349.574219 142.46875 348.335938 C 143.484375 347.101562 144.554688 345.917969 145.6875 344.785156 C 146.820312 343.65625 148.003906 342.582031 149.238281 341.566406 C 150.476562 340.550781 151.757812 339.601562 153.089844 338.710938 C 154.417969 337.824219 155.789062 337 157.199219 336.246094 C 158.609375 335.492188 160.054688 334.808594 161.535156 334.199219 C 163.011719 333.585938 164.515625 333.046875 166.046875 332.582031 C 167.578125 332.117188 169.128906 331.730469 170.695312 331.417969 C 172.265625 331.105469 173.84375 330.871094 175.4375 330.714844 C 177.03125 330.558594 178.625 330.480469 180.226562 330.480469 C 181.824219 330.480469 183.421875 330.558594 185.011719 330.714844 C 186.605469 330.871094 188.183594 331.105469 189.753906 331.417969 C 191.324219 331.730469 192.871094 332.117188 194.402344 332.582031 C 195.933594 333.046875 197.4375 333.585938 198.917969 334.199219 C 200.394531 334.808594 201.839844 335.492188 203.25 336.246094 C 204.660156 337 206.03125 337.824219 207.359375 338.710938 C 208.691406 339.601562 209.972656 340.550781 211.210938 341.566406 C 212.445312 342.582031 213.632812 343.65625 214.761719 344.785156 C 215.894531 345.917969 216.964844 347.101562 217.980469 348.335938 C 218.996094 349.574219 219.949219 350.855469 220.835938 352.1875 C 221.726562 353.515625 222.546875 354.886719 223.300781 356.296875 C 224.054688 357.710938 224.738281 359.152344 225.351562 360.632812 C 225.960938 362.109375 226.5 363.613281 226.964844 365.144531 C 227.429688 366.675781 227.816406 368.226562 228.128906 369.792969 C 228.441406 371.363281 228.675781 372.945312 228.832031 374.535156 C 228.988281 376.128906 229.066406 377.722656 229.066406 379.324219 Z M 579.394531 379.566406 C 579.394531 377.972656 579.472656 376.386719 579.628906 374.800781 C 579.78125 373.21875 580.015625 371.644531 580.328125 370.085938 C 580.636719 368.523438 581.023438 366.980469 581.484375 365.457031 C 581.949219 363.933594 582.484375 362.4375 583.09375 360.96875 C 583.703125 359.496094 584.382812 358.058594 585.132812 356.65625 C 585.882812 355.253906 586.699219 353.890625 587.582031 352.566406 C 588.46875 351.242188 589.414062 349.964844 590.425781 348.734375 C 591.433594 347.503906 592.503906 346.324219 593.628906 345.199219 C 594.753906 344.074219 595.929688 343.007812 597.160156 341.996094 C 598.390625 340.988281 599.667969 340.039062 600.992188 339.15625 C 602.316406 338.273438 603.679688 337.453125 605.082031 336.703125 C 606.488281 335.953125 607.925781 335.273438 609.394531 334.664062 C 610.863281 334.054688 612.363281 333.519531 613.886719 333.058594 C 615.410156 332.597656 616.949219 332.210938 618.511719 331.898438 C 620.074219 331.589844 621.644531 331.355469 623.230469 331.199219 C 624.8125 331.042969 626.402344 330.964844 627.992188 330.964844 C 629.585938 330.964844 631.171875 331.042969 632.757812 331.199219 C 634.339844 331.355469 635.914062 331.589844 637.472656 331.898438 C 639.035156 332.210938 640.578125 332.597656 642.101562 333.058594 C 643.625 333.519531 645.121094 334.054688 646.589844 334.664062 C 648.0625 335.273438 649.5 335.953125 650.902344 336.703125 C 652.304688 337.453125 653.671875 338.273438 654.992188 339.15625 C 656.316406 340.039062 657.59375 340.988281 658.824219 341.996094 C 660.054688 343.007812 661.234375 344.074219 662.359375 345.199219 C 663.484375 346.324219 664.550781 347.503906 665.5625 348.734375 C 666.570312 349.964844 667.519531 351.242188 668.402344 352.566406 C 669.285156 353.890625 670.105469 355.253906 670.855469 356.65625 C 671.605469 358.058594 672.285156 359.496094 672.894531 360.96875 C 673.503906 362.4375 674.039062 363.933594 674.5 365.457031 C 674.960938 366.980469 675.347656 368.523438 675.660156 370.085938 C 675.96875 371.644531 676.203125 373.21875 676.359375 374.800781 C 676.515625 376.386719 676.59375 377.972656 676.59375 379.566406 L 676.59375 401.761719 C 676.59375 403.351562 676.515625 404.941406 676.359375 406.523438 C 676.203125 408.109375 675.96875 409.679688 675.660156 411.242188 C 675.347656 412.800781 674.960938 414.34375 674.5 415.867188 C 674.039062 417.390625 673.503906 418.886719 672.894531 420.359375 C 672.285156 421.828125 671.605469 423.265625 670.855469 424.667969 C 670.105469 426.074219 669.285156 427.4375 668.402344 428.761719 C 667.519531 430.085938 666.570312 431.359375 665.5625 432.589844 C 664.550781 433.820312 663.484375 435 662.359375 436.125 C 661.234375 437.25 660.054688 438.320312 658.824219 439.328125 C 657.59375 440.339844 656.316406 441.285156 654.992188 442.167969 C 653.671875 443.054688 652.304688 443.871094 650.902344 444.621094 C 649.5 445.371094 648.0625 446.050781 646.589844 446.660156 C 645.121094 447.269531 643.625 447.804688 642.101562 448.265625 C 640.578125 448.730469 639.035156 449.117188 637.472656 449.425781 C 635.914062 449.738281 634.339844 449.96875 632.757812 450.125 C 631.171875 450.28125 629.585938 450.359375 627.992188 450.359375 C 626.402344 450.359375 624.8125 450.28125 623.230469 450.125 C 621.644531 449.96875 620.074219 449.738281 618.511719 449.425781 C 616.949219 449.117188 615.410156 448.730469 613.886719 448.265625 C 612.363281 447.804688 610.863281 447.269531 609.394531 446.660156 C 607.925781 446.050781 606.488281 445.371094 605.082031 444.621094 C 603.679688 443.871094 602.316406 443.054688 600.992188 442.167969 C 599.667969 441.285156 598.390625 440.339844 597.160156 439.328125 C 595.929688 438.320312 594.753906 437.25 593.628906 436.125 C 592.503906 435 591.433594 433.820312 590.425781 432.589844 C 589.414062 431.359375 588.46875 430.085938 587.582031 428.761719 C 586.699219 427.4375 585.882812 426.074219 585.132812 424.667969 C 584.382812 423.265625 583.703125 421.828125 583.09375 420.359375 C 582.484375 418.886719 581.949219 417.390625 581.484375 415.867188 C 581.023438 414.34375 580.636719 412.800781 580.328125 411.242188 C 580.015625 409.679688 579.78125 408.109375 579.628906 406.523438 C 579.472656 404.941406 579.394531 403.351562 579.394531 401.761719 Z M 776.0625 746.902344 L 731.914062 746.902344 L 731.914062 630.179688 C 731.953125 629.640625 731.964844 629.101562 731.949219 628.558594 C 731.933594 628.019531 731.886719 627.480469 731.816406 626.945312 C 731.742188 626.410156 731.644531 625.878906 731.515625 625.351562 C 731.390625 624.824219 731.238281 624.308594 731.058594 623.796875 C 730.878906 623.289062 730.671875 622.789062 730.441406 622.296875 C 730.210938 621.808594 729.953125 621.332031 729.675781 620.871094 C 729.394531 620.40625 729.089844 619.960938 728.765625 619.53125 C 728.4375 619.097656 728.089844 618.683594 727.722656 618.289062 C 727.355469 617.890625 726.964844 617.515625 726.558594 617.160156 C 726.152344 616.804688 725.726562 616.46875 725.285156 616.15625 C 724.84375 615.84375 724.386719 615.554688 723.917969 615.289062 C 723.445312 615.023438 722.960938 614.785156 722.464844 614.566406 C 721.96875 614.351562 721.464844 614.160156 720.949219 613.996094 C 720.433594 613.832031 719.910156 613.695312 719.382812 613.585938 C 718.851562 613.476562 718.316406 613.394531 717.78125 613.339844 C 717.242188 613.28125 716.703125 613.253906 716.160156 613.253906 C 715.621094 613.253906 715.082031 613.28125 714.542969 613.335938 C 714.003906 613.394531 713.472656 613.476562 712.941406 613.585938 C 712.410156 613.695312 711.890625 613.832031 711.375 613.996094 C 710.859375 614.160156 710.351562 614.351562 709.855469 614.566406 C 709.359375 614.785156 708.878906 615.023438 708.40625 615.289062 C 707.933594 615.554688 707.476562 615.84375 707.035156 616.15625 C 706.59375 616.46875 706.171875 616.804688 705.761719 617.160156 C 705.355469 617.515625 704.96875 617.890625 704.601562 618.289062 C 704.230469 618.683594 703.882812 619.097656 703.558594 619.53125 C 703.230469 619.960938 702.929688 620.40625 702.648438 620.871094 C 702.367188 621.332031 702.113281 621.808594 701.882812 622.296875 C 701.652344 622.789062 701.445312 623.289062 701.265625 623.796875 C 701.085938 624.308594 700.933594 624.824219 700.804688 625.351562 C 700.679688 625.878906 700.578125 626.410156 700.507812 626.945312 C 700.433594 627.480469 700.390625 628.019531 700.375 628.558594 C 700.355469 629.101562 700.367188 629.640625 700.40625 630.179688 L 700.40625 746.902344 L 555.253906 746.902344 L 555.253906 567 C 555.238281 563.792969 554.347656 560.847656 552.582031 558.171875 L 449.308594 405 C 444.761719 398.253906 440.707031 391.222656 437.144531 383.90625 C 433.582031 376.589844 430.546875 369.0625 428.039062 361.320312 C 425.535156 353.582031 423.578125 345.703125 422.175781 337.6875 C 420.769531 329.675781 419.933594 321.601562 419.660156 313.46875 L 583.199219 477.253906 L 583.765625 477.820312 C 585.226562 479.125 586.871094 480.136719 588.699219 480.847656 C 590.523438 481.558594 592.417969 481.925781 594.378906 481.949219 L 704.699219 481.949219 C 705.875 481.949219 707.046875 481.980469 708.222656 482.035156 C 709.394531 482.09375 710.566406 482.179688 711.734375 482.296875 C 712.902344 482.410156 714.070312 482.554688 715.230469 482.726562 C 716.390625 482.898438 717.550781 483.101562 718.699219 483.328125 C 719.851562 483.558594 721 483.816406 722.136719 484.101562 C 723.277344 484.386719 724.410156 484.699219 725.53125 485.039062 C 726.65625 485.382812 727.769531 485.75 728.878906 486.144531 C 729.984375 486.539062 731.078125 486.964844 732.164062 487.414062 C 733.25 487.863281 734.320312 488.339844 735.382812 488.839844 C 736.445312 489.34375 737.496094 489.871094 738.53125 490.425781 C 739.566406 490.976562 740.585938 491.554688 741.59375 492.160156 C 742.601562 492.765625 743.59375 493.390625 744.570312 494.042969 C 745.546875 494.695312 746.507812 495.375 747.449219 496.074219 C 748.394531 496.773438 749.320312 497.496094 750.226562 498.238281 C 751.136719 498.984375 752.023438 499.753906 752.894531 500.539062 C 753.765625 501.328125 754.617188 502.140625 755.445312 502.96875 C 756.277344 503.800781 757.085938 504.652344 757.875 505.519531 C 758.664062 506.390625 759.429688 507.28125 760.175781 508.1875 C 760.921875 509.097656 761.644531 510.023438 762.34375 510.964844 C 763.042969 511.910156 763.71875 512.867188 764.371094 513.84375 C 765.023438 514.820312 765.652344 515.8125 766.253906 516.820312 C 766.859375 517.828125 767.4375 518.851562 767.992188 519.886719 C 768.546875 520.921875 769.074219 521.96875 769.574219 523.03125 C 770.078125 524.09375 770.554688 525.167969 771.003906 526.253906 C 771.453125 527.335938 771.875 528.433594 772.269531 529.539062 C 772.667969 530.644531 773.035156 531.757812 773.375 532.882812 C 773.714844 534.007812 774.03125 535.140625 774.316406 536.277344 C 774.601562 537.417969 774.859375 538.5625 775.085938 539.714844 C 775.316406 540.867188 775.515625 542.023438 775.6875 543.1875 C 775.863281 544.347656 776.003906 545.511719 776.121094 546.683594 C 776.234375 547.851562 776.320312 549.019531 776.378906 550.195312 C 776.4375 551.367188 776.464844 552.542969 776.464844 553.714844 L 776.464844 746.902344 Z M 776.0625 746.902344 " fill-opacity="1" fill-rule="nonzero"/><path fill="#ebebeb" d="M 727.300781 555.984375 C 726.75 555.441406 726.167969 554.945312 725.546875 554.488281 C 724.925781 554.035156 724.273438 553.625 723.59375 553.265625 C 722.914062 552.90625 722.210938 552.59375 721.484375 552.335938 C 720.757812 552.082031 720.019531 551.875 719.261719 551.726562 C 718.507812 551.578125 717.746094 551.484375 716.976562 551.445312 C 716.207031 551.410156 715.441406 551.425781 714.671875 551.5 C 713.90625 551.574219 713.148438 551.707031 712.402344 551.890625 C 711.65625 552.074219 710.925781 552.3125 710.214844 552.605469 C 709.5 552.898438 708.8125 553.242188 708.152344 553.632812 C 707.488281 554.023438 706.859375 554.464844 706.257812 554.949219 C 705.660156 555.433594 705.101562 555.957031 704.578125 556.523438 C 704.058594 557.089844 703.582031 557.691406 703.148438 558.328125 C 702.714844 558.964844 702.328125 559.628906 701.992188 560.324219 C 701.65625 561.015625 701.371094 561.730469 701.140625 562.464844 C 700.90625 563.199219 700.730469 563.945312 700.605469 564.703125 C 700.484375 565.464844 700.417969 566.230469 700.40625 567 C 700.394531 567.523438 700.40625 568.046875 700.445312 568.570312 C 700.484375 569.09375 700.546875 569.613281 700.636719 570.128906 C 700.730469 570.644531 700.84375 571.15625 700.984375 571.660156 C 701.128906 572.164062 701.292969 572.660156 701.484375 573.148438 C 701.675781 573.636719 701.886719 574.117188 702.125 574.582031 C 702.363281 575.050781 702.625 575.503906 702.910156 575.945312 C 703.191406 576.386719 703.496094 576.8125 703.824219 577.222656 C 704.148438 577.632812 704.496094 578.027344 704.859375 578.402344 C 705.222656 578.777344 705.605469 579.136719 706.007812 579.472656 C 706.40625 579.8125 706.824219 580.128906 707.257812 580.425781 C 707.6875 580.722656 708.132812 580.996094 708.59375 581.25 C 709.054688 581.503906 709.523438 581.730469 710.007812 581.9375 C 710.488281 582.140625 710.980469 582.324219 711.480469 582.480469 C 711.980469 582.636719 712.488281 582.765625 713 582.875 C 713.515625 582.980469 714.03125 583.058594 714.550781 583.113281 C 715.074219 583.167969 715.597656 583.199219 716.121094 583.199219 C 716.65625 583.214844 717.1875 583.199219 717.722656 583.160156 C 718.253906 583.121094 718.785156 583.054688 719.308594 582.957031 C 719.835938 582.863281 720.355469 582.746094 720.871094 582.597656 C 721.382812 582.449219 721.890625 582.277344 722.386719 582.082031 C 722.882812 581.882812 723.367188 581.660156 723.839844 581.410156 C 724.316406 581.164062 724.773438 580.894531 725.222656 580.601562 C 725.667969 580.304688 726.097656 579.988281 726.511719 579.652344 C 726.925781 579.316406 727.320312 578.957031 727.699219 578.578125 C 728.078125 578.199219 728.4375 577.804688 728.773438 577.390625 C 729.109375 576.976562 729.425781 576.546875 729.722656 576.101562 C 730.015625 575.652344 730.285156 575.195312 730.53125 574.71875 C 730.78125 574.246094 731.003906 573.761719 731.203125 573.265625 C 731.398438 572.769531 731.570312 572.261719 731.71875 571.75 C 731.867188 571.234375 731.984375 570.714844 732.078125 570.1875 C 732.175781 569.664062 732.242188 569.132812 732.28125 568.601562 C 732.320312 568.066406 732.335938 567.535156 732.320312 567 C 732.226562 564.910156 731.746094 562.910156 730.878906 561.003906 C 730.007812 559.101562 728.816406 557.425781 727.300781 555.984375 Z M 727.300781 555.984375 " fill-opacity="1" fill-rule="nonzero"/><path fill="#ebebeb" d="M 279.289062 639.898438 C 278.925781 639.527344 278.546875 639.175781 278.152344 638.84375 C 277.753906 638.511719 277.34375 638.199219 276.914062 637.90625 C 276.488281 637.617188 276.046875 637.347656 275.589844 637.097656 C 275.136719 636.851562 274.671875 636.625 274.195312 636.425781 C 273.71875 636.222656 273.230469 636.046875 272.738281 635.894531 C 272.242188 635.742188 271.742188 635.613281 271.234375 635.511719 C 270.726562 635.410156 270.214844 635.332031 269.699219 635.28125 C 269.183594 635.226562 268.667969 635.203125 268.152344 635.203125 C 267.632812 635.203125 267.117188 635.226562 266.601562 635.28125 C 266.085938 635.332031 265.574219 635.410156 265.066406 635.511719 C 264.558594 635.613281 264.058594 635.742188 263.5625 635.894531 C 263.070312 636.046875 262.582031 636.222656 262.105469 636.425781 C 261.628906 636.625 261.164062 636.851562 260.710938 637.097656 C 260.253906 637.347656 259.8125 637.617188 259.386719 637.90625 C 258.957031 638.199219 258.546875 638.511719 258.148438 638.84375 C 257.753906 639.175781 257.375 639.527344 257.011719 639.898438 C 255.558594 641.386719 254.433594 643.085938 253.636719 645.003906 C 252.839844 646.921875 252.425781 648.917969 252.394531 650.996094 C 252.382812 651.523438 252.394531 652.046875 252.433594 652.574219 C 252.472656 653.097656 252.539062 653.617188 252.628906 654.136719 C 252.71875 654.652344 252.835938 655.164062 252.980469 655.671875 C 253.121094 656.179688 253.289062 656.675781 253.480469 657.164062 C 253.671875 657.65625 253.886719 658.132812 254.128906 658.601562 C 254.367188 659.070312 254.628906 659.527344 254.914062 659.96875 C 255.199219 660.410156 255.507812 660.835938 255.835938 661.246094 C 256.160156 661.65625 256.507812 662.050781 256.875 662.429688 C 257.242188 662.804688 257.628906 663.164062 258.03125 663.5 C 258.433594 663.839844 258.851562 664.15625 259.289062 664.453125 C 259.722656 664.75 260.171875 665.023438 260.632812 665.273438 C 261.09375 665.523438 261.566406 665.753906 262.050781 665.957031 C 262.535156 666.160156 263.03125 666.339844 263.53125 666.496094 C 264.035156 666.652344 264.542969 666.78125 265.058594 666.882812 C 265.574219 666.988281 266.09375 667.066406 266.617188 667.117188 C 267.140625 667.171875 267.664062 667.195312 268.191406 667.195312 C 268.714844 667.195312 269.238281 667.164062 269.757812 667.113281 C 270.28125 667.058594 270.796875 666.976562 271.3125 666.871094 C 271.824219 666.765625 272.332031 666.632812 272.832031 666.476562 C 273.332031 666.320312 273.824219 666.140625 274.304688 665.933594 C 274.789062 665.726562 275.257812 665.5 275.71875 665.246094 C 276.175781 664.996094 276.625 664.71875 277.054688 664.421875 C 277.488281 664.125 277.902344 663.808594 278.304688 663.472656 C 278.703125 663.132812 279.085938 662.777344 279.453125 662.398438 C 279.816406 662.023438 280.164062 661.628906 280.488281 661.21875 C 280.816406 660.808594 281.121094 660.382812 281.402344 659.941406 C 281.6875 659.5 281.945312 659.046875 282.183594 658.578125 C 282.421875 658.113281 282.636719 657.636719 282.828125 657.148438 C 283.019531 656.660156 283.183594 656.164062 283.324219 655.65625 C 283.46875 655.152344 283.582031 654.640625 283.671875 654.125 C 283.765625 653.609375 283.828125 653.089844 283.867188 652.566406 C 283.90625 652.042969 283.917969 651.519531 283.90625 650.996094 C 283.914062 648.910156 283.519531 646.90625 282.71875 644.980469 C 281.917969 643.058594 280.773438 641.363281 279.289062 639.898438 Z M 279.289062 639.898438 " fill-opacity="1" fill-rule="nonzero"/></svg>