<svg xmlns="http://www.w3.org/2000/svg" xmlns:xlink="http://www.w3.org/1999/xlink" width="1080" zoomAndPan="magnify" viewBox="0 0 810 809.999993" height="1080" preserveAspectRatio="xMidYMid meet" version="1.0"><path fill="#ebebeb" d="M 776.789062 164.429688 L 470.609375 164.429688 C 463.320312 130.410156 431.730469 103.679688 396.089844 103.679688 C 359.640625 103.679688 328.859375 129.601562 321.570312 164.429688 L 38.878906 164.429688 C 29.96875 164.429688 22.679688 171.71875 22.679688 180.628906 C 22.679688 189.539062 29.96875 196.828125 38.878906 196.828125 L 319.949219 196.828125 C 327.238281 230.851562 358.828125 257.578125 394.46875 257.578125 C 430.921875 257.578125 461.699219 231.660156 468.988281 196.828125 L 776.789062 196.828125 C 785.699219 196.828125 792.988281 189.539062 792.988281 180.628906 C 793.800781 171.71875 786.511719 164.429688 776.789062 164.429688 Z M 395.28125 225.988281 C 370.980469 225.988281 350.730469 206.550781 350.730469 181.441406 C 350.730469 156.328125 370.171875 136.890625 395.28125 136.890625 C 419.578125 136.890625 439.828125 156.328125 439.828125 181.441406 C 439.828125 205.738281 420.390625 225.988281 395.28125 225.988281 Z M 395.28125 225.988281 " fill-opacity="1" fill-rule="nonzero"/><path fill="#ebebeb" d="M 777.601562 392.039062 L 312.660156 392.039062 C 305.371094 358.019531 273.78125 331.289062 238.140625 331.289062 C 201.691406 331.289062 170.910156 357.210938 163.621094 392.039062 L 38.878906 392.039062 C 29.96875 392.039062 22.679688 399.328125 22.679688 408.238281 C 22.679688 417.148438 29.96875 424.441406 38.878906 424.441406 L 163.621094 424.441406 C 170.910156 458.460938 202.5 485.191406 238.140625 485.191406 C 274.589844 485.191406 305.371094 459.269531 312.660156 424.441406 L 777.601562 424.441406 C 786.511719 424.441406 793.800781 417.148438 793.800781 408.238281 C 793.800781 399.328125 787.320312 392.039062 777.601562 392.039062 Z M 238.140625 452.789062 C 213.839844 452.789062 193.589844 433.351562 193.589844 408.238281 C 193.589844 383.941406 213.839844 363.691406 238.140625 363.691406 C 262.441406 363.691406 282.691406 383.128906 282.691406 408.238281 C 282.691406 432.539062 263.25 452.789062 238.140625 452.789062 Z M 238.140625 452.789062 " fill-opacity="1" fill-rule="nonzero"/><path fill="#ebebeb" d="M 776.789062 618.03125 L 632.609375 618.03125 C 625.320312 584.011719 593.730469 557.28125 558.089844 557.28125 C 521.640625 557.28125 490.859375 583.199219 483.570312 618.03125 L 38.878906 618.03125 C 29.96875 618.03125 22.679688 625.320312 22.679688 634.230469 C 22.679688 643.140625 29.96875 650.429688 38.878906 650.429688 L 481.949219 650.429688 C 489.238281 684.449219 520.828125 711.179688 556.46875 711.179688 C 592.921875 711.179688 623.699219 685.261719 630.988281 650.429688 L 776.789062 650.429688 C 785.699219 650.429688 792.988281 643.140625 792.988281 634.230469 C 793.800781 625.320312 786.511719 618.03125 776.789062 618.03125 Z M 557.28125 680.398438 C 532.980469 680.398438 512.730469 660.960938 512.730469 635.851562 C 512.730469 610.738281 532.980469 591.300781 557.28125 591.300781 C 581.578125 591.300781 601.828125 610.738281 601.828125 635.851562 C 601.828125 660.960938 581.578125 680.398438 557.28125 680.398438 Z M 557.28125 680.398438 " fill-opacity="1" fill-rule="nonzero"/><path fill="#ebebeb" d="M 420.390625 183.058594 C 420.390625 183.804688 420.355469 184.542969 420.28125 185.28125 C 420.207031 186.023438 420.097656 186.757812 419.953125 187.484375 C 419.808594 188.214844 419.628906 188.933594 419.414062 189.644531 C 419.199219 190.355469 418.949219 191.054688 418.664062 191.738281 C 418.378906 192.425781 418.0625 193.097656 417.710938 193.75 C 417.363281 194.40625 416.980469 195.042969 416.566406 195.660156 C 416.15625 196.277344 415.714844 196.875 415.242188 197.449219 C 414.769531 198.023438 414.273438 198.570312 413.746094 199.097656 C 413.222656 199.621094 412.671875 200.121094 412.097656 200.59375 C 411.523438 201.0625 410.929688 201.503906 410.308594 201.917969 C 409.691406 202.332031 409.054688 202.710938 408.402344 203.0625 C 407.746094 203.414062 407.074219 203.730469 406.390625 204.011719 C 405.703125 204.296875 405.003906 204.546875 404.292969 204.761719 C 403.582031 204.980469 402.863281 205.160156 402.132812 205.304688 C 401.40625 205.449219 400.671875 205.558594 399.933594 205.628906 C 399.195312 205.703125 398.453125 205.738281 397.710938 205.738281 C 396.96875 205.738281 396.226562 205.703125 395.488281 205.628906 C 394.746094 205.558594 394.015625 205.449219 393.285156 205.304688 C 392.558594 205.160156 391.835938 204.980469 391.125 204.761719 C 390.414062 204.546875 389.71875 204.296875 389.03125 204.011719 C 388.34375 203.730469 387.671875 203.414062 387.019531 203.0625 C 386.363281 202.710938 385.726562 202.332031 385.109375 201.917969 C 384.492188 201.503906 383.894531 201.0625 383.320312 200.59375 C 382.746094 200.121094 382.199219 199.621094 381.671875 199.097656 C 381.148438 198.570312 380.648438 198.023438 380.179688 197.449219 C 379.707031 196.875 379.265625 196.277344 378.851562 195.660156 C 378.441406 195.042969 378.058594 194.40625 377.707031 193.75 C 377.359375 193.097656 377.039062 192.425781 376.757812 191.738281 C 376.472656 191.054688 376.222656 190.355469 376.007812 189.644531 C 375.789062 188.933594 375.609375 188.214844 375.464844 187.484375 C 375.320312 186.757812 375.210938 186.023438 375.140625 185.28125 C 375.066406 184.542969 375.03125 183.804688 375.03125 183.058594 C 375.03125 182.316406 375.066406 181.578125 375.140625 180.835938 C 375.210938 180.097656 375.320312 179.363281 375.464844 178.636719 C 375.609375 177.90625 375.789062 177.1875 376.007812 176.476562 C 376.222656 175.765625 376.472656 175.066406 376.757812 174.378906 C 377.039062 173.695312 377.359375 173.023438 377.707031 172.367188 C 378.058594 171.714844 378.441406 171.078125 378.851562 170.460938 C 379.265625 169.84375 379.707031 169.246094 380.179688 168.671875 C 380.648438 168.097656 381.148438 167.546875 381.671875 167.023438 C 382.199219 166.496094 382.746094 166 383.320312 165.527344 C 383.894531 165.058594 384.492188 164.613281 385.109375 164.203125 C 385.726562 163.789062 386.363281 163.40625 387.019531 163.058594 C 387.671875 162.707031 388.34375 162.390625 389.03125 162.105469 C 389.71875 161.820312 390.414062 161.570312 391.125 161.355469 C 391.835938 161.140625 392.558594 160.960938 393.285156 160.816406 C 394.015625 160.671875 394.746094 160.5625 395.488281 160.488281 C 396.226562 160.417969 396.96875 160.378906 397.710938 160.378906 C 398.453125 160.378906 399.195312 160.417969 399.933594 160.488281 C 400.671875 160.5625 401.40625 160.671875 402.132812 160.816406 C 402.863281 160.960938 403.582031 161.140625 404.292969 161.355469 C 405.003906 161.570312 405.703125 161.820312 406.390625 162.105469 C 407.074219 162.390625 407.746094 162.707031 408.402344 163.058594 C 409.054688 163.40625 409.691406 163.789062 410.308594 164.203125 C 410.929688 164.613281 411.523438 165.058594 412.097656 165.527344 C 412.671875 166 413.222656 166.496094 413.746094 167.023438 C 414.273438 167.546875 414.769531 168.097656 415.242188 168.671875 C 415.714844 169.246094 416.15625 169.84375 416.566406 170.460938 C 416.980469 171.078125 417.363281 171.714844 417.710938 172.367188 C 418.0625 173.023438 418.378906 173.695312 418.664062 174.378906 C 418.949219 175.066406 419.199219 175.765625 419.414062 176.476562 C 419.628906 177.1875 419.808594 177.90625 419.953125 178.636719 C 420.097656 179.363281 420.207031 180.097656 420.28125 180.835938 C 420.355469 181.578125 420.390625 182.316406 420.390625 183.058594 Z M 420.390625 183.058594 " fill-opacity="1" fill-rule="nonzero"/><path fill="#ebebeb" d="M 258.390625 408.238281 C 258.390625 408.984375 258.355469 409.722656 258.28125 410.464844 C 258.207031 411.203125 258.097656 411.9375 257.953125 412.664062 C 257.808594 413.394531 257.628906 414.113281 257.414062 414.824219 C 257.199219 415.535156 256.949219 416.234375 256.664062 416.917969 C 256.378906 417.605469 256.0625 418.277344 255.710938 418.929688 C 255.363281 419.585938 254.980469 420.222656 254.566406 420.839844 C 254.15625 421.457031 253.714844 422.054688 253.242188 422.628906 C 252.769531 423.203125 252.273438 423.75 251.746094 424.277344 C 251.222656 424.800781 250.671875 425.300781 250.097656 425.773438 C 249.523438 426.242188 248.929688 426.683594 248.308594 427.097656 C 247.691406 427.511719 247.054688 427.890625 246.402344 428.242188 C 245.746094 428.59375 245.074219 428.910156 244.390625 429.195312 C 243.703125 429.476562 243.003906 429.726562 242.292969 429.945312 C 241.582031 430.160156 240.863281 430.339844 240.132812 430.484375 C 239.40625 430.628906 238.671875 430.738281 237.933594 430.8125 C 237.195312 430.882812 236.453125 430.921875 235.710938 430.921875 C 234.96875 430.921875 234.226562 430.882812 233.488281 430.8125 C 232.746094 430.738281 232.015625 430.628906 231.285156 430.484375 C 230.558594 430.339844 229.835938 430.160156 229.125 429.945312 C 228.414062 429.726562 227.71875 429.476562 227.03125 429.195312 C 226.34375 428.910156 225.671875 428.59375 225.019531 428.242188 C 224.363281 427.890625 223.726562 427.511719 223.109375 427.097656 C 222.492188 426.683594 221.894531 426.242188 221.320312 425.773438 C 220.746094 425.300781 220.199219 424.800781 219.671875 424.277344 C 219.148438 423.75 218.648438 423.203125 218.179688 422.628906 C 217.707031 422.054688 217.265625 421.457031 216.851562 420.839844 C 216.441406 420.222656 216.058594 419.585938 215.707031 418.929688 C 215.359375 418.277344 215.039062 417.605469 214.757812 416.917969 C 214.472656 416.234375 214.222656 415.535156 214.007812 414.824219 C 213.789062 414.113281 213.609375 413.394531 213.464844 412.664062 C 213.320312 411.9375 213.210938 411.203125 213.140625 410.464844 C 213.066406 409.722656 213.03125 408.984375 213.03125 408.238281 C 213.03125 407.496094 213.066406 406.757812 213.140625 406.015625 C 213.210938 405.277344 213.320312 404.542969 213.464844 403.816406 C 213.609375 403.085938 213.789062 402.367188 214.007812 401.65625 C 214.222656 400.945312 214.472656 400.246094 214.757812 399.5625 C 215.039062 398.875 215.359375 398.203125 215.707031 397.546875 C 216.058594 396.894531 216.441406 396.257812 216.851562 395.640625 C 217.265625 395.023438 217.707031 394.425781 218.179688 393.851562 C 218.648438 393.277344 219.148438 392.726562 219.671875 392.203125 C 220.199219 391.675781 220.746094 391.179688 221.320312 390.707031 C 221.894531 390.238281 222.492188 389.796875 223.109375 389.382812 C 223.726562 388.96875 224.363281 388.589844 225.019531 388.238281 C 225.675781 387.886719 226.34375 387.570312 227.03125 387.285156 C 227.71875 387.003906 228.414062 386.753906 229.125 386.535156 C 229.835938 386.320312 230.558594 386.140625 231.285156 385.996094 C 232.015625 385.851562 232.746094 385.742188 233.488281 385.667969 C 234.226562 385.597656 234.96875 385.558594 235.710938 385.558594 C 236.453125 385.558594 237.195312 385.597656 237.933594 385.667969 C 238.671875 385.742188 239.40625 385.851562 240.132812 385.996094 C 240.863281 386.140625 241.582031 386.320312 242.292969 386.535156 C 243.003906 386.753906 243.703125 387.003906 244.390625 387.285156 C 245.074219 387.570312 245.746094 387.886719 246.402344 388.238281 C 247.054688 388.589844 247.691406 388.96875 248.308594 389.382812 C 248.929688 389.792969 249.523438 390.238281 250.097656 390.707031 C 250.671875 391.179688 251.222656 391.675781 251.746094 392.203125 C 252.273438 392.726562 252.769531 393.277344 253.242188 393.851562 C 253.714844 394.425781 254.15625 395.023438 254.566406 395.640625 C 254.980469 396.257812 255.363281 396.894531 255.710938 397.546875 C 256.0625 398.203125 256.378906 398.875 256.664062 399.5625 C 256.949219 400.246094 257.199219 400.945312 257.414062 401.65625 C 257.628906 402.367188 257.808594 403.085938 257.953125 403.816406 C 258.097656 404.542969 258.207031 405.277344 258.28125 406.015625 C 258.355469 406.757812 258.390625 407.496094 258.390625 408.238281 Z M 258.390625 408.238281 " fill-opacity="1" fill-rule="nonzero"/><path fill="#ebebeb" d="M 582.390625 635.039062 C 582.390625 635.78125 582.355469 636.523438 582.28125 637.261719 C 582.207031 638.003906 582.097656 638.734375 581.953125 639.464844 C 581.808594 640.191406 581.628906 640.914062 581.414062 641.625 C 581.199219 642.335938 580.949219 643.03125 580.664062 643.71875 C 580.378906 644.40625 580.0625 645.074219 579.710938 645.730469 C 579.363281 646.386719 578.980469 647.023438 578.566406 647.640625 C 578.15625 648.257812 577.714844 648.855469 577.242188 649.429688 C 576.769531 650.003906 576.273438 650.550781 575.746094 651.078125 C 575.222656 651.601562 574.671875 652.101562 574.097656 652.570312 C 573.523438 653.042969 572.929688 653.484375 572.308594 653.898438 C 571.691406 654.308594 571.054688 654.691406 570.402344 655.042969 C 569.746094 655.390625 569.074219 655.710938 568.390625 655.992188 C 567.703125 656.277344 567.003906 656.527344 566.292969 656.742188 C 565.582031 656.960938 564.863281 657.140625 564.132812 657.285156 C 563.40625 657.429688 562.671875 657.539062 561.933594 657.609375 C 561.195312 657.683594 560.453125 657.71875 559.710938 657.71875 C 558.96875 657.71875 558.226562 657.683594 557.488281 657.609375 C 556.746094 657.539062 556.015625 657.429688 555.285156 657.285156 C 554.558594 657.140625 553.835938 656.960938 553.125 656.742188 C 552.414062 656.527344 551.71875 656.277344 551.03125 655.992188 C 550.34375 655.710938 549.671875 655.390625 549.019531 655.042969 C 548.363281 654.691406 547.726562 654.308594 547.109375 653.898438 C 546.492188 653.484375 545.894531 653.042969 545.320312 652.570312 C 544.746094 652.101562 544.199219 651.601562 543.671875 651.078125 C 543.148438 650.550781 542.648438 650.003906 542.179688 649.429688 C 541.707031 648.855469 541.265625 648.257812 540.851562 647.640625 C 540.441406 647.023438 540.058594 646.386719 539.707031 645.730469 C 539.359375 645.074219 539.039062 644.40625 538.757812 643.71875 C 538.472656 643.03125 538.222656 642.335938 538.007812 641.625 C 537.789062 640.914062 537.609375 640.191406 537.464844 639.464844 C 537.320312 638.734375 537.210938 638.003906 537.140625 637.261719 C 537.066406 636.523438 537.03125 635.78125 537.03125 635.039062 C 537.03125 634.296875 537.066406 633.554688 537.140625 632.816406 C 537.210938 632.078125 537.320312 631.34375 537.464844 630.617188 C 537.609375 629.886719 537.789062 629.167969 538.007812 628.457031 C 538.222656 627.746094 538.472656 627.046875 538.757812 626.359375 C 539.039062 625.675781 539.359375 625.003906 539.707031 624.347656 C 540.058594 623.695312 540.441406 623.058594 540.851562 622.441406 C 541.265625 621.820312 541.707031 621.226562 542.179688 620.652344 C 542.648438 620.078125 543.148438 619.527344 543.671875 619.003906 C 544.199219 618.476562 544.746094 617.980469 545.320312 617.507812 C 545.894531 617.035156 546.492188 616.59375 547.109375 616.183594 C 547.726562 615.769531 548.363281 615.386719 549.019531 615.039062 C 549.671875 614.6875 550.34375 614.371094 551.03125 614.085938 C 551.71875 613.800781 552.414062 613.550781 553.125 613.335938 C 553.835938 613.121094 554.558594 612.941406 555.285156 612.796875 C 556.015625 612.652344 556.746094 612.542969 557.488281 612.46875 C 558.226562 612.394531 558.96875 612.359375 559.710938 612.359375 C 560.453125 612.359375 561.195312 612.394531 561.933594 612.46875 C 562.671875 612.542969 563.40625 612.652344 564.132812 612.796875 C 564.863281 612.941406 565.582031 613.121094 566.292969 613.335938 C 567.003906 613.550781 567.703125 613.800781 568.390625 614.085938 C 569.074219 614.371094 569.746094 614.6875 570.402344 615.039062 C 571.054688 615.386719 571.691406 615.769531 572.308594 616.183594 C 572.929688 616.59375 573.523438 617.035156 574.097656 617.507812 C 574.671875 617.980469 575.222656 618.476562 575.746094 619.003906 C 576.273438 619.527344 576.769531 620.078125 577.242188 620.652344 C 577.714844 621.226562 578.15625 621.820312 578.566406 622.441406 C 578.980469 623.058594 579.363281 623.695312 579.710938 624.347656 C 580.0625 625.003906 580.378906 625.675781 580.664062 626.359375 C 580.949219 627.046875 581.199219 627.746094 581.414062 628.457031 C 581.628906 629.167969 581.808594 629.886719 581.953125 630.617188 C 582.097656 631.34375 582.207031 632.078125 582.28125 632.816406 C 582.355469 633.554688 582.390625 634.296875 582.390625 635.039062 Z M 582.390625 635.039062 " fill-opacity="1" fill-rule="nonzero"/><path fill="#ebebeb" d="M 258.390625 408.238281 C 258.390625 408.984375 258.355469 409.722656 258.28125 410.464844 C 258.207031 411.203125 258.097656 411.9375 257.953125 412.664062 C 257.808594 413.394531 257.628906 414.113281 257.414062 414.824219 C 257.199219 415.535156 256.949219 416.234375 256.664062 416.917969 C 256.378906 417.605469 256.0625 418.277344 255.710938 418.929688 C 255.363281 419.585938 254.980469 420.222656 254.566406 420.839844 C 254.15625 421.457031 253.714844 422.054688 253.242188 422.628906 C 252.769531 423.203125 252.273438 423.75 251.746094 424.277344 C 251.222656 424.800781 250.671875 425.300781 250.097656 425.773438 C 249.523438 426.242188 248.929688 426.683594 248.308594 427.097656 C 247.691406 427.511719 247.054688 427.890625 246.402344 428.242188 C 245.746094 428.59375 245.074219 428.910156 244.390625 429.195312 C 243.703125 429.476562 243.003906 429.726562 242.292969 429.945312 C 241.582031 430.160156 240.863281 430.339844 240.132812 430.484375 C 239.40625 430.628906 238.671875 430.738281 237.933594 430.8125 C 237.195312 430.882812 236.453125 430.921875 235.710938 430.921875 C 234.96875 430.921875 234.226562 430.882812 233.488281 430.8125 C 232.746094 430.738281 232.015625 430.628906 231.285156 430.484375 C 230.558594 430.339844 229.835938 430.160156 229.125 429.945312 C 228.414062 429.726562 227.71875 429.476562 227.03125 429.195312 C 226.34375 428.910156 225.671875 428.59375 225.019531 428.242188 C 224.363281 427.890625 223.726562 427.511719 223.109375 427.097656 C 222.492188 426.683594 221.894531 426.242188 221.320312 425.773438 C 220.746094 425.300781 220.199219 424.800781 219.671875 424.277344 C 219.148438 423.75 218.648438 423.203125 218.179688 422.628906 C 217.707031 422.054688 217.265625 421.457031 216.851562 420.839844 C 216.441406 420.222656 216.058594 419.585938 215.707031 418.929688 C 215.359375 418.277344 215.039062 417.605469 214.757812 416.917969 C 214.472656 416.234375 214.222656 415.535156 214.007812 414.824219 C 213.789062 414.113281 213.609375 413.394531 213.464844 412.664062 C 213.320312 411.9375 213.210938 411.203125 213.140625 410.464844 C 213.066406 409.722656 213.03125 408.984375 213.03125 408.238281 C 213.03125 407.496094 213.066406 406.757812 213.140625 406.015625 C 213.210938 405.277344 213.320312 404.542969 213.464844 403.816406 C 213.609375 403.085938 213.789062 402.367188 214.007812 401.65625 C 214.222656 400.945312 214.472656 400.246094 214.757812 399.5625 C 215.039062 398.875 215.359375 398.203125 215.707031 397.546875 C 216.058594 396.894531 216.441406 396.257812 216.851562 395.640625 C 217.265625 395.023438 217.707031 394.425781 218.179688 393.851562 C 218.648438 393.277344 219.148438 392.726562 219.671875 392.203125 C 220.199219 391.675781 220.746094 391.179688 221.320312 390.707031 C 221.894531 390.238281 222.492188 389.796875 223.109375 389.382812 C 223.726562 388.96875 224.363281 388.589844 225.019531 388.238281 C 225.675781 387.886719 226.34375 387.570312 227.03125 387.285156 C 227.71875 387.003906 228.414062 386.753906 229.125 386.535156 C 229.835938 386.320312 230.558594 386.140625 231.285156 385.996094 C 232.015625 385.851562 232.746094 385.742188 233.488281 385.667969 C 234.226562 385.597656 234.96875 385.558594 235.710938 385.558594 C 236.453125 385.558594 237.195312 385.597656 237.933594 385.667969 C 238.671875 385.742188 239.40625 385.851562 240.132812 385.996094 C 240.863281 386.140625 241.582031 386.320312 242.292969 386.535156 C 243.003906 386.753906 243.703125 387.003906 244.390625 387.285156 C 245.074219 387.570312 245.746094 387.886719 246.402344 388.238281 C 247.054688 388.589844 247.691406 388.96875 248.308594 389.382812 C 248.929688 389.792969 249.523438 390.238281 250.097656 390.707031 C 250.671875 391.179688 251.222656 391.675781 251.746094 392.203125 C 252.273438 392.726562 252.769531 393.277344 253.242188 393.851562 C 253.714844 394.425781 254.15625 395.023438 254.566406 395.640625 C 254.980469 396.257812 255.363281 396.894531 255.710938 397.546875 C 256.0625 398.203125 256.378906 398.875 256.664062 399.5625 C 256.949219 400.246094 257.199219 400.945312 257.414062 401.65625 C 257.628906 402.367188 257.808594 403.085938 257.953125 403.816406 C 258.097656 404.542969 258.207031 405.277344 258.28125 406.015625 C 258.355469 406.757812 258.390625 407.496094 258.390625 408.238281 Z M 258.390625 408.238281 " fill-opacity="1" fill-rule="nonzero"/></svg>