<svg xmlns="http://www.w3.org/2000/svg" xmlns:xlink="http://www.w3.org/1999/xlink" width="1080" zoomAndPan="magnify" viewBox="0 0 810 809.999993" height="1080" preserveAspectRatio="xMidYMid meet" version="1.0"><path fill="#ebebeb" d="M 706.726562 529.585938 L 103.273438 529.585938 C 101.550781 529.585938 99.832031 529.496094 98.117188 529.328125 C 96.398438 529.15625 94.699219 528.902344 93.007812 528.566406 C 91.316406 528.226562 89.648438 527.808594 87.996094 527.304688 C 86.347656 526.804688 84.726562 526.222656 83.132812 525.5625 C 81.542969 524.902344 79.984375 524.164062 78.464844 523.351562 C 76.945312 522.539062 75.46875 521.652344 74.035156 520.695312 C 72.605469 519.738281 71.222656 518.710938 69.890625 517.617188 C 68.554688 516.523438 67.28125 515.367188 66.0625 514.148438 C 64.84375 512.929688 63.6875 511.652344 62.59375 510.320312 C 61.5 508.988281 60.472656 507.605469 59.515625 506.171875 C 58.558594 504.738281 57.671875 503.261719 56.859375 501.742188 C 56.042969 500.222656 55.308594 498.667969 54.648438 497.074219 C 53.984375 495.480469 53.40625 493.863281 52.902344 492.210938 C 52.402344 490.5625 51.984375 488.894531 51.644531 487.203125 C 51.308594 485.511719 51.054688 483.808594 50.882812 482.09375 C 50.710938 480.378906 50.625 478.660156 50.625 476.9375 L 50.625 154.976562 C 50.625 153.253906 50.710938 151.535156 50.882812 149.816406 C 51.054688 148.101562 51.308594 146.398438 51.644531 144.710938 C 51.984375 143.019531 52.402344 141.347656 52.902344 139.699219 C 53.40625 138.050781 53.988281 136.429688 54.648438 134.835938 C 55.308594 133.246094 56.046875 131.6875 56.859375 130.167969 C 57.671875 128.648438 58.558594 127.171875 59.515625 125.738281 C 60.472656 124.304688 61.5 122.925781 62.59375 121.589844 C 63.6875 120.257812 64.84375 118.984375 66.0625 117.765625 C 67.28125 116.546875 68.558594 115.390625 69.890625 114.292969 C 71.222656 113.203125 72.605469 112.175781 74.035156 111.21875 C 75.46875 110.257812 76.945312 109.375 78.464844 108.558594 C 79.988281 107.746094 81.542969 107.011719 83.132812 106.351562 C 84.726562 105.6875 86.347656 105.109375 87.996094 104.605469 C 89.648438 104.105469 91.316406 103.683594 93.007812 103.347656 C 94.699219 103.011719 96.402344 102.757812 98.117188 102.585938 C 99.832031 102.414062 101.550781 102.328125 103.273438 102.328125 L 706.726562 102.328125 C 708.449219 102.328125 710.167969 102.414062 711.882812 102.585938 C 713.597656 102.757812 715.300781 103.011719 716.992188 103.351562 C 718.683594 103.6875 720.351562 104.109375 722 104.609375 C 723.652344 105.109375 725.269531 105.691406 726.863281 106.351562 C 728.457031 107.011719 730.011719 107.75 731.53125 108.5625 C 733.050781 109.378906 734.527344 110.261719 735.960938 111.222656 C 737.394531 112.179688 738.777344 113.203125 740.109375 114.296875 C 741.441406 115.390625 742.714844 116.546875 743.933594 117.765625 C 745.15625 118.984375 746.308594 120.261719 747.40625 121.59375 C 748.5 122.925781 749.523438 124.308594 750.484375 125.742188 C 751.441406 127.175781 752.324219 128.652344 753.140625 130.171875 C 753.953125 131.691406 754.6875 133.246094 755.351562 134.839844 C 756.011719 136.429688 756.589844 138.050781 757.09375 139.699219 C 757.59375 141.351562 758.015625 143.019531 758.351562 144.710938 C 758.691406 146.402344 758.945312 148.101562 759.113281 149.820312 C 759.285156 151.535156 759.371094 153.253906 759.375 154.976562 L 759.375 476.9375 C 759.371094 478.660156 759.285156 480.378906 759.117188 482.09375 C 758.945312 483.8125 758.691406 485.511719 758.355469 487.203125 C 758.019531 488.894531 757.597656 490.5625 757.097656 492.214844 C 756.59375 493.863281 756.015625 495.484375 755.351562 497.074219 C 754.691406 498.667969 753.957031 500.222656 753.144531 501.746094 C 752.328125 503.265625 751.445312 504.742188 750.484375 506.175781 C 749.527344 507.609375 748.5 508.992188 747.40625 510.324219 C 746.3125 511.65625 745.15625 512.929688 743.9375 514.148438 C 742.71875 515.367188 741.445312 516.523438 740.113281 517.617188 C 738.78125 518.710938 737.394531 519.738281 735.964844 520.695312 C 734.53125 521.652344 733.054688 522.539062 731.53125 523.351562 C 730.011719 524.167969 728.457031 524.902344 726.863281 525.5625 C 725.269531 526.222656 723.652344 526.804688 722.003906 527.304688 C 720.351562 527.808594 718.683594 528.226562 716.992188 528.566406 C 715.304688 528.902344 713.601562 529.15625 711.886719 529.328125 C 710.167969 529.496094 708.449219 529.585938 706.726562 529.585938 Z M 103.273438 136.0625 C 102.65625 136.066406 102.039062 136.097656 101.421875 136.160156 C 100.808594 136.21875 100.195312 136.3125 99.589844 136.433594 C 98.984375 136.554688 98.382812 136.707031 97.789062 136.886719 C 97.199219 137.066406 96.617188 137.277344 96.046875 137.515625 C 95.472656 137.753906 94.914062 138.015625 94.367188 138.308594 C 93.824219 138.601562 93.292969 138.917969 92.78125 139.261719 C 92.265625 139.605469 91.769531 139.976562 91.292969 140.367188 C 90.8125 140.761719 90.355469 141.175781 89.917969 141.617188 C 89.480469 142.054688 89.066406 142.511719 88.671875 142.988281 C 88.28125 143.46875 87.910156 143.964844 87.566406 144.480469 C 87.222656 144.996094 86.90625 145.523438 86.613281 146.070312 C 86.324219 146.617188 86.058594 147.175781 85.820312 147.746094 C 85.585938 148.320312 85.375 148.898438 85.195312 149.492188 C 85.015625 150.085938 84.867188 150.683594 84.746094 151.292969 C 84.621094 151.898438 84.53125 152.507812 84.46875 153.125 C 84.410156 153.742188 84.378906 154.359375 84.378906 154.976562 L 84.378906 476.9375 C 84.378906 477.554688 84.410156 478.171875 84.472656 478.785156 C 84.535156 479.402344 84.625 480.011719 84.746094 480.621094 C 84.867188 481.226562 85.019531 481.824219 85.203125 482.417969 C 85.382812 483.007812 85.589844 483.589844 85.828125 484.160156 C 86.0625 484.734375 86.328125 485.289062 86.621094 485.835938 C 86.914062 486.382812 87.230469 486.910156 87.574219 487.425781 C 87.917969 487.941406 88.289062 488.433594 88.679688 488.914062 C 89.070312 489.390625 89.488281 489.847656 89.925781 490.285156 C 90.363281 490.722656 90.820312 491.140625 91.296875 491.53125 C 91.777344 491.921875 92.273438 492.292969 92.785156 492.636719 C 93.300781 492.980469 93.828125 493.296875 94.375 493.589844 C 94.917969 493.882812 95.476562 494.148438 96.050781 494.382812 C 96.621094 494.621094 97.203125 494.832031 97.796875 495.011719 C 98.386719 495.191406 98.984375 495.34375 99.589844 495.464844 C 100.199219 495.585938 100.808594 495.675781 101.421875 495.738281 C 102.039062 495.800781 102.65625 495.832031 103.273438 495.832031 L 706.726562 495.832031 C 707.34375 495.832031 707.960938 495.800781 708.574219 495.738281 C 709.191406 495.675781 709.800781 495.585938 710.40625 495.464844 C 711.015625 495.34375 711.613281 495.191406 712.207031 495.011719 C 712.800781 494.832031 713.378906 494.621094 713.949219 494.382812 C 714.519531 494.144531 715.078125 493.882812 715.625 493.589844 C 716.167969 493.296875 716.699219 492.980469 717.210938 492.636719 C 717.726562 492.292969 718.222656 491.921875 718.703125 491.53125 C 719.179688 491.136719 719.636719 490.722656 720.074219 490.285156 C 720.511719 489.847656 720.925781 489.390625 721.320312 488.914062 C 721.710938 488.433594 722.082031 487.941406 722.425781 487.425781 C 722.769531 486.910156 723.085938 486.382812 723.378906 485.835938 C 723.671875 485.292969 723.933594 484.734375 724.171875 484.160156 C 724.410156 483.589844 724.617188 483.007812 724.796875 482.417969 C 724.980469 481.824219 725.128906 481.226562 725.253906 480.621094 C 725.375 480.011719 725.464844 479.402344 725.527344 478.785156 C 725.589844 478.171875 725.621094 477.554688 725.621094 476.9375 L 725.621094 154.976562 C 725.621094 154.359375 725.589844 153.742188 725.527344 153.125 C 725.46875 152.507812 725.378906 151.898438 725.257812 151.292969 C 725.136719 150.683594 724.984375 150.085938 724.804688 149.492188 C 724.625 148.898438 724.414062 148.320312 724.179688 147.746094 C 723.941406 147.175781 723.675781 146.617188 723.382812 146.070312 C 723.09375 145.523438 722.773438 144.996094 722.429688 144.480469 C 722.085938 143.964844 721.71875 143.46875 721.324219 142.992188 C 720.933594 142.511719 720.519531 142.054688 720.082031 141.617188 C 719.644531 141.179688 719.1875 140.761719 718.707031 140.371094 C 718.230469 139.976562 717.734375 139.609375 717.21875 139.265625 C 716.703125 138.917969 716.175781 138.601562 715.628906 138.308594 C 715.085938 138.015625 714.527344 137.753906 713.953125 137.515625 C 713.382812 137.277344 712.800781 137.066406 712.210938 136.886719 C 711.617188 136.707031 711.019531 136.554688 710.410156 136.433594 C 709.804688 136.3125 709.191406 136.21875 708.574219 136.160156 C 707.960938 136.097656 707.34375 136.066406 706.726562 136.0625 Z M 103.273438 136.0625 " fill-opacity="1" fill-rule="nonzero"/><path fill="#ebebeb" d="M 724.683594 618.636719 L 85.324219 618.636719 C 84.773438 618.636719 84.222656 618.609375 83.671875 618.554688 C 83.121094 618.503906 82.574219 618.421875 82.03125 618.3125 C 81.492188 618.203125 80.957031 618.070312 80.425781 617.910156 C 79.898438 617.75 79.378906 617.5625 78.867188 617.351562 C 78.355469 617.140625 77.855469 616.90625 77.371094 616.644531 C 76.882812 616.382812 76.40625 616.101562 75.949219 615.792969 C 75.488281 615.484375 75.046875 615.15625 74.617188 614.804688 C 74.191406 614.457031 73.78125 614.085938 73.390625 613.695312 C 73 613.304688 72.628906 612.894531 72.28125 612.46875 C 71.929688 612.039062 71.597656 611.597656 71.292969 611.136719 C 70.984375 610.675781 70.703125 610.203125 70.441406 609.714844 C 70.179688 609.226562 69.945312 608.730469 69.734375 608.21875 C 69.523438 607.707031 69.335938 607.1875 69.175781 606.660156 C 69.015625 606.128906 68.878906 605.59375 68.773438 605.050781 C 68.664062 604.511719 68.585938 603.964844 68.53125 603.414062 C 68.476562 602.863281 68.449219 602.3125 68.449219 601.761719 C 68.449219 601.207031 68.476562 600.65625 68.53125 600.105469 C 68.585938 599.558594 68.664062 599.011719 68.773438 598.46875 C 68.878906 597.925781 69.015625 597.390625 69.175781 596.859375 C 69.335938 596.332031 69.523438 595.8125 69.734375 595.300781 C 69.945312 594.792969 70.179688 594.292969 70.441406 593.804688 C 70.703125 593.316406 70.984375 592.84375 71.292969 592.382812 C 71.597656 591.925781 71.929688 591.480469 72.28125 591.054688 C 72.628906 590.628906 73 590.21875 73.390625 589.828125 C 73.78125 589.4375 74.191406 589.066406 74.617188 588.714844 C 75.046875 588.363281 75.488281 588.035156 75.949219 587.726562 C 76.410156 587.421875 76.882812 587.136719 77.371094 586.878906 C 77.855469 586.617188 78.355469 586.378906 78.867188 586.167969 C 79.378906 585.957031 79.898438 585.773438 80.425781 585.613281 C 80.957031 585.449219 81.492188 585.316406 82.03125 585.207031 C 82.574219 585.101562 83.121094 585.019531 83.671875 584.964844 C 84.222656 584.910156 84.773438 584.886719 85.324219 584.886719 L 724.683594 584.886719 C 725.234375 584.886719 725.785156 584.910156 726.335938 584.964844 C 726.886719 585.019531 727.429688 585.101562 727.972656 585.207031 C 728.515625 585.316406 729.050781 585.449219 729.578125 585.613281 C 730.109375 585.773438 730.628906 585.957031 731.140625 586.167969 C 731.652344 586.378906 732.148438 586.617188 732.636719 586.875 C 733.125 587.136719 733.597656 587.421875 734.058594 587.726562 C 734.515625 588.035156 734.960938 588.363281 735.386719 588.714844 C 735.816406 589.066406 736.222656 589.4375 736.613281 589.828125 C 737.003906 590.21875 737.375 590.628906 737.726562 591.054688 C 738.078125 591.480469 738.40625 591.925781 738.714844 592.382812 C 739.023438 592.84375 739.304688 593.316406 739.566406 593.804688 C 739.828125 594.292969 740.0625 594.792969 740.273438 595.300781 C 740.484375 595.8125 740.671875 596.332031 740.832031 596.859375 C 740.992188 597.390625 741.125 597.925781 741.234375 598.46875 C 741.339844 599.011719 741.421875 599.558594 741.476562 600.105469 C 741.53125 600.65625 741.558594 601.207031 741.558594 601.761719 C 741.558594 602.3125 741.53125 602.863281 741.476562 603.414062 C 741.421875 603.964844 741.339844 604.511719 741.234375 605.054688 C 741.125 605.59375 740.992188 606.128906 740.832031 606.660156 C 740.671875 607.1875 740.484375 607.707031 740.273438 608.21875 C 740.0625 608.730469 739.828125 609.226562 739.566406 609.714844 C 739.304688 610.203125 739.023438 610.675781 738.714844 611.136719 C 738.40625 611.597656 738.078125 612.039062 737.726562 612.46875 C 737.378906 612.894531 737.003906 613.304688 736.613281 613.695312 C 736.222656 614.085938 735.816406 614.457031 735.386719 614.804688 C 734.960938 615.15625 734.515625 615.484375 734.058594 615.792969 C 733.597656 616.101562 733.125 616.382812 732.636719 616.644531 C 732.148438 616.90625 731.652344 617.140625 731.140625 617.351562 C 730.628906 617.5625 730.109375 617.75 729.578125 617.910156 C 729.050781 618.070312 728.515625 618.203125 727.972656 618.3125 C 727.429688 618.421875 726.886719 618.503906 726.335938 618.554688 C 725.785156 618.609375 725.234375 618.636719 724.683594 618.636719 Z M 724.683594 618.636719 " fill-opacity="1" fill-rule="nonzero"/><path fill="#ebebeb" d="M 724.683594 707.65625 L 85.324219 707.65625 C 84.773438 707.65625 84.222656 707.628906 83.671875 707.574219 C 83.121094 707.519531 82.574219 707.441406 82.03125 707.332031 C 81.492188 707.222656 80.957031 707.089844 80.425781 706.929688 C 79.898438 706.769531 79.378906 706.582031 78.867188 706.371094 C 78.355469 706.160156 77.855469 705.925781 77.371094 705.664062 C 76.882812 705.402344 76.40625 705.121094 75.949219 704.8125 C 75.488281 704.503906 75.046875 704.175781 74.617188 703.824219 C 74.191406 703.476562 73.78125 703.105469 73.390625 702.710938 C 73 702.320312 72.628906 701.914062 72.28125 701.484375 C 71.929688 701.058594 71.597656 700.613281 71.292969 700.15625 C 70.984375 699.695312 70.703125 699.222656 70.441406 698.734375 C 70.179688 698.246094 69.945312 697.75 69.734375 697.238281 C 69.523438 696.726562 69.335938 696.207031 69.175781 695.679688 C 69.015625 695.148438 68.878906 694.613281 68.773438 694.074219 C 68.664062 693.53125 68.585938 692.984375 68.53125 692.433594 C 68.476562 691.882812 68.449219 691.332031 68.449219 690.78125 C 68.449219 690.226562 68.476562 689.675781 68.53125 689.125 C 68.585938 688.574219 68.664062 688.03125 68.773438 687.488281 C 68.878906 686.945312 69.015625 686.410156 69.175781 685.882812 C 69.335938 685.351562 69.523438 684.832031 69.734375 684.320312 C 69.945312 683.8125 70.179688 683.3125 70.441406 682.824219 C 70.703125 682.335938 70.984375 681.863281 71.292969 681.402344 C 71.597656 680.945312 71.929688 680.5 72.28125 680.074219 C 72.628906 679.644531 73 679.238281 73.390625 678.847656 C 73.78125 678.457031 74.191406 678.085938 74.617188 677.734375 C 75.046875 677.382812 75.488281 677.054688 75.949219 676.746094 C 76.410156 676.441406 76.882812 676.15625 77.371094 675.894531 C 77.855469 675.636719 78.355469 675.398438 78.867188 675.1875 C 79.378906 674.976562 79.898438 674.792969 80.425781 674.628906 C 80.957031 674.46875 81.492188 674.335938 82.03125 674.226562 C 82.574219 674.121094 83.121094 674.039062 83.671875 673.984375 C 84.222656 673.929688 84.773438 673.902344 85.324219 673.902344 L 724.683594 673.902344 C 725.234375 673.902344 725.785156 673.929688 726.335938 673.984375 C 726.886719 674.039062 727.429688 674.121094 727.972656 674.226562 C 728.515625 674.335938 729.050781 674.46875 729.578125 674.628906 C 730.109375 674.792969 730.628906 674.976562 731.140625 675.1875 C 731.652344 675.398438 732.148438 675.636719 732.636719 675.894531 C 733.125 676.15625 733.597656 676.441406 734.058594 676.746094 C 734.515625 677.054688 734.960938 677.382812 735.386719 677.734375 C 735.816406 678.085938 736.222656 678.457031 736.613281 678.847656 C 737.003906 679.238281 737.375 679.644531 737.726562 680.074219 C 738.078125 680.5 738.40625 680.945312 738.714844 681.402344 C 739.023438 681.863281 739.304688 682.335938 739.566406 682.824219 C 739.828125 683.3125 740.0625 683.8125 740.273438 684.320312 C 740.484375 684.832031 740.671875 685.351562 740.832031 685.882812 C 740.992188 686.410156 741.125 686.945312 741.234375 687.488281 C 741.339844 688.03125 741.421875 688.574219 741.476562 689.125 C 741.53125 689.675781 741.558594 690.226562 741.558594 690.78125 C 741.558594 691.332031 741.53125 691.882812 741.476562 692.433594 C 741.421875 692.984375 741.339844 693.53125 741.234375 694.074219 C 741.125 694.613281 740.992188 695.148438 740.832031 695.679688 C 740.671875 696.207031 740.484375 696.726562 740.273438 697.238281 C 740.0625 697.75 739.828125 698.246094 739.566406 698.734375 C 739.304688 699.222656 739.023438 699.695312 738.714844 700.15625 C 738.40625 700.613281 738.078125 701.058594 737.726562 701.484375 C 737.378906 701.914062 737.003906 702.320312 736.613281 702.710938 C 736.222656 703.105469 735.816406 703.476562 735.386719 703.824219 C 734.960938 704.175781 734.515625 704.503906 734.058594 704.8125 C 733.597656 705.121094 733.125 705.402344 732.636719 705.664062 C 732.148438 705.925781 731.652344 706.160156 731.140625 706.371094 C 730.628906 706.582031 730.109375 706.769531 729.578125 706.929688 C 729.050781 707.089844 728.515625 707.222656 727.972656 707.332031 C 727.429688 707.441406 726.886719 707.519531 726.335938 707.574219 C 725.785156 707.628906 725.234375 707.65625 724.683594 707.65625 Z M 724.683594 707.65625 " fill-opacity="1" fill-rule="nonzero"/><path fill="#ebebeb" d="M 284.003906 443.238281 C 282.6875 443.238281 281.371094 443.203125 280.058594 443.136719 C 278.746094 443.074219 277.4375 442.972656 276.125 442.84375 C 274.820312 442.714844 273.515625 442.550781 272.214844 442.355469 C 270.914062 442.164062 269.617188 441.9375 268.328125 441.679688 C 267.039062 441.421875 265.757812 441.132812 264.480469 440.8125 C 263.207031 440.492188 261.941406 440.140625 260.683594 439.757812 C 259.421875 439.375 258.175781 438.960938 256.9375 438.515625 C 255.699219 438.074219 254.472656 437.597656 253.257812 437.09375 C 252.042969 436.589844 250.84375 436.058594 249.652344 435.496094 C 248.464844 434.933594 247.292969 434.339844 246.132812 433.722656 C 244.972656 433.101562 243.832031 432.453125 242.703125 431.773438 C 241.574219 431.097656 240.464844 430.394531 239.371094 429.664062 C 238.277344 428.933594 237.203125 428.175781 236.148438 427.390625 C 235.09375 426.609375 234.054688 425.800781 233.039062 424.964844 C 232.023438 424.132812 231.027344 423.273438 230.054688 422.390625 C 229.078125 421.503906 228.125 420.597656 227.195312 419.667969 C 226.265625 418.738281 225.359375 417.789062 224.476562 416.8125 C 223.59375 415.839844 222.734375 414.84375 221.902344 413.828125 C 221.066406 412.8125 220.257812 411.773438 219.472656 410.71875 C 218.691406 409.664062 217.933594 408.589844 217.203125 407.496094 C 216.472656 406.402344 215.769531 405.292969 215.089844 404.164062 C 214.414062 403.035156 213.765625 401.894531 213.144531 400.734375 C 212.523438 399.574219 211.933594 398.398438 211.371094 397.210938 C 210.808594 396.023438 210.273438 394.820312 209.769531 393.605469 C 209.265625 392.390625 208.792969 391.167969 208.347656 389.929688 C 207.902344 388.691406 207.488281 387.441406 207.109375 386.183594 C 206.726562 384.925781 206.375 383.660156 206.054688 382.386719 C 205.734375 381.109375 205.445312 379.828125 205.1875 378.539062 C 204.929688 377.25 204.703125 375.953125 204.507812 374.652344 C 204.3125 373.351562 204.152344 372.046875 204.023438 370.738281 C 203.890625 369.429688 203.792969 368.121094 203.726562 366.804688 C 203.660156 365.492188 203.628906 364.179688 203.625 362.863281 C 203.625 362.3125 203.652344 361.761719 203.707031 361.210938 C 203.761719 360.660156 203.84375 360.113281 203.949219 359.570312 C 204.058594 359.027344 204.191406 358.492188 204.351562 357.964844 C 204.511719 357.4375 204.699219 356.914062 204.910156 356.40625 C 205.121094 355.894531 205.355469 355.394531 205.617188 354.90625 C 205.878906 354.421875 206.160156 353.945312 206.46875 353.488281 C 206.777344 353.027344 207.105469 352.585938 207.457031 352.15625 C 207.808594 351.730469 208.179688 351.320312 208.570312 350.929688 C 208.960938 350.539062 209.367188 350.167969 209.796875 349.816406 C 210.222656 349.46875 210.667969 349.136719 211.125 348.832031 C 211.585938 348.523438 212.058594 348.238281 212.546875 347.980469 C 213.03125 347.71875 213.53125 347.484375 214.042969 347.269531 C 214.554688 347.058594 215.074219 346.875 215.601562 346.714844 C 216.132812 346.554688 216.667969 346.417969 217.207031 346.3125 C 217.75 346.203125 218.296875 346.121094 218.847656 346.070312 C 219.398438 346.015625 219.949219 345.988281 220.503906 345.988281 C 221.054688 345.988281 221.605469 346.015625 222.15625 346.070312 C 222.707031 346.121094 223.253906 346.203125 223.792969 346.3125 C 224.335938 346.417969 224.871094 346.554688 225.398438 346.714844 C 225.929688 346.875 226.449219 347.058594 226.960938 347.273438 C 227.46875 347.484375 227.96875 347.71875 228.457031 347.980469 C 228.945312 348.242188 229.417969 348.523438 229.875 348.832031 C 230.335938 349.136719 230.78125 349.46875 231.207031 349.816406 C 231.636719 350.167969 232.042969 350.539062 232.433594 350.929688 C 232.824219 351.320312 233.195312 351.730469 233.546875 352.15625 C 233.898438 352.585938 234.226562 353.027344 234.535156 353.488281 C 234.839844 353.945312 235.125 354.421875 235.386719 354.90625 C 235.644531 355.394531 235.882812 355.894531 236.09375 356.40625 C 236.304688 356.914062 236.492188 357.4375 236.652344 357.964844 C 236.8125 358.492188 236.945312 359.027344 237.054688 359.570312 C 237.160156 360.113281 237.242188 360.660156 237.296875 361.210938 C 237.351562 361.761719 237.378906 362.3125 237.378906 362.863281 C 237.378906 364.390625 237.453125 365.914062 237.601562 367.433594 C 237.753906 368.953125 237.976562 370.460938 238.273438 371.957031 C 238.570312 373.457031 238.941406 374.933594 239.386719 376.394531 C 239.828125 377.855469 240.34375 379.292969 240.925781 380.703125 C 241.511719 382.113281 242.164062 383.492188 242.882812 384.835938 C 243.601562 386.183594 244.386719 387.492188 245.234375 388.761719 C 246.082031 390.03125 246.992188 391.257812 247.960938 392.4375 C 248.929688 393.617188 249.953125 394.746094 251.03125 395.824219 C 252.113281 396.90625 253.242188 397.929688 254.421875 398.898438 C 255.601562 399.867188 256.828125 400.773438 258.09375 401.621094 C 259.363281 402.46875 260.671875 403.253906 262.019531 403.972656 C 263.367188 404.695312 264.742188 405.347656 266.152344 405.929688 C 267.566406 406.515625 269 407.027344 270.460938 407.472656 C 271.921875 407.914062 273.402344 408.285156 274.898438 408.582031 C 276.398438 408.882812 277.90625 409.105469 279.425781 409.253906 C 280.945312 409.402344 282.46875 409.480469 283.996094 409.480469 C 285.519531 409.480469 287.042969 409.402344 288.5625 409.253906 C 290.082031 409.105469 291.59375 408.882812 293.089844 408.582031 C 294.585938 408.285156 296.066406 407.914062 297.527344 407.472656 C 298.988281 407.027344 300.421875 406.515625 301.832031 405.929688 C 303.246094 405.347656 304.621094 404.695312 305.96875 403.972656 C 307.316406 403.253906 308.621094 402.46875 309.890625 401.621094 C 311.160156 400.773438 312.386719 399.867188 313.566406 398.898438 C 314.746094 397.929688 315.875 396.90625 316.957031 395.824219 C 318.035156 394.746094 319.058594 393.617188 320.027344 392.4375 C 320.996094 391.257812 321.90625 390.03125 322.753906 388.761719 C 323.601562 387.492188 324.386719 386.183594 325.105469 384.839844 C 325.824219 383.492188 326.476562 382.113281 327.0625 380.703125 C 327.644531 379.292969 328.160156 377.855469 328.605469 376.394531 C 329.046875 374.933594 329.417969 373.453125 329.714844 371.957031 C 330.011719 370.460938 330.234375 368.953125 330.386719 367.433594 C 330.535156 365.914062 330.609375 364.390625 330.609375 362.863281 C 330.609375 362.3125 330.636719 361.761719 330.691406 361.210938 C 330.746094 360.660156 330.824219 360.113281 330.933594 359.570312 C 331.042969 359.027344 331.175781 358.492188 331.335938 357.964844 C 331.496094 357.4375 331.683594 356.914062 331.894531 356.40625 C 332.105469 355.894531 332.34375 355.394531 332.601562 354.90625 C 332.863281 354.421875 333.144531 353.945312 333.453125 353.488281 C 333.761719 353.027344 334.089844 352.585938 334.441406 352.15625 C 334.792969 351.730469 335.160156 351.320312 335.550781 350.929688 C 335.941406 350.539062 336.351562 350.167969 336.78125 349.816406 C 337.207031 349.46875 337.648438 349.136719 338.109375 348.832031 C 338.570312 348.523438 339.042969 348.238281 339.53125 347.980469 C 340.019531 347.71875 340.515625 347.484375 341.027344 347.269531 C 341.539062 347.058594 342.058594 346.875 342.585938 346.714844 C 343.117188 346.554688 343.652344 346.417969 344.195312 346.3125 C 344.734375 346.203125 345.28125 346.121094 345.832031 346.070312 C 346.382812 346.015625 346.933594 345.988281 347.484375 345.988281 C 348.039062 345.988281 348.589844 346.015625 349.140625 346.070312 C 349.691406 346.121094 350.234375 346.203125 350.777344 346.3125 C 351.320312 346.417969 351.855469 346.554688 352.382812 346.714844 C 352.914062 346.875 353.433594 347.058594 353.941406 347.273438 C 354.453125 347.484375 354.953125 347.71875 355.441406 347.980469 C 355.929688 348.242188 356.402344 348.523438 356.859375 348.832031 C 357.320312 349.136719 357.765625 349.46875 358.191406 349.816406 C 358.617188 350.167969 359.027344 350.539062 359.417969 350.929688 C 359.808594 351.320312 360.179688 351.730469 360.53125 352.15625 C 360.882812 352.585938 361.210938 353.027344 361.519531 353.488281 C 361.824219 353.945312 362.109375 354.421875 362.371094 354.90625 C 362.628906 355.394531 362.867188 355.894531 363.078125 356.40625 C 363.289062 356.914062 363.472656 357.4375 363.636719 357.964844 C 363.796875 358.492188 363.929688 359.027344 364.035156 359.570312 C 364.144531 360.113281 364.226562 360.660156 364.28125 361.210938 C 364.335938 361.761719 364.363281 362.3125 364.363281 362.863281 C 364.359375 364.179688 364.328125 365.492188 364.261719 366.804688 C 364.195312 368.117188 364.097656 369.429688 363.96875 370.738281 C 363.835938 372.046875 363.675781 373.351562 363.480469 374.652344 C 363.289062 375.953125 363.0625 377.246094 362.804688 378.535156 C 362.546875 379.824219 362.257812 381.109375 361.9375 382.382812 C 361.617188 383.660156 361.265625 384.925781 360.882812 386.183594 C 360.5 387.441406 360.089844 388.691406 359.644531 389.925781 C 359.199219 391.164062 358.726562 392.390625 358.222656 393.605469 C 357.71875 394.820312 357.1875 396.023438 356.625 397.210938 C 356.0625 398.398438 355.46875 399.574219 354.847656 400.730469 C 354.230469 401.890625 353.582031 403.035156 352.90625 404.164062 C 352.226562 405.289062 351.523438 406.402344 350.792969 407.496094 C 350.0625 408.585938 349.304688 409.660156 348.523438 410.71875 C 347.738281 411.773438 346.929688 412.808594 346.097656 413.828125 C 345.261719 414.84375 344.40625 415.839844 343.523438 416.8125 C 342.640625 417.789062 341.734375 418.738281 340.804688 419.667969 C 339.871094 420.597656 338.921875 421.507812 337.945312 422.390625 C 336.972656 423.273438 335.976562 424.132812 334.960938 424.964844 C 333.945312 425.800781 332.910156 426.609375 331.851562 427.390625 C 330.796875 428.175781 329.722656 428.933594 328.628906 429.664062 C 327.535156 430.394531 326.425781 431.097656 325.296875 431.773438 C 324.171875 432.449219 323.027344 433.097656 321.867188 433.71875 C 320.710938 434.339844 319.535156 434.929688 318.347656 435.496094 C 317.160156 436.058594 315.957031 436.589844 314.742188 437.09375 C 313.527344 437.597656 312.300781 438.074219 311.066406 438.515625 C 309.828125 438.960938 308.578125 439.375 307.320312 439.757812 C 306.0625 440.140625 304.796875 440.492188 303.519531 440.8125 C 302.246094 441.132812 300.964844 441.421875 299.675781 441.679688 C 298.386719 441.9375 297.089844 442.164062 295.789062 442.355469 C 294.488281 442.550781 293.183594 442.714844 291.875 442.84375 C 290.566406 442.972656 289.253906 443.070312 287.941406 443.136719 C 286.632812 443.203125 285.316406 443.238281 284.003906 443.238281 Z M 284.003906 443.238281 " fill-opacity="1" fill-rule="nonzero"/><path fill="#ebebeb" d="M 416.574219 345.585938 C 416.023438 345.585938 415.46875 345.558594 414.921875 345.507812 C 414.371094 345.453125 413.824219 345.371094 413.28125 345.265625 C 412.742188 345.15625 412.207031 345.023438 411.675781 344.863281 C 411.148438 344.703125 410.628906 344.515625 410.117188 344.304688 C 409.605469 344.09375 409.109375 343.855469 408.621094 343.597656 C 408.132812 343.335938 407.660156 343.054688 407.199219 342.746094 C 406.738281 342.4375 406.296875 342.109375 405.871094 341.761719 C 405.441406 341.410156 405.03125 341.039062 404.640625 340.648438 C 404.25 340.257812 403.882812 339.847656 403.53125 339.421875 C 403.179688 338.992188 402.851562 338.550781 402.542969 338.089844 C 402.238281 337.628906 401.953125 337.15625 401.695312 336.671875 C 401.433594 336.183594 401.199219 335.683594 400.984375 335.171875 C 400.773438 334.664062 400.589844 334.144531 400.429688 333.613281 C 400.269531 333.085938 400.132812 332.546875 400.027344 332.007812 C 399.917969 331.464844 399.835938 330.917969 399.785156 330.367188 C 399.730469 329.816406 399.703125 329.265625 399.703125 328.714844 L 399.703125 277.878906 C 399.703125 277.324219 399.730469 276.773438 399.785156 276.222656 C 399.839844 275.671875 399.917969 275.128906 400.027344 274.585938 C 400.132812 274.042969 400.269531 273.507812 400.429688 272.980469 C 400.589844 272.449219 400.773438 271.929688 400.984375 271.417969 C 401.199219 270.910156 401.433594 270.410156 401.695312 269.921875 C 401.957031 269.433594 402.238281 268.960938 402.546875 268.5 C 402.855469 268.042969 403.183594 267.597656 403.53125 267.171875 C 403.882812 266.746094 404.253906 266.335938 404.644531 265.945312 C 405.035156 265.554688 405.445312 265.183594 405.875 264.832031 C 406.300781 264.480469 406.742188 264.152344 407.203125 263.84375 C 407.664062 263.539062 408.136719 263.253906 408.625 262.996094 C 409.113281 262.734375 409.609375 262.496094 410.121094 262.285156 C 410.632812 262.074219 411.152344 261.890625 411.679688 261.726562 C 412.210938 261.566406 412.746094 261.433594 413.285156 261.324219 C 413.828125 261.21875 414.375 261.136719 414.925781 261.082031 C 415.476562 261.027344 416.027344 261.003906 416.578125 261 C 417.132812 261.003906 417.683594 261.03125 418.234375 261.082031 C 418.785156 261.136719 419.332031 261.21875 419.871094 261.324219 C 420.414062 261.433594 420.949219 261.566406 421.480469 261.726562 C 422.007812 261.890625 422.527344 262.074219 423.035156 262.285156 C 423.546875 262.496094 424.046875 262.734375 424.535156 262.996094 C 425.023438 263.253906 425.496094 263.539062 425.953125 263.84375 C 426.414062 264.152344 426.855469 264.480469 427.285156 264.832031 C 427.710938 265.183594 428.121094 265.554688 428.511719 265.945312 C 428.902344 266.335938 429.273438 266.746094 429.625 267.171875 C 429.976562 267.597656 430.304688 268.042969 430.609375 268.5 C 430.917969 268.960938 431.203125 269.433594 431.460938 269.921875 C 431.722656 270.410156 431.957031 270.910156 432.167969 271.417969 C 432.382812 271.929688 432.566406 272.449219 432.726562 272.980469 C 432.890625 273.507812 433.023438 274.042969 433.128906 274.585938 C 433.238281 275.128906 433.320312 275.671875 433.375 276.222656 C 433.429688 276.773438 433.453125 277.324219 433.453125 277.878906 L 433.453125 328.707031 C 433.457031 329.257812 433.429688 329.8125 433.375 330.359375 C 433.320312 330.910156 433.242188 331.457031 433.132812 332 C 433.023438 332.542969 432.890625 333.078125 432.730469 333.605469 C 432.570312 334.136719 432.382812 334.65625 432.171875 335.167969 C 431.960938 335.679688 431.726562 336.175781 431.464844 336.664062 C 431.203125 337.152344 430.917969 337.625 430.613281 338.085938 C 430.304688 338.546875 429.976562 338.988281 429.625 339.417969 C 429.277344 339.84375 428.90625 340.253906 428.511719 340.644531 C 428.121094 341.035156 427.714844 341.40625 427.285156 341.757812 C 426.859375 342.109375 426.414062 342.4375 425.953125 342.742188 C 425.496094 343.050781 425.019531 343.335938 424.535156 343.59375 C 424.046875 343.855469 423.546875 344.09375 423.035156 344.304688 C 422.523438 344.515625 422.003906 344.703125 421.476562 344.863281 C 420.945312 345.023438 420.410156 345.15625 419.867188 345.261719 C 419.328125 345.371094 418.78125 345.453125 418.230469 345.503906 C 417.679688 345.558594 417.128906 345.585938 416.574219 345.585938 Z M 416.574219 345.585938 " fill-opacity="1" fill-rule="nonzero"/><path fill="#ebebeb" d="M 284.003906 360.726562 C 281.214844 360.722656 278.585938 360.066406 276.121094 358.765625 L 145.304688 289.632812 C 143.949219 288.914062 142.714844 288.03125 141.601562 286.976562 C 140.488281 285.921875 139.535156 284.738281 138.746094 283.425781 C 137.953125 282.113281 137.351562 280.71875 136.941406 279.238281 C 136.53125 277.761719 136.324219 276.257812 136.324219 274.722656 C 136.324219 273.191406 136.53125 271.683594 136.941406 270.207031 C 137.351562 268.730469 137.953125 267.335938 138.746094 266.023438 C 139.535156 264.707031 140.488281 263.523438 141.601562 262.472656 C 142.714844 261.417969 143.949219 260.53125 145.304688 259.816406 L 276.121094 190.65625 C 277.339844 190.019531 278.617188 189.535156 279.953125 189.207031 C 281.285156 188.878906 282.640625 188.714844 284.019531 188.714844 C 285.394531 188.714844 286.75 188.878906 288.085938 189.207031 C 289.421875 189.535156 290.695312 190.019531 291.914062 190.65625 L 422.714844 259.816406 C 424.070312 260.53125 425.304688 261.417969 426.417969 262.472656 C 427.535156 263.523438 428.484375 264.707031 429.277344 266.019531 C 430.066406 267.335938 430.667969 268.730469 431.078125 270.207031 C 431.488281 271.683594 431.695312 273.191406 431.695312 274.722656 C 431.695312 276.257812 431.488281 277.761719 431.078125 279.238281 C 430.667969 280.71875 430.066406 282.113281 429.277344 283.425781 C 428.484375 284.738281 427.535156 285.921875 426.417969 286.976562 C 425.304688 288.03125 424.070312 288.914062 422.714844 289.632812 L 291.914062 358.765625 C 289.441406 360.074219 286.804688 360.726562 284.003906 360.726562 Z M 189.304688 274.710938 L 284.003906 324.761719 L 378.683594 274.710938 L 283.996094 224.660156 Z M 189.304688 274.710938 " fill-opacity="1" fill-rule="nonzero"/><path fill="#ebebeb" d="M 656.8125 233.230469 L 501.382812 233.230469 C 500.828125 233.230469 500.277344 233.203125 499.726562 233.148438 C 499.179688 233.097656 498.632812 233.015625 498.089844 232.90625 C 497.546875 232.800781 497.011719 232.664062 496.484375 232.503906 C 495.953125 232.34375 495.433594 232.15625 494.921875 231.945312 C 494.410156 231.734375 493.914062 231.5 493.425781 231.238281 C 492.9375 230.976562 492.464844 230.695312 492.003906 230.386719 C 491.546875 230.082031 491.101562 229.75 490.675781 229.402344 C 490.25 229.050781 489.839844 228.679688 489.449219 228.289062 C 489.058594 227.898438 488.6875 227.488281 488.335938 227.0625 C 487.984375 226.632812 487.65625 226.191406 487.347656 225.730469 C 487.042969 225.269531 486.757812 224.796875 486.5 224.308594 C 486.238281 223.824219 486 223.324219 485.789062 222.8125 C 485.578125 222.300781 485.390625 221.78125 485.230469 221.253906 C 485.070312 220.722656 484.9375 220.1875 484.828125 219.648438 C 484.722656 219.105469 484.640625 218.558594 484.585938 218.007812 C 484.53125 217.457031 484.503906 216.90625 484.503906 216.355469 C 484.503906 215.800781 484.53125 215.25 484.585938 214.703125 C 484.640625 214.152344 484.722656 213.605469 484.828125 213.0625 C 484.9375 212.519531 485.070312 211.984375 485.230469 211.457031 C 485.390625 210.925781 485.578125 210.40625 485.789062 209.894531 C 486 209.386719 486.238281 208.886719 486.496094 208.398438 C 486.757812 207.910156 487.042969 207.4375 487.347656 206.980469 C 487.65625 206.519531 487.984375 206.074219 488.335938 205.648438 C 488.6875 205.222656 489.058594 204.8125 489.449219 204.421875 C 489.839844 204.03125 490.25 203.660156 490.675781 203.308594 C 491.101562 202.957031 491.546875 202.628906 492.003906 202.324219 C 492.464844 202.015625 492.9375 201.730469 493.425781 201.472656 C 493.914062 201.210938 494.410156 200.976562 494.921875 200.761719 C 495.433594 200.550781 495.953125 200.367188 496.484375 200.207031 C 497.011719 200.046875 497.546875 199.910156 498.089844 199.804688 C 498.632812 199.695312 499.179688 199.613281 499.726562 199.5625 C 500.277344 199.507812 500.828125 199.480469 501.382812 199.480469 L 656.8125 199.480469 C 657.363281 199.480469 657.914062 199.507812 658.464844 199.5625 C 659.015625 199.613281 659.5625 199.695312 660.105469 199.800781 C 660.644531 199.910156 661.183594 200.046875 661.710938 200.207031 C 662.238281 200.367188 662.761719 200.550781 663.269531 200.761719 C 663.78125 200.976562 664.28125 201.210938 664.769531 201.472656 C 665.253906 201.730469 665.726562 202.015625 666.1875 202.324219 C 666.648438 202.628906 667.089844 202.957031 667.519531 203.308594 C 667.945312 203.660156 668.355469 204.03125 668.746094 204.421875 C 669.136719 204.8125 669.507812 205.222656 669.859375 205.648438 C 670.210938 206.074219 670.539062 206.519531 670.84375 206.980469 C 671.152344 207.4375 671.4375 207.910156 671.699219 208.398438 C 671.957031 208.886719 672.191406 209.386719 672.40625 209.894531 C 672.617188 210.40625 672.800781 210.925781 672.964844 211.457031 C 673.125 211.984375 673.257812 212.519531 673.363281 213.0625 C 673.472656 213.605469 673.554688 214.152344 673.609375 214.703125 C 673.660156 215.25 673.6875 215.800781 673.6875 216.355469 C 673.6875 216.90625 673.660156 217.457031 673.609375 218.007812 C 673.554688 218.558594 673.472656 219.105469 673.363281 219.648438 C 673.257812 220.1875 673.125 220.722656 672.960938 221.253906 C 672.800781 221.78125 672.617188 222.300781 672.40625 222.8125 C 672.191406 223.324219 671.957031 223.824219 671.699219 224.308594 C 671.4375 224.796875 671.152344 225.269531 670.84375 225.730469 C 670.539062 226.191406 670.210938 226.632812 669.859375 227.0625 C 669.507812 227.488281 669.136719 227.898438 668.746094 228.289062 C 668.355469 228.679688 667.945312 229.050781 667.519531 229.402344 C 667.089844 229.75 666.648438 230.082031 666.1875 230.386719 C 665.726562 230.695312 665.253906 230.976562 664.769531 231.238281 C 664.28125 231.5 663.78125 231.734375 663.269531 231.945312 C 662.761719 232.15625 662.238281 232.34375 661.710938 232.503906 C 661.183594 232.664062 660.644531 232.800781 660.105469 232.90625 C 659.5625 233.015625 659.015625 233.097656 658.464844 233.148438 C 657.914062 233.203125 657.363281 233.230469 656.8125 233.230469 Z M 656.8125 233.230469 " fill-opacity="1" fill-rule="nonzero"/><path fill="#ebebeb" d="M 656.8125 315.511719 L 501.382812 315.511719 C 500.828125 315.511719 500.277344 315.484375 499.726562 315.429688 C 499.179688 315.375 498.632812 315.292969 498.089844 315.1875 C 497.546875 315.078125 497.011719 314.945312 496.484375 314.785156 C 495.953125 314.625 495.433594 314.4375 494.921875 314.226562 C 494.410156 314.015625 493.914062 313.777344 493.425781 313.519531 C 492.9375 313.257812 492.464844 312.972656 492.003906 312.667969 C 491.546875 312.359375 491.101562 312.03125 490.675781 311.679688 C 490.25 311.328125 489.839844 310.960938 489.449219 310.566406 C 489.058594 310.175781 488.6875 309.769531 488.335938 309.339844 C 487.984375 308.914062 487.65625 308.472656 487.347656 308.011719 C 487.042969 307.550781 486.757812 307.078125 486.5 306.589844 C 486.238281 306.101562 486 305.605469 485.789062 305.09375 C 485.578125 304.582031 485.390625 304.0625 485.230469 303.535156 C 485.070312 303.003906 484.9375 302.46875 484.828125 301.925781 C 484.722656 301.386719 484.640625 300.839844 484.585938 300.289062 C 484.53125 299.738281 484.503906 299.1875 484.503906 298.636719 C 484.503906 298.082031 484.53125 297.53125 484.585938 296.980469 C 484.640625 296.429688 484.722656 295.886719 484.828125 295.34375 C 484.9375 294.800781 485.070312 294.265625 485.230469 293.738281 C 485.390625 293.207031 485.578125 292.6875 485.789062 292.175781 C 486 291.667969 486.238281 291.167969 486.496094 290.679688 C 486.757812 290.191406 487.042969 289.71875 487.347656 289.257812 C 487.65625 288.800781 487.984375 288.355469 488.335938 287.929688 C 488.6875 287.5 489.058594 287.09375 489.449219 286.703125 C 489.839844 286.3125 490.25 285.941406 490.675781 285.589844 C 491.101562 285.238281 491.546875 284.910156 492.003906 284.601562 C 492.464844 284.296875 492.9375 284.011719 493.425781 283.75 C 493.914062 283.492188 494.410156 283.253906 494.921875 283.042969 C 495.433594 282.832031 495.953125 282.644531 496.484375 282.484375 C 497.011719 282.324219 497.546875 282.191406 498.089844 282.082031 C 498.632812 281.976562 499.179688 281.894531 499.726562 281.839844 C 500.277344 281.785156 500.828125 281.757812 501.382812 281.757812 L 656.8125 281.757812 C 657.363281 281.757812 657.914062 281.785156 658.464844 281.839844 C 659.015625 281.894531 659.5625 281.976562 660.105469 282.082031 C 660.644531 282.191406 661.183594 282.324219 661.710938 282.484375 C 662.238281 282.644531 662.761719 282.832031 663.269531 283.042969 C 663.78125 283.253906 664.28125 283.492188 664.769531 283.75 C 665.253906 284.011719 665.726562 284.296875 666.1875 284.601562 C 666.648438 284.910156 667.089844 285.238281 667.519531 285.589844 C 667.945312 285.941406 668.355469 286.3125 668.746094 286.703125 C 669.136719 287.09375 669.507812 287.5 669.859375 287.929688 C 670.210938 288.355469 670.539062 288.800781 670.84375 289.257812 C 671.152344 289.71875 671.4375 290.191406 671.699219 290.679688 C 671.957031 291.167969 672.191406 291.667969 672.40625 292.175781 C 672.617188 292.6875 672.800781 293.207031 672.964844 293.738281 C 673.125 294.265625 673.257812 294.800781 673.363281 295.34375 C 673.472656 295.886719 673.554688 296.429688 673.609375 296.980469 C 673.660156 297.53125 673.6875 298.082031 673.6875 298.636719 C 673.6875 299.1875 673.660156 299.738281 673.609375 300.289062 C 673.554688 300.839844 673.472656 301.386719 673.363281 301.925781 C 673.257812 302.46875 673.125 303.003906 672.960938 303.535156 C 672.800781 304.0625 672.617188 304.582031 672.40625 305.09375 C 672.191406 305.605469 671.957031 306.101562 671.699219 306.589844 C 671.4375 307.078125 671.152344 307.550781 670.84375 308.011719 C 670.539062 308.472656 670.210938 308.914062 669.859375 309.339844 C 669.507812 309.769531 669.136719 310.175781 668.746094 310.566406 C 668.355469 310.960938 667.945312 311.328125 667.519531 311.679688 C 667.089844 312.03125 666.648438 312.359375 666.1875 312.667969 C 665.726562 312.972656 665.253906 313.257812 664.769531 313.519531 C 664.28125 313.777344 663.78125 314.015625 663.269531 314.226562 C 662.761719 314.4375 662.238281 314.625 661.710938 314.785156 C 661.183594 314.945312 660.644531 315.078125 660.105469 315.1875 C 659.5625 315.292969 659.015625 315.375 658.464844 315.429688 C 657.914062 315.484375 657.363281 315.511719 656.8125 315.511719 Z M 656.8125 315.511719 " fill-opacity="1" fill-rule="nonzero"/><path fill="#ebebeb" d="M 525.910156 432.441406 C 523.671875 432.445312 521.515625 432.019531 519.449219 431.160156 C 517.382812 430.304688 515.558594 429.085938 513.976562 427.5 L 489.441406 402.96875 C 489.054688 402.574219 488.6875 402.167969 488.34375 401.738281 C 487.996094 401.3125 487.671875 400.867188 487.367188 400.40625 C 487.0625 399.949219 486.785156 399.476562 486.527344 398.988281 C 486.269531 398.503906 486.039062 398.003906 485.828125 397.496094 C 485.621094 396.984375 485.4375 396.46875 485.28125 395.941406 C 485.125 395.414062 484.992188 394.878906 484.886719 394.339844 C 484.78125 393.796875 484.703125 393.253906 484.652344 392.707031 C 484.597656 392.15625 484.574219 391.609375 484.574219 391.058594 C 484.578125 390.507812 484.605469 389.957031 484.664062 389.410156 C 484.71875 388.863281 484.800781 388.320312 484.90625 387.78125 C 485.015625 387.242188 485.152344 386.707031 485.3125 386.183594 C 485.472656 385.65625 485.660156 385.136719 485.871094 384.628906 C 486.082031 384.121094 486.320312 383.625 486.578125 383.140625 C 486.839844 382.65625 487.121094 382.183594 487.425781 381.726562 C 487.734375 381.269531 488.0625 380.828125 488.410156 380.402344 C 488.757812 379.976562 489.128906 379.570312 489.519531 379.179688 C 489.90625 378.792969 490.3125 378.421875 490.738281 378.074219 C 491.164062 377.722656 491.605469 377.394531 492.0625 377.089844 C 492.519531 376.785156 492.992188 376.5 493.476562 376.242188 C 493.960938 375.980469 494.460938 375.746094 494.96875 375.535156 C 495.476562 375.324219 495.992188 375.136719 496.519531 374.976562 C 497.046875 374.8125 497.578125 374.679688 498.117188 374.570312 C 498.65625 374.460938 499.199219 374.378906 499.75 374.324219 C 500.296875 374.269531 500.84375 374.242188 501.394531 374.238281 C 501.945312 374.238281 502.496094 374.261719 503.042969 374.3125 C 503.589844 374.367188 504.136719 374.445312 504.675781 374.550781 C 505.214844 374.65625 505.75 374.785156 506.277344 374.945312 C 506.804688 375.101562 507.324219 375.285156 507.832031 375.492188 C 508.34375 375.699219 508.839844 375.933594 509.328125 376.191406 C 509.816406 376.445312 510.289062 376.726562 510.746094 377.03125 C 511.207031 377.332031 511.648438 377.660156 512.078125 378.003906 C 512.503906 378.351562 512.914062 378.71875 513.304688 379.105469 L 525.910156 391.707031 L 563.085938 354.511719 C 563.476562 354.121094 563.886719 353.75 564.3125 353.402344 C 564.742188 353.050781 565.183594 352.722656 565.644531 352.414062 C 566.101562 352.105469 566.574219 351.824219 567.0625 351.5625 C 567.550781 351.300781 568.050781 351.066406 568.558594 350.855469 C 569.070312 350.644531 569.589844 350.457031 570.117188 350.296875 C 570.648438 350.136719 571.183594 350 571.726562 349.894531 C 572.265625 349.785156 572.8125 349.703125 573.363281 349.652344 C 573.914062 349.597656 574.464844 349.570312 575.019531 349.570312 C 575.570312 349.570312 576.121094 349.597656 576.671875 349.652344 C 577.222656 349.703125 577.765625 349.785156 578.308594 349.894531 C 578.851562 350 579.386719 350.136719 579.917969 350.296875 C 580.445312 350.457031 580.964844 350.644531 581.476562 350.855469 C 581.988281 351.066406 582.484375 351.300781 582.972656 351.5625 C 583.460938 351.824219 583.933594 352.105469 584.390625 352.414062 C 584.851562 352.71875 585.296875 353.050781 585.722656 353.398438 C 586.152344 353.75 586.558594 354.121094 586.949219 354.511719 C 587.339844 354.902344 587.710938 355.3125 588.0625 355.738281 C 588.410156 356.167969 588.738281 356.609375 589.046875 357.070312 C 589.355469 357.527344 589.636719 358 589.898438 358.488281 C 590.160156 358.976562 590.394531 359.476562 590.609375 359.984375 C 590.820312 360.496094 591.003906 361.015625 591.164062 361.546875 C 591.324219 362.074219 591.460938 362.609375 591.570312 363.152344 C 591.675781 363.691406 591.757812 364.238281 591.8125 364.789062 C 591.867188 365.339844 591.890625 365.890625 591.894531 366.445312 C 591.890625 366.996094 591.867188 367.546875 591.8125 368.097656 C 591.757812 368.648438 591.675781 369.191406 591.570312 369.734375 C 591.460938 370.277344 591.324219 370.8125 591.164062 371.339844 C 591.003906 371.871094 590.820312 372.390625 590.609375 372.902344 C 590.394531 373.410156 590.160156 373.910156 589.898438 374.398438 C 589.636719 374.886719 589.355469 375.359375 589.046875 375.820312 C 588.738281 376.277344 588.410156 376.71875 588.0625 377.148438 C 587.710938 377.574219 587.339844 377.984375 586.949219 378.375 L 537.847656 427.503906 C 536.265625 429.089844 534.441406 430.308594 532.375 431.167969 C 530.304688 432.023438 528.148438 432.449219 525.910156 432.441406 Z M 525.910156 432.441406 " fill-opacity="1" fill-rule="nonzero"/></svg>