<?xml version="1.0" encoding="utf-8"?>
<!-- Generator: Adobe Illustrator 23.0.1, SVG Export Plug-In . SVG Version: 6.00 Build 0)  -->
<svg version="1.1" id="Layer_1" xmlns="http://www.w3.org/2000/svg" xmlns:xlink="http://www.w3.org/1999/xlink" x="0px" y="0px"
	 viewBox="0 0 469.9 162.9" style="enable-background:new 0 0 469.9 162.9;" xml:space="preserve">
<style type="text/css">
	.st0{fill:#009ACD;}
</style>
<path class="st0" d="M114.8,116.6h-1.7c-7.2,0-12.2-1.4-14.9-6.4c-2.4,1.5-6.2,3.2-11.4,4.8c-8.5,2.5-19.3,4.5-28.4,4.5
	c-10,0-18.7-1.5-25.1-5.6c-6.5-4.2-10.8-10.9-10.8-19.8c0-5.9,1.2-11.8,4.3-17.7l2.9,1.2c-1.4,4.2-2.1,7.9-2.1,11.1
	c0,6.8,3.9,12.7,9.7,16.2c6,3.6,14.1,4.7,23.3,4.7c8.6,0,16.9-1.3,25-3.2c3.4-0.8,6.7-1.9,9.7-3.2l3.2-10.3l4.7-3.7l0.4,0.5
	c-0.8,2.3-1.7,5.9-1.7,8.2c0,2.9,0.6,5.1,2.5,6.5c2.4,1.9,5.2,2.8,9.1,2.8h1.3V116.6z M60.9,132.7c3,2.2,5.9,4.8,8.8,7.8
	c-1.6,2.6-3.6,5.1-6.1,7.2c-2.9-2.7-5.7-5.1-8.6-7.5C57,137.5,59,134.9,60.9,132.7z"/>
<path class="st0" d="M116.1,107.3c6.2,0,11.2-0.2,14.4-1.4c2.6-1,4.2-2,4.2-3.2c0-3.4-3.5-10.6-7.3-18.1c1.8-3.1,3.6-5.9,5.5-8.3
	h0.4c3.4,5.9,7.3,15.1,7.3,22.3c0,5.5-2.2,9.7-5.1,13.6c-3.3,3.3-8.5,4.4-19.7,4.4h-0.9c-4,0-5.1-2.9-5.1-4.9c0-1.8,1.2-4.5,5.1-4.5
	H116.1z M123.3,145.9c-3-2.9-5.6-5.2-8.6-7.6c1.9-2.6,4-5.1,5.8-7c3,2.3,5.5,4.8,8.3,7.8C126.8,142,125.3,144,123.3,145.9z
	 M137.4,144.9c-3-2.9-5.6-5.2-8.6-7.6c1.9-2.6,4-5.1,5.8-7c3,2.3,5.5,4.8,8.3,7.8C140.9,141.1,139.4,143,137.4,144.9z"/>
<path class="st0" d="M177.8,108.9c-8.6,0-16-4-16-13.8c0-4.8,1.8-8.9,4.7-12.6c3.4-3.7,7-6.1,10.5-6.1c4.2,0,8.2,3,11.1,8.3
	c2.8,5.1,4.7,12,4.7,20.1c0,6.8-1.7,13.3-5.6,19.3c-6.5,9.9-12.7,13.9-18.8,13.9c-6.7,0-13.7-2.2-21-7.2l1.1-2.3
	c3.6,1.8,7.1,2.5,10.7,2.5c7.4,0,14.8-3.7,21.5-11.2c3.3-3.6,6.4-7.9,6.9-12.2C184.4,108.5,181.1,108.9,177.8,108.9z M174.6,85.7
	c-3.4,0-8.2,3.8-8.2,6.5c0,4.5,6.4,7.8,12.5,7.8c2.8,0,5.6-0.3,8.3-1C185.2,91.7,180.9,85.7,174.6,85.7z"/>
<path class="st0" d="M281.5,44.3c0.6,18.1,1,34,1,51.5c0,3.4,1.5,7.7,3.7,9.4c1.6,1.2,4,2,7.2,2.1h0.8v9.4h-1.4
	c-5.3,0-9.2-1.7-11.5-5.5H281c-0.5,3.7-1.2,7.5-2.6,10.9c-2.3,3.7-5.2,6.2-8.4,8.3c-4.7,3.1-10,4.5-15.2,4.5
	c-6.4,0-11.6-2.2-15.2-6.3c-3.4-3.9-5.2-9.4-5.2-16.6c0-6.2,2-12.3,4.9-18.5l2.6,1c-1.8,4.2-3.1,8.5-3.1,12.7
	c0,4.3,1.2,8.1,3.7,11.4c3.1,4.1,7.5,5.9,12.7,5.9c4.9,0,9-1.4,12.7-3.4c3.6-2,6.5-4.2,8-7c0.1-0.8,0.5-1.5,0.5-4.8
	c0-11.4-0.6-30.4-2.2-59c2.2-2.4,4.4-4.6,6.7-6.4L281.5,44.3z"/>
<path class="st0" d="M295.7,107.3c5.6,0,11.5-2.3,12.6-6.4l2.1-7.9l5.1-3.7l0.4,0.5c-1,3.7-1.6,6.9-1.6,8.5c0,2.6,0.7,4.7,2.4,6.1
	c2.3,1.9,5.2,2.9,9.1,2.9h1.3v9.4h-1.7c-7.2,0-12.6-2-15.1-7.5h-0.3c-2.5,4.9-8.3,7.5-14.6,7.5h-1.4c-4,0-5.1-2.9-5.1-4.9
	c0-1.8,1.2-4.5,5.1-4.5H295.7z M304,145.9c-3-2.9-5.6-5.2-8.6-7.6c1.9-2.6,4-5.1,5.8-7c3,2.3,5.5,4.8,8.3,7.8
	C307.5,142,306.1,144,304,145.9z M318.2,144.9c-3-2.9-5.6-5.2-8.6-7.6c1.9-2.6,4-5.1,5.8-7c3,2.3,5.5,4.8,8.3,7.8
	C321.7,141.1,320.2,143,318.2,144.9z"/>
<path class="st0" d="M328.5,107.3c3.6,0,8.5-0.4,13-2.1c-1.2-3.1-1.6-6.6-1.6-10c0-4.5,1.4-8.9,4.6-13.3c2.1-2.8,4.3-5.2,7.2-6.8
	c0.2-2.3,0.7-4.8,1.3-7.3h0.6c7,6.8,17.3,13.1,25.8,19.6c6.4,4.8,9.1,9.2,9.1,15.7c0,7.3-4.5,13.7-14.6,13.7c-6.1,0-15.4-1.9-25-5
	c-8.1,3.4-14.4,5-20.1,5h-1.7c-4,0-5.1-2.9-5.1-4.9c0-1.8,1.2-4.5,5.1-4.5H328.5z M363.2,94.8c0-6.2-4.4-11.6-7.5-11.6
	c-5.5,0-12.1,7.8-12.1,11.6c0,2.3,2.7,5.8,8.1,8.5C355.2,102,363.2,98.8,363.2,94.8z M376.1,108.4c4.1,0,7.8-1.4,7.8-3.3
	c0-4.8-6.5-10-15.7-15.8c-0.6,5.9-2.4,11.4-5.6,17.1C366.4,107.7,370.7,108.4,376.1,108.4z"/>
<path class="st0" d="M417,31.2c-0.9,1.8-1.8,3.5-2.9,5c-7.3,1.2-13.7,3.1-19,5.5l-0.1-0.2l1.8-3.1c0.7-0.8,2.1-2,3.4-2.4v-0.2
	c-3.4-1-5.7-3.2-5.7-6.4c0-2,1.4-4.5,3.4-6.4c2.4-2.3,5.9-4.2,8.9-4.2c2.9,0,4.6,1.7,4.6,3.6s-1.2,3.4-2.3,4.8h-0.1
	c-0.8-1.6-1.5-2.6-2.3-2.9c-0.5-0.1-1.4-0.2-2.3-0.2c-2.6,0-5.1,1.5-5.1,2.6c0,3.5,6.2,4.7,10.5,4.7c2.5,0,5-0.1,7.5-0.3V31.2z
	 M421.1,116.6h-0.8c-5.8,0-9.5-1.2-12.5-4.2c-4.5-4.5-4.5-9.7-4.5-20.5c0-13.9-0.8-28.5-1.9-44c2.5-2.7,4.8-5.1,6.9-6.8l0.5,0.3
	c1.2,16,1.2,35,1.2,53v4.2c0,4.7,2.6,6.8,5.5,7.8c1.8,0.7,3.7,0.8,4.7,0.8h1V116.6z"/>
<path class="st0" d="M422.4,107.3c6.2,0,11.2-0.2,14.4-1.4c2.6-1,4.2-2,4.2-3.2c0-3.4-3.5-10.6-7.3-18.1c1.8-3.1,3.6-5.9,5.5-8.3
	h0.4c3.4,5.9,7.3,15.1,7.3,22.3c0,5.5-2.2,9.7-5.1,13.6c-3.3,3.3-8.5,4.4-19.7,4.4h-0.9c-4,0-5.1-2.9-5.1-4.9c0-1.8,1.2-4.5,5.1-4.5
	H422.4z M427.9,70c-3-2.9-5.6-5.2-8.6-7.6c1.9-2.6,4-5.1,5.8-7c3,2.3,5.5,4.8,8.3,7.8C431.4,66.2,429.9,68.1,427.9,70z M442,69
	c-3-2.9-5.6-5.2-8.6-7.6c1.9-2.6,4-5.1,5.8-7c3,2.3,5.5,4.8,8.3,7.8C445.5,65.2,444.1,67.1,442,69z"/>
</svg>
