<svg xmlns="http://www.w3.org/2000/svg" viewBox="0 0 1000 1000"><defs><style>.cls-1{font-size:36px;fill:#a7a9ac;font-family:GESSTwoMedium-Medium, GE SS Two;}.cls-2{fill:#d1d3d4;}.cls-3{fill:#009acd;}</style></defs><title>Logo_Edit_SVG_File</title><g id="Texts"><text class="cls-1" transform="translate(287.32 785.21)">ةصاخلا ةيبرتلا زكارم ةرادل</text></g><g id="Paths"><path id="_2" data-name="2" class="cls-2" d="M631.25,421.35a139.51,139.51,0,0,1,5.62-46.82,125.59,125.59,0,0,1,21.93-42.66c10.12-12.59,22.32-24.22,36.89-32,6.88-4.63,14.74-7.24,22.29-10.5,7.69-2.85,15.75-4.53,23.64-6.62h0a5.63,5.63,0,0,1,7,3.77,5.43,5.43,0,0,1,.21,1.24V288c.69,14.51-1.61,28-5.51,41.41a133.52,133.52,0,0,1-17.77,37.36A119,119,0,0,1,697,396.51c-5.29,4.42-11.42,7.63-17.3,11.11s-12.46,5.68-18.62,8.55a.74.74,0,0,1-1-.34.72.72,0,0,1,.3-.94l.1-.06c5.91-3.27,12.13-6,17.72-9.67s11.22-7.31,16-11.95A112.86,112.86,0,0,0,719.4,363a124.81,124.81,0,0,0,14.15-36.1A157.5,157.5,0,0,0,737,296.28c-5,1.44-9.93,2.83-14.74,4.57l-10.53,4.31a59.93,59.93,0,0,0-10.2,4.92,120,120,0,0,0-35.6,27.5,126.76,126.76,0,0,0-23.56,38.76c-5.35,14.29-9,29.52-9.66,44.94v.06a.74.74,0,0,1-1.47,0ZM544.81,286.8a129.76,129.76,0,0,0,15,38.18c7,11.75,15.76,22.45,26.63,30.85a.75.75,0,0,0,1-.08.71.71,0,0,0,0-1l-.05,0a105.67,105.67,0,0,1-23.45-31.85,123.43,123.43,0,0,1-11.39-37.32c-.47-6.48-1.4-12.91-.95-19.4.15-3.24,0-6.46.4-9.68l1.24-9.63a63.51,63.51,0,0,1,1.8-9.53l2.19-9.45c1-3.42,2.15-6.81,3.3-10.19a128.31,128.31,0,0,1,10.64,7.88,134.63,134.63,0,0,1,15.76,15.65c9.51,11.34,17.46,24.2,22.37,38.29,1.52,3.42,2.2,7.11,3.35,10.67l1.57,5.4.94,5.54c.58,3.7,1.33,7.4,1.78,11.14l.56,11.31c.08,1.89.23,3.78.24,5.68l-.37,5.67-.74,11.39c-.94,7.55-2.53,15-3.78,22.61V369a.72.72,0,0,0,.56.82.74.74,0,0,0,.89-.54c1.82-7.48,4-14.93,5.54-22.52l1.63-11.53.82-5.78c.13-1.94.13-3.89.2-5.84l.31-11.72c-.17-3.9-.65-7.8-1-11.72l-.56-5.88L620,288.44c-.92-3.83-1.37-7.82-2.7-11.56-4.31-15.31-12-29.66-21.54-42.57a132.52,132.52,0,0,0-35.83-33.26l-.1-.07a6.64,6.64,0,0,0-9.92,4c-1.65,6.73-3.49,13.39-4.92,20.13l-1.55,10.26a70.31,70.31,0,0,0-1.11,10.29l-.5,10.34c-.14,3.44.27,6.91.38,10.35C542.25,273.22,543.75,280,544.81,286.8ZM823.13,734.43a478.46,478.46,0,0,0-53.08-17.6c-4-1.1-8-2.15-12.07-3.14-24.77-6.21-49.91-11-75.11-15.27-13.07-2.09-26.2-3.89-39.33-5.52l-15.12-1.74c-7.28-.76-14.62-1.45-21.9-2.09-10.77-1-21.53-1.86-32.3-2.56-11.95-.81-23.9-1.45-35.84-2l-36.34-1v0l-34.55,1c-11.36.58-22.72,1.22-34.07,2-10.23.7-20.47,1.57-30.7,2.56-6.92.64-13.9,1.34-20.82,2.09l-14.38,1.74c-12.48,1.63-25,3.43-37.39,5.52-24,4.24-47.86,9.06-71.4,15.27-3.85,1-7.63,2-11.48,3.14a439.27,439.27,0,0,0-50.46,17.6,2.9,2.9,0,0,0,2.13,5.4l.24-.06a491.24,491.24,0,0,1,56.2-15.45c3.14-.7,6.33-1.39,9.52-2,1.42-.35,2.9-.7,4.32-1,9.64-2.09,19.46-3.77,29.11-5.63,11.24-2,22.54-3.54,33.72-5.29,6.39-.93,12.84-1.8,19.23-2.61,5.74-.7,11.48-1.39,17.27-2,12.25-1.39,24.49-2.56,36.8-3.6,9.23-.76,18.46-1.45,27.69-2,11.71-.7,23.43-1.34,35.14-1.8l33.9-1.38,35.66,1.38c12.32.46,24.64,1.1,37,1.8,9.71.58,19.42,1.28,29.12,2,12.94,1,25.82,2.21,38.71,3.6,6.1.64,12.13,1.34,18.17,2,6.72.81,13.5,1.68,20.22,2.61,11.76,1.74,23.65,3.31,35.47,5.29,10.14,1.86,20.47,3.54,30.62,5.63,1.49.29,3,.64,4.54,1,3.36.64,6.72,1.34,10,2a538,538,0,0,1,59.12,15.45l.25.06a3.11,3.11,0,0,0,3.92-1.74A2.84,2.84,0,0,0,823.13,734.43Z"/><g id="_1B" data-name="1B"><path class="cls-3" d="M284.65,714.5c2.13-.29,3.2-.45,5.33-.8,0-2,0-3,0-4.94-2.13.35-3.2.51-5.33.8C284.65,711.54,284.65,712.52,284.65,714.5Zm25-4.57,5.33-1.06c0-2,0-3,0-4.94L309.65,705C309.65,707,309.65,708,309.65,709.93Zm8.08-1.59c2.15-.41,3.22-.6,5.37-1,0-2,0-3,0-4.94-2.15.37-3.22.56-5.37,1C317.73,705.37,317.73,706.36,317.73,708.34Zm-.26-17c0,2.81-1,4.4-3,4.8l-3,.6-.82.16-6.18,1.25a14.15,14.15,0,0,0,.69-4.48c0-3.75,0-5.62,0-9.36-2.41.49-3.61.73-6,1.2,0,3.83,0,5.75,0,9.58,0,2.75-1,4.33-3,4.7-5.48,1-8.22,1.5-13.7,2.16-2.78.34-4.78.14-6-.47-1.59-.8-2.4-2.49-2.4-5,0-3,0-4.46,0-7.43-2.37.13-3.56.17-5.93.17v7.43c0,8,4.74,12.25,14.22,11.11,11.36-1.37,17-2.78,28.39-5.07l.82-.16,4.29-.85a9.08,9.08,0,0,0,5.88-3.71,10.08,10.08,0,0,0,1.89-6c0-4.47,0-6.7,0-11.17-2.41.41-3.61.63-6,1.08C317.47,685.6,317.47,687.5,317.47,691.29ZM346,684.36a9.21,9.21,0,0,0-2-3.1,8.17,8.17,0,0,0-3-2,8.69,8.69,0,0,0-3.82-.48,10.4,10.4,0,0,0-7,3.48,10.63,10.63,0,0,0-2,3.39,11.87,11.87,0,0,0-.71,4.12,9.77,9.77,0,0,0,.73,3.86,7.82,7.82,0,0,0,5.09,4.57,10,10,0,0,0,3.84.36,5,5,0,0,0,4.25-2.27A3.33,3.33,0,0,1,341,698,4.81,4.81,0,0,1,340,699.3a5.93,5.93,0,0,1-3.29,1.39l-.39,0c0,1.92,0,2.89,0,4.81l.6-.05c6.56-.58,9.83-3.11,9.83-8.4v-8.76A10.68,10.68,0,0,0,346,684.36Zm-6.21,7.32a3.34,3.34,0,0,1-2.53,1.35,3,3,0,0,1-2.77-1,4.65,4.65,0,0,1-1-3,5.3,5.3,0,0,1,1-3.24,3.43,3.43,0,0,1,2.56-1.45,3,3,0,0,1,2.64,1,4.7,4.7,0,0,1,1,3.16A5.23,5.23,0,0,1,339.8,691.68Z"/></g><g id="_1A" data-name="1A"><path class="cls-3" d="M433.4,686.52a15,15,0,0,1,1.36,6.33,15.71,15.71,0,0,1-1.77,7.26,16.33,16.33,0,0,1-14.49,8.71,16.15,16.15,0,0,1-13.19-6.68,15.41,15.41,0,0,1-3.08-9.29,15.72,15.72,0,0,1,.47-3.78,16.33,16.33,0,0,1,30.7-2.56Zm-41.54,18.87a13.12,13.12,0,1,0,13.36,13.12A13.24,13.24,0,0,0,391.86,705.39Zm295.78-177a13.12,13.12,0,1,0-13.36-13.12A13.24,13.24,0,0,0,687.64,528.36ZM329.4,720.26c-3.79,1.63-8.1,3.25-11.71,4.47a76.18,76.18,0,0,1-12,2.61,62.69,62.69,0,0,1-24.2-1.16,46,46,0,0,1-12.3-4.88,47.49,47.49,0,0,1-10.47-7.61,60.64,60.64,0,0,1-12.9-17,101.83,101.83,0,0,1-8.7-22.88A127,127,0,0,1,233,649.53a107.71,107.71,0,0,1,7.28-47.8c6-14.93,15.44-28.92,27.8-38.68a67.4,67.4,0,0,1,20.7-11,57.23,57.23,0,0,1,22.83-2.79,46.92,46.92,0,0,1,36.68,22.77c8.1,13.47,12.42,29.44,14.55,45.65v.17a8.4,8.4,0,0,0,9.58,7,8.29,8.29,0,0,0,7.1-9.35c-2.66-17.66-7.63-35.54-17.63-51.57a61.63,61.63,0,0,0-20.88-20.62,63.87,63.87,0,0,0-28.16-8.77,71.2,71.2,0,0,0-28.75,3.95,79.15,79.15,0,0,0-25,13.76c-14.67,12-24.85,27.88-31.35,44.84A121,121,0,0,0,221,650.46a139.88,139.88,0,0,0,5.09,26.31,113.85,113.85,0,0,0,10.17,25,76.31,76.31,0,0,0,11,15.1,61.54,61.54,0,0,0,6.63,6.33,14.31,14.31,0,0,0,1.48,1.16,61.25,61.25,0,0,0,23.78,11.21c18.4,4.24,37.92.87,54.13-6.74a121.61,121.61,0,0,0,23.48-13.42,115.86,115.86,0,0,0,11.77-9.64c-5.8.64-11.54,1.34-17.27,2A107.85,107.85,0,0,1,329.4,720.26Zm378-148.88a2.45,2.45,0,0,0-2.42,2.49V574a151.43,151.43,0,0,1-.9,23.58,127.68,127.68,0,0,1-4.81,22.88,119.91,119.91,0,0,1-9,21.38c-.8,1.48-1.65,3-2.54,4.43a514.47,514.47,0,0,0-17.21-99.85,413.23,413.23,0,0,0-48.61-109.68,365.54,365.54,0,0,0-132-123c-18-9.66-36.33-18-56.77-23.72a7.2,7.2,0,0,0-2.92-.19,6.83,6.83,0,0,0-5.85,7.74v.08a235.77,235.77,0,0,0,17.89,62,176,176,0,0,0,36.61,53.51,173.36,173.36,0,0,0,53.48,36.59c19.88,8.56,41,14.23,62.62,15.14a.74.74,0,0,0,.76-.62.73.73,0,0,0-.63-.82H595a185.5,185.5,0,0,1-59.93-19.26c-18.53-9.67-35.51-22.12-49.19-37.49a158.5,158.5,0,0,1-18.39-24.55c-2.82-4.26-5.07-8.86-7.58-13.29-2.11-4.65-4.57-9.13-6.33-13.92A233.68,233.68,0,0,1,440.13,307a320,320,0,0,1,42.45,19.58,353.22,353.22,0,0,1,48.34,32.55c30.36,24.27,56.21,53.7,77.16,86.13a397.8,397.8,0,0,1,47.39,105.31c11.09,37.07,17.33,75.54,20.3,114.29l0,.3a6.26,6.26,0,0,0,2.21,4.29,6.53,6.53,0,0,0,9.09-.65h0a98.78,98.78,0,0,0,13.11-22.34,129.22,129.22,0,0,0,7.74-23.82A135.16,135.16,0,0,0,711,598.07a157.3,157.3,0,0,0-1.12-24.52A2.47,2.47,0,0,0,707.36,571.38Zm-3.94-39.69a16,16,0,1,0,16.27,16A16.12,16.12,0,0,0,703.41,531.7ZM659.08,654.35c.53,4.07.71,8.71-1.48,13.47-2.07,4.94-7.16,8.36-11.54,9.58a37.14,37.14,0,0,1-12.66,1c-15.74-1.39-29.28-6.79-42.71-12.2-16.56-6.85-32.95-14.69-48.09-24.68Q536.39,646.88,530,652l-16.86,13.18a74.36,74.36,0,0,1-19.82,11c-7.16,2.5-16.27,3.66-24.2-.46s-11.89-11.79-14.2-18.76a99.94,99.94,0,0,1-3.73-16.84c-.77,2.09-1.6,4.24-2.54,6.33a99.53,99.53,0,0,1-13.07,22.36,6.49,6.49,0,0,1-9.11.64,6,6,0,0,1-2.19-4.3l-.06-.29c-3.73-20.68-10.06-52.27-10.35-50.41-2.72,15.68-4,22.88-9.58,37.11-3.43,8.19-7,16.32-11.77,23.93a126.76,126.76,0,0,1-10.65,15.68l-14.38,1.74c.65-.64,1.24-1.34,1.77-2,10.83-12.6,18.34-27.7,23.84-43.38,5.32-15.8,8.46-32.29,10.59-49a346.61,346.61,0,0,0,2.54-50.12,310.22,310.22,0,0,0-39.81-143.8c-4.14-7.38-8.58-14.52-13.37-21.43s-10.53-13.13-13.55-21.55l-.06-.23a3.09,3.09,0,0,1,1.89-3.95,3,3,0,0,1,2.37.12c9,4.07,13.9,11.56,19.4,18.47s10.41,14.29,15.14,21.78a286.65,286.65,0,0,1,43.89,150.3c0,.23,1.77,57.32,14,98.15.89-1.51,1.77-3,2.54-4.47a119.59,119.59,0,0,0,9-21.37c.71-2.5,1.42-5,2-7.55a109.45,109.45,0,0,0,2.78-15.33,142.44,142.44,0,0,0,.89-23.58v-.12a2.49,2.49,0,0,1,5-.29c.89,8.07,1.72,16.26,1.3,24.51,0,1.63-.12,3.25-.24,4.82l-.18,2.09c-.3,3.08-.53,6.21-.65,9.29a197.42,197.42,0,0,0,.06,20.5,59,59,0,0,0,3.55,19.69c2.13,6.1,5.68,11.62,10.77,14s11.3,1.8,17.33-.46a65.85,65.85,0,0,0,17-10l16.33-13.36c3.55-3,7-6,10.41-9a164.51,164.51,0,0,1-17.33-14.69c-10.29-10.4-20.05-22.59-23.13-38.39a25.86,25.86,0,0,1-.59-6,27.14,27.14,0,0,1,.47-6.45,34,34,0,0,1,5.44-11.5c5-6.45,11.24-11.09,17.57-15a142.37,142.37,0,0,1,15.38-7.9,310.12,310.12,0,0,0-40.23-21.26l-.36-.17a7.13,7.13,0,0,1-3.79-9.41,7.37,7.37,0,0,1,9.58-3.72.18.18,0,0,0,.12.06,325.89,325.89,0,0,1,47.27,26.54c.95.64,1.89,1.34,2.84,2,3.25-1.1,6.57-2.15,9.82-3.08,14.14-3.95,28.34-7,43.54-7.43,3.9,0,7.57-.12,12.54,1.51a22.19,22.19,0,0,1,2.07.93,13.71,13.71,0,0,1,2.37,1.92,18.26,18.26,0,0,1,2.25,3.72c.36,1.16.77,2.32,1.06,3.48l.35,3.31c.47,8.6-2.13,15.91-5.15,22.71a122.43,122.43,0,0,1-11.59,20.27c.65.64,1.24,1.28,1.89,1.86,6,6.56,12.36,12.89,17.87,19.92,11.71,13.47,21.59,28.4,30.94,43.5l.06.06a2.81,2.81,0,0,1,.18.41A45.86,45.86,0,0,1,659.08,654.35Zm-100.74-117c9.88,7.26,19.52,14.93,28.69,23.06,3.37,2.85,6.63,5.92,9.82,9a108.35,108.35,0,0,0,9.46-16.84c2.66-5.92,4.67-12.43,4.26-17.89.06-2.79-1.42-5.05-1.18-4.12-1.77-.7-5.38-.93-8.58-.87-13.31.46-27.27,3.31-40.58,7.09C559.58,536.92,558.93,537.15,558.34,537.32Zm-3.25,79.27c5.21-4.76,9.94-9.82,15-14.69,4.61-5.17,9.58-10.11,13.84-15.51,1.89-2.21,3.67-4.47,5.44-6.74-3.49-3.37-7.1-6.74-10.88-9.87a349.1,349.1,0,0,0-35.61-27.18,128.26,128.26,0,0,0-20.53,9.93c-5.68,3.48-10.88,7.55-14.55,12.31a22.19,22.19,0,0,0-3.61,7.43,16.92,16.92,0,0,0-.24,3.95,16,16,0,0,0,.47,4.41c2.19,12,10.59,23.29,20.11,32.7a152.34,152.34,0,0,0,17.92,14.93C546.68,624.38,550.94,620.55,555.08,616.6ZM645,647.84c-9.17-14.35-18.75-28.57-30.11-41.41-5.38-6.68-11.59-12.72-17.45-19l-.35-.35c-1.6,2-3.19,4.07-4.85,6-12.48,15-26.5,28.46-41.05,41.12a276.87,276.87,0,0,0,43.72,22.13c12.9,5.17,26.38,10,39.22,11a23.71,23.71,0,0,0,8.58-.7c2.31-.81,3.67-1.8,4.38-3.43C648.73,659.86,647.31,652.89,645,647.84ZM512.17,391.95c.83-3,2.14-5.07,3.69-5.89a6.49,6.49,0,0,1,3.13-.71,12.15,12.15,0,0,1,3.72.64,40.57,40.57,0,0,1,8.72,4.15,4.41,4.41,0,0,0,2.26.63,4.36,4.36,0,0,0,3.46-1.7,4.2,4.2,0,0,0-.87-5.95,36.28,36.28,0,0,0-10.73-5.78,21,21,0,0,0-6.66-1.14A14.5,14.5,0,0,0,506,383.75a18.8,18.8,0,0,0-2.11,5.56,193.62,193.62,0,0,1-13-17.1,4.85,4.85,0,0,0-6.66-1.3,4.68,4.68,0,0,0-1.32,6.55,168.91,168.91,0,0,0,22.07,26,160.26,160.26,0,0,0,13,11.14,133.41,133.41,0,0,0,14.22,9.6,3.55,3.55,0,0,0,1.78.48,3.51,3.51,0,0,0,2.86-1.46,3.37,3.37,0,0,0,.59-2.57,3.41,3.41,0,0,0-1.43-2.22c-4.42-3.06-8.77-6.41-12.95-9.93-3.9-3.31-7.72-6.9-11.66-11,0-.42,0-.84.05-1.21A21.86,21.86,0,0,1,512.17,391.95Z"/></g></g></svg>